M48
; DRILL file {KiCad (6.0.4)} date Sat Jun  4 07:21:56 2022
; FORMAT={-:-/ absolute / inch / decimal}
; #@! TF.CreationDate,2022-06-04T07:21:56+03:00
; #@! TF.GenerationSoftware,Kicad,Pcbnew,(6.0.4)
; #@! TF.FileFunction,Plated,1,2,PTH
FMAT,2
INCH
; #@! TA.AperFunction,Plated,PTH,ComponentDrill
T1C0.0197
; #@! TA.AperFunction,Plated,PTH,ComponentDrill
T2C0.0315
; #@! TA.AperFunction,Plated,PTH,ComponentDrill
T3C0.0394
; #@! TA.AperFunction,Plated,PTH,ComponentDrill
T4C0.1181
%
G90
G05
T1
X3.32Y-5.2131
X3.32Y-5.28
T2
X2.0304Y-4.1696
X2.0304Y-4.2696
X2.0304Y-4.3696
X2.0304Y-4.4696
X2.0304Y-4.5696
X2.0304Y-4.6696
X2.0304Y-4.7696
X2.0304Y-4.8696
X2.0304Y-5.22
X2.0304Y-5.32
X2.0304Y-5.42
X2.0304Y-5.52
X2.0304Y-5.62
X2.0304Y-5.72
X2.0304Y-5.82
X2.0304Y-5.92
X2.0304Y-6.02
X2.0304Y-6.12
X2.06Y-3.669
X2.06Y-3.7674
X2.1308Y-4.04
X2.1416Y-5.08
X2.2292Y-4.04
X2.24Y-5.08
X2.3304Y-4.1696
X2.3304Y-4.2696
X2.3304Y-4.3696
X2.3304Y-4.4696
X2.3304Y-4.5696
X2.3304Y-4.6696
X2.3304Y-4.7696
X2.3304Y-4.8696
X2.3304Y-5.22
X2.3304Y-5.32
X2.3304Y-5.42
X2.3304Y-5.52
X2.3304Y-5.62
X2.3304Y-5.72
X2.3304Y-5.82
X2.3304Y-5.92
X2.3304Y-6.02
X2.3304Y-6.12
X2.5Y-4.2992
X2.5Y-4.3992
X2.5Y-4.4992
X2.5Y-4.5992
X2.5Y-4.6992
X2.5104Y-5.225
X2.5104Y-5.325
X2.5104Y-5.425
X2.5104Y-5.525
X2.5104Y-5.625
X2.5104Y-5.725
X2.5104Y-5.825
X2.5104Y-5.925
X2.5104Y-6.025
X2.5104Y-6.125
X2.6178Y-5.1
X2.7162Y-5.1
X2.76Y-3.7508
X2.76Y-3.8492
X2.76Y-4.22
X2.76Y-4.3184
X2.76Y-4.6908
X2.76Y-4.7892
X2.8104Y-5.225
X2.8104Y-5.325
X2.8104Y-5.425
X2.8104Y-5.525
X2.8104Y-5.625
X2.8104Y-5.725
X2.8104Y-5.825
X2.8104Y-5.925
X2.8104Y-6.025
X2.8104Y-6.125
X2.8998Y-4.5904
X2.8998Y-4.8904
X2.9Y-3.6615
X2.9Y-3.9615
X2.9Y-4.1319
X2.9Y-4.4319
X2.9708Y-5.32
X2.9708Y-5.94
X2.9998Y-4.5904
X2.9998Y-4.8904
X3.0Y-3.6615
X3.0Y-3.9615
X3.0Y-4.1319
X3.0Y-4.4319
X3.02Y-5.54
X3.02Y-5.7321
X3.0692Y-5.32
X3.0692Y-5.94
X3.0998Y-4.5904
X3.0998Y-4.8904
X3.1Y-3.6615
X3.1Y-3.9615
X3.1Y-4.1319
X3.1Y-4.4319
X3.1998Y-4.5904
X3.1998Y-4.8904
X3.2Y-3.6615
X3.2Y-3.9615
X3.2Y-4.1319
X3.2Y-4.4319
X3.2998Y-4.5904
X3.2998Y-4.8904
X3.3Y-3.6615
X3.3Y-3.9615
X3.3Y-4.1319
X3.3Y-4.4319
X3.3Y-5.64
X3.3Y-5.74
X3.3Y-5.84
X3.3Y-5.94
X3.3Y-6.04
X3.3998Y-4.5904
X3.3998Y-4.8904
X3.4Y-3.6615
X3.4Y-3.9615
X3.4Y-4.1319
X3.4Y-4.4319
X3.4996Y-5.8104
X3.4996Y-5.9104
X3.4996Y-6.0104
X3.4996Y-6.1104
X3.4998Y-4.5904
X3.4998Y-4.8904
X3.5Y-3.6615
X3.5Y-3.9615
X3.5Y-4.1319
X3.5Y-4.4319
X3.5096Y-5.2004
X3.5096Y-5.3004
X3.5096Y-5.4004
X3.5096Y-5.5004
X3.6108Y-5.68
X3.6216Y-5.06
X3.7092Y-5.68
X3.72Y-5.06
X3.7996Y-5.8104
X3.7996Y-5.9104
X3.7996Y-6.0104
X3.7996Y-6.1104
X3.8Y-3.98
X3.8Y-4.08
X3.8Y-4.18
X3.8Y-4.48
X3.8Y-4.58
X3.8Y-4.68
X3.8096Y-5.2004
X3.8096Y-5.3004
X3.8096Y-5.4004
X3.8096Y-5.5004
X3.9Y-3.98
X3.9Y-4.08
X3.9Y-4.18
X3.9Y-4.48
X3.9Y-4.58
X3.9Y-4.68
X4.0Y-3.98
X4.0Y-4.08
X4.0Y-4.18
X4.0Y-4.48
X4.0Y-4.58
X4.0Y-4.68
X4.1Y-3.98
X4.1Y-4.08
X4.1Y-4.18
X4.1Y-4.48
X4.1Y-4.58
X4.1Y-4.68
X4.2Y-3.98
X4.2Y-4.08
X4.2Y-4.18
X4.2Y-4.48
X4.2Y-4.58
X4.2Y-4.68
X4.3Y-3.98
X4.3Y-4.08
X4.3Y-4.18
X4.3Y-4.48
X4.3Y-4.58
X4.3Y-4.68
X4.4Y-3.98
X4.4Y-4.08
X4.4Y-4.18
X4.4Y-4.48
X4.4Y-4.58
X4.4Y-4.68
X4.5Y-3.98
X4.5Y-4.08
X4.5Y-4.18
X4.5Y-4.48
X4.5Y-4.58
X4.5Y-4.68
X4.6Y-3.98
X4.6Y-4.08
X4.6Y-4.18
X4.6Y-4.48
X4.6Y-4.58
X4.6Y-4.68
X4.7Y-3.98
X4.7Y-4.08
X4.7Y-4.18
X4.7Y-4.48
X4.7Y-4.58
X4.7Y-4.68
X4.8Y-3.98
X4.8Y-4.08
X4.8Y-4.18
X4.8Y-4.48
X4.8Y-4.58
X4.8Y-4.68
X4.9Y-3.98
X4.9Y-4.08
X4.9Y-4.18
X4.9Y-4.48
X4.9Y-4.58
X4.9Y-4.68
X5.0Y-3.98
X5.0Y-4.08
X5.0Y-4.18
X5.0Y-4.48
X5.0Y-4.58
X5.0Y-4.68
X5.1Y-3.98
X5.1Y-4.08
X5.1Y-4.18
X5.1Y-4.48
X5.1Y-4.58
X5.1Y-4.68
X5.2Y-3.98
X5.2Y-4.08
X5.2Y-4.18
X5.2Y-4.48
X5.2Y-4.58
X5.2Y-4.68
X5.2Y-5.44
X5.2Y-5.84
X5.3Y-3.98
X5.3Y-4.08
X5.3Y-4.18
X5.3Y-4.48
X5.3Y-4.58
X5.3Y-4.68
X5.32Y-5.44
X5.32Y-5.84
T3
X1.7498Y-3.6502
X1.7498Y-3.7502
X1.7498Y-3.8502
X1.7498Y-3.9502
X1.7498Y-4.0502
X1.7498Y-4.2502
X1.7498Y-4.3502
X1.7498Y-4.4502
X1.7498Y-4.5502
X1.7498Y-4.6502
X1.7498Y-4.7502
X1.7498Y-4.8502
X1.7498Y-4.9502
X1.7498Y-5.0502
X1.7498Y-5.1502
X1.7498Y-5.2502
X1.7498Y-5.3502
X1.7498Y-5.4502
X1.7498Y-5.5502
X1.7498Y-5.6502
X1.7498Y-5.7502
X1.7498Y-5.8502
X1.7498Y-5.9502
X1.7498Y-6.0502
X1.7498Y-6.1502
X1.8498Y-3.6502
X1.8498Y-3.7502
X1.8498Y-3.8502
X1.8498Y-3.9502
X1.8498Y-4.0502
X1.8498Y-4.2502
X1.8498Y-4.3502
X1.8498Y-4.4502
X1.8498Y-4.5502
X1.8498Y-4.6502
X1.8498Y-4.7502
X1.8498Y-4.8502
X1.8498Y-4.9502
X1.8498Y-5.0502
X1.8498Y-5.1502
X1.8498Y-5.2502
X1.8498Y-5.3502
X1.8498Y-5.4502
X1.8498Y-5.5502
X1.8498Y-5.6502
X1.8498Y-5.7502
X1.8498Y-5.8502
X1.8498Y-5.9502
X1.8498Y-6.0502
X1.8498Y-6.1502
X2.28Y-3.7
X2.28Y-3.8
X2.38Y-3.7
X2.38Y-3.8
X2.48Y-3.7
X2.48Y-3.8
X2.58Y-3.7
X2.58Y-3.8
X4.2304Y-5.18
X4.3304Y-5.18
X4.38Y-5.3158
X4.38Y-6.0638
X4.4304Y-5.18
X4.5304Y-5.18
X5.1298Y-5.0698
X5.1298Y-5.1698
X5.2298Y-5.0698
X5.2298Y-5.1698
T4
X5.3Y-3.725
X5.3Y-6.075
T0
M30
