G04 #@! TF.GenerationSoftware,KiCad,Pcbnew,(5.1.4)-1*
G04 #@! TF.CreationDate,2019-12-08T17:51:34+02:00*
G04 #@! TF.ProjectId,Backplane,4261636b-706c-4616-9e65-2e6b69636164,rev?*
G04 #@! TF.SameCoordinates,PX2455c20PY5ad6650*
G04 #@! TF.FileFunction,Legend,Top*
G04 #@! TF.FilePolarity,Positive*
%FSLAX46Y46*%
G04 Gerber Fmt 4.6, Leading zero omitted, Abs format (unit mm)*
G04 Created by KiCad (PCBNEW (5.1.4)-1) date 2019-12-08 17:51:34*
%MOMM*%
%LPD*%
G04 APERTURE LIST*
%ADD10C,0.150000*%
%ADD11C,0.300000*%
%ADD12C,0.120000*%
G04 APERTURE END LIST*
D10*
X67509047Y5817620D02*
X67699523Y5817620D01*
X67794761Y5770000D01*
X67890000Y5674762D01*
X67937619Y5484286D01*
X67937619Y5150953D01*
X67890000Y4960477D01*
X67794761Y4865239D01*
X67699523Y4817620D01*
X67509047Y4817620D01*
X67413809Y4865239D01*
X67318571Y4960477D01*
X67270952Y5150953D01*
X67270952Y5484286D01*
X67318571Y5674762D01*
X67413809Y5770000D01*
X67509047Y5817620D01*
X68794761Y4865239D02*
X68699523Y4817620D01*
X68509047Y4817620D01*
X68413809Y4865239D01*
X68366190Y4912858D01*
X68318571Y5008096D01*
X68318571Y5293810D01*
X68366190Y5389048D01*
X68413809Y5436667D01*
X68509047Y5484286D01*
X68699523Y5484286D01*
X68794761Y5436667D01*
X69080476Y5484286D02*
X69461428Y5484286D01*
X69223333Y5817620D02*
X69223333Y4960477D01*
X69270952Y4865239D01*
X69366190Y4817620D01*
X69461428Y4817620D01*
X69937619Y4817620D02*
X69842380Y4865239D01*
X69794761Y4912858D01*
X69747142Y5008096D01*
X69747142Y5293810D01*
X69794761Y5389048D01*
X69842380Y5436667D01*
X69937619Y5484286D01*
X70080476Y5484286D01*
X70175714Y5436667D01*
X70223333Y5389048D01*
X70270952Y5293810D01*
X70270952Y5008096D01*
X70223333Y4912858D01*
X70175714Y4865239D01*
X70080476Y4817620D01*
X69937619Y4817620D01*
X70699523Y4817620D02*
X70699523Y5817620D01*
X70699523Y5436667D02*
X70794761Y5484286D01*
X70985238Y5484286D01*
X71080476Y5436667D01*
X71128095Y5389048D01*
X71175714Y5293810D01*
X71175714Y5008096D01*
X71128095Y4912858D01*
X71080476Y4865239D01*
X70985238Y4817620D01*
X70794761Y4817620D01*
X70699523Y4865239D01*
X71985238Y4865239D02*
X71890000Y4817620D01*
X71699523Y4817620D01*
X71604285Y4865239D01*
X71556666Y4960477D01*
X71556666Y5341429D01*
X71604285Y5436667D01*
X71699523Y5484286D01*
X71890000Y5484286D01*
X71985238Y5436667D01*
X72032857Y5341429D01*
X72032857Y5246191D01*
X71556666Y5150953D01*
X72461428Y4817620D02*
X72461428Y5484286D01*
X72461428Y5293810D02*
X72509047Y5389048D01*
X72556666Y5436667D01*
X72651904Y5484286D01*
X72747142Y5484286D01*
X73794761Y5865239D02*
X72937619Y4579524D01*
X74080476Y5722381D02*
X74128095Y5770000D01*
X74223333Y5817620D01*
X74461428Y5817620D01*
X74556666Y5770000D01*
X74604285Y5722381D01*
X74651904Y5627143D01*
X74651904Y5531905D01*
X74604285Y5389048D01*
X74032857Y4817620D01*
X74651904Y4817620D01*
X75270952Y5817620D02*
X75366190Y5817620D01*
X75461428Y5770000D01*
X75509047Y5722381D01*
X75556666Y5627143D01*
X75604285Y5436667D01*
X75604285Y5198572D01*
X75556666Y5008096D01*
X75509047Y4912858D01*
X75461428Y4865239D01*
X75366190Y4817620D01*
X75270952Y4817620D01*
X75175714Y4865239D01*
X75128095Y4912858D01*
X75080476Y5008096D01*
X75032857Y5198572D01*
X75032857Y5436667D01*
X75080476Y5627143D01*
X75128095Y5722381D01*
X75175714Y5770000D01*
X75270952Y5817620D01*
X76556666Y4817620D02*
X75985238Y4817620D01*
X76270952Y4817620D02*
X76270952Y5817620D01*
X76175714Y5674762D01*
X76080476Y5579524D01*
X75985238Y5531905D01*
X77032857Y4817620D02*
X77223333Y4817620D01*
X77318571Y4865239D01*
X77366190Y4912858D01*
X77461428Y5055715D01*
X77509047Y5246191D01*
X77509047Y5627143D01*
X77461428Y5722381D01*
X77413809Y5770000D01*
X77318571Y5817620D01*
X77128095Y5817620D01*
X77032857Y5770000D01*
X76985238Y5722381D01*
X76937619Y5627143D01*
X76937619Y5389048D01*
X76985238Y5293810D01*
X77032857Y5246191D01*
X77128095Y5198572D01*
X77318571Y5198572D01*
X77413809Y5246191D01*
X77461428Y5293810D01*
X77509047Y5389048D01*
X68461428Y3691429D02*
X68604285Y3643810D01*
X68651904Y3596191D01*
X68699523Y3500953D01*
X68699523Y3358096D01*
X68651904Y3262858D01*
X68604285Y3215239D01*
X68509047Y3167620D01*
X68128095Y3167620D01*
X68128095Y4167620D01*
X68461428Y4167620D01*
X68556666Y4120000D01*
X68604285Y4072381D01*
X68651904Y3977143D01*
X68651904Y3881905D01*
X68604285Y3786667D01*
X68556666Y3739048D01*
X68461428Y3691429D01*
X68128095Y3691429D01*
X69032857Y3834286D02*
X69270952Y3167620D01*
X69509047Y3834286D02*
X69270952Y3167620D01*
X69175714Y2929524D01*
X69128095Y2881905D01*
X69032857Y2834286D01*
X70651904Y3167620D02*
X70651904Y4167620D01*
X71223333Y3167620D02*
X70794761Y3739048D01*
X71223333Y4167620D02*
X70651904Y3596191D01*
X72080476Y3167620D02*
X72080476Y3691429D01*
X72032857Y3786667D01*
X71937619Y3834286D01*
X71747142Y3834286D01*
X71651904Y3786667D01*
X72080476Y3215239D02*
X71985238Y3167620D01*
X71747142Y3167620D01*
X71651904Y3215239D01*
X71604285Y3310477D01*
X71604285Y3405715D01*
X71651904Y3500953D01*
X71747142Y3548572D01*
X71985238Y3548572D01*
X72080476Y3596191D01*
X72699523Y3167620D02*
X72604285Y3215239D01*
X72556666Y3310477D01*
X72556666Y4167620D01*
X72937619Y3834286D02*
X73318571Y3834286D01*
X73080476Y4167620D02*
X73080476Y3310477D01*
X73128095Y3215239D01*
X73223333Y3167620D01*
X73318571Y3167620D01*
X74080476Y3215239D02*
X73985238Y3167620D01*
X73794761Y3167620D01*
X73699523Y3215239D01*
X73651904Y3262858D01*
X73604285Y3358096D01*
X73604285Y3643810D01*
X73651904Y3739048D01*
X73699523Y3786667D01*
X73794761Y3834286D01*
X73985238Y3834286D01*
X74080476Y3786667D01*
X74509047Y3167620D02*
X74509047Y4167620D01*
X74937619Y3167620D02*
X74937619Y3691429D01*
X74890000Y3786667D01*
X74794761Y3834286D01*
X74651904Y3834286D01*
X74556666Y3786667D01*
X74509047Y3739048D01*
X75842380Y3834286D02*
X75842380Y3167620D01*
X75413809Y3834286D02*
X75413809Y3310477D01*
X75461428Y3215239D01*
X75556666Y3167620D01*
X75699523Y3167620D01*
X75794761Y3215239D01*
X75842380Y3262858D01*
X76318571Y3167620D02*
X76318571Y4167620D01*
X76413809Y3548572D02*
X76699523Y3167620D01*
X76699523Y3834286D02*
X76318571Y3453334D01*
D11*
X41069761Y11479762D02*
X41069761Y12813096D01*
X43069761Y11479762D01*
X43069761Y12813096D01*
X41926904Y13860715D02*
X41831666Y13670239D01*
X41736428Y13575000D01*
X41545952Y13479762D01*
X41450714Y13479762D01*
X41260238Y13575000D01*
X41165000Y13670239D01*
X41069761Y13860715D01*
X41069761Y14241667D01*
X41165000Y14432143D01*
X41260238Y14527381D01*
X41450714Y14622620D01*
X41545952Y14622620D01*
X41736428Y14527381D01*
X41831666Y14432143D01*
X41926904Y14241667D01*
X41926904Y13860715D01*
X42022142Y13670239D01*
X42117380Y13575000D01*
X42307857Y13479762D01*
X42688809Y13479762D01*
X42879285Y13575000D01*
X42974523Y13670239D01*
X43069761Y13860715D01*
X43069761Y14241667D01*
X42974523Y14432143D01*
X42879285Y14527381D01*
X42688809Y14622620D01*
X42307857Y14622620D01*
X42117380Y14527381D01*
X42022142Y14432143D01*
X41926904Y14241667D01*
X41069761Y15860715D02*
X41069761Y16051191D01*
X41165000Y16241667D01*
X41260238Y16336905D01*
X41450714Y16432143D01*
X41831666Y16527381D01*
X42307857Y16527381D01*
X42688809Y16432143D01*
X42879285Y16336905D01*
X42974523Y16241667D01*
X43069761Y16051191D01*
X43069761Y15860715D01*
X42974523Y15670239D01*
X42879285Y15575000D01*
X42688809Y15479762D01*
X42307857Y15384524D01*
X41831666Y15384524D01*
X41450714Y15479762D01*
X41260238Y15575000D01*
X41165000Y15670239D01*
X41069761Y15860715D01*
X43069761Y18908334D02*
X41069761Y18908334D01*
X42498333Y19575000D01*
X41069761Y20241667D01*
X43069761Y20241667D01*
X43069761Y21479762D02*
X42974523Y21289286D01*
X42879285Y21194048D01*
X42688809Y21098810D01*
X42117380Y21098810D01*
X41926904Y21194048D01*
X41831666Y21289286D01*
X41736428Y21479762D01*
X41736428Y21765477D01*
X41831666Y21955953D01*
X41926904Y22051191D01*
X42117380Y22146429D01*
X42688809Y22146429D01*
X42879285Y22051191D01*
X42974523Y21955953D01*
X43069761Y21765477D01*
X43069761Y21479762D01*
X43069761Y23860715D02*
X41069761Y23860715D01*
X42974523Y23860715D02*
X43069761Y23670239D01*
X43069761Y23289286D01*
X42974523Y23098810D01*
X42879285Y23003572D01*
X42688809Y22908334D01*
X42117380Y22908334D01*
X41926904Y23003572D01*
X41831666Y23098810D01*
X41736428Y23289286D01*
X41736428Y23670239D01*
X41831666Y23860715D01*
X41736428Y25670239D02*
X43069761Y25670239D01*
X41736428Y24813096D02*
X42784047Y24813096D01*
X42974523Y24908334D01*
X43069761Y25098810D01*
X43069761Y25384524D01*
X42974523Y25575000D01*
X42879285Y25670239D01*
X43069761Y26908334D02*
X42974523Y26717858D01*
X42784047Y26622620D01*
X41069761Y26622620D01*
X43069761Y28527381D02*
X42022142Y28527381D01*
X41831666Y28432143D01*
X41736428Y28241667D01*
X41736428Y27860715D01*
X41831666Y27670239D01*
X42974523Y28527381D02*
X43069761Y28336905D01*
X43069761Y27860715D01*
X42974523Y27670239D01*
X42784047Y27575000D01*
X42593571Y27575000D01*
X42403095Y27670239D01*
X42307857Y27860715D01*
X42307857Y28336905D01*
X42212619Y28527381D01*
X43069761Y29479762D02*
X41736428Y29479762D01*
X42117380Y29479762D02*
X41926904Y29575000D01*
X41831666Y29670239D01*
X41736428Y29860715D01*
X41736428Y30051191D01*
X42879285Y33384524D02*
X42974523Y33289286D01*
X43069761Y33003572D01*
X43069761Y32813096D01*
X42974523Y32527381D01*
X42784047Y32336905D01*
X42593571Y32241667D01*
X42212619Y32146429D01*
X41926904Y32146429D01*
X41545952Y32241667D01*
X41355476Y32336905D01*
X41165000Y32527381D01*
X41069761Y32813096D01*
X41069761Y33003572D01*
X41165000Y33289286D01*
X41260238Y33384524D01*
X43069761Y34527381D02*
X42974523Y34336905D01*
X42879285Y34241667D01*
X42688809Y34146429D01*
X42117380Y34146429D01*
X41926904Y34241667D01*
X41831666Y34336905D01*
X41736428Y34527381D01*
X41736428Y34813096D01*
X41831666Y35003572D01*
X41926904Y35098810D01*
X42117380Y35194048D01*
X42688809Y35194048D01*
X42879285Y35098810D01*
X42974523Y35003572D01*
X43069761Y34813096D01*
X43069761Y34527381D01*
X43069761Y36051191D02*
X41736428Y36051191D01*
X41926904Y36051191D02*
X41831666Y36146429D01*
X41736428Y36336905D01*
X41736428Y36622620D01*
X41831666Y36813096D01*
X42022142Y36908334D01*
X43069761Y36908334D01*
X42022142Y36908334D02*
X41831666Y37003572D01*
X41736428Y37194048D01*
X41736428Y37479762D01*
X41831666Y37670239D01*
X42022142Y37765477D01*
X43069761Y37765477D01*
X41736428Y38717858D02*
X43736428Y38717858D01*
X41831666Y38717858D02*
X41736428Y38908334D01*
X41736428Y39289286D01*
X41831666Y39479762D01*
X41926904Y39575000D01*
X42117380Y39670239D01*
X42688809Y39670239D01*
X42879285Y39575000D01*
X42974523Y39479762D01*
X43069761Y39289286D01*
X43069761Y38908334D01*
X42974523Y38717858D01*
X41736428Y41384524D02*
X43069761Y41384524D01*
X41736428Y40527381D02*
X42784047Y40527381D01*
X42974523Y40622620D01*
X43069761Y40813096D01*
X43069761Y41098810D01*
X42974523Y41289286D01*
X42879285Y41384524D01*
X41736428Y42051191D02*
X41736428Y42813096D01*
X41069761Y42336905D02*
X42784047Y42336905D01*
X42974523Y42432143D01*
X43069761Y42622620D01*
X43069761Y42813096D01*
X42974523Y44241667D02*
X43069761Y44051191D01*
X43069761Y43670239D01*
X42974523Y43479762D01*
X42784047Y43384524D01*
X42022142Y43384524D01*
X41831666Y43479762D01*
X41736428Y43670239D01*
X41736428Y44051191D01*
X41831666Y44241667D01*
X42022142Y44336905D01*
X42212619Y44336905D01*
X42403095Y43384524D01*
X43069761Y45194048D02*
X41736428Y45194048D01*
X42117380Y45194048D02*
X41926904Y45289286D01*
X41831666Y45384524D01*
X41736428Y45575000D01*
X41736428Y45765477D01*
X45322142Y18051191D02*
X45417380Y18336905D01*
X45512619Y18432143D01*
X45703095Y18527381D01*
X45988809Y18527381D01*
X46179285Y18432143D01*
X46274523Y18336905D01*
X46369761Y18146429D01*
X46369761Y17384524D01*
X44369761Y17384524D01*
X44369761Y18051191D01*
X44465000Y18241667D01*
X44560238Y18336905D01*
X44750714Y18432143D01*
X44941190Y18432143D01*
X45131666Y18336905D01*
X45226904Y18241667D01*
X45322142Y18051191D01*
X45322142Y17384524D01*
X46369761Y20241667D02*
X45322142Y20241667D01*
X45131666Y20146429D01*
X45036428Y19955953D01*
X45036428Y19575000D01*
X45131666Y19384524D01*
X46274523Y20241667D02*
X46369761Y20051191D01*
X46369761Y19575000D01*
X46274523Y19384524D01*
X46084047Y19289286D01*
X45893571Y19289286D01*
X45703095Y19384524D01*
X45607857Y19575000D01*
X45607857Y20051191D01*
X45512619Y20241667D01*
X46274523Y22051191D02*
X46369761Y21860715D01*
X46369761Y21479762D01*
X46274523Y21289286D01*
X46179285Y21194048D01*
X45988809Y21098810D01*
X45417380Y21098810D01*
X45226904Y21194048D01*
X45131666Y21289286D01*
X45036428Y21479762D01*
X45036428Y21860715D01*
X45131666Y22051191D01*
X46369761Y22908334D02*
X44369761Y22908334D01*
X45607857Y23098810D02*
X46369761Y23670239D01*
X45036428Y23670239D02*
X45798333Y22908334D01*
X45036428Y24527381D02*
X47036428Y24527381D01*
X45131666Y24527381D02*
X45036428Y24717858D01*
X45036428Y25098810D01*
X45131666Y25289286D01*
X45226904Y25384524D01*
X45417380Y25479762D01*
X45988809Y25479762D01*
X46179285Y25384524D01*
X46274523Y25289286D01*
X46369761Y25098810D01*
X46369761Y24717858D01*
X46274523Y24527381D01*
X46369761Y26622620D02*
X46274523Y26432143D01*
X46084047Y26336905D01*
X44369761Y26336905D01*
X46369761Y28241667D02*
X45322142Y28241667D01*
X45131666Y28146429D01*
X45036428Y27955953D01*
X45036428Y27575000D01*
X45131666Y27384524D01*
X46274523Y28241667D02*
X46369761Y28051191D01*
X46369761Y27575000D01*
X46274523Y27384524D01*
X46084047Y27289286D01*
X45893571Y27289286D01*
X45703095Y27384524D01*
X45607857Y27575000D01*
X45607857Y28051191D01*
X45512619Y28241667D01*
X45036428Y29194048D02*
X46369761Y29194048D01*
X45226904Y29194048D02*
X45131666Y29289286D01*
X45036428Y29479762D01*
X45036428Y29765477D01*
X45131666Y29955953D01*
X45322142Y30051191D01*
X46369761Y30051191D01*
X46274523Y31765477D02*
X46369761Y31575000D01*
X46369761Y31194048D01*
X46274523Y31003572D01*
X46084047Y30908334D01*
X45322142Y30908334D01*
X45131666Y31003572D01*
X45036428Y31194048D01*
X45036428Y31575000D01*
X45131666Y31765477D01*
X45322142Y31860715D01*
X45512619Y31860715D01*
X45703095Y30908334D01*
X44369761Y33955953D02*
X46369761Y34622620D01*
X44369761Y35289286D01*
X46369761Y37003572D02*
X46369761Y35860715D01*
X46369761Y36432143D02*
X44369761Y36432143D01*
X44655476Y36241667D01*
X44845952Y36051191D01*
X44941190Y35860715D01*
X46179285Y37860715D02*
X46274523Y37955953D01*
X46369761Y37860715D01*
X46274523Y37765477D01*
X46179285Y37860715D01*
X46369761Y37860715D01*
X44369761Y39194048D02*
X44369761Y39384524D01*
X44465000Y39575000D01*
X44560238Y39670239D01*
X44750714Y39765477D01*
X45131666Y39860715D01*
X45607857Y39860715D01*
X45988809Y39765477D01*
X46179285Y39670239D01*
X46274523Y39575000D01*
X46369761Y39384524D01*
X46369761Y39194048D01*
X46274523Y39003572D01*
X46179285Y38908334D01*
X45988809Y38813096D01*
X45607857Y38717858D01*
X45131666Y38717858D01*
X44750714Y38813096D01*
X44560238Y38908334D01*
X44465000Y39003572D01*
X44369761Y39194048D01*
D12*
X3750000Y53400000D02*
X5080000Y53400000D01*
X3750000Y52070000D02*
X3750000Y53400000D01*
X6350000Y53400000D02*
X8950000Y53400000D01*
X6350000Y50800000D02*
X6350000Y53400000D01*
X3750000Y50800000D02*
X6350000Y50800000D01*
X8950000Y53400000D02*
X8950000Y2480000D01*
X3750000Y50800000D02*
X3750000Y2480000D01*
X3750000Y2480000D02*
X8950000Y2480000D01*
X91380000Y53400000D02*
X92710000Y53400000D01*
X91380000Y52070000D02*
X91380000Y53400000D01*
X93980000Y53400000D02*
X96580000Y53400000D01*
X93980000Y50800000D02*
X93980000Y53400000D01*
X91380000Y50800000D02*
X93980000Y50800000D01*
X96580000Y53400000D02*
X96580000Y2480000D01*
X91380000Y50800000D02*
X91380000Y2480000D01*
X91380000Y2480000D02*
X96580000Y2480000D01*
X91380000Y68640000D02*
X92710000Y68640000D01*
X91380000Y67310000D02*
X91380000Y68640000D01*
X93980000Y68640000D02*
X96580000Y68640000D01*
X93980000Y66040000D02*
X93980000Y68640000D01*
X91380000Y66040000D02*
X93980000Y66040000D01*
X96580000Y68640000D02*
X96580000Y55820000D01*
X91380000Y66040000D02*
X91380000Y55820000D01*
X91380000Y55820000D02*
X96580000Y55820000D01*
X3750000Y68640000D02*
X5080000Y68640000D01*
X3750000Y67310000D02*
X3750000Y68640000D01*
X6350000Y68640000D02*
X8950000Y68640000D01*
X6350000Y66040000D02*
X6350000Y68640000D01*
X3750000Y66040000D02*
X6350000Y66040000D01*
X8950000Y68640000D02*
X8950000Y55820000D01*
X3750000Y66040000D02*
X3750000Y55820000D01*
X3750000Y55820000D02*
X8950000Y55820000D01*
X83760000Y2480000D02*
X88960000Y2480000D01*
X83760000Y50800000D02*
X83760000Y2480000D01*
X88960000Y53400000D02*
X88960000Y2480000D01*
X83760000Y50800000D02*
X86360000Y50800000D01*
X86360000Y50800000D02*
X86360000Y53400000D01*
X86360000Y53400000D02*
X88960000Y53400000D01*
X83760000Y52070000D02*
X83760000Y53400000D01*
X83760000Y53400000D02*
X85090000Y53400000D01*
X55820000Y53400000D02*
X57150000Y53400000D01*
X55820000Y52070000D02*
X55820000Y53400000D01*
X58420000Y53400000D02*
X61020000Y53400000D01*
X58420000Y50800000D02*
X58420000Y53400000D01*
X55820000Y50800000D02*
X58420000Y50800000D01*
X61020000Y53400000D02*
X61020000Y2480000D01*
X55820000Y50800000D02*
X55820000Y2480000D01*
X55820000Y2480000D02*
X61020000Y2480000D01*
X27880000Y2480000D02*
X33080000Y2480000D01*
X27880000Y50800000D02*
X27880000Y2480000D01*
X33080000Y53400000D02*
X33080000Y2480000D01*
X27880000Y50800000D02*
X30480000Y50800000D01*
X30480000Y50800000D02*
X30480000Y53400000D01*
X30480000Y53400000D02*
X33080000Y53400000D01*
X27880000Y52070000D02*
X27880000Y53400000D01*
X27880000Y53400000D02*
X29210000Y53400000D01*
X83760000Y55820000D02*
X88960000Y55820000D01*
X83760000Y66040000D02*
X83760000Y55820000D01*
X88960000Y68640000D02*
X88960000Y55820000D01*
X83760000Y66040000D02*
X86360000Y66040000D01*
X86360000Y66040000D02*
X86360000Y68640000D01*
X86360000Y68640000D02*
X88960000Y68640000D01*
X83760000Y67310000D02*
X83760000Y68640000D01*
X83760000Y68640000D02*
X85090000Y68640000D01*
X55820000Y68640000D02*
X57150000Y68640000D01*
X55820000Y67310000D02*
X55820000Y68640000D01*
X58420000Y68640000D02*
X61020000Y68640000D01*
X58420000Y66040000D02*
X58420000Y68640000D01*
X55820000Y66040000D02*
X58420000Y66040000D01*
X61020000Y68640000D02*
X61020000Y55820000D01*
X55820000Y66040000D02*
X55820000Y55820000D01*
X55820000Y55820000D02*
X61020000Y55820000D01*
X27880000Y55820000D02*
X33080000Y55820000D01*
X27880000Y66040000D02*
X27880000Y55820000D01*
X33080000Y68640000D02*
X33080000Y55820000D01*
X27880000Y66040000D02*
X30480000Y66040000D01*
X30480000Y66040000D02*
X30480000Y68640000D01*
X30480000Y68640000D02*
X33080000Y68640000D01*
X27880000Y67310000D02*
X27880000Y68640000D01*
X27880000Y68640000D02*
X29210000Y68640000D01*
D10*
X9826666Y53887620D02*
X9826666Y53173334D01*
X9779047Y53030477D01*
X9683809Y52935239D01*
X9540952Y52887620D01*
X9445714Y52887620D01*
X10255238Y53792381D02*
X10302857Y53840000D01*
X10398095Y53887620D01*
X10636190Y53887620D01*
X10731428Y53840000D01*
X10779047Y53792381D01*
X10826666Y53697143D01*
X10826666Y53601905D01*
X10779047Y53459048D01*
X10207619Y52887620D01*
X10826666Y52887620D01*
X97555476Y53887620D02*
X97555476Y53173334D01*
X97507857Y53030477D01*
X97412619Y52935239D01*
X97269761Y52887620D01*
X97174523Y52887620D01*
X98555476Y52887620D02*
X97984047Y52887620D01*
X98269761Y52887620D02*
X98269761Y53887620D01*
X98174523Y53744762D01*
X98079285Y53649524D01*
X97984047Y53601905D01*
X99174523Y53887620D02*
X99269761Y53887620D01*
X99365000Y53840000D01*
X99412619Y53792381D01*
X99460238Y53697143D01*
X99507857Y53506667D01*
X99507857Y53268572D01*
X99460238Y53078096D01*
X99412619Y52982858D01*
X99365000Y52935239D01*
X99269761Y52887620D01*
X99174523Y52887620D01*
X99079285Y52935239D01*
X99031666Y52982858D01*
X98984047Y53078096D01*
X98936428Y53268572D01*
X98936428Y53506667D01*
X98984047Y53697143D01*
X99031666Y53792381D01*
X99079285Y53840000D01*
X99174523Y53887620D01*
X97456666Y69127620D02*
X97456666Y68413334D01*
X97409047Y68270477D01*
X97313809Y68175239D01*
X97170952Y68127620D01*
X97075714Y68127620D01*
X97980476Y68127620D02*
X98170952Y68127620D01*
X98266190Y68175239D01*
X98313809Y68222858D01*
X98409047Y68365715D01*
X98456666Y68556191D01*
X98456666Y68937143D01*
X98409047Y69032381D01*
X98361428Y69080000D01*
X98266190Y69127620D01*
X98075714Y69127620D01*
X97980476Y69080000D01*
X97932857Y69032381D01*
X97885238Y68937143D01*
X97885238Y68699048D01*
X97932857Y68603810D01*
X97980476Y68556191D01*
X98075714Y68508572D01*
X98266190Y68508572D01*
X98361428Y68556191D01*
X98409047Y68603810D01*
X98456666Y68699048D01*
X9826666Y69127620D02*
X9826666Y68413334D01*
X9779047Y68270477D01*
X9683809Y68175239D01*
X9540952Y68127620D01*
X9445714Y68127620D01*
X10826666Y68127620D02*
X10255238Y68127620D01*
X10540952Y68127620D02*
X10540952Y69127620D01*
X10445714Y68984762D01*
X10350476Y68889524D01*
X10255238Y68841905D01*
X89836666Y53887620D02*
X89836666Y53173334D01*
X89789047Y53030477D01*
X89693809Y52935239D01*
X89550952Y52887620D01*
X89455714Y52887620D01*
X90455714Y53459048D02*
X90360476Y53506667D01*
X90312857Y53554286D01*
X90265238Y53649524D01*
X90265238Y53697143D01*
X90312857Y53792381D01*
X90360476Y53840000D01*
X90455714Y53887620D01*
X90646190Y53887620D01*
X90741428Y53840000D01*
X90789047Y53792381D01*
X90836666Y53697143D01*
X90836666Y53649524D01*
X90789047Y53554286D01*
X90741428Y53506667D01*
X90646190Y53459048D01*
X90455714Y53459048D01*
X90360476Y53411429D01*
X90312857Y53363810D01*
X90265238Y53268572D01*
X90265238Y53078096D01*
X90312857Y52982858D01*
X90360476Y52935239D01*
X90455714Y52887620D01*
X90646190Y52887620D01*
X90741428Y52935239D01*
X90789047Y52982858D01*
X90836666Y53078096D01*
X90836666Y53268572D01*
X90789047Y53363810D01*
X90741428Y53411429D01*
X90646190Y53459048D01*
X61896666Y53887620D02*
X61896666Y53173334D01*
X61849047Y53030477D01*
X61753809Y52935239D01*
X61610952Y52887620D01*
X61515714Y52887620D01*
X62801428Y53887620D02*
X62610952Y53887620D01*
X62515714Y53840000D01*
X62468095Y53792381D01*
X62372857Y53649524D01*
X62325238Y53459048D01*
X62325238Y53078096D01*
X62372857Y52982858D01*
X62420476Y52935239D01*
X62515714Y52887620D01*
X62706190Y52887620D01*
X62801428Y52935239D01*
X62849047Y52982858D01*
X62896666Y53078096D01*
X62896666Y53316191D01*
X62849047Y53411429D01*
X62801428Y53459048D01*
X62706190Y53506667D01*
X62515714Y53506667D01*
X62420476Y53459048D01*
X62372857Y53411429D01*
X62325238Y53316191D01*
X33956666Y53887620D02*
X33956666Y53173334D01*
X33909047Y53030477D01*
X33813809Y52935239D01*
X33670952Y52887620D01*
X33575714Y52887620D01*
X34861428Y53554286D02*
X34861428Y52887620D01*
X34623333Y53935239D02*
X34385238Y53220953D01*
X35004285Y53220953D01*
X89836666Y69127620D02*
X89836666Y68413334D01*
X89789047Y68270477D01*
X89693809Y68175239D01*
X89550952Y68127620D01*
X89455714Y68127620D01*
X90217619Y69127620D02*
X90884285Y69127620D01*
X90455714Y68127620D01*
X61896666Y69127620D02*
X61896666Y68413334D01*
X61849047Y68270477D01*
X61753809Y68175239D01*
X61610952Y68127620D01*
X61515714Y68127620D01*
X62849047Y69127620D02*
X62372857Y69127620D01*
X62325238Y68651429D01*
X62372857Y68699048D01*
X62468095Y68746667D01*
X62706190Y68746667D01*
X62801428Y68699048D01*
X62849047Y68651429D01*
X62896666Y68556191D01*
X62896666Y68318096D01*
X62849047Y68222858D01*
X62801428Y68175239D01*
X62706190Y68127620D01*
X62468095Y68127620D01*
X62372857Y68175239D01*
X62325238Y68222858D01*
X33956666Y69127620D02*
X33956666Y68413334D01*
X33909047Y68270477D01*
X33813809Y68175239D01*
X33670952Y68127620D01*
X33575714Y68127620D01*
X34337619Y69127620D02*
X34956666Y69127620D01*
X34623333Y68746667D01*
X34766190Y68746667D01*
X34861428Y68699048D01*
X34909047Y68651429D01*
X34956666Y68556191D01*
X34956666Y68318096D01*
X34909047Y68222858D01*
X34861428Y68175239D01*
X34766190Y68127620D01*
X34480476Y68127620D01*
X34385238Y68175239D01*
X34337619Y68222858D01*
M02*
