G04 #@! TF.GenerationSoftware,KiCad,Pcbnew,(5.1.4)-1*
G04 #@! TF.CreationDate,2019-12-08T17:51:34+02:00*
G04 #@! TF.ProjectId,Backplane,4261636b-706c-4616-9e65-2e6b69636164,rev?*
G04 #@! TF.SameCoordinates,PX2455c20PY5ad6650*
G04 #@! TF.FileFunction,Copper,L2,Bot*
G04 #@! TF.FilePolarity,Positive*
%FSLAX46Y46*%
G04 Gerber Fmt 4.6, Leading zero omitted, Abs format (unit mm)*
G04 Created by KiCad (PCBNEW (5.1.4)-1) date 2019-12-08 17:51:34*
%MOMM*%
%LPD*%
G04 APERTURE LIST*
%ADD10O,1.700000X1.700000*%
%ADD11R,1.700000X1.700000*%
%ADD12C,0.300000*%
%ADD13C,1.000000*%
G04 APERTURE END LIST*
D10*
X7620000Y3810000D03*
X5080000Y3810000D03*
X7620000Y6350000D03*
X5080000Y6350000D03*
X7620000Y8890000D03*
X5080000Y8890000D03*
X7620000Y11430000D03*
X5080000Y11430000D03*
X7620000Y13970000D03*
X5080000Y13970000D03*
X7620000Y16510000D03*
X5080000Y16510000D03*
X7620000Y19050000D03*
X5080000Y19050000D03*
X7620000Y21590000D03*
X5080000Y21590000D03*
X7620000Y24130000D03*
X5080000Y24130000D03*
X7620000Y26670000D03*
X5080000Y26670000D03*
X7620000Y29210000D03*
X5080000Y29210000D03*
X7620000Y31750000D03*
X5080000Y31750000D03*
X7620000Y34290000D03*
X5080000Y34290000D03*
X7620000Y36830000D03*
X5080000Y36830000D03*
X7620000Y39370000D03*
X5080000Y39370000D03*
X7620000Y41910000D03*
X5080000Y41910000D03*
X7620000Y44450000D03*
X5080000Y44450000D03*
X7620000Y46990000D03*
X5080000Y46990000D03*
X7620000Y49530000D03*
X5080000Y49530000D03*
X7620000Y52070000D03*
D11*
X5080000Y52070000D03*
D10*
X95250000Y3810000D03*
X92710000Y3810000D03*
X95250000Y6350000D03*
X92710000Y6350000D03*
X95250000Y8890000D03*
X92710000Y8890000D03*
X95250000Y11430000D03*
X92710000Y11430000D03*
X95250000Y13970000D03*
X92710000Y13970000D03*
X95250000Y16510000D03*
X92710000Y16510000D03*
X95250000Y19050000D03*
X92710000Y19050000D03*
X95250000Y21590000D03*
X92710000Y21590000D03*
X95250000Y24130000D03*
X92710000Y24130000D03*
X95250000Y26670000D03*
X92710000Y26670000D03*
X95250000Y29210000D03*
X92710000Y29210000D03*
X95250000Y31750000D03*
X92710000Y31750000D03*
X95250000Y34290000D03*
X92710000Y34290000D03*
X95250000Y36830000D03*
X92710000Y36830000D03*
X95250000Y39370000D03*
X92710000Y39370000D03*
X95250000Y41910000D03*
X92710000Y41910000D03*
X95250000Y44450000D03*
X92710000Y44450000D03*
X95250000Y46990000D03*
X92710000Y46990000D03*
X95250000Y49530000D03*
X92710000Y49530000D03*
X95250000Y52070000D03*
D11*
X92710000Y52070000D03*
D10*
X95250000Y57150000D03*
X92710000Y57150000D03*
X95250000Y59690000D03*
X92710000Y59690000D03*
X95250000Y62230000D03*
X92710000Y62230000D03*
X95250000Y64770000D03*
X92710000Y64770000D03*
X95250000Y67310000D03*
D11*
X92710000Y67310000D03*
D10*
X7620000Y57150000D03*
X5080000Y57150000D03*
X7620000Y59690000D03*
X5080000Y59690000D03*
X7620000Y62230000D03*
X5080000Y62230000D03*
X7620000Y64770000D03*
X5080000Y64770000D03*
X7620000Y67310000D03*
D11*
X5080000Y67310000D03*
X85090000Y52070000D03*
D10*
X87630000Y52070000D03*
X85090000Y49530000D03*
X87630000Y49530000D03*
X85090000Y46990000D03*
X87630000Y46990000D03*
X85090000Y44450000D03*
X87630000Y44450000D03*
X85090000Y41910000D03*
X87630000Y41910000D03*
X85090000Y39370000D03*
X87630000Y39370000D03*
X85090000Y36830000D03*
X87630000Y36830000D03*
X85090000Y34290000D03*
X87630000Y34290000D03*
X85090000Y31750000D03*
X87630000Y31750000D03*
X85090000Y29210000D03*
X87630000Y29210000D03*
X85090000Y26670000D03*
X87630000Y26670000D03*
X85090000Y24130000D03*
X87630000Y24130000D03*
X85090000Y21590000D03*
X87630000Y21590000D03*
X85090000Y19050000D03*
X87630000Y19050000D03*
X85090000Y16510000D03*
X87630000Y16510000D03*
X85090000Y13970000D03*
X87630000Y13970000D03*
X85090000Y11430000D03*
X87630000Y11430000D03*
X85090000Y8890000D03*
X87630000Y8890000D03*
X85090000Y6350000D03*
X87630000Y6350000D03*
X85090000Y3810000D03*
X87630000Y3810000D03*
X59690000Y3810000D03*
X57150000Y3810000D03*
X59690000Y6350000D03*
X57150000Y6350000D03*
X59690000Y8890000D03*
X57150000Y8890000D03*
X59690000Y11430000D03*
X57150000Y11430000D03*
X59690000Y13970000D03*
X57150000Y13970000D03*
X59690000Y16510000D03*
X57150000Y16510000D03*
X59690000Y19050000D03*
X57150000Y19050000D03*
X59690000Y21590000D03*
X57150000Y21590000D03*
X59690000Y24130000D03*
X57150000Y24130000D03*
X59690000Y26670000D03*
X57150000Y26670000D03*
X59690000Y29210000D03*
X57150000Y29210000D03*
X59690000Y31750000D03*
X57150000Y31750000D03*
X59690000Y34290000D03*
X57150000Y34290000D03*
X59690000Y36830000D03*
X57150000Y36830000D03*
X59690000Y39370000D03*
X57150000Y39370000D03*
X59690000Y41910000D03*
X57150000Y41910000D03*
X59690000Y44450000D03*
X57150000Y44450000D03*
X59690000Y46990000D03*
X57150000Y46990000D03*
X59690000Y49530000D03*
X57150000Y49530000D03*
X59690000Y52070000D03*
D11*
X57150000Y52070000D03*
X29210000Y52070000D03*
D10*
X31750000Y52070000D03*
X29210000Y49530000D03*
X31750000Y49530000D03*
X29210000Y46990000D03*
X31750000Y46990000D03*
X29210000Y44450000D03*
X31750000Y44450000D03*
X29210000Y41910000D03*
X31750000Y41910000D03*
X29210000Y39370000D03*
X31750000Y39370000D03*
X29210000Y36830000D03*
X31750000Y36830000D03*
X29210000Y34290000D03*
X31750000Y34290000D03*
X29210000Y31750000D03*
X31750000Y31750000D03*
X29210000Y29210000D03*
X31750000Y29210000D03*
X29210000Y26670000D03*
X31750000Y26670000D03*
X29210000Y24130000D03*
X31750000Y24130000D03*
X29210000Y21590000D03*
X31750000Y21590000D03*
X29210000Y19050000D03*
X31750000Y19050000D03*
X29210000Y16510000D03*
X31750000Y16510000D03*
X29210000Y13970000D03*
X31750000Y13970000D03*
X29210000Y11430000D03*
X31750000Y11430000D03*
X29210000Y8890000D03*
X31750000Y8890000D03*
X29210000Y6350000D03*
X31750000Y6350000D03*
X29210000Y3810000D03*
X31750000Y3810000D03*
D11*
X85090000Y67310000D03*
D10*
X87630000Y67310000D03*
X85090000Y64770000D03*
X87630000Y64770000D03*
X85090000Y62230000D03*
X87630000Y62230000D03*
X85090000Y59690000D03*
X87630000Y59690000D03*
X85090000Y57150000D03*
X87630000Y57150000D03*
X59690000Y57150000D03*
X57150000Y57150000D03*
X59690000Y59690000D03*
X57150000Y59690000D03*
X59690000Y62230000D03*
X57150000Y62230000D03*
X59690000Y64770000D03*
X57150000Y64770000D03*
X59690000Y67310000D03*
D11*
X57150000Y67310000D03*
X29210000Y67310000D03*
D10*
X31750000Y67310000D03*
X29210000Y64770000D03*
X31750000Y64770000D03*
X29210000Y62230000D03*
X31750000Y62230000D03*
X29210000Y59690000D03*
X31750000Y59690000D03*
X29210000Y57150000D03*
X31750000Y57150000D03*
D12*
X91507919Y13970000D02*
X87630000Y13970000D01*
X92710000Y13970000D02*
X91507919Y13970000D01*
X86379999Y15220001D02*
X83800001Y15220001D01*
X87630000Y13970000D02*
X86379999Y15220001D01*
X83800001Y15220001D02*
X82550000Y13970000D01*
X82550000Y13970000D02*
X59690000Y13970000D01*
X58439999Y15220001D02*
X55860001Y15220001D01*
X59690000Y13970000D02*
X58439999Y15220001D01*
X55860001Y15220001D02*
X54610000Y13970000D01*
X54610000Y13970000D02*
X31750000Y13970000D01*
X30499999Y15220001D02*
X27920001Y15220001D01*
X31750000Y13970000D02*
X30499999Y15220001D01*
X27920001Y15220001D02*
X26670000Y13970000D01*
X26670000Y13970000D02*
X7620000Y13970000D01*
X87630000Y16510000D02*
X92710000Y16510000D01*
X86379999Y17760001D02*
X83800001Y17760001D01*
X87630000Y16510000D02*
X86379999Y17760001D01*
X83800001Y17760001D02*
X82550000Y16510000D01*
X82550000Y16510000D02*
X59690000Y16510000D01*
X58439999Y17760001D02*
X55860001Y17760001D01*
X59690000Y16510000D02*
X58439999Y17760001D01*
X55860001Y17760001D02*
X54610000Y16510000D01*
X54610000Y16510000D02*
X31750000Y16510000D01*
X30499999Y17760001D02*
X27920001Y17760001D01*
X31750000Y16510000D02*
X30499999Y17760001D01*
X27920001Y17760001D02*
X26670000Y16510000D01*
X26670000Y16510000D02*
X7620000Y16510000D01*
X87630000Y11430000D02*
X92710000Y11430000D01*
X86379999Y12680001D02*
X83800001Y12680001D01*
X87630000Y11430000D02*
X86379999Y12680001D01*
X83800001Y12680001D02*
X82550000Y11430000D01*
X82550000Y11430000D02*
X59690000Y11430000D01*
X58439999Y12680001D02*
X55860001Y12680001D01*
X59690000Y11430000D02*
X58439999Y12680001D01*
X55860001Y12680001D02*
X54610000Y11430000D01*
X54610000Y11430000D02*
X31750000Y11430000D01*
X30499999Y12680001D02*
X27920001Y12680001D01*
X31750000Y11430000D02*
X30499999Y12680001D01*
X27920001Y12680001D02*
X26670000Y11430000D01*
X26670000Y11430000D02*
X7620000Y11430000D01*
X87630000Y21590000D02*
X92710000Y21590000D01*
X86379999Y22840001D02*
X83800001Y22840001D01*
X87630000Y21590000D02*
X86379999Y22840001D01*
X83800001Y22840001D02*
X82550000Y21590000D01*
X82550000Y21590000D02*
X59690000Y21590000D01*
X58439999Y22840001D02*
X55860001Y22840001D01*
X59690000Y21590000D02*
X58439999Y22840001D01*
X55860001Y22840001D02*
X54610000Y21590000D01*
X54610000Y21590000D02*
X31750000Y21590000D01*
X30499999Y22840001D02*
X27920001Y22840001D01*
X31750000Y21590000D02*
X30499999Y22840001D01*
X27920001Y22840001D02*
X26670000Y21590000D01*
X26670000Y21590000D02*
X7620000Y21590000D01*
X92710000Y24130000D02*
X87630000Y24130000D01*
X86379999Y25380001D02*
X83800001Y25380001D01*
X87630000Y24130000D02*
X86379999Y25380001D01*
X83800001Y25380001D02*
X82550000Y24130000D01*
X82550000Y24130000D02*
X59690000Y24130000D01*
X58439999Y25380001D02*
X55860001Y25380001D01*
X59690000Y24130000D02*
X58439999Y25380001D01*
X55860001Y25380001D02*
X54610000Y24130000D01*
X54610000Y24130000D02*
X31750000Y24130000D01*
X30499999Y25380001D02*
X27920001Y25380001D01*
X31750000Y24130000D02*
X30499999Y25380001D01*
X27920001Y25380001D02*
X26670000Y24130000D01*
X26670000Y24130000D02*
X7620000Y24130000D01*
X87630000Y26670000D02*
X92710000Y26670000D01*
X86379999Y27920001D02*
X83800001Y27920001D01*
X87630000Y26670000D02*
X86379999Y27920001D01*
X83800001Y27920001D02*
X82550000Y26670000D01*
X82550000Y26670000D02*
X59690000Y26670000D01*
X58439999Y27920001D02*
X55860001Y27920001D01*
X59690000Y26670000D02*
X58439999Y27920001D01*
X55860001Y27920001D02*
X54610000Y26670000D01*
X54610000Y26670000D02*
X31750000Y26670000D01*
X30499999Y27920001D02*
X27920001Y27920001D01*
X31750000Y26670000D02*
X30499999Y27920001D01*
X27920001Y27920001D02*
X26670000Y26670000D01*
X26670000Y26670000D02*
X7620000Y26670000D01*
X87630000Y29210000D02*
X92710000Y29210000D01*
X86379999Y30460001D02*
X83800001Y30460001D01*
X87630000Y29210000D02*
X86379999Y30460001D01*
X83800001Y30460001D02*
X82550000Y29210000D01*
X82550000Y29210000D02*
X59690000Y29210000D01*
X58439999Y30460001D02*
X55860001Y30460001D01*
X59690000Y29210000D02*
X58439999Y30460001D01*
X55860001Y30460001D02*
X54610000Y29210000D01*
X54610000Y29210000D02*
X31750000Y29210000D01*
X30499999Y30460001D02*
X27920001Y30460001D01*
X31750000Y29210000D02*
X30499999Y30460001D01*
X27920001Y30460001D02*
X26670000Y29210000D01*
X26670000Y29210000D02*
X7620000Y29210000D01*
X92710000Y31750000D02*
X87630000Y31750000D01*
X86379999Y33000001D02*
X83800001Y33000001D01*
X87630000Y31750000D02*
X86379999Y33000001D01*
X83800001Y33000001D02*
X82550000Y31750000D01*
X82550000Y31750000D02*
X59690000Y31750000D01*
X58439999Y33000001D02*
X55860001Y33000001D01*
X59690000Y31750000D02*
X58439999Y33000001D01*
X55860001Y33000001D02*
X54610000Y31750000D01*
X54610000Y31750000D02*
X31750000Y31750000D01*
X30499999Y33000001D02*
X27920001Y33000001D01*
X31750000Y31750000D02*
X30499999Y33000001D01*
X27920001Y33000001D02*
X26670000Y31750000D01*
X26670000Y31750000D02*
X7620000Y31750000D01*
X87630000Y34290000D02*
X92710000Y34290000D01*
X86379999Y35540001D02*
X83800001Y35540001D01*
X87630000Y34290000D02*
X86379999Y35540001D01*
X83800001Y35540001D02*
X82550000Y34290000D01*
X82550000Y34290000D02*
X59690000Y34290000D01*
X58439999Y35540001D02*
X55860001Y35540001D01*
X59690000Y34290000D02*
X58439999Y35540001D01*
X55860001Y35540001D02*
X54610000Y34290000D01*
X54610000Y34290000D02*
X31750000Y34290000D01*
X30499999Y35540001D02*
X27920001Y35540001D01*
X31750000Y34290000D02*
X30499999Y35540001D01*
X27920001Y35540001D02*
X26670000Y34290000D01*
X26670000Y34290000D02*
X7620000Y34290000D01*
X92710000Y36830000D02*
X87630000Y36830000D01*
X86379999Y38080001D02*
X83800001Y38080001D01*
X87630000Y36830000D02*
X86379999Y38080001D01*
X83800001Y38080001D02*
X82550000Y36830000D01*
X82550000Y36830000D02*
X59690000Y36830000D01*
X58439999Y38080001D02*
X55860001Y38080001D01*
X59690000Y36830000D02*
X58439999Y38080001D01*
X55860001Y38080001D02*
X54610000Y36830000D01*
X54610000Y36830000D02*
X31750000Y36830000D01*
X30499999Y38080001D02*
X27920001Y38080001D01*
X31750000Y36830000D02*
X30499999Y38080001D01*
X27920001Y38080001D02*
X26670000Y36830000D01*
X26670000Y36830000D02*
X7620000Y36830000D01*
X87630000Y39370000D02*
X92710000Y39370000D01*
X86379999Y40620001D02*
X83800001Y40620001D01*
X87630000Y39370000D02*
X86379999Y40620001D01*
X83800001Y40620001D02*
X82550000Y39370000D01*
X82550000Y39370000D02*
X59690000Y39370000D01*
X58439999Y40620001D02*
X55860001Y40620001D01*
X59690000Y39370000D02*
X58439999Y40620001D01*
X55860001Y40620001D02*
X54610000Y39370000D01*
X54610000Y39370000D02*
X31750000Y39370000D01*
X30499999Y40620001D02*
X27920001Y40620001D01*
X31750000Y39370000D02*
X30499999Y40620001D01*
X27920001Y40620001D02*
X26670000Y39370000D01*
X26670000Y39370000D02*
X7620000Y39370000D01*
X92710000Y41910000D02*
X87630000Y41910000D01*
X86379999Y43160001D02*
X83800001Y43160001D01*
X87630000Y41910000D02*
X86379999Y43160001D01*
X83800001Y43160001D02*
X82550000Y41910000D01*
X82550000Y41910000D02*
X59690000Y41910000D01*
X58439999Y43160001D02*
X55860001Y43160001D01*
X59690000Y41910000D02*
X58439999Y43160001D01*
X55860001Y43160001D02*
X54610000Y41910000D01*
X54610000Y41910000D02*
X31750000Y41910000D01*
X30499999Y43160001D02*
X27920001Y43160001D01*
X31750000Y41910000D02*
X30499999Y43160001D01*
X27920001Y43160001D02*
X26670000Y41910000D01*
X26670000Y41910000D02*
X7620000Y41910000D01*
X87630000Y44450000D02*
X92710000Y44450000D01*
X86379999Y45700001D02*
X83800001Y45700001D01*
X87630000Y44450000D02*
X86379999Y45700001D01*
X82550000Y44450000D02*
X59690000Y44450000D01*
X83800001Y45700001D02*
X82550000Y44450000D01*
X58439999Y45700001D02*
X55860001Y45700001D01*
X59690000Y44450000D02*
X58439999Y45700001D01*
X55860001Y45700001D02*
X54610000Y44450000D01*
X54610000Y44450000D02*
X31750000Y44450000D01*
X30499999Y45700001D02*
X27920001Y45700001D01*
X31750000Y44450000D02*
X30499999Y45700001D01*
X27920001Y45700001D02*
X26670000Y44450000D01*
X26670000Y44450000D02*
X7620000Y44450000D01*
X92710000Y46990000D02*
X87630000Y46990000D01*
X86379999Y48240001D02*
X83800001Y48240001D01*
X87630000Y46990000D02*
X86379999Y48240001D01*
X83800001Y48240001D02*
X82550000Y46990000D01*
X82550000Y46990000D02*
X59690000Y46990000D01*
X58439999Y48240001D02*
X55860001Y48240001D01*
X59690000Y46990000D02*
X58439999Y48240001D01*
X55860001Y48240001D02*
X54610000Y46990000D01*
X54610000Y46990000D02*
X31750000Y46990000D01*
X30499999Y48240001D02*
X27920001Y48240001D01*
X31750000Y46990000D02*
X30499999Y48240001D01*
X27920001Y48240001D02*
X26670000Y46990000D01*
X26670000Y46990000D02*
X7620000Y46990000D01*
X87630000Y49530000D02*
X92710000Y49530000D01*
X86379999Y50780001D02*
X83800001Y50780001D01*
X87630000Y49530000D02*
X86379999Y50780001D01*
X82550000Y49530000D02*
X59690000Y49530000D01*
X83800001Y50780001D02*
X82550000Y49530000D01*
X58439999Y50780001D02*
X55860001Y50780001D01*
X59690000Y49530000D02*
X58439999Y50780001D01*
X55860001Y50780001D02*
X54610000Y49530000D01*
X54610000Y49530000D02*
X31750000Y49530000D01*
X30499999Y50780001D02*
X27920001Y50780001D01*
X31750000Y49530000D02*
X30499999Y50780001D01*
X27920001Y50780001D02*
X26670000Y49530000D01*
X26670000Y49530000D02*
X7620000Y49530000D01*
X92710000Y52070000D02*
X87630000Y52070000D01*
X86379999Y53320001D02*
X83800001Y53320001D01*
X87630000Y52070000D02*
X86379999Y53320001D01*
X82550000Y52070000D02*
X59690000Y52070000D01*
X83800001Y53320001D02*
X82550000Y52070000D01*
X58439999Y53320001D02*
X55860001Y53320001D01*
X59690000Y52070000D02*
X58439999Y53320001D01*
X55860001Y53320001D02*
X54610000Y52070000D01*
X54610000Y52070000D02*
X31750000Y52070000D01*
X30499999Y53320001D02*
X27920001Y53320001D01*
X31750000Y52070000D02*
X30499999Y53320001D01*
X27920001Y53320001D02*
X26670000Y52070000D01*
X26670000Y52070000D02*
X7620000Y52070000D01*
D13*
X5080000Y67310000D02*
X2540000Y67310000D01*
X2540000Y67310000D02*
X2540000Y57150000D01*
X2540000Y57150000D02*
X5080000Y57150000D01*
X95250000Y67310000D02*
X97790000Y67310000D01*
X97790000Y67310000D02*
X97790000Y57150000D01*
X97790000Y57150000D02*
X95250000Y57150000D01*
X95250000Y67310000D02*
X92710000Y67310000D01*
X92710000Y67310000D02*
X87630000Y67310000D01*
X87630000Y67310000D02*
X85090000Y67310000D01*
X85090000Y67310000D02*
X59690000Y67310000D01*
X59690000Y67310000D02*
X57150000Y67310000D01*
X57150000Y67310000D02*
X31750000Y67310000D01*
X31750000Y67310000D02*
X29210000Y67310000D01*
X29210000Y67310000D02*
X7620000Y67310000D01*
X7620000Y67310000D02*
X5080000Y67310000D01*
X92710000Y57150000D02*
X87630000Y57150000D01*
X87630000Y57150000D02*
X85090000Y57150000D01*
X85090000Y57150000D02*
X59690000Y57150000D01*
X59690000Y57150000D02*
X57150000Y57150000D01*
X57150000Y57150000D02*
X31750000Y57150000D01*
X31750000Y57150000D02*
X29210000Y57150000D01*
X29210000Y57150000D02*
X6985000Y57150000D01*
X6985000Y57150000D02*
X7620000Y57150000D01*
X7620000Y57150000D02*
X5080000Y57150000D01*
X95250000Y57150000D02*
X92710000Y57150000D01*
D12*
X92710000Y19050000D02*
X87630000Y19050000D01*
X86379999Y20300001D02*
X83800001Y20300001D01*
X87630000Y19050000D02*
X86379999Y20300001D01*
X83800001Y20300001D02*
X82550000Y19050000D01*
X82550000Y19050000D02*
X59690000Y19050000D01*
X58439999Y20300001D02*
X55860001Y20300001D01*
X59690000Y19050000D02*
X58439999Y20300001D01*
X55860001Y20300001D02*
X54610000Y19050000D01*
X54610000Y19050000D02*
X31750000Y19050000D01*
X30499999Y20300001D02*
X27920001Y20300001D01*
X31750000Y19050000D02*
X30499999Y20300001D01*
X27920001Y20300001D02*
X26670000Y19050000D01*
X26670000Y19050000D02*
X7620000Y19050000D01*
X92710000Y8890000D02*
X87630000Y8890000D01*
X86379999Y10140001D02*
X83800001Y10140001D01*
X87630000Y8890000D02*
X86379999Y10140001D01*
X83800001Y10140001D02*
X82550000Y8890000D01*
X82550000Y8890000D02*
X59690000Y8890000D01*
X58439999Y10140001D02*
X55860001Y10140001D01*
X59690000Y8890000D02*
X58439999Y10140001D01*
X55860001Y10140001D02*
X54610000Y8890000D01*
X54610000Y8890000D02*
X31750000Y8890000D01*
X30499999Y10140001D02*
X27920001Y10140001D01*
X31750000Y8890000D02*
X30499999Y10140001D01*
X27920001Y10140001D02*
X26670000Y8890000D01*
X26670000Y8890000D02*
X7620000Y8890000D01*
X87630000Y6350000D02*
X92710000Y6350000D01*
X86379999Y7600001D02*
X83800001Y7600001D01*
X87630000Y6350000D02*
X86379999Y7600001D01*
X83800001Y7600001D02*
X82550000Y6350000D01*
X82550000Y6350000D02*
X59690000Y6350000D01*
X58439999Y7600001D02*
X55860001Y7600001D01*
X59690000Y6350000D02*
X58439999Y7600001D01*
X55860001Y7600001D02*
X54610000Y6350000D01*
X54610000Y6350000D02*
X31750000Y6350000D01*
X30499999Y7600001D02*
X27920001Y7600001D01*
X31750000Y6350000D02*
X30499999Y7600001D01*
X27920001Y7600001D02*
X26670000Y6350000D01*
X26670000Y6350000D02*
X7620000Y6350000D01*
X92710000Y3810000D02*
X87630000Y3810000D01*
X86379999Y5060001D02*
X83800001Y5060001D01*
X87630000Y3810000D02*
X86379999Y5060001D01*
X83800001Y5060001D02*
X82550000Y3810000D01*
X82550000Y3810000D02*
X59690000Y3810000D01*
X58439999Y5060001D02*
X55860001Y5060001D01*
X59690000Y3810000D02*
X58439999Y5060001D01*
X55860001Y5060001D02*
X54610000Y3810000D01*
X54610000Y3810000D02*
X31750000Y3810000D01*
X30499999Y5060001D02*
X27920001Y5060001D01*
X31750000Y3810000D02*
X30499999Y5060001D01*
X27920001Y5060001D02*
X26670000Y3810000D01*
X26670000Y3810000D02*
X7620000Y3810000D01*
D13*
G36*
X2622258Y68160000D02*
G01*
X2630000Y67760000D01*
X3030000Y67360000D01*
X5030000Y67360000D01*
X5030000Y67380000D01*
X5130000Y67380000D01*
X5130000Y67360000D01*
X7570000Y67360000D01*
X7570000Y67380000D01*
X7670000Y67380000D01*
X7670000Y67360000D01*
X9669390Y67360000D01*
X10031511Y67742569D01*
X10013483Y67833204D01*
X9865421Y68290096D01*
X9845909Y68325000D01*
X26768509Y68325000D01*
X26752258Y68160000D01*
X26760000Y67760000D01*
X27160000Y67360000D01*
X29160000Y67360000D01*
X29160000Y67380000D01*
X29260000Y67380000D01*
X29260000Y67360000D01*
X31700000Y67360000D01*
X31700000Y67380000D01*
X31800000Y67380000D01*
X31800000Y67360000D01*
X33799390Y67360000D01*
X34161511Y67742569D01*
X34143483Y67833204D01*
X33995421Y68290096D01*
X33975909Y68325000D01*
X54708509Y68325000D01*
X54692258Y68160000D01*
X54700000Y67760000D01*
X55100000Y67360000D01*
X57100000Y67360000D01*
X57100000Y67380000D01*
X57200000Y67380000D01*
X57200000Y67360000D01*
X59640000Y67360000D01*
X59640000Y67380000D01*
X59740000Y67380000D01*
X59740000Y67360000D01*
X61739390Y67360000D01*
X62101511Y67742569D01*
X62083483Y67833204D01*
X61935421Y68290096D01*
X61915909Y68325000D01*
X82648509Y68325000D01*
X82632258Y68160000D01*
X82640000Y67760000D01*
X83040000Y67360000D01*
X85040000Y67360000D01*
X85040000Y67380000D01*
X85140000Y67380000D01*
X85140000Y67360000D01*
X87580000Y67360000D01*
X87580000Y67380000D01*
X87680000Y67380000D01*
X87680000Y67360000D01*
X89679390Y67360000D01*
X90041511Y67742569D01*
X90023483Y67833204D01*
X89875421Y68290096D01*
X89855909Y68325000D01*
X90268509Y68325000D01*
X90252258Y68160000D01*
X90260000Y67760000D01*
X90660000Y67360000D01*
X92660000Y67360000D01*
X92660000Y67380000D01*
X92760000Y67380000D01*
X92760000Y67360000D01*
X95200000Y67360000D01*
X95200000Y67380000D01*
X95300000Y67380000D01*
X95300000Y67360000D01*
X97299390Y67360000D01*
X97661511Y67742569D01*
X97643483Y67833204D01*
X97495421Y68290096D01*
X97475909Y68325000D01*
X98805000Y68325000D01*
X98805001Y1525000D01*
X95812863Y1525000D01*
X96153657Y1628379D01*
X96561907Y1846593D01*
X96919741Y2140259D01*
X97213407Y2498093D01*
X97431621Y2906343D01*
X97565997Y3349320D01*
X97611370Y3810000D01*
X97565997Y4270680D01*
X97431621Y4713657D01*
X97235807Y5080000D01*
X97431621Y5446343D01*
X97565997Y5889320D01*
X97611370Y6350000D01*
X97565997Y6810680D01*
X97431621Y7253657D01*
X97235807Y7620000D01*
X97431621Y7986343D01*
X97565997Y8429320D01*
X97611370Y8890000D01*
X97565997Y9350680D01*
X97431621Y9793657D01*
X97235807Y10160000D01*
X97431621Y10526343D01*
X97565997Y10969320D01*
X97611370Y11430000D01*
X97565997Y11890680D01*
X97431621Y12333657D01*
X97235807Y12700000D01*
X97431621Y13066343D01*
X97565997Y13509320D01*
X97611370Y13970000D01*
X97565997Y14430680D01*
X97431621Y14873657D01*
X97235807Y15240000D01*
X97431621Y15606343D01*
X97565997Y16049320D01*
X97611370Y16510000D01*
X97565997Y16970680D01*
X97431621Y17413657D01*
X97235807Y17780000D01*
X97431621Y18146343D01*
X97565997Y18589320D01*
X97611370Y19050000D01*
X97565997Y19510680D01*
X97431621Y19953657D01*
X97235807Y20320000D01*
X97431621Y20686343D01*
X97565997Y21129320D01*
X97611370Y21590000D01*
X97565997Y22050680D01*
X97431621Y22493657D01*
X97235807Y22860000D01*
X97431621Y23226343D01*
X97565997Y23669320D01*
X97611370Y24130000D01*
X97565997Y24590680D01*
X97431621Y25033657D01*
X97235807Y25400000D01*
X97431621Y25766343D01*
X97565997Y26209320D01*
X97611370Y26670000D01*
X97565997Y27130680D01*
X97431621Y27573657D01*
X97235807Y27940000D01*
X97431621Y28306343D01*
X97565997Y28749320D01*
X97611370Y29210000D01*
X97565997Y29670680D01*
X97431621Y30113657D01*
X97235807Y30480000D01*
X97431621Y30846343D01*
X97565997Y31289320D01*
X97611370Y31750000D01*
X97565997Y32210680D01*
X97431621Y32653657D01*
X97235807Y33020000D01*
X97431621Y33386343D01*
X97565997Y33829320D01*
X97611370Y34290000D01*
X97565997Y34750680D01*
X97431621Y35193657D01*
X97235807Y35560000D01*
X97431621Y35926343D01*
X97565997Y36369320D01*
X97611370Y36830000D01*
X97565997Y37290680D01*
X97431621Y37733657D01*
X97235807Y38100000D01*
X97431621Y38466343D01*
X97565997Y38909320D01*
X97611370Y39370000D01*
X97565997Y39830680D01*
X97431621Y40273657D01*
X97235807Y40640000D01*
X97431621Y41006343D01*
X97565997Y41449320D01*
X97611370Y41910000D01*
X97565997Y42370680D01*
X97431621Y42813657D01*
X97235807Y43180000D01*
X97431621Y43546343D01*
X97565997Y43989320D01*
X97611370Y44450000D01*
X97565997Y44910680D01*
X97431621Y45353657D01*
X97235807Y45720000D01*
X97431621Y46086343D01*
X97565997Y46529320D01*
X97611370Y46990000D01*
X97565997Y47450680D01*
X97431621Y47893657D01*
X97235807Y48260000D01*
X97431621Y48626343D01*
X97565997Y49069320D01*
X97611370Y49530000D01*
X97565997Y49990680D01*
X97431621Y50433657D01*
X97235807Y50800000D01*
X97431621Y51166343D01*
X97565997Y51609320D01*
X97611370Y52070000D01*
X97565997Y52530680D01*
X97431621Y52973657D01*
X97213407Y53381907D01*
X96919741Y53739741D01*
X96561907Y54033407D01*
X96153657Y54251621D01*
X95710680Y54385997D01*
X95365442Y54420000D01*
X95134558Y54420000D01*
X94789320Y54385997D01*
X94346343Y54251621D01*
X94298543Y54226071D01*
X94136802Y54312524D01*
X93854051Y54398295D01*
X93560000Y54427257D01*
X91860000Y54427257D01*
X91565949Y54398295D01*
X91283198Y54312524D01*
X91022613Y54173238D01*
X90794208Y53985792D01*
X90606762Y53757387D01*
X90586778Y53720000D01*
X89315942Y53720000D01*
X89299741Y53739741D01*
X88941907Y54033407D01*
X88533657Y54251621D01*
X88090680Y54385997D01*
X87745442Y54420000D01*
X87613451Y54420000D01*
X87604043Y54429408D01*
X87552370Y54492372D01*
X87301125Y54698563D01*
X87207899Y54748394D01*
X87580000Y55100509D01*
X87580000Y57100000D01*
X87680000Y57100000D01*
X87680000Y55100509D01*
X88062569Y54738488D01*
X88524720Y54869215D01*
X88952487Y55087591D01*
X89329432Y55385224D01*
X89641069Y55750676D01*
X89875421Y56169904D01*
X90023483Y56626796D01*
X90041511Y56717431D01*
X90298489Y56717431D01*
X90316517Y56626796D01*
X90464579Y56169904D01*
X90698931Y55750676D01*
X91010568Y55385224D01*
X91387513Y55087591D01*
X91815280Y54869215D01*
X92277431Y54738488D01*
X92660000Y55100509D01*
X92660000Y57100000D01*
X92760000Y57100000D01*
X92760000Y55100509D01*
X93142569Y54738488D01*
X93604720Y54869215D01*
X93980000Y55060796D01*
X94355280Y54869215D01*
X94817431Y54738488D01*
X95200000Y55100509D01*
X95200000Y57100000D01*
X95300000Y57100000D01*
X95300000Y55100509D01*
X95682569Y54738488D01*
X96144720Y54869215D01*
X96572487Y55087591D01*
X96949432Y55385224D01*
X97261069Y55750676D01*
X97495421Y56169904D01*
X97643483Y56626796D01*
X97661511Y56717431D01*
X97299390Y57100000D01*
X95300000Y57100000D01*
X95200000Y57100000D01*
X92760000Y57100000D01*
X92660000Y57100000D01*
X90660610Y57100000D01*
X90298489Y56717431D01*
X90041511Y56717431D01*
X89679390Y57100000D01*
X87680000Y57100000D01*
X87580000Y57100000D01*
X85140000Y57100000D01*
X85140000Y57080000D01*
X85040000Y57080000D01*
X85040000Y57100000D01*
X83040610Y57100000D01*
X82678489Y56717431D01*
X82696517Y56626796D01*
X82844579Y56169904D01*
X83078931Y55750676D01*
X83390568Y55385224D01*
X83767513Y55087591D01*
X83997855Y54970001D01*
X83881042Y54970001D01*
X83800000Y54977983D01*
X83718958Y54970001D01*
X83718949Y54970001D01*
X83476545Y54946126D01*
X83165518Y54851778D01*
X82878875Y54698563D01*
X82878873Y54698562D01*
X82878874Y54698562D01*
X82690586Y54544039D01*
X82690583Y54544036D01*
X82627630Y54492372D01*
X82575965Y54429418D01*
X81866548Y53720000D01*
X61375942Y53720000D01*
X61359741Y53739741D01*
X61001907Y54033407D01*
X60593657Y54251621D01*
X60150680Y54385997D01*
X59805442Y54420000D01*
X59673451Y54420000D01*
X59664043Y54429408D01*
X59612370Y54492372D01*
X59361125Y54698563D01*
X59267899Y54748394D01*
X59640000Y55100509D01*
X59640000Y57100000D01*
X59740000Y57100000D01*
X59740000Y55100509D01*
X60122569Y54738488D01*
X60584720Y54869215D01*
X61012487Y55087591D01*
X61389432Y55385224D01*
X61701069Y55750676D01*
X61935421Y56169904D01*
X62083483Y56626796D01*
X62101511Y56717431D01*
X61739390Y57100000D01*
X59740000Y57100000D01*
X59640000Y57100000D01*
X57200000Y57100000D01*
X57200000Y57080000D01*
X57100000Y57080000D01*
X57100000Y57100000D01*
X55100610Y57100000D01*
X54738489Y56717431D01*
X54756517Y56626796D01*
X54904579Y56169904D01*
X55138931Y55750676D01*
X55450568Y55385224D01*
X55827513Y55087591D01*
X56057855Y54970001D01*
X55941042Y54970001D01*
X55860000Y54977983D01*
X55778958Y54970001D01*
X55778949Y54970001D01*
X55536545Y54946126D01*
X55225518Y54851778D01*
X54938875Y54698563D01*
X54938873Y54698562D01*
X54938874Y54698562D01*
X54750586Y54544039D01*
X54750583Y54544036D01*
X54687630Y54492372D01*
X54635965Y54429418D01*
X53926548Y53720000D01*
X33435942Y53720000D01*
X33419741Y53739741D01*
X33061907Y54033407D01*
X32653657Y54251621D01*
X32210680Y54385997D01*
X31865442Y54420000D01*
X31733451Y54420000D01*
X31724043Y54429408D01*
X31672370Y54492372D01*
X31421125Y54698563D01*
X31327899Y54748394D01*
X31700000Y55100509D01*
X31700000Y57100000D01*
X31800000Y57100000D01*
X31800000Y55100509D01*
X32182569Y54738488D01*
X32644720Y54869215D01*
X33072487Y55087591D01*
X33449432Y55385224D01*
X33761069Y55750676D01*
X33995421Y56169904D01*
X34143483Y56626796D01*
X34161511Y56717431D01*
X33799390Y57100000D01*
X31800000Y57100000D01*
X31700000Y57100000D01*
X29260000Y57100000D01*
X29260000Y57080000D01*
X29160000Y57080000D01*
X29160000Y57100000D01*
X27160610Y57100000D01*
X26798489Y56717431D01*
X26816517Y56626796D01*
X26964579Y56169904D01*
X27198931Y55750676D01*
X27510568Y55385224D01*
X27887513Y55087591D01*
X28117855Y54970001D01*
X28001042Y54970001D01*
X27920000Y54977983D01*
X27838958Y54970001D01*
X27838949Y54970001D01*
X27596545Y54946126D01*
X27285518Y54851778D01*
X26998875Y54698563D01*
X26998873Y54698562D01*
X26998874Y54698562D01*
X26810586Y54544039D01*
X26810583Y54544036D01*
X26747630Y54492372D01*
X26695965Y54429418D01*
X25986548Y53720000D01*
X9305942Y53720000D01*
X9289741Y53739741D01*
X8931907Y54033407D01*
X8523657Y54251621D01*
X8080680Y54385997D01*
X7735442Y54420000D01*
X7504558Y54420000D01*
X7159320Y54385997D01*
X6716343Y54251621D01*
X6668543Y54226071D01*
X6506802Y54312524D01*
X6224051Y54398295D01*
X5930000Y54427257D01*
X4230000Y54427257D01*
X3935949Y54398295D01*
X3653198Y54312524D01*
X3392613Y54173238D01*
X3164208Y53985792D01*
X2976762Y53757387D01*
X2837476Y53496802D01*
X2751705Y53214051D01*
X2722743Y52920000D01*
X2722743Y51220000D01*
X2751705Y50925949D01*
X2837476Y50643198D01*
X2923929Y50481457D01*
X2898379Y50433657D01*
X2764003Y49990680D01*
X2718630Y49530000D01*
X2764003Y49069320D01*
X2898379Y48626343D01*
X3094193Y48260000D01*
X2898379Y47893657D01*
X2764003Y47450680D01*
X2718630Y46990000D01*
X2764003Y46529320D01*
X2898379Y46086343D01*
X3094193Y45720000D01*
X2898379Y45353657D01*
X2764003Y44910680D01*
X2718630Y44450000D01*
X2764003Y43989320D01*
X2898379Y43546343D01*
X3094193Y43180000D01*
X2898379Y42813657D01*
X2764003Y42370680D01*
X2718630Y41910000D01*
X2764003Y41449320D01*
X2898379Y41006343D01*
X3094193Y40640000D01*
X2898379Y40273657D01*
X2764003Y39830680D01*
X2718630Y39370000D01*
X2764003Y38909320D01*
X2898379Y38466343D01*
X3094193Y38100000D01*
X2898379Y37733657D01*
X2764003Y37290680D01*
X2718630Y36830000D01*
X2764003Y36369320D01*
X2898379Y35926343D01*
X3094193Y35560000D01*
X2898379Y35193657D01*
X2764003Y34750680D01*
X2718630Y34290000D01*
X2764003Y33829320D01*
X2898379Y33386343D01*
X3094193Y33020000D01*
X2898379Y32653657D01*
X2764003Y32210680D01*
X2718630Y31750000D01*
X2764003Y31289320D01*
X2898379Y30846343D01*
X3094193Y30480000D01*
X2898379Y30113657D01*
X2764003Y29670680D01*
X2718630Y29210000D01*
X2764003Y28749320D01*
X2898379Y28306343D01*
X3094193Y27940000D01*
X2898379Y27573657D01*
X2764003Y27130680D01*
X2718630Y26670000D01*
X2764003Y26209320D01*
X2898379Y25766343D01*
X3094193Y25400000D01*
X2898379Y25033657D01*
X2764003Y24590680D01*
X2718630Y24130000D01*
X2764003Y23669320D01*
X2898379Y23226343D01*
X3094193Y22860000D01*
X2898379Y22493657D01*
X2764003Y22050680D01*
X2718630Y21590000D01*
X2764003Y21129320D01*
X2898379Y20686343D01*
X3094193Y20320000D01*
X2898379Y19953657D01*
X2764003Y19510680D01*
X2718630Y19050000D01*
X2764003Y18589320D01*
X2898379Y18146343D01*
X3094193Y17780000D01*
X2898379Y17413657D01*
X2764003Y16970680D01*
X2718630Y16510000D01*
X2764003Y16049320D01*
X2898379Y15606343D01*
X3094193Y15240000D01*
X2898379Y14873657D01*
X2764003Y14430680D01*
X2718630Y13970000D01*
X2764003Y13509320D01*
X2898379Y13066343D01*
X3094193Y12700000D01*
X2898379Y12333657D01*
X2764003Y11890680D01*
X2718630Y11430000D01*
X2764003Y10969320D01*
X2898379Y10526343D01*
X3094193Y10160000D01*
X2898379Y9793657D01*
X2764003Y9350680D01*
X2718630Y8890000D01*
X2764003Y8429320D01*
X2898379Y7986343D01*
X3094193Y7620000D01*
X2898379Y7253657D01*
X2764003Y6810680D01*
X2718630Y6350000D01*
X2764003Y5889320D01*
X2898379Y5446343D01*
X3094193Y5080000D01*
X2898379Y4713657D01*
X2764003Y4270680D01*
X2718630Y3810000D01*
X2764003Y3349320D01*
X2898379Y2906343D01*
X3116593Y2498093D01*
X3410259Y2140259D01*
X3768093Y1846593D01*
X4176343Y1628379D01*
X4517137Y1525000D01*
X1525000Y1525000D01*
X1525000Y56717431D01*
X2668489Y56717431D01*
X2686517Y56626796D01*
X2834579Y56169904D01*
X3068931Y55750676D01*
X3380568Y55385224D01*
X3757513Y55087591D01*
X4185280Y54869215D01*
X4647431Y54738488D01*
X5030000Y55100509D01*
X5030000Y57100000D01*
X5130000Y57100000D01*
X5130000Y55100509D01*
X5512569Y54738488D01*
X5974720Y54869215D01*
X6350000Y55060796D01*
X6725280Y54869215D01*
X7187431Y54738488D01*
X7570000Y55100509D01*
X7570000Y57100000D01*
X7670000Y57100000D01*
X7670000Y55100509D01*
X8052569Y54738488D01*
X8514720Y54869215D01*
X8942487Y55087591D01*
X9319432Y55385224D01*
X9631069Y55750676D01*
X9865421Y56169904D01*
X10013483Y56626796D01*
X10031511Y56717431D01*
X9669390Y57100000D01*
X7670000Y57100000D01*
X7570000Y57100000D01*
X5130000Y57100000D01*
X5030000Y57100000D01*
X3030610Y57100000D01*
X2668489Y56717431D01*
X1525000Y56717431D01*
X1525000Y66460000D01*
X2622258Y66460000D01*
X2653150Y66146345D01*
X2744640Y65844744D01*
X2875826Y65599311D01*
X2764003Y65230680D01*
X2718630Y64770000D01*
X2764003Y64309320D01*
X2898379Y63866343D01*
X3094193Y63500000D01*
X2898379Y63133657D01*
X2764003Y62690680D01*
X2718630Y62230000D01*
X2764003Y61769320D01*
X2898379Y61326343D01*
X3094193Y60960000D01*
X2898379Y60593657D01*
X2764003Y60150680D01*
X2718630Y59690000D01*
X2764003Y59229320D01*
X2898379Y58786343D01*
X3046508Y58509212D01*
X2834579Y58130096D01*
X2686517Y57673204D01*
X2668489Y57582569D01*
X3030610Y57200000D01*
X5030000Y57200000D01*
X5030000Y57220000D01*
X5130000Y57220000D01*
X5130000Y57200000D01*
X7570000Y57200000D01*
X7570000Y57220000D01*
X7670000Y57220000D01*
X7670000Y57200000D01*
X9669390Y57200000D01*
X10031511Y57582569D01*
X10013483Y57673204D01*
X9865421Y58130096D01*
X9653492Y58509212D01*
X9801621Y58786343D01*
X9935997Y59229320D01*
X9981370Y59690000D01*
X9935997Y60150680D01*
X9801621Y60593657D01*
X9605807Y60960000D01*
X9801621Y61326343D01*
X9935997Y61769320D01*
X9981370Y62230000D01*
X9935997Y62690680D01*
X9801621Y63133657D01*
X9605807Y63500000D01*
X9801621Y63866343D01*
X9935997Y64309320D01*
X9981370Y64770000D01*
X9935997Y65230680D01*
X9801621Y65673657D01*
X9653492Y65950788D01*
X9865421Y66329904D01*
X9907580Y66460000D01*
X26752258Y66460000D01*
X26783150Y66146345D01*
X26874640Y65844744D01*
X27005826Y65599311D01*
X26894003Y65230680D01*
X26848630Y64770000D01*
X26894003Y64309320D01*
X27028379Y63866343D01*
X27224193Y63500000D01*
X27028379Y63133657D01*
X26894003Y62690680D01*
X26848630Y62230000D01*
X26894003Y61769320D01*
X27028379Y61326343D01*
X27224193Y60960000D01*
X27028379Y60593657D01*
X26894003Y60150680D01*
X26848630Y59690000D01*
X26894003Y59229320D01*
X27028379Y58786343D01*
X27176508Y58509212D01*
X26964579Y58130096D01*
X26816517Y57673204D01*
X26798489Y57582569D01*
X27160610Y57200000D01*
X29160000Y57200000D01*
X29160000Y57220000D01*
X29260000Y57220000D01*
X29260000Y57200000D01*
X31700000Y57200000D01*
X31700000Y57220000D01*
X31800000Y57220000D01*
X31800000Y57200000D01*
X33799390Y57200000D01*
X34161511Y57582569D01*
X34143483Y57673204D01*
X33995421Y58130096D01*
X33783492Y58509212D01*
X33931621Y58786343D01*
X34065997Y59229320D01*
X34111370Y59690000D01*
X34065997Y60150680D01*
X33931621Y60593657D01*
X33735807Y60960000D01*
X33931621Y61326343D01*
X34065997Y61769320D01*
X34111370Y62230000D01*
X34065997Y62690680D01*
X33931621Y63133657D01*
X33735807Y63500000D01*
X33931621Y63866343D01*
X34065997Y64309320D01*
X34111370Y64770000D01*
X34065997Y65230680D01*
X33931621Y65673657D01*
X33783492Y65950788D01*
X33995421Y66329904D01*
X34037580Y66460000D01*
X54692258Y66460000D01*
X54723150Y66146345D01*
X54814640Y65844744D01*
X54945826Y65599311D01*
X54834003Y65230680D01*
X54788630Y64770000D01*
X54834003Y64309320D01*
X54968379Y63866343D01*
X55164193Y63500000D01*
X54968379Y63133657D01*
X54834003Y62690680D01*
X54788630Y62230000D01*
X54834003Y61769320D01*
X54968379Y61326343D01*
X55164193Y60960000D01*
X54968379Y60593657D01*
X54834003Y60150680D01*
X54788630Y59690000D01*
X54834003Y59229320D01*
X54968379Y58786343D01*
X55116508Y58509212D01*
X54904579Y58130096D01*
X54756517Y57673204D01*
X54738489Y57582569D01*
X55100610Y57200000D01*
X57100000Y57200000D01*
X57100000Y57220000D01*
X57200000Y57220000D01*
X57200000Y57200000D01*
X59640000Y57200000D01*
X59640000Y57220000D01*
X59740000Y57220000D01*
X59740000Y57200000D01*
X61739390Y57200000D01*
X62101511Y57582569D01*
X62083483Y57673204D01*
X61935421Y58130096D01*
X61723492Y58509212D01*
X61871621Y58786343D01*
X62005997Y59229320D01*
X62051370Y59690000D01*
X62005997Y60150680D01*
X61871621Y60593657D01*
X61675807Y60960000D01*
X61871621Y61326343D01*
X62005997Y61769320D01*
X62051370Y62230000D01*
X62005997Y62690680D01*
X61871621Y63133657D01*
X61675807Y63500000D01*
X61871621Y63866343D01*
X62005997Y64309320D01*
X62051370Y64770000D01*
X62005997Y65230680D01*
X61871621Y65673657D01*
X61723492Y65950788D01*
X61935421Y66329904D01*
X61977580Y66460000D01*
X82632258Y66460000D01*
X82663150Y66146345D01*
X82754640Y65844744D01*
X82885826Y65599311D01*
X82774003Y65230680D01*
X82728630Y64770000D01*
X82774003Y64309320D01*
X82908379Y63866343D01*
X83104193Y63500000D01*
X82908379Y63133657D01*
X82774003Y62690680D01*
X82728630Y62230000D01*
X82774003Y61769320D01*
X82908379Y61326343D01*
X83104193Y60960000D01*
X82908379Y60593657D01*
X82774003Y60150680D01*
X82728630Y59690000D01*
X82774003Y59229320D01*
X82908379Y58786343D01*
X83056508Y58509212D01*
X82844579Y58130096D01*
X82696517Y57673204D01*
X82678489Y57582569D01*
X83040610Y57200000D01*
X85040000Y57200000D01*
X85040000Y57220000D01*
X85140000Y57220000D01*
X85140000Y57200000D01*
X87580000Y57200000D01*
X87580000Y57220000D01*
X87680000Y57220000D01*
X87680000Y57200000D01*
X89679390Y57200000D01*
X90041511Y57582569D01*
X90023483Y57673204D01*
X89875421Y58130096D01*
X89663492Y58509212D01*
X89811621Y58786343D01*
X89945997Y59229320D01*
X89991370Y59690000D01*
X89945997Y60150680D01*
X89811621Y60593657D01*
X89615807Y60960000D01*
X89811621Y61326343D01*
X89945997Y61769320D01*
X89991370Y62230000D01*
X89945997Y62690680D01*
X89811621Y63133657D01*
X89615807Y63500000D01*
X89811621Y63866343D01*
X89945997Y64309320D01*
X89991370Y64770000D01*
X89945997Y65230680D01*
X89811621Y65673657D01*
X89663492Y65950788D01*
X89875421Y66329904D01*
X89917580Y66460000D01*
X90252258Y66460000D01*
X90283150Y66146345D01*
X90374640Y65844744D01*
X90505826Y65599311D01*
X90394003Y65230680D01*
X90348630Y64770000D01*
X90394003Y64309320D01*
X90528379Y63866343D01*
X90724193Y63500000D01*
X90528379Y63133657D01*
X90394003Y62690680D01*
X90348630Y62230000D01*
X90394003Y61769320D01*
X90528379Y61326343D01*
X90724193Y60960000D01*
X90528379Y60593657D01*
X90394003Y60150680D01*
X90348630Y59690000D01*
X90394003Y59229320D01*
X90528379Y58786343D01*
X90676508Y58509212D01*
X90464579Y58130096D01*
X90316517Y57673204D01*
X90298489Y57582569D01*
X90660610Y57200000D01*
X92660000Y57200000D01*
X92660000Y57220000D01*
X92760000Y57220000D01*
X92760000Y57200000D01*
X95200000Y57200000D01*
X95200000Y57220000D01*
X95300000Y57220000D01*
X95300000Y57200000D01*
X97299390Y57200000D01*
X97661511Y57582569D01*
X97643483Y57673204D01*
X97495421Y58130096D01*
X97283492Y58509212D01*
X97431621Y58786343D01*
X97565997Y59229320D01*
X97611370Y59690000D01*
X97565997Y60150680D01*
X97431621Y60593657D01*
X97235807Y60960000D01*
X97431621Y61326343D01*
X97565997Y61769320D01*
X97611370Y62230000D01*
X97565997Y62690680D01*
X97431621Y63133657D01*
X97235807Y63500000D01*
X97431621Y63866343D01*
X97565997Y64309320D01*
X97611370Y64770000D01*
X97565997Y65230680D01*
X97431621Y65673657D01*
X97283492Y65950788D01*
X97495421Y66329904D01*
X97643483Y66786796D01*
X97661511Y66877431D01*
X97299390Y67260000D01*
X95300000Y67260000D01*
X95300000Y67240000D01*
X95200000Y67240000D01*
X95200000Y67260000D01*
X92760000Y67260000D01*
X92760000Y67240000D01*
X92660000Y67240000D01*
X92660000Y67260000D01*
X90660000Y67260000D01*
X90260000Y66860000D01*
X90252258Y66460000D01*
X89917580Y66460000D01*
X90023483Y66786796D01*
X90041511Y66877431D01*
X89679390Y67260000D01*
X87680000Y67260000D01*
X87680000Y67240000D01*
X87580000Y67240000D01*
X87580000Y67260000D01*
X85140000Y67260000D01*
X85140000Y67240000D01*
X85040000Y67240000D01*
X85040000Y67260000D01*
X83040000Y67260000D01*
X82640000Y66860000D01*
X82632258Y66460000D01*
X61977580Y66460000D01*
X62083483Y66786796D01*
X62101511Y66877431D01*
X61739390Y67260000D01*
X59740000Y67260000D01*
X59740000Y67240000D01*
X59640000Y67240000D01*
X59640000Y67260000D01*
X57200000Y67260000D01*
X57200000Y67240000D01*
X57100000Y67240000D01*
X57100000Y67260000D01*
X55100000Y67260000D01*
X54700000Y66860000D01*
X54692258Y66460000D01*
X34037580Y66460000D01*
X34143483Y66786796D01*
X34161511Y66877431D01*
X33799390Y67260000D01*
X31800000Y67260000D01*
X31800000Y67240000D01*
X31700000Y67240000D01*
X31700000Y67260000D01*
X29260000Y67260000D01*
X29260000Y67240000D01*
X29160000Y67240000D01*
X29160000Y67260000D01*
X27160000Y67260000D01*
X26760000Y66860000D01*
X26752258Y66460000D01*
X9907580Y66460000D01*
X10013483Y66786796D01*
X10031511Y66877431D01*
X9669390Y67260000D01*
X7670000Y67260000D01*
X7670000Y67240000D01*
X7570000Y67240000D01*
X7570000Y67260000D01*
X5130000Y67260000D01*
X5130000Y67240000D01*
X5030000Y67240000D01*
X5030000Y67260000D01*
X3030000Y67260000D01*
X2630000Y66860000D01*
X2622258Y66460000D01*
X1525000Y66460000D01*
X1525000Y68325000D01*
X2638509Y68325000D01*
X2622258Y68160000D01*
X2622258Y68160000D01*
G37*
X2622258Y68160000D02*
X2630000Y67760000D01*
X3030000Y67360000D01*
X5030000Y67360000D01*
X5030000Y67380000D01*
X5130000Y67380000D01*
X5130000Y67360000D01*
X7570000Y67360000D01*
X7570000Y67380000D01*
X7670000Y67380000D01*
X7670000Y67360000D01*
X9669390Y67360000D01*
X10031511Y67742569D01*
X10013483Y67833204D01*
X9865421Y68290096D01*
X9845909Y68325000D01*
X26768509Y68325000D01*
X26752258Y68160000D01*
X26760000Y67760000D01*
X27160000Y67360000D01*
X29160000Y67360000D01*
X29160000Y67380000D01*
X29260000Y67380000D01*
X29260000Y67360000D01*
X31700000Y67360000D01*
X31700000Y67380000D01*
X31800000Y67380000D01*
X31800000Y67360000D01*
X33799390Y67360000D01*
X34161511Y67742569D01*
X34143483Y67833204D01*
X33995421Y68290096D01*
X33975909Y68325000D01*
X54708509Y68325000D01*
X54692258Y68160000D01*
X54700000Y67760000D01*
X55100000Y67360000D01*
X57100000Y67360000D01*
X57100000Y67380000D01*
X57200000Y67380000D01*
X57200000Y67360000D01*
X59640000Y67360000D01*
X59640000Y67380000D01*
X59740000Y67380000D01*
X59740000Y67360000D01*
X61739390Y67360000D01*
X62101511Y67742569D01*
X62083483Y67833204D01*
X61935421Y68290096D01*
X61915909Y68325000D01*
X82648509Y68325000D01*
X82632258Y68160000D01*
X82640000Y67760000D01*
X83040000Y67360000D01*
X85040000Y67360000D01*
X85040000Y67380000D01*
X85140000Y67380000D01*
X85140000Y67360000D01*
X87580000Y67360000D01*
X87580000Y67380000D01*
X87680000Y67380000D01*
X87680000Y67360000D01*
X89679390Y67360000D01*
X90041511Y67742569D01*
X90023483Y67833204D01*
X89875421Y68290096D01*
X89855909Y68325000D01*
X90268509Y68325000D01*
X90252258Y68160000D01*
X90260000Y67760000D01*
X90660000Y67360000D01*
X92660000Y67360000D01*
X92660000Y67380000D01*
X92760000Y67380000D01*
X92760000Y67360000D01*
X95200000Y67360000D01*
X95200000Y67380000D01*
X95300000Y67380000D01*
X95300000Y67360000D01*
X97299390Y67360000D01*
X97661511Y67742569D01*
X97643483Y67833204D01*
X97495421Y68290096D01*
X97475909Y68325000D01*
X98805000Y68325000D01*
X98805001Y1525000D01*
X95812863Y1525000D01*
X96153657Y1628379D01*
X96561907Y1846593D01*
X96919741Y2140259D01*
X97213407Y2498093D01*
X97431621Y2906343D01*
X97565997Y3349320D01*
X97611370Y3810000D01*
X97565997Y4270680D01*
X97431621Y4713657D01*
X97235807Y5080000D01*
X97431621Y5446343D01*
X97565997Y5889320D01*
X97611370Y6350000D01*
X97565997Y6810680D01*
X97431621Y7253657D01*
X97235807Y7620000D01*
X97431621Y7986343D01*
X97565997Y8429320D01*
X97611370Y8890000D01*
X97565997Y9350680D01*
X97431621Y9793657D01*
X97235807Y10160000D01*
X97431621Y10526343D01*
X97565997Y10969320D01*
X97611370Y11430000D01*
X97565997Y11890680D01*
X97431621Y12333657D01*
X97235807Y12700000D01*
X97431621Y13066343D01*
X97565997Y13509320D01*
X97611370Y13970000D01*
X97565997Y14430680D01*
X97431621Y14873657D01*
X97235807Y15240000D01*
X97431621Y15606343D01*
X97565997Y16049320D01*
X97611370Y16510000D01*
X97565997Y16970680D01*
X97431621Y17413657D01*
X97235807Y17780000D01*
X97431621Y18146343D01*
X97565997Y18589320D01*
X97611370Y19050000D01*
X97565997Y19510680D01*
X97431621Y19953657D01*
X97235807Y20320000D01*
X97431621Y20686343D01*
X97565997Y21129320D01*
X97611370Y21590000D01*
X97565997Y22050680D01*
X97431621Y22493657D01*
X97235807Y22860000D01*
X97431621Y23226343D01*
X97565997Y23669320D01*
X97611370Y24130000D01*
X97565997Y24590680D01*
X97431621Y25033657D01*
X97235807Y25400000D01*
X97431621Y25766343D01*
X97565997Y26209320D01*
X97611370Y26670000D01*
X97565997Y27130680D01*
X97431621Y27573657D01*
X97235807Y27940000D01*
X97431621Y28306343D01*
X97565997Y28749320D01*
X97611370Y29210000D01*
X97565997Y29670680D01*
X97431621Y30113657D01*
X97235807Y30480000D01*
X97431621Y30846343D01*
X97565997Y31289320D01*
X97611370Y31750000D01*
X97565997Y32210680D01*
X97431621Y32653657D01*
X97235807Y33020000D01*
X97431621Y33386343D01*
X97565997Y33829320D01*
X97611370Y34290000D01*
X97565997Y34750680D01*
X97431621Y35193657D01*
X97235807Y35560000D01*
X97431621Y35926343D01*
X97565997Y36369320D01*
X97611370Y36830000D01*
X97565997Y37290680D01*
X97431621Y37733657D01*
X97235807Y38100000D01*
X97431621Y38466343D01*
X97565997Y38909320D01*
X97611370Y39370000D01*
X97565997Y39830680D01*
X97431621Y40273657D01*
X97235807Y40640000D01*
X97431621Y41006343D01*
X97565997Y41449320D01*
X97611370Y41910000D01*
X97565997Y42370680D01*
X97431621Y42813657D01*
X97235807Y43180000D01*
X97431621Y43546343D01*
X97565997Y43989320D01*
X97611370Y44450000D01*
X97565997Y44910680D01*
X97431621Y45353657D01*
X97235807Y45720000D01*
X97431621Y46086343D01*
X97565997Y46529320D01*
X97611370Y46990000D01*
X97565997Y47450680D01*
X97431621Y47893657D01*
X97235807Y48260000D01*
X97431621Y48626343D01*
X97565997Y49069320D01*
X97611370Y49530000D01*
X97565997Y49990680D01*
X97431621Y50433657D01*
X97235807Y50800000D01*
X97431621Y51166343D01*
X97565997Y51609320D01*
X97611370Y52070000D01*
X97565997Y52530680D01*
X97431621Y52973657D01*
X97213407Y53381907D01*
X96919741Y53739741D01*
X96561907Y54033407D01*
X96153657Y54251621D01*
X95710680Y54385997D01*
X95365442Y54420000D01*
X95134558Y54420000D01*
X94789320Y54385997D01*
X94346343Y54251621D01*
X94298543Y54226071D01*
X94136802Y54312524D01*
X93854051Y54398295D01*
X93560000Y54427257D01*
X91860000Y54427257D01*
X91565949Y54398295D01*
X91283198Y54312524D01*
X91022613Y54173238D01*
X90794208Y53985792D01*
X90606762Y53757387D01*
X90586778Y53720000D01*
X89315942Y53720000D01*
X89299741Y53739741D01*
X88941907Y54033407D01*
X88533657Y54251621D01*
X88090680Y54385997D01*
X87745442Y54420000D01*
X87613451Y54420000D01*
X87604043Y54429408D01*
X87552370Y54492372D01*
X87301125Y54698563D01*
X87207899Y54748394D01*
X87580000Y55100509D01*
X87580000Y57100000D01*
X87680000Y57100000D01*
X87680000Y55100509D01*
X88062569Y54738488D01*
X88524720Y54869215D01*
X88952487Y55087591D01*
X89329432Y55385224D01*
X89641069Y55750676D01*
X89875421Y56169904D01*
X90023483Y56626796D01*
X90041511Y56717431D01*
X90298489Y56717431D01*
X90316517Y56626796D01*
X90464579Y56169904D01*
X90698931Y55750676D01*
X91010568Y55385224D01*
X91387513Y55087591D01*
X91815280Y54869215D01*
X92277431Y54738488D01*
X92660000Y55100509D01*
X92660000Y57100000D01*
X92760000Y57100000D01*
X92760000Y55100509D01*
X93142569Y54738488D01*
X93604720Y54869215D01*
X93980000Y55060796D01*
X94355280Y54869215D01*
X94817431Y54738488D01*
X95200000Y55100509D01*
X95200000Y57100000D01*
X95300000Y57100000D01*
X95300000Y55100509D01*
X95682569Y54738488D01*
X96144720Y54869215D01*
X96572487Y55087591D01*
X96949432Y55385224D01*
X97261069Y55750676D01*
X97495421Y56169904D01*
X97643483Y56626796D01*
X97661511Y56717431D01*
X97299390Y57100000D01*
X95300000Y57100000D01*
X95200000Y57100000D01*
X92760000Y57100000D01*
X92660000Y57100000D01*
X90660610Y57100000D01*
X90298489Y56717431D01*
X90041511Y56717431D01*
X89679390Y57100000D01*
X87680000Y57100000D01*
X87580000Y57100000D01*
X85140000Y57100000D01*
X85140000Y57080000D01*
X85040000Y57080000D01*
X85040000Y57100000D01*
X83040610Y57100000D01*
X82678489Y56717431D01*
X82696517Y56626796D01*
X82844579Y56169904D01*
X83078931Y55750676D01*
X83390568Y55385224D01*
X83767513Y55087591D01*
X83997855Y54970001D01*
X83881042Y54970001D01*
X83800000Y54977983D01*
X83718958Y54970001D01*
X83718949Y54970001D01*
X83476545Y54946126D01*
X83165518Y54851778D01*
X82878875Y54698563D01*
X82878873Y54698562D01*
X82878874Y54698562D01*
X82690586Y54544039D01*
X82690583Y54544036D01*
X82627630Y54492372D01*
X82575965Y54429418D01*
X81866548Y53720000D01*
X61375942Y53720000D01*
X61359741Y53739741D01*
X61001907Y54033407D01*
X60593657Y54251621D01*
X60150680Y54385997D01*
X59805442Y54420000D01*
X59673451Y54420000D01*
X59664043Y54429408D01*
X59612370Y54492372D01*
X59361125Y54698563D01*
X59267899Y54748394D01*
X59640000Y55100509D01*
X59640000Y57100000D01*
X59740000Y57100000D01*
X59740000Y55100509D01*
X60122569Y54738488D01*
X60584720Y54869215D01*
X61012487Y55087591D01*
X61389432Y55385224D01*
X61701069Y55750676D01*
X61935421Y56169904D01*
X62083483Y56626796D01*
X62101511Y56717431D01*
X61739390Y57100000D01*
X59740000Y57100000D01*
X59640000Y57100000D01*
X57200000Y57100000D01*
X57200000Y57080000D01*
X57100000Y57080000D01*
X57100000Y57100000D01*
X55100610Y57100000D01*
X54738489Y56717431D01*
X54756517Y56626796D01*
X54904579Y56169904D01*
X55138931Y55750676D01*
X55450568Y55385224D01*
X55827513Y55087591D01*
X56057855Y54970001D01*
X55941042Y54970001D01*
X55860000Y54977983D01*
X55778958Y54970001D01*
X55778949Y54970001D01*
X55536545Y54946126D01*
X55225518Y54851778D01*
X54938875Y54698563D01*
X54938873Y54698562D01*
X54938874Y54698562D01*
X54750586Y54544039D01*
X54750583Y54544036D01*
X54687630Y54492372D01*
X54635965Y54429418D01*
X53926548Y53720000D01*
X33435942Y53720000D01*
X33419741Y53739741D01*
X33061907Y54033407D01*
X32653657Y54251621D01*
X32210680Y54385997D01*
X31865442Y54420000D01*
X31733451Y54420000D01*
X31724043Y54429408D01*
X31672370Y54492372D01*
X31421125Y54698563D01*
X31327899Y54748394D01*
X31700000Y55100509D01*
X31700000Y57100000D01*
X31800000Y57100000D01*
X31800000Y55100509D01*
X32182569Y54738488D01*
X32644720Y54869215D01*
X33072487Y55087591D01*
X33449432Y55385224D01*
X33761069Y55750676D01*
X33995421Y56169904D01*
X34143483Y56626796D01*
X34161511Y56717431D01*
X33799390Y57100000D01*
X31800000Y57100000D01*
X31700000Y57100000D01*
X29260000Y57100000D01*
X29260000Y57080000D01*
X29160000Y57080000D01*
X29160000Y57100000D01*
X27160610Y57100000D01*
X26798489Y56717431D01*
X26816517Y56626796D01*
X26964579Y56169904D01*
X27198931Y55750676D01*
X27510568Y55385224D01*
X27887513Y55087591D01*
X28117855Y54970001D01*
X28001042Y54970001D01*
X27920000Y54977983D01*
X27838958Y54970001D01*
X27838949Y54970001D01*
X27596545Y54946126D01*
X27285518Y54851778D01*
X26998875Y54698563D01*
X26998873Y54698562D01*
X26998874Y54698562D01*
X26810586Y54544039D01*
X26810583Y54544036D01*
X26747630Y54492372D01*
X26695965Y54429418D01*
X25986548Y53720000D01*
X9305942Y53720000D01*
X9289741Y53739741D01*
X8931907Y54033407D01*
X8523657Y54251621D01*
X8080680Y54385997D01*
X7735442Y54420000D01*
X7504558Y54420000D01*
X7159320Y54385997D01*
X6716343Y54251621D01*
X6668543Y54226071D01*
X6506802Y54312524D01*
X6224051Y54398295D01*
X5930000Y54427257D01*
X4230000Y54427257D01*
X3935949Y54398295D01*
X3653198Y54312524D01*
X3392613Y54173238D01*
X3164208Y53985792D01*
X2976762Y53757387D01*
X2837476Y53496802D01*
X2751705Y53214051D01*
X2722743Y52920000D01*
X2722743Y51220000D01*
X2751705Y50925949D01*
X2837476Y50643198D01*
X2923929Y50481457D01*
X2898379Y50433657D01*
X2764003Y49990680D01*
X2718630Y49530000D01*
X2764003Y49069320D01*
X2898379Y48626343D01*
X3094193Y48260000D01*
X2898379Y47893657D01*
X2764003Y47450680D01*
X2718630Y46990000D01*
X2764003Y46529320D01*
X2898379Y46086343D01*
X3094193Y45720000D01*
X2898379Y45353657D01*
X2764003Y44910680D01*
X2718630Y44450000D01*
X2764003Y43989320D01*
X2898379Y43546343D01*
X3094193Y43180000D01*
X2898379Y42813657D01*
X2764003Y42370680D01*
X2718630Y41910000D01*
X2764003Y41449320D01*
X2898379Y41006343D01*
X3094193Y40640000D01*
X2898379Y40273657D01*
X2764003Y39830680D01*
X2718630Y39370000D01*
X2764003Y38909320D01*
X2898379Y38466343D01*
X3094193Y38100000D01*
X2898379Y37733657D01*
X2764003Y37290680D01*
X2718630Y36830000D01*
X2764003Y36369320D01*
X2898379Y35926343D01*
X3094193Y35560000D01*
X2898379Y35193657D01*
X2764003Y34750680D01*
X2718630Y34290000D01*
X2764003Y33829320D01*
X2898379Y33386343D01*
X3094193Y33020000D01*
X2898379Y32653657D01*
X2764003Y32210680D01*
X2718630Y31750000D01*
X2764003Y31289320D01*
X2898379Y30846343D01*
X3094193Y30480000D01*
X2898379Y30113657D01*
X2764003Y29670680D01*
X2718630Y29210000D01*
X2764003Y28749320D01*
X2898379Y28306343D01*
X3094193Y27940000D01*
X2898379Y27573657D01*
X2764003Y27130680D01*
X2718630Y26670000D01*
X2764003Y26209320D01*
X2898379Y25766343D01*
X3094193Y25400000D01*
X2898379Y25033657D01*
X2764003Y24590680D01*
X2718630Y24130000D01*
X2764003Y23669320D01*
X2898379Y23226343D01*
X3094193Y22860000D01*
X2898379Y22493657D01*
X2764003Y22050680D01*
X2718630Y21590000D01*
X2764003Y21129320D01*
X2898379Y20686343D01*
X3094193Y20320000D01*
X2898379Y19953657D01*
X2764003Y19510680D01*
X2718630Y19050000D01*
X2764003Y18589320D01*
X2898379Y18146343D01*
X3094193Y17780000D01*
X2898379Y17413657D01*
X2764003Y16970680D01*
X2718630Y16510000D01*
X2764003Y16049320D01*
X2898379Y15606343D01*
X3094193Y15240000D01*
X2898379Y14873657D01*
X2764003Y14430680D01*
X2718630Y13970000D01*
X2764003Y13509320D01*
X2898379Y13066343D01*
X3094193Y12700000D01*
X2898379Y12333657D01*
X2764003Y11890680D01*
X2718630Y11430000D01*
X2764003Y10969320D01*
X2898379Y10526343D01*
X3094193Y10160000D01*
X2898379Y9793657D01*
X2764003Y9350680D01*
X2718630Y8890000D01*
X2764003Y8429320D01*
X2898379Y7986343D01*
X3094193Y7620000D01*
X2898379Y7253657D01*
X2764003Y6810680D01*
X2718630Y6350000D01*
X2764003Y5889320D01*
X2898379Y5446343D01*
X3094193Y5080000D01*
X2898379Y4713657D01*
X2764003Y4270680D01*
X2718630Y3810000D01*
X2764003Y3349320D01*
X2898379Y2906343D01*
X3116593Y2498093D01*
X3410259Y2140259D01*
X3768093Y1846593D01*
X4176343Y1628379D01*
X4517137Y1525000D01*
X1525000Y1525000D01*
X1525000Y56717431D01*
X2668489Y56717431D01*
X2686517Y56626796D01*
X2834579Y56169904D01*
X3068931Y55750676D01*
X3380568Y55385224D01*
X3757513Y55087591D01*
X4185280Y54869215D01*
X4647431Y54738488D01*
X5030000Y55100509D01*
X5030000Y57100000D01*
X5130000Y57100000D01*
X5130000Y55100509D01*
X5512569Y54738488D01*
X5974720Y54869215D01*
X6350000Y55060796D01*
X6725280Y54869215D01*
X7187431Y54738488D01*
X7570000Y55100509D01*
X7570000Y57100000D01*
X7670000Y57100000D01*
X7670000Y55100509D01*
X8052569Y54738488D01*
X8514720Y54869215D01*
X8942487Y55087591D01*
X9319432Y55385224D01*
X9631069Y55750676D01*
X9865421Y56169904D01*
X10013483Y56626796D01*
X10031511Y56717431D01*
X9669390Y57100000D01*
X7670000Y57100000D01*
X7570000Y57100000D01*
X5130000Y57100000D01*
X5030000Y57100000D01*
X3030610Y57100000D01*
X2668489Y56717431D01*
X1525000Y56717431D01*
X1525000Y66460000D01*
X2622258Y66460000D01*
X2653150Y66146345D01*
X2744640Y65844744D01*
X2875826Y65599311D01*
X2764003Y65230680D01*
X2718630Y64770000D01*
X2764003Y64309320D01*
X2898379Y63866343D01*
X3094193Y63500000D01*
X2898379Y63133657D01*
X2764003Y62690680D01*
X2718630Y62230000D01*
X2764003Y61769320D01*
X2898379Y61326343D01*
X3094193Y60960000D01*
X2898379Y60593657D01*
X2764003Y60150680D01*
X2718630Y59690000D01*
X2764003Y59229320D01*
X2898379Y58786343D01*
X3046508Y58509212D01*
X2834579Y58130096D01*
X2686517Y57673204D01*
X2668489Y57582569D01*
X3030610Y57200000D01*
X5030000Y57200000D01*
X5030000Y57220000D01*
X5130000Y57220000D01*
X5130000Y57200000D01*
X7570000Y57200000D01*
X7570000Y57220000D01*
X7670000Y57220000D01*
X7670000Y57200000D01*
X9669390Y57200000D01*
X10031511Y57582569D01*
X10013483Y57673204D01*
X9865421Y58130096D01*
X9653492Y58509212D01*
X9801621Y58786343D01*
X9935997Y59229320D01*
X9981370Y59690000D01*
X9935997Y60150680D01*
X9801621Y60593657D01*
X9605807Y60960000D01*
X9801621Y61326343D01*
X9935997Y61769320D01*
X9981370Y62230000D01*
X9935997Y62690680D01*
X9801621Y63133657D01*
X9605807Y63500000D01*
X9801621Y63866343D01*
X9935997Y64309320D01*
X9981370Y64770000D01*
X9935997Y65230680D01*
X9801621Y65673657D01*
X9653492Y65950788D01*
X9865421Y66329904D01*
X9907580Y66460000D01*
X26752258Y66460000D01*
X26783150Y66146345D01*
X26874640Y65844744D01*
X27005826Y65599311D01*
X26894003Y65230680D01*
X26848630Y64770000D01*
X26894003Y64309320D01*
X27028379Y63866343D01*
X27224193Y63500000D01*
X27028379Y63133657D01*
X26894003Y62690680D01*
X26848630Y62230000D01*
X26894003Y61769320D01*
X27028379Y61326343D01*
X27224193Y60960000D01*
X27028379Y60593657D01*
X26894003Y60150680D01*
X26848630Y59690000D01*
X26894003Y59229320D01*
X27028379Y58786343D01*
X27176508Y58509212D01*
X26964579Y58130096D01*
X26816517Y57673204D01*
X26798489Y57582569D01*
X27160610Y57200000D01*
X29160000Y57200000D01*
X29160000Y57220000D01*
X29260000Y57220000D01*
X29260000Y57200000D01*
X31700000Y57200000D01*
X31700000Y57220000D01*
X31800000Y57220000D01*
X31800000Y57200000D01*
X33799390Y57200000D01*
X34161511Y57582569D01*
X34143483Y57673204D01*
X33995421Y58130096D01*
X33783492Y58509212D01*
X33931621Y58786343D01*
X34065997Y59229320D01*
X34111370Y59690000D01*
X34065997Y60150680D01*
X33931621Y60593657D01*
X33735807Y60960000D01*
X33931621Y61326343D01*
X34065997Y61769320D01*
X34111370Y62230000D01*
X34065997Y62690680D01*
X33931621Y63133657D01*
X33735807Y63500000D01*
X33931621Y63866343D01*
X34065997Y64309320D01*
X34111370Y64770000D01*
X34065997Y65230680D01*
X33931621Y65673657D01*
X33783492Y65950788D01*
X33995421Y66329904D01*
X34037580Y66460000D01*
X54692258Y66460000D01*
X54723150Y66146345D01*
X54814640Y65844744D01*
X54945826Y65599311D01*
X54834003Y65230680D01*
X54788630Y64770000D01*
X54834003Y64309320D01*
X54968379Y63866343D01*
X55164193Y63500000D01*
X54968379Y63133657D01*
X54834003Y62690680D01*
X54788630Y62230000D01*
X54834003Y61769320D01*
X54968379Y61326343D01*
X55164193Y60960000D01*
X54968379Y60593657D01*
X54834003Y60150680D01*
X54788630Y59690000D01*
X54834003Y59229320D01*
X54968379Y58786343D01*
X55116508Y58509212D01*
X54904579Y58130096D01*
X54756517Y57673204D01*
X54738489Y57582569D01*
X55100610Y57200000D01*
X57100000Y57200000D01*
X57100000Y57220000D01*
X57200000Y57220000D01*
X57200000Y57200000D01*
X59640000Y57200000D01*
X59640000Y57220000D01*
X59740000Y57220000D01*
X59740000Y57200000D01*
X61739390Y57200000D01*
X62101511Y57582569D01*
X62083483Y57673204D01*
X61935421Y58130096D01*
X61723492Y58509212D01*
X61871621Y58786343D01*
X62005997Y59229320D01*
X62051370Y59690000D01*
X62005997Y60150680D01*
X61871621Y60593657D01*
X61675807Y60960000D01*
X61871621Y61326343D01*
X62005997Y61769320D01*
X62051370Y62230000D01*
X62005997Y62690680D01*
X61871621Y63133657D01*
X61675807Y63500000D01*
X61871621Y63866343D01*
X62005997Y64309320D01*
X62051370Y64770000D01*
X62005997Y65230680D01*
X61871621Y65673657D01*
X61723492Y65950788D01*
X61935421Y66329904D01*
X61977580Y66460000D01*
X82632258Y66460000D01*
X82663150Y66146345D01*
X82754640Y65844744D01*
X82885826Y65599311D01*
X82774003Y65230680D01*
X82728630Y64770000D01*
X82774003Y64309320D01*
X82908379Y63866343D01*
X83104193Y63500000D01*
X82908379Y63133657D01*
X82774003Y62690680D01*
X82728630Y62230000D01*
X82774003Y61769320D01*
X82908379Y61326343D01*
X83104193Y60960000D01*
X82908379Y60593657D01*
X82774003Y60150680D01*
X82728630Y59690000D01*
X82774003Y59229320D01*
X82908379Y58786343D01*
X83056508Y58509212D01*
X82844579Y58130096D01*
X82696517Y57673204D01*
X82678489Y57582569D01*
X83040610Y57200000D01*
X85040000Y57200000D01*
X85040000Y57220000D01*
X85140000Y57220000D01*
X85140000Y57200000D01*
X87580000Y57200000D01*
X87580000Y57220000D01*
X87680000Y57220000D01*
X87680000Y57200000D01*
X89679390Y57200000D01*
X90041511Y57582569D01*
X90023483Y57673204D01*
X89875421Y58130096D01*
X89663492Y58509212D01*
X89811621Y58786343D01*
X89945997Y59229320D01*
X89991370Y59690000D01*
X89945997Y60150680D01*
X89811621Y60593657D01*
X89615807Y60960000D01*
X89811621Y61326343D01*
X89945997Y61769320D01*
X89991370Y62230000D01*
X89945997Y62690680D01*
X89811621Y63133657D01*
X89615807Y63500000D01*
X89811621Y63866343D01*
X89945997Y64309320D01*
X89991370Y64770000D01*
X89945997Y65230680D01*
X89811621Y65673657D01*
X89663492Y65950788D01*
X89875421Y66329904D01*
X89917580Y66460000D01*
X90252258Y66460000D01*
X90283150Y66146345D01*
X90374640Y65844744D01*
X90505826Y65599311D01*
X90394003Y65230680D01*
X90348630Y64770000D01*
X90394003Y64309320D01*
X90528379Y63866343D01*
X90724193Y63500000D01*
X90528379Y63133657D01*
X90394003Y62690680D01*
X90348630Y62230000D01*
X90394003Y61769320D01*
X90528379Y61326343D01*
X90724193Y60960000D01*
X90528379Y60593657D01*
X90394003Y60150680D01*
X90348630Y59690000D01*
X90394003Y59229320D01*
X90528379Y58786343D01*
X90676508Y58509212D01*
X90464579Y58130096D01*
X90316517Y57673204D01*
X90298489Y57582569D01*
X90660610Y57200000D01*
X92660000Y57200000D01*
X92660000Y57220000D01*
X92760000Y57220000D01*
X92760000Y57200000D01*
X95200000Y57200000D01*
X95200000Y57220000D01*
X95300000Y57220000D01*
X95300000Y57200000D01*
X97299390Y57200000D01*
X97661511Y57582569D01*
X97643483Y57673204D01*
X97495421Y58130096D01*
X97283492Y58509212D01*
X97431621Y58786343D01*
X97565997Y59229320D01*
X97611370Y59690000D01*
X97565997Y60150680D01*
X97431621Y60593657D01*
X97235807Y60960000D01*
X97431621Y61326343D01*
X97565997Y61769320D01*
X97611370Y62230000D01*
X97565997Y62690680D01*
X97431621Y63133657D01*
X97235807Y63500000D01*
X97431621Y63866343D01*
X97565997Y64309320D01*
X97611370Y64770000D01*
X97565997Y65230680D01*
X97431621Y65673657D01*
X97283492Y65950788D01*
X97495421Y66329904D01*
X97643483Y66786796D01*
X97661511Y66877431D01*
X97299390Y67260000D01*
X95300000Y67260000D01*
X95300000Y67240000D01*
X95200000Y67240000D01*
X95200000Y67260000D01*
X92760000Y67260000D01*
X92760000Y67240000D01*
X92660000Y67240000D01*
X92660000Y67260000D01*
X90660000Y67260000D01*
X90260000Y66860000D01*
X90252258Y66460000D01*
X89917580Y66460000D01*
X90023483Y66786796D01*
X90041511Y66877431D01*
X89679390Y67260000D01*
X87680000Y67260000D01*
X87680000Y67240000D01*
X87580000Y67240000D01*
X87580000Y67260000D01*
X85140000Y67260000D01*
X85140000Y67240000D01*
X85040000Y67240000D01*
X85040000Y67260000D01*
X83040000Y67260000D01*
X82640000Y66860000D01*
X82632258Y66460000D01*
X61977580Y66460000D01*
X62083483Y66786796D01*
X62101511Y66877431D01*
X61739390Y67260000D01*
X59740000Y67260000D01*
X59740000Y67240000D01*
X59640000Y67240000D01*
X59640000Y67260000D01*
X57200000Y67260000D01*
X57200000Y67240000D01*
X57100000Y67240000D01*
X57100000Y67260000D01*
X55100000Y67260000D01*
X54700000Y66860000D01*
X54692258Y66460000D01*
X34037580Y66460000D01*
X34143483Y66786796D01*
X34161511Y66877431D01*
X33799390Y67260000D01*
X31800000Y67260000D01*
X31800000Y67240000D01*
X31700000Y67240000D01*
X31700000Y67260000D01*
X29260000Y67260000D01*
X29260000Y67240000D01*
X29160000Y67240000D01*
X29160000Y67260000D01*
X27160000Y67260000D01*
X26760000Y66860000D01*
X26752258Y66460000D01*
X9907580Y66460000D01*
X10013483Y66786796D01*
X10031511Y66877431D01*
X9669390Y67260000D01*
X7670000Y67260000D01*
X7670000Y67240000D01*
X7570000Y67240000D01*
X7570000Y67260000D01*
X5130000Y67260000D01*
X5130000Y67240000D01*
X5030000Y67240000D01*
X5030000Y67260000D01*
X3030000Y67260000D01*
X2630000Y66860000D01*
X2622258Y66460000D01*
X1525000Y66460000D01*
X1525000Y68325000D01*
X2638509Y68325000D01*
X2622258Y68160000D01*
M02*
