M48
; DRILL file {KiCad (5.1.4)-1} date 08/12/2019 20:46:11
; FORMAT={-:-/ absolute / metric / decimal}
; #@! TF.CreationDate,2019-12-08T20:46:11+02:00
; #@! TF.GenerationSoftware,Kicad,Pcbnew,(5.1.4)-1
; #@! TF.FileFunction,Plated,1,2,PTH
FMAT,2
METRIC
T1C1.000
%
G90
G05
T1
X92.71Y52.07
X92.71Y49.53
X92.71Y46.99
X92.71Y44.45
X92.71Y41.91
X92.71Y39.37
X92.71Y36.83
X92.71Y34.29
X92.71Y31.75
X92.71Y29.21
X92.71Y26.67
X92.71Y24.13
X92.71Y21.59
X92.71Y19.05
X92.71Y16.51
X92.71Y13.97
X92.71Y11.43
X92.71Y8.89
X92.71Y6.35
X92.71Y3.81
X95.25Y52.07
X95.25Y49.53
X95.25Y46.99
X95.25Y44.45
X95.25Y41.91
X95.25Y39.37
X95.25Y36.83
X95.25Y34.29
X95.25Y31.75
X95.25Y29.21
X95.25Y26.67
X95.25Y24.13
X95.25Y21.59
X95.25Y19.05
X95.25Y16.51
X95.25Y13.97
X95.25Y11.43
X95.25Y8.89
X95.25Y6.35
X95.25Y3.81
X5.08Y67.31
X5.08Y64.77
X5.08Y62.23
X5.08Y59.69
X5.08Y57.15
X7.62Y67.31
X7.62Y64.77
X7.62Y62.23
X7.62Y59.69
X7.62Y57.15
X57.15Y52.07
X57.15Y49.53
X57.15Y46.99
X57.15Y44.45
X57.15Y41.91
X57.15Y39.37
X57.15Y36.83
X57.15Y34.29
X57.15Y31.75
X57.15Y29.21
X57.15Y26.67
X57.15Y24.13
X57.15Y21.59
X57.15Y19.05
X57.15Y16.51
X57.15Y13.97
X57.15Y11.43
X57.15Y8.89
X57.15Y6.35
X57.15Y3.81
X59.69Y52.07
X59.69Y49.53
X59.69Y46.99
X59.69Y44.45
X59.69Y41.91
X59.69Y39.37
X59.69Y36.83
X59.69Y34.29
X59.69Y31.75
X59.69Y29.21
X59.69Y26.67
X59.69Y24.13
X59.69Y21.59
X59.69Y19.05
X59.69Y16.51
X59.69Y13.97
X59.69Y11.43
X59.69Y8.89
X59.69Y6.35
X59.69Y3.81
X57.15Y67.31
X57.15Y64.77
X57.15Y62.23
X57.15Y59.69
X57.15Y57.15
X59.69Y67.31
X59.69Y64.77
X59.69Y62.23
X59.69Y59.69
X59.69Y57.15
X5.08Y52.07
X5.08Y49.53
X5.08Y46.99
X5.08Y44.45
X5.08Y41.91
X5.08Y39.37
X5.08Y36.83
X5.08Y34.29
X5.08Y31.75
X5.08Y29.21
X5.08Y26.67
X5.08Y24.13
X5.08Y21.59
X5.08Y19.05
X5.08Y16.51
X5.08Y13.97
X5.08Y11.43
X5.08Y8.89
X5.08Y6.35
X5.08Y3.81
X7.62Y52.07
X7.62Y49.53
X7.62Y46.99
X7.62Y44.45
X7.62Y41.91
X7.62Y39.37
X7.62Y36.83
X7.62Y34.29
X7.62Y31.75
X7.62Y29.21
X7.62Y26.67
X7.62Y24.13
X7.62Y21.59
X7.62Y19.05
X7.62Y16.51
X7.62Y13.97
X7.62Y11.43
X7.62Y8.89
X7.62Y6.35
X7.62Y3.81
X85.09Y52.07
X85.09Y49.53
X85.09Y46.99
X85.09Y44.45
X85.09Y41.91
X85.09Y39.37
X85.09Y36.83
X85.09Y34.29
X85.09Y31.75
X85.09Y29.21
X85.09Y26.67
X85.09Y24.13
X85.09Y21.59
X85.09Y19.05
X85.09Y16.51
X85.09Y13.97
X85.09Y11.43
X85.09Y8.89
X85.09Y6.35
X85.09Y3.81
X87.63Y52.07
X87.63Y49.53
X87.63Y46.99
X87.63Y44.45
X87.63Y41.91
X87.63Y39.37
X87.63Y36.83
X87.63Y34.29
X87.63Y31.75
X87.63Y29.21
X87.63Y26.67
X87.63Y24.13
X87.63Y21.59
X87.63Y19.05
X87.63Y16.51
X87.63Y13.97
X87.63Y11.43
X87.63Y8.89
X87.63Y6.35
X87.63Y3.81
X85.09Y67.31
X85.09Y64.77
X85.09Y62.23
X85.09Y59.69
X85.09Y57.15
X87.63Y67.31
X87.63Y64.77
X87.63Y62.23
X87.63Y59.69
X87.63Y57.15
X92.71Y67.31
X92.71Y64.77
X92.71Y62.23
X92.71Y59.69
X92.71Y57.15
X95.25Y67.31
X95.25Y64.77
X95.25Y62.23
X95.25Y59.69
X95.25Y57.15
X29.21Y52.07
X29.21Y49.53
X29.21Y46.99
X29.21Y44.45
X29.21Y41.91
X29.21Y39.37
X29.21Y36.83
X29.21Y34.29
X29.21Y31.75
X29.21Y29.21
X29.21Y26.67
X29.21Y24.13
X29.21Y21.59
X29.21Y19.05
X29.21Y16.51
X29.21Y13.97
X29.21Y11.43
X29.21Y8.89
X29.21Y6.35
X29.21Y3.81
X31.75Y52.07
X31.75Y49.53
X31.75Y46.99
X31.75Y44.45
X31.75Y41.91
X31.75Y39.37
X31.75Y36.83
X31.75Y34.29
X31.75Y31.75
X31.75Y29.21
X31.75Y26.67
X31.75Y24.13
X31.75Y21.59
X31.75Y19.05
X31.75Y16.51
X31.75Y13.97
X31.75Y11.43
X31.75Y8.89
X31.75Y6.35
X31.75Y3.81
X29.21Y67.31
X29.21Y64.77
X29.21Y62.23
X29.21Y59.69
X29.21Y57.15
X31.75Y67.31
X31.75Y64.77
X31.75Y62.23
X31.75Y59.69
X31.75Y57.15
T0
M30
