%TF.GenerationSoftware,KiCad,Pcbnew,(6.0.4)*%
%TF.CreationDate,2022-06-04T07:03:01+03:00*%
%TF.ProjectId,Extension,45787465-6e73-4696-9f6e-2e6b69636164,rev?*%
%TF.SameCoordinates,Original*%
%TF.FileFunction,Copper,L2,Bot*%
%TF.FilePolarity,Positive*%
%FSLAX46Y46*%
G04 Gerber Fmt 4.6, Leading zero omitted, Abs format (unit mm)*
G04 Created by KiCad (PCBNEW (6.0.4)) date 2022-06-04 07:03:01*
%MOMM*%
%LPD*%
G01*
G04 APERTURE LIST*
%TA.AperFunction,ComponentPad*%
%ADD10R,1.700000X1.700000*%
%TD*%
%TA.AperFunction,ComponentPad*%
%ADD11O,1.700000X1.700000*%
%TD*%
G04 APERTURE END LIST*
D10*
%TO.P,J3,1,Pin_1*%
%TO.N,/gnd*%
X187955000Y-59060000D03*
D11*
%TO.P,J3,2,Pin_2*%
X190495000Y-59060000D03*
%TO.P,J3,3,Pin_3*%
%TO.N,/+5V*%
X187955000Y-61600000D03*
%TO.P,J3,4,Pin_4*%
X190495000Y-61600000D03*
%TO.P,J3,5,Pin_5*%
%TO.N,/+12V*%
X187955000Y-64140000D03*
%TO.P,J3,6,Pin_6*%
X190495000Y-64140000D03*
%TO.P,J3,7,Pin_7*%
%TO.N,/v1*%
X187955000Y-66680000D03*
%TO.P,J3,8,Pin_8*%
X190495000Y-66680000D03*
%TO.P,J3,9,Pin_9*%
%TO.N,/gnd*%
X187955000Y-69220000D03*
%TO.P,J3,10,Pin_10*%
X190495000Y-69220000D03*
%TD*%
D10*
%TO.P,J4,1,Pin_1*%
%TO.N,/a01*%
X187960000Y-74295000D03*
D11*
%TO.P,J4,2,Pin_2*%
%TO.N,/a00*%
X190500000Y-74295000D03*
%TO.P,J4,3,Pin_3*%
%TO.N,/a03*%
X187960000Y-76835000D03*
%TO.P,J4,4,Pin_4*%
%TO.N,/a02*%
X190500000Y-76835000D03*
%TO.P,J4,5,Pin_5*%
%TO.N,/a05*%
X187960000Y-79375000D03*
%TO.P,J4,6,Pin_6*%
%TO.N,/a04*%
X190500000Y-79375000D03*
%TO.P,J4,7,Pin_7*%
%TO.N,/a07*%
X187960000Y-81915000D03*
%TO.P,J4,8,Pin_8*%
%TO.N,/a06*%
X190500000Y-81915000D03*
%TO.P,J4,9,Pin_9*%
%TO.N,/a09*%
X187960000Y-84455000D03*
%TO.P,J4,10,Pin_10*%
%TO.N,/a08*%
X190500000Y-84455000D03*
%TO.P,J4,11,Pin_11*%
%TO.N,/a11*%
X187960000Y-86995000D03*
%TO.P,J4,12,Pin_12*%
%TO.N,/a10*%
X190500000Y-86995000D03*
%TO.P,J4,13,Pin_13*%
%TO.N,/a13*%
X187960000Y-89535000D03*
%TO.P,J4,14,Pin_14*%
%TO.N,/a12*%
X190500000Y-89535000D03*
%TO.P,J4,15,Pin_15*%
%TO.N,/a15*%
X187960000Y-92075000D03*
%TO.P,J4,16,Pin_16*%
%TO.N,/a14*%
X190500000Y-92075000D03*
%TO.P,J4,17,Pin_17*%
%TO.N,/d01*%
X187960000Y-94615000D03*
%TO.P,J4,18,Pin_18*%
%TO.N,/d00*%
X190500000Y-94615000D03*
%TO.P,J4,19,Pin_19*%
%TO.N,/d03*%
X187960000Y-97155000D03*
%TO.P,J4,20,Pin_20*%
%TO.N,/d02*%
X190500000Y-97155000D03*
%TO.P,J4,21,Pin_21*%
%TO.N,/d05*%
X187960000Y-99695000D03*
%TO.P,J4,22,Pin_22*%
%TO.N,/d04*%
X190500000Y-99695000D03*
%TO.P,J4,23,Pin_23*%
%TO.N,/d07*%
X187960000Y-102235000D03*
%TO.P,J4,24,Pin_24*%
%TO.N,/d06*%
X190500000Y-102235000D03*
%TO.P,J4,25,Pin_25*%
%TO.N,/wr*%
X187960000Y-104775000D03*
%TO.P,J4,26,Pin_26*%
%TO.N,/mreq*%
X190500000Y-104775000D03*
%TO.P,J4,27,Pin_27*%
%TO.N,/rd*%
X187960000Y-107315000D03*
%TO.P,J4,28,Pin_28*%
%TO.N,/iorq*%
X190500000Y-107315000D03*
%TO.P,J4,29,Pin_29*%
%TO.N,/busack*%
X187960000Y-109855000D03*
%TO.P,J4,30,Pin_30*%
%TO.N,/busrq*%
X190500000Y-109855000D03*
%TO.P,J4,31,Pin_31*%
%TO.N,/halt*%
X187960000Y-112395000D03*
%TO.P,J4,32,Pin_32*%
%TO.N,/wait*%
X190500000Y-112395000D03*
%TO.P,J4,33,Pin_33*%
%TO.N,/int*%
X187960000Y-114935000D03*
%TO.P,J4,34,Pin_34*%
%TO.N,/nmi*%
X190500000Y-114935000D03*
%TO.P,J4,35,Pin_35*%
%TO.N,/s1*%
X187960000Y-117475000D03*
%TO.P,J4,36,Pin_36*%
%TO.N,/s0*%
X190500000Y-117475000D03*
%TO.P,J4,37,Pin_37*%
%TO.N,/m1*%
X187960000Y-120015000D03*
%TO.P,J4,38,Pin_38*%
%TO.N,/s2*%
X190500000Y-120015000D03*
%TO.P,J4,39,Pin_39*%
%TO.N,/clk*%
X187960000Y-122555000D03*
%TO.P,J4,40,Pin_40*%
%TO.N,/reset*%
X190500000Y-122555000D03*
%TD*%
D10*
%TO.P,J2,1,Pin_1*%
%TO.N,/a00*%
X99695000Y-74295000D03*
D11*
%TO.P,J2,2,Pin_2*%
%TO.N,/a01*%
X102235000Y-74295000D03*
%TO.P,J2,3,Pin_3*%
%TO.N,/a02*%
X99695000Y-76835000D03*
%TO.P,J2,4,Pin_4*%
%TO.N,/a03*%
X102235000Y-76835000D03*
%TO.P,J2,5,Pin_5*%
%TO.N,/a04*%
X99695000Y-79375000D03*
%TO.P,J2,6,Pin_6*%
%TO.N,/a05*%
X102235000Y-79375000D03*
%TO.P,J2,7,Pin_7*%
%TO.N,/a06*%
X99695000Y-81915000D03*
%TO.P,J2,8,Pin_8*%
%TO.N,/a07*%
X102235000Y-81915000D03*
%TO.P,J2,9,Pin_9*%
%TO.N,/a08*%
X99695000Y-84455000D03*
%TO.P,J2,10,Pin_10*%
%TO.N,/a09*%
X102235000Y-84455000D03*
%TO.P,J2,11,Pin_11*%
%TO.N,/a10*%
X99695000Y-86995000D03*
%TO.P,J2,12,Pin_12*%
%TO.N,/a11*%
X102235000Y-86995000D03*
%TO.P,J2,13,Pin_13*%
%TO.N,/a12*%
X99695000Y-89535000D03*
%TO.P,J2,14,Pin_14*%
%TO.N,/a13*%
X102235000Y-89535000D03*
%TO.P,J2,15,Pin_15*%
%TO.N,/a14*%
X99695000Y-92075000D03*
%TO.P,J2,16,Pin_16*%
%TO.N,/a15*%
X102235000Y-92075000D03*
%TO.P,J2,17,Pin_17*%
%TO.N,/d00*%
X99695000Y-94615000D03*
%TO.P,J2,18,Pin_18*%
%TO.N,/d01*%
X102235000Y-94615000D03*
%TO.P,J2,19,Pin_19*%
%TO.N,/d02*%
X99695000Y-97155000D03*
%TO.P,J2,20,Pin_20*%
%TO.N,/d03*%
X102235000Y-97155000D03*
%TO.P,J2,21,Pin_21*%
%TO.N,/d04*%
X99695000Y-99695000D03*
%TO.P,J2,22,Pin_22*%
%TO.N,/d05*%
X102235000Y-99695000D03*
%TO.P,J2,23,Pin_23*%
%TO.N,/d06*%
X99695000Y-102235000D03*
%TO.P,J2,24,Pin_24*%
%TO.N,/d07*%
X102235000Y-102235000D03*
%TO.P,J2,25,Pin_25*%
%TO.N,/mreq*%
X99695000Y-104775000D03*
%TO.P,J2,26,Pin_26*%
%TO.N,/wr*%
X102235000Y-104775000D03*
%TO.P,J2,27,Pin_27*%
%TO.N,/iorq*%
X99695000Y-107315000D03*
%TO.P,J2,28,Pin_28*%
%TO.N,/rd*%
X102235000Y-107315000D03*
%TO.P,J2,29,Pin_29*%
%TO.N,/busrq*%
X99695000Y-109855000D03*
%TO.P,J2,30,Pin_30*%
%TO.N,/busack*%
X102235000Y-109855000D03*
%TO.P,J2,31,Pin_31*%
%TO.N,/wait*%
X99695000Y-112395000D03*
%TO.P,J2,32,Pin_32*%
%TO.N,/halt*%
X102235000Y-112395000D03*
%TO.P,J2,33,Pin_33*%
%TO.N,/nmi*%
X99695000Y-114935000D03*
%TO.P,J2,34,Pin_34*%
%TO.N,/int*%
X102235000Y-114935000D03*
%TO.P,J2,35,Pin_35*%
%TO.N,/s0*%
X99695000Y-117475000D03*
%TO.P,J2,36,Pin_36*%
%TO.N,/s1*%
X102235000Y-117475000D03*
%TO.P,J2,37,Pin_37*%
%TO.N,/s2*%
X99695000Y-120015000D03*
%TO.P,J2,38,Pin_38*%
%TO.N,/m1*%
X102235000Y-120015000D03*
%TO.P,J2,39,Pin_39*%
%TO.N,/reset*%
X99695000Y-122555000D03*
%TO.P,J2,40,Pin_40*%
%TO.N,/clk*%
X102235000Y-122555000D03*
%TD*%
D10*
%TO.P,J1,1,Pin_1*%
%TO.N,/gnd*%
X99690000Y-59060000D03*
D11*
%TO.P,J1,2,Pin_2*%
X102230000Y-59060000D03*
%TO.P,J1,3,Pin_3*%
%TO.N,/+5V*%
X99690000Y-61600000D03*
%TO.P,J1,4,Pin_4*%
X102230000Y-61600000D03*
%TO.P,J1,5,Pin_5*%
%TO.N,/+12V*%
X99690000Y-64140000D03*
%TO.P,J1,6,Pin_6*%
X102230000Y-64140000D03*
%TO.P,J1,7,Pin_7*%
%TO.N,/v1*%
X99690000Y-66680000D03*
%TO.P,J1,8,Pin_8*%
X102230000Y-66680000D03*
%TO.P,J1,9,Pin_9*%
%TO.N,/gnd*%
X99690000Y-69220000D03*
%TO.P,J1,10,Pin_10*%
X102230000Y-69220000D03*
%TD*%
%TA.AperFunction,Conductor*%
%TO.N,/gnd*%
G36*
X194378621Y-56408502D02*
G01*
X194425114Y-56462158D01*
X194436500Y-56514500D01*
X194436500Y-125095500D01*
X194416498Y-125163621D01*
X194362842Y-125210114D01*
X194310500Y-125221500D01*
X95884500Y-125221500D01*
X95816379Y-125201498D01*
X95769886Y-125147842D01*
X95758500Y-125095500D01*
X95758500Y-122521695D01*
X98332251Y-122521695D01*
X98332548Y-122526848D01*
X98332548Y-122526851D01*
X98338011Y-122621590D01*
X98345110Y-122744715D01*
X98346247Y-122749761D01*
X98346248Y-122749767D01*
X98366119Y-122837939D01*
X98394222Y-122962639D01*
X98478266Y-123169616D01*
X98529019Y-123252438D01*
X98592291Y-123355688D01*
X98594987Y-123360088D01*
X98741250Y-123528938D01*
X98913126Y-123671632D01*
X99106000Y-123784338D01*
X99314692Y-123864030D01*
X99319760Y-123865061D01*
X99319763Y-123865062D01*
X99427017Y-123886883D01*
X99533597Y-123908567D01*
X99538772Y-123908757D01*
X99538774Y-123908757D01*
X99751673Y-123916564D01*
X99751677Y-123916564D01*
X99756837Y-123916753D01*
X99761957Y-123916097D01*
X99761959Y-123916097D01*
X99973288Y-123889025D01*
X99973289Y-123889025D01*
X99978416Y-123888368D01*
X99983366Y-123886883D01*
X100187429Y-123825661D01*
X100187434Y-123825659D01*
X100192384Y-123824174D01*
X100392994Y-123725896D01*
X100574860Y-123596173D01*
X100733096Y-123438489D01*
X100792594Y-123355689D01*
X100863453Y-123257077D01*
X100864776Y-123258028D01*
X100911645Y-123214857D01*
X100981580Y-123202625D01*
X101047026Y-123230144D01*
X101074875Y-123261994D01*
X101134987Y-123360088D01*
X101281250Y-123528938D01*
X101453126Y-123671632D01*
X101646000Y-123784338D01*
X101854692Y-123864030D01*
X101859760Y-123865061D01*
X101859763Y-123865062D01*
X101967017Y-123886883D01*
X102073597Y-123908567D01*
X102078772Y-123908757D01*
X102078774Y-123908757D01*
X102291673Y-123916564D01*
X102291677Y-123916564D01*
X102296837Y-123916753D01*
X102301957Y-123916097D01*
X102301959Y-123916097D01*
X102513288Y-123889025D01*
X102513289Y-123889025D01*
X102518416Y-123888368D01*
X102523366Y-123886883D01*
X102727429Y-123825661D01*
X102727434Y-123825659D01*
X102732384Y-123824174D01*
X102932994Y-123725896D01*
X103114860Y-123596173D01*
X103273096Y-123438489D01*
X103332594Y-123355689D01*
X103400435Y-123261277D01*
X103403453Y-123257077D01*
X103424320Y-123214857D01*
X103500136Y-123061453D01*
X103500137Y-123061451D01*
X103502430Y-123056811D01*
X103567370Y-122843069D01*
X103596529Y-122621590D01*
X103598156Y-122555000D01*
X103595418Y-122521695D01*
X186597251Y-122521695D01*
X186597548Y-122526848D01*
X186597548Y-122526851D01*
X186603011Y-122621590D01*
X186610110Y-122744715D01*
X186611247Y-122749761D01*
X186611248Y-122749767D01*
X186631119Y-122837939D01*
X186659222Y-122962639D01*
X186743266Y-123169616D01*
X186794019Y-123252438D01*
X186857291Y-123355688D01*
X186859987Y-123360088D01*
X187006250Y-123528938D01*
X187178126Y-123671632D01*
X187371000Y-123784338D01*
X187579692Y-123864030D01*
X187584760Y-123865061D01*
X187584763Y-123865062D01*
X187692017Y-123886883D01*
X187798597Y-123908567D01*
X187803772Y-123908757D01*
X187803774Y-123908757D01*
X188016673Y-123916564D01*
X188016677Y-123916564D01*
X188021837Y-123916753D01*
X188026957Y-123916097D01*
X188026959Y-123916097D01*
X188238288Y-123889025D01*
X188238289Y-123889025D01*
X188243416Y-123888368D01*
X188248366Y-123886883D01*
X188452429Y-123825661D01*
X188452434Y-123825659D01*
X188457384Y-123824174D01*
X188657994Y-123725896D01*
X188839860Y-123596173D01*
X188998096Y-123438489D01*
X189057594Y-123355689D01*
X189128453Y-123257077D01*
X189129776Y-123258028D01*
X189176645Y-123214857D01*
X189246580Y-123202625D01*
X189312026Y-123230144D01*
X189339875Y-123261994D01*
X189399987Y-123360088D01*
X189546250Y-123528938D01*
X189718126Y-123671632D01*
X189911000Y-123784338D01*
X190119692Y-123864030D01*
X190124760Y-123865061D01*
X190124763Y-123865062D01*
X190232017Y-123886883D01*
X190338597Y-123908567D01*
X190343772Y-123908757D01*
X190343774Y-123908757D01*
X190556673Y-123916564D01*
X190556677Y-123916564D01*
X190561837Y-123916753D01*
X190566957Y-123916097D01*
X190566959Y-123916097D01*
X190778288Y-123889025D01*
X190778289Y-123889025D01*
X190783416Y-123888368D01*
X190788366Y-123886883D01*
X190992429Y-123825661D01*
X190992434Y-123825659D01*
X190997384Y-123824174D01*
X191197994Y-123725896D01*
X191379860Y-123596173D01*
X191538096Y-123438489D01*
X191597594Y-123355689D01*
X191665435Y-123261277D01*
X191668453Y-123257077D01*
X191689320Y-123214857D01*
X191765136Y-123061453D01*
X191765137Y-123061451D01*
X191767430Y-123056811D01*
X191832370Y-122843069D01*
X191861529Y-122621590D01*
X191863156Y-122555000D01*
X191844852Y-122332361D01*
X191790431Y-122115702D01*
X191701354Y-121910840D01*
X191580014Y-121723277D01*
X191429670Y-121558051D01*
X191425619Y-121554852D01*
X191425615Y-121554848D01*
X191258414Y-121422800D01*
X191258410Y-121422798D01*
X191254359Y-121419598D01*
X191213053Y-121396796D01*
X191163084Y-121346364D01*
X191148312Y-121276921D01*
X191173428Y-121210516D01*
X191200780Y-121183909D01*
X191244603Y-121152650D01*
X191379860Y-121056173D01*
X191538096Y-120898489D01*
X191597594Y-120815689D01*
X191665435Y-120721277D01*
X191668453Y-120717077D01*
X191689320Y-120674857D01*
X191765136Y-120521453D01*
X191765137Y-120521451D01*
X191767430Y-120516811D01*
X191832370Y-120303069D01*
X191861529Y-120081590D01*
X191863156Y-120015000D01*
X191844852Y-119792361D01*
X191790431Y-119575702D01*
X191701354Y-119370840D01*
X191580014Y-119183277D01*
X191429670Y-119018051D01*
X191425619Y-119014852D01*
X191425615Y-119014848D01*
X191258414Y-118882800D01*
X191258410Y-118882798D01*
X191254359Y-118879598D01*
X191213053Y-118856796D01*
X191163084Y-118806364D01*
X191148312Y-118736921D01*
X191173428Y-118670516D01*
X191200780Y-118643909D01*
X191244603Y-118612650D01*
X191379860Y-118516173D01*
X191538096Y-118358489D01*
X191597594Y-118275689D01*
X191665435Y-118181277D01*
X191668453Y-118177077D01*
X191689320Y-118134857D01*
X191765136Y-117981453D01*
X191765137Y-117981451D01*
X191767430Y-117976811D01*
X191832370Y-117763069D01*
X191861529Y-117541590D01*
X191863156Y-117475000D01*
X191844852Y-117252361D01*
X191790431Y-117035702D01*
X191701354Y-116830840D01*
X191580014Y-116643277D01*
X191429670Y-116478051D01*
X191425619Y-116474852D01*
X191425615Y-116474848D01*
X191258414Y-116342800D01*
X191258410Y-116342798D01*
X191254359Y-116339598D01*
X191213053Y-116316796D01*
X191163084Y-116266364D01*
X191148312Y-116196921D01*
X191173428Y-116130516D01*
X191200780Y-116103909D01*
X191244603Y-116072650D01*
X191379860Y-115976173D01*
X191538096Y-115818489D01*
X191597594Y-115735689D01*
X191665435Y-115641277D01*
X191668453Y-115637077D01*
X191689320Y-115594857D01*
X191765136Y-115441453D01*
X191765137Y-115441451D01*
X191767430Y-115436811D01*
X191832370Y-115223069D01*
X191861529Y-115001590D01*
X191863156Y-114935000D01*
X191844852Y-114712361D01*
X191790431Y-114495702D01*
X191701354Y-114290840D01*
X191580014Y-114103277D01*
X191429670Y-113938051D01*
X191425619Y-113934852D01*
X191425615Y-113934848D01*
X191258414Y-113802800D01*
X191258410Y-113802798D01*
X191254359Y-113799598D01*
X191213053Y-113776796D01*
X191163084Y-113726364D01*
X191148312Y-113656921D01*
X191173428Y-113590516D01*
X191200780Y-113563909D01*
X191244603Y-113532650D01*
X191379860Y-113436173D01*
X191538096Y-113278489D01*
X191597594Y-113195689D01*
X191665435Y-113101277D01*
X191668453Y-113097077D01*
X191689320Y-113054857D01*
X191765136Y-112901453D01*
X191765137Y-112901451D01*
X191767430Y-112896811D01*
X191832370Y-112683069D01*
X191861529Y-112461590D01*
X191863156Y-112395000D01*
X191844852Y-112172361D01*
X191790431Y-111955702D01*
X191701354Y-111750840D01*
X191580014Y-111563277D01*
X191429670Y-111398051D01*
X191425619Y-111394852D01*
X191425615Y-111394848D01*
X191258414Y-111262800D01*
X191258410Y-111262798D01*
X191254359Y-111259598D01*
X191213053Y-111236796D01*
X191163084Y-111186364D01*
X191148312Y-111116921D01*
X191173428Y-111050516D01*
X191200780Y-111023909D01*
X191244603Y-110992650D01*
X191379860Y-110896173D01*
X191538096Y-110738489D01*
X191597594Y-110655689D01*
X191665435Y-110561277D01*
X191668453Y-110557077D01*
X191689320Y-110514857D01*
X191765136Y-110361453D01*
X191765137Y-110361451D01*
X191767430Y-110356811D01*
X191832370Y-110143069D01*
X191861529Y-109921590D01*
X191863156Y-109855000D01*
X191844852Y-109632361D01*
X191790431Y-109415702D01*
X191701354Y-109210840D01*
X191580014Y-109023277D01*
X191429670Y-108858051D01*
X191425619Y-108854852D01*
X191425615Y-108854848D01*
X191258414Y-108722800D01*
X191258410Y-108722798D01*
X191254359Y-108719598D01*
X191213053Y-108696796D01*
X191163084Y-108646364D01*
X191148312Y-108576921D01*
X191173428Y-108510516D01*
X191200780Y-108483909D01*
X191244603Y-108452650D01*
X191379860Y-108356173D01*
X191538096Y-108198489D01*
X191597594Y-108115689D01*
X191665435Y-108021277D01*
X191668453Y-108017077D01*
X191689320Y-107974857D01*
X191765136Y-107821453D01*
X191765137Y-107821451D01*
X191767430Y-107816811D01*
X191832370Y-107603069D01*
X191861529Y-107381590D01*
X191863156Y-107315000D01*
X191844852Y-107092361D01*
X191790431Y-106875702D01*
X191701354Y-106670840D01*
X191580014Y-106483277D01*
X191429670Y-106318051D01*
X191425619Y-106314852D01*
X191425615Y-106314848D01*
X191258414Y-106182800D01*
X191258410Y-106182798D01*
X191254359Y-106179598D01*
X191213053Y-106156796D01*
X191163084Y-106106364D01*
X191148312Y-106036921D01*
X191173428Y-105970516D01*
X191200780Y-105943909D01*
X191244603Y-105912650D01*
X191379860Y-105816173D01*
X191538096Y-105658489D01*
X191597594Y-105575689D01*
X191665435Y-105481277D01*
X191668453Y-105477077D01*
X191689320Y-105434857D01*
X191765136Y-105281453D01*
X191765137Y-105281451D01*
X191767430Y-105276811D01*
X191832370Y-105063069D01*
X191861529Y-104841590D01*
X191863156Y-104775000D01*
X191844852Y-104552361D01*
X191790431Y-104335702D01*
X191701354Y-104130840D01*
X191580014Y-103943277D01*
X191429670Y-103778051D01*
X191425619Y-103774852D01*
X191425615Y-103774848D01*
X191258414Y-103642800D01*
X191258410Y-103642798D01*
X191254359Y-103639598D01*
X191213053Y-103616796D01*
X191163084Y-103566364D01*
X191148312Y-103496921D01*
X191173428Y-103430516D01*
X191200780Y-103403909D01*
X191244603Y-103372650D01*
X191379860Y-103276173D01*
X191538096Y-103118489D01*
X191597594Y-103035689D01*
X191665435Y-102941277D01*
X191668453Y-102937077D01*
X191689320Y-102894857D01*
X191765136Y-102741453D01*
X191765137Y-102741451D01*
X191767430Y-102736811D01*
X191832370Y-102523069D01*
X191861529Y-102301590D01*
X191863156Y-102235000D01*
X191844852Y-102012361D01*
X191790431Y-101795702D01*
X191701354Y-101590840D01*
X191580014Y-101403277D01*
X191429670Y-101238051D01*
X191425619Y-101234852D01*
X191425615Y-101234848D01*
X191258414Y-101102800D01*
X191258410Y-101102798D01*
X191254359Y-101099598D01*
X191213053Y-101076796D01*
X191163084Y-101026364D01*
X191148312Y-100956921D01*
X191173428Y-100890516D01*
X191200780Y-100863909D01*
X191244603Y-100832650D01*
X191379860Y-100736173D01*
X191538096Y-100578489D01*
X191597594Y-100495689D01*
X191665435Y-100401277D01*
X191668453Y-100397077D01*
X191689320Y-100354857D01*
X191765136Y-100201453D01*
X191765137Y-100201451D01*
X191767430Y-100196811D01*
X191832370Y-99983069D01*
X191861529Y-99761590D01*
X191863156Y-99695000D01*
X191844852Y-99472361D01*
X191790431Y-99255702D01*
X191701354Y-99050840D01*
X191580014Y-98863277D01*
X191429670Y-98698051D01*
X191425619Y-98694852D01*
X191425615Y-98694848D01*
X191258414Y-98562800D01*
X191258410Y-98562798D01*
X191254359Y-98559598D01*
X191213053Y-98536796D01*
X191163084Y-98486364D01*
X191148312Y-98416921D01*
X191173428Y-98350516D01*
X191200780Y-98323909D01*
X191244603Y-98292650D01*
X191379860Y-98196173D01*
X191538096Y-98038489D01*
X191597594Y-97955689D01*
X191665435Y-97861277D01*
X191668453Y-97857077D01*
X191689320Y-97814857D01*
X191765136Y-97661453D01*
X191765137Y-97661451D01*
X191767430Y-97656811D01*
X191832370Y-97443069D01*
X191861529Y-97221590D01*
X191863156Y-97155000D01*
X191844852Y-96932361D01*
X191790431Y-96715702D01*
X191701354Y-96510840D01*
X191580014Y-96323277D01*
X191429670Y-96158051D01*
X191425619Y-96154852D01*
X191425615Y-96154848D01*
X191258414Y-96022800D01*
X191258410Y-96022798D01*
X191254359Y-96019598D01*
X191213053Y-95996796D01*
X191163084Y-95946364D01*
X191148312Y-95876921D01*
X191173428Y-95810516D01*
X191200780Y-95783909D01*
X191244603Y-95752650D01*
X191379860Y-95656173D01*
X191538096Y-95498489D01*
X191597594Y-95415689D01*
X191665435Y-95321277D01*
X191668453Y-95317077D01*
X191689320Y-95274857D01*
X191765136Y-95121453D01*
X191765137Y-95121451D01*
X191767430Y-95116811D01*
X191832370Y-94903069D01*
X191861529Y-94681590D01*
X191863156Y-94615000D01*
X191844852Y-94392361D01*
X191790431Y-94175702D01*
X191701354Y-93970840D01*
X191580014Y-93783277D01*
X191429670Y-93618051D01*
X191425619Y-93614852D01*
X191425615Y-93614848D01*
X191258414Y-93482800D01*
X191258410Y-93482798D01*
X191254359Y-93479598D01*
X191213053Y-93456796D01*
X191163084Y-93406364D01*
X191148312Y-93336921D01*
X191173428Y-93270516D01*
X191200780Y-93243909D01*
X191244603Y-93212650D01*
X191379860Y-93116173D01*
X191538096Y-92958489D01*
X191597594Y-92875689D01*
X191665435Y-92781277D01*
X191668453Y-92777077D01*
X191689320Y-92734857D01*
X191765136Y-92581453D01*
X191765137Y-92581451D01*
X191767430Y-92576811D01*
X191832370Y-92363069D01*
X191861529Y-92141590D01*
X191863156Y-92075000D01*
X191844852Y-91852361D01*
X191790431Y-91635702D01*
X191701354Y-91430840D01*
X191580014Y-91243277D01*
X191429670Y-91078051D01*
X191425619Y-91074852D01*
X191425615Y-91074848D01*
X191258414Y-90942800D01*
X191258410Y-90942798D01*
X191254359Y-90939598D01*
X191213053Y-90916796D01*
X191163084Y-90866364D01*
X191148312Y-90796921D01*
X191173428Y-90730516D01*
X191200780Y-90703909D01*
X191244603Y-90672650D01*
X191379860Y-90576173D01*
X191538096Y-90418489D01*
X191597594Y-90335689D01*
X191665435Y-90241277D01*
X191668453Y-90237077D01*
X191689320Y-90194857D01*
X191765136Y-90041453D01*
X191765137Y-90041451D01*
X191767430Y-90036811D01*
X191832370Y-89823069D01*
X191861529Y-89601590D01*
X191863156Y-89535000D01*
X191844852Y-89312361D01*
X191790431Y-89095702D01*
X191701354Y-88890840D01*
X191580014Y-88703277D01*
X191429670Y-88538051D01*
X191425619Y-88534852D01*
X191425615Y-88534848D01*
X191258414Y-88402800D01*
X191258410Y-88402798D01*
X191254359Y-88399598D01*
X191213053Y-88376796D01*
X191163084Y-88326364D01*
X191148312Y-88256921D01*
X191173428Y-88190516D01*
X191200780Y-88163909D01*
X191244603Y-88132650D01*
X191379860Y-88036173D01*
X191538096Y-87878489D01*
X191597594Y-87795689D01*
X191665435Y-87701277D01*
X191668453Y-87697077D01*
X191689320Y-87654857D01*
X191765136Y-87501453D01*
X191765137Y-87501451D01*
X191767430Y-87496811D01*
X191832370Y-87283069D01*
X191861529Y-87061590D01*
X191863156Y-86995000D01*
X191844852Y-86772361D01*
X191790431Y-86555702D01*
X191701354Y-86350840D01*
X191580014Y-86163277D01*
X191429670Y-85998051D01*
X191425619Y-85994852D01*
X191425615Y-85994848D01*
X191258414Y-85862800D01*
X191258410Y-85862798D01*
X191254359Y-85859598D01*
X191213053Y-85836796D01*
X191163084Y-85786364D01*
X191148312Y-85716921D01*
X191173428Y-85650516D01*
X191200780Y-85623909D01*
X191244603Y-85592650D01*
X191379860Y-85496173D01*
X191538096Y-85338489D01*
X191597594Y-85255689D01*
X191665435Y-85161277D01*
X191668453Y-85157077D01*
X191689320Y-85114857D01*
X191765136Y-84961453D01*
X191765137Y-84961451D01*
X191767430Y-84956811D01*
X191832370Y-84743069D01*
X191861529Y-84521590D01*
X191863156Y-84455000D01*
X191844852Y-84232361D01*
X191790431Y-84015702D01*
X191701354Y-83810840D01*
X191580014Y-83623277D01*
X191429670Y-83458051D01*
X191425619Y-83454852D01*
X191425615Y-83454848D01*
X191258414Y-83322800D01*
X191258410Y-83322798D01*
X191254359Y-83319598D01*
X191213053Y-83296796D01*
X191163084Y-83246364D01*
X191148312Y-83176921D01*
X191173428Y-83110516D01*
X191200780Y-83083909D01*
X191244603Y-83052650D01*
X191379860Y-82956173D01*
X191538096Y-82798489D01*
X191597594Y-82715689D01*
X191665435Y-82621277D01*
X191668453Y-82617077D01*
X191689320Y-82574857D01*
X191765136Y-82421453D01*
X191765137Y-82421451D01*
X191767430Y-82416811D01*
X191832370Y-82203069D01*
X191861529Y-81981590D01*
X191863156Y-81915000D01*
X191844852Y-81692361D01*
X191790431Y-81475702D01*
X191701354Y-81270840D01*
X191580014Y-81083277D01*
X191429670Y-80918051D01*
X191425619Y-80914852D01*
X191425615Y-80914848D01*
X191258414Y-80782800D01*
X191258410Y-80782798D01*
X191254359Y-80779598D01*
X191213053Y-80756796D01*
X191163084Y-80706364D01*
X191148312Y-80636921D01*
X191173428Y-80570516D01*
X191200780Y-80543909D01*
X191244603Y-80512650D01*
X191379860Y-80416173D01*
X191538096Y-80258489D01*
X191597594Y-80175689D01*
X191665435Y-80081277D01*
X191668453Y-80077077D01*
X191689320Y-80034857D01*
X191765136Y-79881453D01*
X191765137Y-79881451D01*
X191767430Y-79876811D01*
X191832370Y-79663069D01*
X191861529Y-79441590D01*
X191863156Y-79375000D01*
X191844852Y-79152361D01*
X191790431Y-78935702D01*
X191701354Y-78730840D01*
X191580014Y-78543277D01*
X191429670Y-78378051D01*
X191425619Y-78374852D01*
X191425615Y-78374848D01*
X191258414Y-78242800D01*
X191258410Y-78242798D01*
X191254359Y-78239598D01*
X191213053Y-78216796D01*
X191163084Y-78166364D01*
X191148312Y-78096921D01*
X191173428Y-78030516D01*
X191200780Y-78003909D01*
X191244603Y-77972650D01*
X191379860Y-77876173D01*
X191538096Y-77718489D01*
X191597594Y-77635689D01*
X191665435Y-77541277D01*
X191668453Y-77537077D01*
X191689320Y-77494857D01*
X191765136Y-77341453D01*
X191765137Y-77341451D01*
X191767430Y-77336811D01*
X191832370Y-77123069D01*
X191861529Y-76901590D01*
X191863156Y-76835000D01*
X191844852Y-76612361D01*
X191790431Y-76395702D01*
X191701354Y-76190840D01*
X191580014Y-76003277D01*
X191429670Y-75838051D01*
X191425619Y-75834852D01*
X191425615Y-75834848D01*
X191258414Y-75702800D01*
X191258410Y-75702798D01*
X191254359Y-75699598D01*
X191213053Y-75676796D01*
X191163084Y-75626364D01*
X191148312Y-75556921D01*
X191173428Y-75490516D01*
X191200780Y-75463909D01*
X191244603Y-75432650D01*
X191379860Y-75336173D01*
X191538096Y-75178489D01*
X191668453Y-74997077D01*
X191767430Y-74796811D01*
X191832370Y-74583069D01*
X191861529Y-74361590D01*
X191863156Y-74295000D01*
X191844852Y-74072361D01*
X191790431Y-73855702D01*
X191701354Y-73650840D01*
X191580014Y-73463277D01*
X191429670Y-73298051D01*
X191425619Y-73294852D01*
X191425615Y-73294848D01*
X191258414Y-73162800D01*
X191258410Y-73162798D01*
X191254359Y-73159598D01*
X191058789Y-73051638D01*
X191053920Y-73049914D01*
X191053916Y-73049912D01*
X190853087Y-72978795D01*
X190853083Y-72978794D01*
X190848212Y-72977069D01*
X190843119Y-72976162D01*
X190843116Y-72976161D01*
X190633373Y-72938800D01*
X190633367Y-72938799D01*
X190628284Y-72937894D01*
X190554452Y-72936992D01*
X190410081Y-72935228D01*
X190410079Y-72935228D01*
X190404911Y-72935165D01*
X190184091Y-72968955D01*
X189971756Y-73038357D01*
X189773607Y-73141507D01*
X189769474Y-73144610D01*
X189769471Y-73144612D01*
X189599100Y-73272530D01*
X189594965Y-73275635D01*
X189538537Y-73334684D01*
X189514283Y-73360064D01*
X189452759Y-73395494D01*
X189381846Y-73392037D01*
X189324060Y-73350791D01*
X189305207Y-73317243D01*
X189263767Y-73206703D01*
X189260615Y-73198295D01*
X189173261Y-73081739D01*
X189056705Y-72994385D01*
X188920316Y-72943255D01*
X188858134Y-72936500D01*
X187061866Y-72936500D01*
X186999684Y-72943255D01*
X186863295Y-72994385D01*
X186746739Y-73081739D01*
X186659385Y-73198295D01*
X186608255Y-73334684D01*
X186601500Y-73396866D01*
X186601500Y-75193134D01*
X186608255Y-75255316D01*
X186659385Y-75391705D01*
X186746739Y-75508261D01*
X186863295Y-75595615D01*
X186871704Y-75598767D01*
X186871705Y-75598768D01*
X186980451Y-75639535D01*
X187037216Y-75682176D01*
X187061916Y-75748738D01*
X187046709Y-75818087D01*
X187027316Y-75844568D01*
X186900629Y-75977138D01*
X186774743Y-76161680D01*
X186680688Y-76364305D01*
X186620989Y-76579570D01*
X186597251Y-76801695D01*
X186597548Y-76806848D01*
X186597548Y-76806851D01*
X186603011Y-76901590D01*
X186610110Y-77024715D01*
X186611247Y-77029761D01*
X186611248Y-77029767D01*
X186631119Y-77117939D01*
X186659222Y-77242639D01*
X186743266Y-77449616D01*
X186794019Y-77532438D01*
X186857291Y-77635688D01*
X186859987Y-77640088D01*
X187006250Y-77808938D01*
X187178126Y-77951632D01*
X187248595Y-77992811D01*
X187251445Y-77994476D01*
X187300169Y-78046114D01*
X187313240Y-78115897D01*
X187286509Y-78181669D01*
X187246055Y-78215027D01*
X187233607Y-78221507D01*
X187229474Y-78224610D01*
X187229471Y-78224612D01*
X187205247Y-78242800D01*
X187054965Y-78355635D01*
X186900629Y-78517138D01*
X186774743Y-78701680D01*
X186680688Y-78904305D01*
X186620989Y-79119570D01*
X186597251Y-79341695D01*
X186597548Y-79346848D01*
X186597548Y-79346851D01*
X186603011Y-79441590D01*
X186610110Y-79564715D01*
X186611247Y-79569761D01*
X186611248Y-79569767D01*
X186631119Y-79657939D01*
X186659222Y-79782639D01*
X186743266Y-79989616D01*
X186794019Y-80072438D01*
X186857291Y-80175688D01*
X186859987Y-80180088D01*
X187006250Y-80348938D01*
X187178126Y-80491632D01*
X187248595Y-80532811D01*
X187251445Y-80534476D01*
X187300169Y-80586114D01*
X187313240Y-80655897D01*
X187286509Y-80721669D01*
X187246055Y-80755027D01*
X187233607Y-80761507D01*
X187229474Y-80764610D01*
X187229471Y-80764612D01*
X187205247Y-80782800D01*
X187054965Y-80895635D01*
X186900629Y-81057138D01*
X186774743Y-81241680D01*
X186680688Y-81444305D01*
X186620989Y-81659570D01*
X186597251Y-81881695D01*
X186597548Y-81886848D01*
X186597548Y-81886851D01*
X186603011Y-81981590D01*
X186610110Y-82104715D01*
X186611247Y-82109761D01*
X186611248Y-82109767D01*
X186631119Y-82197939D01*
X186659222Y-82322639D01*
X186743266Y-82529616D01*
X186794019Y-82612438D01*
X186857291Y-82715688D01*
X186859987Y-82720088D01*
X187006250Y-82888938D01*
X187178126Y-83031632D01*
X187248595Y-83072811D01*
X187251445Y-83074476D01*
X187300169Y-83126114D01*
X187313240Y-83195897D01*
X187286509Y-83261669D01*
X187246055Y-83295027D01*
X187233607Y-83301507D01*
X187229474Y-83304610D01*
X187229471Y-83304612D01*
X187205247Y-83322800D01*
X187054965Y-83435635D01*
X186900629Y-83597138D01*
X186774743Y-83781680D01*
X186680688Y-83984305D01*
X186620989Y-84199570D01*
X186597251Y-84421695D01*
X186597548Y-84426848D01*
X186597548Y-84426851D01*
X186603011Y-84521590D01*
X186610110Y-84644715D01*
X186611247Y-84649761D01*
X186611248Y-84649767D01*
X186631119Y-84737939D01*
X186659222Y-84862639D01*
X186743266Y-85069616D01*
X186794019Y-85152438D01*
X186857291Y-85255688D01*
X186859987Y-85260088D01*
X187006250Y-85428938D01*
X187178126Y-85571632D01*
X187248595Y-85612811D01*
X187251445Y-85614476D01*
X187300169Y-85666114D01*
X187313240Y-85735897D01*
X187286509Y-85801669D01*
X187246055Y-85835027D01*
X187233607Y-85841507D01*
X187229474Y-85844610D01*
X187229471Y-85844612D01*
X187205247Y-85862800D01*
X187054965Y-85975635D01*
X186900629Y-86137138D01*
X186774743Y-86321680D01*
X186680688Y-86524305D01*
X186620989Y-86739570D01*
X186597251Y-86961695D01*
X186597548Y-86966848D01*
X186597548Y-86966851D01*
X186603011Y-87061590D01*
X186610110Y-87184715D01*
X186611247Y-87189761D01*
X186611248Y-87189767D01*
X186631119Y-87277939D01*
X186659222Y-87402639D01*
X186743266Y-87609616D01*
X186794019Y-87692438D01*
X186857291Y-87795688D01*
X186859987Y-87800088D01*
X187006250Y-87968938D01*
X187178126Y-88111632D01*
X187248595Y-88152811D01*
X187251445Y-88154476D01*
X187300169Y-88206114D01*
X187313240Y-88275897D01*
X187286509Y-88341669D01*
X187246055Y-88375027D01*
X187233607Y-88381507D01*
X187229474Y-88384610D01*
X187229471Y-88384612D01*
X187205247Y-88402800D01*
X187054965Y-88515635D01*
X186900629Y-88677138D01*
X186774743Y-88861680D01*
X186680688Y-89064305D01*
X186620989Y-89279570D01*
X186597251Y-89501695D01*
X186597548Y-89506848D01*
X186597548Y-89506851D01*
X186603011Y-89601590D01*
X186610110Y-89724715D01*
X186611247Y-89729761D01*
X186611248Y-89729767D01*
X186631119Y-89817939D01*
X186659222Y-89942639D01*
X186743266Y-90149616D01*
X186794019Y-90232438D01*
X186857291Y-90335688D01*
X186859987Y-90340088D01*
X187006250Y-90508938D01*
X187178126Y-90651632D01*
X187248595Y-90692811D01*
X187251445Y-90694476D01*
X187300169Y-90746114D01*
X187313240Y-90815897D01*
X187286509Y-90881669D01*
X187246055Y-90915027D01*
X187233607Y-90921507D01*
X187229474Y-90924610D01*
X187229471Y-90924612D01*
X187205247Y-90942800D01*
X187054965Y-91055635D01*
X186900629Y-91217138D01*
X186774743Y-91401680D01*
X186680688Y-91604305D01*
X186620989Y-91819570D01*
X186597251Y-92041695D01*
X186597548Y-92046848D01*
X186597548Y-92046851D01*
X186603011Y-92141590D01*
X186610110Y-92264715D01*
X186611247Y-92269761D01*
X186611248Y-92269767D01*
X186631119Y-92357939D01*
X186659222Y-92482639D01*
X186743266Y-92689616D01*
X186794019Y-92772438D01*
X186857291Y-92875688D01*
X186859987Y-92880088D01*
X187006250Y-93048938D01*
X187178126Y-93191632D01*
X187248595Y-93232811D01*
X187251445Y-93234476D01*
X187300169Y-93286114D01*
X187313240Y-93355897D01*
X187286509Y-93421669D01*
X187246055Y-93455027D01*
X187233607Y-93461507D01*
X187229474Y-93464610D01*
X187229471Y-93464612D01*
X187205247Y-93482800D01*
X187054965Y-93595635D01*
X186900629Y-93757138D01*
X186774743Y-93941680D01*
X186680688Y-94144305D01*
X186620989Y-94359570D01*
X186597251Y-94581695D01*
X186597548Y-94586848D01*
X186597548Y-94586851D01*
X186603011Y-94681590D01*
X186610110Y-94804715D01*
X186611247Y-94809761D01*
X186611248Y-94809767D01*
X186631119Y-94897939D01*
X186659222Y-95022639D01*
X186743266Y-95229616D01*
X186794019Y-95312438D01*
X186857291Y-95415688D01*
X186859987Y-95420088D01*
X187006250Y-95588938D01*
X187178126Y-95731632D01*
X187248595Y-95772811D01*
X187251445Y-95774476D01*
X187300169Y-95826114D01*
X187313240Y-95895897D01*
X187286509Y-95961669D01*
X187246055Y-95995027D01*
X187233607Y-96001507D01*
X187229474Y-96004610D01*
X187229471Y-96004612D01*
X187205247Y-96022800D01*
X187054965Y-96135635D01*
X186900629Y-96297138D01*
X186774743Y-96481680D01*
X186680688Y-96684305D01*
X186620989Y-96899570D01*
X186597251Y-97121695D01*
X186597548Y-97126848D01*
X186597548Y-97126851D01*
X186603011Y-97221590D01*
X186610110Y-97344715D01*
X186611247Y-97349761D01*
X186611248Y-97349767D01*
X186631119Y-97437939D01*
X186659222Y-97562639D01*
X186743266Y-97769616D01*
X186794019Y-97852438D01*
X186857291Y-97955688D01*
X186859987Y-97960088D01*
X187006250Y-98128938D01*
X187178126Y-98271632D01*
X187248595Y-98312811D01*
X187251445Y-98314476D01*
X187300169Y-98366114D01*
X187313240Y-98435897D01*
X187286509Y-98501669D01*
X187246055Y-98535027D01*
X187233607Y-98541507D01*
X187229474Y-98544610D01*
X187229471Y-98544612D01*
X187205247Y-98562800D01*
X187054965Y-98675635D01*
X186900629Y-98837138D01*
X186774743Y-99021680D01*
X186680688Y-99224305D01*
X186620989Y-99439570D01*
X186597251Y-99661695D01*
X186597548Y-99666848D01*
X186597548Y-99666851D01*
X186603011Y-99761590D01*
X186610110Y-99884715D01*
X186611247Y-99889761D01*
X186611248Y-99889767D01*
X186631119Y-99977939D01*
X186659222Y-100102639D01*
X186743266Y-100309616D01*
X186794019Y-100392438D01*
X186857291Y-100495688D01*
X186859987Y-100500088D01*
X187006250Y-100668938D01*
X187178126Y-100811632D01*
X187248595Y-100852811D01*
X187251445Y-100854476D01*
X187300169Y-100906114D01*
X187313240Y-100975897D01*
X187286509Y-101041669D01*
X187246055Y-101075027D01*
X187233607Y-101081507D01*
X187229474Y-101084610D01*
X187229471Y-101084612D01*
X187205247Y-101102800D01*
X187054965Y-101215635D01*
X186900629Y-101377138D01*
X186774743Y-101561680D01*
X186680688Y-101764305D01*
X186620989Y-101979570D01*
X186597251Y-102201695D01*
X186597548Y-102206848D01*
X186597548Y-102206851D01*
X186603011Y-102301590D01*
X186610110Y-102424715D01*
X186611247Y-102429761D01*
X186611248Y-102429767D01*
X186631119Y-102517939D01*
X186659222Y-102642639D01*
X186743266Y-102849616D01*
X186794019Y-102932438D01*
X186857291Y-103035688D01*
X186859987Y-103040088D01*
X187006250Y-103208938D01*
X187178126Y-103351632D01*
X187248595Y-103392811D01*
X187251445Y-103394476D01*
X187300169Y-103446114D01*
X187313240Y-103515897D01*
X187286509Y-103581669D01*
X187246055Y-103615027D01*
X187233607Y-103621507D01*
X187229474Y-103624610D01*
X187229471Y-103624612D01*
X187205247Y-103642800D01*
X187054965Y-103755635D01*
X186900629Y-103917138D01*
X186774743Y-104101680D01*
X186680688Y-104304305D01*
X186620989Y-104519570D01*
X186597251Y-104741695D01*
X186597548Y-104746848D01*
X186597548Y-104746851D01*
X186603011Y-104841590D01*
X186610110Y-104964715D01*
X186611247Y-104969761D01*
X186611248Y-104969767D01*
X186631119Y-105057939D01*
X186659222Y-105182639D01*
X186743266Y-105389616D01*
X186794019Y-105472438D01*
X186857291Y-105575688D01*
X186859987Y-105580088D01*
X187006250Y-105748938D01*
X187178126Y-105891632D01*
X187248595Y-105932811D01*
X187251445Y-105934476D01*
X187300169Y-105986114D01*
X187313240Y-106055897D01*
X187286509Y-106121669D01*
X187246055Y-106155027D01*
X187233607Y-106161507D01*
X187229474Y-106164610D01*
X187229471Y-106164612D01*
X187205247Y-106182800D01*
X187054965Y-106295635D01*
X186900629Y-106457138D01*
X186774743Y-106641680D01*
X186680688Y-106844305D01*
X186620989Y-107059570D01*
X186597251Y-107281695D01*
X186597548Y-107286848D01*
X186597548Y-107286851D01*
X186603011Y-107381590D01*
X186610110Y-107504715D01*
X186611247Y-107509761D01*
X186611248Y-107509767D01*
X186631119Y-107597939D01*
X186659222Y-107722639D01*
X186743266Y-107929616D01*
X186794019Y-108012438D01*
X186857291Y-108115688D01*
X186859987Y-108120088D01*
X187006250Y-108288938D01*
X187178126Y-108431632D01*
X187248595Y-108472811D01*
X187251445Y-108474476D01*
X187300169Y-108526114D01*
X187313240Y-108595897D01*
X187286509Y-108661669D01*
X187246055Y-108695027D01*
X187233607Y-108701507D01*
X187229474Y-108704610D01*
X187229471Y-108704612D01*
X187205247Y-108722800D01*
X187054965Y-108835635D01*
X186900629Y-108997138D01*
X186774743Y-109181680D01*
X186680688Y-109384305D01*
X186620989Y-109599570D01*
X186597251Y-109821695D01*
X186597548Y-109826848D01*
X186597548Y-109826851D01*
X186603011Y-109921590D01*
X186610110Y-110044715D01*
X186611247Y-110049761D01*
X186611248Y-110049767D01*
X186631119Y-110137939D01*
X186659222Y-110262639D01*
X186743266Y-110469616D01*
X186794019Y-110552438D01*
X186857291Y-110655688D01*
X186859987Y-110660088D01*
X187006250Y-110828938D01*
X187178126Y-110971632D01*
X187248595Y-111012811D01*
X187251445Y-111014476D01*
X187300169Y-111066114D01*
X187313240Y-111135897D01*
X187286509Y-111201669D01*
X187246055Y-111235027D01*
X187233607Y-111241507D01*
X187229474Y-111244610D01*
X187229471Y-111244612D01*
X187205247Y-111262800D01*
X187054965Y-111375635D01*
X186900629Y-111537138D01*
X186774743Y-111721680D01*
X186680688Y-111924305D01*
X186620989Y-112139570D01*
X186597251Y-112361695D01*
X186597548Y-112366848D01*
X186597548Y-112366851D01*
X186603011Y-112461590D01*
X186610110Y-112584715D01*
X186611247Y-112589761D01*
X186611248Y-112589767D01*
X186631119Y-112677939D01*
X186659222Y-112802639D01*
X186743266Y-113009616D01*
X186794019Y-113092438D01*
X186857291Y-113195688D01*
X186859987Y-113200088D01*
X187006250Y-113368938D01*
X187178126Y-113511632D01*
X187248595Y-113552811D01*
X187251445Y-113554476D01*
X187300169Y-113606114D01*
X187313240Y-113675897D01*
X187286509Y-113741669D01*
X187246055Y-113775027D01*
X187233607Y-113781507D01*
X187229474Y-113784610D01*
X187229471Y-113784612D01*
X187205247Y-113802800D01*
X187054965Y-113915635D01*
X186900629Y-114077138D01*
X186774743Y-114261680D01*
X186680688Y-114464305D01*
X186620989Y-114679570D01*
X186597251Y-114901695D01*
X186597548Y-114906848D01*
X186597548Y-114906851D01*
X186603011Y-115001590D01*
X186610110Y-115124715D01*
X186611247Y-115129761D01*
X186611248Y-115129767D01*
X186631119Y-115217939D01*
X186659222Y-115342639D01*
X186743266Y-115549616D01*
X186794019Y-115632438D01*
X186857291Y-115735688D01*
X186859987Y-115740088D01*
X187006250Y-115908938D01*
X187178126Y-116051632D01*
X187248595Y-116092811D01*
X187251445Y-116094476D01*
X187300169Y-116146114D01*
X187313240Y-116215897D01*
X187286509Y-116281669D01*
X187246055Y-116315027D01*
X187233607Y-116321507D01*
X187229474Y-116324610D01*
X187229471Y-116324612D01*
X187205247Y-116342800D01*
X187054965Y-116455635D01*
X186900629Y-116617138D01*
X186774743Y-116801680D01*
X186680688Y-117004305D01*
X186620989Y-117219570D01*
X186597251Y-117441695D01*
X186597548Y-117446848D01*
X186597548Y-117446851D01*
X186603011Y-117541590D01*
X186610110Y-117664715D01*
X186611247Y-117669761D01*
X186611248Y-117669767D01*
X186631119Y-117757939D01*
X186659222Y-117882639D01*
X186743266Y-118089616D01*
X186794019Y-118172438D01*
X186857291Y-118275688D01*
X186859987Y-118280088D01*
X187006250Y-118448938D01*
X187178126Y-118591632D01*
X187248595Y-118632811D01*
X187251445Y-118634476D01*
X187300169Y-118686114D01*
X187313240Y-118755897D01*
X187286509Y-118821669D01*
X187246055Y-118855027D01*
X187233607Y-118861507D01*
X187229474Y-118864610D01*
X187229471Y-118864612D01*
X187205247Y-118882800D01*
X187054965Y-118995635D01*
X186900629Y-119157138D01*
X186774743Y-119341680D01*
X186680688Y-119544305D01*
X186620989Y-119759570D01*
X186597251Y-119981695D01*
X186597548Y-119986848D01*
X186597548Y-119986851D01*
X186603011Y-120081590D01*
X186610110Y-120204715D01*
X186611247Y-120209761D01*
X186611248Y-120209767D01*
X186631119Y-120297939D01*
X186659222Y-120422639D01*
X186743266Y-120629616D01*
X186794019Y-120712438D01*
X186857291Y-120815688D01*
X186859987Y-120820088D01*
X187006250Y-120988938D01*
X187178126Y-121131632D01*
X187248595Y-121172811D01*
X187251445Y-121174476D01*
X187300169Y-121226114D01*
X187313240Y-121295897D01*
X187286509Y-121361669D01*
X187246055Y-121395027D01*
X187233607Y-121401507D01*
X187229474Y-121404610D01*
X187229471Y-121404612D01*
X187205247Y-121422800D01*
X187054965Y-121535635D01*
X186900629Y-121697138D01*
X186774743Y-121881680D01*
X186680688Y-122084305D01*
X186620989Y-122299570D01*
X186597251Y-122521695D01*
X103595418Y-122521695D01*
X103579852Y-122332361D01*
X103525431Y-122115702D01*
X103436354Y-121910840D01*
X103315014Y-121723277D01*
X103164670Y-121558051D01*
X103160619Y-121554852D01*
X103160615Y-121554848D01*
X102993414Y-121422800D01*
X102993410Y-121422798D01*
X102989359Y-121419598D01*
X102948053Y-121396796D01*
X102898084Y-121346364D01*
X102883312Y-121276921D01*
X102908428Y-121210516D01*
X102935780Y-121183909D01*
X102979603Y-121152650D01*
X103114860Y-121056173D01*
X103273096Y-120898489D01*
X103332594Y-120815689D01*
X103400435Y-120721277D01*
X103403453Y-120717077D01*
X103424320Y-120674857D01*
X103500136Y-120521453D01*
X103500137Y-120521451D01*
X103502430Y-120516811D01*
X103567370Y-120303069D01*
X103596529Y-120081590D01*
X103598156Y-120015000D01*
X103579852Y-119792361D01*
X103525431Y-119575702D01*
X103436354Y-119370840D01*
X103315014Y-119183277D01*
X103164670Y-119018051D01*
X103160619Y-119014852D01*
X103160615Y-119014848D01*
X102993414Y-118882800D01*
X102993410Y-118882798D01*
X102989359Y-118879598D01*
X102948053Y-118856796D01*
X102898084Y-118806364D01*
X102883312Y-118736921D01*
X102908428Y-118670516D01*
X102935780Y-118643909D01*
X102979603Y-118612650D01*
X103114860Y-118516173D01*
X103273096Y-118358489D01*
X103332594Y-118275689D01*
X103400435Y-118181277D01*
X103403453Y-118177077D01*
X103424320Y-118134857D01*
X103500136Y-117981453D01*
X103500137Y-117981451D01*
X103502430Y-117976811D01*
X103567370Y-117763069D01*
X103596529Y-117541590D01*
X103598156Y-117475000D01*
X103579852Y-117252361D01*
X103525431Y-117035702D01*
X103436354Y-116830840D01*
X103315014Y-116643277D01*
X103164670Y-116478051D01*
X103160619Y-116474852D01*
X103160615Y-116474848D01*
X102993414Y-116342800D01*
X102993410Y-116342798D01*
X102989359Y-116339598D01*
X102948053Y-116316796D01*
X102898084Y-116266364D01*
X102883312Y-116196921D01*
X102908428Y-116130516D01*
X102935780Y-116103909D01*
X102979603Y-116072650D01*
X103114860Y-115976173D01*
X103273096Y-115818489D01*
X103332594Y-115735689D01*
X103400435Y-115641277D01*
X103403453Y-115637077D01*
X103424320Y-115594857D01*
X103500136Y-115441453D01*
X103500137Y-115441451D01*
X103502430Y-115436811D01*
X103567370Y-115223069D01*
X103596529Y-115001590D01*
X103598156Y-114935000D01*
X103579852Y-114712361D01*
X103525431Y-114495702D01*
X103436354Y-114290840D01*
X103315014Y-114103277D01*
X103164670Y-113938051D01*
X103160619Y-113934852D01*
X103160615Y-113934848D01*
X102993414Y-113802800D01*
X102993410Y-113802798D01*
X102989359Y-113799598D01*
X102948053Y-113776796D01*
X102898084Y-113726364D01*
X102883312Y-113656921D01*
X102908428Y-113590516D01*
X102935780Y-113563909D01*
X102979603Y-113532650D01*
X103114860Y-113436173D01*
X103273096Y-113278489D01*
X103332594Y-113195689D01*
X103400435Y-113101277D01*
X103403453Y-113097077D01*
X103424320Y-113054857D01*
X103500136Y-112901453D01*
X103500137Y-112901451D01*
X103502430Y-112896811D01*
X103567370Y-112683069D01*
X103596529Y-112461590D01*
X103598156Y-112395000D01*
X103579852Y-112172361D01*
X103525431Y-111955702D01*
X103436354Y-111750840D01*
X103315014Y-111563277D01*
X103164670Y-111398051D01*
X103160619Y-111394852D01*
X103160615Y-111394848D01*
X102993414Y-111262800D01*
X102993410Y-111262798D01*
X102989359Y-111259598D01*
X102948053Y-111236796D01*
X102898084Y-111186364D01*
X102883312Y-111116921D01*
X102908428Y-111050516D01*
X102935780Y-111023909D01*
X102979603Y-110992650D01*
X103114860Y-110896173D01*
X103273096Y-110738489D01*
X103332594Y-110655689D01*
X103400435Y-110561277D01*
X103403453Y-110557077D01*
X103424320Y-110514857D01*
X103500136Y-110361453D01*
X103500137Y-110361451D01*
X103502430Y-110356811D01*
X103567370Y-110143069D01*
X103596529Y-109921590D01*
X103598156Y-109855000D01*
X103579852Y-109632361D01*
X103525431Y-109415702D01*
X103436354Y-109210840D01*
X103315014Y-109023277D01*
X103164670Y-108858051D01*
X103160619Y-108854852D01*
X103160615Y-108854848D01*
X102993414Y-108722800D01*
X102993410Y-108722798D01*
X102989359Y-108719598D01*
X102948053Y-108696796D01*
X102898084Y-108646364D01*
X102883312Y-108576921D01*
X102908428Y-108510516D01*
X102935780Y-108483909D01*
X102979603Y-108452650D01*
X103114860Y-108356173D01*
X103273096Y-108198489D01*
X103332594Y-108115689D01*
X103400435Y-108021277D01*
X103403453Y-108017077D01*
X103424320Y-107974857D01*
X103500136Y-107821453D01*
X103500137Y-107821451D01*
X103502430Y-107816811D01*
X103567370Y-107603069D01*
X103596529Y-107381590D01*
X103598156Y-107315000D01*
X103579852Y-107092361D01*
X103525431Y-106875702D01*
X103436354Y-106670840D01*
X103315014Y-106483277D01*
X103164670Y-106318051D01*
X103160619Y-106314852D01*
X103160615Y-106314848D01*
X102993414Y-106182800D01*
X102993410Y-106182798D01*
X102989359Y-106179598D01*
X102948053Y-106156796D01*
X102898084Y-106106364D01*
X102883312Y-106036921D01*
X102908428Y-105970516D01*
X102935780Y-105943909D01*
X102979603Y-105912650D01*
X103114860Y-105816173D01*
X103273096Y-105658489D01*
X103332594Y-105575689D01*
X103400435Y-105481277D01*
X103403453Y-105477077D01*
X103424320Y-105434857D01*
X103500136Y-105281453D01*
X103500137Y-105281451D01*
X103502430Y-105276811D01*
X103567370Y-105063069D01*
X103596529Y-104841590D01*
X103598156Y-104775000D01*
X103579852Y-104552361D01*
X103525431Y-104335702D01*
X103436354Y-104130840D01*
X103315014Y-103943277D01*
X103164670Y-103778051D01*
X103160619Y-103774852D01*
X103160615Y-103774848D01*
X102993414Y-103642800D01*
X102993410Y-103642798D01*
X102989359Y-103639598D01*
X102948053Y-103616796D01*
X102898084Y-103566364D01*
X102883312Y-103496921D01*
X102908428Y-103430516D01*
X102935780Y-103403909D01*
X102979603Y-103372650D01*
X103114860Y-103276173D01*
X103273096Y-103118489D01*
X103332594Y-103035689D01*
X103400435Y-102941277D01*
X103403453Y-102937077D01*
X103424320Y-102894857D01*
X103500136Y-102741453D01*
X103500137Y-102741451D01*
X103502430Y-102736811D01*
X103567370Y-102523069D01*
X103596529Y-102301590D01*
X103598156Y-102235000D01*
X103579852Y-102012361D01*
X103525431Y-101795702D01*
X103436354Y-101590840D01*
X103315014Y-101403277D01*
X103164670Y-101238051D01*
X103160619Y-101234852D01*
X103160615Y-101234848D01*
X102993414Y-101102800D01*
X102993410Y-101102798D01*
X102989359Y-101099598D01*
X102948053Y-101076796D01*
X102898084Y-101026364D01*
X102883312Y-100956921D01*
X102908428Y-100890516D01*
X102935780Y-100863909D01*
X102979603Y-100832650D01*
X103114860Y-100736173D01*
X103273096Y-100578489D01*
X103332594Y-100495689D01*
X103400435Y-100401277D01*
X103403453Y-100397077D01*
X103424320Y-100354857D01*
X103500136Y-100201453D01*
X103500137Y-100201451D01*
X103502430Y-100196811D01*
X103567370Y-99983069D01*
X103596529Y-99761590D01*
X103598156Y-99695000D01*
X103579852Y-99472361D01*
X103525431Y-99255702D01*
X103436354Y-99050840D01*
X103315014Y-98863277D01*
X103164670Y-98698051D01*
X103160619Y-98694852D01*
X103160615Y-98694848D01*
X102993414Y-98562800D01*
X102993410Y-98562798D01*
X102989359Y-98559598D01*
X102948053Y-98536796D01*
X102898084Y-98486364D01*
X102883312Y-98416921D01*
X102908428Y-98350516D01*
X102935780Y-98323909D01*
X102979603Y-98292650D01*
X103114860Y-98196173D01*
X103273096Y-98038489D01*
X103332594Y-97955689D01*
X103400435Y-97861277D01*
X103403453Y-97857077D01*
X103424320Y-97814857D01*
X103500136Y-97661453D01*
X103500137Y-97661451D01*
X103502430Y-97656811D01*
X103567370Y-97443069D01*
X103596529Y-97221590D01*
X103598156Y-97155000D01*
X103579852Y-96932361D01*
X103525431Y-96715702D01*
X103436354Y-96510840D01*
X103315014Y-96323277D01*
X103164670Y-96158051D01*
X103160619Y-96154852D01*
X103160615Y-96154848D01*
X102993414Y-96022800D01*
X102993410Y-96022798D01*
X102989359Y-96019598D01*
X102948053Y-95996796D01*
X102898084Y-95946364D01*
X102883312Y-95876921D01*
X102908428Y-95810516D01*
X102935780Y-95783909D01*
X102979603Y-95752650D01*
X103114860Y-95656173D01*
X103273096Y-95498489D01*
X103332594Y-95415689D01*
X103400435Y-95321277D01*
X103403453Y-95317077D01*
X103424320Y-95274857D01*
X103500136Y-95121453D01*
X103500137Y-95121451D01*
X103502430Y-95116811D01*
X103567370Y-94903069D01*
X103596529Y-94681590D01*
X103598156Y-94615000D01*
X103579852Y-94392361D01*
X103525431Y-94175702D01*
X103436354Y-93970840D01*
X103315014Y-93783277D01*
X103164670Y-93618051D01*
X103160619Y-93614852D01*
X103160615Y-93614848D01*
X102993414Y-93482800D01*
X102993410Y-93482798D01*
X102989359Y-93479598D01*
X102948053Y-93456796D01*
X102898084Y-93406364D01*
X102883312Y-93336921D01*
X102908428Y-93270516D01*
X102935780Y-93243909D01*
X102979603Y-93212650D01*
X103114860Y-93116173D01*
X103273096Y-92958489D01*
X103332594Y-92875689D01*
X103400435Y-92781277D01*
X103403453Y-92777077D01*
X103424320Y-92734857D01*
X103500136Y-92581453D01*
X103500137Y-92581451D01*
X103502430Y-92576811D01*
X103567370Y-92363069D01*
X103596529Y-92141590D01*
X103598156Y-92075000D01*
X103579852Y-91852361D01*
X103525431Y-91635702D01*
X103436354Y-91430840D01*
X103315014Y-91243277D01*
X103164670Y-91078051D01*
X103160619Y-91074852D01*
X103160615Y-91074848D01*
X102993414Y-90942800D01*
X102993410Y-90942798D01*
X102989359Y-90939598D01*
X102948053Y-90916796D01*
X102898084Y-90866364D01*
X102883312Y-90796921D01*
X102908428Y-90730516D01*
X102935780Y-90703909D01*
X102979603Y-90672650D01*
X103114860Y-90576173D01*
X103273096Y-90418489D01*
X103332594Y-90335689D01*
X103400435Y-90241277D01*
X103403453Y-90237077D01*
X103424320Y-90194857D01*
X103500136Y-90041453D01*
X103500137Y-90041451D01*
X103502430Y-90036811D01*
X103567370Y-89823069D01*
X103596529Y-89601590D01*
X103598156Y-89535000D01*
X103579852Y-89312361D01*
X103525431Y-89095702D01*
X103436354Y-88890840D01*
X103315014Y-88703277D01*
X103164670Y-88538051D01*
X103160619Y-88534852D01*
X103160615Y-88534848D01*
X102993414Y-88402800D01*
X102993410Y-88402798D01*
X102989359Y-88399598D01*
X102948053Y-88376796D01*
X102898084Y-88326364D01*
X102883312Y-88256921D01*
X102908428Y-88190516D01*
X102935780Y-88163909D01*
X102979603Y-88132650D01*
X103114860Y-88036173D01*
X103273096Y-87878489D01*
X103332594Y-87795689D01*
X103400435Y-87701277D01*
X103403453Y-87697077D01*
X103424320Y-87654857D01*
X103500136Y-87501453D01*
X103500137Y-87501451D01*
X103502430Y-87496811D01*
X103567370Y-87283069D01*
X103596529Y-87061590D01*
X103598156Y-86995000D01*
X103579852Y-86772361D01*
X103525431Y-86555702D01*
X103436354Y-86350840D01*
X103315014Y-86163277D01*
X103164670Y-85998051D01*
X103160619Y-85994852D01*
X103160615Y-85994848D01*
X102993414Y-85862800D01*
X102993410Y-85862798D01*
X102989359Y-85859598D01*
X102948053Y-85836796D01*
X102898084Y-85786364D01*
X102883312Y-85716921D01*
X102908428Y-85650516D01*
X102935780Y-85623909D01*
X102979603Y-85592650D01*
X103114860Y-85496173D01*
X103273096Y-85338489D01*
X103332594Y-85255689D01*
X103400435Y-85161277D01*
X103403453Y-85157077D01*
X103424320Y-85114857D01*
X103500136Y-84961453D01*
X103500137Y-84961451D01*
X103502430Y-84956811D01*
X103567370Y-84743069D01*
X103596529Y-84521590D01*
X103598156Y-84455000D01*
X103579852Y-84232361D01*
X103525431Y-84015702D01*
X103436354Y-83810840D01*
X103315014Y-83623277D01*
X103164670Y-83458051D01*
X103160619Y-83454852D01*
X103160615Y-83454848D01*
X102993414Y-83322800D01*
X102993410Y-83322798D01*
X102989359Y-83319598D01*
X102948053Y-83296796D01*
X102898084Y-83246364D01*
X102883312Y-83176921D01*
X102908428Y-83110516D01*
X102935780Y-83083909D01*
X102979603Y-83052650D01*
X103114860Y-82956173D01*
X103273096Y-82798489D01*
X103332594Y-82715689D01*
X103400435Y-82621277D01*
X103403453Y-82617077D01*
X103424320Y-82574857D01*
X103500136Y-82421453D01*
X103500137Y-82421451D01*
X103502430Y-82416811D01*
X103567370Y-82203069D01*
X103596529Y-81981590D01*
X103598156Y-81915000D01*
X103579852Y-81692361D01*
X103525431Y-81475702D01*
X103436354Y-81270840D01*
X103315014Y-81083277D01*
X103164670Y-80918051D01*
X103160619Y-80914852D01*
X103160615Y-80914848D01*
X102993414Y-80782800D01*
X102993410Y-80782798D01*
X102989359Y-80779598D01*
X102948053Y-80756796D01*
X102898084Y-80706364D01*
X102883312Y-80636921D01*
X102908428Y-80570516D01*
X102935780Y-80543909D01*
X102979603Y-80512650D01*
X103114860Y-80416173D01*
X103273096Y-80258489D01*
X103332594Y-80175689D01*
X103400435Y-80081277D01*
X103403453Y-80077077D01*
X103424320Y-80034857D01*
X103500136Y-79881453D01*
X103500137Y-79881451D01*
X103502430Y-79876811D01*
X103567370Y-79663069D01*
X103596529Y-79441590D01*
X103598156Y-79375000D01*
X103579852Y-79152361D01*
X103525431Y-78935702D01*
X103436354Y-78730840D01*
X103315014Y-78543277D01*
X103164670Y-78378051D01*
X103160619Y-78374852D01*
X103160615Y-78374848D01*
X102993414Y-78242800D01*
X102993410Y-78242798D01*
X102989359Y-78239598D01*
X102948053Y-78216796D01*
X102898084Y-78166364D01*
X102883312Y-78096921D01*
X102908428Y-78030516D01*
X102935780Y-78003909D01*
X102979603Y-77972650D01*
X103114860Y-77876173D01*
X103273096Y-77718489D01*
X103332594Y-77635689D01*
X103400435Y-77541277D01*
X103403453Y-77537077D01*
X103424320Y-77494857D01*
X103500136Y-77341453D01*
X103500137Y-77341451D01*
X103502430Y-77336811D01*
X103567370Y-77123069D01*
X103596529Y-76901590D01*
X103598156Y-76835000D01*
X103579852Y-76612361D01*
X103525431Y-76395702D01*
X103436354Y-76190840D01*
X103315014Y-76003277D01*
X103164670Y-75838051D01*
X103160619Y-75834852D01*
X103160615Y-75834848D01*
X102993414Y-75702800D01*
X102993410Y-75702798D01*
X102989359Y-75699598D01*
X102948053Y-75676796D01*
X102898084Y-75626364D01*
X102883312Y-75556921D01*
X102908428Y-75490516D01*
X102935780Y-75463909D01*
X102979603Y-75432650D01*
X103114860Y-75336173D01*
X103273096Y-75178489D01*
X103403453Y-74997077D01*
X103502430Y-74796811D01*
X103567370Y-74583069D01*
X103596529Y-74361590D01*
X103598156Y-74295000D01*
X103579852Y-74072361D01*
X103525431Y-73855702D01*
X103436354Y-73650840D01*
X103315014Y-73463277D01*
X103164670Y-73298051D01*
X103160619Y-73294852D01*
X103160615Y-73294848D01*
X102993414Y-73162800D01*
X102993410Y-73162798D01*
X102989359Y-73159598D01*
X102793789Y-73051638D01*
X102788920Y-73049914D01*
X102788916Y-73049912D01*
X102588087Y-72978795D01*
X102588083Y-72978794D01*
X102583212Y-72977069D01*
X102578119Y-72976162D01*
X102578116Y-72976161D01*
X102368373Y-72938800D01*
X102368367Y-72938799D01*
X102363284Y-72937894D01*
X102289452Y-72936992D01*
X102145081Y-72935228D01*
X102145079Y-72935228D01*
X102139911Y-72935165D01*
X101919091Y-72968955D01*
X101706756Y-73038357D01*
X101508607Y-73141507D01*
X101504474Y-73144610D01*
X101504471Y-73144612D01*
X101334100Y-73272530D01*
X101329965Y-73275635D01*
X101273537Y-73334684D01*
X101249283Y-73360064D01*
X101187759Y-73395494D01*
X101116846Y-73392037D01*
X101059060Y-73350791D01*
X101040207Y-73317243D01*
X100998767Y-73206703D01*
X100995615Y-73198295D01*
X100908261Y-73081739D01*
X100791705Y-72994385D01*
X100655316Y-72943255D01*
X100593134Y-72936500D01*
X98796866Y-72936500D01*
X98734684Y-72943255D01*
X98598295Y-72994385D01*
X98481739Y-73081739D01*
X98394385Y-73198295D01*
X98343255Y-73334684D01*
X98336500Y-73396866D01*
X98336500Y-75193134D01*
X98343255Y-75255316D01*
X98394385Y-75391705D01*
X98481739Y-75508261D01*
X98598295Y-75595615D01*
X98606704Y-75598767D01*
X98606705Y-75598768D01*
X98715451Y-75639535D01*
X98772216Y-75682176D01*
X98796916Y-75748738D01*
X98781709Y-75818087D01*
X98762316Y-75844568D01*
X98635629Y-75977138D01*
X98509743Y-76161680D01*
X98415688Y-76364305D01*
X98355989Y-76579570D01*
X98332251Y-76801695D01*
X98332548Y-76806848D01*
X98332548Y-76806851D01*
X98338011Y-76901590D01*
X98345110Y-77024715D01*
X98346247Y-77029761D01*
X98346248Y-77029767D01*
X98366119Y-77117939D01*
X98394222Y-77242639D01*
X98478266Y-77449616D01*
X98529019Y-77532438D01*
X98592291Y-77635688D01*
X98594987Y-77640088D01*
X98741250Y-77808938D01*
X98913126Y-77951632D01*
X98983595Y-77992811D01*
X98986445Y-77994476D01*
X99035169Y-78046114D01*
X99048240Y-78115897D01*
X99021509Y-78181669D01*
X98981055Y-78215027D01*
X98968607Y-78221507D01*
X98964474Y-78224610D01*
X98964471Y-78224612D01*
X98940247Y-78242800D01*
X98789965Y-78355635D01*
X98635629Y-78517138D01*
X98509743Y-78701680D01*
X98415688Y-78904305D01*
X98355989Y-79119570D01*
X98332251Y-79341695D01*
X98332548Y-79346848D01*
X98332548Y-79346851D01*
X98338011Y-79441590D01*
X98345110Y-79564715D01*
X98346247Y-79569761D01*
X98346248Y-79569767D01*
X98366119Y-79657939D01*
X98394222Y-79782639D01*
X98478266Y-79989616D01*
X98529019Y-80072438D01*
X98592291Y-80175688D01*
X98594987Y-80180088D01*
X98741250Y-80348938D01*
X98913126Y-80491632D01*
X98983595Y-80532811D01*
X98986445Y-80534476D01*
X99035169Y-80586114D01*
X99048240Y-80655897D01*
X99021509Y-80721669D01*
X98981055Y-80755027D01*
X98968607Y-80761507D01*
X98964474Y-80764610D01*
X98964471Y-80764612D01*
X98940247Y-80782800D01*
X98789965Y-80895635D01*
X98635629Y-81057138D01*
X98509743Y-81241680D01*
X98415688Y-81444305D01*
X98355989Y-81659570D01*
X98332251Y-81881695D01*
X98332548Y-81886848D01*
X98332548Y-81886851D01*
X98338011Y-81981590D01*
X98345110Y-82104715D01*
X98346247Y-82109761D01*
X98346248Y-82109767D01*
X98366119Y-82197939D01*
X98394222Y-82322639D01*
X98478266Y-82529616D01*
X98529019Y-82612438D01*
X98592291Y-82715688D01*
X98594987Y-82720088D01*
X98741250Y-82888938D01*
X98913126Y-83031632D01*
X98983595Y-83072811D01*
X98986445Y-83074476D01*
X99035169Y-83126114D01*
X99048240Y-83195897D01*
X99021509Y-83261669D01*
X98981055Y-83295027D01*
X98968607Y-83301507D01*
X98964474Y-83304610D01*
X98964471Y-83304612D01*
X98940247Y-83322800D01*
X98789965Y-83435635D01*
X98635629Y-83597138D01*
X98509743Y-83781680D01*
X98415688Y-83984305D01*
X98355989Y-84199570D01*
X98332251Y-84421695D01*
X98332548Y-84426848D01*
X98332548Y-84426851D01*
X98338011Y-84521590D01*
X98345110Y-84644715D01*
X98346247Y-84649761D01*
X98346248Y-84649767D01*
X98366119Y-84737939D01*
X98394222Y-84862639D01*
X98478266Y-85069616D01*
X98529019Y-85152438D01*
X98592291Y-85255688D01*
X98594987Y-85260088D01*
X98741250Y-85428938D01*
X98913126Y-85571632D01*
X98983595Y-85612811D01*
X98986445Y-85614476D01*
X99035169Y-85666114D01*
X99048240Y-85735897D01*
X99021509Y-85801669D01*
X98981055Y-85835027D01*
X98968607Y-85841507D01*
X98964474Y-85844610D01*
X98964471Y-85844612D01*
X98940247Y-85862800D01*
X98789965Y-85975635D01*
X98635629Y-86137138D01*
X98509743Y-86321680D01*
X98415688Y-86524305D01*
X98355989Y-86739570D01*
X98332251Y-86961695D01*
X98332548Y-86966848D01*
X98332548Y-86966851D01*
X98338011Y-87061590D01*
X98345110Y-87184715D01*
X98346247Y-87189761D01*
X98346248Y-87189767D01*
X98366119Y-87277939D01*
X98394222Y-87402639D01*
X98478266Y-87609616D01*
X98529019Y-87692438D01*
X98592291Y-87795688D01*
X98594987Y-87800088D01*
X98741250Y-87968938D01*
X98913126Y-88111632D01*
X98983595Y-88152811D01*
X98986445Y-88154476D01*
X99035169Y-88206114D01*
X99048240Y-88275897D01*
X99021509Y-88341669D01*
X98981055Y-88375027D01*
X98968607Y-88381507D01*
X98964474Y-88384610D01*
X98964471Y-88384612D01*
X98940247Y-88402800D01*
X98789965Y-88515635D01*
X98635629Y-88677138D01*
X98509743Y-88861680D01*
X98415688Y-89064305D01*
X98355989Y-89279570D01*
X98332251Y-89501695D01*
X98332548Y-89506848D01*
X98332548Y-89506851D01*
X98338011Y-89601590D01*
X98345110Y-89724715D01*
X98346247Y-89729761D01*
X98346248Y-89729767D01*
X98366119Y-89817939D01*
X98394222Y-89942639D01*
X98478266Y-90149616D01*
X98529019Y-90232438D01*
X98592291Y-90335688D01*
X98594987Y-90340088D01*
X98741250Y-90508938D01*
X98913126Y-90651632D01*
X98983595Y-90692811D01*
X98986445Y-90694476D01*
X99035169Y-90746114D01*
X99048240Y-90815897D01*
X99021509Y-90881669D01*
X98981055Y-90915027D01*
X98968607Y-90921507D01*
X98964474Y-90924610D01*
X98964471Y-90924612D01*
X98940247Y-90942800D01*
X98789965Y-91055635D01*
X98635629Y-91217138D01*
X98509743Y-91401680D01*
X98415688Y-91604305D01*
X98355989Y-91819570D01*
X98332251Y-92041695D01*
X98332548Y-92046848D01*
X98332548Y-92046851D01*
X98338011Y-92141590D01*
X98345110Y-92264715D01*
X98346247Y-92269761D01*
X98346248Y-92269767D01*
X98366119Y-92357939D01*
X98394222Y-92482639D01*
X98478266Y-92689616D01*
X98529019Y-92772438D01*
X98592291Y-92875688D01*
X98594987Y-92880088D01*
X98741250Y-93048938D01*
X98913126Y-93191632D01*
X98983595Y-93232811D01*
X98986445Y-93234476D01*
X99035169Y-93286114D01*
X99048240Y-93355897D01*
X99021509Y-93421669D01*
X98981055Y-93455027D01*
X98968607Y-93461507D01*
X98964474Y-93464610D01*
X98964471Y-93464612D01*
X98940247Y-93482800D01*
X98789965Y-93595635D01*
X98635629Y-93757138D01*
X98509743Y-93941680D01*
X98415688Y-94144305D01*
X98355989Y-94359570D01*
X98332251Y-94581695D01*
X98332548Y-94586848D01*
X98332548Y-94586851D01*
X98338011Y-94681590D01*
X98345110Y-94804715D01*
X98346247Y-94809761D01*
X98346248Y-94809767D01*
X98366119Y-94897939D01*
X98394222Y-95022639D01*
X98478266Y-95229616D01*
X98529019Y-95312438D01*
X98592291Y-95415688D01*
X98594987Y-95420088D01*
X98741250Y-95588938D01*
X98913126Y-95731632D01*
X98983595Y-95772811D01*
X98986445Y-95774476D01*
X99035169Y-95826114D01*
X99048240Y-95895897D01*
X99021509Y-95961669D01*
X98981055Y-95995027D01*
X98968607Y-96001507D01*
X98964474Y-96004610D01*
X98964471Y-96004612D01*
X98940247Y-96022800D01*
X98789965Y-96135635D01*
X98635629Y-96297138D01*
X98509743Y-96481680D01*
X98415688Y-96684305D01*
X98355989Y-96899570D01*
X98332251Y-97121695D01*
X98332548Y-97126848D01*
X98332548Y-97126851D01*
X98338011Y-97221590D01*
X98345110Y-97344715D01*
X98346247Y-97349761D01*
X98346248Y-97349767D01*
X98366119Y-97437939D01*
X98394222Y-97562639D01*
X98478266Y-97769616D01*
X98529019Y-97852438D01*
X98592291Y-97955688D01*
X98594987Y-97960088D01*
X98741250Y-98128938D01*
X98913126Y-98271632D01*
X98983595Y-98312811D01*
X98986445Y-98314476D01*
X99035169Y-98366114D01*
X99048240Y-98435897D01*
X99021509Y-98501669D01*
X98981055Y-98535027D01*
X98968607Y-98541507D01*
X98964474Y-98544610D01*
X98964471Y-98544612D01*
X98940247Y-98562800D01*
X98789965Y-98675635D01*
X98635629Y-98837138D01*
X98509743Y-99021680D01*
X98415688Y-99224305D01*
X98355989Y-99439570D01*
X98332251Y-99661695D01*
X98332548Y-99666848D01*
X98332548Y-99666851D01*
X98338011Y-99761590D01*
X98345110Y-99884715D01*
X98346247Y-99889761D01*
X98346248Y-99889767D01*
X98366119Y-99977939D01*
X98394222Y-100102639D01*
X98478266Y-100309616D01*
X98529019Y-100392438D01*
X98592291Y-100495688D01*
X98594987Y-100500088D01*
X98741250Y-100668938D01*
X98913126Y-100811632D01*
X98983595Y-100852811D01*
X98986445Y-100854476D01*
X99035169Y-100906114D01*
X99048240Y-100975897D01*
X99021509Y-101041669D01*
X98981055Y-101075027D01*
X98968607Y-101081507D01*
X98964474Y-101084610D01*
X98964471Y-101084612D01*
X98940247Y-101102800D01*
X98789965Y-101215635D01*
X98635629Y-101377138D01*
X98509743Y-101561680D01*
X98415688Y-101764305D01*
X98355989Y-101979570D01*
X98332251Y-102201695D01*
X98332548Y-102206848D01*
X98332548Y-102206851D01*
X98338011Y-102301590D01*
X98345110Y-102424715D01*
X98346247Y-102429761D01*
X98346248Y-102429767D01*
X98366119Y-102517939D01*
X98394222Y-102642639D01*
X98478266Y-102849616D01*
X98529019Y-102932438D01*
X98592291Y-103035688D01*
X98594987Y-103040088D01*
X98741250Y-103208938D01*
X98913126Y-103351632D01*
X98983595Y-103392811D01*
X98986445Y-103394476D01*
X99035169Y-103446114D01*
X99048240Y-103515897D01*
X99021509Y-103581669D01*
X98981055Y-103615027D01*
X98968607Y-103621507D01*
X98964474Y-103624610D01*
X98964471Y-103624612D01*
X98940247Y-103642800D01*
X98789965Y-103755635D01*
X98635629Y-103917138D01*
X98509743Y-104101680D01*
X98415688Y-104304305D01*
X98355989Y-104519570D01*
X98332251Y-104741695D01*
X98332548Y-104746848D01*
X98332548Y-104746851D01*
X98338011Y-104841590D01*
X98345110Y-104964715D01*
X98346247Y-104969761D01*
X98346248Y-104969767D01*
X98366119Y-105057939D01*
X98394222Y-105182639D01*
X98478266Y-105389616D01*
X98529019Y-105472438D01*
X98592291Y-105575688D01*
X98594987Y-105580088D01*
X98741250Y-105748938D01*
X98913126Y-105891632D01*
X98983595Y-105932811D01*
X98986445Y-105934476D01*
X99035169Y-105986114D01*
X99048240Y-106055897D01*
X99021509Y-106121669D01*
X98981055Y-106155027D01*
X98968607Y-106161507D01*
X98964474Y-106164610D01*
X98964471Y-106164612D01*
X98940247Y-106182800D01*
X98789965Y-106295635D01*
X98635629Y-106457138D01*
X98509743Y-106641680D01*
X98415688Y-106844305D01*
X98355989Y-107059570D01*
X98332251Y-107281695D01*
X98332548Y-107286848D01*
X98332548Y-107286851D01*
X98338011Y-107381590D01*
X98345110Y-107504715D01*
X98346247Y-107509761D01*
X98346248Y-107509767D01*
X98366119Y-107597939D01*
X98394222Y-107722639D01*
X98478266Y-107929616D01*
X98529019Y-108012438D01*
X98592291Y-108115688D01*
X98594987Y-108120088D01*
X98741250Y-108288938D01*
X98913126Y-108431632D01*
X98983595Y-108472811D01*
X98986445Y-108474476D01*
X99035169Y-108526114D01*
X99048240Y-108595897D01*
X99021509Y-108661669D01*
X98981055Y-108695027D01*
X98968607Y-108701507D01*
X98964474Y-108704610D01*
X98964471Y-108704612D01*
X98940247Y-108722800D01*
X98789965Y-108835635D01*
X98635629Y-108997138D01*
X98509743Y-109181680D01*
X98415688Y-109384305D01*
X98355989Y-109599570D01*
X98332251Y-109821695D01*
X98332548Y-109826848D01*
X98332548Y-109826851D01*
X98338011Y-109921590D01*
X98345110Y-110044715D01*
X98346247Y-110049761D01*
X98346248Y-110049767D01*
X98366119Y-110137939D01*
X98394222Y-110262639D01*
X98478266Y-110469616D01*
X98529019Y-110552438D01*
X98592291Y-110655688D01*
X98594987Y-110660088D01*
X98741250Y-110828938D01*
X98913126Y-110971632D01*
X98983595Y-111012811D01*
X98986445Y-111014476D01*
X99035169Y-111066114D01*
X99048240Y-111135897D01*
X99021509Y-111201669D01*
X98981055Y-111235027D01*
X98968607Y-111241507D01*
X98964474Y-111244610D01*
X98964471Y-111244612D01*
X98940247Y-111262800D01*
X98789965Y-111375635D01*
X98635629Y-111537138D01*
X98509743Y-111721680D01*
X98415688Y-111924305D01*
X98355989Y-112139570D01*
X98332251Y-112361695D01*
X98332548Y-112366848D01*
X98332548Y-112366851D01*
X98338011Y-112461590D01*
X98345110Y-112584715D01*
X98346247Y-112589761D01*
X98346248Y-112589767D01*
X98366119Y-112677939D01*
X98394222Y-112802639D01*
X98478266Y-113009616D01*
X98529019Y-113092438D01*
X98592291Y-113195688D01*
X98594987Y-113200088D01*
X98741250Y-113368938D01*
X98913126Y-113511632D01*
X98983595Y-113552811D01*
X98986445Y-113554476D01*
X99035169Y-113606114D01*
X99048240Y-113675897D01*
X99021509Y-113741669D01*
X98981055Y-113775027D01*
X98968607Y-113781507D01*
X98964474Y-113784610D01*
X98964471Y-113784612D01*
X98940247Y-113802800D01*
X98789965Y-113915635D01*
X98635629Y-114077138D01*
X98509743Y-114261680D01*
X98415688Y-114464305D01*
X98355989Y-114679570D01*
X98332251Y-114901695D01*
X98332548Y-114906848D01*
X98332548Y-114906851D01*
X98338011Y-115001590D01*
X98345110Y-115124715D01*
X98346247Y-115129761D01*
X98346248Y-115129767D01*
X98366119Y-115217939D01*
X98394222Y-115342639D01*
X98478266Y-115549616D01*
X98529019Y-115632438D01*
X98592291Y-115735688D01*
X98594987Y-115740088D01*
X98741250Y-115908938D01*
X98913126Y-116051632D01*
X98983595Y-116092811D01*
X98986445Y-116094476D01*
X99035169Y-116146114D01*
X99048240Y-116215897D01*
X99021509Y-116281669D01*
X98981055Y-116315027D01*
X98968607Y-116321507D01*
X98964474Y-116324610D01*
X98964471Y-116324612D01*
X98940247Y-116342800D01*
X98789965Y-116455635D01*
X98635629Y-116617138D01*
X98509743Y-116801680D01*
X98415688Y-117004305D01*
X98355989Y-117219570D01*
X98332251Y-117441695D01*
X98332548Y-117446848D01*
X98332548Y-117446851D01*
X98338011Y-117541590D01*
X98345110Y-117664715D01*
X98346247Y-117669761D01*
X98346248Y-117669767D01*
X98366119Y-117757939D01*
X98394222Y-117882639D01*
X98478266Y-118089616D01*
X98529019Y-118172438D01*
X98592291Y-118275688D01*
X98594987Y-118280088D01*
X98741250Y-118448938D01*
X98913126Y-118591632D01*
X98983595Y-118632811D01*
X98986445Y-118634476D01*
X99035169Y-118686114D01*
X99048240Y-118755897D01*
X99021509Y-118821669D01*
X98981055Y-118855027D01*
X98968607Y-118861507D01*
X98964474Y-118864610D01*
X98964471Y-118864612D01*
X98940247Y-118882800D01*
X98789965Y-118995635D01*
X98635629Y-119157138D01*
X98509743Y-119341680D01*
X98415688Y-119544305D01*
X98355989Y-119759570D01*
X98332251Y-119981695D01*
X98332548Y-119986848D01*
X98332548Y-119986851D01*
X98338011Y-120081590D01*
X98345110Y-120204715D01*
X98346247Y-120209761D01*
X98346248Y-120209767D01*
X98366119Y-120297939D01*
X98394222Y-120422639D01*
X98478266Y-120629616D01*
X98529019Y-120712438D01*
X98592291Y-120815688D01*
X98594987Y-120820088D01*
X98741250Y-120988938D01*
X98913126Y-121131632D01*
X98983595Y-121172811D01*
X98986445Y-121174476D01*
X99035169Y-121226114D01*
X99048240Y-121295897D01*
X99021509Y-121361669D01*
X98981055Y-121395027D01*
X98968607Y-121401507D01*
X98964474Y-121404610D01*
X98964471Y-121404612D01*
X98940247Y-121422800D01*
X98789965Y-121535635D01*
X98635629Y-121697138D01*
X98509743Y-121881680D01*
X98415688Y-122084305D01*
X98355989Y-122299570D01*
X98332251Y-122521695D01*
X95758500Y-122521695D01*
X95758500Y-69487966D01*
X98358257Y-69487966D01*
X98388565Y-69622446D01*
X98391645Y-69632275D01*
X98471770Y-69829603D01*
X98476413Y-69838794D01*
X98587694Y-70020388D01*
X98593777Y-70028699D01*
X98733213Y-70189667D01*
X98740580Y-70196883D01*
X98904434Y-70332916D01*
X98912881Y-70338831D01*
X99096756Y-70446279D01*
X99106042Y-70450729D01*
X99305001Y-70526703D01*
X99314899Y-70529579D01*
X99418250Y-70550606D01*
X99432299Y-70549410D01*
X99436000Y-70539065D01*
X99436000Y-70538517D01*
X99944000Y-70538517D01*
X99948064Y-70552359D01*
X99961478Y-70554393D01*
X99968184Y-70553534D01*
X99978262Y-70551392D01*
X100182255Y-70490191D01*
X100191842Y-70486433D01*
X100383095Y-70392739D01*
X100391945Y-70387464D01*
X100565328Y-70263792D01*
X100573200Y-70257139D01*
X100724052Y-70106812D01*
X100730730Y-70098965D01*
X100858022Y-69921819D01*
X100859147Y-69922627D01*
X100906669Y-69878876D01*
X100976607Y-69866661D01*
X101042046Y-69894197D01*
X101069870Y-69926028D01*
X101127690Y-70020383D01*
X101133777Y-70028699D01*
X101273213Y-70189667D01*
X101280580Y-70196883D01*
X101444434Y-70332916D01*
X101452881Y-70338831D01*
X101636756Y-70446279D01*
X101646042Y-70450729D01*
X101845001Y-70526703D01*
X101854899Y-70529579D01*
X101958250Y-70550606D01*
X101972299Y-70549410D01*
X101976000Y-70539065D01*
X101976000Y-70538517D01*
X102484000Y-70538517D01*
X102488064Y-70552359D01*
X102501478Y-70554393D01*
X102508184Y-70553534D01*
X102518262Y-70551392D01*
X102722255Y-70490191D01*
X102731842Y-70486433D01*
X102923095Y-70392739D01*
X102931945Y-70387464D01*
X103105328Y-70263792D01*
X103113200Y-70257139D01*
X103264052Y-70106812D01*
X103270730Y-70098965D01*
X103395003Y-69926020D01*
X103400313Y-69917183D01*
X103494670Y-69726267D01*
X103498469Y-69716672D01*
X103560377Y-69512910D01*
X103562555Y-69502837D01*
X103563986Y-69491962D01*
X103563363Y-69487966D01*
X186623257Y-69487966D01*
X186653565Y-69622446D01*
X186656645Y-69632275D01*
X186736770Y-69829603D01*
X186741413Y-69838794D01*
X186852694Y-70020388D01*
X186858777Y-70028699D01*
X186998213Y-70189667D01*
X187005580Y-70196883D01*
X187169434Y-70332916D01*
X187177881Y-70338831D01*
X187361756Y-70446279D01*
X187371042Y-70450729D01*
X187570001Y-70526703D01*
X187579899Y-70529579D01*
X187683250Y-70550606D01*
X187697299Y-70549410D01*
X187701000Y-70539065D01*
X187701000Y-70538517D01*
X188209000Y-70538517D01*
X188213064Y-70552359D01*
X188226478Y-70554393D01*
X188233184Y-70553534D01*
X188243262Y-70551392D01*
X188447255Y-70490191D01*
X188456842Y-70486433D01*
X188648095Y-70392739D01*
X188656945Y-70387464D01*
X188830328Y-70263792D01*
X188838200Y-70257139D01*
X188989052Y-70106812D01*
X188995730Y-70098965D01*
X189123022Y-69921819D01*
X189124147Y-69922627D01*
X189171669Y-69878876D01*
X189241607Y-69866661D01*
X189307046Y-69894197D01*
X189334870Y-69926028D01*
X189392690Y-70020383D01*
X189398777Y-70028699D01*
X189538213Y-70189667D01*
X189545580Y-70196883D01*
X189709434Y-70332916D01*
X189717881Y-70338831D01*
X189901756Y-70446279D01*
X189911042Y-70450729D01*
X190110001Y-70526703D01*
X190119899Y-70529579D01*
X190223250Y-70550606D01*
X190237299Y-70549410D01*
X190241000Y-70539065D01*
X190241000Y-70538517D01*
X190749000Y-70538517D01*
X190753064Y-70552359D01*
X190766478Y-70554393D01*
X190773184Y-70553534D01*
X190783262Y-70551392D01*
X190987255Y-70490191D01*
X190996842Y-70486433D01*
X191188095Y-70392739D01*
X191196945Y-70387464D01*
X191370328Y-70263792D01*
X191378200Y-70257139D01*
X191529052Y-70106812D01*
X191535730Y-70098965D01*
X191660003Y-69926020D01*
X191665313Y-69917183D01*
X191759670Y-69726267D01*
X191763469Y-69716672D01*
X191825377Y-69512910D01*
X191827555Y-69502837D01*
X191828986Y-69491962D01*
X191826775Y-69477778D01*
X191813617Y-69474000D01*
X190767115Y-69474000D01*
X190751876Y-69478475D01*
X190750671Y-69479865D01*
X190749000Y-69487548D01*
X190749000Y-70538517D01*
X190241000Y-70538517D01*
X190241000Y-69492115D01*
X190236525Y-69476876D01*
X190235135Y-69475671D01*
X190227452Y-69474000D01*
X188227115Y-69474000D01*
X188211876Y-69478475D01*
X188210671Y-69479865D01*
X188209000Y-69487548D01*
X188209000Y-70538517D01*
X187701000Y-70538517D01*
X187701000Y-69492115D01*
X187696525Y-69476876D01*
X187695135Y-69475671D01*
X187687452Y-69474000D01*
X186638225Y-69474000D01*
X186624694Y-69477973D01*
X186623257Y-69487966D01*
X103563363Y-69487966D01*
X103561775Y-69477778D01*
X103548617Y-69474000D01*
X102502115Y-69474000D01*
X102486876Y-69478475D01*
X102485671Y-69479865D01*
X102484000Y-69487548D01*
X102484000Y-70538517D01*
X101976000Y-70538517D01*
X101976000Y-69492115D01*
X101971525Y-69476876D01*
X101970135Y-69475671D01*
X101962452Y-69474000D01*
X99962115Y-69474000D01*
X99946876Y-69478475D01*
X99945671Y-69479865D01*
X99944000Y-69487548D01*
X99944000Y-70538517D01*
X99436000Y-70538517D01*
X99436000Y-69492115D01*
X99431525Y-69476876D01*
X99430135Y-69475671D01*
X99422452Y-69474000D01*
X98373225Y-69474000D01*
X98359694Y-69477973D01*
X98358257Y-69487966D01*
X95758500Y-69487966D01*
X95758500Y-66646695D01*
X98327251Y-66646695D01*
X98327548Y-66651848D01*
X98327548Y-66651851D01*
X98333011Y-66746590D01*
X98340110Y-66869715D01*
X98341247Y-66874761D01*
X98341248Y-66874767D01*
X98361119Y-66962939D01*
X98389222Y-67087639D01*
X98473266Y-67294616D01*
X98524019Y-67377438D01*
X98587291Y-67480688D01*
X98589987Y-67485088D01*
X98736250Y-67653938D01*
X98908126Y-67796632D01*
X98981955Y-67839774D01*
X99030679Y-67891412D01*
X99043750Y-67961195D01*
X99017019Y-68026967D01*
X98976562Y-68060327D01*
X98968457Y-68064546D01*
X98959738Y-68070036D01*
X98789433Y-68197905D01*
X98781726Y-68204748D01*
X98634590Y-68358717D01*
X98628104Y-68366727D01*
X98508098Y-68542649D01*
X98503000Y-68551623D01*
X98413338Y-68744783D01*
X98409775Y-68754470D01*
X98354389Y-68954183D01*
X98355912Y-68962607D01*
X98368292Y-68966000D01*
X103548344Y-68966000D01*
X103561875Y-68962027D01*
X103563180Y-68952947D01*
X103521214Y-68785875D01*
X103517894Y-68776124D01*
X103432972Y-68580814D01*
X103428105Y-68571739D01*
X103312426Y-68392926D01*
X103306136Y-68384757D01*
X103162806Y-68227240D01*
X103155273Y-68220215D01*
X102988139Y-68088222D01*
X102979556Y-68082520D01*
X102942602Y-68062120D01*
X102892631Y-68011687D01*
X102877859Y-67942245D01*
X102902975Y-67875839D01*
X102930327Y-67849232D01*
X102953797Y-67832491D01*
X103109860Y-67721173D01*
X103268096Y-67563489D01*
X103327594Y-67480689D01*
X103395435Y-67386277D01*
X103398453Y-67382077D01*
X103419320Y-67339857D01*
X103495136Y-67186453D01*
X103495137Y-67186451D01*
X103497430Y-67181811D01*
X103562370Y-66968069D01*
X103591529Y-66746590D01*
X103593156Y-66680000D01*
X103590418Y-66646695D01*
X186592251Y-66646695D01*
X186592548Y-66651848D01*
X186592548Y-66651851D01*
X186598011Y-66746590D01*
X186605110Y-66869715D01*
X186606247Y-66874761D01*
X186606248Y-66874767D01*
X186626119Y-66962939D01*
X186654222Y-67087639D01*
X186738266Y-67294616D01*
X186789019Y-67377438D01*
X186852291Y-67480688D01*
X186854987Y-67485088D01*
X187001250Y-67653938D01*
X187173126Y-67796632D01*
X187246955Y-67839774D01*
X187295679Y-67891412D01*
X187308750Y-67961195D01*
X187282019Y-68026967D01*
X187241562Y-68060327D01*
X187233457Y-68064546D01*
X187224738Y-68070036D01*
X187054433Y-68197905D01*
X187046726Y-68204748D01*
X186899590Y-68358717D01*
X186893104Y-68366727D01*
X186773098Y-68542649D01*
X186768000Y-68551623D01*
X186678338Y-68744783D01*
X186674775Y-68754470D01*
X186619389Y-68954183D01*
X186620912Y-68962607D01*
X186633292Y-68966000D01*
X191813344Y-68966000D01*
X191826875Y-68962027D01*
X191828180Y-68952947D01*
X191786214Y-68785875D01*
X191782894Y-68776124D01*
X191697972Y-68580814D01*
X191693105Y-68571739D01*
X191577426Y-68392926D01*
X191571136Y-68384757D01*
X191427806Y-68227240D01*
X191420273Y-68220215D01*
X191253139Y-68088222D01*
X191244556Y-68082520D01*
X191207602Y-68062120D01*
X191157631Y-68011687D01*
X191142859Y-67942245D01*
X191167975Y-67875839D01*
X191195327Y-67849232D01*
X191218797Y-67832491D01*
X191374860Y-67721173D01*
X191533096Y-67563489D01*
X191592594Y-67480689D01*
X191660435Y-67386277D01*
X191663453Y-67382077D01*
X191684320Y-67339857D01*
X191760136Y-67186453D01*
X191760137Y-67186451D01*
X191762430Y-67181811D01*
X191827370Y-66968069D01*
X191856529Y-66746590D01*
X191858156Y-66680000D01*
X191839852Y-66457361D01*
X191785431Y-66240702D01*
X191696354Y-66035840D01*
X191575014Y-65848277D01*
X191424670Y-65683051D01*
X191420619Y-65679852D01*
X191420615Y-65679848D01*
X191253414Y-65547800D01*
X191253410Y-65547798D01*
X191249359Y-65544598D01*
X191208053Y-65521796D01*
X191158084Y-65471364D01*
X191143312Y-65401921D01*
X191168428Y-65335516D01*
X191195780Y-65308909D01*
X191239603Y-65277650D01*
X191374860Y-65181173D01*
X191533096Y-65023489D01*
X191592594Y-64940689D01*
X191660435Y-64846277D01*
X191663453Y-64842077D01*
X191684320Y-64799857D01*
X191760136Y-64646453D01*
X191760137Y-64646451D01*
X191762430Y-64641811D01*
X191827370Y-64428069D01*
X191856529Y-64206590D01*
X191858156Y-64140000D01*
X191839852Y-63917361D01*
X191785431Y-63700702D01*
X191696354Y-63495840D01*
X191575014Y-63308277D01*
X191424670Y-63143051D01*
X191420619Y-63139852D01*
X191420615Y-63139848D01*
X191253414Y-63007800D01*
X191253410Y-63007798D01*
X191249359Y-63004598D01*
X191208053Y-62981796D01*
X191158084Y-62931364D01*
X191143312Y-62861921D01*
X191168428Y-62795516D01*
X191195780Y-62768909D01*
X191239603Y-62737650D01*
X191374860Y-62641173D01*
X191533096Y-62483489D01*
X191592594Y-62400689D01*
X191660435Y-62306277D01*
X191663453Y-62302077D01*
X191684320Y-62259857D01*
X191760136Y-62106453D01*
X191760137Y-62106451D01*
X191762430Y-62101811D01*
X191827370Y-61888069D01*
X191856529Y-61666590D01*
X191858156Y-61600000D01*
X191839852Y-61377361D01*
X191785431Y-61160702D01*
X191696354Y-60955840D01*
X191575014Y-60768277D01*
X191424670Y-60603051D01*
X191420619Y-60599852D01*
X191420615Y-60599848D01*
X191253414Y-60467800D01*
X191253410Y-60467798D01*
X191249359Y-60464598D01*
X191207569Y-60441529D01*
X191157598Y-60391097D01*
X191142826Y-60321654D01*
X191167942Y-60255248D01*
X191195294Y-60228641D01*
X191370328Y-60103792D01*
X191378200Y-60097139D01*
X191529052Y-59946812D01*
X191535730Y-59938965D01*
X191660003Y-59766020D01*
X191665313Y-59757183D01*
X191759670Y-59566267D01*
X191763469Y-59556672D01*
X191825377Y-59352910D01*
X191827555Y-59342837D01*
X191828986Y-59331962D01*
X191826775Y-59317778D01*
X191813617Y-59314000D01*
X186615116Y-59314000D01*
X186599877Y-59318475D01*
X186598672Y-59319865D01*
X186597001Y-59327548D01*
X186597001Y-59954669D01*
X186597371Y-59961490D01*
X186602895Y-60012352D01*
X186606521Y-60027604D01*
X186651676Y-60148054D01*
X186660214Y-60163649D01*
X186736715Y-60265724D01*
X186749276Y-60278285D01*
X186851351Y-60354786D01*
X186866946Y-60363324D01*
X186975827Y-60404142D01*
X187032591Y-60446784D01*
X187057291Y-60513345D01*
X187042083Y-60582694D01*
X187022691Y-60609175D01*
X186899200Y-60738401D01*
X186895629Y-60742138D01*
X186769743Y-60926680D01*
X186675688Y-61129305D01*
X186615989Y-61344570D01*
X186592251Y-61566695D01*
X186592548Y-61571848D01*
X186592548Y-61571851D01*
X186598011Y-61666590D01*
X186605110Y-61789715D01*
X186606247Y-61794761D01*
X186606248Y-61794767D01*
X186626119Y-61882939D01*
X186654222Y-62007639D01*
X186738266Y-62214616D01*
X186789019Y-62297438D01*
X186852291Y-62400688D01*
X186854987Y-62405088D01*
X187001250Y-62573938D01*
X187173126Y-62716632D01*
X187243595Y-62757811D01*
X187246445Y-62759476D01*
X187295169Y-62811114D01*
X187308240Y-62880897D01*
X187281509Y-62946669D01*
X187241055Y-62980027D01*
X187228607Y-62986507D01*
X187224474Y-62989610D01*
X187224471Y-62989612D01*
X187200247Y-63007800D01*
X187049965Y-63120635D01*
X186895629Y-63282138D01*
X186769743Y-63466680D01*
X186675688Y-63669305D01*
X186615989Y-63884570D01*
X186592251Y-64106695D01*
X186592548Y-64111848D01*
X186592548Y-64111851D01*
X186598011Y-64206590D01*
X186605110Y-64329715D01*
X186606247Y-64334761D01*
X186606248Y-64334767D01*
X186626119Y-64422939D01*
X186654222Y-64547639D01*
X186738266Y-64754616D01*
X186789019Y-64837438D01*
X186852291Y-64940688D01*
X186854987Y-64945088D01*
X187001250Y-65113938D01*
X187173126Y-65256632D01*
X187243595Y-65297811D01*
X187246445Y-65299476D01*
X187295169Y-65351114D01*
X187308240Y-65420897D01*
X187281509Y-65486669D01*
X187241055Y-65520027D01*
X187228607Y-65526507D01*
X187224474Y-65529610D01*
X187224471Y-65529612D01*
X187200247Y-65547800D01*
X187049965Y-65660635D01*
X186895629Y-65822138D01*
X186769743Y-66006680D01*
X186675688Y-66209305D01*
X186615989Y-66424570D01*
X186592251Y-66646695D01*
X103590418Y-66646695D01*
X103574852Y-66457361D01*
X103520431Y-66240702D01*
X103431354Y-66035840D01*
X103310014Y-65848277D01*
X103159670Y-65683051D01*
X103155619Y-65679852D01*
X103155615Y-65679848D01*
X102988414Y-65547800D01*
X102988410Y-65547798D01*
X102984359Y-65544598D01*
X102943053Y-65521796D01*
X102893084Y-65471364D01*
X102878312Y-65401921D01*
X102903428Y-65335516D01*
X102930780Y-65308909D01*
X102974603Y-65277650D01*
X103109860Y-65181173D01*
X103268096Y-65023489D01*
X103327594Y-64940689D01*
X103395435Y-64846277D01*
X103398453Y-64842077D01*
X103419320Y-64799857D01*
X103495136Y-64646453D01*
X103495137Y-64646451D01*
X103497430Y-64641811D01*
X103562370Y-64428069D01*
X103591529Y-64206590D01*
X103593156Y-64140000D01*
X103574852Y-63917361D01*
X103520431Y-63700702D01*
X103431354Y-63495840D01*
X103310014Y-63308277D01*
X103159670Y-63143051D01*
X103155619Y-63139852D01*
X103155615Y-63139848D01*
X102988414Y-63007800D01*
X102988410Y-63007798D01*
X102984359Y-63004598D01*
X102943053Y-62981796D01*
X102893084Y-62931364D01*
X102878312Y-62861921D01*
X102903428Y-62795516D01*
X102930780Y-62768909D01*
X102974603Y-62737650D01*
X103109860Y-62641173D01*
X103268096Y-62483489D01*
X103327594Y-62400689D01*
X103395435Y-62306277D01*
X103398453Y-62302077D01*
X103419320Y-62259857D01*
X103495136Y-62106453D01*
X103495137Y-62106451D01*
X103497430Y-62101811D01*
X103562370Y-61888069D01*
X103591529Y-61666590D01*
X103593156Y-61600000D01*
X103574852Y-61377361D01*
X103520431Y-61160702D01*
X103431354Y-60955840D01*
X103310014Y-60768277D01*
X103159670Y-60603051D01*
X103155619Y-60599852D01*
X103155615Y-60599848D01*
X102988414Y-60467800D01*
X102988410Y-60467798D01*
X102984359Y-60464598D01*
X102942569Y-60441529D01*
X102892598Y-60391097D01*
X102877826Y-60321654D01*
X102902942Y-60255248D01*
X102930294Y-60228641D01*
X103105328Y-60103792D01*
X103113200Y-60097139D01*
X103264052Y-59946812D01*
X103270730Y-59938965D01*
X103395003Y-59766020D01*
X103400313Y-59757183D01*
X103494670Y-59566267D01*
X103498469Y-59556672D01*
X103560377Y-59352910D01*
X103562555Y-59342837D01*
X103563986Y-59331962D01*
X103561775Y-59317778D01*
X103548617Y-59314000D01*
X98350116Y-59314000D01*
X98334877Y-59318475D01*
X98333672Y-59319865D01*
X98332001Y-59327548D01*
X98332001Y-59954669D01*
X98332371Y-59961490D01*
X98337895Y-60012352D01*
X98341521Y-60027604D01*
X98386676Y-60148054D01*
X98395214Y-60163649D01*
X98471715Y-60265724D01*
X98484276Y-60278285D01*
X98586351Y-60354786D01*
X98601946Y-60363324D01*
X98710827Y-60404142D01*
X98767591Y-60446784D01*
X98792291Y-60513345D01*
X98777083Y-60582694D01*
X98757691Y-60609175D01*
X98634200Y-60738401D01*
X98630629Y-60742138D01*
X98504743Y-60926680D01*
X98410688Y-61129305D01*
X98350989Y-61344570D01*
X98327251Y-61566695D01*
X98327548Y-61571848D01*
X98327548Y-61571851D01*
X98333011Y-61666590D01*
X98340110Y-61789715D01*
X98341247Y-61794761D01*
X98341248Y-61794767D01*
X98361119Y-61882939D01*
X98389222Y-62007639D01*
X98473266Y-62214616D01*
X98524019Y-62297438D01*
X98587291Y-62400688D01*
X98589987Y-62405088D01*
X98736250Y-62573938D01*
X98908126Y-62716632D01*
X98978595Y-62757811D01*
X98981445Y-62759476D01*
X99030169Y-62811114D01*
X99043240Y-62880897D01*
X99016509Y-62946669D01*
X98976055Y-62980027D01*
X98963607Y-62986507D01*
X98959474Y-62989610D01*
X98959471Y-62989612D01*
X98935247Y-63007800D01*
X98784965Y-63120635D01*
X98630629Y-63282138D01*
X98504743Y-63466680D01*
X98410688Y-63669305D01*
X98350989Y-63884570D01*
X98327251Y-64106695D01*
X98327548Y-64111848D01*
X98327548Y-64111851D01*
X98333011Y-64206590D01*
X98340110Y-64329715D01*
X98341247Y-64334761D01*
X98341248Y-64334767D01*
X98361119Y-64422939D01*
X98389222Y-64547639D01*
X98473266Y-64754616D01*
X98524019Y-64837438D01*
X98587291Y-64940688D01*
X98589987Y-64945088D01*
X98736250Y-65113938D01*
X98908126Y-65256632D01*
X98978595Y-65297811D01*
X98981445Y-65299476D01*
X99030169Y-65351114D01*
X99043240Y-65420897D01*
X99016509Y-65486669D01*
X98976055Y-65520027D01*
X98963607Y-65526507D01*
X98959474Y-65529610D01*
X98959471Y-65529612D01*
X98935247Y-65547800D01*
X98784965Y-65660635D01*
X98630629Y-65822138D01*
X98504743Y-66006680D01*
X98410688Y-66209305D01*
X98350989Y-66424570D01*
X98327251Y-66646695D01*
X95758500Y-66646695D01*
X95758500Y-58787885D01*
X98332000Y-58787885D01*
X98336475Y-58803124D01*
X98337865Y-58804329D01*
X98345548Y-58806000D01*
X99417885Y-58806000D01*
X99433124Y-58801525D01*
X99434329Y-58800135D01*
X99436000Y-58792452D01*
X99436000Y-58787885D01*
X99944000Y-58787885D01*
X99948475Y-58803124D01*
X99949865Y-58804329D01*
X99957548Y-58806000D01*
X101957885Y-58806000D01*
X101973124Y-58801525D01*
X101974329Y-58800135D01*
X101976000Y-58792452D01*
X101976000Y-58787885D01*
X102484000Y-58787885D01*
X102488475Y-58803124D01*
X102489865Y-58804329D01*
X102497548Y-58806000D01*
X103548344Y-58806000D01*
X103561875Y-58802027D01*
X103563180Y-58792947D01*
X103561909Y-58787885D01*
X186597000Y-58787885D01*
X186601475Y-58803124D01*
X186602865Y-58804329D01*
X186610548Y-58806000D01*
X187682885Y-58806000D01*
X187698124Y-58801525D01*
X187699329Y-58800135D01*
X187701000Y-58792452D01*
X187701000Y-58787885D01*
X188209000Y-58787885D01*
X188213475Y-58803124D01*
X188214865Y-58804329D01*
X188222548Y-58806000D01*
X190222885Y-58806000D01*
X190238124Y-58801525D01*
X190239329Y-58800135D01*
X190241000Y-58792452D01*
X190241000Y-58787885D01*
X190749000Y-58787885D01*
X190753475Y-58803124D01*
X190754865Y-58804329D01*
X190762548Y-58806000D01*
X191813344Y-58806000D01*
X191826875Y-58802027D01*
X191828180Y-58792947D01*
X191786214Y-58625875D01*
X191782894Y-58616124D01*
X191697972Y-58420814D01*
X191693105Y-58411739D01*
X191577426Y-58232926D01*
X191571136Y-58224757D01*
X191427806Y-58067240D01*
X191420273Y-58060215D01*
X191253139Y-57928222D01*
X191244552Y-57922517D01*
X191058117Y-57819599D01*
X191048705Y-57815369D01*
X190847959Y-57744280D01*
X190837988Y-57741646D01*
X190766837Y-57728972D01*
X190753540Y-57730432D01*
X190749000Y-57744989D01*
X190749000Y-58787885D01*
X190241000Y-58787885D01*
X190241000Y-57743102D01*
X190237082Y-57729758D01*
X190222806Y-57727771D01*
X190184324Y-57733660D01*
X190174288Y-57736051D01*
X189971868Y-57802212D01*
X189962359Y-57806209D01*
X189773463Y-57904542D01*
X189764738Y-57910036D01*
X189594433Y-58037905D01*
X189586726Y-58044748D01*
X189509094Y-58125985D01*
X189447570Y-58161415D01*
X189376657Y-58157958D01*
X189318871Y-58116712D01*
X189300018Y-58083164D01*
X189258324Y-57971946D01*
X189249786Y-57956351D01*
X189173285Y-57854276D01*
X189160724Y-57841715D01*
X189058649Y-57765214D01*
X189043054Y-57756676D01*
X188922606Y-57711522D01*
X188907351Y-57707895D01*
X188856486Y-57702369D01*
X188849672Y-57702000D01*
X188227115Y-57702000D01*
X188211876Y-57706475D01*
X188210671Y-57707865D01*
X188209000Y-57715548D01*
X188209000Y-58787885D01*
X187701000Y-58787885D01*
X187701000Y-57720116D01*
X187696525Y-57704877D01*
X187695135Y-57703672D01*
X187687452Y-57702001D01*
X187060331Y-57702001D01*
X187053510Y-57702371D01*
X187002648Y-57707895D01*
X186987396Y-57711521D01*
X186866946Y-57756676D01*
X186851351Y-57765214D01*
X186749276Y-57841715D01*
X186736715Y-57854276D01*
X186660214Y-57956351D01*
X186651676Y-57971946D01*
X186606522Y-58092394D01*
X186602895Y-58107649D01*
X186597369Y-58158514D01*
X186597000Y-58165328D01*
X186597000Y-58787885D01*
X103561909Y-58787885D01*
X103521214Y-58625875D01*
X103517894Y-58616124D01*
X103432972Y-58420814D01*
X103428105Y-58411739D01*
X103312426Y-58232926D01*
X103306136Y-58224757D01*
X103162806Y-58067240D01*
X103155273Y-58060215D01*
X102988139Y-57928222D01*
X102979552Y-57922517D01*
X102793117Y-57819599D01*
X102783705Y-57815369D01*
X102582959Y-57744280D01*
X102572988Y-57741646D01*
X102501837Y-57728972D01*
X102488540Y-57730432D01*
X102484000Y-57744989D01*
X102484000Y-58787885D01*
X101976000Y-58787885D01*
X101976000Y-57743102D01*
X101972082Y-57729758D01*
X101957806Y-57727771D01*
X101919324Y-57733660D01*
X101909288Y-57736051D01*
X101706868Y-57802212D01*
X101697359Y-57806209D01*
X101508463Y-57904542D01*
X101499738Y-57910036D01*
X101329433Y-58037905D01*
X101321726Y-58044748D01*
X101244094Y-58125985D01*
X101182570Y-58161415D01*
X101111657Y-58157958D01*
X101053871Y-58116712D01*
X101035018Y-58083164D01*
X100993324Y-57971946D01*
X100984786Y-57956351D01*
X100908285Y-57854276D01*
X100895724Y-57841715D01*
X100793649Y-57765214D01*
X100778054Y-57756676D01*
X100657606Y-57711522D01*
X100642351Y-57707895D01*
X100591486Y-57702369D01*
X100584672Y-57702000D01*
X99962115Y-57702000D01*
X99946876Y-57706475D01*
X99945671Y-57707865D01*
X99944000Y-57715548D01*
X99944000Y-58787885D01*
X99436000Y-58787885D01*
X99436000Y-57720116D01*
X99431525Y-57704877D01*
X99430135Y-57703672D01*
X99422452Y-57702001D01*
X98795331Y-57702001D01*
X98788510Y-57702371D01*
X98737648Y-57707895D01*
X98722396Y-57711521D01*
X98601946Y-57756676D01*
X98586351Y-57765214D01*
X98484276Y-57841715D01*
X98471715Y-57854276D01*
X98395214Y-57956351D01*
X98386676Y-57971946D01*
X98341522Y-58092394D01*
X98337895Y-58107649D01*
X98332369Y-58158514D01*
X98332000Y-58165328D01*
X98332000Y-58787885D01*
X95758500Y-58787885D01*
X95758500Y-56514500D01*
X95778502Y-56446379D01*
X95832158Y-56399886D01*
X95884500Y-56388500D01*
X194310500Y-56388500D01*
X194378621Y-56408502D01*
G37*
%TD.AperFunction*%
%TD*%
M02*
