G04 #@! TF.GenerationSoftware,KiCad,Pcbnew,(5.1.4)-1*
G04 #@! TF.CreationDate,2021-06-27T21:17:15+03:00*
G04 #@! TF.ProjectId,CPU,4350552e-6b69-4636-9164-5f7063625858,rev?*
G04 #@! TF.SameCoordinates,Original*
G04 #@! TF.FileFunction,Soldermask,Bot*
G04 #@! TF.FilePolarity,Negative*
%FSLAX46Y46*%
G04 Gerber Fmt 4.6, Leading zero omitted, Abs format (unit mm)*
G04 Created by KiCad (PCBNEW (5.1.4)-1) date 2021-06-27 21:17:15*
%MOMM*%
%LPD*%
G04 APERTURE LIST*
%ADD10C,0.100000*%
G04 APERTURE END LIST*
D10*
G36*
X104885443Y-128645519D02*
G01*
X104951627Y-128652037D01*
X105121466Y-128703557D01*
X105277991Y-128787222D01*
X105308768Y-128812480D01*
X105415186Y-128899814D01*
X105498448Y-129001271D01*
X105527778Y-129037009D01*
X105611443Y-129193534D01*
X105662963Y-129363373D01*
X105680359Y-129540000D01*
X105662963Y-129716627D01*
X105611443Y-129886466D01*
X105527778Y-130042991D01*
X105498448Y-130078729D01*
X105415186Y-130180186D01*
X105313729Y-130263448D01*
X105277991Y-130292778D01*
X105121466Y-130376443D01*
X104951627Y-130427963D01*
X104885443Y-130434481D01*
X104819260Y-130441000D01*
X104730740Y-130441000D01*
X104664557Y-130434481D01*
X104598373Y-130427963D01*
X104428534Y-130376443D01*
X104272009Y-130292778D01*
X104236271Y-130263448D01*
X104134814Y-130180186D01*
X104051552Y-130078729D01*
X104022222Y-130042991D01*
X103938557Y-129886466D01*
X103887037Y-129716627D01*
X103869641Y-129540000D01*
X103887037Y-129363373D01*
X103938557Y-129193534D01*
X104022222Y-129037009D01*
X104051552Y-129001271D01*
X104134814Y-128899814D01*
X104241232Y-128812480D01*
X104272009Y-128787222D01*
X104428534Y-128703557D01*
X104598373Y-128652037D01*
X104664557Y-128645519D01*
X104730740Y-128639000D01*
X104819260Y-128639000D01*
X104885443Y-128645519D01*
X104885443Y-128645519D01*
G37*
G36*
X102345443Y-128645519D02*
G01*
X102411627Y-128652037D01*
X102581466Y-128703557D01*
X102737991Y-128787222D01*
X102768768Y-128812480D01*
X102875186Y-128899814D01*
X102958448Y-129001271D01*
X102987778Y-129037009D01*
X103071443Y-129193534D01*
X103122963Y-129363373D01*
X103140359Y-129540000D01*
X103122963Y-129716627D01*
X103071443Y-129886466D01*
X102987778Y-130042991D01*
X102958448Y-130078729D01*
X102875186Y-130180186D01*
X102773729Y-130263448D01*
X102737991Y-130292778D01*
X102581466Y-130376443D01*
X102411627Y-130427963D01*
X102345443Y-130434481D01*
X102279260Y-130441000D01*
X102190740Y-130441000D01*
X102124557Y-130434481D01*
X102058373Y-130427963D01*
X101888534Y-130376443D01*
X101732009Y-130292778D01*
X101696271Y-130263448D01*
X101594814Y-130180186D01*
X101511552Y-130078729D01*
X101482222Y-130042991D01*
X101398557Y-129886466D01*
X101347037Y-129716627D01*
X101329641Y-129540000D01*
X101347037Y-129363373D01*
X101398557Y-129193534D01*
X101482222Y-129037009D01*
X101511552Y-129001271D01*
X101594814Y-128899814D01*
X101701232Y-128812480D01*
X101732009Y-128787222D01*
X101888534Y-128703557D01*
X102058373Y-128652037D01*
X102124557Y-128645519D01*
X102190740Y-128639000D01*
X102279260Y-128639000D01*
X102345443Y-128645519D01*
X102345443Y-128645519D01*
G37*
G36*
X147528228Y-127451703D02*
G01*
X147683100Y-127515853D01*
X147822481Y-127608985D01*
X147941015Y-127727519D01*
X148034147Y-127866900D01*
X148098297Y-128021772D01*
X148131000Y-128186184D01*
X148131000Y-128353816D01*
X148098297Y-128518228D01*
X148034147Y-128673100D01*
X147941015Y-128812481D01*
X147822481Y-128931015D01*
X147683100Y-129024147D01*
X147528228Y-129088297D01*
X147363816Y-129121000D01*
X147196184Y-129121000D01*
X147031772Y-129088297D01*
X146876900Y-129024147D01*
X146737519Y-128931015D01*
X146618985Y-128812481D01*
X146525853Y-128673100D01*
X146461703Y-128518228D01*
X146429000Y-128353816D01*
X146429000Y-128186184D01*
X146461703Y-128021772D01*
X146525853Y-127866900D01*
X146618985Y-127727519D01*
X146737519Y-127608985D01*
X146876900Y-127515853D01*
X147031772Y-127451703D01*
X147196184Y-127419000D01*
X147363816Y-127419000D01*
X147528228Y-127451703D01*
X147528228Y-127451703D01*
G37*
G36*
X145028228Y-127451703D02*
G01*
X145183100Y-127515853D01*
X145322481Y-127608985D01*
X145441015Y-127727519D01*
X145534147Y-127866900D01*
X145598297Y-128021772D01*
X145631000Y-128186184D01*
X145631000Y-128353816D01*
X145598297Y-128518228D01*
X145534147Y-128673100D01*
X145441015Y-128812481D01*
X145322481Y-128931015D01*
X145183100Y-129024147D01*
X145028228Y-129088297D01*
X144863816Y-129121000D01*
X144696184Y-129121000D01*
X144531772Y-129088297D01*
X144376900Y-129024147D01*
X144237519Y-128931015D01*
X144118985Y-128812481D01*
X144025853Y-128673100D01*
X143961703Y-128518228D01*
X143929000Y-128353816D01*
X143929000Y-128186184D01*
X143961703Y-128021772D01*
X144025853Y-127866900D01*
X144118985Y-127727519D01*
X144237519Y-127608985D01*
X144376900Y-127515853D01*
X144531772Y-127451703D01*
X144696184Y-127419000D01*
X144863816Y-127419000D01*
X145028228Y-127451703D01*
X145028228Y-127451703D01*
G37*
G36*
X104885443Y-126105519D02*
G01*
X104951627Y-126112037D01*
X105121466Y-126163557D01*
X105277991Y-126247222D01*
X105313729Y-126276552D01*
X105415186Y-126359814D01*
X105498448Y-126461271D01*
X105527778Y-126497009D01*
X105611443Y-126653534D01*
X105662963Y-126823373D01*
X105680359Y-127000000D01*
X105662963Y-127176627D01*
X105611443Y-127346466D01*
X105527778Y-127502991D01*
X105517223Y-127515852D01*
X105415186Y-127640186D01*
X105313729Y-127723448D01*
X105277991Y-127752778D01*
X105121466Y-127836443D01*
X104951627Y-127887963D01*
X104885442Y-127894482D01*
X104819260Y-127901000D01*
X104730740Y-127901000D01*
X104664558Y-127894482D01*
X104598373Y-127887963D01*
X104428534Y-127836443D01*
X104272009Y-127752778D01*
X104236271Y-127723448D01*
X104134814Y-127640186D01*
X104032777Y-127515852D01*
X104022222Y-127502991D01*
X103938557Y-127346466D01*
X103887037Y-127176627D01*
X103869641Y-127000000D01*
X103887037Y-126823373D01*
X103938557Y-126653534D01*
X104022222Y-126497009D01*
X104051552Y-126461271D01*
X104134814Y-126359814D01*
X104236271Y-126276552D01*
X104272009Y-126247222D01*
X104428534Y-126163557D01*
X104598373Y-126112037D01*
X104664557Y-126105519D01*
X104730740Y-126099000D01*
X104819260Y-126099000D01*
X104885443Y-126105519D01*
X104885443Y-126105519D01*
G37*
G36*
X102345443Y-126105519D02*
G01*
X102411627Y-126112037D01*
X102581466Y-126163557D01*
X102737991Y-126247222D01*
X102773729Y-126276552D01*
X102875186Y-126359814D01*
X102958448Y-126461271D01*
X102987778Y-126497009D01*
X103071443Y-126653534D01*
X103122963Y-126823373D01*
X103140359Y-127000000D01*
X103122963Y-127176627D01*
X103071443Y-127346466D01*
X102987778Y-127502991D01*
X102977223Y-127515852D01*
X102875186Y-127640186D01*
X102773729Y-127723448D01*
X102737991Y-127752778D01*
X102581466Y-127836443D01*
X102411627Y-127887963D01*
X102345442Y-127894482D01*
X102279260Y-127901000D01*
X102190740Y-127901000D01*
X102124558Y-127894482D01*
X102058373Y-127887963D01*
X101888534Y-127836443D01*
X101732009Y-127752778D01*
X101696271Y-127723448D01*
X101594814Y-127640186D01*
X101492777Y-127515852D01*
X101482222Y-127502991D01*
X101398557Y-127346466D01*
X101347037Y-127176627D01*
X101329641Y-127000000D01*
X101347037Y-126823373D01*
X101398557Y-126653534D01*
X101482222Y-126497009D01*
X101511552Y-126461271D01*
X101594814Y-126359814D01*
X101696271Y-126276552D01*
X101732009Y-126247222D01*
X101888534Y-126163557D01*
X102058373Y-126112037D01*
X102124557Y-126105519D01*
X102190740Y-126099000D01*
X102279260Y-126099000D01*
X102345443Y-126105519D01*
X102345443Y-126105519D01*
G37*
G36*
X104885442Y-123565518D02*
G01*
X104951627Y-123572037D01*
X105121466Y-123623557D01*
X105121468Y-123623558D01*
X105136893Y-123631803D01*
X105277991Y-123707222D01*
X105313729Y-123736552D01*
X105415186Y-123819814D01*
X105495139Y-123917239D01*
X105527778Y-123957009D01*
X105611443Y-124113534D01*
X105662963Y-124283373D01*
X105680359Y-124460000D01*
X105662963Y-124636627D01*
X105611443Y-124806466D01*
X105527778Y-124962991D01*
X105498448Y-124998729D01*
X105415186Y-125100186D01*
X105313729Y-125183448D01*
X105277991Y-125212778D01*
X105121466Y-125296443D01*
X104951627Y-125347963D01*
X104885442Y-125354482D01*
X104819260Y-125361000D01*
X104730740Y-125361000D01*
X104664558Y-125354482D01*
X104598373Y-125347963D01*
X104428534Y-125296443D01*
X104272009Y-125212778D01*
X104236271Y-125183448D01*
X104134814Y-125100186D01*
X104051552Y-124998729D01*
X104022222Y-124962991D01*
X103938557Y-124806466D01*
X103887037Y-124636627D01*
X103869641Y-124460000D01*
X103887037Y-124283373D01*
X103938557Y-124113534D01*
X104022222Y-123957009D01*
X104054861Y-123917239D01*
X104134814Y-123819814D01*
X104236271Y-123736552D01*
X104272009Y-123707222D01*
X104413107Y-123631803D01*
X104428532Y-123623558D01*
X104428534Y-123623557D01*
X104598373Y-123572037D01*
X104664558Y-123565518D01*
X104730740Y-123559000D01*
X104819260Y-123559000D01*
X104885442Y-123565518D01*
X104885442Y-123565518D01*
G37*
G36*
X102345442Y-123565518D02*
G01*
X102411627Y-123572037D01*
X102581466Y-123623557D01*
X102581468Y-123623558D01*
X102596893Y-123631803D01*
X102737991Y-123707222D01*
X102773729Y-123736552D01*
X102875186Y-123819814D01*
X102955139Y-123917239D01*
X102987778Y-123957009D01*
X103071443Y-124113534D01*
X103122963Y-124283373D01*
X103140359Y-124460000D01*
X103122963Y-124636627D01*
X103071443Y-124806466D01*
X102987778Y-124962991D01*
X102958448Y-124998729D01*
X102875186Y-125100186D01*
X102773729Y-125183448D01*
X102737991Y-125212778D01*
X102581466Y-125296443D01*
X102411627Y-125347963D01*
X102345442Y-125354482D01*
X102279260Y-125361000D01*
X102190740Y-125361000D01*
X102124558Y-125354482D01*
X102058373Y-125347963D01*
X101888534Y-125296443D01*
X101732009Y-125212778D01*
X101696271Y-125183448D01*
X101594814Y-125100186D01*
X101511552Y-124998729D01*
X101482222Y-124962991D01*
X101398557Y-124806466D01*
X101347037Y-124636627D01*
X101329641Y-124460000D01*
X101347037Y-124283373D01*
X101398557Y-124113534D01*
X101482222Y-123957009D01*
X101514861Y-123917239D01*
X101594814Y-123819814D01*
X101696271Y-123736552D01*
X101732009Y-123707222D01*
X101873107Y-123631803D01*
X101888532Y-123623558D01*
X101888534Y-123623557D01*
X102058373Y-123572037D01*
X102124558Y-123565518D01*
X102190740Y-123559000D01*
X102279260Y-123559000D01*
X102345442Y-123565518D01*
X102345442Y-123565518D01*
G37*
G36*
X122086822Y-121951313D02*
G01*
X122247241Y-121999976D01*
X122395077Y-122078995D01*
X122524659Y-122185341D01*
X122631004Y-122314922D01*
X122631005Y-122314924D01*
X122710024Y-122462758D01*
X122758687Y-122623177D01*
X122771000Y-122748196D01*
X122771000Y-123631803D01*
X122758687Y-123756822D01*
X122710024Y-123917242D01*
X122696374Y-123942779D01*
X122631004Y-124065078D01*
X122524659Y-124194659D01*
X122395078Y-124301004D01*
X122395076Y-124301005D01*
X122247242Y-124380024D01*
X122086823Y-124428687D01*
X121920000Y-124445117D01*
X121753178Y-124428687D01*
X121592759Y-124380024D01*
X121444925Y-124301005D01*
X121444923Y-124301004D01*
X121315342Y-124194659D01*
X121208997Y-124065078D01*
X121143627Y-123942779D01*
X121129977Y-123917242D01*
X121081314Y-123756823D01*
X121069000Y-123631803D01*
X121069000Y-122748197D01*
X121081313Y-122623178D01*
X121129976Y-122462759D01*
X121208995Y-122314923D01*
X121315341Y-122185341D01*
X121423439Y-122096627D01*
X121444922Y-122078996D01*
X121460094Y-122070886D01*
X121592758Y-121999976D01*
X121753177Y-121951313D01*
X121920000Y-121934883D01*
X122086822Y-121951313D01*
X122086822Y-121951313D01*
G37*
G36*
X119546822Y-121951313D02*
G01*
X119707241Y-121999976D01*
X119855077Y-122078995D01*
X119984659Y-122185341D01*
X120091004Y-122314922D01*
X120091005Y-122314924D01*
X120170024Y-122462758D01*
X120218687Y-122623177D01*
X120231000Y-122748196D01*
X120231000Y-123631803D01*
X120218687Y-123756822D01*
X120170024Y-123917242D01*
X120156374Y-123942779D01*
X120091004Y-124065078D01*
X119984659Y-124194659D01*
X119855078Y-124301004D01*
X119855076Y-124301005D01*
X119707242Y-124380024D01*
X119546823Y-124428687D01*
X119380000Y-124445117D01*
X119213178Y-124428687D01*
X119052759Y-124380024D01*
X118904925Y-124301005D01*
X118904923Y-124301004D01*
X118775342Y-124194659D01*
X118668997Y-124065078D01*
X118603627Y-123942779D01*
X118589977Y-123917242D01*
X118541314Y-123756823D01*
X118529000Y-123631803D01*
X118529000Y-122748197D01*
X118541313Y-122623178D01*
X118589976Y-122462759D01*
X118668995Y-122314923D01*
X118775341Y-122185341D01*
X118883439Y-122096627D01*
X118904922Y-122078996D01*
X118920094Y-122070886D01*
X119052758Y-121999976D01*
X119213177Y-121951313D01*
X119380000Y-121934883D01*
X119546822Y-121951313D01*
X119546822Y-121951313D01*
G37*
G36*
X124626822Y-121951313D02*
G01*
X124787241Y-121999976D01*
X124935077Y-122078995D01*
X125064659Y-122185341D01*
X125171004Y-122314922D01*
X125171005Y-122314924D01*
X125250024Y-122462758D01*
X125298687Y-122623177D01*
X125311000Y-122748196D01*
X125311000Y-123631803D01*
X125298687Y-123756822D01*
X125250024Y-123917242D01*
X125236374Y-123942779D01*
X125171004Y-124065078D01*
X125064659Y-124194659D01*
X124935078Y-124301004D01*
X124935076Y-124301005D01*
X124787242Y-124380024D01*
X124626823Y-124428687D01*
X124460000Y-124445117D01*
X124293178Y-124428687D01*
X124132759Y-124380024D01*
X123984925Y-124301005D01*
X123984923Y-124301004D01*
X123855342Y-124194659D01*
X123748997Y-124065078D01*
X123683627Y-123942779D01*
X123669977Y-123917242D01*
X123621314Y-123756823D01*
X123609000Y-123631803D01*
X123609000Y-122748197D01*
X123621313Y-122623178D01*
X123669976Y-122462759D01*
X123748995Y-122314923D01*
X123855341Y-122185341D01*
X123963439Y-122096627D01*
X123984922Y-122078996D01*
X124000094Y-122070886D01*
X124132758Y-121999976D01*
X124293177Y-121951313D01*
X124460000Y-121934883D01*
X124626822Y-121951313D01*
X124626822Y-121951313D01*
G37*
G36*
X127166822Y-121951313D02*
G01*
X127327241Y-121999976D01*
X127475077Y-122078995D01*
X127604659Y-122185341D01*
X127711004Y-122314922D01*
X127711005Y-122314924D01*
X127790024Y-122462758D01*
X127838687Y-122623177D01*
X127851000Y-122748196D01*
X127851000Y-123631803D01*
X127838687Y-123756822D01*
X127790024Y-123917242D01*
X127776374Y-123942779D01*
X127711004Y-124065078D01*
X127604659Y-124194659D01*
X127475078Y-124301004D01*
X127475076Y-124301005D01*
X127327242Y-124380024D01*
X127166823Y-124428687D01*
X127000000Y-124445117D01*
X126833178Y-124428687D01*
X126672759Y-124380024D01*
X126524925Y-124301005D01*
X126524923Y-124301004D01*
X126395342Y-124194659D01*
X126288997Y-124065078D01*
X126223627Y-123942779D01*
X126209977Y-123917242D01*
X126161314Y-123756823D01*
X126149000Y-123631803D01*
X126149000Y-122748197D01*
X126161313Y-122623178D01*
X126209976Y-122462759D01*
X126288995Y-122314923D01*
X126395341Y-122185341D01*
X126503439Y-122096627D01*
X126524922Y-122078996D01*
X126540094Y-122070886D01*
X126672758Y-121999976D01*
X126833177Y-121951313D01*
X127000000Y-121934883D01*
X127166822Y-121951313D01*
X127166822Y-121951313D01*
G37*
G36*
X129706822Y-121951313D02*
G01*
X129867241Y-121999976D01*
X130015077Y-122078995D01*
X130144659Y-122185341D01*
X130251004Y-122314922D01*
X130251005Y-122314924D01*
X130330024Y-122462758D01*
X130378687Y-122623177D01*
X130391000Y-122748196D01*
X130391000Y-123631803D01*
X130378687Y-123756822D01*
X130330024Y-123917242D01*
X130316374Y-123942779D01*
X130251004Y-124065078D01*
X130144659Y-124194659D01*
X130015078Y-124301004D01*
X130015076Y-124301005D01*
X129867242Y-124380024D01*
X129706823Y-124428687D01*
X129540000Y-124445117D01*
X129373178Y-124428687D01*
X129212759Y-124380024D01*
X129064925Y-124301005D01*
X129064923Y-124301004D01*
X128935342Y-124194659D01*
X128828997Y-124065078D01*
X128763627Y-123942779D01*
X128749977Y-123917242D01*
X128701314Y-123756823D01*
X128689000Y-123631803D01*
X128689000Y-122748197D01*
X128701313Y-122623178D01*
X128749976Y-122462759D01*
X128828995Y-122314923D01*
X128935341Y-122185341D01*
X129043439Y-122096627D01*
X129064922Y-122078996D01*
X129080094Y-122070886D01*
X129212758Y-121999976D01*
X129373177Y-121951313D01*
X129540000Y-121934883D01*
X129706822Y-121951313D01*
X129706822Y-121951313D01*
G37*
G36*
X132246822Y-121951313D02*
G01*
X132407241Y-121999976D01*
X132555077Y-122078995D01*
X132684659Y-122185341D01*
X132791004Y-122314922D01*
X132791005Y-122314924D01*
X132870024Y-122462758D01*
X132918687Y-122623177D01*
X132931000Y-122748196D01*
X132931000Y-123631803D01*
X132918687Y-123756822D01*
X132870024Y-123917242D01*
X132856374Y-123942779D01*
X132791004Y-124065078D01*
X132684659Y-124194659D01*
X132555078Y-124301004D01*
X132555076Y-124301005D01*
X132407242Y-124380024D01*
X132246823Y-124428687D01*
X132080000Y-124445117D01*
X131913178Y-124428687D01*
X131752759Y-124380024D01*
X131604925Y-124301005D01*
X131604923Y-124301004D01*
X131475342Y-124194659D01*
X131368997Y-124065078D01*
X131303627Y-123942779D01*
X131289977Y-123917242D01*
X131241314Y-123756823D01*
X131229000Y-123631803D01*
X131229000Y-122748197D01*
X131241313Y-122623178D01*
X131289976Y-122462759D01*
X131368995Y-122314923D01*
X131475341Y-122185341D01*
X131583439Y-122096627D01*
X131604922Y-122078996D01*
X131620094Y-122070886D01*
X131752758Y-121999976D01*
X131913177Y-121951313D01*
X132080000Y-121934883D01*
X132246822Y-121951313D01*
X132246822Y-121951313D01*
G37*
G36*
X134786822Y-121951313D02*
G01*
X134947241Y-121999976D01*
X135095077Y-122078995D01*
X135224659Y-122185341D01*
X135331004Y-122314922D01*
X135331005Y-122314924D01*
X135410024Y-122462758D01*
X135458687Y-122623177D01*
X135471000Y-122748196D01*
X135471000Y-123631803D01*
X135458687Y-123756822D01*
X135410024Y-123917242D01*
X135396374Y-123942779D01*
X135331004Y-124065078D01*
X135224659Y-124194659D01*
X135095078Y-124301004D01*
X135095076Y-124301005D01*
X134947242Y-124380024D01*
X134786823Y-124428687D01*
X134620000Y-124445117D01*
X134453178Y-124428687D01*
X134292759Y-124380024D01*
X134144925Y-124301005D01*
X134144923Y-124301004D01*
X134015342Y-124194659D01*
X133908997Y-124065078D01*
X133843627Y-123942779D01*
X133829977Y-123917242D01*
X133781314Y-123756823D01*
X133769000Y-123631803D01*
X133769000Y-122748197D01*
X133781313Y-122623178D01*
X133829976Y-122462759D01*
X133908995Y-122314923D01*
X134015341Y-122185341D01*
X134123439Y-122096627D01*
X134144922Y-122078996D01*
X134160094Y-122070886D01*
X134292758Y-121999976D01*
X134453177Y-121951313D01*
X134620000Y-121934883D01*
X134786822Y-121951313D01*
X134786822Y-121951313D01*
G37*
G36*
X137326822Y-121951313D02*
G01*
X137487241Y-121999976D01*
X137635077Y-122078995D01*
X137764659Y-122185341D01*
X137871004Y-122314922D01*
X137871005Y-122314924D01*
X137950024Y-122462758D01*
X137998687Y-122623177D01*
X138011000Y-122748196D01*
X138011000Y-123631803D01*
X137998687Y-123756822D01*
X137950024Y-123917242D01*
X137936374Y-123942779D01*
X137871004Y-124065078D01*
X137764659Y-124194659D01*
X137635078Y-124301004D01*
X137635076Y-124301005D01*
X137487242Y-124380024D01*
X137326823Y-124428687D01*
X137160000Y-124445117D01*
X136993178Y-124428687D01*
X136832759Y-124380024D01*
X136684925Y-124301005D01*
X136684923Y-124301004D01*
X136555342Y-124194659D01*
X136448997Y-124065078D01*
X136383627Y-123942779D01*
X136369977Y-123917242D01*
X136321314Y-123756823D01*
X136309000Y-123631803D01*
X136309000Y-122748197D01*
X136321313Y-122623178D01*
X136369976Y-122462759D01*
X136448995Y-122314923D01*
X136555341Y-122185341D01*
X136663439Y-122096627D01*
X136684922Y-122078996D01*
X136700094Y-122070886D01*
X136832758Y-121999976D01*
X136993177Y-121951313D01*
X137160000Y-121934883D01*
X137326822Y-121951313D01*
X137326822Y-121951313D01*
G37*
G36*
X139866822Y-121951313D02*
G01*
X140027241Y-121999976D01*
X140175077Y-122078995D01*
X140304659Y-122185341D01*
X140411004Y-122314922D01*
X140411005Y-122314924D01*
X140490024Y-122462758D01*
X140538687Y-122623177D01*
X140551000Y-122748196D01*
X140551000Y-123631803D01*
X140538687Y-123756822D01*
X140490024Y-123917242D01*
X140476374Y-123942779D01*
X140411004Y-124065078D01*
X140304659Y-124194659D01*
X140175078Y-124301004D01*
X140175076Y-124301005D01*
X140027242Y-124380024D01*
X139866823Y-124428687D01*
X139700000Y-124445117D01*
X139533178Y-124428687D01*
X139372759Y-124380024D01*
X139224925Y-124301005D01*
X139224923Y-124301004D01*
X139095342Y-124194659D01*
X138988997Y-124065078D01*
X138923627Y-123942779D01*
X138909977Y-123917242D01*
X138861314Y-123756823D01*
X138849000Y-123631803D01*
X138849000Y-122748197D01*
X138861313Y-122623178D01*
X138909976Y-122462759D01*
X138988995Y-122314923D01*
X139095341Y-122185341D01*
X139203439Y-122096627D01*
X139224922Y-122078996D01*
X139240094Y-122070886D01*
X139372758Y-121999976D01*
X139533177Y-121951313D01*
X139700000Y-121934883D01*
X139866822Y-121951313D01*
X139866822Y-121951313D01*
G37*
G36*
X144946822Y-121951313D02*
G01*
X145107241Y-121999976D01*
X145255077Y-122078995D01*
X145384659Y-122185341D01*
X145491004Y-122314922D01*
X145491005Y-122314924D01*
X145570024Y-122462758D01*
X145618687Y-122623177D01*
X145631000Y-122748196D01*
X145631000Y-123631803D01*
X145618687Y-123756822D01*
X145570024Y-123917242D01*
X145556374Y-123942779D01*
X145491004Y-124065078D01*
X145384659Y-124194659D01*
X145255078Y-124301004D01*
X145255076Y-124301005D01*
X145107242Y-124380024D01*
X144946823Y-124428687D01*
X144780000Y-124445117D01*
X144613178Y-124428687D01*
X144452759Y-124380024D01*
X144304925Y-124301005D01*
X144304923Y-124301004D01*
X144175342Y-124194659D01*
X144068997Y-124065078D01*
X144003627Y-123942779D01*
X143989977Y-123917242D01*
X143941314Y-123756823D01*
X143929000Y-123631803D01*
X143929000Y-122748197D01*
X143941313Y-122623178D01*
X143989976Y-122462759D01*
X144068995Y-122314923D01*
X144175341Y-122185341D01*
X144283439Y-122096627D01*
X144304922Y-122078996D01*
X144320094Y-122070886D01*
X144452758Y-121999976D01*
X144613177Y-121951313D01*
X144780000Y-121934883D01*
X144946822Y-121951313D01*
X144946822Y-121951313D01*
G37*
G36*
X147486822Y-121951313D02*
G01*
X147647241Y-121999976D01*
X147795077Y-122078995D01*
X147924659Y-122185341D01*
X148031004Y-122314922D01*
X148031005Y-122314924D01*
X148110024Y-122462758D01*
X148158687Y-122623177D01*
X148171000Y-122748196D01*
X148171000Y-123631803D01*
X148158687Y-123756822D01*
X148110024Y-123917242D01*
X148096374Y-123942779D01*
X148031004Y-124065078D01*
X147924659Y-124194659D01*
X147795078Y-124301004D01*
X147795076Y-124301005D01*
X147647242Y-124380024D01*
X147486823Y-124428687D01*
X147320000Y-124445117D01*
X147153178Y-124428687D01*
X146992759Y-124380024D01*
X146844925Y-124301005D01*
X146844923Y-124301004D01*
X146715342Y-124194659D01*
X146608997Y-124065078D01*
X146543627Y-123942779D01*
X146529977Y-123917242D01*
X146481314Y-123756823D01*
X146469000Y-123631803D01*
X146469000Y-122748197D01*
X146481313Y-122623178D01*
X146529976Y-122462759D01*
X146608995Y-122314923D01*
X146715341Y-122185341D01*
X146823439Y-122096627D01*
X146844922Y-122078996D01*
X146860094Y-122070886D01*
X146992758Y-121999976D01*
X147153177Y-121951313D01*
X147320000Y-121934883D01*
X147486822Y-121951313D01*
X147486822Y-121951313D01*
G37*
G36*
X150026822Y-121951313D02*
G01*
X150187241Y-121999976D01*
X150335077Y-122078995D01*
X150464659Y-122185341D01*
X150571004Y-122314922D01*
X150571005Y-122314924D01*
X150650024Y-122462758D01*
X150698687Y-122623177D01*
X150711000Y-122748196D01*
X150711000Y-123631803D01*
X150698687Y-123756822D01*
X150650024Y-123917242D01*
X150636374Y-123942779D01*
X150571004Y-124065078D01*
X150464659Y-124194659D01*
X150335078Y-124301004D01*
X150335076Y-124301005D01*
X150187242Y-124380024D01*
X150026823Y-124428687D01*
X149860000Y-124445117D01*
X149693178Y-124428687D01*
X149532759Y-124380024D01*
X149384925Y-124301005D01*
X149384923Y-124301004D01*
X149255342Y-124194659D01*
X149148997Y-124065078D01*
X149083627Y-123942779D01*
X149069977Y-123917242D01*
X149021314Y-123756823D01*
X149009000Y-123631803D01*
X149009000Y-122748197D01*
X149021313Y-122623178D01*
X149069976Y-122462759D01*
X149148995Y-122314923D01*
X149255341Y-122185341D01*
X149363439Y-122096627D01*
X149384922Y-122078996D01*
X149400094Y-122070886D01*
X149532758Y-121999976D01*
X149693177Y-121951313D01*
X149860000Y-121934883D01*
X150026822Y-121951313D01*
X150026822Y-121951313D01*
G37*
G36*
X152566822Y-121951313D02*
G01*
X152727241Y-121999976D01*
X152875077Y-122078995D01*
X153004659Y-122185341D01*
X153111004Y-122314922D01*
X153111005Y-122314924D01*
X153190024Y-122462758D01*
X153238687Y-122623177D01*
X153251000Y-122748196D01*
X153251000Y-123631803D01*
X153238687Y-123756822D01*
X153190024Y-123917242D01*
X153176374Y-123942779D01*
X153111004Y-124065078D01*
X153004659Y-124194659D01*
X152875078Y-124301004D01*
X152875076Y-124301005D01*
X152727242Y-124380024D01*
X152566823Y-124428687D01*
X152400000Y-124445117D01*
X152233178Y-124428687D01*
X152072759Y-124380024D01*
X151924925Y-124301005D01*
X151924923Y-124301004D01*
X151795342Y-124194659D01*
X151688997Y-124065078D01*
X151623627Y-123942779D01*
X151609977Y-123917242D01*
X151561314Y-123756823D01*
X151549000Y-123631803D01*
X151549000Y-122748197D01*
X151561313Y-122623178D01*
X151609976Y-122462759D01*
X151688995Y-122314923D01*
X151795341Y-122185341D01*
X151903439Y-122096627D01*
X151924922Y-122078996D01*
X151940094Y-122070886D01*
X152072758Y-121999976D01*
X152233177Y-121951313D01*
X152400000Y-121934883D01*
X152566822Y-121951313D01*
X152566822Y-121951313D01*
G37*
G36*
X155106822Y-121951313D02*
G01*
X155267241Y-121999976D01*
X155415077Y-122078995D01*
X155544659Y-122185341D01*
X155651004Y-122314922D01*
X155651005Y-122314924D01*
X155730024Y-122462758D01*
X155778687Y-122623177D01*
X155791000Y-122748196D01*
X155791000Y-123631803D01*
X155778687Y-123756822D01*
X155730024Y-123917242D01*
X155716374Y-123942779D01*
X155651004Y-124065078D01*
X155544659Y-124194659D01*
X155415078Y-124301004D01*
X155415076Y-124301005D01*
X155267242Y-124380024D01*
X155106823Y-124428687D01*
X154940000Y-124445117D01*
X154773178Y-124428687D01*
X154612759Y-124380024D01*
X154464925Y-124301005D01*
X154464923Y-124301004D01*
X154335342Y-124194659D01*
X154228997Y-124065078D01*
X154163627Y-123942779D01*
X154149977Y-123917242D01*
X154101314Y-123756823D01*
X154089000Y-123631803D01*
X154089000Y-122748197D01*
X154101313Y-122623178D01*
X154149976Y-122462759D01*
X154228995Y-122314923D01*
X154335341Y-122185341D01*
X154443439Y-122096627D01*
X154464922Y-122078996D01*
X154480094Y-122070886D01*
X154612758Y-121999976D01*
X154773177Y-121951313D01*
X154940000Y-121934883D01*
X155106822Y-121951313D01*
X155106822Y-121951313D01*
G37*
G36*
X157646822Y-121951313D02*
G01*
X157807241Y-121999976D01*
X157955077Y-122078995D01*
X158084659Y-122185341D01*
X158191004Y-122314922D01*
X158191005Y-122314924D01*
X158270024Y-122462758D01*
X158318687Y-122623177D01*
X158331000Y-122748196D01*
X158331000Y-123631803D01*
X158318687Y-123756822D01*
X158270024Y-123917242D01*
X158256374Y-123942779D01*
X158191004Y-124065078D01*
X158084659Y-124194659D01*
X157955078Y-124301004D01*
X157955076Y-124301005D01*
X157807242Y-124380024D01*
X157646823Y-124428687D01*
X157480000Y-124445117D01*
X157313178Y-124428687D01*
X157152759Y-124380024D01*
X157004925Y-124301005D01*
X157004923Y-124301004D01*
X156875342Y-124194659D01*
X156768997Y-124065078D01*
X156703627Y-123942779D01*
X156689977Y-123917242D01*
X156641314Y-123756823D01*
X156629000Y-123631803D01*
X156629000Y-122748197D01*
X156641313Y-122623178D01*
X156689976Y-122462759D01*
X156768995Y-122314923D01*
X156875341Y-122185341D01*
X156983439Y-122096627D01*
X157004922Y-122078996D01*
X157020094Y-122070886D01*
X157152758Y-121999976D01*
X157313177Y-121951313D01*
X157480000Y-121934883D01*
X157646822Y-121951313D01*
X157646822Y-121951313D01*
G37*
G36*
X160186822Y-121951313D02*
G01*
X160347241Y-121999976D01*
X160495077Y-122078995D01*
X160624659Y-122185341D01*
X160731004Y-122314922D01*
X160731005Y-122314924D01*
X160810024Y-122462758D01*
X160858687Y-122623177D01*
X160871000Y-122748196D01*
X160871000Y-123631803D01*
X160858687Y-123756822D01*
X160810024Y-123917242D01*
X160796374Y-123942779D01*
X160731004Y-124065078D01*
X160624659Y-124194659D01*
X160495078Y-124301004D01*
X160495076Y-124301005D01*
X160347242Y-124380024D01*
X160186823Y-124428687D01*
X160020000Y-124445117D01*
X159853178Y-124428687D01*
X159692759Y-124380024D01*
X159544925Y-124301005D01*
X159544923Y-124301004D01*
X159415342Y-124194659D01*
X159308997Y-124065078D01*
X159243627Y-123942779D01*
X159229977Y-123917242D01*
X159181314Y-123756823D01*
X159169000Y-123631803D01*
X159169000Y-122748197D01*
X159181313Y-122623178D01*
X159229976Y-122462759D01*
X159308995Y-122314923D01*
X159415341Y-122185341D01*
X159523439Y-122096627D01*
X159544922Y-122078996D01*
X159560094Y-122070886D01*
X159692758Y-121999976D01*
X159853177Y-121951313D01*
X160020000Y-121934883D01*
X160186822Y-121951313D01*
X160186822Y-121951313D01*
G37*
G36*
X162726822Y-121951313D02*
G01*
X162887241Y-121999976D01*
X163035077Y-122078995D01*
X163164659Y-122185341D01*
X163271004Y-122314922D01*
X163271005Y-122314924D01*
X163350024Y-122462758D01*
X163398687Y-122623177D01*
X163411000Y-122748196D01*
X163411000Y-123631803D01*
X163398687Y-123756822D01*
X163350024Y-123917242D01*
X163336374Y-123942779D01*
X163271004Y-124065078D01*
X163164659Y-124194659D01*
X163035078Y-124301004D01*
X163035076Y-124301005D01*
X162887242Y-124380024D01*
X162726823Y-124428687D01*
X162560000Y-124445117D01*
X162393178Y-124428687D01*
X162232759Y-124380024D01*
X162084925Y-124301005D01*
X162084923Y-124301004D01*
X161955342Y-124194659D01*
X161848997Y-124065078D01*
X161783627Y-123942779D01*
X161769977Y-123917242D01*
X161721314Y-123756823D01*
X161709000Y-123631803D01*
X161709000Y-122748197D01*
X161721313Y-122623178D01*
X161769976Y-122462759D01*
X161848995Y-122314923D01*
X161955341Y-122185341D01*
X162063439Y-122096627D01*
X162084922Y-122078996D01*
X162100094Y-122070886D01*
X162232758Y-121999976D01*
X162393177Y-121951313D01*
X162560000Y-121934883D01*
X162726822Y-121951313D01*
X162726822Y-121951313D01*
G37*
G36*
X165266822Y-121951313D02*
G01*
X165427241Y-121999976D01*
X165575077Y-122078995D01*
X165704659Y-122185341D01*
X165811004Y-122314922D01*
X165811005Y-122314924D01*
X165890024Y-122462758D01*
X165938687Y-122623177D01*
X165951000Y-122748196D01*
X165951000Y-123631803D01*
X165938687Y-123756822D01*
X165890024Y-123917242D01*
X165876374Y-123942779D01*
X165811004Y-124065078D01*
X165704659Y-124194659D01*
X165575078Y-124301004D01*
X165575076Y-124301005D01*
X165427242Y-124380024D01*
X165266823Y-124428687D01*
X165100000Y-124445117D01*
X164933178Y-124428687D01*
X164772759Y-124380024D01*
X164624925Y-124301005D01*
X164624923Y-124301004D01*
X164495342Y-124194659D01*
X164388997Y-124065078D01*
X164323627Y-123942779D01*
X164309977Y-123917242D01*
X164261314Y-123756823D01*
X164249000Y-123631803D01*
X164249000Y-122748197D01*
X164261313Y-122623178D01*
X164309976Y-122462759D01*
X164388995Y-122314923D01*
X164495341Y-122185341D01*
X164603439Y-122096627D01*
X164624922Y-122078996D01*
X164640094Y-122070886D01*
X164772758Y-121999976D01*
X164933177Y-121951313D01*
X165100000Y-121934883D01*
X165266822Y-121951313D01*
X165266822Y-121951313D01*
G37*
G36*
X142406822Y-121951313D02*
G01*
X142567241Y-121999976D01*
X142715077Y-122078995D01*
X142844659Y-122185341D01*
X142951004Y-122314922D01*
X142951005Y-122314924D01*
X143030024Y-122462758D01*
X143078687Y-122623177D01*
X143091000Y-122748196D01*
X143091000Y-123631803D01*
X143078687Y-123756822D01*
X143030024Y-123917242D01*
X143016374Y-123942779D01*
X142951004Y-124065078D01*
X142844659Y-124194659D01*
X142715078Y-124301004D01*
X142715076Y-124301005D01*
X142567242Y-124380024D01*
X142406823Y-124428687D01*
X142240000Y-124445117D01*
X142073178Y-124428687D01*
X141912759Y-124380024D01*
X141764925Y-124301005D01*
X141764923Y-124301004D01*
X141635342Y-124194659D01*
X141528997Y-124065078D01*
X141463627Y-123942779D01*
X141449977Y-123917242D01*
X141401314Y-123756823D01*
X141389000Y-123631803D01*
X141389000Y-122748197D01*
X141401313Y-122623178D01*
X141449976Y-122462759D01*
X141528995Y-122314923D01*
X141635341Y-122185341D01*
X141743439Y-122096627D01*
X141764922Y-122078996D01*
X141780094Y-122070886D01*
X141912758Y-121999976D01*
X142073177Y-121951313D01*
X142240000Y-121934883D01*
X142406822Y-121951313D01*
X142406822Y-121951313D01*
G37*
G36*
X117691000Y-124441000D02*
G01*
X115989000Y-124441000D01*
X115989000Y-121939000D01*
X117691000Y-121939000D01*
X117691000Y-124441000D01*
X117691000Y-124441000D01*
G37*
G36*
X171716000Y-124091000D02*
G01*
X169914000Y-124091000D01*
X169914000Y-122289000D01*
X171716000Y-122289000D01*
X171716000Y-124091000D01*
X171716000Y-124091000D01*
G37*
G36*
X173465443Y-122295519D02*
G01*
X173531627Y-122302037D01*
X173701466Y-122353557D01*
X173857991Y-122437222D01*
X173889106Y-122462758D01*
X173995186Y-122549814D01*
X174078448Y-122651271D01*
X174107778Y-122687009D01*
X174191443Y-122843534D01*
X174242963Y-123013373D01*
X174260359Y-123190000D01*
X174242963Y-123366627D01*
X174191443Y-123536466D01*
X174107778Y-123692991D01*
X174078448Y-123728729D01*
X173995186Y-123830186D01*
X173893729Y-123913448D01*
X173857991Y-123942778D01*
X173701466Y-124026443D01*
X173531627Y-124077963D01*
X173465442Y-124084482D01*
X173399260Y-124091000D01*
X173310740Y-124091000D01*
X173244558Y-124084482D01*
X173178373Y-124077963D01*
X173008534Y-124026443D01*
X172852009Y-123942778D01*
X172816271Y-123913448D01*
X172714814Y-123830186D01*
X172631552Y-123728729D01*
X172602222Y-123692991D01*
X172518557Y-123536466D01*
X172467037Y-123366627D01*
X172449641Y-123190000D01*
X172467037Y-123013373D01*
X172518557Y-122843534D01*
X172602222Y-122687009D01*
X172631552Y-122651271D01*
X172714814Y-122549814D01*
X172820894Y-122462758D01*
X172852009Y-122437222D01*
X173008534Y-122353557D01*
X173178373Y-122302037D01*
X173244557Y-122295519D01*
X173310740Y-122289000D01*
X173399260Y-122289000D01*
X173465443Y-122295519D01*
X173465443Y-122295519D01*
G37*
G36*
X102345442Y-121025518D02*
G01*
X102411627Y-121032037D01*
X102581466Y-121083557D01*
X102737991Y-121167222D01*
X102773729Y-121196552D01*
X102875186Y-121279814D01*
X102958448Y-121381271D01*
X102987778Y-121417009D01*
X103071443Y-121573534D01*
X103122963Y-121743373D01*
X103140359Y-121920000D01*
X103122963Y-122096627D01*
X103071443Y-122266466D01*
X102987778Y-122422991D01*
X102958448Y-122458729D01*
X102875186Y-122560186D01*
X102773729Y-122643448D01*
X102737991Y-122672778D01*
X102737989Y-122672779D01*
X102596888Y-122748200D01*
X102581466Y-122756443D01*
X102411627Y-122807963D01*
X102345443Y-122814481D01*
X102279260Y-122821000D01*
X102190740Y-122821000D01*
X102124557Y-122814481D01*
X102058373Y-122807963D01*
X101888534Y-122756443D01*
X101873113Y-122748200D01*
X101732011Y-122672779D01*
X101732009Y-122672778D01*
X101696271Y-122643448D01*
X101594814Y-122560186D01*
X101511552Y-122458729D01*
X101482222Y-122422991D01*
X101398557Y-122266466D01*
X101347037Y-122096627D01*
X101329641Y-121920000D01*
X101347037Y-121743373D01*
X101398557Y-121573534D01*
X101482222Y-121417009D01*
X101511552Y-121381271D01*
X101594814Y-121279814D01*
X101696271Y-121196552D01*
X101732009Y-121167222D01*
X101888534Y-121083557D01*
X102058373Y-121032037D01*
X102124558Y-121025518D01*
X102190740Y-121019000D01*
X102279260Y-121019000D01*
X102345442Y-121025518D01*
X102345442Y-121025518D01*
G37*
G36*
X104885442Y-121025518D02*
G01*
X104951627Y-121032037D01*
X105121466Y-121083557D01*
X105277991Y-121167222D01*
X105313729Y-121196552D01*
X105415186Y-121279814D01*
X105498448Y-121381271D01*
X105527778Y-121417009D01*
X105611443Y-121573534D01*
X105662963Y-121743373D01*
X105680359Y-121920000D01*
X105662963Y-122096627D01*
X105611443Y-122266466D01*
X105527778Y-122422991D01*
X105498448Y-122458729D01*
X105415186Y-122560186D01*
X105313729Y-122643448D01*
X105277991Y-122672778D01*
X105277989Y-122672779D01*
X105136888Y-122748200D01*
X105121466Y-122756443D01*
X104951627Y-122807963D01*
X104885443Y-122814481D01*
X104819260Y-122821000D01*
X104730740Y-122821000D01*
X104664557Y-122814481D01*
X104598373Y-122807963D01*
X104428534Y-122756443D01*
X104413113Y-122748200D01*
X104272011Y-122672779D01*
X104272009Y-122672778D01*
X104236271Y-122643448D01*
X104134814Y-122560186D01*
X104051552Y-122458729D01*
X104022222Y-122422991D01*
X103938557Y-122266466D01*
X103887037Y-122096627D01*
X103869641Y-121920000D01*
X103887037Y-121743373D01*
X103938557Y-121573534D01*
X104022222Y-121417009D01*
X104051552Y-121381271D01*
X104134814Y-121279814D01*
X104236271Y-121196552D01*
X104272009Y-121167222D01*
X104428534Y-121083557D01*
X104598373Y-121032037D01*
X104664558Y-121025518D01*
X104730740Y-121019000D01*
X104819260Y-121019000D01*
X104885442Y-121025518D01*
X104885442Y-121025518D01*
G37*
G36*
X111291823Y-121081313D02*
G01*
X111452242Y-121129976D01*
X111521922Y-121167221D01*
X111600078Y-121208996D01*
X111729659Y-121315341D01*
X111836004Y-121444922D01*
X111836005Y-121444924D01*
X111915024Y-121592758D01*
X111963687Y-121753177D01*
X111980117Y-121920000D01*
X111963687Y-122086823D01*
X111915024Y-122247242D01*
X111878847Y-122314924D01*
X111836004Y-122395078D01*
X111729659Y-122524659D01*
X111600078Y-122631004D01*
X111600076Y-122631005D01*
X111452242Y-122710024D01*
X111291823Y-122758687D01*
X111166804Y-122771000D01*
X111083196Y-122771000D01*
X110958177Y-122758687D01*
X110797758Y-122710024D01*
X110649924Y-122631005D01*
X110649922Y-122631004D01*
X110520341Y-122524659D01*
X110413996Y-122395078D01*
X110371153Y-122314924D01*
X110334976Y-122247242D01*
X110286313Y-122086823D01*
X110269883Y-121920000D01*
X110286313Y-121753177D01*
X110334976Y-121592758D01*
X110413995Y-121444924D01*
X110413996Y-121444922D01*
X110520341Y-121315341D01*
X110649922Y-121208996D01*
X110728078Y-121167221D01*
X110797758Y-121129976D01*
X110958177Y-121081313D01*
X111083196Y-121069000D01*
X111166804Y-121069000D01*
X111291823Y-121081313D01*
X111291823Y-121081313D01*
G37*
G36*
X188070443Y-119120519D02*
G01*
X188136627Y-119127037D01*
X188306466Y-119178557D01*
X188462991Y-119262222D01*
X188498729Y-119291552D01*
X188600186Y-119374814D01*
X188683448Y-119476271D01*
X188712778Y-119512009D01*
X188796443Y-119668534D01*
X188847963Y-119838373D01*
X188865359Y-120015000D01*
X188847963Y-120191627D01*
X188796443Y-120361466D01*
X188712778Y-120517991D01*
X188683448Y-120553729D01*
X188600186Y-120655186D01*
X188498729Y-120738448D01*
X188462991Y-120767778D01*
X188306466Y-120851443D01*
X188136627Y-120902963D01*
X188070442Y-120909482D01*
X188004260Y-120916000D01*
X187915740Y-120916000D01*
X187849558Y-120909482D01*
X187783373Y-120902963D01*
X187613534Y-120851443D01*
X187457009Y-120767778D01*
X187421271Y-120738448D01*
X187319814Y-120655186D01*
X187236552Y-120553729D01*
X187207222Y-120517991D01*
X187123557Y-120361466D01*
X187072037Y-120191627D01*
X187054641Y-120015000D01*
X187072037Y-119838373D01*
X187123557Y-119668534D01*
X187207222Y-119512009D01*
X187236552Y-119476271D01*
X187319814Y-119374814D01*
X187421271Y-119291552D01*
X187457009Y-119262222D01*
X187613534Y-119178557D01*
X187783373Y-119127037D01*
X187849557Y-119120519D01*
X187915740Y-119114000D01*
X188004260Y-119114000D01*
X188070443Y-119120519D01*
X188070443Y-119120519D01*
G37*
G36*
X190610443Y-119120519D02*
G01*
X190676627Y-119127037D01*
X190846466Y-119178557D01*
X191002991Y-119262222D01*
X191038729Y-119291552D01*
X191140186Y-119374814D01*
X191223448Y-119476271D01*
X191252778Y-119512009D01*
X191336443Y-119668534D01*
X191387963Y-119838373D01*
X191405359Y-120015000D01*
X191387963Y-120191627D01*
X191336443Y-120361466D01*
X191252778Y-120517991D01*
X191223448Y-120553729D01*
X191140186Y-120655186D01*
X191038729Y-120738448D01*
X191002991Y-120767778D01*
X190846466Y-120851443D01*
X190676627Y-120902963D01*
X190610442Y-120909482D01*
X190544260Y-120916000D01*
X190455740Y-120916000D01*
X190389558Y-120909482D01*
X190323373Y-120902963D01*
X190153534Y-120851443D01*
X189997009Y-120767778D01*
X189961271Y-120738448D01*
X189859814Y-120655186D01*
X189776552Y-120553729D01*
X189747222Y-120517991D01*
X189663557Y-120361466D01*
X189612037Y-120191627D01*
X189594641Y-120015000D01*
X189612037Y-119838373D01*
X189663557Y-119668534D01*
X189747222Y-119512009D01*
X189776552Y-119476271D01*
X189859814Y-119374814D01*
X189961271Y-119291552D01*
X189997009Y-119262222D01*
X190153534Y-119178557D01*
X190323373Y-119127037D01*
X190389557Y-119120519D01*
X190455740Y-119114000D01*
X190544260Y-119114000D01*
X190610443Y-119120519D01*
X190610443Y-119120519D01*
G37*
G36*
X102345442Y-118485518D02*
G01*
X102411627Y-118492037D01*
X102581466Y-118543557D01*
X102737991Y-118627222D01*
X102773729Y-118656552D01*
X102875186Y-118739814D01*
X102958448Y-118841271D01*
X102987778Y-118877009D01*
X103071443Y-119033534D01*
X103122963Y-119203373D01*
X103140359Y-119380000D01*
X103122963Y-119556627D01*
X103071443Y-119726466D01*
X102987778Y-119882991D01*
X102958448Y-119918729D01*
X102875186Y-120020186D01*
X102773729Y-120103448D01*
X102737991Y-120132778D01*
X102581466Y-120216443D01*
X102411627Y-120267963D01*
X102345442Y-120274482D01*
X102279260Y-120281000D01*
X102190740Y-120281000D01*
X102124558Y-120274482D01*
X102058373Y-120267963D01*
X101888534Y-120216443D01*
X101732009Y-120132778D01*
X101696271Y-120103448D01*
X101594814Y-120020186D01*
X101511552Y-119918729D01*
X101482222Y-119882991D01*
X101398557Y-119726466D01*
X101347037Y-119556627D01*
X101329641Y-119380000D01*
X101347037Y-119203373D01*
X101398557Y-119033534D01*
X101482222Y-118877009D01*
X101511552Y-118841271D01*
X101594814Y-118739814D01*
X101696271Y-118656552D01*
X101732009Y-118627222D01*
X101888534Y-118543557D01*
X102058373Y-118492037D01*
X102124558Y-118485518D01*
X102190740Y-118479000D01*
X102279260Y-118479000D01*
X102345442Y-118485518D01*
X102345442Y-118485518D01*
G37*
G36*
X104885442Y-118485518D02*
G01*
X104951627Y-118492037D01*
X105121466Y-118543557D01*
X105277991Y-118627222D01*
X105313729Y-118656552D01*
X105415186Y-118739814D01*
X105498448Y-118841271D01*
X105527778Y-118877009D01*
X105611443Y-119033534D01*
X105662963Y-119203373D01*
X105680359Y-119380000D01*
X105662963Y-119556627D01*
X105611443Y-119726466D01*
X105527778Y-119882991D01*
X105498448Y-119918729D01*
X105415186Y-120020186D01*
X105313729Y-120103448D01*
X105277991Y-120132778D01*
X105121466Y-120216443D01*
X104951627Y-120267963D01*
X104885442Y-120274482D01*
X104819260Y-120281000D01*
X104730740Y-120281000D01*
X104664558Y-120274482D01*
X104598373Y-120267963D01*
X104428534Y-120216443D01*
X104272009Y-120132778D01*
X104236271Y-120103448D01*
X104134814Y-120020186D01*
X104051552Y-119918729D01*
X104022222Y-119882991D01*
X103938557Y-119726466D01*
X103887037Y-119556627D01*
X103869641Y-119380000D01*
X103887037Y-119203373D01*
X103938557Y-119033534D01*
X104022222Y-118877009D01*
X104051552Y-118841271D01*
X104134814Y-118739814D01*
X104236271Y-118656552D01*
X104272009Y-118627222D01*
X104428534Y-118543557D01*
X104598373Y-118492037D01*
X104664558Y-118485518D01*
X104730740Y-118479000D01*
X104819260Y-118479000D01*
X104885442Y-118485518D01*
X104885442Y-118485518D01*
G37*
G36*
X111291823Y-118541313D02*
G01*
X111452242Y-118589976D01*
X111521922Y-118627221D01*
X111600078Y-118668996D01*
X111729659Y-118775341D01*
X111836004Y-118904922D01*
X111836005Y-118904924D01*
X111915024Y-119052758D01*
X111963687Y-119213177D01*
X111980117Y-119380000D01*
X111963687Y-119546823D01*
X111915024Y-119707242D01*
X111904747Y-119726468D01*
X111836004Y-119855078D01*
X111729659Y-119984659D01*
X111600078Y-120091004D01*
X111600076Y-120091005D01*
X111452242Y-120170024D01*
X111291823Y-120218687D01*
X111166804Y-120231000D01*
X111083196Y-120231000D01*
X110958177Y-120218687D01*
X110797758Y-120170024D01*
X110649924Y-120091005D01*
X110649922Y-120091004D01*
X110520341Y-119984659D01*
X110413996Y-119855078D01*
X110345253Y-119726468D01*
X110334976Y-119707242D01*
X110286313Y-119546823D01*
X110269883Y-119380000D01*
X110286313Y-119213177D01*
X110334976Y-119052758D01*
X110413995Y-118904924D01*
X110413996Y-118904922D01*
X110520341Y-118775341D01*
X110649922Y-118668996D01*
X110728078Y-118627221D01*
X110797758Y-118589976D01*
X110958177Y-118541313D01*
X111083196Y-118529000D01*
X111166804Y-118529000D01*
X111291823Y-118541313D01*
X111291823Y-118541313D01*
G37*
G36*
X190610443Y-116580519D02*
G01*
X190676627Y-116587037D01*
X190846466Y-116638557D01*
X191002991Y-116722222D01*
X191038729Y-116751552D01*
X191140186Y-116834814D01*
X191223448Y-116936271D01*
X191252778Y-116972009D01*
X191336443Y-117128534D01*
X191387963Y-117298373D01*
X191405359Y-117475000D01*
X191387963Y-117651627D01*
X191336443Y-117821466D01*
X191252778Y-117977991D01*
X191223448Y-118013729D01*
X191140186Y-118115186D01*
X191038729Y-118198448D01*
X191002991Y-118227778D01*
X190846466Y-118311443D01*
X190676627Y-118362963D01*
X190610442Y-118369482D01*
X190544260Y-118376000D01*
X190455740Y-118376000D01*
X190389558Y-118369482D01*
X190323373Y-118362963D01*
X190153534Y-118311443D01*
X189997009Y-118227778D01*
X189961271Y-118198448D01*
X189859814Y-118115186D01*
X189776552Y-118013729D01*
X189747222Y-117977991D01*
X189663557Y-117821466D01*
X189612037Y-117651627D01*
X189594641Y-117475000D01*
X189612037Y-117298373D01*
X189663557Y-117128534D01*
X189747222Y-116972009D01*
X189776552Y-116936271D01*
X189859814Y-116834814D01*
X189961271Y-116751552D01*
X189997009Y-116722222D01*
X190153534Y-116638557D01*
X190323373Y-116587037D01*
X190389557Y-116580519D01*
X190455740Y-116574000D01*
X190544260Y-116574000D01*
X190610443Y-116580519D01*
X190610443Y-116580519D01*
G37*
G36*
X188861000Y-118376000D02*
G01*
X187059000Y-118376000D01*
X187059000Y-116574000D01*
X188861000Y-116574000D01*
X188861000Y-118376000D01*
X188861000Y-118376000D01*
G37*
G36*
X104885442Y-115945518D02*
G01*
X104951627Y-115952037D01*
X105121466Y-116003557D01*
X105277991Y-116087222D01*
X105313729Y-116116552D01*
X105415186Y-116199814D01*
X105498448Y-116301271D01*
X105527778Y-116337009D01*
X105611443Y-116493534D01*
X105662963Y-116663373D01*
X105680359Y-116840000D01*
X105662963Y-117016627D01*
X105611443Y-117186466D01*
X105527778Y-117342991D01*
X105498448Y-117378729D01*
X105415186Y-117480186D01*
X105313729Y-117563448D01*
X105277991Y-117592778D01*
X105121466Y-117676443D01*
X104951627Y-117727963D01*
X104885442Y-117734482D01*
X104819260Y-117741000D01*
X104730740Y-117741000D01*
X104664558Y-117734482D01*
X104598373Y-117727963D01*
X104428534Y-117676443D01*
X104272009Y-117592778D01*
X104236271Y-117563448D01*
X104134814Y-117480186D01*
X104051552Y-117378729D01*
X104022222Y-117342991D01*
X103938557Y-117186466D01*
X103887037Y-117016627D01*
X103869641Y-116840000D01*
X103887037Y-116663373D01*
X103938557Y-116493534D01*
X104022222Y-116337009D01*
X104051552Y-116301271D01*
X104134814Y-116199814D01*
X104236271Y-116116552D01*
X104272009Y-116087222D01*
X104428534Y-116003557D01*
X104598373Y-115952037D01*
X104664558Y-115945518D01*
X104730740Y-115939000D01*
X104819260Y-115939000D01*
X104885442Y-115945518D01*
X104885442Y-115945518D01*
G37*
G36*
X102345442Y-115945518D02*
G01*
X102411627Y-115952037D01*
X102581466Y-116003557D01*
X102737991Y-116087222D01*
X102773729Y-116116552D01*
X102875186Y-116199814D01*
X102958448Y-116301271D01*
X102987778Y-116337009D01*
X103071443Y-116493534D01*
X103122963Y-116663373D01*
X103140359Y-116840000D01*
X103122963Y-117016627D01*
X103071443Y-117186466D01*
X102987778Y-117342991D01*
X102958448Y-117378729D01*
X102875186Y-117480186D01*
X102773729Y-117563448D01*
X102737991Y-117592778D01*
X102581466Y-117676443D01*
X102411627Y-117727963D01*
X102345442Y-117734482D01*
X102279260Y-117741000D01*
X102190740Y-117741000D01*
X102124558Y-117734482D01*
X102058373Y-117727963D01*
X101888534Y-117676443D01*
X101732009Y-117592778D01*
X101696271Y-117563448D01*
X101594814Y-117480186D01*
X101511552Y-117378729D01*
X101482222Y-117342991D01*
X101398557Y-117186466D01*
X101347037Y-117016627D01*
X101329641Y-116840000D01*
X101347037Y-116663373D01*
X101398557Y-116493534D01*
X101482222Y-116337009D01*
X101511552Y-116301271D01*
X101594814Y-116199814D01*
X101696271Y-116116552D01*
X101732009Y-116087222D01*
X101888534Y-116003557D01*
X102058373Y-115952037D01*
X102124558Y-115945518D01*
X102190740Y-115939000D01*
X102279260Y-115939000D01*
X102345442Y-115945518D01*
X102345442Y-115945518D01*
G37*
G36*
X111291823Y-116001313D02*
G01*
X111452242Y-116049976D01*
X111521922Y-116087221D01*
X111600078Y-116128996D01*
X111729659Y-116235341D01*
X111836004Y-116364922D01*
X111836005Y-116364924D01*
X111915024Y-116512758D01*
X111963687Y-116673177D01*
X111980117Y-116840000D01*
X111963687Y-117006823D01*
X111915024Y-117167242D01*
X111904747Y-117186468D01*
X111836004Y-117315078D01*
X111729659Y-117444659D01*
X111600078Y-117551004D01*
X111600076Y-117551005D01*
X111452242Y-117630024D01*
X111291823Y-117678687D01*
X111166804Y-117691000D01*
X111083196Y-117691000D01*
X110958177Y-117678687D01*
X110797758Y-117630024D01*
X110649924Y-117551005D01*
X110649922Y-117551004D01*
X110520341Y-117444659D01*
X110413996Y-117315078D01*
X110345253Y-117186468D01*
X110334976Y-117167242D01*
X110286313Y-117006823D01*
X110269883Y-116840000D01*
X110286313Y-116673177D01*
X110334976Y-116512758D01*
X110413995Y-116364924D01*
X110413996Y-116364922D01*
X110520341Y-116235341D01*
X110649922Y-116128996D01*
X110728078Y-116087221D01*
X110797758Y-116049976D01*
X110958177Y-116001313D01*
X111083196Y-115989000D01*
X111166804Y-115989000D01*
X111291823Y-116001313D01*
X111291823Y-116001313D01*
G37*
G36*
X104885443Y-113405519D02*
G01*
X104951627Y-113412037D01*
X105121466Y-113463557D01*
X105277991Y-113547222D01*
X105313729Y-113576552D01*
X105415186Y-113659814D01*
X105498448Y-113761271D01*
X105527778Y-113797009D01*
X105611443Y-113953534D01*
X105662963Y-114123373D01*
X105680359Y-114300000D01*
X105662963Y-114476627D01*
X105611443Y-114646466D01*
X105527778Y-114802991D01*
X105498448Y-114838729D01*
X105415186Y-114940186D01*
X105313729Y-115023448D01*
X105277991Y-115052778D01*
X105121466Y-115136443D01*
X104951627Y-115187963D01*
X104885442Y-115194482D01*
X104819260Y-115201000D01*
X104730740Y-115201000D01*
X104664558Y-115194482D01*
X104598373Y-115187963D01*
X104428534Y-115136443D01*
X104272009Y-115052778D01*
X104236271Y-115023448D01*
X104134814Y-114940186D01*
X104051552Y-114838729D01*
X104022222Y-114802991D01*
X103938557Y-114646466D01*
X103887037Y-114476627D01*
X103869641Y-114300000D01*
X103887037Y-114123373D01*
X103938557Y-113953534D01*
X104022222Y-113797009D01*
X104051552Y-113761271D01*
X104134814Y-113659814D01*
X104236271Y-113576552D01*
X104272009Y-113547222D01*
X104428534Y-113463557D01*
X104598373Y-113412037D01*
X104664557Y-113405519D01*
X104730740Y-113399000D01*
X104819260Y-113399000D01*
X104885443Y-113405519D01*
X104885443Y-113405519D01*
G37*
G36*
X102345443Y-113405519D02*
G01*
X102411627Y-113412037D01*
X102581466Y-113463557D01*
X102737991Y-113547222D01*
X102773729Y-113576552D01*
X102875186Y-113659814D01*
X102958448Y-113761271D01*
X102987778Y-113797009D01*
X103071443Y-113953534D01*
X103122963Y-114123373D01*
X103140359Y-114300000D01*
X103122963Y-114476627D01*
X103071443Y-114646466D01*
X102987778Y-114802991D01*
X102958448Y-114838729D01*
X102875186Y-114940186D01*
X102773729Y-115023448D01*
X102737991Y-115052778D01*
X102581466Y-115136443D01*
X102411627Y-115187963D01*
X102345442Y-115194482D01*
X102279260Y-115201000D01*
X102190740Y-115201000D01*
X102124558Y-115194482D01*
X102058373Y-115187963D01*
X101888534Y-115136443D01*
X101732009Y-115052778D01*
X101696271Y-115023448D01*
X101594814Y-114940186D01*
X101511552Y-114838729D01*
X101482222Y-114802991D01*
X101398557Y-114646466D01*
X101347037Y-114476627D01*
X101329641Y-114300000D01*
X101347037Y-114123373D01*
X101398557Y-113953534D01*
X101482222Y-113797009D01*
X101511552Y-113761271D01*
X101594814Y-113659814D01*
X101696271Y-113576552D01*
X101732009Y-113547222D01*
X101888534Y-113463557D01*
X102058373Y-113412037D01*
X102124557Y-113405519D01*
X102190740Y-113399000D01*
X102279260Y-113399000D01*
X102345443Y-113405519D01*
X102345443Y-113405519D01*
G37*
G36*
X111291823Y-113461313D02*
G01*
X111452242Y-113509976D01*
X111521922Y-113547221D01*
X111600078Y-113588996D01*
X111729659Y-113695341D01*
X111836004Y-113824922D01*
X111836005Y-113824924D01*
X111915024Y-113972758D01*
X111963687Y-114133177D01*
X111980117Y-114300000D01*
X111963687Y-114466823D01*
X111915024Y-114627242D01*
X111904747Y-114646468D01*
X111836004Y-114775078D01*
X111729659Y-114904659D01*
X111600078Y-115011004D01*
X111600076Y-115011005D01*
X111452242Y-115090024D01*
X111291823Y-115138687D01*
X111166804Y-115151000D01*
X111083196Y-115151000D01*
X110958177Y-115138687D01*
X110797758Y-115090024D01*
X110649924Y-115011005D01*
X110649922Y-115011004D01*
X110520341Y-114904659D01*
X110413996Y-114775078D01*
X110345253Y-114646468D01*
X110334976Y-114627242D01*
X110286313Y-114466823D01*
X110269883Y-114300000D01*
X110286313Y-114133177D01*
X110334976Y-113972758D01*
X110413995Y-113824924D01*
X110413996Y-113824922D01*
X110520341Y-113695341D01*
X110649922Y-113588996D01*
X110728078Y-113547221D01*
X110797758Y-113509976D01*
X110958177Y-113461313D01*
X111083196Y-113449000D01*
X111166804Y-113449000D01*
X111291823Y-113461313D01*
X111291823Y-113461313D01*
G37*
G36*
X102345442Y-110865518D02*
G01*
X102411627Y-110872037D01*
X102581466Y-110923557D01*
X102737991Y-111007222D01*
X102773729Y-111036552D01*
X102875186Y-111119814D01*
X102958448Y-111221271D01*
X102987778Y-111257009D01*
X103071443Y-111413534D01*
X103122963Y-111583373D01*
X103140359Y-111760000D01*
X103122963Y-111936627D01*
X103071443Y-112106466D01*
X102987778Y-112262991D01*
X102958448Y-112298729D01*
X102875186Y-112400186D01*
X102773729Y-112483448D01*
X102737991Y-112512778D01*
X102581466Y-112596443D01*
X102411627Y-112647963D01*
X102345442Y-112654482D01*
X102279260Y-112661000D01*
X102190740Y-112661000D01*
X102124558Y-112654482D01*
X102058373Y-112647963D01*
X101888534Y-112596443D01*
X101732009Y-112512778D01*
X101696271Y-112483448D01*
X101594814Y-112400186D01*
X101511552Y-112298729D01*
X101482222Y-112262991D01*
X101398557Y-112106466D01*
X101347037Y-111936627D01*
X101329641Y-111760000D01*
X101347037Y-111583373D01*
X101398557Y-111413534D01*
X101482222Y-111257009D01*
X101511552Y-111221271D01*
X101594814Y-111119814D01*
X101696271Y-111036552D01*
X101732009Y-111007222D01*
X101888534Y-110923557D01*
X102058373Y-110872037D01*
X102124558Y-110865518D01*
X102190740Y-110859000D01*
X102279260Y-110859000D01*
X102345442Y-110865518D01*
X102345442Y-110865518D01*
G37*
G36*
X104885442Y-110865518D02*
G01*
X104951627Y-110872037D01*
X105121466Y-110923557D01*
X105277991Y-111007222D01*
X105313729Y-111036552D01*
X105415186Y-111119814D01*
X105498448Y-111221271D01*
X105527778Y-111257009D01*
X105611443Y-111413534D01*
X105662963Y-111583373D01*
X105680359Y-111760000D01*
X105662963Y-111936627D01*
X105611443Y-112106466D01*
X105527778Y-112262991D01*
X105498448Y-112298729D01*
X105415186Y-112400186D01*
X105313729Y-112483448D01*
X105277991Y-112512778D01*
X105121466Y-112596443D01*
X104951627Y-112647963D01*
X104885442Y-112654482D01*
X104819260Y-112661000D01*
X104730740Y-112661000D01*
X104664558Y-112654482D01*
X104598373Y-112647963D01*
X104428534Y-112596443D01*
X104272009Y-112512778D01*
X104236271Y-112483448D01*
X104134814Y-112400186D01*
X104051552Y-112298729D01*
X104022222Y-112262991D01*
X103938557Y-112106466D01*
X103887037Y-111936627D01*
X103869641Y-111760000D01*
X103887037Y-111583373D01*
X103938557Y-111413534D01*
X104022222Y-111257009D01*
X104051552Y-111221271D01*
X104134814Y-111119814D01*
X104236271Y-111036552D01*
X104272009Y-111007222D01*
X104428534Y-110923557D01*
X104598373Y-110872037D01*
X104664558Y-110865518D01*
X104730740Y-110859000D01*
X104819260Y-110859000D01*
X104885442Y-110865518D01*
X104885442Y-110865518D01*
G37*
G36*
X111976000Y-112611000D02*
G01*
X110274000Y-112611000D01*
X110274000Y-110909000D01*
X111976000Y-110909000D01*
X111976000Y-112611000D01*
X111976000Y-112611000D01*
G37*
G36*
X102345443Y-108325519D02*
G01*
X102411627Y-108332037D01*
X102581466Y-108383557D01*
X102581468Y-108383558D01*
X102596893Y-108391803D01*
X102737991Y-108467222D01*
X102773729Y-108496552D01*
X102875186Y-108579814D01*
X102955139Y-108677239D01*
X102987778Y-108717009D01*
X103071443Y-108873534D01*
X103122963Y-109043373D01*
X103140359Y-109220000D01*
X103122963Y-109396627D01*
X103071443Y-109566466D01*
X102987778Y-109722991D01*
X102958448Y-109758729D01*
X102875186Y-109860186D01*
X102773729Y-109943448D01*
X102737991Y-109972778D01*
X102581466Y-110056443D01*
X102411627Y-110107963D01*
X102345443Y-110114481D01*
X102279260Y-110121000D01*
X102190740Y-110121000D01*
X102124557Y-110114481D01*
X102058373Y-110107963D01*
X101888534Y-110056443D01*
X101732009Y-109972778D01*
X101696271Y-109943448D01*
X101594814Y-109860186D01*
X101511552Y-109758729D01*
X101482222Y-109722991D01*
X101398557Y-109566466D01*
X101347037Y-109396627D01*
X101329641Y-109220000D01*
X101347037Y-109043373D01*
X101398557Y-108873534D01*
X101482222Y-108717009D01*
X101514861Y-108677239D01*
X101594814Y-108579814D01*
X101696271Y-108496552D01*
X101732009Y-108467222D01*
X101873107Y-108391803D01*
X101888532Y-108383558D01*
X101888534Y-108383557D01*
X102058373Y-108332037D01*
X102124557Y-108325519D01*
X102190740Y-108319000D01*
X102279260Y-108319000D01*
X102345443Y-108325519D01*
X102345443Y-108325519D01*
G37*
G36*
X104885443Y-108325519D02*
G01*
X104951627Y-108332037D01*
X105121466Y-108383557D01*
X105121468Y-108383558D01*
X105136893Y-108391803D01*
X105277991Y-108467222D01*
X105313729Y-108496552D01*
X105415186Y-108579814D01*
X105495139Y-108677239D01*
X105527778Y-108717009D01*
X105611443Y-108873534D01*
X105662963Y-109043373D01*
X105680359Y-109220000D01*
X105662963Y-109396627D01*
X105611443Y-109566466D01*
X105527778Y-109722991D01*
X105498448Y-109758729D01*
X105415186Y-109860186D01*
X105313729Y-109943448D01*
X105277991Y-109972778D01*
X105121466Y-110056443D01*
X104951627Y-110107963D01*
X104885443Y-110114481D01*
X104819260Y-110121000D01*
X104730740Y-110121000D01*
X104664557Y-110114481D01*
X104598373Y-110107963D01*
X104428534Y-110056443D01*
X104272009Y-109972778D01*
X104236271Y-109943448D01*
X104134814Y-109860186D01*
X104051552Y-109758729D01*
X104022222Y-109722991D01*
X103938557Y-109566466D01*
X103887037Y-109396627D01*
X103869641Y-109220000D01*
X103887037Y-109043373D01*
X103938557Y-108873534D01*
X104022222Y-108717009D01*
X104054861Y-108677239D01*
X104134814Y-108579814D01*
X104236271Y-108496552D01*
X104272009Y-108467222D01*
X104413107Y-108391803D01*
X104428532Y-108383558D01*
X104428534Y-108383557D01*
X104598373Y-108332037D01*
X104664557Y-108325519D01*
X104730740Y-108319000D01*
X104819260Y-108319000D01*
X104885443Y-108325519D01*
X104885443Y-108325519D01*
G37*
G36*
X137326822Y-106711313D02*
G01*
X137487241Y-106759976D01*
X137635077Y-106838995D01*
X137764659Y-106945341D01*
X137871004Y-107074922D01*
X137871005Y-107074924D01*
X137950024Y-107222758D01*
X137998687Y-107383177D01*
X138011000Y-107508196D01*
X138011000Y-108391803D01*
X137998687Y-108516822D01*
X137950024Y-108677242D01*
X137928768Y-108717009D01*
X137871004Y-108825078D01*
X137764659Y-108954659D01*
X137635078Y-109061004D01*
X137635076Y-109061005D01*
X137487242Y-109140024D01*
X137326823Y-109188687D01*
X137160000Y-109205117D01*
X136993178Y-109188687D01*
X136832759Y-109140024D01*
X136684925Y-109061005D01*
X136684923Y-109061004D01*
X136555342Y-108954659D01*
X136448997Y-108825078D01*
X136391233Y-108717009D01*
X136369977Y-108677242D01*
X136321314Y-108516823D01*
X136309000Y-108391803D01*
X136309000Y-107508197D01*
X136321313Y-107383178D01*
X136369976Y-107222759D01*
X136448995Y-107074923D01*
X136555341Y-106945341D01*
X136663439Y-106856627D01*
X136684922Y-106838996D01*
X136700094Y-106830886D01*
X136832758Y-106759976D01*
X136993177Y-106711313D01*
X137160000Y-106694883D01*
X137326822Y-106711313D01*
X137326822Y-106711313D01*
G37*
G36*
X142406822Y-106711313D02*
G01*
X142567241Y-106759976D01*
X142715077Y-106838995D01*
X142844659Y-106945341D01*
X142951004Y-107074922D01*
X142951005Y-107074924D01*
X143030024Y-107222758D01*
X143078687Y-107383177D01*
X143091000Y-107508196D01*
X143091000Y-108391803D01*
X143078687Y-108516822D01*
X143030024Y-108677242D01*
X143008768Y-108717009D01*
X142951004Y-108825078D01*
X142844659Y-108954659D01*
X142715078Y-109061004D01*
X142715076Y-109061005D01*
X142567242Y-109140024D01*
X142406823Y-109188687D01*
X142240000Y-109205117D01*
X142073178Y-109188687D01*
X141912759Y-109140024D01*
X141764925Y-109061005D01*
X141764923Y-109061004D01*
X141635342Y-108954659D01*
X141528997Y-108825078D01*
X141471233Y-108717009D01*
X141449977Y-108677242D01*
X141401314Y-108516823D01*
X141389000Y-108391803D01*
X141389000Y-107508197D01*
X141401313Y-107383178D01*
X141449976Y-107222759D01*
X141528995Y-107074923D01*
X141635341Y-106945341D01*
X141743439Y-106856627D01*
X141764922Y-106838996D01*
X141780094Y-106830886D01*
X141912758Y-106759976D01*
X142073177Y-106711313D01*
X142240000Y-106694883D01*
X142406822Y-106711313D01*
X142406822Y-106711313D01*
G37*
G36*
X147486822Y-106711313D02*
G01*
X147647241Y-106759976D01*
X147795077Y-106838995D01*
X147924659Y-106945341D01*
X148031004Y-107074922D01*
X148031005Y-107074924D01*
X148110024Y-107222758D01*
X148158687Y-107383177D01*
X148171000Y-107508196D01*
X148171000Y-108391803D01*
X148158687Y-108516822D01*
X148110024Y-108677242D01*
X148088768Y-108717009D01*
X148031004Y-108825078D01*
X147924659Y-108954659D01*
X147795078Y-109061004D01*
X147795076Y-109061005D01*
X147647242Y-109140024D01*
X147486823Y-109188687D01*
X147320000Y-109205117D01*
X147153178Y-109188687D01*
X146992759Y-109140024D01*
X146844925Y-109061005D01*
X146844923Y-109061004D01*
X146715342Y-108954659D01*
X146608997Y-108825078D01*
X146551233Y-108717009D01*
X146529977Y-108677242D01*
X146481314Y-108516823D01*
X146469000Y-108391803D01*
X146469000Y-107508197D01*
X146481313Y-107383178D01*
X146529976Y-107222759D01*
X146608995Y-107074923D01*
X146715341Y-106945341D01*
X146823439Y-106856627D01*
X146844922Y-106838996D01*
X146860094Y-106830886D01*
X146992758Y-106759976D01*
X147153177Y-106711313D01*
X147320000Y-106694883D01*
X147486822Y-106711313D01*
X147486822Y-106711313D01*
G37*
G36*
X150026822Y-106711313D02*
G01*
X150187241Y-106759976D01*
X150335077Y-106838995D01*
X150464659Y-106945341D01*
X150571004Y-107074922D01*
X150571005Y-107074924D01*
X150650024Y-107222758D01*
X150698687Y-107383177D01*
X150711000Y-107508196D01*
X150711000Y-108391803D01*
X150698687Y-108516822D01*
X150650024Y-108677242D01*
X150628768Y-108717009D01*
X150571004Y-108825078D01*
X150464659Y-108954659D01*
X150335078Y-109061004D01*
X150335076Y-109061005D01*
X150187242Y-109140024D01*
X150026823Y-109188687D01*
X149860000Y-109205117D01*
X149693178Y-109188687D01*
X149532759Y-109140024D01*
X149384925Y-109061005D01*
X149384923Y-109061004D01*
X149255342Y-108954659D01*
X149148997Y-108825078D01*
X149091233Y-108717009D01*
X149069977Y-108677242D01*
X149021314Y-108516823D01*
X149009000Y-108391803D01*
X149009000Y-107508197D01*
X149021313Y-107383178D01*
X149069976Y-107222759D01*
X149148995Y-107074923D01*
X149255341Y-106945341D01*
X149363439Y-106856627D01*
X149384922Y-106838996D01*
X149400094Y-106830886D01*
X149532758Y-106759976D01*
X149693177Y-106711313D01*
X149860000Y-106694883D01*
X150026822Y-106711313D01*
X150026822Y-106711313D01*
G37*
G36*
X152566822Y-106711313D02*
G01*
X152727241Y-106759976D01*
X152875077Y-106838995D01*
X153004659Y-106945341D01*
X153111004Y-107074922D01*
X153111005Y-107074924D01*
X153190024Y-107222758D01*
X153238687Y-107383177D01*
X153251000Y-107508196D01*
X153251000Y-108391803D01*
X153238687Y-108516822D01*
X153190024Y-108677242D01*
X153168768Y-108717009D01*
X153111004Y-108825078D01*
X153004659Y-108954659D01*
X152875078Y-109061004D01*
X152875076Y-109061005D01*
X152727242Y-109140024D01*
X152566823Y-109188687D01*
X152400000Y-109205117D01*
X152233178Y-109188687D01*
X152072759Y-109140024D01*
X151924925Y-109061005D01*
X151924923Y-109061004D01*
X151795342Y-108954659D01*
X151688997Y-108825078D01*
X151631233Y-108717009D01*
X151609977Y-108677242D01*
X151561314Y-108516823D01*
X151549000Y-108391803D01*
X151549000Y-107508197D01*
X151561313Y-107383178D01*
X151609976Y-107222759D01*
X151688995Y-107074923D01*
X151795341Y-106945341D01*
X151903439Y-106856627D01*
X151924922Y-106838996D01*
X151940094Y-106830886D01*
X152072758Y-106759976D01*
X152233177Y-106711313D01*
X152400000Y-106694883D01*
X152566822Y-106711313D01*
X152566822Y-106711313D01*
G37*
G36*
X134786822Y-106711313D02*
G01*
X134947241Y-106759976D01*
X135095077Y-106838995D01*
X135224659Y-106945341D01*
X135331004Y-107074922D01*
X135331005Y-107074924D01*
X135410024Y-107222758D01*
X135458687Y-107383177D01*
X135471000Y-107508196D01*
X135471000Y-108391803D01*
X135458687Y-108516822D01*
X135410024Y-108677242D01*
X135388768Y-108717009D01*
X135331004Y-108825078D01*
X135224659Y-108954659D01*
X135095078Y-109061004D01*
X135095076Y-109061005D01*
X134947242Y-109140024D01*
X134786823Y-109188687D01*
X134620000Y-109205117D01*
X134453178Y-109188687D01*
X134292759Y-109140024D01*
X134144925Y-109061005D01*
X134144923Y-109061004D01*
X134015342Y-108954659D01*
X133908997Y-108825078D01*
X133851233Y-108717009D01*
X133829977Y-108677242D01*
X133781314Y-108516823D01*
X133769000Y-108391803D01*
X133769000Y-107508197D01*
X133781313Y-107383178D01*
X133829976Y-107222759D01*
X133908995Y-107074923D01*
X134015341Y-106945341D01*
X134123439Y-106856627D01*
X134144922Y-106838996D01*
X134160094Y-106830886D01*
X134292758Y-106759976D01*
X134453177Y-106711313D01*
X134620000Y-106694883D01*
X134786822Y-106711313D01*
X134786822Y-106711313D01*
G37*
G36*
X155106822Y-106711313D02*
G01*
X155267241Y-106759976D01*
X155415077Y-106838995D01*
X155544659Y-106945341D01*
X155651004Y-107074922D01*
X155651005Y-107074924D01*
X155730024Y-107222758D01*
X155778687Y-107383177D01*
X155791000Y-107508196D01*
X155791000Y-108391803D01*
X155778687Y-108516822D01*
X155730024Y-108677242D01*
X155708768Y-108717009D01*
X155651004Y-108825078D01*
X155544659Y-108954659D01*
X155415078Y-109061004D01*
X155415076Y-109061005D01*
X155267242Y-109140024D01*
X155106823Y-109188687D01*
X154940000Y-109205117D01*
X154773178Y-109188687D01*
X154612759Y-109140024D01*
X154464925Y-109061005D01*
X154464923Y-109061004D01*
X154335342Y-108954659D01*
X154228997Y-108825078D01*
X154171233Y-108717009D01*
X154149977Y-108677242D01*
X154101314Y-108516823D01*
X154089000Y-108391803D01*
X154089000Y-107508197D01*
X154101313Y-107383178D01*
X154149976Y-107222759D01*
X154228995Y-107074923D01*
X154335341Y-106945341D01*
X154443439Y-106856627D01*
X154464922Y-106838996D01*
X154480094Y-106830886D01*
X154612758Y-106759976D01*
X154773177Y-106711313D01*
X154940000Y-106694883D01*
X155106822Y-106711313D01*
X155106822Y-106711313D01*
G37*
G36*
X132246822Y-106711313D02*
G01*
X132407241Y-106759976D01*
X132555077Y-106838995D01*
X132684659Y-106945341D01*
X132791004Y-107074922D01*
X132791005Y-107074924D01*
X132870024Y-107222758D01*
X132918687Y-107383177D01*
X132931000Y-107508196D01*
X132931000Y-108391803D01*
X132918687Y-108516822D01*
X132870024Y-108677242D01*
X132848768Y-108717009D01*
X132791004Y-108825078D01*
X132684659Y-108954659D01*
X132555078Y-109061004D01*
X132555076Y-109061005D01*
X132407242Y-109140024D01*
X132246823Y-109188687D01*
X132080000Y-109205117D01*
X131913178Y-109188687D01*
X131752759Y-109140024D01*
X131604925Y-109061005D01*
X131604923Y-109061004D01*
X131475342Y-108954659D01*
X131368997Y-108825078D01*
X131311233Y-108717009D01*
X131289977Y-108677242D01*
X131241314Y-108516823D01*
X131229000Y-108391803D01*
X131229000Y-107508197D01*
X131241313Y-107383178D01*
X131289976Y-107222759D01*
X131368995Y-107074923D01*
X131475341Y-106945341D01*
X131583439Y-106856627D01*
X131604922Y-106838996D01*
X131620094Y-106830886D01*
X131752758Y-106759976D01*
X131913177Y-106711313D01*
X132080000Y-106694883D01*
X132246822Y-106711313D01*
X132246822Y-106711313D01*
G37*
G36*
X157646822Y-106711313D02*
G01*
X157807241Y-106759976D01*
X157955077Y-106838995D01*
X158084659Y-106945341D01*
X158191004Y-107074922D01*
X158191005Y-107074924D01*
X158270024Y-107222758D01*
X158318687Y-107383177D01*
X158331000Y-107508196D01*
X158331000Y-108391803D01*
X158318687Y-108516822D01*
X158270024Y-108677242D01*
X158248768Y-108717009D01*
X158191004Y-108825078D01*
X158084659Y-108954659D01*
X157955078Y-109061004D01*
X157955076Y-109061005D01*
X157807242Y-109140024D01*
X157646823Y-109188687D01*
X157480000Y-109205117D01*
X157313178Y-109188687D01*
X157152759Y-109140024D01*
X157004925Y-109061005D01*
X157004923Y-109061004D01*
X156875342Y-108954659D01*
X156768997Y-108825078D01*
X156711233Y-108717009D01*
X156689977Y-108677242D01*
X156641314Y-108516823D01*
X156629000Y-108391803D01*
X156629000Y-107508197D01*
X156641313Y-107383178D01*
X156689976Y-107222759D01*
X156768995Y-107074923D01*
X156875341Y-106945341D01*
X156983439Y-106856627D01*
X157004922Y-106838996D01*
X157020094Y-106830886D01*
X157152758Y-106759976D01*
X157313177Y-106711313D01*
X157480000Y-106694883D01*
X157646822Y-106711313D01*
X157646822Y-106711313D01*
G37*
G36*
X144946822Y-106711313D02*
G01*
X145107241Y-106759976D01*
X145255077Y-106838995D01*
X145384659Y-106945341D01*
X145491004Y-107074922D01*
X145491005Y-107074924D01*
X145570024Y-107222758D01*
X145618687Y-107383177D01*
X145631000Y-107508196D01*
X145631000Y-108391803D01*
X145618687Y-108516822D01*
X145570024Y-108677242D01*
X145548768Y-108717009D01*
X145491004Y-108825078D01*
X145384659Y-108954659D01*
X145255078Y-109061004D01*
X145255076Y-109061005D01*
X145107242Y-109140024D01*
X144946823Y-109188687D01*
X144780000Y-109205117D01*
X144613178Y-109188687D01*
X144452759Y-109140024D01*
X144304925Y-109061005D01*
X144304923Y-109061004D01*
X144175342Y-108954659D01*
X144068997Y-108825078D01*
X144011233Y-108717009D01*
X143989977Y-108677242D01*
X143941314Y-108516823D01*
X143929000Y-108391803D01*
X143929000Y-107508197D01*
X143941313Y-107383178D01*
X143989976Y-107222759D01*
X144068995Y-107074923D01*
X144175341Y-106945341D01*
X144283439Y-106856627D01*
X144304922Y-106838996D01*
X144320094Y-106830886D01*
X144452758Y-106759976D01*
X144613177Y-106711313D01*
X144780000Y-106694883D01*
X144946822Y-106711313D01*
X144946822Y-106711313D01*
G37*
G36*
X127166822Y-106711313D02*
G01*
X127327241Y-106759976D01*
X127475077Y-106838995D01*
X127604659Y-106945341D01*
X127711004Y-107074922D01*
X127711005Y-107074924D01*
X127790024Y-107222758D01*
X127838687Y-107383177D01*
X127851000Y-107508196D01*
X127851000Y-108391803D01*
X127838687Y-108516822D01*
X127790024Y-108677242D01*
X127768768Y-108717009D01*
X127711004Y-108825078D01*
X127604659Y-108954659D01*
X127475078Y-109061004D01*
X127475076Y-109061005D01*
X127327242Y-109140024D01*
X127166823Y-109188687D01*
X127000000Y-109205117D01*
X126833178Y-109188687D01*
X126672759Y-109140024D01*
X126524925Y-109061005D01*
X126524923Y-109061004D01*
X126395342Y-108954659D01*
X126288997Y-108825078D01*
X126231233Y-108717009D01*
X126209977Y-108677242D01*
X126161314Y-108516823D01*
X126149000Y-108391803D01*
X126149000Y-107508197D01*
X126161313Y-107383178D01*
X126209976Y-107222759D01*
X126288995Y-107074923D01*
X126395341Y-106945341D01*
X126503439Y-106856627D01*
X126524922Y-106838996D01*
X126540094Y-106830886D01*
X126672758Y-106759976D01*
X126833177Y-106711313D01*
X127000000Y-106694883D01*
X127166822Y-106711313D01*
X127166822Y-106711313D01*
G37*
G36*
X162726822Y-106711313D02*
G01*
X162887241Y-106759976D01*
X163035077Y-106838995D01*
X163164659Y-106945341D01*
X163271004Y-107074922D01*
X163271005Y-107074924D01*
X163350024Y-107222758D01*
X163398687Y-107383177D01*
X163411000Y-107508196D01*
X163411000Y-108391803D01*
X163398687Y-108516822D01*
X163350024Y-108677242D01*
X163328768Y-108717009D01*
X163271004Y-108825078D01*
X163164659Y-108954659D01*
X163035078Y-109061004D01*
X163035076Y-109061005D01*
X162887242Y-109140024D01*
X162726823Y-109188687D01*
X162560000Y-109205117D01*
X162393178Y-109188687D01*
X162232759Y-109140024D01*
X162084925Y-109061005D01*
X162084923Y-109061004D01*
X161955342Y-108954659D01*
X161848997Y-108825078D01*
X161791233Y-108717009D01*
X161769977Y-108677242D01*
X161721314Y-108516823D01*
X161709000Y-108391803D01*
X161709000Y-107508197D01*
X161721313Y-107383178D01*
X161769976Y-107222759D01*
X161848995Y-107074923D01*
X161955341Y-106945341D01*
X162063439Y-106856627D01*
X162084922Y-106838996D01*
X162100094Y-106830886D01*
X162232758Y-106759976D01*
X162393177Y-106711313D01*
X162560000Y-106694883D01*
X162726822Y-106711313D01*
X162726822Y-106711313D01*
G37*
G36*
X124626822Y-106711313D02*
G01*
X124787241Y-106759976D01*
X124935077Y-106838995D01*
X125064659Y-106945341D01*
X125171004Y-107074922D01*
X125171005Y-107074924D01*
X125250024Y-107222758D01*
X125298687Y-107383177D01*
X125311000Y-107508196D01*
X125311000Y-108391803D01*
X125298687Y-108516822D01*
X125250024Y-108677242D01*
X125228768Y-108717009D01*
X125171004Y-108825078D01*
X125064659Y-108954659D01*
X124935078Y-109061004D01*
X124935076Y-109061005D01*
X124787242Y-109140024D01*
X124626823Y-109188687D01*
X124460000Y-109205117D01*
X124293178Y-109188687D01*
X124132759Y-109140024D01*
X123984925Y-109061005D01*
X123984923Y-109061004D01*
X123855342Y-108954659D01*
X123748997Y-108825078D01*
X123691233Y-108717009D01*
X123669977Y-108677242D01*
X123621314Y-108516823D01*
X123609000Y-108391803D01*
X123609000Y-107508197D01*
X123621313Y-107383178D01*
X123669976Y-107222759D01*
X123748995Y-107074923D01*
X123855341Y-106945341D01*
X123963439Y-106856627D01*
X123984922Y-106838996D01*
X124000094Y-106830886D01*
X124132758Y-106759976D01*
X124293177Y-106711313D01*
X124460000Y-106694883D01*
X124626822Y-106711313D01*
X124626822Y-106711313D01*
G37*
G36*
X165266822Y-106711313D02*
G01*
X165427241Y-106759976D01*
X165575077Y-106838995D01*
X165704659Y-106945341D01*
X165811004Y-107074922D01*
X165811005Y-107074924D01*
X165890024Y-107222758D01*
X165938687Y-107383177D01*
X165951000Y-107508196D01*
X165951000Y-108391803D01*
X165938687Y-108516822D01*
X165890024Y-108677242D01*
X165868768Y-108717009D01*
X165811004Y-108825078D01*
X165704659Y-108954659D01*
X165575078Y-109061004D01*
X165575076Y-109061005D01*
X165427242Y-109140024D01*
X165266823Y-109188687D01*
X165100000Y-109205117D01*
X164933178Y-109188687D01*
X164772759Y-109140024D01*
X164624925Y-109061005D01*
X164624923Y-109061004D01*
X164495342Y-108954659D01*
X164388997Y-108825078D01*
X164331233Y-108717009D01*
X164309977Y-108677242D01*
X164261314Y-108516823D01*
X164249000Y-108391803D01*
X164249000Y-107508197D01*
X164261313Y-107383178D01*
X164309976Y-107222759D01*
X164388995Y-107074923D01*
X164495341Y-106945341D01*
X164603439Y-106856627D01*
X164624922Y-106838996D01*
X164640094Y-106830886D01*
X164772758Y-106759976D01*
X164933177Y-106711313D01*
X165100000Y-106694883D01*
X165266822Y-106711313D01*
X165266822Y-106711313D01*
G37*
G36*
X122086822Y-106711313D02*
G01*
X122247241Y-106759976D01*
X122395077Y-106838995D01*
X122524659Y-106945341D01*
X122631004Y-107074922D01*
X122631005Y-107074924D01*
X122710024Y-107222758D01*
X122758687Y-107383177D01*
X122771000Y-107508196D01*
X122771000Y-108391803D01*
X122758687Y-108516822D01*
X122710024Y-108677242D01*
X122688768Y-108717009D01*
X122631004Y-108825078D01*
X122524659Y-108954659D01*
X122395078Y-109061004D01*
X122395076Y-109061005D01*
X122247242Y-109140024D01*
X122086823Y-109188687D01*
X121920000Y-109205117D01*
X121753178Y-109188687D01*
X121592759Y-109140024D01*
X121444925Y-109061005D01*
X121444923Y-109061004D01*
X121315342Y-108954659D01*
X121208997Y-108825078D01*
X121151233Y-108717009D01*
X121129977Y-108677242D01*
X121081314Y-108516823D01*
X121069000Y-108391803D01*
X121069000Y-107508197D01*
X121081313Y-107383178D01*
X121129976Y-107222759D01*
X121208995Y-107074923D01*
X121315341Y-106945341D01*
X121423439Y-106856627D01*
X121444922Y-106838996D01*
X121460094Y-106830886D01*
X121592758Y-106759976D01*
X121753177Y-106711313D01*
X121920000Y-106694883D01*
X122086822Y-106711313D01*
X122086822Y-106711313D01*
G37*
G36*
X119546822Y-106711313D02*
G01*
X119707241Y-106759976D01*
X119855077Y-106838995D01*
X119984659Y-106945341D01*
X120091004Y-107074922D01*
X120091005Y-107074924D01*
X120170024Y-107222758D01*
X120218687Y-107383177D01*
X120231000Y-107508196D01*
X120231000Y-108391803D01*
X120218687Y-108516822D01*
X120170024Y-108677242D01*
X120148768Y-108717009D01*
X120091004Y-108825078D01*
X119984659Y-108954659D01*
X119855078Y-109061004D01*
X119855076Y-109061005D01*
X119707242Y-109140024D01*
X119546823Y-109188687D01*
X119380000Y-109205117D01*
X119213178Y-109188687D01*
X119052759Y-109140024D01*
X118904925Y-109061005D01*
X118904923Y-109061004D01*
X118775342Y-108954659D01*
X118668997Y-108825078D01*
X118611233Y-108717009D01*
X118589977Y-108677242D01*
X118541314Y-108516823D01*
X118529000Y-108391803D01*
X118529000Y-107508197D01*
X118541313Y-107383178D01*
X118589976Y-107222759D01*
X118668995Y-107074923D01*
X118775341Y-106945341D01*
X118883439Y-106856627D01*
X118904922Y-106838996D01*
X118920094Y-106830886D01*
X119052758Y-106759976D01*
X119213177Y-106711313D01*
X119380000Y-106694883D01*
X119546822Y-106711313D01*
X119546822Y-106711313D01*
G37*
G36*
X139866822Y-106711313D02*
G01*
X140027241Y-106759976D01*
X140175077Y-106838995D01*
X140304659Y-106945341D01*
X140411004Y-107074922D01*
X140411005Y-107074924D01*
X140490024Y-107222758D01*
X140538687Y-107383177D01*
X140551000Y-107508196D01*
X140551000Y-108391803D01*
X140538687Y-108516822D01*
X140490024Y-108677242D01*
X140468768Y-108717009D01*
X140411004Y-108825078D01*
X140304659Y-108954659D01*
X140175078Y-109061004D01*
X140175076Y-109061005D01*
X140027242Y-109140024D01*
X139866823Y-109188687D01*
X139700000Y-109205117D01*
X139533178Y-109188687D01*
X139372759Y-109140024D01*
X139224925Y-109061005D01*
X139224923Y-109061004D01*
X139095342Y-108954659D01*
X138988997Y-108825078D01*
X138931233Y-108717009D01*
X138909977Y-108677242D01*
X138861314Y-108516823D01*
X138849000Y-108391803D01*
X138849000Y-107508197D01*
X138861313Y-107383178D01*
X138909976Y-107222759D01*
X138988995Y-107074923D01*
X139095341Y-106945341D01*
X139203439Y-106856627D01*
X139224922Y-106838996D01*
X139240094Y-106830886D01*
X139372758Y-106759976D01*
X139533177Y-106711313D01*
X139700000Y-106694883D01*
X139866822Y-106711313D01*
X139866822Y-106711313D01*
G37*
G36*
X117006822Y-106711313D02*
G01*
X117167241Y-106759976D01*
X117315077Y-106838995D01*
X117444659Y-106945341D01*
X117551004Y-107074922D01*
X117551005Y-107074924D01*
X117630024Y-107222758D01*
X117678687Y-107383177D01*
X117691000Y-107508196D01*
X117691000Y-108391803D01*
X117678687Y-108516822D01*
X117630024Y-108677242D01*
X117608768Y-108717009D01*
X117551004Y-108825078D01*
X117444659Y-108954659D01*
X117315078Y-109061004D01*
X117315076Y-109061005D01*
X117167242Y-109140024D01*
X117006823Y-109188687D01*
X116840000Y-109205117D01*
X116673178Y-109188687D01*
X116512759Y-109140024D01*
X116364925Y-109061005D01*
X116364923Y-109061004D01*
X116235342Y-108954659D01*
X116128997Y-108825078D01*
X116071233Y-108717009D01*
X116049977Y-108677242D01*
X116001314Y-108516823D01*
X115989000Y-108391803D01*
X115989000Y-107508197D01*
X116001313Y-107383178D01*
X116049976Y-107222759D01*
X116128995Y-107074923D01*
X116235341Y-106945341D01*
X116343439Y-106856627D01*
X116364922Y-106838996D01*
X116380094Y-106830886D01*
X116512758Y-106759976D01*
X116673177Y-106711313D01*
X116840000Y-106694883D01*
X117006822Y-106711313D01*
X117006822Y-106711313D01*
G37*
G36*
X129706822Y-106711313D02*
G01*
X129867241Y-106759976D01*
X130015077Y-106838995D01*
X130144659Y-106945341D01*
X130251004Y-107074922D01*
X130251005Y-107074924D01*
X130330024Y-107222758D01*
X130378687Y-107383177D01*
X130391000Y-107508196D01*
X130391000Y-108391803D01*
X130378687Y-108516822D01*
X130330024Y-108677242D01*
X130308768Y-108717009D01*
X130251004Y-108825078D01*
X130144659Y-108954659D01*
X130015078Y-109061004D01*
X130015076Y-109061005D01*
X129867242Y-109140024D01*
X129706823Y-109188687D01*
X129540000Y-109205117D01*
X129373178Y-109188687D01*
X129212759Y-109140024D01*
X129064925Y-109061005D01*
X129064923Y-109061004D01*
X128935342Y-108954659D01*
X128828997Y-108825078D01*
X128771233Y-108717009D01*
X128749977Y-108677242D01*
X128701314Y-108516823D01*
X128689000Y-108391803D01*
X128689000Y-107508197D01*
X128701313Y-107383178D01*
X128749976Y-107222759D01*
X128828995Y-107074923D01*
X128935341Y-106945341D01*
X129043439Y-106856627D01*
X129064922Y-106838996D01*
X129080094Y-106830886D01*
X129212758Y-106759976D01*
X129373177Y-106711313D01*
X129540000Y-106694883D01*
X129706822Y-106711313D01*
X129706822Y-106711313D01*
G37*
G36*
X160186822Y-106711313D02*
G01*
X160347241Y-106759976D01*
X160495077Y-106838995D01*
X160624659Y-106945341D01*
X160731004Y-107074922D01*
X160731005Y-107074924D01*
X160810024Y-107222758D01*
X160858687Y-107383177D01*
X160871000Y-107508196D01*
X160871000Y-108391803D01*
X160858687Y-108516822D01*
X160810024Y-108677242D01*
X160788768Y-108717009D01*
X160731004Y-108825078D01*
X160624659Y-108954659D01*
X160495078Y-109061004D01*
X160495076Y-109061005D01*
X160347242Y-109140024D01*
X160186823Y-109188687D01*
X160020000Y-109205117D01*
X159853178Y-109188687D01*
X159692759Y-109140024D01*
X159544925Y-109061005D01*
X159544923Y-109061004D01*
X159415342Y-108954659D01*
X159308997Y-108825078D01*
X159251233Y-108717009D01*
X159229977Y-108677242D01*
X159181314Y-108516823D01*
X159169000Y-108391803D01*
X159169000Y-107508197D01*
X159181313Y-107383178D01*
X159229976Y-107222759D01*
X159308995Y-107074923D01*
X159415341Y-106945341D01*
X159523439Y-106856627D01*
X159544922Y-106838996D01*
X159560094Y-106830886D01*
X159692758Y-106759976D01*
X159853177Y-106711313D01*
X160020000Y-106694883D01*
X160186822Y-106711313D01*
X160186822Y-106711313D01*
G37*
G36*
X102345443Y-105785519D02*
G01*
X102411627Y-105792037D01*
X102581466Y-105843557D01*
X102737991Y-105927222D01*
X102773729Y-105956552D01*
X102875186Y-106039814D01*
X102958448Y-106141271D01*
X102987778Y-106177009D01*
X103071443Y-106333534D01*
X103122963Y-106503373D01*
X103140359Y-106680000D01*
X103122963Y-106856627D01*
X103071443Y-107026466D01*
X102987778Y-107182991D01*
X102958448Y-107218729D01*
X102875186Y-107320186D01*
X102773729Y-107403448D01*
X102737991Y-107432778D01*
X102737989Y-107432779D01*
X102596888Y-107508200D01*
X102581466Y-107516443D01*
X102411627Y-107567963D01*
X102345443Y-107574481D01*
X102279260Y-107581000D01*
X102190740Y-107581000D01*
X102124557Y-107574481D01*
X102058373Y-107567963D01*
X101888534Y-107516443D01*
X101873113Y-107508200D01*
X101732011Y-107432779D01*
X101732009Y-107432778D01*
X101696271Y-107403448D01*
X101594814Y-107320186D01*
X101511552Y-107218729D01*
X101482222Y-107182991D01*
X101398557Y-107026466D01*
X101347037Y-106856627D01*
X101329641Y-106680000D01*
X101347037Y-106503373D01*
X101398557Y-106333534D01*
X101482222Y-106177009D01*
X101511552Y-106141271D01*
X101594814Y-106039814D01*
X101696271Y-105956552D01*
X101732009Y-105927222D01*
X101888534Y-105843557D01*
X102058373Y-105792037D01*
X102124557Y-105785519D01*
X102190740Y-105779000D01*
X102279260Y-105779000D01*
X102345443Y-105785519D01*
X102345443Y-105785519D01*
G37*
G36*
X104885443Y-105785519D02*
G01*
X104951627Y-105792037D01*
X105121466Y-105843557D01*
X105277991Y-105927222D01*
X105313729Y-105956552D01*
X105415186Y-106039814D01*
X105498448Y-106141271D01*
X105527778Y-106177009D01*
X105611443Y-106333534D01*
X105662963Y-106503373D01*
X105680359Y-106680000D01*
X105662963Y-106856627D01*
X105611443Y-107026466D01*
X105527778Y-107182991D01*
X105498448Y-107218729D01*
X105415186Y-107320186D01*
X105313729Y-107403448D01*
X105277991Y-107432778D01*
X105277989Y-107432779D01*
X105136888Y-107508200D01*
X105121466Y-107516443D01*
X104951627Y-107567963D01*
X104885443Y-107574481D01*
X104819260Y-107581000D01*
X104730740Y-107581000D01*
X104664557Y-107574481D01*
X104598373Y-107567963D01*
X104428534Y-107516443D01*
X104413113Y-107508200D01*
X104272011Y-107432779D01*
X104272009Y-107432778D01*
X104236271Y-107403448D01*
X104134814Y-107320186D01*
X104051552Y-107218729D01*
X104022222Y-107182991D01*
X103938557Y-107026466D01*
X103887037Y-106856627D01*
X103869641Y-106680000D01*
X103887037Y-106503373D01*
X103938557Y-106333534D01*
X104022222Y-106177009D01*
X104051552Y-106141271D01*
X104134814Y-106039814D01*
X104236271Y-105956552D01*
X104272009Y-105927222D01*
X104428534Y-105843557D01*
X104598373Y-105792037D01*
X104664557Y-105785519D01*
X104730740Y-105779000D01*
X104819260Y-105779000D01*
X104885443Y-105785519D01*
X104885443Y-105785519D01*
G37*
G36*
X104885443Y-103245519D02*
G01*
X104951627Y-103252037D01*
X105121466Y-103303557D01*
X105277991Y-103387222D01*
X105313729Y-103416552D01*
X105415186Y-103499814D01*
X105498448Y-103601271D01*
X105527778Y-103637009D01*
X105611443Y-103793534D01*
X105662963Y-103963373D01*
X105680359Y-104140000D01*
X105662963Y-104316627D01*
X105611443Y-104486466D01*
X105527778Y-104642991D01*
X105498448Y-104678729D01*
X105415186Y-104780186D01*
X105313729Y-104863448D01*
X105277991Y-104892778D01*
X105121466Y-104976443D01*
X104951627Y-105027963D01*
X104885442Y-105034482D01*
X104819260Y-105041000D01*
X104730740Y-105041000D01*
X104664557Y-105034481D01*
X104598373Y-105027963D01*
X104428534Y-104976443D01*
X104272009Y-104892778D01*
X104236271Y-104863448D01*
X104134814Y-104780186D01*
X104051552Y-104678729D01*
X104022222Y-104642991D01*
X103938557Y-104486466D01*
X103887037Y-104316627D01*
X103869641Y-104140000D01*
X103887037Y-103963373D01*
X103938557Y-103793534D01*
X104022222Y-103637009D01*
X104051552Y-103601271D01*
X104134814Y-103499814D01*
X104236271Y-103416552D01*
X104272009Y-103387222D01*
X104428534Y-103303557D01*
X104598373Y-103252037D01*
X104664558Y-103245518D01*
X104730740Y-103239000D01*
X104819260Y-103239000D01*
X104885443Y-103245519D01*
X104885443Y-103245519D01*
G37*
G36*
X102345443Y-103245519D02*
G01*
X102411627Y-103252037D01*
X102581466Y-103303557D01*
X102737991Y-103387222D01*
X102773729Y-103416552D01*
X102875186Y-103499814D01*
X102958448Y-103601271D01*
X102987778Y-103637009D01*
X103071443Y-103793534D01*
X103122963Y-103963373D01*
X103140359Y-104140000D01*
X103122963Y-104316627D01*
X103071443Y-104486466D01*
X102987778Y-104642991D01*
X102958448Y-104678729D01*
X102875186Y-104780186D01*
X102773729Y-104863448D01*
X102737991Y-104892778D01*
X102581466Y-104976443D01*
X102411627Y-105027963D01*
X102345442Y-105034482D01*
X102279260Y-105041000D01*
X102190740Y-105041000D01*
X102124557Y-105034481D01*
X102058373Y-105027963D01*
X101888534Y-104976443D01*
X101732009Y-104892778D01*
X101696271Y-104863448D01*
X101594814Y-104780186D01*
X101511552Y-104678729D01*
X101482222Y-104642991D01*
X101398557Y-104486466D01*
X101347037Y-104316627D01*
X101329641Y-104140000D01*
X101347037Y-103963373D01*
X101398557Y-103793534D01*
X101482222Y-103637009D01*
X101511552Y-103601271D01*
X101594814Y-103499814D01*
X101696271Y-103416552D01*
X101732009Y-103387222D01*
X101888534Y-103303557D01*
X102058373Y-103252037D01*
X102124558Y-103245518D01*
X102190740Y-103239000D01*
X102279260Y-103239000D01*
X102345443Y-103245519D01*
X102345443Y-103245519D01*
G37*
G36*
X173846443Y-102737519D02*
G01*
X173912627Y-102744037D01*
X174082466Y-102795557D01*
X174238991Y-102879222D01*
X174274729Y-102908552D01*
X174376186Y-102991814D01*
X174459448Y-103093271D01*
X174488778Y-103129009D01*
X174572443Y-103285534D01*
X174623963Y-103455373D01*
X174641359Y-103632000D01*
X174623963Y-103808627D01*
X174572443Y-103978466D01*
X174488778Y-104134991D01*
X174484667Y-104140000D01*
X174376186Y-104272186D01*
X174274729Y-104355448D01*
X174238991Y-104384778D01*
X174082466Y-104468443D01*
X173912627Y-104519963D01*
X173846443Y-104526481D01*
X173780260Y-104533000D01*
X173691740Y-104533000D01*
X173625557Y-104526481D01*
X173559373Y-104519963D01*
X173389534Y-104468443D01*
X173233009Y-104384778D01*
X173197271Y-104355448D01*
X173095814Y-104272186D01*
X172987333Y-104140000D01*
X172983222Y-104134991D01*
X172899557Y-103978466D01*
X172848037Y-103808627D01*
X172830641Y-103632000D01*
X172848037Y-103455373D01*
X172899557Y-103285534D01*
X172983222Y-103129009D01*
X173012552Y-103093271D01*
X173095814Y-102991814D01*
X173197271Y-102908552D01*
X173233009Y-102879222D01*
X173389534Y-102795557D01*
X173559373Y-102744037D01*
X173625557Y-102737519D01*
X173691740Y-102731000D01*
X173780260Y-102731000D01*
X173846443Y-102737519D01*
X173846443Y-102737519D01*
G37*
G36*
X176386443Y-102737519D02*
G01*
X176452627Y-102744037D01*
X176622466Y-102795557D01*
X176778991Y-102879222D01*
X176814729Y-102908552D01*
X176916186Y-102991814D01*
X176999448Y-103093271D01*
X177028778Y-103129009D01*
X177112443Y-103285534D01*
X177163963Y-103455373D01*
X177181359Y-103632000D01*
X177163963Y-103808627D01*
X177112443Y-103978466D01*
X177028778Y-104134991D01*
X177024667Y-104140000D01*
X176916186Y-104272186D01*
X176814729Y-104355448D01*
X176778991Y-104384778D01*
X176622466Y-104468443D01*
X176452627Y-104519963D01*
X176386443Y-104526481D01*
X176320260Y-104533000D01*
X176231740Y-104533000D01*
X176165557Y-104526481D01*
X176099373Y-104519963D01*
X175929534Y-104468443D01*
X175773009Y-104384778D01*
X175737271Y-104355448D01*
X175635814Y-104272186D01*
X175527333Y-104140000D01*
X175523222Y-104134991D01*
X175439557Y-103978466D01*
X175388037Y-103808627D01*
X175370641Y-103632000D01*
X175388037Y-103455373D01*
X175439557Y-103285534D01*
X175523222Y-103129009D01*
X175552552Y-103093271D01*
X175635814Y-102991814D01*
X175737271Y-102908552D01*
X175773009Y-102879222D01*
X175929534Y-102795557D01*
X176099373Y-102744037D01*
X176165557Y-102737519D01*
X176231740Y-102731000D01*
X176320260Y-102731000D01*
X176386443Y-102737519D01*
X176386443Y-102737519D01*
G37*
G36*
X104885443Y-100705519D02*
G01*
X104951627Y-100712037D01*
X105121466Y-100763557D01*
X105277991Y-100847222D01*
X105313729Y-100876552D01*
X105415186Y-100959814D01*
X105498448Y-101061271D01*
X105527778Y-101097009D01*
X105611443Y-101253534D01*
X105662963Y-101423373D01*
X105680359Y-101600000D01*
X105662963Y-101776627D01*
X105611443Y-101946466D01*
X105527778Y-102102991D01*
X105498448Y-102138729D01*
X105415186Y-102240186D01*
X105313729Y-102323448D01*
X105277991Y-102352778D01*
X105121466Y-102436443D01*
X104951627Y-102487963D01*
X104885442Y-102494482D01*
X104819260Y-102501000D01*
X104730740Y-102501000D01*
X104664558Y-102494482D01*
X104598373Y-102487963D01*
X104428534Y-102436443D01*
X104272009Y-102352778D01*
X104236271Y-102323448D01*
X104134814Y-102240186D01*
X104051552Y-102138729D01*
X104022222Y-102102991D01*
X103938557Y-101946466D01*
X103887037Y-101776627D01*
X103869641Y-101600000D01*
X103887037Y-101423373D01*
X103938557Y-101253534D01*
X104022222Y-101097009D01*
X104051552Y-101061271D01*
X104134814Y-100959814D01*
X104236271Y-100876552D01*
X104272009Y-100847222D01*
X104428534Y-100763557D01*
X104598373Y-100712037D01*
X104664557Y-100705519D01*
X104730740Y-100699000D01*
X104819260Y-100699000D01*
X104885443Y-100705519D01*
X104885443Y-100705519D01*
G37*
G36*
X102345443Y-100705519D02*
G01*
X102411627Y-100712037D01*
X102581466Y-100763557D01*
X102737991Y-100847222D01*
X102773729Y-100876552D01*
X102875186Y-100959814D01*
X102958448Y-101061271D01*
X102987778Y-101097009D01*
X103071443Y-101253534D01*
X103122963Y-101423373D01*
X103140359Y-101600000D01*
X103122963Y-101776627D01*
X103071443Y-101946466D01*
X102987778Y-102102991D01*
X102958448Y-102138729D01*
X102875186Y-102240186D01*
X102773729Y-102323448D01*
X102737991Y-102352778D01*
X102581466Y-102436443D01*
X102411627Y-102487963D01*
X102345442Y-102494482D01*
X102279260Y-102501000D01*
X102190740Y-102501000D01*
X102124558Y-102494482D01*
X102058373Y-102487963D01*
X101888534Y-102436443D01*
X101732009Y-102352778D01*
X101696271Y-102323448D01*
X101594814Y-102240186D01*
X101511552Y-102138729D01*
X101482222Y-102102991D01*
X101398557Y-101946466D01*
X101347037Y-101776627D01*
X101329641Y-101600000D01*
X101347037Y-101423373D01*
X101398557Y-101253534D01*
X101482222Y-101097009D01*
X101511552Y-101061271D01*
X101594814Y-100959814D01*
X101696271Y-100876552D01*
X101732009Y-100847222D01*
X101888534Y-100763557D01*
X102058373Y-100712037D01*
X102124557Y-100705519D01*
X102190740Y-100699000D01*
X102279260Y-100699000D01*
X102345443Y-100705519D01*
X102345443Y-100705519D01*
G37*
G36*
X176386442Y-100197518D02*
G01*
X176452627Y-100204037D01*
X176622466Y-100255557D01*
X176778991Y-100339222D01*
X176814729Y-100368552D01*
X176916186Y-100451814D01*
X176999448Y-100553271D01*
X177028778Y-100589009D01*
X177112443Y-100745534D01*
X177163963Y-100915373D01*
X177181359Y-101092000D01*
X177163963Y-101268627D01*
X177112443Y-101438466D01*
X177028778Y-101594991D01*
X177024667Y-101600000D01*
X176916186Y-101732186D01*
X176814729Y-101815448D01*
X176778991Y-101844778D01*
X176622466Y-101928443D01*
X176452627Y-101979963D01*
X176386442Y-101986482D01*
X176320260Y-101993000D01*
X176231740Y-101993000D01*
X176165558Y-101986482D01*
X176099373Y-101979963D01*
X175929534Y-101928443D01*
X175773009Y-101844778D01*
X175737271Y-101815448D01*
X175635814Y-101732186D01*
X175527333Y-101600000D01*
X175523222Y-101594991D01*
X175439557Y-101438466D01*
X175388037Y-101268627D01*
X175370641Y-101092000D01*
X175388037Y-100915373D01*
X175439557Y-100745534D01*
X175523222Y-100589009D01*
X175552552Y-100553271D01*
X175635814Y-100451814D01*
X175737271Y-100368552D01*
X175773009Y-100339222D01*
X175929534Y-100255557D01*
X176099373Y-100204037D01*
X176165558Y-100197518D01*
X176231740Y-100191000D01*
X176320260Y-100191000D01*
X176386442Y-100197518D01*
X176386442Y-100197518D01*
G37*
G36*
X173846442Y-100197518D02*
G01*
X173912627Y-100204037D01*
X174082466Y-100255557D01*
X174238991Y-100339222D01*
X174274729Y-100368552D01*
X174376186Y-100451814D01*
X174459448Y-100553271D01*
X174488778Y-100589009D01*
X174572443Y-100745534D01*
X174623963Y-100915373D01*
X174641359Y-101092000D01*
X174623963Y-101268627D01*
X174572443Y-101438466D01*
X174488778Y-101594991D01*
X174484667Y-101600000D01*
X174376186Y-101732186D01*
X174274729Y-101815448D01*
X174238991Y-101844778D01*
X174082466Y-101928443D01*
X173912627Y-101979963D01*
X173846442Y-101986482D01*
X173780260Y-101993000D01*
X173691740Y-101993000D01*
X173625558Y-101986482D01*
X173559373Y-101979963D01*
X173389534Y-101928443D01*
X173233009Y-101844778D01*
X173197271Y-101815448D01*
X173095814Y-101732186D01*
X172987333Y-101600000D01*
X172983222Y-101594991D01*
X172899557Y-101438466D01*
X172848037Y-101268627D01*
X172830641Y-101092000D01*
X172848037Y-100915373D01*
X172899557Y-100745534D01*
X172983222Y-100589009D01*
X173012552Y-100553271D01*
X173095814Y-100451814D01*
X173197271Y-100368552D01*
X173233009Y-100339222D01*
X173389534Y-100255557D01*
X173559373Y-100204037D01*
X173625558Y-100197518D01*
X173691740Y-100191000D01*
X173780260Y-100191000D01*
X173846442Y-100197518D01*
X173846442Y-100197518D01*
G37*
G36*
X102345443Y-98165519D02*
G01*
X102411627Y-98172037D01*
X102581466Y-98223557D01*
X102737991Y-98307222D01*
X102773729Y-98336552D01*
X102875186Y-98419814D01*
X102958448Y-98521271D01*
X102987778Y-98557009D01*
X103071443Y-98713534D01*
X103122963Y-98883373D01*
X103140359Y-99060000D01*
X103122963Y-99236627D01*
X103071443Y-99406466D01*
X102987778Y-99562991D01*
X102958448Y-99598729D01*
X102875186Y-99700186D01*
X102773729Y-99783448D01*
X102737991Y-99812778D01*
X102581466Y-99896443D01*
X102411627Y-99947963D01*
X102345443Y-99954481D01*
X102279260Y-99961000D01*
X102190740Y-99961000D01*
X102124557Y-99954481D01*
X102058373Y-99947963D01*
X101888534Y-99896443D01*
X101732009Y-99812778D01*
X101696271Y-99783448D01*
X101594814Y-99700186D01*
X101511552Y-99598729D01*
X101482222Y-99562991D01*
X101398557Y-99406466D01*
X101347037Y-99236627D01*
X101329641Y-99060000D01*
X101347037Y-98883373D01*
X101398557Y-98713534D01*
X101482222Y-98557009D01*
X101511552Y-98521271D01*
X101594814Y-98419814D01*
X101696271Y-98336552D01*
X101732009Y-98307222D01*
X101888534Y-98223557D01*
X102058373Y-98172037D01*
X102124557Y-98165519D01*
X102190740Y-98159000D01*
X102279260Y-98159000D01*
X102345443Y-98165519D01*
X102345443Y-98165519D01*
G37*
G36*
X104885443Y-98165519D02*
G01*
X104951627Y-98172037D01*
X105121466Y-98223557D01*
X105277991Y-98307222D01*
X105313729Y-98336552D01*
X105415186Y-98419814D01*
X105498448Y-98521271D01*
X105527778Y-98557009D01*
X105611443Y-98713534D01*
X105662963Y-98883373D01*
X105680359Y-99060000D01*
X105662963Y-99236627D01*
X105611443Y-99406466D01*
X105527778Y-99562991D01*
X105498448Y-99598729D01*
X105415186Y-99700186D01*
X105313729Y-99783448D01*
X105277991Y-99812778D01*
X105121466Y-99896443D01*
X104951627Y-99947963D01*
X104885443Y-99954481D01*
X104819260Y-99961000D01*
X104730740Y-99961000D01*
X104664557Y-99954481D01*
X104598373Y-99947963D01*
X104428534Y-99896443D01*
X104272009Y-99812778D01*
X104236271Y-99783448D01*
X104134814Y-99700186D01*
X104051552Y-99598729D01*
X104022222Y-99562991D01*
X103938557Y-99406466D01*
X103887037Y-99236627D01*
X103869641Y-99060000D01*
X103887037Y-98883373D01*
X103938557Y-98713534D01*
X104022222Y-98557009D01*
X104051552Y-98521271D01*
X104134814Y-98419814D01*
X104236271Y-98336552D01*
X104272009Y-98307222D01*
X104428534Y-98223557D01*
X104598373Y-98172037D01*
X104664557Y-98165519D01*
X104730740Y-98159000D01*
X104819260Y-98159000D01*
X104885443Y-98165519D01*
X104885443Y-98165519D01*
G37*
G36*
X176386443Y-97657519D02*
G01*
X176452627Y-97664037D01*
X176622466Y-97715557D01*
X176778991Y-97799222D01*
X176814729Y-97828552D01*
X176916186Y-97911814D01*
X176999448Y-98013271D01*
X177028778Y-98049009D01*
X177112443Y-98205534D01*
X177163963Y-98375373D01*
X177181359Y-98552000D01*
X177163963Y-98728627D01*
X177112443Y-98898466D01*
X177028778Y-99054991D01*
X177024667Y-99060000D01*
X176916186Y-99192186D01*
X176814729Y-99275448D01*
X176778991Y-99304778D01*
X176622466Y-99388443D01*
X176452627Y-99439963D01*
X176386443Y-99446481D01*
X176320260Y-99453000D01*
X176231740Y-99453000D01*
X176165557Y-99446481D01*
X176099373Y-99439963D01*
X175929534Y-99388443D01*
X175773009Y-99304778D01*
X175737271Y-99275448D01*
X175635814Y-99192186D01*
X175527333Y-99060000D01*
X175523222Y-99054991D01*
X175439557Y-98898466D01*
X175388037Y-98728627D01*
X175370641Y-98552000D01*
X175388037Y-98375373D01*
X175439557Y-98205534D01*
X175523222Y-98049009D01*
X175552552Y-98013271D01*
X175635814Y-97911814D01*
X175737271Y-97828552D01*
X175773009Y-97799222D01*
X175929534Y-97715557D01*
X176099373Y-97664037D01*
X176165557Y-97657519D01*
X176231740Y-97651000D01*
X176320260Y-97651000D01*
X176386443Y-97657519D01*
X176386443Y-97657519D01*
G37*
G36*
X174637000Y-99453000D02*
G01*
X172835000Y-99453000D01*
X172835000Y-97651000D01*
X174637000Y-97651000D01*
X174637000Y-99453000D01*
X174637000Y-99453000D01*
G37*
G36*
X102345442Y-95625518D02*
G01*
X102411627Y-95632037D01*
X102581466Y-95683557D01*
X102737991Y-95767222D01*
X102773729Y-95796552D01*
X102875186Y-95879814D01*
X102958448Y-95981271D01*
X102987778Y-96017009D01*
X103071443Y-96173534D01*
X103122963Y-96343373D01*
X103140359Y-96520000D01*
X103122963Y-96696627D01*
X103071443Y-96866466D01*
X102987778Y-97022991D01*
X102958448Y-97058729D01*
X102875186Y-97160186D01*
X102773729Y-97243448D01*
X102737991Y-97272778D01*
X102581466Y-97356443D01*
X102411627Y-97407963D01*
X102345442Y-97414482D01*
X102279260Y-97421000D01*
X102190740Y-97421000D01*
X102124558Y-97414482D01*
X102058373Y-97407963D01*
X101888534Y-97356443D01*
X101732009Y-97272778D01*
X101696271Y-97243448D01*
X101594814Y-97160186D01*
X101511552Y-97058729D01*
X101482222Y-97022991D01*
X101398557Y-96866466D01*
X101347037Y-96696627D01*
X101329641Y-96520000D01*
X101347037Y-96343373D01*
X101398557Y-96173534D01*
X101482222Y-96017009D01*
X101511552Y-95981271D01*
X101594814Y-95879814D01*
X101696271Y-95796552D01*
X101732009Y-95767222D01*
X101888534Y-95683557D01*
X102058373Y-95632037D01*
X102124558Y-95625518D01*
X102190740Y-95619000D01*
X102279260Y-95619000D01*
X102345442Y-95625518D01*
X102345442Y-95625518D01*
G37*
G36*
X104885442Y-95625518D02*
G01*
X104951627Y-95632037D01*
X105121466Y-95683557D01*
X105277991Y-95767222D01*
X105313729Y-95796552D01*
X105415186Y-95879814D01*
X105498448Y-95981271D01*
X105527778Y-96017009D01*
X105611443Y-96173534D01*
X105662963Y-96343373D01*
X105680359Y-96520000D01*
X105662963Y-96696627D01*
X105611443Y-96866466D01*
X105527778Y-97022991D01*
X105498448Y-97058729D01*
X105415186Y-97160186D01*
X105313729Y-97243448D01*
X105277991Y-97272778D01*
X105121466Y-97356443D01*
X104951627Y-97407963D01*
X104885442Y-97414482D01*
X104819260Y-97421000D01*
X104730740Y-97421000D01*
X104664558Y-97414482D01*
X104598373Y-97407963D01*
X104428534Y-97356443D01*
X104272009Y-97272778D01*
X104236271Y-97243448D01*
X104134814Y-97160186D01*
X104051552Y-97058729D01*
X104022222Y-97022991D01*
X103938557Y-96866466D01*
X103887037Y-96696627D01*
X103869641Y-96520000D01*
X103887037Y-96343373D01*
X103938557Y-96173534D01*
X104022222Y-96017009D01*
X104051552Y-95981271D01*
X104134814Y-95879814D01*
X104236271Y-95796552D01*
X104272009Y-95767222D01*
X104428534Y-95683557D01*
X104598373Y-95632037D01*
X104664558Y-95625518D01*
X104730740Y-95619000D01*
X104819260Y-95619000D01*
X104885442Y-95625518D01*
X104885442Y-95625518D01*
G37*
G36*
X104885443Y-93085519D02*
G01*
X104951627Y-93092037D01*
X105121466Y-93143557D01*
X105277991Y-93227222D01*
X105313729Y-93256552D01*
X105415186Y-93339814D01*
X105498448Y-93441271D01*
X105527778Y-93477009D01*
X105611443Y-93633534D01*
X105662963Y-93803373D01*
X105680359Y-93980000D01*
X105662963Y-94156627D01*
X105611443Y-94326466D01*
X105527778Y-94482991D01*
X105498448Y-94518729D01*
X105415186Y-94620186D01*
X105313729Y-94703448D01*
X105277991Y-94732778D01*
X105121466Y-94816443D01*
X104951627Y-94867963D01*
X104885443Y-94874481D01*
X104819260Y-94881000D01*
X104730740Y-94881000D01*
X104664557Y-94874481D01*
X104598373Y-94867963D01*
X104428534Y-94816443D01*
X104272009Y-94732778D01*
X104236271Y-94703448D01*
X104134814Y-94620186D01*
X104051552Y-94518729D01*
X104022222Y-94482991D01*
X103938557Y-94326466D01*
X103887037Y-94156627D01*
X103869641Y-93980000D01*
X103887037Y-93803373D01*
X103938557Y-93633534D01*
X104022222Y-93477009D01*
X104051552Y-93441271D01*
X104134814Y-93339814D01*
X104236271Y-93256552D01*
X104272009Y-93227222D01*
X104428534Y-93143557D01*
X104598373Y-93092037D01*
X104664557Y-93085519D01*
X104730740Y-93079000D01*
X104819260Y-93079000D01*
X104885443Y-93085519D01*
X104885443Y-93085519D01*
G37*
G36*
X102345443Y-93085519D02*
G01*
X102411627Y-93092037D01*
X102581466Y-93143557D01*
X102737991Y-93227222D01*
X102773729Y-93256552D01*
X102875186Y-93339814D01*
X102958448Y-93441271D01*
X102987778Y-93477009D01*
X103071443Y-93633534D01*
X103122963Y-93803373D01*
X103140359Y-93980000D01*
X103122963Y-94156627D01*
X103071443Y-94326466D01*
X102987778Y-94482991D01*
X102958448Y-94518729D01*
X102875186Y-94620186D01*
X102773729Y-94703448D01*
X102737991Y-94732778D01*
X102581466Y-94816443D01*
X102411627Y-94867963D01*
X102345443Y-94874481D01*
X102279260Y-94881000D01*
X102190740Y-94881000D01*
X102124557Y-94874481D01*
X102058373Y-94867963D01*
X101888534Y-94816443D01*
X101732009Y-94732778D01*
X101696271Y-94703448D01*
X101594814Y-94620186D01*
X101511552Y-94518729D01*
X101482222Y-94482991D01*
X101398557Y-94326466D01*
X101347037Y-94156627D01*
X101329641Y-93980000D01*
X101347037Y-93803373D01*
X101398557Y-93633534D01*
X101482222Y-93477009D01*
X101511552Y-93441271D01*
X101594814Y-93339814D01*
X101696271Y-93256552D01*
X101732009Y-93227222D01*
X101888534Y-93143557D01*
X102058373Y-93092037D01*
X102124557Y-93085519D01*
X102190740Y-93079000D01*
X102279260Y-93079000D01*
X102345443Y-93085519D01*
X102345443Y-93085519D01*
G37*
G36*
X187602395Y-91160546D02*
G01*
X187775466Y-91232234D01*
X187775467Y-91232235D01*
X187931227Y-91336310D01*
X188063690Y-91468773D01*
X188063691Y-91468775D01*
X188167766Y-91624534D01*
X188239454Y-91797605D01*
X188276000Y-91981333D01*
X188276000Y-92168667D01*
X188239454Y-92352395D01*
X188167766Y-92525466D01*
X188167765Y-92525467D01*
X188063690Y-92681227D01*
X187931227Y-92813690D01*
X187852818Y-92866081D01*
X187775466Y-92917766D01*
X187602395Y-92989454D01*
X187418667Y-93026000D01*
X187231333Y-93026000D01*
X187047605Y-92989454D01*
X186874534Y-92917766D01*
X186797182Y-92866081D01*
X186718773Y-92813690D01*
X186586310Y-92681227D01*
X186482235Y-92525467D01*
X186482234Y-92525466D01*
X186410546Y-92352395D01*
X186374000Y-92168667D01*
X186374000Y-91981333D01*
X186410546Y-91797605D01*
X186482234Y-91624534D01*
X186586309Y-91468775D01*
X186586310Y-91468773D01*
X186718773Y-91336310D01*
X186874533Y-91232235D01*
X186874534Y-91232234D01*
X187047605Y-91160546D01*
X187231333Y-91124000D01*
X187418667Y-91124000D01*
X187602395Y-91160546D01*
X187602395Y-91160546D01*
G37*
G36*
X185736000Y-93026000D02*
G01*
X183834000Y-93026000D01*
X183834000Y-91124000D01*
X185736000Y-91124000D01*
X185736000Y-93026000D01*
X185736000Y-93026000D01*
G37*
G36*
X104885443Y-90545519D02*
G01*
X104951627Y-90552037D01*
X105121466Y-90603557D01*
X105277991Y-90687222D01*
X105313729Y-90716552D01*
X105415186Y-90799814D01*
X105495369Y-90897519D01*
X105527778Y-90937009D01*
X105611443Y-91093534D01*
X105662963Y-91263373D01*
X105680359Y-91440000D01*
X105662963Y-91616627D01*
X105611443Y-91786466D01*
X105527778Y-91942991D01*
X105498448Y-91978729D01*
X105415186Y-92080186D01*
X105313729Y-92163448D01*
X105277991Y-92192778D01*
X105121466Y-92276443D01*
X104951627Y-92327963D01*
X104885443Y-92334481D01*
X104819260Y-92341000D01*
X104730740Y-92341000D01*
X104664557Y-92334481D01*
X104598373Y-92327963D01*
X104428534Y-92276443D01*
X104272009Y-92192778D01*
X104236271Y-92163448D01*
X104134814Y-92080186D01*
X104051552Y-91978729D01*
X104022222Y-91942991D01*
X103938557Y-91786466D01*
X103887037Y-91616627D01*
X103869641Y-91440000D01*
X103887037Y-91263373D01*
X103938557Y-91093534D01*
X104022222Y-90937009D01*
X104054631Y-90897519D01*
X104134814Y-90799814D01*
X104236271Y-90716552D01*
X104272009Y-90687222D01*
X104428534Y-90603557D01*
X104598373Y-90552037D01*
X104664557Y-90545519D01*
X104730740Y-90539000D01*
X104819260Y-90539000D01*
X104885443Y-90545519D01*
X104885443Y-90545519D01*
G37*
G36*
X102345443Y-90545519D02*
G01*
X102411627Y-90552037D01*
X102581466Y-90603557D01*
X102737991Y-90687222D01*
X102773729Y-90716552D01*
X102875186Y-90799814D01*
X102955369Y-90897519D01*
X102987778Y-90937009D01*
X103071443Y-91093534D01*
X103122963Y-91263373D01*
X103140359Y-91440000D01*
X103122963Y-91616627D01*
X103071443Y-91786466D01*
X102987778Y-91942991D01*
X102958448Y-91978729D01*
X102875186Y-92080186D01*
X102773729Y-92163448D01*
X102737991Y-92192778D01*
X102581466Y-92276443D01*
X102411627Y-92327963D01*
X102345443Y-92334481D01*
X102279260Y-92341000D01*
X102190740Y-92341000D01*
X102124557Y-92334481D01*
X102058373Y-92327963D01*
X101888534Y-92276443D01*
X101732009Y-92192778D01*
X101696271Y-92163448D01*
X101594814Y-92080186D01*
X101511552Y-91978729D01*
X101482222Y-91942991D01*
X101398557Y-91786466D01*
X101347037Y-91616627D01*
X101329641Y-91440000D01*
X101347037Y-91263373D01*
X101398557Y-91093534D01*
X101482222Y-90937009D01*
X101514631Y-90897519D01*
X101594814Y-90799814D01*
X101696271Y-90716552D01*
X101732009Y-90687222D01*
X101888534Y-90603557D01*
X102058373Y-90552037D01*
X102124557Y-90545519D01*
X102190740Y-90539000D01*
X102279260Y-90539000D01*
X102345443Y-90545519D01*
X102345443Y-90545519D01*
G37*
G36*
X124708228Y-90621703D02*
G01*
X124863100Y-90685853D01*
X125002481Y-90778985D01*
X125121015Y-90897519D01*
X125214147Y-91036900D01*
X125278297Y-91191772D01*
X125311000Y-91356184D01*
X125311000Y-91523816D01*
X125278297Y-91688228D01*
X125214147Y-91843100D01*
X125121015Y-91982481D01*
X125002481Y-92101015D01*
X124863100Y-92194147D01*
X124708228Y-92258297D01*
X124543816Y-92291000D01*
X124376184Y-92291000D01*
X124211772Y-92258297D01*
X124056900Y-92194147D01*
X123917519Y-92101015D01*
X123798985Y-91982481D01*
X123705853Y-91843100D01*
X123641703Y-91688228D01*
X123609000Y-91523816D01*
X123609000Y-91356184D01*
X123641703Y-91191772D01*
X123705853Y-91036900D01*
X123798985Y-90897519D01*
X123917519Y-90778985D01*
X124056900Y-90685853D01*
X124211772Y-90621703D01*
X124376184Y-90589000D01*
X124543816Y-90589000D01*
X124708228Y-90621703D01*
X124708228Y-90621703D01*
G37*
G36*
X139948228Y-90621703D02*
G01*
X140103100Y-90685853D01*
X140242481Y-90778985D01*
X140361015Y-90897519D01*
X140454147Y-91036900D01*
X140518297Y-91191772D01*
X140551000Y-91356184D01*
X140551000Y-91523816D01*
X140518297Y-91688228D01*
X140454147Y-91843100D01*
X140361015Y-91982481D01*
X140242481Y-92101015D01*
X140103100Y-92194147D01*
X139948228Y-92258297D01*
X139783816Y-92291000D01*
X139616184Y-92291000D01*
X139451772Y-92258297D01*
X139296900Y-92194147D01*
X139157519Y-92101015D01*
X139038985Y-91982481D01*
X138945853Y-91843100D01*
X138881703Y-91688228D01*
X138849000Y-91523816D01*
X138849000Y-91356184D01*
X138881703Y-91191772D01*
X138945853Y-91036900D01*
X139038985Y-90897519D01*
X139157519Y-90778985D01*
X139296900Y-90685853D01*
X139451772Y-90621703D01*
X139616184Y-90589000D01*
X139783816Y-90589000D01*
X139948228Y-90621703D01*
X139948228Y-90621703D01*
G37*
G36*
X155741822Y-87661313D02*
G01*
X155902241Y-87709976D01*
X156050077Y-87788995D01*
X156179659Y-87895341D01*
X156286004Y-88024922D01*
X156286005Y-88024924D01*
X156365024Y-88172758D01*
X156413687Y-88333177D01*
X156426000Y-88458196D01*
X156426000Y-89341803D01*
X156413687Y-89466822D01*
X156365024Y-89627242D01*
X156351374Y-89652779D01*
X156286004Y-89775078D01*
X156179659Y-89904659D01*
X156050078Y-90011004D01*
X156050076Y-90011005D01*
X155902242Y-90090024D01*
X155741823Y-90138687D01*
X155575000Y-90155117D01*
X155408178Y-90138687D01*
X155247759Y-90090024D01*
X155099925Y-90011005D01*
X155099923Y-90011004D01*
X154970342Y-89904659D01*
X154863997Y-89775078D01*
X154798627Y-89652779D01*
X154784977Y-89627242D01*
X154736314Y-89466823D01*
X154724000Y-89341803D01*
X154724000Y-88458197D01*
X154736313Y-88333178D01*
X154784976Y-88172759D01*
X154863995Y-88024923D01*
X154970341Y-87895341D01*
X155099922Y-87788996D01*
X155164662Y-87754392D01*
X155247758Y-87709976D01*
X155408177Y-87661313D01*
X155575000Y-87644883D01*
X155741822Y-87661313D01*
X155741822Y-87661313D01*
G37*
G36*
X158281822Y-87661313D02*
G01*
X158442241Y-87709976D01*
X158590077Y-87788995D01*
X158719659Y-87895341D01*
X158826004Y-88024922D01*
X158826005Y-88024924D01*
X158905024Y-88172758D01*
X158953687Y-88333177D01*
X158966000Y-88458196D01*
X158966000Y-89341803D01*
X158953687Y-89466822D01*
X158905024Y-89627242D01*
X158891374Y-89652779D01*
X158826004Y-89775078D01*
X158719659Y-89904659D01*
X158590078Y-90011004D01*
X158590076Y-90011005D01*
X158442242Y-90090024D01*
X158281823Y-90138687D01*
X158115000Y-90155117D01*
X157948178Y-90138687D01*
X157787759Y-90090024D01*
X157639925Y-90011005D01*
X157639923Y-90011004D01*
X157510342Y-89904659D01*
X157403997Y-89775078D01*
X157338627Y-89652779D01*
X157324977Y-89627242D01*
X157276314Y-89466823D01*
X157264000Y-89341803D01*
X157264000Y-88458197D01*
X157276313Y-88333178D01*
X157324976Y-88172759D01*
X157403995Y-88024923D01*
X157510341Y-87895341D01*
X157639922Y-87788996D01*
X157704662Y-87754392D01*
X157787758Y-87709976D01*
X157948177Y-87661313D01*
X158115000Y-87644883D01*
X158281822Y-87661313D01*
X158281822Y-87661313D01*
G37*
G36*
X168441822Y-87661313D02*
G01*
X168602241Y-87709976D01*
X168750077Y-87788995D01*
X168879659Y-87895341D01*
X168986004Y-88024922D01*
X168986005Y-88024924D01*
X169065024Y-88172758D01*
X169113687Y-88333177D01*
X169126000Y-88458196D01*
X169126000Y-89341803D01*
X169113687Y-89466822D01*
X169065024Y-89627242D01*
X169051374Y-89652779D01*
X168986004Y-89775078D01*
X168879659Y-89904659D01*
X168750078Y-90011004D01*
X168750076Y-90011005D01*
X168602242Y-90090024D01*
X168441823Y-90138687D01*
X168275000Y-90155117D01*
X168108178Y-90138687D01*
X167947759Y-90090024D01*
X167799925Y-90011005D01*
X167799923Y-90011004D01*
X167670342Y-89904659D01*
X167563997Y-89775078D01*
X167498627Y-89652779D01*
X167484977Y-89627242D01*
X167436314Y-89466823D01*
X167424000Y-89341803D01*
X167424000Y-88458197D01*
X167436313Y-88333178D01*
X167484976Y-88172759D01*
X167563995Y-88024923D01*
X167670341Y-87895341D01*
X167799922Y-87788996D01*
X167864662Y-87754392D01*
X167947758Y-87709976D01*
X168108177Y-87661313D01*
X168275000Y-87644883D01*
X168441822Y-87661313D01*
X168441822Y-87661313D01*
G37*
G36*
X165901822Y-87661313D02*
G01*
X166062241Y-87709976D01*
X166210077Y-87788995D01*
X166339659Y-87895341D01*
X166446004Y-88024922D01*
X166446005Y-88024924D01*
X166525024Y-88172758D01*
X166573687Y-88333177D01*
X166586000Y-88458196D01*
X166586000Y-89341803D01*
X166573687Y-89466822D01*
X166525024Y-89627242D01*
X166511374Y-89652779D01*
X166446004Y-89775078D01*
X166339659Y-89904659D01*
X166210078Y-90011004D01*
X166210076Y-90011005D01*
X166062242Y-90090024D01*
X165901823Y-90138687D01*
X165735000Y-90155117D01*
X165568178Y-90138687D01*
X165407759Y-90090024D01*
X165259925Y-90011005D01*
X165259923Y-90011004D01*
X165130342Y-89904659D01*
X165023997Y-89775078D01*
X164958627Y-89652779D01*
X164944977Y-89627242D01*
X164896314Y-89466823D01*
X164884000Y-89341803D01*
X164884000Y-88458197D01*
X164896313Y-88333178D01*
X164944976Y-88172759D01*
X165023995Y-88024923D01*
X165130341Y-87895341D01*
X165259922Y-87788996D01*
X165324662Y-87754392D01*
X165407758Y-87709976D01*
X165568177Y-87661313D01*
X165735000Y-87644883D01*
X165901822Y-87661313D01*
X165901822Y-87661313D01*
G37*
G36*
X163361822Y-87661313D02*
G01*
X163522241Y-87709976D01*
X163670077Y-87788995D01*
X163799659Y-87895341D01*
X163906004Y-88024922D01*
X163906005Y-88024924D01*
X163985024Y-88172758D01*
X164033687Y-88333177D01*
X164046000Y-88458196D01*
X164046000Y-89341803D01*
X164033687Y-89466822D01*
X163985024Y-89627242D01*
X163971374Y-89652779D01*
X163906004Y-89775078D01*
X163799659Y-89904659D01*
X163670078Y-90011004D01*
X163670076Y-90011005D01*
X163522242Y-90090024D01*
X163361823Y-90138687D01*
X163195000Y-90155117D01*
X163028178Y-90138687D01*
X162867759Y-90090024D01*
X162719925Y-90011005D01*
X162719923Y-90011004D01*
X162590342Y-89904659D01*
X162483997Y-89775078D01*
X162418627Y-89652779D01*
X162404977Y-89627242D01*
X162356314Y-89466823D01*
X162344000Y-89341803D01*
X162344000Y-88458197D01*
X162356313Y-88333178D01*
X162404976Y-88172759D01*
X162483995Y-88024923D01*
X162590341Y-87895341D01*
X162719922Y-87788996D01*
X162784662Y-87754392D01*
X162867758Y-87709976D01*
X163028177Y-87661313D01*
X163195000Y-87644883D01*
X163361822Y-87661313D01*
X163361822Y-87661313D01*
G37*
G36*
X160821822Y-87661313D02*
G01*
X160982241Y-87709976D01*
X161130077Y-87788995D01*
X161259659Y-87895341D01*
X161366004Y-88024922D01*
X161366005Y-88024924D01*
X161445024Y-88172758D01*
X161493687Y-88333177D01*
X161506000Y-88458196D01*
X161506000Y-89341803D01*
X161493687Y-89466822D01*
X161445024Y-89627242D01*
X161431374Y-89652779D01*
X161366004Y-89775078D01*
X161259659Y-89904659D01*
X161130078Y-90011004D01*
X161130076Y-90011005D01*
X160982242Y-90090024D01*
X160821823Y-90138687D01*
X160655000Y-90155117D01*
X160488178Y-90138687D01*
X160327759Y-90090024D01*
X160179925Y-90011005D01*
X160179923Y-90011004D01*
X160050342Y-89904659D01*
X159943997Y-89775078D01*
X159878627Y-89652779D01*
X159864977Y-89627242D01*
X159816314Y-89466823D01*
X159804000Y-89341803D01*
X159804000Y-88458197D01*
X159816313Y-88333178D01*
X159864976Y-88172759D01*
X159943995Y-88024923D01*
X160050341Y-87895341D01*
X160179922Y-87788996D01*
X160244662Y-87754392D01*
X160327758Y-87709976D01*
X160488177Y-87661313D01*
X160655000Y-87644883D01*
X160821822Y-87661313D01*
X160821822Y-87661313D01*
G37*
G36*
X153886000Y-90151000D02*
G01*
X152184000Y-90151000D01*
X152184000Y-87649000D01*
X153886000Y-87649000D01*
X153886000Y-90151000D01*
X153886000Y-90151000D01*
G37*
G36*
X102345443Y-88005519D02*
G01*
X102411627Y-88012037D01*
X102581466Y-88063557D01*
X102737991Y-88147222D01*
X102769106Y-88172758D01*
X102875186Y-88259814D01*
X102935393Y-88333178D01*
X102987778Y-88397009D01*
X103071443Y-88553534D01*
X103122963Y-88723373D01*
X103140359Y-88900000D01*
X103122963Y-89076627D01*
X103071443Y-89246466D01*
X102987778Y-89402991D01*
X102958448Y-89438729D01*
X102875186Y-89540186D01*
X102773729Y-89623448D01*
X102737991Y-89652778D01*
X102581466Y-89736443D01*
X102411627Y-89787963D01*
X102345443Y-89794481D01*
X102279260Y-89801000D01*
X102190740Y-89801000D01*
X102124557Y-89794481D01*
X102058373Y-89787963D01*
X101888534Y-89736443D01*
X101732009Y-89652778D01*
X101696271Y-89623448D01*
X101594814Y-89540186D01*
X101511552Y-89438729D01*
X101482222Y-89402991D01*
X101398557Y-89246466D01*
X101347037Y-89076627D01*
X101329641Y-88900000D01*
X101347037Y-88723373D01*
X101398557Y-88553534D01*
X101482222Y-88397009D01*
X101534607Y-88333178D01*
X101594814Y-88259814D01*
X101700894Y-88172758D01*
X101732009Y-88147222D01*
X101888534Y-88063557D01*
X102058373Y-88012037D01*
X102124557Y-88005519D01*
X102190740Y-87999000D01*
X102279260Y-87999000D01*
X102345443Y-88005519D01*
X102345443Y-88005519D01*
G37*
G36*
X104885443Y-88005519D02*
G01*
X104951627Y-88012037D01*
X105121466Y-88063557D01*
X105277991Y-88147222D01*
X105309106Y-88172758D01*
X105415186Y-88259814D01*
X105475393Y-88333178D01*
X105527778Y-88397009D01*
X105611443Y-88553534D01*
X105662963Y-88723373D01*
X105680359Y-88900000D01*
X105662963Y-89076627D01*
X105611443Y-89246466D01*
X105527778Y-89402991D01*
X105498448Y-89438729D01*
X105415186Y-89540186D01*
X105313729Y-89623448D01*
X105277991Y-89652778D01*
X105121466Y-89736443D01*
X104951627Y-89787963D01*
X104885443Y-89794481D01*
X104819260Y-89801000D01*
X104730740Y-89801000D01*
X104664557Y-89794481D01*
X104598373Y-89787963D01*
X104428534Y-89736443D01*
X104272009Y-89652778D01*
X104236271Y-89623448D01*
X104134814Y-89540186D01*
X104051552Y-89438729D01*
X104022222Y-89402991D01*
X103938557Y-89246466D01*
X103887037Y-89076627D01*
X103869641Y-88900000D01*
X103887037Y-88723373D01*
X103938557Y-88553534D01*
X104022222Y-88397009D01*
X104074607Y-88333178D01*
X104134814Y-88259814D01*
X104240894Y-88172758D01*
X104272009Y-88147222D01*
X104428534Y-88063557D01*
X104598373Y-88012037D01*
X104664557Y-88005519D01*
X104730740Y-87999000D01*
X104819260Y-87999000D01*
X104885443Y-88005519D01*
X104885443Y-88005519D01*
G37*
G36*
X191301823Y-87426313D02*
G01*
X191462242Y-87474976D01*
X191499296Y-87494782D01*
X191610078Y-87553996D01*
X191739659Y-87660341D01*
X191846004Y-87789922D01*
X191846005Y-87789924D01*
X191925024Y-87937758D01*
X191973687Y-88098177D01*
X191990117Y-88265000D01*
X191973687Y-88431823D01*
X191925024Y-88592242D01*
X191884477Y-88668100D01*
X191846004Y-88740078D01*
X191739659Y-88869659D01*
X191610078Y-88976004D01*
X191610076Y-88976005D01*
X191462242Y-89055024D01*
X191301823Y-89103687D01*
X191176804Y-89116000D01*
X191093196Y-89116000D01*
X190968177Y-89103687D01*
X190807758Y-89055024D01*
X190659924Y-88976005D01*
X190659922Y-88976004D01*
X190530341Y-88869659D01*
X190423996Y-88740078D01*
X190385523Y-88668100D01*
X190344976Y-88592242D01*
X190296313Y-88431823D01*
X190279883Y-88265000D01*
X190296313Y-88098177D01*
X190344976Y-87937758D01*
X190423995Y-87789924D01*
X190423996Y-87789922D01*
X190530341Y-87660341D01*
X190659922Y-87553996D01*
X190770704Y-87494782D01*
X190807758Y-87474976D01*
X190968177Y-87426313D01*
X191093196Y-87414000D01*
X191176804Y-87414000D01*
X191301823Y-87426313D01*
X191301823Y-87426313D01*
G37*
G36*
X181223228Y-87446703D02*
G01*
X181378100Y-87510853D01*
X181517481Y-87603985D01*
X181636015Y-87722519D01*
X181729147Y-87861900D01*
X181793297Y-88016772D01*
X181826000Y-88181184D01*
X181826000Y-88348816D01*
X181793297Y-88513228D01*
X181729147Y-88668100D01*
X181636015Y-88807481D01*
X181517481Y-88926015D01*
X181378100Y-89019147D01*
X181223228Y-89083297D01*
X181058816Y-89116000D01*
X180891184Y-89116000D01*
X180726772Y-89083297D01*
X180571900Y-89019147D01*
X180432519Y-88926015D01*
X180313985Y-88807481D01*
X180220853Y-88668100D01*
X180156703Y-88513228D01*
X180124000Y-88348816D01*
X180124000Y-88181184D01*
X180156703Y-88016772D01*
X180220853Y-87861900D01*
X180313985Y-87722519D01*
X180432519Y-87603985D01*
X180571900Y-87510853D01*
X180726772Y-87446703D01*
X180891184Y-87414000D01*
X181058816Y-87414000D01*
X181223228Y-87446703D01*
X181223228Y-87446703D01*
G37*
G36*
X134653642Y-87494781D02*
G01*
X134796599Y-87553996D01*
X134799416Y-87555163D01*
X134930608Y-87642822D01*
X135042178Y-87754392D01*
X135114012Y-87861900D01*
X135129838Y-87885586D01*
X135190219Y-88031358D01*
X135221000Y-88186107D01*
X135221000Y-88343893D01*
X135190219Y-88498642D01*
X135151448Y-88592242D01*
X135129837Y-88644416D01*
X135042178Y-88775608D01*
X134930608Y-88887178D01*
X134799416Y-88974837D01*
X134799415Y-88974838D01*
X134799414Y-88974838D01*
X134653642Y-89035219D01*
X134498893Y-89066000D01*
X134341107Y-89066000D01*
X134186358Y-89035219D01*
X134040586Y-88974838D01*
X134040585Y-88974838D01*
X134040584Y-88974837D01*
X133909392Y-88887178D01*
X133797822Y-88775608D01*
X133710163Y-88644416D01*
X133688552Y-88592242D01*
X133649781Y-88498642D01*
X133619000Y-88343893D01*
X133619000Y-88186107D01*
X133649781Y-88031358D01*
X133710162Y-87885586D01*
X133725988Y-87861900D01*
X133797822Y-87754392D01*
X133909392Y-87642822D01*
X134040584Y-87555163D01*
X134043401Y-87553996D01*
X134186358Y-87494781D01*
X134341107Y-87464000D01*
X134498893Y-87464000D01*
X134653642Y-87494781D01*
X134653642Y-87494781D01*
G37*
G36*
X129773642Y-87494781D02*
G01*
X129916599Y-87553996D01*
X129919416Y-87555163D01*
X130050608Y-87642822D01*
X130162178Y-87754392D01*
X130234012Y-87861900D01*
X130249838Y-87885586D01*
X130310219Y-88031358D01*
X130341000Y-88186107D01*
X130341000Y-88343893D01*
X130310219Y-88498642D01*
X130271448Y-88592242D01*
X130249837Y-88644416D01*
X130162178Y-88775608D01*
X130050608Y-88887178D01*
X129919416Y-88974837D01*
X129919415Y-88974838D01*
X129919414Y-88974838D01*
X129773642Y-89035219D01*
X129618893Y-89066000D01*
X129461107Y-89066000D01*
X129306358Y-89035219D01*
X129160586Y-88974838D01*
X129160585Y-88974838D01*
X129160584Y-88974837D01*
X129029392Y-88887178D01*
X128917822Y-88775608D01*
X128830163Y-88644416D01*
X128808552Y-88592242D01*
X128769781Y-88498642D01*
X128739000Y-88343893D01*
X128739000Y-88186107D01*
X128769781Y-88031358D01*
X128830162Y-87885586D01*
X128845988Y-87861900D01*
X128917822Y-87754392D01*
X129029392Y-87642822D01*
X129160584Y-87555163D01*
X129163401Y-87553996D01*
X129306358Y-87494781D01*
X129461107Y-87464000D01*
X129618893Y-87464000D01*
X129773642Y-87494781D01*
X129773642Y-87494781D01*
G37*
G36*
X104885442Y-85465518D02*
G01*
X104951627Y-85472037D01*
X105121466Y-85523557D01*
X105277991Y-85607222D01*
X105296870Y-85622716D01*
X105415186Y-85719814D01*
X105498448Y-85821271D01*
X105527778Y-85857009D01*
X105611443Y-86013534D01*
X105662963Y-86183373D01*
X105680359Y-86360000D01*
X105662963Y-86536627D01*
X105611443Y-86706466D01*
X105611442Y-86706468D01*
X105602552Y-86723100D01*
X105527778Y-86862991D01*
X105498448Y-86898729D01*
X105415186Y-87000186D01*
X105313729Y-87083448D01*
X105277991Y-87112778D01*
X105121466Y-87196443D01*
X104951627Y-87247963D01*
X104885442Y-87254482D01*
X104819260Y-87261000D01*
X104730740Y-87261000D01*
X104664558Y-87254482D01*
X104598373Y-87247963D01*
X104428534Y-87196443D01*
X104272009Y-87112778D01*
X104236271Y-87083448D01*
X104134814Y-87000186D01*
X104051552Y-86898729D01*
X104022222Y-86862991D01*
X103947448Y-86723100D01*
X103938558Y-86706468D01*
X103938557Y-86706466D01*
X103887037Y-86536627D01*
X103869641Y-86360000D01*
X103887037Y-86183373D01*
X103938557Y-86013534D01*
X104022222Y-85857009D01*
X104051552Y-85821271D01*
X104134814Y-85719814D01*
X104253130Y-85622716D01*
X104272009Y-85607222D01*
X104428534Y-85523557D01*
X104598373Y-85472037D01*
X104664558Y-85465518D01*
X104730740Y-85459000D01*
X104819260Y-85459000D01*
X104885442Y-85465518D01*
X104885442Y-85465518D01*
G37*
G36*
X102345442Y-85465518D02*
G01*
X102411627Y-85472037D01*
X102581466Y-85523557D01*
X102737991Y-85607222D01*
X102756870Y-85622716D01*
X102875186Y-85719814D01*
X102958448Y-85821271D01*
X102987778Y-85857009D01*
X103071443Y-86013534D01*
X103122963Y-86183373D01*
X103140359Y-86360000D01*
X103122963Y-86536627D01*
X103071443Y-86706466D01*
X103071442Y-86706468D01*
X103062552Y-86723100D01*
X102987778Y-86862991D01*
X102958448Y-86898729D01*
X102875186Y-87000186D01*
X102773729Y-87083448D01*
X102737991Y-87112778D01*
X102581466Y-87196443D01*
X102411627Y-87247963D01*
X102345442Y-87254482D01*
X102279260Y-87261000D01*
X102190740Y-87261000D01*
X102124558Y-87254482D01*
X102058373Y-87247963D01*
X101888534Y-87196443D01*
X101732009Y-87112778D01*
X101696271Y-87083448D01*
X101594814Y-87000186D01*
X101511552Y-86898729D01*
X101482222Y-86862991D01*
X101407448Y-86723100D01*
X101398558Y-86706468D01*
X101398557Y-86706466D01*
X101347037Y-86536627D01*
X101329641Y-86360000D01*
X101347037Y-86183373D01*
X101398557Y-86013534D01*
X101482222Y-85857009D01*
X101511552Y-85821271D01*
X101594814Y-85719814D01*
X101713130Y-85622716D01*
X101732009Y-85607222D01*
X101888534Y-85523557D01*
X102058373Y-85472037D01*
X102124558Y-85465518D01*
X102190740Y-85459000D01*
X102279260Y-85459000D01*
X102345442Y-85465518D01*
X102345442Y-85465518D01*
G37*
G36*
X149473228Y-85501703D02*
G01*
X149628100Y-85565853D01*
X149767481Y-85658985D01*
X149886015Y-85777519D01*
X149979147Y-85916900D01*
X150043297Y-86071772D01*
X150076000Y-86236184D01*
X150076000Y-86403816D01*
X150043297Y-86568228D01*
X149979147Y-86723100D01*
X149886015Y-86862481D01*
X149767481Y-86981015D01*
X149628100Y-87074147D01*
X149473228Y-87138297D01*
X149308816Y-87171000D01*
X149141184Y-87171000D01*
X148976772Y-87138297D01*
X148821900Y-87074147D01*
X148682519Y-86981015D01*
X148563985Y-86862481D01*
X148470853Y-86723100D01*
X148406703Y-86568228D01*
X148374000Y-86403816D01*
X148374000Y-86236184D01*
X148406703Y-86071772D01*
X148470853Y-85916900D01*
X148563985Y-85777519D01*
X148682519Y-85658985D01*
X148821900Y-85565853D01*
X148976772Y-85501703D01*
X149141184Y-85469000D01*
X149308816Y-85469000D01*
X149473228Y-85501703D01*
X149473228Y-85501703D01*
G37*
G36*
X176232916Y-83252334D02*
G01*
X176341492Y-83285271D01*
X176341495Y-83285272D01*
X176377601Y-83304571D01*
X176441557Y-83338756D01*
X176529264Y-83410736D01*
X176601244Y-83498443D01*
X176635429Y-83562399D01*
X176654728Y-83598505D01*
X176654729Y-83598508D01*
X176687666Y-83707084D01*
X176698787Y-83820000D01*
X176687666Y-83932916D01*
X176654729Y-84041492D01*
X176654728Y-84041495D01*
X176640439Y-84068228D01*
X176601244Y-84141557D01*
X176529264Y-84229264D01*
X176441557Y-84301244D01*
X176376807Y-84335853D01*
X176360141Y-84344761D01*
X176339766Y-84358375D01*
X176322439Y-84375702D01*
X176308826Y-84396076D01*
X176299448Y-84418715D01*
X176294668Y-84442748D01*
X176294668Y-84467252D01*
X176299448Y-84491285D01*
X176308826Y-84513924D01*
X176322440Y-84534299D01*
X176339767Y-84551626D01*
X176360141Y-84565239D01*
X176441557Y-84608756D01*
X176529264Y-84680736D01*
X176601244Y-84768443D01*
X176635429Y-84832399D01*
X176654728Y-84868505D01*
X176654729Y-84868508D01*
X176687666Y-84977084D01*
X176698787Y-85090000D01*
X176687666Y-85202916D01*
X176671312Y-85256825D01*
X176654728Y-85311495D01*
X176640439Y-85338228D01*
X176601244Y-85411557D01*
X176529264Y-85499264D01*
X176452354Y-85562383D01*
X176435035Y-85579702D01*
X176421421Y-85600077D01*
X176412043Y-85622716D01*
X176407263Y-85646749D01*
X176407263Y-85671253D01*
X176412043Y-85695286D01*
X176421421Y-85717925D01*
X176435034Y-85738299D01*
X176452361Y-85755626D01*
X176472736Y-85769240D01*
X176495375Y-85778618D01*
X176519408Y-85783398D01*
X176531660Y-85784000D01*
X176696000Y-85784000D01*
X176696000Y-86936000D01*
X175094000Y-86936000D01*
X175094000Y-85784000D01*
X175258340Y-85784000D01*
X175282726Y-85781598D01*
X175306175Y-85774485D01*
X175327786Y-85762934D01*
X175346728Y-85747389D01*
X175362273Y-85728447D01*
X175373824Y-85706836D01*
X175380937Y-85683387D01*
X175383339Y-85659001D01*
X175380937Y-85634615D01*
X175373824Y-85611166D01*
X175362273Y-85589555D01*
X175346728Y-85570613D01*
X175337655Y-85562391D01*
X175260736Y-85499264D01*
X175188756Y-85411557D01*
X175149561Y-85338228D01*
X175135272Y-85311495D01*
X175118688Y-85256825D01*
X175102334Y-85202916D01*
X175091213Y-85090000D01*
X175102334Y-84977084D01*
X175135271Y-84868508D01*
X175135272Y-84868505D01*
X175154571Y-84832399D01*
X175188756Y-84768443D01*
X175260736Y-84680736D01*
X175348443Y-84608756D01*
X175429859Y-84565239D01*
X175450234Y-84551625D01*
X175467561Y-84534298D01*
X175481174Y-84513924D01*
X175490552Y-84491285D01*
X175495332Y-84467252D01*
X175495332Y-84442748D01*
X175490552Y-84418715D01*
X175481174Y-84396076D01*
X175467560Y-84375701D01*
X175450233Y-84358374D01*
X175429859Y-84344761D01*
X175413193Y-84335853D01*
X175348443Y-84301244D01*
X175260736Y-84229264D01*
X175188756Y-84141557D01*
X175149561Y-84068228D01*
X175135272Y-84041495D01*
X175135271Y-84041492D01*
X175102334Y-83932916D01*
X175091213Y-83820000D01*
X175102334Y-83707084D01*
X175135271Y-83598508D01*
X175135272Y-83598505D01*
X175154571Y-83562399D01*
X175188756Y-83498443D01*
X175260736Y-83410736D01*
X175348443Y-83338756D01*
X175412399Y-83304571D01*
X175448505Y-83285272D01*
X175448508Y-83285271D01*
X175557084Y-83252334D01*
X175641702Y-83244000D01*
X176148298Y-83244000D01*
X176232916Y-83252334D01*
X176232916Y-83252334D01*
G37*
G36*
X191301823Y-84251313D02*
G01*
X191462242Y-84299976D01*
X191594906Y-84370886D01*
X191610078Y-84378996D01*
X191739659Y-84485341D01*
X191846004Y-84614922D01*
X191846005Y-84614924D01*
X191925024Y-84762758D01*
X191973687Y-84923177D01*
X191990117Y-85090000D01*
X191973687Y-85256823D01*
X191925024Y-85417242D01*
X191868197Y-85523557D01*
X191846004Y-85565078D01*
X191739659Y-85694659D01*
X191610078Y-85801004D01*
X191610076Y-85801005D01*
X191462242Y-85880024D01*
X191301823Y-85928687D01*
X191176804Y-85941000D01*
X191093196Y-85941000D01*
X190968177Y-85928687D01*
X190807758Y-85880024D01*
X190659924Y-85801005D01*
X190659922Y-85801004D01*
X190530341Y-85694659D01*
X190423996Y-85565078D01*
X190401803Y-85523557D01*
X190344976Y-85417242D01*
X190296313Y-85256823D01*
X190279883Y-85090000D01*
X190296313Y-84923177D01*
X190344976Y-84762758D01*
X190423995Y-84614924D01*
X190423996Y-84614922D01*
X190530341Y-84485341D01*
X190659922Y-84378996D01*
X190675094Y-84370886D01*
X190807758Y-84299976D01*
X190968177Y-84251313D01*
X191093196Y-84239000D01*
X191176804Y-84239000D01*
X191301823Y-84251313D01*
X191301823Y-84251313D01*
G37*
G36*
X181223228Y-84271703D02*
G01*
X181378100Y-84335853D01*
X181517481Y-84428985D01*
X181636015Y-84547519D01*
X181729147Y-84686900D01*
X181793297Y-84841772D01*
X181826000Y-85006184D01*
X181826000Y-85173816D01*
X181793297Y-85338228D01*
X181729147Y-85493100D01*
X181636015Y-85632481D01*
X181517481Y-85751015D01*
X181378100Y-85844147D01*
X181223228Y-85908297D01*
X181058816Y-85941000D01*
X180891184Y-85941000D01*
X180726772Y-85908297D01*
X180571900Y-85844147D01*
X180432519Y-85751015D01*
X180313985Y-85632481D01*
X180220853Y-85493100D01*
X180156703Y-85338228D01*
X180124000Y-85173816D01*
X180124000Y-85006184D01*
X180156703Y-84841772D01*
X180220853Y-84686900D01*
X180313985Y-84547519D01*
X180432519Y-84428985D01*
X180571900Y-84335853D01*
X180726772Y-84271703D01*
X180891184Y-84239000D01*
X181058816Y-84239000D01*
X181223228Y-84271703D01*
X181223228Y-84271703D01*
G37*
G36*
X104885443Y-82925519D02*
G01*
X104951627Y-82932037D01*
X105121466Y-82983557D01*
X105277991Y-83067222D01*
X105313729Y-83096552D01*
X105415186Y-83179814D01*
X105495369Y-83277519D01*
X105527778Y-83317009D01*
X105611443Y-83473534D01*
X105662963Y-83643373D01*
X105680359Y-83820000D01*
X105662963Y-83996627D01*
X105611443Y-84166466D01*
X105527778Y-84322991D01*
X105501731Y-84354729D01*
X105415186Y-84460186D01*
X105313729Y-84543448D01*
X105277991Y-84572778D01*
X105121466Y-84656443D01*
X104951627Y-84707963D01*
X104885443Y-84714481D01*
X104819260Y-84721000D01*
X104730740Y-84721000D01*
X104664557Y-84714481D01*
X104598373Y-84707963D01*
X104428534Y-84656443D01*
X104272009Y-84572778D01*
X104236271Y-84543448D01*
X104134814Y-84460186D01*
X104048269Y-84354729D01*
X104022222Y-84322991D01*
X103938557Y-84166466D01*
X103887037Y-83996627D01*
X103869641Y-83820000D01*
X103887037Y-83643373D01*
X103938557Y-83473534D01*
X104022222Y-83317009D01*
X104054631Y-83277519D01*
X104134814Y-83179814D01*
X104236271Y-83096552D01*
X104272009Y-83067222D01*
X104428534Y-82983557D01*
X104598373Y-82932037D01*
X104664557Y-82925519D01*
X104730740Y-82919000D01*
X104819260Y-82919000D01*
X104885443Y-82925519D01*
X104885443Y-82925519D01*
G37*
G36*
X102345443Y-82925519D02*
G01*
X102411627Y-82932037D01*
X102581466Y-82983557D01*
X102737991Y-83067222D01*
X102773729Y-83096552D01*
X102875186Y-83179814D01*
X102955369Y-83277519D01*
X102987778Y-83317009D01*
X103071443Y-83473534D01*
X103122963Y-83643373D01*
X103140359Y-83820000D01*
X103122963Y-83996627D01*
X103071443Y-84166466D01*
X102987778Y-84322991D01*
X102961731Y-84354729D01*
X102875186Y-84460186D01*
X102773729Y-84543448D01*
X102737991Y-84572778D01*
X102581466Y-84656443D01*
X102411627Y-84707963D01*
X102345443Y-84714481D01*
X102279260Y-84721000D01*
X102190740Y-84721000D01*
X102124557Y-84714481D01*
X102058373Y-84707963D01*
X101888534Y-84656443D01*
X101732009Y-84572778D01*
X101696271Y-84543448D01*
X101594814Y-84460186D01*
X101508269Y-84354729D01*
X101482222Y-84322991D01*
X101398557Y-84166466D01*
X101347037Y-83996627D01*
X101329641Y-83820000D01*
X101347037Y-83643373D01*
X101398557Y-83473534D01*
X101482222Y-83317009D01*
X101514631Y-83277519D01*
X101594814Y-83179814D01*
X101696271Y-83096552D01*
X101732009Y-83067222D01*
X101888534Y-82983557D01*
X102058373Y-82932037D01*
X102124557Y-82925519D01*
X102190740Y-82919000D01*
X102279260Y-82919000D01*
X102345443Y-82925519D01*
X102345443Y-82925519D01*
G37*
G36*
X149473228Y-83001703D02*
G01*
X149628100Y-83065853D01*
X149767481Y-83158985D01*
X149886015Y-83277519D01*
X149979147Y-83416900D01*
X150043297Y-83571772D01*
X150076000Y-83736184D01*
X150076000Y-83903816D01*
X150043297Y-84068228D01*
X149979147Y-84223100D01*
X149886015Y-84362481D01*
X149767481Y-84481015D01*
X149628100Y-84574147D01*
X149473228Y-84638297D01*
X149308816Y-84671000D01*
X149141184Y-84671000D01*
X148976772Y-84638297D01*
X148821900Y-84574147D01*
X148682519Y-84481015D01*
X148563985Y-84362481D01*
X148470853Y-84223100D01*
X148406703Y-84068228D01*
X148374000Y-83903816D01*
X148374000Y-83736184D01*
X148406703Y-83571772D01*
X148470853Y-83416900D01*
X148563985Y-83277519D01*
X148682519Y-83158985D01*
X148821900Y-83065853D01*
X148976772Y-83001703D01*
X149141184Y-82969000D01*
X149308816Y-82969000D01*
X149473228Y-83001703D01*
X149473228Y-83001703D01*
G37*
G36*
X191301823Y-81076313D02*
G01*
X191462242Y-81124976D01*
X191529361Y-81160852D01*
X191610078Y-81203996D01*
X191739659Y-81310341D01*
X191846004Y-81439922D01*
X191846005Y-81439924D01*
X191925024Y-81587758D01*
X191973687Y-81748177D01*
X191990117Y-81915000D01*
X191973687Y-82081823D01*
X191925024Y-82242242D01*
X191884477Y-82318100D01*
X191846004Y-82390078D01*
X191739659Y-82519659D01*
X191610078Y-82626004D01*
X191610076Y-82626005D01*
X191462242Y-82705024D01*
X191301823Y-82753687D01*
X191176804Y-82766000D01*
X191093196Y-82766000D01*
X190968177Y-82753687D01*
X190807758Y-82705024D01*
X190659924Y-82626005D01*
X190659922Y-82626004D01*
X190530341Y-82519659D01*
X190423996Y-82390078D01*
X190385523Y-82318100D01*
X190344976Y-82242242D01*
X190296313Y-82081823D01*
X190279883Y-81915000D01*
X190296313Y-81748177D01*
X190344976Y-81587758D01*
X190423995Y-81439924D01*
X190423996Y-81439922D01*
X190530341Y-81310341D01*
X190659922Y-81203996D01*
X190740639Y-81160852D01*
X190807758Y-81124976D01*
X190968177Y-81076313D01*
X191093196Y-81064000D01*
X191176804Y-81064000D01*
X191301823Y-81076313D01*
X191301823Y-81076313D01*
G37*
G36*
X181223228Y-81096703D02*
G01*
X181378100Y-81160853D01*
X181517481Y-81253985D01*
X181636015Y-81372519D01*
X181729147Y-81511900D01*
X181793297Y-81666772D01*
X181826000Y-81831184D01*
X181826000Y-81998816D01*
X181793297Y-82163228D01*
X181729147Y-82318100D01*
X181636015Y-82457481D01*
X181517481Y-82576015D01*
X181378100Y-82669147D01*
X181223228Y-82733297D01*
X181058816Y-82766000D01*
X180891184Y-82766000D01*
X180726772Y-82733297D01*
X180571900Y-82669147D01*
X180432519Y-82576015D01*
X180313985Y-82457481D01*
X180220853Y-82318100D01*
X180156703Y-82163228D01*
X180124000Y-81998816D01*
X180124000Y-81831184D01*
X180156703Y-81666772D01*
X180220853Y-81511900D01*
X180313985Y-81372519D01*
X180432519Y-81253985D01*
X180571900Y-81160853D01*
X180726772Y-81096703D01*
X180891184Y-81064000D01*
X181058816Y-81064000D01*
X181223228Y-81096703D01*
X181223228Y-81096703D01*
G37*
G36*
X155741822Y-80041313D02*
G01*
X155902241Y-80089976D01*
X156050077Y-80168995D01*
X156179659Y-80275341D01*
X156286004Y-80404922D01*
X156286005Y-80404924D01*
X156365024Y-80552758D01*
X156365024Y-80552759D01*
X156365025Y-80552761D01*
X156369950Y-80568996D01*
X156413687Y-80713177D01*
X156426000Y-80838196D01*
X156426000Y-81721803D01*
X156413687Y-81846822D01*
X156413686Y-81846825D01*
X156369950Y-81991005D01*
X156365024Y-82007242D01*
X156306655Y-82116442D01*
X156286004Y-82155078D01*
X156179659Y-82284659D01*
X156050078Y-82391004D01*
X156050076Y-82391005D01*
X155902242Y-82470024D01*
X155741823Y-82518687D01*
X155575000Y-82535117D01*
X155408178Y-82518687D01*
X155247759Y-82470024D01*
X155099925Y-82391005D01*
X155099923Y-82391004D01*
X154970342Y-82284659D01*
X154863997Y-82155078D01*
X154843346Y-82116442D01*
X154784977Y-82007242D01*
X154780052Y-81991005D01*
X154775918Y-81977380D01*
X154736314Y-81846823D01*
X154724000Y-81721803D01*
X154724000Y-80838197D01*
X154736313Y-80713178D01*
X154775917Y-80582621D01*
X154784975Y-80552762D01*
X154784976Y-80552759D01*
X154863995Y-80404923D01*
X154970341Y-80275341D01*
X155099922Y-80168996D01*
X155115094Y-80160886D01*
X155247758Y-80089976D01*
X155408177Y-80041313D01*
X155575000Y-80024883D01*
X155741822Y-80041313D01*
X155741822Y-80041313D01*
G37*
G36*
X168441822Y-80041313D02*
G01*
X168602241Y-80089976D01*
X168750077Y-80168995D01*
X168879659Y-80275341D01*
X168986004Y-80404922D01*
X168986005Y-80404924D01*
X169065024Y-80552758D01*
X169065024Y-80552759D01*
X169065025Y-80552761D01*
X169069950Y-80568996D01*
X169113687Y-80713177D01*
X169126000Y-80838196D01*
X169126000Y-81721803D01*
X169113687Y-81846822D01*
X169113686Y-81846825D01*
X169069950Y-81991005D01*
X169065024Y-82007242D01*
X169006655Y-82116442D01*
X168986004Y-82155078D01*
X168879659Y-82284659D01*
X168750078Y-82391004D01*
X168750076Y-82391005D01*
X168602242Y-82470024D01*
X168441823Y-82518687D01*
X168275000Y-82535117D01*
X168108178Y-82518687D01*
X167947759Y-82470024D01*
X167799925Y-82391005D01*
X167799923Y-82391004D01*
X167670342Y-82284659D01*
X167563997Y-82155078D01*
X167543346Y-82116442D01*
X167484977Y-82007242D01*
X167480052Y-81991005D01*
X167475918Y-81977380D01*
X167436314Y-81846823D01*
X167424000Y-81721803D01*
X167424000Y-80838197D01*
X167436313Y-80713178D01*
X167475917Y-80582621D01*
X167484975Y-80552762D01*
X167484976Y-80552759D01*
X167563995Y-80404923D01*
X167670341Y-80275341D01*
X167799922Y-80168996D01*
X167815094Y-80160886D01*
X167947758Y-80089976D01*
X168108177Y-80041313D01*
X168275000Y-80024883D01*
X168441822Y-80041313D01*
X168441822Y-80041313D01*
G37*
G36*
X165901822Y-80041313D02*
G01*
X166062241Y-80089976D01*
X166210077Y-80168995D01*
X166339659Y-80275341D01*
X166446004Y-80404922D01*
X166446005Y-80404924D01*
X166525024Y-80552758D01*
X166525024Y-80552759D01*
X166525025Y-80552761D01*
X166529950Y-80568996D01*
X166573687Y-80713177D01*
X166586000Y-80838196D01*
X166586000Y-81721803D01*
X166573687Y-81846822D01*
X166573686Y-81846825D01*
X166529950Y-81991005D01*
X166525024Y-82007242D01*
X166466655Y-82116442D01*
X166446004Y-82155078D01*
X166339659Y-82284659D01*
X166210078Y-82391004D01*
X166210076Y-82391005D01*
X166062242Y-82470024D01*
X165901823Y-82518687D01*
X165735000Y-82535117D01*
X165568178Y-82518687D01*
X165407759Y-82470024D01*
X165259925Y-82391005D01*
X165259923Y-82391004D01*
X165130342Y-82284659D01*
X165023997Y-82155078D01*
X165003346Y-82116442D01*
X164944977Y-82007242D01*
X164940052Y-81991005D01*
X164935918Y-81977380D01*
X164896314Y-81846823D01*
X164884000Y-81721803D01*
X164884000Y-80838197D01*
X164896313Y-80713178D01*
X164935917Y-80582621D01*
X164944975Y-80552762D01*
X164944976Y-80552759D01*
X165023995Y-80404923D01*
X165130341Y-80275341D01*
X165259922Y-80168996D01*
X165275094Y-80160886D01*
X165407758Y-80089976D01*
X165568177Y-80041313D01*
X165735000Y-80024883D01*
X165901822Y-80041313D01*
X165901822Y-80041313D01*
G37*
G36*
X160821822Y-80041313D02*
G01*
X160982241Y-80089976D01*
X161130077Y-80168995D01*
X161259659Y-80275341D01*
X161366004Y-80404922D01*
X161366005Y-80404924D01*
X161445024Y-80552758D01*
X161445024Y-80552759D01*
X161445025Y-80552761D01*
X161449950Y-80568996D01*
X161493687Y-80713177D01*
X161506000Y-80838196D01*
X161506000Y-81721803D01*
X161493687Y-81846822D01*
X161493686Y-81846825D01*
X161449950Y-81991005D01*
X161445024Y-82007242D01*
X161386655Y-82116442D01*
X161366004Y-82155078D01*
X161259659Y-82284659D01*
X161130078Y-82391004D01*
X161130076Y-82391005D01*
X160982242Y-82470024D01*
X160821823Y-82518687D01*
X160655000Y-82535117D01*
X160488178Y-82518687D01*
X160327759Y-82470024D01*
X160179925Y-82391005D01*
X160179923Y-82391004D01*
X160050342Y-82284659D01*
X159943997Y-82155078D01*
X159923346Y-82116442D01*
X159864977Y-82007242D01*
X159860052Y-81991005D01*
X159855918Y-81977380D01*
X159816314Y-81846823D01*
X159804000Y-81721803D01*
X159804000Y-80838197D01*
X159816313Y-80713178D01*
X159855917Y-80582621D01*
X159864975Y-80552762D01*
X159864976Y-80552759D01*
X159943995Y-80404923D01*
X160050341Y-80275341D01*
X160179922Y-80168996D01*
X160195094Y-80160886D01*
X160327758Y-80089976D01*
X160488177Y-80041313D01*
X160655000Y-80024883D01*
X160821822Y-80041313D01*
X160821822Y-80041313D01*
G37*
G36*
X158281822Y-80041313D02*
G01*
X158442241Y-80089976D01*
X158590077Y-80168995D01*
X158719659Y-80275341D01*
X158826004Y-80404922D01*
X158826005Y-80404924D01*
X158905024Y-80552758D01*
X158905024Y-80552759D01*
X158905025Y-80552761D01*
X158909950Y-80568996D01*
X158953687Y-80713177D01*
X158966000Y-80838196D01*
X158966000Y-81721803D01*
X158953687Y-81846822D01*
X158953686Y-81846825D01*
X158909950Y-81991005D01*
X158905024Y-82007242D01*
X158846655Y-82116442D01*
X158826004Y-82155078D01*
X158719659Y-82284659D01*
X158590078Y-82391004D01*
X158590076Y-82391005D01*
X158442242Y-82470024D01*
X158281823Y-82518687D01*
X158115000Y-82535117D01*
X157948178Y-82518687D01*
X157787759Y-82470024D01*
X157639925Y-82391005D01*
X157639923Y-82391004D01*
X157510342Y-82284659D01*
X157403997Y-82155078D01*
X157383346Y-82116442D01*
X157324977Y-82007242D01*
X157320052Y-81991005D01*
X157315918Y-81977380D01*
X157276314Y-81846823D01*
X157264000Y-81721803D01*
X157264000Y-80838197D01*
X157276313Y-80713178D01*
X157315917Y-80582621D01*
X157324975Y-80552762D01*
X157324976Y-80552759D01*
X157403995Y-80404923D01*
X157510341Y-80275341D01*
X157639922Y-80168996D01*
X157655094Y-80160886D01*
X157787758Y-80089976D01*
X157948177Y-80041313D01*
X158115000Y-80024883D01*
X158281822Y-80041313D01*
X158281822Y-80041313D01*
G37*
G36*
X153201822Y-80041313D02*
G01*
X153362241Y-80089976D01*
X153510077Y-80168995D01*
X153639659Y-80275341D01*
X153746004Y-80404922D01*
X153746005Y-80404924D01*
X153825024Y-80552758D01*
X153825024Y-80552759D01*
X153825025Y-80552761D01*
X153829950Y-80568996D01*
X153873687Y-80713177D01*
X153886000Y-80838196D01*
X153886000Y-81721803D01*
X153873687Y-81846822D01*
X153873686Y-81846825D01*
X153829950Y-81991005D01*
X153825024Y-82007242D01*
X153766655Y-82116442D01*
X153746004Y-82155078D01*
X153639659Y-82284659D01*
X153510078Y-82391004D01*
X153510076Y-82391005D01*
X153362242Y-82470024D01*
X153201823Y-82518687D01*
X153035000Y-82535117D01*
X152868178Y-82518687D01*
X152707759Y-82470024D01*
X152559925Y-82391005D01*
X152559923Y-82391004D01*
X152430342Y-82284659D01*
X152323997Y-82155078D01*
X152303346Y-82116442D01*
X152244977Y-82007242D01*
X152240052Y-81991005D01*
X152235918Y-81977380D01*
X152196314Y-81846823D01*
X152184000Y-81721803D01*
X152184000Y-80838197D01*
X152196313Y-80713178D01*
X152235917Y-80582621D01*
X152244975Y-80552762D01*
X152244976Y-80552759D01*
X152323995Y-80404923D01*
X152430341Y-80275341D01*
X152559922Y-80168996D01*
X152575094Y-80160886D01*
X152707758Y-80089976D01*
X152868177Y-80041313D01*
X153035000Y-80024883D01*
X153201822Y-80041313D01*
X153201822Y-80041313D01*
G37*
G36*
X163361822Y-80041313D02*
G01*
X163522241Y-80089976D01*
X163670077Y-80168995D01*
X163799659Y-80275341D01*
X163906004Y-80404922D01*
X163906005Y-80404924D01*
X163985024Y-80552758D01*
X163985024Y-80552759D01*
X163985025Y-80552761D01*
X163989950Y-80568996D01*
X164033687Y-80713177D01*
X164046000Y-80838196D01*
X164046000Y-81721803D01*
X164033687Y-81846822D01*
X164033686Y-81846825D01*
X163989950Y-81991005D01*
X163985024Y-82007242D01*
X163926655Y-82116442D01*
X163906004Y-82155078D01*
X163799659Y-82284659D01*
X163670078Y-82391004D01*
X163670076Y-82391005D01*
X163522242Y-82470024D01*
X163361823Y-82518687D01*
X163195000Y-82535117D01*
X163028178Y-82518687D01*
X162867759Y-82470024D01*
X162719925Y-82391005D01*
X162719923Y-82391004D01*
X162590342Y-82284659D01*
X162483997Y-82155078D01*
X162463346Y-82116442D01*
X162404977Y-82007242D01*
X162400052Y-81991005D01*
X162395918Y-81977380D01*
X162356314Y-81846823D01*
X162344000Y-81721803D01*
X162344000Y-80838197D01*
X162356313Y-80713178D01*
X162395917Y-80582621D01*
X162404975Y-80552762D01*
X162404976Y-80552759D01*
X162483995Y-80404923D01*
X162590341Y-80275341D01*
X162719922Y-80168996D01*
X162735094Y-80160886D01*
X162867758Y-80089976D01*
X163028177Y-80041313D01*
X163195000Y-80024883D01*
X163361822Y-80041313D01*
X163361822Y-80041313D01*
G37*
G36*
X133812228Y-80715703D02*
G01*
X133967100Y-80779853D01*
X134106481Y-80872985D01*
X134225015Y-80991519D01*
X134318147Y-81130900D01*
X134382297Y-81285772D01*
X134415000Y-81450184D01*
X134415000Y-81617816D01*
X134382297Y-81782228D01*
X134318147Y-81937100D01*
X134225015Y-82076481D01*
X134106481Y-82195015D01*
X133967100Y-82288147D01*
X133812228Y-82352297D01*
X133647816Y-82385000D01*
X133480184Y-82385000D01*
X133315772Y-82352297D01*
X133160900Y-82288147D01*
X133021519Y-82195015D01*
X132902985Y-82076481D01*
X132809853Y-81937100D01*
X132745703Y-81782228D01*
X132713000Y-81617816D01*
X132713000Y-81450184D01*
X132745703Y-81285772D01*
X132809853Y-81130900D01*
X132902985Y-80991519D01*
X133021519Y-80872985D01*
X133160900Y-80779853D01*
X133315772Y-80715703D01*
X133480184Y-80683000D01*
X133647816Y-80683000D01*
X133812228Y-80715703D01*
X133812228Y-80715703D01*
G37*
G36*
X131312228Y-80715703D02*
G01*
X131467100Y-80779853D01*
X131606481Y-80872985D01*
X131725015Y-80991519D01*
X131818147Y-81130900D01*
X131882297Y-81285772D01*
X131915000Y-81450184D01*
X131915000Y-81617816D01*
X131882297Y-81782228D01*
X131818147Y-81937100D01*
X131725015Y-82076481D01*
X131606481Y-82195015D01*
X131467100Y-82288147D01*
X131312228Y-82352297D01*
X131147816Y-82385000D01*
X130980184Y-82385000D01*
X130815772Y-82352297D01*
X130660900Y-82288147D01*
X130521519Y-82195015D01*
X130402985Y-82076481D01*
X130309853Y-81937100D01*
X130245703Y-81782228D01*
X130213000Y-81617816D01*
X130213000Y-81450184D01*
X130245703Y-81285772D01*
X130309853Y-81130900D01*
X130402985Y-80991519D01*
X130521519Y-80872985D01*
X130660900Y-80779853D01*
X130815772Y-80715703D01*
X130980184Y-80683000D01*
X131147816Y-80683000D01*
X131312228Y-80715703D01*
X131312228Y-80715703D01*
G37*
G36*
X103136000Y-82181000D02*
G01*
X101334000Y-82181000D01*
X101334000Y-80379000D01*
X103136000Y-80379000D01*
X103136000Y-82181000D01*
X103136000Y-82181000D01*
G37*
G36*
X104885442Y-80385518D02*
G01*
X104951627Y-80392037D01*
X105121466Y-80443557D01*
X105277991Y-80527222D01*
X105309106Y-80552758D01*
X105415186Y-80639814D01*
X105477467Y-80715705D01*
X105527778Y-80777009D01*
X105611443Y-80933534D01*
X105662963Y-81103373D01*
X105680359Y-81280000D01*
X105662963Y-81456627D01*
X105611443Y-81626466D01*
X105527778Y-81782991D01*
X105498448Y-81818729D01*
X105415186Y-81920186D01*
X105319375Y-81998815D01*
X105277991Y-82032778D01*
X105121466Y-82116443D01*
X104951627Y-82167963D01*
X104885443Y-82174481D01*
X104819260Y-82181000D01*
X104730740Y-82181000D01*
X104664557Y-82174481D01*
X104598373Y-82167963D01*
X104428534Y-82116443D01*
X104272009Y-82032778D01*
X104230625Y-81998815D01*
X104134814Y-81920186D01*
X104051552Y-81818729D01*
X104022222Y-81782991D01*
X103938557Y-81626466D01*
X103887037Y-81456627D01*
X103869641Y-81280000D01*
X103887037Y-81103373D01*
X103938557Y-80933534D01*
X104022222Y-80777009D01*
X104072533Y-80715705D01*
X104134814Y-80639814D01*
X104240894Y-80552758D01*
X104272009Y-80527222D01*
X104428534Y-80443557D01*
X104598373Y-80392037D01*
X104664558Y-80385518D01*
X104730740Y-80379000D01*
X104819260Y-80379000D01*
X104885442Y-80385518D01*
X104885442Y-80385518D01*
G37*
G36*
X139866823Y-80441313D02*
G01*
X140027242Y-80489976D01*
X140144704Y-80552761D01*
X140175078Y-80568996D01*
X140304659Y-80675341D01*
X140411004Y-80804922D01*
X140411005Y-80804924D01*
X140490024Y-80952758D01*
X140538687Y-81113177D01*
X140555117Y-81280000D01*
X140538687Y-81446823D01*
X140490024Y-81607242D01*
X140428791Y-81721800D01*
X140411004Y-81755078D01*
X140304659Y-81884659D01*
X140175078Y-81991004D01*
X140175076Y-81991005D01*
X140027242Y-82070024D01*
X139866823Y-82118687D01*
X139741804Y-82131000D01*
X139658196Y-82131000D01*
X139533177Y-82118687D01*
X139372758Y-82070024D01*
X139224924Y-81991005D01*
X139224922Y-81991004D01*
X139095341Y-81884659D01*
X138988996Y-81755078D01*
X138971209Y-81721800D01*
X138909976Y-81607242D01*
X138861313Y-81446823D01*
X138844883Y-81280000D01*
X138861313Y-81113177D01*
X138909976Y-80952758D01*
X138988995Y-80804924D01*
X138988996Y-80804922D01*
X139095341Y-80675341D01*
X139224922Y-80568996D01*
X139255296Y-80552761D01*
X139372758Y-80489976D01*
X139533177Y-80441313D01*
X139658196Y-80429000D01*
X139741804Y-80429000D01*
X139866823Y-80441313D01*
X139866823Y-80441313D01*
G37*
G36*
X124626823Y-80441313D02*
G01*
X124787242Y-80489976D01*
X124904704Y-80552761D01*
X124935078Y-80568996D01*
X125064659Y-80675341D01*
X125171004Y-80804922D01*
X125171005Y-80804924D01*
X125250024Y-80952758D01*
X125298687Y-81113177D01*
X125315117Y-81280000D01*
X125298687Y-81446823D01*
X125250024Y-81607242D01*
X125188791Y-81721800D01*
X125171004Y-81755078D01*
X125064659Y-81884659D01*
X124935078Y-81991004D01*
X124935076Y-81991005D01*
X124787242Y-82070024D01*
X124626823Y-82118687D01*
X124501804Y-82131000D01*
X124418196Y-82131000D01*
X124293177Y-82118687D01*
X124132758Y-82070024D01*
X123984924Y-81991005D01*
X123984922Y-81991004D01*
X123855341Y-81884659D01*
X123748996Y-81755078D01*
X123731209Y-81721800D01*
X123669976Y-81607242D01*
X123621313Y-81446823D01*
X123604883Y-81280000D01*
X123621313Y-81113177D01*
X123669976Y-80952758D01*
X123748995Y-80804924D01*
X123748996Y-80804922D01*
X123855341Y-80675341D01*
X123984922Y-80568996D01*
X124015296Y-80552761D01*
X124132758Y-80489976D01*
X124293177Y-80441313D01*
X124418196Y-80429000D01*
X124501804Y-80429000D01*
X124626823Y-80441313D01*
X124626823Y-80441313D01*
G37*
G36*
X187602395Y-77190546D02*
G01*
X187775466Y-77262234D01*
X187775467Y-77262235D01*
X187931227Y-77366310D01*
X188063690Y-77498773D01*
X188063691Y-77498775D01*
X188167766Y-77654534D01*
X188239454Y-77827605D01*
X188276000Y-78011333D01*
X188276000Y-78198667D01*
X188239454Y-78382395D01*
X188167766Y-78555466D01*
X188167765Y-78555467D01*
X188063690Y-78711227D01*
X187931227Y-78843690D01*
X187852818Y-78896081D01*
X187775466Y-78947766D01*
X187602395Y-79019454D01*
X187418667Y-79056000D01*
X187231333Y-79056000D01*
X187047605Y-79019454D01*
X186874534Y-78947766D01*
X186797182Y-78896081D01*
X186718773Y-78843690D01*
X186586310Y-78711227D01*
X186482235Y-78555467D01*
X186482234Y-78555466D01*
X186410546Y-78382395D01*
X186374000Y-78198667D01*
X186374000Y-78011333D01*
X186410546Y-77827605D01*
X186482234Y-77654534D01*
X186586309Y-77498775D01*
X186586310Y-77498773D01*
X186718773Y-77366310D01*
X186874533Y-77262235D01*
X186874534Y-77262234D01*
X187047605Y-77190546D01*
X187231333Y-77154000D01*
X187418667Y-77154000D01*
X187602395Y-77190546D01*
X187602395Y-77190546D01*
G37*
G36*
X185736000Y-79056000D02*
G01*
X183834000Y-79056000D01*
X183834000Y-77154000D01*
X185736000Y-77154000D01*
X185736000Y-79056000D01*
X185736000Y-79056000D01*
G37*
G36*
X148163228Y-76651703D02*
G01*
X148318100Y-76715853D01*
X148457481Y-76808985D01*
X148576015Y-76927519D01*
X148669147Y-77066900D01*
X148733297Y-77221772D01*
X148766000Y-77386184D01*
X148766000Y-77553816D01*
X148733297Y-77718228D01*
X148669147Y-77873100D01*
X148576015Y-78012481D01*
X148457481Y-78131015D01*
X148318100Y-78224147D01*
X148163228Y-78288297D01*
X147998816Y-78321000D01*
X147831184Y-78321000D01*
X147666772Y-78288297D01*
X147511900Y-78224147D01*
X147372519Y-78131015D01*
X147253985Y-78012481D01*
X147160853Y-77873100D01*
X147096703Y-77718228D01*
X147064000Y-77553816D01*
X147064000Y-77386184D01*
X147096703Y-77221772D01*
X147160853Y-77066900D01*
X147253985Y-76927519D01*
X147372519Y-76808985D01*
X147511900Y-76715853D01*
X147666772Y-76651703D01*
X147831184Y-76619000D01*
X147998816Y-76619000D01*
X148163228Y-76651703D01*
X148163228Y-76651703D01*
G37*
G36*
X146266000Y-78321000D02*
G01*
X144564000Y-78321000D01*
X144564000Y-76619000D01*
X146266000Y-76619000D01*
X146266000Y-78321000D01*
X146266000Y-78321000D01*
G37*
G36*
X139866822Y-74961313D02*
G01*
X140027241Y-75009976D01*
X140175077Y-75088995D01*
X140304659Y-75195341D01*
X140411004Y-75324922D01*
X140411005Y-75324924D01*
X140490024Y-75472758D01*
X140490024Y-75472759D01*
X140490025Y-75472761D01*
X140494950Y-75488996D01*
X140538687Y-75633177D01*
X140551000Y-75758196D01*
X140551000Y-76641803D01*
X140538687Y-76766822D01*
X140538686Y-76766825D01*
X140494950Y-76911005D01*
X140490024Y-76927242D01*
X140441355Y-77018295D01*
X140411004Y-77075078D01*
X140304659Y-77204659D01*
X140175078Y-77311004D01*
X140175076Y-77311005D01*
X140027242Y-77390024D01*
X139866823Y-77438687D01*
X139700000Y-77455117D01*
X139533178Y-77438687D01*
X139372759Y-77390024D01*
X139224925Y-77311005D01*
X139224923Y-77311004D01*
X139095342Y-77204659D01*
X138988997Y-77075078D01*
X138958646Y-77018295D01*
X138909977Y-76927242D01*
X138905052Y-76911005D01*
X138861315Y-76766825D01*
X138861314Y-76766823D01*
X138849000Y-76641803D01*
X138849000Y-75758197D01*
X138861313Y-75633178D01*
X138900917Y-75502621D01*
X138909975Y-75472762D01*
X138909976Y-75472759D01*
X138988995Y-75324923D01*
X139095341Y-75195341D01*
X139224922Y-75088996D01*
X139240094Y-75080886D01*
X139372758Y-75009976D01*
X139533177Y-74961313D01*
X139700000Y-74944883D01*
X139866822Y-74961313D01*
X139866822Y-74961313D01*
G37*
G36*
X137326822Y-74961313D02*
G01*
X137487241Y-75009976D01*
X137635077Y-75088995D01*
X137764659Y-75195341D01*
X137871004Y-75324922D01*
X137871005Y-75324924D01*
X137950024Y-75472758D01*
X137950024Y-75472759D01*
X137950025Y-75472761D01*
X137954950Y-75488996D01*
X137998687Y-75633177D01*
X138011000Y-75758196D01*
X138011000Y-76641803D01*
X137998687Y-76766822D01*
X137998686Y-76766825D01*
X137954950Y-76911005D01*
X137950024Y-76927242D01*
X137901355Y-77018295D01*
X137871004Y-77075078D01*
X137764659Y-77204659D01*
X137635078Y-77311004D01*
X137635076Y-77311005D01*
X137487242Y-77390024D01*
X137326823Y-77438687D01*
X137160000Y-77455117D01*
X136993178Y-77438687D01*
X136832759Y-77390024D01*
X136684925Y-77311005D01*
X136684923Y-77311004D01*
X136555342Y-77204659D01*
X136448997Y-77075078D01*
X136418646Y-77018295D01*
X136369977Y-76927242D01*
X136365052Y-76911005D01*
X136321315Y-76766825D01*
X136321314Y-76766823D01*
X136309000Y-76641803D01*
X136309000Y-75758197D01*
X136321313Y-75633178D01*
X136360917Y-75502621D01*
X136369975Y-75472762D01*
X136369976Y-75472759D01*
X136448995Y-75324923D01*
X136555341Y-75195341D01*
X136684922Y-75088996D01*
X136700094Y-75080886D01*
X136832758Y-75009976D01*
X136993177Y-74961313D01*
X137160000Y-74944883D01*
X137326822Y-74961313D01*
X137326822Y-74961313D01*
G37*
G36*
X134786822Y-74961313D02*
G01*
X134947241Y-75009976D01*
X135095077Y-75088995D01*
X135224659Y-75195341D01*
X135331004Y-75324922D01*
X135331005Y-75324924D01*
X135410024Y-75472758D01*
X135410024Y-75472759D01*
X135410025Y-75472761D01*
X135414950Y-75488996D01*
X135458687Y-75633177D01*
X135471000Y-75758196D01*
X135471000Y-76641803D01*
X135458687Y-76766822D01*
X135458686Y-76766825D01*
X135414950Y-76911005D01*
X135410024Y-76927242D01*
X135361355Y-77018295D01*
X135331004Y-77075078D01*
X135224659Y-77204659D01*
X135095078Y-77311004D01*
X135095076Y-77311005D01*
X134947242Y-77390024D01*
X134786823Y-77438687D01*
X134620000Y-77455117D01*
X134453178Y-77438687D01*
X134292759Y-77390024D01*
X134144925Y-77311005D01*
X134144923Y-77311004D01*
X134015342Y-77204659D01*
X133908997Y-77075078D01*
X133878646Y-77018295D01*
X133829977Y-76927242D01*
X133825052Y-76911005D01*
X133781315Y-76766825D01*
X133781314Y-76766823D01*
X133769000Y-76641803D01*
X133769000Y-75758197D01*
X133781313Y-75633178D01*
X133820917Y-75502621D01*
X133829975Y-75472762D01*
X133829976Y-75472759D01*
X133908995Y-75324923D01*
X134015341Y-75195341D01*
X134144922Y-75088996D01*
X134160094Y-75080886D01*
X134292758Y-75009976D01*
X134453177Y-74961313D01*
X134620000Y-74944883D01*
X134786822Y-74961313D01*
X134786822Y-74961313D01*
G37*
G36*
X132246822Y-74961313D02*
G01*
X132407241Y-75009976D01*
X132555077Y-75088995D01*
X132684659Y-75195341D01*
X132791004Y-75324922D01*
X132791005Y-75324924D01*
X132870024Y-75472758D01*
X132870024Y-75472759D01*
X132870025Y-75472761D01*
X132874950Y-75488996D01*
X132918687Y-75633177D01*
X132931000Y-75758196D01*
X132931000Y-76641803D01*
X132918687Y-76766822D01*
X132918686Y-76766825D01*
X132874950Y-76911005D01*
X132870024Y-76927242D01*
X132821355Y-77018295D01*
X132791004Y-77075078D01*
X132684659Y-77204659D01*
X132555078Y-77311004D01*
X132555076Y-77311005D01*
X132407242Y-77390024D01*
X132246823Y-77438687D01*
X132080000Y-77455117D01*
X131913178Y-77438687D01*
X131752759Y-77390024D01*
X131604925Y-77311005D01*
X131604923Y-77311004D01*
X131475342Y-77204659D01*
X131368997Y-77075078D01*
X131338646Y-77018295D01*
X131289977Y-76927242D01*
X131285052Y-76911005D01*
X131241315Y-76766825D01*
X131241314Y-76766823D01*
X131229000Y-76641803D01*
X131229000Y-75758197D01*
X131241313Y-75633178D01*
X131280917Y-75502621D01*
X131289975Y-75472762D01*
X131289976Y-75472759D01*
X131368995Y-75324923D01*
X131475341Y-75195341D01*
X131604922Y-75088996D01*
X131620094Y-75080886D01*
X131752758Y-75009976D01*
X131913177Y-74961313D01*
X132080000Y-74944883D01*
X132246822Y-74961313D01*
X132246822Y-74961313D01*
G37*
G36*
X127166822Y-74961313D02*
G01*
X127327241Y-75009976D01*
X127475077Y-75088995D01*
X127604659Y-75195341D01*
X127711004Y-75324922D01*
X127711005Y-75324924D01*
X127790024Y-75472758D01*
X127790024Y-75472759D01*
X127790025Y-75472761D01*
X127794950Y-75488996D01*
X127838687Y-75633177D01*
X127851000Y-75758196D01*
X127851000Y-76641803D01*
X127838687Y-76766822D01*
X127838686Y-76766825D01*
X127794950Y-76911005D01*
X127790024Y-76927242D01*
X127741355Y-77018295D01*
X127711004Y-77075078D01*
X127604659Y-77204659D01*
X127475078Y-77311004D01*
X127475076Y-77311005D01*
X127327242Y-77390024D01*
X127166823Y-77438687D01*
X127000000Y-77455117D01*
X126833178Y-77438687D01*
X126672759Y-77390024D01*
X126524925Y-77311005D01*
X126524923Y-77311004D01*
X126395342Y-77204659D01*
X126288997Y-77075078D01*
X126258646Y-77018295D01*
X126209977Y-76927242D01*
X126205052Y-76911005D01*
X126161315Y-76766825D01*
X126161314Y-76766823D01*
X126149000Y-76641803D01*
X126149000Y-75758197D01*
X126161313Y-75633178D01*
X126200917Y-75502621D01*
X126209975Y-75472762D01*
X126209976Y-75472759D01*
X126288995Y-75324923D01*
X126395341Y-75195341D01*
X126524922Y-75088996D01*
X126540094Y-75080886D01*
X126672758Y-75009976D01*
X126833177Y-74961313D01*
X127000000Y-74944883D01*
X127166822Y-74961313D01*
X127166822Y-74961313D01*
G37*
G36*
X129706822Y-74961313D02*
G01*
X129867241Y-75009976D01*
X130015077Y-75088995D01*
X130144659Y-75195341D01*
X130251004Y-75324922D01*
X130251005Y-75324924D01*
X130330024Y-75472758D01*
X130330024Y-75472759D01*
X130330025Y-75472761D01*
X130334950Y-75488996D01*
X130378687Y-75633177D01*
X130391000Y-75758196D01*
X130391000Y-76641803D01*
X130378687Y-76766822D01*
X130378686Y-76766825D01*
X130334950Y-76911005D01*
X130330024Y-76927242D01*
X130281355Y-77018295D01*
X130251004Y-77075078D01*
X130144659Y-77204659D01*
X130015078Y-77311004D01*
X130015076Y-77311005D01*
X129867242Y-77390024D01*
X129706823Y-77438687D01*
X129540000Y-77455117D01*
X129373178Y-77438687D01*
X129212759Y-77390024D01*
X129064925Y-77311005D01*
X129064923Y-77311004D01*
X128935342Y-77204659D01*
X128828997Y-77075078D01*
X128798646Y-77018295D01*
X128749977Y-76927242D01*
X128745052Y-76911005D01*
X128701315Y-76766825D01*
X128701314Y-76766823D01*
X128689000Y-76641803D01*
X128689000Y-75758197D01*
X128701313Y-75633178D01*
X128740917Y-75502621D01*
X128749975Y-75472762D01*
X128749976Y-75472759D01*
X128828995Y-75324923D01*
X128935341Y-75195341D01*
X129064922Y-75088996D01*
X129080094Y-75080886D01*
X129212758Y-75009976D01*
X129373177Y-74961313D01*
X129540000Y-74944883D01*
X129706822Y-74961313D01*
X129706822Y-74961313D01*
G37*
G36*
X125311000Y-77451000D02*
G01*
X123609000Y-77451000D01*
X123609000Y-74949000D01*
X125311000Y-74949000D01*
X125311000Y-77451000D01*
X125311000Y-77451000D01*
G37*
G36*
X104885442Y-75305518D02*
G01*
X104951627Y-75312037D01*
X105121466Y-75363557D01*
X105277991Y-75447222D01*
X105309106Y-75472758D01*
X105415186Y-75559814D01*
X105475393Y-75633178D01*
X105527778Y-75697009D01*
X105611443Y-75853534D01*
X105662963Y-76023373D01*
X105680359Y-76200000D01*
X105662963Y-76376627D01*
X105611443Y-76546466D01*
X105527778Y-76702991D01*
X105517223Y-76715852D01*
X105415186Y-76840186D01*
X105313729Y-76923448D01*
X105277991Y-76952778D01*
X105121466Y-77036443D01*
X104951627Y-77087963D01*
X104885442Y-77094482D01*
X104819260Y-77101000D01*
X104730740Y-77101000D01*
X104664558Y-77094482D01*
X104598373Y-77087963D01*
X104428534Y-77036443D01*
X104272009Y-76952778D01*
X104236271Y-76923448D01*
X104134814Y-76840186D01*
X104032777Y-76715852D01*
X104022222Y-76702991D01*
X103938557Y-76546466D01*
X103887037Y-76376627D01*
X103869641Y-76200000D01*
X103887037Y-76023373D01*
X103938557Y-75853534D01*
X104022222Y-75697009D01*
X104074607Y-75633178D01*
X104134814Y-75559814D01*
X104240894Y-75472758D01*
X104272009Y-75447222D01*
X104428534Y-75363557D01*
X104598373Y-75312037D01*
X104664558Y-75305518D01*
X104730740Y-75299000D01*
X104819260Y-75299000D01*
X104885442Y-75305518D01*
X104885442Y-75305518D01*
G37*
G36*
X102345442Y-75305518D02*
G01*
X102411627Y-75312037D01*
X102581466Y-75363557D01*
X102737991Y-75447222D01*
X102769106Y-75472758D01*
X102875186Y-75559814D01*
X102935393Y-75633178D01*
X102987778Y-75697009D01*
X103071443Y-75853534D01*
X103122963Y-76023373D01*
X103140359Y-76200000D01*
X103122963Y-76376627D01*
X103071443Y-76546466D01*
X102987778Y-76702991D01*
X102977223Y-76715852D01*
X102875186Y-76840186D01*
X102773729Y-76923448D01*
X102737991Y-76952778D01*
X102581466Y-77036443D01*
X102411627Y-77087963D01*
X102345442Y-77094482D01*
X102279260Y-77101000D01*
X102190740Y-77101000D01*
X102124558Y-77094482D01*
X102058373Y-77087963D01*
X101888534Y-77036443D01*
X101732009Y-76952778D01*
X101696271Y-76923448D01*
X101594814Y-76840186D01*
X101492777Y-76715852D01*
X101482222Y-76702991D01*
X101398557Y-76546466D01*
X101347037Y-76376627D01*
X101329641Y-76200000D01*
X101347037Y-76023373D01*
X101398557Y-75853534D01*
X101482222Y-75697009D01*
X101534607Y-75633178D01*
X101594814Y-75559814D01*
X101700894Y-75472758D01*
X101732009Y-75447222D01*
X101888534Y-75363557D01*
X102058373Y-75312037D01*
X102124558Y-75305518D01*
X102190740Y-75299000D01*
X102279260Y-75299000D01*
X102345442Y-75305518D01*
X102345442Y-75305518D01*
G37*
G36*
X165901823Y-75361313D02*
G01*
X166062242Y-75409976D01*
X166179704Y-75472761D01*
X166210078Y-75488996D01*
X166339659Y-75595341D01*
X166446004Y-75724922D01*
X166446005Y-75724924D01*
X166525024Y-75872758D01*
X166573687Y-76033177D01*
X166590117Y-76200000D01*
X166573687Y-76366823D01*
X166525024Y-76527242D01*
X166484477Y-76603100D01*
X166446004Y-76675078D01*
X166339659Y-76804659D01*
X166210078Y-76911004D01*
X166210076Y-76911005D01*
X166062242Y-76990024D01*
X165901823Y-77038687D01*
X165776804Y-77051000D01*
X165693196Y-77051000D01*
X165568177Y-77038687D01*
X165407758Y-76990024D01*
X165259924Y-76911005D01*
X165259922Y-76911004D01*
X165130341Y-76804659D01*
X165023996Y-76675078D01*
X164985523Y-76603100D01*
X164944976Y-76527242D01*
X164896313Y-76366823D01*
X164879883Y-76200000D01*
X164896313Y-76033177D01*
X164944976Y-75872758D01*
X165023995Y-75724924D01*
X165023996Y-75724922D01*
X165130341Y-75595341D01*
X165259922Y-75488996D01*
X165290296Y-75472761D01*
X165407758Y-75409976D01*
X165568177Y-75361313D01*
X165693196Y-75349000D01*
X165776804Y-75349000D01*
X165901823Y-75361313D01*
X165901823Y-75361313D01*
G37*
G36*
X120263228Y-75381703D02*
G01*
X120418100Y-75445853D01*
X120557481Y-75538985D01*
X120676015Y-75657519D01*
X120769147Y-75796900D01*
X120833297Y-75951772D01*
X120866000Y-76116184D01*
X120866000Y-76283816D01*
X120833297Y-76448228D01*
X120769147Y-76603100D01*
X120676015Y-76742481D01*
X120557481Y-76861015D01*
X120418100Y-76954147D01*
X120263228Y-77018297D01*
X120098816Y-77051000D01*
X119931184Y-77051000D01*
X119766772Y-77018297D01*
X119611900Y-76954147D01*
X119472519Y-76861015D01*
X119353985Y-76742481D01*
X119260853Y-76603100D01*
X119196703Y-76448228D01*
X119164000Y-76283816D01*
X119164000Y-76116184D01*
X119196703Y-75951772D01*
X119260853Y-75796900D01*
X119353985Y-75657519D01*
X119472519Y-75538985D01*
X119611900Y-75445853D01*
X119766772Y-75381703D01*
X119931184Y-75349000D01*
X120098816Y-75349000D01*
X120263228Y-75381703D01*
X120263228Y-75381703D01*
G37*
G36*
X117763228Y-75381703D02*
G01*
X117918100Y-75445853D01*
X118057481Y-75538985D01*
X118176015Y-75657519D01*
X118269147Y-75796900D01*
X118333297Y-75951772D01*
X118366000Y-76116184D01*
X118366000Y-76283816D01*
X118333297Y-76448228D01*
X118269147Y-76603100D01*
X118176015Y-76742481D01*
X118057481Y-76861015D01*
X117918100Y-76954147D01*
X117763228Y-77018297D01*
X117598816Y-77051000D01*
X117431184Y-77051000D01*
X117266772Y-77018297D01*
X117111900Y-76954147D01*
X116972519Y-76861015D01*
X116853985Y-76742481D01*
X116760853Y-76603100D01*
X116696703Y-76448228D01*
X116664000Y-76283816D01*
X116664000Y-76116184D01*
X116696703Y-75951772D01*
X116760853Y-75796900D01*
X116853985Y-75657519D01*
X116972519Y-75538985D01*
X117111900Y-75445853D01*
X117266772Y-75381703D01*
X117431184Y-75349000D01*
X117598816Y-75349000D01*
X117763228Y-75381703D01*
X117763228Y-75381703D01*
G37*
G36*
X155823228Y-75381703D02*
G01*
X155978100Y-75445853D01*
X156117481Y-75538985D01*
X156236015Y-75657519D01*
X156329147Y-75796900D01*
X156393297Y-75951772D01*
X156426000Y-76116184D01*
X156426000Y-76283816D01*
X156393297Y-76448228D01*
X156329147Y-76603100D01*
X156236015Y-76742481D01*
X156117481Y-76861015D01*
X155978100Y-76954147D01*
X155823228Y-77018297D01*
X155658816Y-77051000D01*
X155491184Y-77051000D01*
X155326772Y-77018297D01*
X155171900Y-76954147D01*
X155032519Y-76861015D01*
X154913985Y-76742481D01*
X154820853Y-76603100D01*
X154756703Y-76448228D01*
X154724000Y-76283816D01*
X154724000Y-76116184D01*
X154756703Y-75951772D01*
X154820853Y-75796900D01*
X154913985Y-75657519D01*
X155032519Y-75538985D01*
X155171900Y-75445853D01*
X155326772Y-75381703D01*
X155491184Y-75349000D01*
X155658816Y-75349000D01*
X155823228Y-75381703D01*
X155823228Y-75381703D01*
G37*
G36*
X102345442Y-72765518D02*
G01*
X102411627Y-72772037D01*
X102581466Y-72823557D01*
X102737991Y-72907222D01*
X102773729Y-72936552D01*
X102875186Y-73019814D01*
X102958448Y-73121271D01*
X102987778Y-73157009D01*
X103071443Y-73313534D01*
X103122963Y-73483373D01*
X103140359Y-73660000D01*
X103122963Y-73836627D01*
X103071443Y-74006466D01*
X102987778Y-74162991D01*
X102958448Y-74198729D01*
X102875186Y-74300186D01*
X102773729Y-74383448D01*
X102737991Y-74412778D01*
X102581466Y-74496443D01*
X102411627Y-74547963D01*
X102345442Y-74554482D01*
X102279260Y-74561000D01*
X102190740Y-74561000D01*
X102124558Y-74554482D01*
X102058373Y-74547963D01*
X101888534Y-74496443D01*
X101732009Y-74412778D01*
X101696271Y-74383448D01*
X101594814Y-74300186D01*
X101511552Y-74198729D01*
X101482222Y-74162991D01*
X101398557Y-74006466D01*
X101347037Y-73836627D01*
X101329641Y-73660000D01*
X101347037Y-73483373D01*
X101398557Y-73313534D01*
X101482222Y-73157009D01*
X101511552Y-73121271D01*
X101594814Y-73019814D01*
X101696271Y-72936552D01*
X101732009Y-72907222D01*
X101888534Y-72823557D01*
X102058373Y-72772037D01*
X102124558Y-72765518D01*
X102190740Y-72759000D01*
X102279260Y-72759000D01*
X102345442Y-72765518D01*
X102345442Y-72765518D01*
G37*
G36*
X104885442Y-72765518D02*
G01*
X104951627Y-72772037D01*
X105121466Y-72823557D01*
X105277991Y-72907222D01*
X105313729Y-72936552D01*
X105415186Y-73019814D01*
X105498448Y-73121271D01*
X105527778Y-73157009D01*
X105611443Y-73313534D01*
X105662963Y-73483373D01*
X105680359Y-73660000D01*
X105662963Y-73836627D01*
X105611443Y-74006466D01*
X105527778Y-74162991D01*
X105498448Y-74198729D01*
X105415186Y-74300186D01*
X105313729Y-74383448D01*
X105277991Y-74412778D01*
X105121466Y-74496443D01*
X104951627Y-74547963D01*
X104885442Y-74554482D01*
X104819260Y-74561000D01*
X104730740Y-74561000D01*
X104664558Y-74554482D01*
X104598373Y-74547963D01*
X104428534Y-74496443D01*
X104272009Y-74412778D01*
X104236271Y-74383448D01*
X104134814Y-74300186D01*
X104051552Y-74198729D01*
X104022222Y-74162991D01*
X103938557Y-74006466D01*
X103887037Y-73836627D01*
X103869641Y-73660000D01*
X103887037Y-73483373D01*
X103938557Y-73313534D01*
X104022222Y-73157009D01*
X104051552Y-73121271D01*
X104134814Y-73019814D01*
X104236271Y-72936552D01*
X104272009Y-72907222D01*
X104428534Y-72823557D01*
X104598373Y-72772037D01*
X104664558Y-72765518D01*
X104730740Y-72759000D01*
X104819260Y-72759000D01*
X104885442Y-72765518D01*
X104885442Y-72765518D01*
G37*
G36*
X164631823Y-71551313D02*
G01*
X164792242Y-71599976D01*
X164924906Y-71670886D01*
X164940078Y-71678996D01*
X165069659Y-71785341D01*
X165176004Y-71914922D01*
X165176005Y-71914924D01*
X165255024Y-72062758D01*
X165303687Y-72223177D01*
X165320117Y-72390000D01*
X165303687Y-72556823D01*
X165255024Y-72717242D01*
X165225735Y-72772037D01*
X165176004Y-72865078D01*
X165069659Y-72994659D01*
X164940078Y-73101004D01*
X164940076Y-73101005D01*
X164792242Y-73180024D01*
X164631823Y-73228687D01*
X164506804Y-73241000D01*
X164423196Y-73241000D01*
X164298177Y-73228687D01*
X164137758Y-73180024D01*
X163989924Y-73101005D01*
X163989922Y-73101004D01*
X163860341Y-72994659D01*
X163753996Y-72865078D01*
X163704265Y-72772037D01*
X163674976Y-72717242D01*
X163626313Y-72556823D01*
X163609883Y-72390000D01*
X163626313Y-72223177D01*
X163674976Y-72062758D01*
X163753995Y-71914924D01*
X163753996Y-71914922D01*
X163860341Y-71785341D01*
X163989922Y-71678996D01*
X164005094Y-71670886D01*
X164137758Y-71599976D01*
X164298177Y-71551313D01*
X164423196Y-71539000D01*
X164506804Y-71539000D01*
X164631823Y-71551313D01*
X164631823Y-71551313D01*
G37*
G36*
X157696000Y-73241000D02*
G01*
X155994000Y-73241000D01*
X155994000Y-71539000D01*
X157696000Y-71539000D01*
X157696000Y-73241000D01*
X157696000Y-73241000D01*
G37*
G36*
X102345442Y-70225518D02*
G01*
X102411627Y-70232037D01*
X102581466Y-70283557D01*
X102737991Y-70367222D01*
X102773729Y-70396552D01*
X102875186Y-70479814D01*
X102958448Y-70581271D01*
X102987778Y-70617009D01*
X103071443Y-70773534D01*
X103122963Y-70943373D01*
X103140359Y-71120000D01*
X103122963Y-71296627D01*
X103071443Y-71466466D01*
X102987778Y-71622991D01*
X102958448Y-71658729D01*
X102875186Y-71760186D01*
X102773729Y-71843448D01*
X102737991Y-71872778D01*
X102581466Y-71956443D01*
X102411627Y-72007963D01*
X102345443Y-72014481D01*
X102279260Y-72021000D01*
X102190740Y-72021000D01*
X102124557Y-72014481D01*
X102058373Y-72007963D01*
X101888534Y-71956443D01*
X101732009Y-71872778D01*
X101696271Y-71843448D01*
X101594814Y-71760186D01*
X101511552Y-71658729D01*
X101482222Y-71622991D01*
X101398557Y-71466466D01*
X101347037Y-71296627D01*
X101329641Y-71120000D01*
X101347037Y-70943373D01*
X101398557Y-70773534D01*
X101482222Y-70617009D01*
X101511552Y-70581271D01*
X101594814Y-70479814D01*
X101696271Y-70396552D01*
X101732009Y-70367222D01*
X101888534Y-70283557D01*
X102058373Y-70232037D01*
X102124558Y-70225518D01*
X102190740Y-70219000D01*
X102279260Y-70219000D01*
X102345442Y-70225518D01*
X102345442Y-70225518D01*
G37*
G36*
X104885442Y-70225518D02*
G01*
X104951627Y-70232037D01*
X105121466Y-70283557D01*
X105277991Y-70367222D01*
X105313729Y-70396552D01*
X105415186Y-70479814D01*
X105498448Y-70581271D01*
X105527778Y-70617009D01*
X105611443Y-70773534D01*
X105662963Y-70943373D01*
X105680359Y-71120000D01*
X105662963Y-71296627D01*
X105611443Y-71466466D01*
X105527778Y-71622991D01*
X105498448Y-71658729D01*
X105415186Y-71760186D01*
X105313729Y-71843448D01*
X105277991Y-71872778D01*
X105121466Y-71956443D01*
X104951627Y-72007963D01*
X104885443Y-72014481D01*
X104819260Y-72021000D01*
X104730740Y-72021000D01*
X104664557Y-72014481D01*
X104598373Y-72007963D01*
X104428534Y-71956443D01*
X104272009Y-71872778D01*
X104236271Y-71843448D01*
X104134814Y-71760186D01*
X104051552Y-71658729D01*
X104022222Y-71622991D01*
X103938557Y-71466466D01*
X103887037Y-71296627D01*
X103869641Y-71120000D01*
X103887037Y-70943373D01*
X103938557Y-70773534D01*
X104022222Y-70617009D01*
X104051552Y-70581271D01*
X104134814Y-70479814D01*
X104236271Y-70396552D01*
X104272009Y-70367222D01*
X104428534Y-70283557D01*
X104598373Y-70232037D01*
X104664558Y-70225518D01*
X104730740Y-70219000D01*
X104819260Y-70219000D01*
X104885442Y-70225518D01*
X104885442Y-70225518D01*
G37*
G36*
X111976000Y-70701000D02*
G01*
X110274000Y-70701000D01*
X110274000Y-68999000D01*
X111976000Y-68999000D01*
X111976000Y-70701000D01*
X111976000Y-70701000D01*
G37*
G36*
X137326822Y-67341313D02*
G01*
X137487241Y-67389976D01*
X137635077Y-67468995D01*
X137764659Y-67575341D01*
X137871004Y-67704922D01*
X137871005Y-67704924D01*
X137950024Y-67852758D01*
X137950024Y-67852759D01*
X137950025Y-67852761D01*
X137954950Y-67868996D01*
X137998687Y-68013177D01*
X138011000Y-68138196D01*
X138011000Y-69021803D01*
X137998687Y-69146822D01*
X137998686Y-69146825D01*
X137954950Y-69291005D01*
X137950024Y-69307242D01*
X137901355Y-69398295D01*
X137871004Y-69455078D01*
X137764659Y-69584659D01*
X137635078Y-69691004D01*
X137635076Y-69691005D01*
X137487242Y-69770024D01*
X137326823Y-69818687D01*
X137160000Y-69835117D01*
X136993178Y-69818687D01*
X136832759Y-69770024D01*
X136684925Y-69691005D01*
X136684923Y-69691004D01*
X136555342Y-69584659D01*
X136448997Y-69455078D01*
X136418646Y-69398295D01*
X136369977Y-69307242D01*
X136365052Y-69291005D01*
X136321315Y-69146825D01*
X136321314Y-69146823D01*
X136309000Y-69021803D01*
X136309000Y-68138197D01*
X136321313Y-68013178D01*
X136360917Y-67882621D01*
X136369975Y-67852762D01*
X136369976Y-67852759D01*
X136448995Y-67704923D01*
X136555341Y-67575341D01*
X136684922Y-67468996D01*
X136700094Y-67460886D01*
X136832758Y-67389976D01*
X136993177Y-67341313D01*
X137160000Y-67324883D01*
X137326822Y-67341313D01*
X137326822Y-67341313D01*
G37*
G36*
X139866822Y-67341313D02*
G01*
X140027241Y-67389976D01*
X140175077Y-67468995D01*
X140304659Y-67575341D01*
X140411004Y-67704922D01*
X140411005Y-67704924D01*
X140490024Y-67852758D01*
X140490024Y-67852759D01*
X140490025Y-67852761D01*
X140494950Y-67868996D01*
X140538687Y-68013177D01*
X140551000Y-68138196D01*
X140551000Y-69021803D01*
X140538687Y-69146822D01*
X140538686Y-69146825D01*
X140494950Y-69291005D01*
X140490024Y-69307242D01*
X140441355Y-69398295D01*
X140411004Y-69455078D01*
X140304659Y-69584659D01*
X140175078Y-69691004D01*
X140175076Y-69691005D01*
X140027242Y-69770024D01*
X139866823Y-69818687D01*
X139700000Y-69835117D01*
X139533178Y-69818687D01*
X139372759Y-69770024D01*
X139224925Y-69691005D01*
X139224923Y-69691004D01*
X139095342Y-69584659D01*
X138988997Y-69455078D01*
X138958646Y-69398295D01*
X138909977Y-69307242D01*
X138905052Y-69291005D01*
X138861315Y-69146825D01*
X138861314Y-69146823D01*
X138849000Y-69021803D01*
X138849000Y-68138197D01*
X138861313Y-68013178D01*
X138900917Y-67882621D01*
X138909975Y-67852762D01*
X138909976Y-67852759D01*
X138988995Y-67704923D01*
X139095341Y-67575341D01*
X139224922Y-67468996D01*
X139240094Y-67460886D01*
X139372758Y-67389976D01*
X139533177Y-67341313D01*
X139700000Y-67324883D01*
X139866822Y-67341313D01*
X139866822Y-67341313D01*
G37*
G36*
X134786822Y-67341313D02*
G01*
X134947241Y-67389976D01*
X135095077Y-67468995D01*
X135224659Y-67575341D01*
X135331004Y-67704922D01*
X135331005Y-67704924D01*
X135410024Y-67852758D01*
X135410024Y-67852759D01*
X135410025Y-67852761D01*
X135414950Y-67868996D01*
X135458687Y-68013177D01*
X135471000Y-68138196D01*
X135471000Y-69021803D01*
X135458687Y-69146822D01*
X135458686Y-69146825D01*
X135414950Y-69291005D01*
X135410024Y-69307242D01*
X135361355Y-69398295D01*
X135331004Y-69455078D01*
X135224659Y-69584659D01*
X135095078Y-69691004D01*
X135095076Y-69691005D01*
X134947242Y-69770024D01*
X134786823Y-69818687D01*
X134620000Y-69835117D01*
X134453178Y-69818687D01*
X134292759Y-69770024D01*
X134144925Y-69691005D01*
X134144923Y-69691004D01*
X134015342Y-69584659D01*
X133908997Y-69455078D01*
X133878646Y-69398295D01*
X133829977Y-69307242D01*
X133825052Y-69291005D01*
X133781315Y-69146825D01*
X133781314Y-69146823D01*
X133769000Y-69021803D01*
X133769000Y-68138197D01*
X133781313Y-68013178D01*
X133820917Y-67882621D01*
X133829975Y-67852762D01*
X133829976Y-67852759D01*
X133908995Y-67704923D01*
X134015341Y-67575341D01*
X134144922Y-67468996D01*
X134160094Y-67460886D01*
X134292758Y-67389976D01*
X134453177Y-67341313D01*
X134620000Y-67324883D01*
X134786822Y-67341313D01*
X134786822Y-67341313D01*
G37*
G36*
X132246822Y-67341313D02*
G01*
X132407241Y-67389976D01*
X132555077Y-67468995D01*
X132684659Y-67575341D01*
X132791004Y-67704922D01*
X132791005Y-67704924D01*
X132870024Y-67852758D01*
X132870024Y-67852759D01*
X132870025Y-67852761D01*
X132874950Y-67868996D01*
X132918687Y-68013177D01*
X132931000Y-68138196D01*
X132931000Y-69021803D01*
X132918687Y-69146822D01*
X132918686Y-69146825D01*
X132874950Y-69291005D01*
X132870024Y-69307242D01*
X132821355Y-69398295D01*
X132791004Y-69455078D01*
X132684659Y-69584659D01*
X132555078Y-69691004D01*
X132555076Y-69691005D01*
X132407242Y-69770024D01*
X132246823Y-69818687D01*
X132080000Y-69835117D01*
X131913178Y-69818687D01*
X131752759Y-69770024D01*
X131604925Y-69691005D01*
X131604923Y-69691004D01*
X131475342Y-69584659D01*
X131368997Y-69455078D01*
X131338646Y-69398295D01*
X131289977Y-69307242D01*
X131285052Y-69291005D01*
X131241315Y-69146825D01*
X131241314Y-69146823D01*
X131229000Y-69021803D01*
X131229000Y-68138197D01*
X131241313Y-68013178D01*
X131280917Y-67882621D01*
X131289975Y-67852762D01*
X131289976Y-67852759D01*
X131368995Y-67704923D01*
X131475341Y-67575341D01*
X131604922Y-67468996D01*
X131620094Y-67460886D01*
X131752758Y-67389976D01*
X131913177Y-67341313D01*
X132080000Y-67324883D01*
X132246822Y-67341313D01*
X132246822Y-67341313D01*
G37*
G36*
X129706822Y-67341313D02*
G01*
X129867241Y-67389976D01*
X130015077Y-67468995D01*
X130144659Y-67575341D01*
X130251004Y-67704922D01*
X130251005Y-67704924D01*
X130330024Y-67852758D01*
X130330024Y-67852759D01*
X130330025Y-67852761D01*
X130334950Y-67868996D01*
X130378687Y-68013177D01*
X130391000Y-68138196D01*
X130391000Y-69021803D01*
X130378687Y-69146822D01*
X130378686Y-69146825D01*
X130334950Y-69291005D01*
X130330024Y-69307242D01*
X130281355Y-69398295D01*
X130251004Y-69455078D01*
X130144659Y-69584659D01*
X130015078Y-69691004D01*
X130015076Y-69691005D01*
X129867242Y-69770024D01*
X129706823Y-69818687D01*
X129540000Y-69835117D01*
X129373178Y-69818687D01*
X129212759Y-69770024D01*
X129064925Y-69691005D01*
X129064923Y-69691004D01*
X128935342Y-69584659D01*
X128828997Y-69455078D01*
X128798646Y-69398295D01*
X128749977Y-69307242D01*
X128745052Y-69291005D01*
X128701315Y-69146825D01*
X128701314Y-69146823D01*
X128689000Y-69021803D01*
X128689000Y-68138197D01*
X128701313Y-68013178D01*
X128740917Y-67882621D01*
X128749975Y-67852762D01*
X128749976Y-67852759D01*
X128828995Y-67704923D01*
X128935341Y-67575341D01*
X129064922Y-67468996D01*
X129080094Y-67460886D01*
X129212758Y-67389976D01*
X129373177Y-67341313D01*
X129540000Y-67324883D01*
X129706822Y-67341313D01*
X129706822Y-67341313D01*
G37*
G36*
X127166822Y-67341313D02*
G01*
X127327241Y-67389976D01*
X127475077Y-67468995D01*
X127604659Y-67575341D01*
X127711004Y-67704922D01*
X127711005Y-67704924D01*
X127790024Y-67852758D01*
X127790024Y-67852759D01*
X127790025Y-67852761D01*
X127794950Y-67868996D01*
X127838687Y-68013177D01*
X127851000Y-68138196D01*
X127851000Y-69021803D01*
X127838687Y-69146822D01*
X127838686Y-69146825D01*
X127794950Y-69291005D01*
X127790024Y-69307242D01*
X127741355Y-69398295D01*
X127711004Y-69455078D01*
X127604659Y-69584659D01*
X127475078Y-69691004D01*
X127475076Y-69691005D01*
X127327242Y-69770024D01*
X127166823Y-69818687D01*
X127000000Y-69835117D01*
X126833178Y-69818687D01*
X126672759Y-69770024D01*
X126524925Y-69691005D01*
X126524923Y-69691004D01*
X126395342Y-69584659D01*
X126288997Y-69455078D01*
X126258646Y-69398295D01*
X126209977Y-69307242D01*
X126205052Y-69291005D01*
X126161315Y-69146825D01*
X126161314Y-69146823D01*
X126149000Y-69021803D01*
X126149000Y-68138197D01*
X126161313Y-68013178D01*
X126200917Y-67882621D01*
X126209975Y-67852762D01*
X126209976Y-67852759D01*
X126288995Y-67704923D01*
X126395341Y-67575341D01*
X126524922Y-67468996D01*
X126540094Y-67460886D01*
X126672758Y-67389976D01*
X126833177Y-67341313D01*
X127000000Y-67324883D01*
X127166822Y-67341313D01*
X127166822Y-67341313D01*
G37*
G36*
X124626822Y-67341313D02*
G01*
X124787241Y-67389976D01*
X124935077Y-67468995D01*
X125064659Y-67575341D01*
X125171004Y-67704922D01*
X125171005Y-67704924D01*
X125250024Y-67852758D01*
X125250024Y-67852759D01*
X125250025Y-67852761D01*
X125254950Y-67868996D01*
X125298687Y-68013177D01*
X125311000Y-68138196D01*
X125311000Y-69021803D01*
X125298687Y-69146822D01*
X125298686Y-69146825D01*
X125254950Y-69291005D01*
X125250024Y-69307242D01*
X125201355Y-69398295D01*
X125171004Y-69455078D01*
X125064659Y-69584659D01*
X124935078Y-69691004D01*
X124935076Y-69691005D01*
X124787242Y-69770024D01*
X124626823Y-69818687D01*
X124460000Y-69835117D01*
X124293178Y-69818687D01*
X124132759Y-69770024D01*
X123984925Y-69691005D01*
X123984923Y-69691004D01*
X123855342Y-69584659D01*
X123748997Y-69455078D01*
X123718646Y-69398295D01*
X123669977Y-69307242D01*
X123665052Y-69291005D01*
X123621315Y-69146825D01*
X123621314Y-69146823D01*
X123609000Y-69021803D01*
X123609000Y-68138197D01*
X123621313Y-68013178D01*
X123660917Y-67882621D01*
X123669975Y-67852762D01*
X123669976Y-67852759D01*
X123748995Y-67704923D01*
X123855341Y-67575341D01*
X123984922Y-67468996D01*
X124000094Y-67460886D01*
X124132758Y-67389976D01*
X124293177Y-67341313D01*
X124460000Y-67324883D01*
X124626822Y-67341313D01*
X124626822Y-67341313D01*
G37*
G36*
X102345443Y-67685519D02*
G01*
X102411627Y-67692037D01*
X102581466Y-67743557D01*
X102737991Y-67827222D01*
X102769106Y-67852758D01*
X102875186Y-67939814D01*
X102935393Y-68013178D01*
X102987778Y-68077009D01*
X103071443Y-68233534D01*
X103122963Y-68403373D01*
X103140359Y-68580000D01*
X103122963Y-68756627D01*
X103071443Y-68926466D01*
X102987778Y-69082991D01*
X102958448Y-69118729D01*
X102875186Y-69220186D01*
X102773729Y-69303448D01*
X102737991Y-69332778D01*
X102581466Y-69416443D01*
X102411627Y-69467963D01*
X102345442Y-69474482D01*
X102279260Y-69481000D01*
X102190740Y-69481000D01*
X102124558Y-69474482D01*
X102058373Y-69467963D01*
X101888534Y-69416443D01*
X101732009Y-69332778D01*
X101696271Y-69303448D01*
X101594814Y-69220186D01*
X101511552Y-69118729D01*
X101482222Y-69082991D01*
X101398557Y-68926466D01*
X101347037Y-68756627D01*
X101329641Y-68580000D01*
X101347037Y-68403373D01*
X101398557Y-68233534D01*
X101482222Y-68077009D01*
X101534607Y-68013178D01*
X101594814Y-67939814D01*
X101700894Y-67852758D01*
X101732009Y-67827222D01*
X101888534Y-67743557D01*
X102058373Y-67692037D01*
X102124557Y-67685519D01*
X102190740Y-67679000D01*
X102279260Y-67679000D01*
X102345443Y-67685519D01*
X102345443Y-67685519D01*
G37*
G36*
X148065443Y-67685519D02*
G01*
X148131627Y-67692037D01*
X148301466Y-67743557D01*
X148457991Y-67827222D01*
X148489106Y-67852758D01*
X148595186Y-67939814D01*
X148655393Y-68013178D01*
X148707778Y-68077009D01*
X148791443Y-68233534D01*
X148842963Y-68403373D01*
X148860359Y-68580000D01*
X148842963Y-68756627D01*
X148791443Y-68926466D01*
X148707778Y-69082991D01*
X148678448Y-69118729D01*
X148595186Y-69220186D01*
X148493729Y-69303448D01*
X148457991Y-69332778D01*
X148301466Y-69416443D01*
X148131627Y-69467963D01*
X148065442Y-69474482D01*
X147999260Y-69481000D01*
X147910740Y-69481000D01*
X147844558Y-69474482D01*
X147778373Y-69467963D01*
X147608534Y-69416443D01*
X147452009Y-69332778D01*
X147416271Y-69303448D01*
X147314814Y-69220186D01*
X147231552Y-69118729D01*
X147202222Y-69082991D01*
X147118557Y-68926466D01*
X147067037Y-68756627D01*
X147049641Y-68580000D01*
X147067037Y-68403373D01*
X147118557Y-68233534D01*
X147202222Y-68077009D01*
X147254607Y-68013178D01*
X147314814Y-67939814D01*
X147420894Y-67852758D01*
X147452009Y-67827222D01*
X147608534Y-67743557D01*
X147778373Y-67692037D01*
X147844557Y-67685519D01*
X147910740Y-67679000D01*
X147999260Y-67679000D01*
X148065443Y-67685519D01*
X148065443Y-67685519D01*
G37*
G36*
X146316000Y-69481000D02*
G01*
X144514000Y-69481000D01*
X144514000Y-67679000D01*
X146316000Y-67679000D01*
X146316000Y-69481000D01*
X146316000Y-69481000D01*
G37*
G36*
X104885443Y-67685519D02*
G01*
X104951627Y-67692037D01*
X105121466Y-67743557D01*
X105277991Y-67827222D01*
X105309106Y-67852758D01*
X105415186Y-67939814D01*
X105475393Y-68013178D01*
X105527778Y-68077009D01*
X105611443Y-68233534D01*
X105662963Y-68403373D01*
X105680359Y-68580000D01*
X105662963Y-68756627D01*
X105611443Y-68926466D01*
X105527778Y-69082991D01*
X105498448Y-69118729D01*
X105415186Y-69220186D01*
X105313729Y-69303448D01*
X105277991Y-69332778D01*
X105121466Y-69416443D01*
X104951627Y-69467963D01*
X104885442Y-69474482D01*
X104819260Y-69481000D01*
X104730740Y-69481000D01*
X104664558Y-69474482D01*
X104598373Y-69467963D01*
X104428534Y-69416443D01*
X104272009Y-69332778D01*
X104236271Y-69303448D01*
X104134814Y-69220186D01*
X104051552Y-69118729D01*
X104022222Y-69082991D01*
X103938557Y-68926466D01*
X103887037Y-68756627D01*
X103869641Y-68580000D01*
X103887037Y-68403373D01*
X103938557Y-68233534D01*
X104022222Y-68077009D01*
X104074607Y-68013178D01*
X104134814Y-67939814D01*
X104240894Y-67852758D01*
X104272009Y-67827222D01*
X104428534Y-67743557D01*
X104598373Y-67692037D01*
X104664557Y-67685519D01*
X104730740Y-67679000D01*
X104819260Y-67679000D01*
X104885443Y-67685519D01*
X104885443Y-67685519D01*
G37*
G36*
X120263228Y-67761703D02*
G01*
X120418100Y-67825853D01*
X120557481Y-67918985D01*
X120676015Y-68037519D01*
X120769147Y-68176900D01*
X120833297Y-68331772D01*
X120866000Y-68496184D01*
X120866000Y-68663816D01*
X120833297Y-68828228D01*
X120769147Y-68983100D01*
X120676015Y-69122481D01*
X120557481Y-69241015D01*
X120418100Y-69334147D01*
X120263228Y-69398297D01*
X120098816Y-69431000D01*
X119931184Y-69431000D01*
X119766772Y-69398297D01*
X119611900Y-69334147D01*
X119472519Y-69241015D01*
X119353985Y-69122481D01*
X119260853Y-68983100D01*
X119196703Y-68828228D01*
X119164000Y-68663816D01*
X119164000Y-68496184D01*
X119196703Y-68331772D01*
X119260853Y-68176900D01*
X119353985Y-68037519D01*
X119472519Y-67918985D01*
X119611900Y-67825853D01*
X119766772Y-67761703D01*
X119931184Y-67729000D01*
X120098816Y-67729000D01*
X120263228Y-67761703D01*
X120263228Y-67761703D01*
G37*
G36*
X165983228Y-67761703D02*
G01*
X166138100Y-67825853D01*
X166277481Y-67918985D01*
X166396015Y-68037519D01*
X166489147Y-68176900D01*
X166553297Y-68331772D01*
X166586000Y-68496184D01*
X166586000Y-68663816D01*
X166553297Y-68828228D01*
X166489147Y-68983100D01*
X166396015Y-69122481D01*
X166277481Y-69241015D01*
X166138100Y-69334147D01*
X165983228Y-69398297D01*
X165818816Y-69431000D01*
X165651184Y-69431000D01*
X165486772Y-69398297D01*
X165331900Y-69334147D01*
X165192519Y-69241015D01*
X165073985Y-69122481D01*
X164980853Y-68983100D01*
X164916703Y-68828228D01*
X164884000Y-68663816D01*
X164884000Y-68496184D01*
X164916703Y-68331772D01*
X164980853Y-68176900D01*
X165073985Y-68037519D01*
X165192519Y-67918985D01*
X165331900Y-67825853D01*
X165486772Y-67761703D01*
X165651184Y-67729000D01*
X165818816Y-67729000D01*
X165983228Y-67761703D01*
X165983228Y-67761703D01*
G37*
G36*
X117763228Y-67761703D02*
G01*
X117918100Y-67825853D01*
X118057481Y-67918985D01*
X118176015Y-68037519D01*
X118269147Y-68176900D01*
X118333297Y-68331772D01*
X118366000Y-68496184D01*
X118366000Y-68663816D01*
X118333297Y-68828228D01*
X118269147Y-68983100D01*
X118176015Y-69122481D01*
X118057481Y-69241015D01*
X117918100Y-69334147D01*
X117763228Y-69398297D01*
X117598816Y-69431000D01*
X117431184Y-69431000D01*
X117266772Y-69398297D01*
X117111900Y-69334147D01*
X116972519Y-69241015D01*
X116853985Y-69122481D01*
X116760853Y-68983100D01*
X116696703Y-68828228D01*
X116664000Y-68663816D01*
X116664000Y-68496184D01*
X116696703Y-68331772D01*
X116760853Y-68176900D01*
X116853985Y-68037519D01*
X116972519Y-67918985D01*
X117111900Y-67825853D01*
X117266772Y-67761703D01*
X117431184Y-67729000D01*
X117598816Y-67729000D01*
X117763228Y-67761703D01*
X117763228Y-67761703D01*
G37*
G36*
X155741823Y-67741313D02*
G01*
X155902242Y-67789976D01*
X156019704Y-67852761D01*
X156050078Y-67868996D01*
X156179659Y-67975341D01*
X156286004Y-68104922D01*
X156286005Y-68104924D01*
X156365024Y-68252758D01*
X156413687Y-68413177D01*
X156430117Y-68580000D01*
X156413687Y-68746823D01*
X156365024Y-68907242D01*
X156324477Y-68983100D01*
X156286004Y-69055078D01*
X156179659Y-69184659D01*
X156050078Y-69291004D01*
X156050076Y-69291005D01*
X155902242Y-69370024D01*
X155741823Y-69418687D01*
X155616804Y-69431000D01*
X155533196Y-69431000D01*
X155408177Y-69418687D01*
X155247758Y-69370024D01*
X155099924Y-69291005D01*
X155099922Y-69291004D01*
X154970341Y-69184659D01*
X154863996Y-69055078D01*
X154825523Y-68983100D01*
X154784976Y-68907242D01*
X154736313Y-68746823D01*
X154719883Y-68580000D01*
X154736313Y-68413177D01*
X154784976Y-68252758D01*
X154863995Y-68104924D01*
X154863996Y-68104922D01*
X154970341Y-67975341D01*
X155099922Y-67868996D01*
X155130296Y-67852761D01*
X155247758Y-67789976D01*
X155408177Y-67741313D01*
X155533196Y-67729000D01*
X155616804Y-67729000D01*
X155741823Y-67741313D01*
X155741823Y-67741313D01*
G37*
G36*
X111373228Y-66531703D02*
G01*
X111528100Y-66595853D01*
X111667481Y-66688985D01*
X111786015Y-66807519D01*
X111879147Y-66946900D01*
X111943297Y-67101772D01*
X111976000Y-67266184D01*
X111976000Y-67433816D01*
X111943297Y-67598228D01*
X111879147Y-67753100D01*
X111786015Y-67892481D01*
X111667481Y-68011015D01*
X111528100Y-68104147D01*
X111373228Y-68168297D01*
X111208816Y-68201000D01*
X111041184Y-68201000D01*
X110876772Y-68168297D01*
X110721900Y-68104147D01*
X110582519Y-68011015D01*
X110463985Y-67892481D01*
X110370853Y-67753100D01*
X110306703Y-67598228D01*
X110274000Y-67433816D01*
X110274000Y-67266184D01*
X110306703Y-67101772D01*
X110370853Y-66946900D01*
X110463985Y-66807519D01*
X110582519Y-66688985D01*
X110721900Y-66595853D01*
X110876772Y-66531703D01*
X111041184Y-66499000D01*
X111208816Y-66499000D01*
X111373228Y-66531703D01*
X111373228Y-66531703D01*
G37*
G36*
X104885442Y-65145518D02*
G01*
X104951627Y-65152037D01*
X105121466Y-65203557D01*
X105277991Y-65287222D01*
X105313729Y-65316552D01*
X105415186Y-65399814D01*
X105498448Y-65501271D01*
X105527778Y-65537009D01*
X105611443Y-65693534D01*
X105662963Y-65863373D01*
X105680359Y-66040000D01*
X105662963Y-66216627D01*
X105611443Y-66386466D01*
X105527778Y-66542991D01*
X105498448Y-66578729D01*
X105415186Y-66680186D01*
X105313729Y-66763448D01*
X105277991Y-66792778D01*
X105121466Y-66876443D01*
X104951627Y-66927963D01*
X104885442Y-66934482D01*
X104819260Y-66941000D01*
X104730740Y-66941000D01*
X104664558Y-66934482D01*
X104598373Y-66927963D01*
X104428534Y-66876443D01*
X104272009Y-66792778D01*
X104236271Y-66763448D01*
X104134814Y-66680186D01*
X104051552Y-66578729D01*
X104022222Y-66542991D01*
X103938557Y-66386466D01*
X103887037Y-66216627D01*
X103869641Y-66040000D01*
X103887037Y-65863373D01*
X103938557Y-65693534D01*
X104022222Y-65537009D01*
X104051552Y-65501271D01*
X104134814Y-65399814D01*
X104236271Y-65316552D01*
X104272009Y-65287222D01*
X104428534Y-65203557D01*
X104598373Y-65152037D01*
X104664558Y-65145518D01*
X104730740Y-65139000D01*
X104819260Y-65139000D01*
X104885442Y-65145518D01*
X104885442Y-65145518D01*
G37*
G36*
X103136000Y-66941000D02*
G01*
X101334000Y-66941000D01*
X101334000Y-65139000D01*
X103136000Y-65139000D01*
X103136000Y-66941000D01*
X103136000Y-66941000D01*
G37*
M02*
