G04 #@! TF.GenerationSoftware,KiCad,Pcbnew,(5.1.4)-1*
G04 #@! TF.CreationDate,2021-06-27T21:17:15+03:00*
G04 #@! TF.ProjectId,CPU,4350552e-6b69-4636-9164-5f7063625858,rev?*
G04 #@! TF.SameCoordinates,Original*
G04 #@! TF.FileFunction,Legend,Top*
G04 #@! TF.FilePolarity,Positive*
%FSLAX46Y46*%
G04 Gerber Fmt 4.6, Leading zero omitted, Abs format (unit mm)*
G04 Created by KiCad (PCBNEW (5.1.4)-1) date 2021-06-27 21:17:15*
%MOMM*%
%LPD*%
G04 APERTURE LIST*
%ADD10C,0.150000*%
%ADD11C,0.120000*%
G04 APERTURE END LIST*
D10*
X178641523Y-103417714D02*
X179022476Y-103417714D01*
X178784380Y-104084380D02*
X178784380Y-103227238D01*
X178832000Y-103132000D01*
X178927238Y-103084380D01*
X179022476Y-103084380D01*
X180070095Y-103036761D02*
X179212952Y-104322476D01*
X180832000Y-103417714D02*
X180832000Y-104084380D01*
X180593904Y-103036761D02*
X180355809Y-103751047D01*
X180974857Y-103751047D01*
X178641523Y-100623714D02*
X179022476Y-100623714D01*
X178784380Y-101290380D02*
X178784380Y-100433238D01*
X178832000Y-100338000D01*
X178927238Y-100290380D01*
X179022476Y-100290380D01*
X180070095Y-100242761D02*
X179212952Y-101528476D01*
X180355809Y-100385619D02*
X180403428Y-100338000D01*
X180498666Y-100290380D01*
X180736761Y-100290380D01*
X180832000Y-100338000D01*
X180879619Y-100385619D01*
X180927238Y-100480857D01*
X180927238Y-100576095D01*
X180879619Y-100718952D01*
X180308190Y-101290380D01*
X180927238Y-101290380D01*
X179641523Y-98083714D02*
X180022476Y-98083714D01*
X179784380Y-98750380D02*
X179784380Y-97893238D01*
X179832000Y-97798000D01*
X179927238Y-97750380D01*
X180022476Y-97750380D01*
X174021904Y-107291142D02*
X173974285Y-107338761D01*
X173831428Y-107386380D01*
X173736190Y-107386380D01*
X173593333Y-107338761D01*
X173498095Y-107243523D01*
X173450476Y-107148285D01*
X173402857Y-106957809D01*
X173402857Y-106814952D01*
X173450476Y-106624476D01*
X173498095Y-106529238D01*
X173593333Y-106434000D01*
X173736190Y-106386380D01*
X173831428Y-106386380D01*
X173974285Y-106434000D01*
X174021904Y-106481619D01*
X174593333Y-107386380D02*
X174498095Y-107338761D01*
X174450476Y-107243523D01*
X174450476Y-106386380D01*
X175117142Y-107386380D02*
X175021904Y-107338761D01*
X174974285Y-107291142D01*
X174926666Y-107195904D01*
X174926666Y-106910190D01*
X174974285Y-106814952D01*
X175021904Y-106767333D01*
X175117142Y-106719714D01*
X175260000Y-106719714D01*
X175355238Y-106767333D01*
X175402857Y-106814952D01*
X175450476Y-106910190D01*
X175450476Y-107195904D01*
X175402857Y-107291142D01*
X175355238Y-107338761D01*
X175260000Y-107386380D01*
X175117142Y-107386380D01*
X176307619Y-107338761D02*
X176212380Y-107386380D01*
X176021904Y-107386380D01*
X175926666Y-107338761D01*
X175879047Y-107291142D01*
X175831428Y-107195904D01*
X175831428Y-106910190D01*
X175879047Y-106814952D01*
X175926666Y-106767333D01*
X176021904Y-106719714D01*
X176212380Y-106719714D01*
X176307619Y-106767333D01*
X176736190Y-107386380D02*
X176736190Y-106386380D01*
X176831428Y-107005428D02*
X177117142Y-107386380D01*
X177117142Y-106719714D02*
X176736190Y-107100666D01*
X171307238Y-126690380D02*
X171307238Y-125690380D01*
X171783428Y-126690380D02*
X171783428Y-125690380D01*
X172354857Y-126690380D01*
X172354857Y-125690380D01*
X172688190Y-125690380D02*
X173259619Y-125690380D01*
X172973904Y-126690380D02*
X172973904Y-125690380D01*
X145359619Y-71826380D02*
X145026285Y-71350190D01*
X144788190Y-71826380D02*
X144788190Y-70826380D01*
X145169142Y-70826380D01*
X145264380Y-70874000D01*
X145312000Y-70921619D01*
X145359619Y-71016857D01*
X145359619Y-71159714D01*
X145312000Y-71254952D01*
X145264380Y-71302571D01*
X145169142Y-71350190D01*
X144788190Y-71350190D01*
X145788190Y-71302571D02*
X146121523Y-71302571D01*
X146264380Y-71826380D02*
X145788190Y-71826380D01*
X145788190Y-70826380D01*
X146264380Y-70826380D01*
X146645333Y-71778761D02*
X146788190Y-71826380D01*
X147026285Y-71826380D01*
X147121523Y-71778761D01*
X147169142Y-71731142D01*
X147216761Y-71635904D01*
X147216761Y-71540666D01*
X147169142Y-71445428D01*
X147121523Y-71397809D01*
X147026285Y-71350190D01*
X146835809Y-71302571D01*
X146740571Y-71254952D01*
X146692952Y-71207333D01*
X146645333Y-71112095D01*
X146645333Y-71016857D01*
X146692952Y-70921619D01*
X146740571Y-70874000D01*
X146835809Y-70826380D01*
X147073904Y-70826380D01*
X147216761Y-70874000D01*
X147645333Y-71302571D02*
X147978666Y-71302571D01*
X148121523Y-71826380D02*
X147645333Y-71826380D01*
X147645333Y-70826380D01*
X148121523Y-70826380D01*
X148407238Y-70826380D02*
X148978666Y-70826380D01*
X148692952Y-71826380D02*
X148692952Y-70826380D01*
X179602000Y-92654380D02*
X179602000Y-91654380D01*
X179602000Y-92130571D02*
X180173428Y-92130571D01*
X180173428Y-92654380D02*
X180173428Y-91654380D01*
X180602000Y-92368666D02*
X181078190Y-92368666D01*
X180506761Y-92654380D02*
X180840095Y-91654380D01*
X181173428Y-92654380D01*
X181982952Y-92654380D02*
X181506761Y-92654380D01*
X181506761Y-91654380D01*
X182173428Y-91654380D02*
X182744857Y-91654380D01*
X182459142Y-92654380D02*
X182459142Y-91654380D01*
X176062095Y-78430380D02*
X176062095Y-77430380D01*
X176443047Y-77430380D01*
X176538285Y-77478000D01*
X176585904Y-77525619D01*
X176633523Y-77620857D01*
X176633523Y-77763714D01*
X176585904Y-77858952D01*
X176538285Y-77906571D01*
X176443047Y-77954190D01*
X176062095Y-77954190D01*
X177204952Y-78430380D02*
X177109714Y-78382761D01*
X177062095Y-78335142D01*
X177014476Y-78239904D01*
X177014476Y-77954190D01*
X177062095Y-77858952D01*
X177109714Y-77811333D01*
X177204952Y-77763714D01*
X177347809Y-77763714D01*
X177443047Y-77811333D01*
X177490666Y-77858952D01*
X177538285Y-77954190D01*
X177538285Y-78239904D01*
X177490666Y-78335142D01*
X177443047Y-78382761D01*
X177347809Y-78430380D01*
X177204952Y-78430380D01*
X177871619Y-77763714D02*
X178062095Y-78430380D01*
X178252571Y-77954190D01*
X178443047Y-78430380D01*
X178633523Y-77763714D01*
X179395428Y-78382761D02*
X179300190Y-78430380D01*
X179109714Y-78430380D01*
X179014476Y-78382761D01*
X178966857Y-78287523D01*
X178966857Y-77906571D01*
X179014476Y-77811333D01*
X179109714Y-77763714D01*
X179300190Y-77763714D01*
X179395428Y-77811333D01*
X179443047Y-77906571D01*
X179443047Y-78001809D01*
X178966857Y-78097047D01*
X179871619Y-78430380D02*
X179871619Y-77763714D01*
X179871619Y-77954190D02*
X179919238Y-77858952D01*
X179966857Y-77811333D01*
X180062095Y-77763714D01*
X180157333Y-77763714D01*
X181395428Y-78430380D02*
X181300190Y-78382761D01*
X181252571Y-78335142D01*
X181204952Y-78239904D01*
X181204952Y-77954190D01*
X181252571Y-77858952D01*
X181300190Y-77811333D01*
X181395428Y-77763714D01*
X181538285Y-77763714D01*
X181633523Y-77811333D01*
X181681142Y-77858952D01*
X181728761Y-77954190D01*
X181728761Y-78239904D01*
X181681142Y-78335142D01*
X181633523Y-78382761D01*
X181538285Y-78430380D01*
X181395428Y-78430380D01*
X182157333Y-77763714D02*
X182157333Y-78430380D01*
X182157333Y-77858952D02*
X182204952Y-77811333D01*
X182300190Y-77763714D01*
X182443047Y-77763714D01*
X182538285Y-77811333D01*
X182585904Y-77906571D01*
X182585904Y-78430380D01*
X122643380Y-96862380D02*
X123310047Y-96862380D01*
X122643380Y-97862380D01*
X123310047Y-97862380D01*
X123833857Y-97290952D02*
X123738619Y-97243333D01*
X123691000Y-97195714D01*
X123643380Y-97100476D01*
X123643380Y-97052857D01*
X123691000Y-96957619D01*
X123738619Y-96910000D01*
X123833857Y-96862380D01*
X124024333Y-96862380D01*
X124119571Y-96910000D01*
X124167190Y-96957619D01*
X124214809Y-97052857D01*
X124214809Y-97100476D01*
X124167190Y-97195714D01*
X124119571Y-97243333D01*
X124024333Y-97290952D01*
X123833857Y-97290952D01*
X123738619Y-97338571D01*
X123691000Y-97386190D01*
X123643380Y-97481428D01*
X123643380Y-97671904D01*
X123691000Y-97767142D01*
X123738619Y-97814761D01*
X123833857Y-97862380D01*
X124024333Y-97862380D01*
X124119571Y-97814761D01*
X124167190Y-97767142D01*
X124214809Y-97671904D01*
X124214809Y-97481428D01*
X124167190Y-97386190D01*
X124119571Y-97338571D01*
X124024333Y-97290952D01*
X124833857Y-96862380D02*
X124929095Y-96862380D01*
X125024333Y-96910000D01*
X125071952Y-96957619D01*
X125119571Y-97052857D01*
X125167190Y-97243333D01*
X125167190Y-97481428D01*
X125119571Y-97671904D01*
X125071952Y-97767142D01*
X125024333Y-97814761D01*
X124929095Y-97862380D01*
X124833857Y-97862380D01*
X124738619Y-97814761D01*
X124691000Y-97767142D01*
X124643380Y-97671904D01*
X124595761Y-97481428D01*
X124595761Y-97243333D01*
X124643380Y-97052857D01*
X124691000Y-96957619D01*
X124738619Y-96910000D01*
X124833857Y-96862380D01*
X126357666Y-97862380D02*
X126357666Y-96862380D01*
X126691000Y-97576666D01*
X127024333Y-96862380D01*
X127024333Y-97862380D01*
X127643380Y-97862380D02*
X127548142Y-97814761D01*
X127500523Y-97767142D01*
X127452904Y-97671904D01*
X127452904Y-97386190D01*
X127500523Y-97290952D01*
X127548142Y-97243333D01*
X127643380Y-97195714D01*
X127786238Y-97195714D01*
X127881476Y-97243333D01*
X127929095Y-97290952D01*
X127976714Y-97386190D01*
X127976714Y-97671904D01*
X127929095Y-97767142D01*
X127881476Y-97814761D01*
X127786238Y-97862380D01*
X127643380Y-97862380D01*
X128833857Y-97862380D02*
X128833857Y-96862380D01*
X128833857Y-97814761D02*
X128738619Y-97862380D01*
X128548142Y-97862380D01*
X128452904Y-97814761D01*
X128405285Y-97767142D01*
X128357666Y-97671904D01*
X128357666Y-97386190D01*
X128405285Y-97290952D01*
X128452904Y-97243333D01*
X128548142Y-97195714D01*
X128738619Y-97195714D01*
X128833857Y-97243333D01*
X129738619Y-97195714D02*
X129738619Y-97862380D01*
X129310047Y-97195714D02*
X129310047Y-97719523D01*
X129357666Y-97814761D01*
X129452904Y-97862380D01*
X129595761Y-97862380D01*
X129691000Y-97814761D01*
X129738619Y-97767142D01*
X130357666Y-97862380D02*
X130262428Y-97814761D01*
X130214809Y-97719523D01*
X130214809Y-96862380D01*
X131167190Y-97862380D02*
X131167190Y-97338571D01*
X131119571Y-97243333D01*
X131024333Y-97195714D01*
X130833857Y-97195714D01*
X130738619Y-97243333D01*
X131167190Y-97814761D02*
X131071952Y-97862380D01*
X130833857Y-97862380D01*
X130738619Y-97814761D01*
X130691000Y-97719523D01*
X130691000Y-97624285D01*
X130738619Y-97529047D01*
X130833857Y-97481428D01*
X131071952Y-97481428D01*
X131167190Y-97433809D01*
X131643380Y-97862380D02*
X131643380Y-97195714D01*
X131643380Y-97386190D02*
X131691000Y-97290952D01*
X131738619Y-97243333D01*
X131833857Y-97195714D01*
X131929095Y-97195714D01*
X133595761Y-97767142D02*
X133548142Y-97814761D01*
X133405285Y-97862380D01*
X133310047Y-97862380D01*
X133167190Y-97814761D01*
X133071952Y-97719523D01*
X133024333Y-97624285D01*
X132976714Y-97433809D01*
X132976714Y-97290952D01*
X133024333Y-97100476D01*
X133071952Y-97005238D01*
X133167190Y-96910000D01*
X133310047Y-96862380D01*
X133405285Y-96862380D01*
X133548142Y-96910000D01*
X133595761Y-96957619D01*
X134167190Y-97862380D02*
X134071952Y-97814761D01*
X134024333Y-97767142D01*
X133976714Y-97671904D01*
X133976714Y-97386190D01*
X134024333Y-97290952D01*
X134071952Y-97243333D01*
X134167190Y-97195714D01*
X134310047Y-97195714D01*
X134405285Y-97243333D01*
X134452904Y-97290952D01*
X134500523Y-97386190D01*
X134500523Y-97671904D01*
X134452904Y-97767142D01*
X134405285Y-97814761D01*
X134310047Y-97862380D01*
X134167190Y-97862380D01*
X134929095Y-97862380D02*
X134929095Y-97195714D01*
X134929095Y-97290952D02*
X134976714Y-97243333D01*
X135071952Y-97195714D01*
X135214809Y-97195714D01*
X135310047Y-97243333D01*
X135357666Y-97338571D01*
X135357666Y-97862380D01*
X135357666Y-97338571D02*
X135405285Y-97243333D01*
X135500523Y-97195714D01*
X135643380Y-97195714D01*
X135738619Y-97243333D01*
X135786238Y-97338571D01*
X135786238Y-97862380D01*
X136262428Y-97195714D02*
X136262428Y-98195714D01*
X136262428Y-97243333D02*
X136357666Y-97195714D01*
X136548142Y-97195714D01*
X136643380Y-97243333D01*
X136691000Y-97290952D01*
X136738619Y-97386190D01*
X136738619Y-97671904D01*
X136691000Y-97767142D01*
X136643380Y-97814761D01*
X136548142Y-97862380D01*
X136357666Y-97862380D01*
X136262428Y-97814761D01*
X137595761Y-97195714D02*
X137595761Y-97862380D01*
X137167190Y-97195714D02*
X137167190Y-97719523D01*
X137214809Y-97814761D01*
X137310047Y-97862380D01*
X137452904Y-97862380D01*
X137548142Y-97814761D01*
X137595761Y-97767142D01*
X137929095Y-97195714D02*
X138310047Y-97195714D01*
X138071952Y-96862380D02*
X138071952Y-97719523D01*
X138119571Y-97814761D01*
X138214809Y-97862380D01*
X138310047Y-97862380D01*
X139024333Y-97814761D02*
X138929095Y-97862380D01*
X138738619Y-97862380D01*
X138643380Y-97814761D01*
X138595761Y-97719523D01*
X138595761Y-97338571D01*
X138643380Y-97243333D01*
X138738619Y-97195714D01*
X138929095Y-97195714D01*
X139024333Y-97243333D01*
X139071952Y-97338571D01*
X139071952Y-97433809D01*
X138595761Y-97529047D01*
X139500523Y-97862380D02*
X139500523Y-97195714D01*
X139500523Y-97386190D02*
X139548142Y-97290952D01*
X139595761Y-97243333D01*
X139691000Y-97195714D01*
X139786238Y-97195714D01*
X123762428Y-99417142D02*
X123714809Y-99464761D01*
X123571952Y-99512380D01*
X123476714Y-99512380D01*
X123333857Y-99464761D01*
X123238619Y-99369523D01*
X123191000Y-99274285D01*
X123143380Y-99083809D01*
X123143380Y-98940952D01*
X123191000Y-98750476D01*
X123238619Y-98655238D01*
X123333857Y-98560000D01*
X123476714Y-98512380D01*
X123571952Y-98512380D01*
X123714809Y-98560000D01*
X123762428Y-98607619D01*
X124191000Y-99512380D02*
X124191000Y-98512380D01*
X124571952Y-98512380D01*
X124667190Y-98560000D01*
X124714809Y-98607619D01*
X124762428Y-98702857D01*
X124762428Y-98845714D01*
X124714809Y-98940952D01*
X124667190Y-98988571D01*
X124571952Y-99036190D01*
X124191000Y-99036190D01*
X125191000Y-98512380D02*
X125191000Y-99321904D01*
X125238619Y-99417142D01*
X125286238Y-99464761D01*
X125381476Y-99512380D01*
X125571952Y-99512380D01*
X125667190Y-99464761D01*
X125714809Y-99417142D01*
X125762428Y-99321904D01*
X125762428Y-98512380D01*
X127571952Y-99417142D02*
X127524333Y-99464761D01*
X127381476Y-99512380D01*
X127286238Y-99512380D01*
X127143380Y-99464761D01*
X127048142Y-99369523D01*
X127000523Y-99274285D01*
X126952904Y-99083809D01*
X126952904Y-98940952D01*
X127000523Y-98750476D01*
X127048142Y-98655238D01*
X127143380Y-98560000D01*
X127286238Y-98512380D01*
X127381476Y-98512380D01*
X127524333Y-98560000D01*
X127571952Y-98607619D01*
X128429095Y-99512380D02*
X128429095Y-98988571D01*
X128381476Y-98893333D01*
X128286238Y-98845714D01*
X128095761Y-98845714D01*
X128000523Y-98893333D01*
X128429095Y-99464761D02*
X128333857Y-99512380D01*
X128095761Y-99512380D01*
X128000523Y-99464761D01*
X127952904Y-99369523D01*
X127952904Y-99274285D01*
X128000523Y-99179047D01*
X128095761Y-99131428D01*
X128333857Y-99131428D01*
X128429095Y-99083809D01*
X128905285Y-99512380D02*
X128905285Y-98845714D01*
X128905285Y-99036190D02*
X128952904Y-98940952D01*
X129000523Y-98893333D01*
X129095761Y-98845714D01*
X129191000Y-98845714D01*
X129952904Y-99512380D02*
X129952904Y-98512380D01*
X129952904Y-99464761D02*
X129857666Y-99512380D01*
X129667190Y-99512380D01*
X129571952Y-99464761D01*
X129524333Y-99417142D01*
X129476714Y-99321904D01*
X129476714Y-99036190D01*
X129524333Y-98940952D01*
X129571952Y-98893333D01*
X129667190Y-98845714D01*
X129857666Y-98845714D01*
X129952904Y-98893333D01*
X131095761Y-98845714D02*
X131333857Y-99512380D01*
X131571952Y-98845714D01*
X132333857Y-99464761D02*
X132238619Y-99512380D01*
X132048142Y-99512380D01*
X131952904Y-99464761D01*
X131905285Y-99369523D01*
X131905285Y-98988571D01*
X131952904Y-98893333D01*
X132048142Y-98845714D01*
X132238619Y-98845714D01*
X132333857Y-98893333D01*
X132381476Y-98988571D01*
X132381476Y-99083809D01*
X131905285Y-99179047D01*
X132810047Y-99512380D02*
X132810047Y-98845714D01*
X132810047Y-99036190D02*
X132857666Y-98940952D01*
X132905285Y-98893333D01*
X133000523Y-98845714D01*
X133095761Y-98845714D01*
X133381476Y-99464761D02*
X133476714Y-99512380D01*
X133667190Y-99512380D01*
X133762428Y-99464761D01*
X133810047Y-99369523D01*
X133810047Y-99321904D01*
X133762428Y-99226666D01*
X133667190Y-99179047D01*
X133524333Y-99179047D01*
X133429095Y-99131428D01*
X133381476Y-99036190D01*
X133381476Y-98988571D01*
X133429095Y-98893333D01*
X133524333Y-98845714D01*
X133667190Y-98845714D01*
X133762428Y-98893333D01*
X134238619Y-99512380D02*
X134238619Y-98845714D01*
X134238619Y-98512380D02*
X134191000Y-98560000D01*
X134238619Y-98607619D01*
X134286238Y-98560000D01*
X134238619Y-98512380D01*
X134238619Y-98607619D01*
X134857666Y-99512380D02*
X134762428Y-99464761D01*
X134714809Y-99417142D01*
X134667190Y-99321904D01*
X134667190Y-99036190D01*
X134714809Y-98940952D01*
X134762428Y-98893333D01*
X134857666Y-98845714D01*
X135000523Y-98845714D01*
X135095761Y-98893333D01*
X135143380Y-98940952D01*
X135191000Y-99036190D01*
X135191000Y-99321904D01*
X135143380Y-99417142D01*
X135095761Y-99464761D01*
X135000523Y-99512380D01*
X134857666Y-99512380D01*
X135619571Y-98845714D02*
X135619571Y-99512380D01*
X135619571Y-98940952D02*
X135667190Y-98893333D01*
X135762428Y-98845714D01*
X135905285Y-98845714D01*
X136000523Y-98893333D01*
X136048142Y-98988571D01*
X136048142Y-99512380D01*
X137810047Y-99512380D02*
X137238619Y-99512380D01*
X137524333Y-99512380D02*
X137524333Y-98512380D01*
X137429095Y-98655238D01*
X137333857Y-98750476D01*
X137238619Y-98798095D01*
X138238619Y-99417142D02*
X138286238Y-99464761D01*
X138238619Y-99512380D01*
X138191000Y-99464761D01*
X138238619Y-99417142D01*
X138238619Y-99512380D01*
X138905285Y-98512380D02*
X139000523Y-98512380D01*
X139095761Y-98560000D01*
X139143380Y-98607619D01*
X139191000Y-98702857D01*
X139238619Y-98893333D01*
X139238619Y-99131428D01*
X139191000Y-99321904D01*
X139143380Y-99417142D01*
X139095761Y-99464761D01*
X139000523Y-99512380D01*
X138905285Y-99512380D01*
X138810047Y-99464761D01*
X138762428Y-99417142D01*
X138714809Y-99321904D01*
X138667190Y-99131428D01*
X138667190Y-98893333D01*
X138714809Y-98702857D01*
X138762428Y-98607619D01*
X138810047Y-98560000D01*
X138905285Y-98512380D01*
X120119571Y-101162380D02*
X120119571Y-100162380D01*
X120357666Y-100162380D01*
X120500523Y-100210000D01*
X120595761Y-100305238D01*
X120643380Y-100400476D01*
X120691000Y-100590952D01*
X120691000Y-100733809D01*
X120643380Y-100924285D01*
X120595761Y-101019523D01*
X120500523Y-101114761D01*
X120357666Y-101162380D01*
X120119571Y-101162380D01*
X121500523Y-101114761D02*
X121405285Y-101162380D01*
X121214809Y-101162380D01*
X121119571Y-101114761D01*
X121071952Y-101019523D01*
X121071952Y-100638571D01*
X121119571Y-100543333D01*
X121214809Y-100495714D01*
X121405285Y-100495714D01*
X121500523Y-100543333D01*
X121548142Y-100638571D01*
X121548142Y-100733809D01*
X121071952Y-100829047D01*
X121929095Y-101114761D02*
X122024333Y-101162380D01*
X122214809Y-101162380D01*
X122310047Y-101114761D01*
X122357666Y-101019523D01*
X122357666Y-100971904D01*
X122310047Y-100876666D01*
X122214809Y-100829047D01*
X122071952Y-100829047D01*
X121976714Y-100781428D01*
X121929095Y-100686190D01*
X121929095Y-100638571D01*
X121976714Y-100543333D01*
X122071952Y-100495714D01*
X122214809Y-100495714D01*
X122310047Y-100543333D01*
X122786238Y-101162380D02*
X122786238Y-100495714D01*
X122786238Y-100162380D02*
X122738619Y-100210000D01*
X122786238Y-100257619D01*
X122833857Y-100210000D01*
X122786238Y-100162380D01*
X122786238Y-100257619D01*
X123691000Y-100495714D02*
X123691000Y-101305238D01*
X123643380Y-101400476D01*
X123595761Y-101448095D01*
X123500523Y-101495714D01*
X123357666Y-101495714D01*
X123262428Y-101448095D01*
X123691000Y-101114761D02*
X123595761Y-101162380D01*
X123405285Y-101162380D01*
X123310047Y-101114761D01*
X123262428Y-101067142D01*
X123214809Y-100971904D01*
X123214809Y-100686190D01*
X123262428Y-100590952D01*
X123310047Y-100543333D01*
X123405285Y-100495714D01*
X123595761Y-100495714D01*
X123691000Y-100543333D01*
X124167190Y-100495714D02*
X124167190Y-101162380D01*
X124167190Y-100590952D02*
X124214809Y-100543333D01*
X124310047Y-100495714D01*
X124452904Y-100495714D01*
X124548142Y-100543333D01*
X124595761Y-100638571D01*
X124595761Y-101162380D01*
X125833857Y-101162380D02*
X125833857Y-100162380D01*
X125833857Y-100543333D02*
X125929095Y-100495714D01*
X126119571Y-100495714D01*
X126214809Y-100543333D01*
X126262428Y-100590952D01*
X126310047Y-100686190D01*
X126310047Y-100971904D01*
X126262428Y-101067142D01*
X126214809Y-101114761D01*
X126119571Y-101162380D01*
X125929095Y-101162380D01*
X125833857Y-101114761D01*
X126643380Y-100495714D02*
X126881476Y-101162380D01*
X127119571Y-100495714D02*
X126881476Y-101162380D01*
X126786238Y-101400476D01*
X126738619Y-101448095D01*
X126643380Y-101495714D01*
X128262428Y-101162380D02*
X128262428Y-100162380D01*
X128833857Y-101162380D02*
X128405285Y-100590952D01*
X128833857Y-100162380D02*
X128262428Y-100733809D01*
X129691000Y-101162380D02*
X129691000Y-100638571D01*
X129643380Y-100543333D01*
X129548142Y-100495714D01*
X129357666Y-100495714D01*
X129262428Y-100543333D01*
X129691000Y-101114761D02*
X129595761Y-101162380D01*
X129357666Y-101162380D01*
X129262428Y-101114761D01*
X129214809Y-101019523D01*
X129214809Y-100924285D01*
X129262428Y-100829047D01*
X129357666Y-100781428D01*
X129595761Y-100781428D01*
X129691000Y-100733809D01*
X130310047Y-101162380D02*
X130214809Y-101114761D01*
X130167190Y-101019523D01*
X130167190Y-100162380D01*
X130548142Y-100495714D02*
X130929095Y-100495714D01*
X130691000Y-100162380D02*
X130691000Y-101019523D01*
X130738619Y-101114761D01*
X130833857Y-101162380D01*
X130929095Y-101162380D01*
X131691000Y-101114761D02*
X131595761Y-101162380D01*
X131405285Y-101162380D01*
X131310047Y-101114761D01*
X131262428Y-101067142D01*
X131214809Y-100971904D01*
X131214809Y-100686190D01*
X131262428Y-100590952D01*
X131310047Y-100543333D01*
X131405285Y-100495714D01*
X131595761Y-100495714D01*
X131691000Y-100543333D01*
X132119571Y-101162380D02*
X132119571Y-100162380D01*
X132548142Y-101162380D02*
X132548142Y-100638571D01*
X132500523Y-100543333D01*
X132405285Y-100495714D01*
X132262428Y-100495714D01*
X132167190Y-100543333D01*
X132119571Y-100590952D01*
X133452904Y-100495714D02*
X133452904Y-101162380D01*
X133024333Y-100495714D02*
X133024333Y-101019523D01*
X133071952Y-101114761D01*
X133167190Y-101162380D01*
X133310047Y-101162380D01*
X133405285Y-101114761D01*
X133452904Y-101067142D01*
X133929095Y-101162380D02*
X133929095Y-100162380D01*
X134024333Y-100781428D02*
X134310047Y-101162380D01*
X134310047Y-100495714D02*
X133929095Y-100876666D01*
X134786238Y-101114761D02*
X134786238Y-101162380D01*
X134738619Y-101257619D01*
X134691000Y-101305238D01*
X136167190Y-100162380D02*
X136262428Y-100162380D01*
X136357666Y-100210000D01*
X136405285Y-100257619D01*
X136452904Y-100352857D01*
X136500523Y-100543333D01*
X136500523Y-100781428D01*
X136452904Y-100971904D01*
X136405285Y-101067142D01*
X136357666Y-101114761D01*
X136262428Y-101162380D01*
X136167190Y-101162380D01*
X136071952Y-101114761D01*
X136024333Y-101067142D01*
X135976714Y-100971904D01*
X135929095Y-100781428D01*
X135929095Y-100543333D01*
X135976714Y-100352857D01*
X136024333Y-100257619D01*
X136071952Y-100210000D01*
X136167190Y-100162380D01*
X137357666Y-100162380D02*
X137167190Y-100162380D01*
X137071952Y-100210000D01*
X137024333Y-100257619D01*
X136929095Y-100400476D01*
X136881476Y-100590952D01*
X136881476Y-100971904D01*
X136929095Y-101067142D01*
X136976714Y-101114761D01*
X137071952Y-101162380D01*
X137262428Y-101162380D01*
X137357666Y-101114761D01*
X137405285Y-101067142D01*
X137452904Y-100971904D01*
X137452904Y-100733809D01*
X137405285Y-100638571D01*
X137357666Y-100590952D01*
X137262428Y-100543333D01*
X137071952Y-100543333D01*
X136976714Y-100590952D01*
X136929095Y-100638571D01*
X136881476Y-100733809D01*
X138595761Y-100114761D02*
X137738619Y-101400476D01*
X138881476Y-100257619D02*
X138929095Y-100210000D01*
X139024333Y-100162380D01*
X139262428Y-100162380D01*
X139357666Y-100210000D01*
X139405285Y-100257619D01*
X139452904Y-100352857D01*
X139452904Y-100448095D01*
X139405285Y-100590952D01*
X138833857Y-101162380D01*
X139452904Y-101162380D01*
X140071952Y-100162380D02*
X140167190Y-100162380D01*
X140262428Y-100210000D01*
X140310047Y-100257619D01*
X140357666Y-100352857D01*
X140405285Y-100543333D01*
X140405285Y-100781428D01*
X140357666Y-100971904D01*
X140310047Y-101067142D01*
X140262428Y-101114761D01*
X140167190Y-101162380D01*
X140071952Y-101162380D01*
X139976714Y-101114761D01*
X139929095Y-101067142D01*
X139881476Y-100971904D01*
X139833857Y-100781428D01*
X139833857Y-100543333D01*
X139881476Y-100352857D01*
X139929095Y-100257619D01*
X139976714Y-100210000D01*
X140071952Y-100162380D01*
X140786238Y-100257619D02*
X140833857Y-100210000D01*
X140929095Y-100162380D01*
X141167190Y-100162380D01*
X141262428Y-100210000D01*
X141310047Y-100257619D01*
X141357666Y-100352857D01*
X141357666Y-100448095D01*
X141310047Y-100590952D01*
X140738619Y-101162380D01*
X141357666Y-101162380D01*
X142310047Y-101162380D02*
X141738619Y-101162380D01*
X142024333Y-101162380D02*
X142024333Y-100162380D01*
X141929095Y-100305238D01*
X141833857Y-100400476D01*
X141738619Y-100448095D01*
D11*
X115510000Y-114570000D02*
G75*
G02X115510000Y-116570000I0J-1000000D01*
G01*
X115510000Y-116570000D02*
X115510000Y-121630000D01*
X115510000Y-121630000D02*
X166430000Y-121630000D01*
X166430000Y-121630000D02*
X166430000Y-109510000D01*
X166430000Y-109510000D02*
X115510000Y-109510000D01*
X115510000Y-109510000D02*
X115510000Y-114570000D01*
X115450000Y-124630000D02*
X166490000Y-124630000D01*
X166490000Y-124630000D02*
X166490000Y-106510000D01*
X166490000Y-106510000D02*
X115450000Y-106510000D01*
X115450000Y-106510000D02*
X115450000Y-124630000D01*
X172406000Y-104962000D02*
X177606000Y-104962000D01*
X172406000Y-99822000D02*
X172406000Y-104962000D01*
X177606000Y-97222000D02*
X177606000Y-104962000D01*
X172406000Y-99822000D02*
X175006000Y-99822000D01*
X175006000Y-99822000D02*
X175006000Y-97222000D01*
X175006000Y-97222000D02*
X177606000Y-97222000D01*
X172406000Y-98552000D02*
X172406000Y-97222000D01*
X172406000Y-97222000D02*
X173736000Y-97222000D01*
X186630000Y-116145000D02*
X187960000Y-116145000D01*
X186630000Y-117475000D02*
X186630000Y-116145000D01*
X189230000Y-116145000D02*
X191830000Y-116145000D01*
X189230000Y-118745000D02*
X189230000Y-116145000D01*
X186630000Y-118745000D02*
X189230000Y-118745000D01*
X191830000Y-116145000D02*
X191830000Y-121345000D01*
X186630000Y-118745000D02*
X186630000Y-121345000D01*
X186630000Y-121345000D02*
X191830000Y-121345000D01*
X144010000Y-126850000D02*
X148050000Y-126850000D01*
X144010000Y-129690000D02*
X148050000Y-129690000D01*
X144010000Y-126850000D02*
X144010000Y-127475000D01*
X144010000Y-129065000D02*
X144010000Y-129690000D01*
X148050000Y-126850000D02*
X148050000Y-127475000D01*
X148050000Y-129065000D02*
X148050000Y-129690000D01*
X116745000Y-67785000D02*
X116745000Y-67160000D01*
X116745000Y-70000000D02*
X116745000Y-69375000D01*
X120785000Y-67785000D02*
X120785000Y-67160000D01*
X120785000Y-70000000D02*
X120785000Y-69375000D01*
X120785000Y-67160000D02*
X116745000Y-67160000D01*
X120785000Y-70000000D02*
X116745000Y-70000000D01*
X150645000Y-83050000D02*
X150645000Y-87090000D01*
X147805000Y-83050000D02*
X147805000Y-87090000D01*
X150645000Y-83050000D02*
X150020000Y-83050000D01*
X148430000Y-83050000D02*
X147805000Y-83050000D01*
X150645000Y-87090000D02*
X150020000Y-87090000D01*
X148430000Y-87090000D02*
X147805000Y-87090000D01*
X109400000Y-71154775D02*
X109900000Y-71154775D01*
X109650000Y-71404775D02*
X109650000Y-70904775D01*
X110841000Y-65999000D02*
X111409000Y-65999000D01*
X110607000Y-66039000D02*
X111643000Y-66039000D01*
X110448000Y-66079000D02*
X111802000Y-66079000D01*
X110320000Y-66119000D02*
X111930000Y-66119000D01*
X110210000Y-66159000D02*
X112040000Y-66159000D01*
X110114000Y-66199000D02*
X112136000Y-66199000D01*
X110027000Y-66239000D02*
X112223000Y-66239000D01*
X109947000Y-66279000D02*
X112303000Y-66279000D01*
X112165000Y-66319000D02*
X112376000Y-66319000D01*
X109874000Y-66319000D02*
X110085000Y-66319000D01*
X112165000Y-66359000D02*
X112444000Y-66359000D01*
X109806000Y-66359000D02*
X110085000Y-66359000D01*
X112165000Y-66399000D02*
X112508000Y-66399000D01*
X109742000Y-66399000D02*
X110085000Y-66399000D01*
X112165000Y-66439000D02*
X112568000Y-66439000D01*
X109682000Y-66439000D02*
X110085000Y-66439000D01*
X112165000Y-66479000D02*
X112625000Y-66479000D01*
X109625000Y-66479000D02*
X110085000Y-66479000D01*
X112165000Y-66519000D02*
X112679000Y-66519000D01*
X109571000Y-66519000D02*
X110085000Y-66519000D01*
X112165000Y-66559000D02*
X112730000Y-66559000D01*
X109520000Y-66559000D02*
X110085000Y-66559000D01*
X112165000Y-66599000D02*
X112778000Y-66599000D01*
X109472000Y-66599000D02*
X110085000Y-66599000D01*
X112165000Y-66639000D02*
X112824000Y-66639000D01*
X109426000Y-66639000D02*
X110085000Y-66639000D01*
X112165000Y-66679000D02*
X112868000Y-66679000D01*
X109382000Y-66679000D02*
X110085000Y-66679000D01*
X112165000Y-66719000D02*
X112910000Y-66719000D01*
X109340000Y-66719000D02*
X110085000Y-66719000D01*
X112165000Y-66759000D02*
X112951000Y-66759000D01*
X109299000Y-66759000D02*
X110085000Y-66759000D01*
X112165000Y-66799000D02*
X112989000Y-66799000D01*
X109261000Y-66799000D02*
X110085000Y-66799000D01*
X112165000Y-66839000D02*
X113026000Y-66839000D01*
X109224000Y-66839000D02*
X110085000Y-66839000D01*
X112165000Y-66879000D02*
X113062000Y-66879000D01*
X109188000Y-66879000D02*
X110085000Y-66879000D01*
X112165000Y-66919000D02*
X113096000Y-66919000D01*
X109154000Y-66919000D02*
X110085000Y-66919000D01*
X112165000Y-66959000D02*
X113129000Y-66959000D01*
X109121000Y-66959000D02*
X110085000Y-66959000D01*
X112165000Y-66999000D02*
X113160000Y-66999000D01*
X109090000Y-66999000D02*
X110085000Y-66999000D01*
X112165000Y-67039000D02*
X113190000Y-67039000D01*
X109060000Y-67039000D02*
X110085000Y-67039000D01*
X112165000Y-67079000D02*
X113220000Y-67079000D01*
X109030000Y-67079000D02*
X110085000Y-67079000D01*
X112165000Y-67119000D02*
X113247000Y-67119000D01*
X109003000Y-67119000D02*
X110085000Y-67119000D01*
X112165000Y-67159000D02*
X113274000Y-67159000D01*
X108976000Y-67159000D02*
X110085000Y-67159000D01*
X112165000Y-67199000D02*
X113300000Y-67199000D01*
X108950000Y-67199000D02*
X110085000Y-67199000D01*
X112165000Y-67239000D02*
X113325000Y-67239000D01*
X108925000Y-67239000D02*
X110085000Y-67239000D01*
X112165000Y-67279000D02*
X113349000Y-67279000D01*
X108901000Y-67279000D02*
X110085000Y-67279000D01*
X112165000Y-67319000D02*
X113372000Y-67319000D01*
X108878000Y-67319000D02*
X110085000Y-67319000D01*
X112165000Y-67359000D02*
X113393000Y-67359000D01*
X108857000Y-67359000D02*
X110085000Y-67359000D01*
X112165000Y-67399000D02*
X113415000Y-67399000D01*
X108835000Y-67399000D02*
X110085000Y-67399000D01*
X112165000Y-67439000D02*
X113435000Y-67439000D01*
X108815000Y-67439000D02*
X110085000Y-67439000D01*
X112165000Y-67479000D02*
X113454000Y-67479000D01*
X108796000Y-67479000D02*
X110085000Y-67479000D01*
X112165000Y-67519000D02*
X113473000Y-67519000D01*
X108777000Y-67519000D02*
X110085000Y-67519000D01*
X112165000Y-67559000D02*
X113490000Y-67559000D01*
X108760000Y-67559000D02*
X110085000Y-67559000D01*
X112165000Y-67599000D02*
X113507000Y-67599000D01*
X108743000Y-67599000D02*
X110085000Y-67599000D01*
X112165000Y-67639000D02*
X113523000Y-67639000D01*
X108727000Y-67639000D02*
X110085000Y-67639000D01*
X112165000Y-67679000D02*
X113539000Y-67679000D01*
X108711000Y-67679000D02*
X110085000Y-67679000D01*
X112165000Y-67719000D02*
X113553000Y-67719000D01*
X108697000Y-67719000D02*
X110085000Y-67719000D01*
X112165000Y-67759000D02*
X113567000Y-67759000D01*
X108683000Y-67759000D02*
X110085000Y-67759000D01*
X112165000Y-67799000D02*
X113580000Y-67799000D01*
X108670000Y-67799000D02*
X110085000Y-67799000D01*
X112165000Y-67839000D02*
X113593000Y-67839000D01*
X108657000Y-67839000D02*
X110085000Y-67839000D01*
X112165000Y-67879000D02*
X113605000Y-67879000D01*
X108645000Y-67879000D02*
X110085000Y-67879000D01*
X112165000Y-67920000D02*
X113616000Y-67920000D01*
X108634000Y-67920000D02*
X110085000Y-67920000D01*
X112165000Y-67960000D02*
X113626000Y-67960000D01*
X108624000Y-67960000D02*
X110085000Y-67960000D01*
X112165000Y-68000000D02*
X113636000Y-68000000D01*
X108614000Y-68000000D02*
X110085000Y-68000000D01*
X112165000Y-68040000D02*
X113645000Y-68040000D01*
X108605000Y-68040000D02*
X110085000Y-68040000D01*
X112165000Y-68080000D02*
X113653000Y-68080000D01*
X108597000Y-68080000D02*
X110085000Y-68080000D01*
X112165000Y-68120000D02*
X113661000Y-68120000D01*
X108589000Y-68120000D02*
X110085000Y-68120000D01*
X112165000Y-68160000D02*
X113668000Y-68160000D01*
X108582000Y-68160000D02*
X110085000Y-68160000D01*
X112165000Y-68200000D02*
X113675000Y-68200000D01*
X108575000Y-68200000D02*
X110085000Y-68200000D01*
X112165000Y-68240000D02*
X113681000Y-68240000D01*
X108569000Y-68240000D02*
X110085000Y-68240000D01*
X112165000Y-68280000D02*
X113686000Y-68280000D01*
X108564000Y-68280000D02*
X110085000Y-68280000D01*
X112165000Y-68320000D02*
X113690000Y-68320000D01*
X108560000Y-68320000D02*
X110085000Y-68320000D01*
X112165000Y-68360000D02*
X113694000Y-68360000D01*
X108556000Y-68360000D02*
X110085000Y-68360000D01*
X108552000Y-68400000D02*
X113698000Y-68400000D01*
X108549000Y-68440000D02*
X113701000Y-68440000D01*
X108547000Y-68480000D02*
X113703000Y-68480000D01*
X108546000Y-68520000D02*
X113704000Y-68520000D01*
X108545000Y-68560000D02*
X113705000Y-68560000D01*
X108545000Y-68600000D02*
X113705000Y-68600000D01*
X113745000Y-68600000D02*
G75*
G03X113745000Y-68600000I-2620000J0D01*
G01*
X120785000Y-77620000D02*
X116745000Y-77620000D01*
X120785000Y-74780000D02*
X116745000Y-74780000D01*
X120785000Y-77620000D02*
X120785000Y-76995000D01*
X120785000Y-75405000D02*
X120785000Y-74780000D01*
X116745000Y-77620000D02*
X116745000Y-76995000D01*
X116745000Y-75405000D02*
X116745000Y-74780000D01*
X134334000Y-82329000D02*
X134334000Y-82954000D01*
X134334000Y-80114000D02*
X134334000Y-80739000D01*
X130294000Y-82329000D02*
X130294000Y-82954000D01*
X130294000Y-80114000D02*
X130294000Y-80739000D01*
X130294000Y-82954000D02*
X134334000Y-82954000D01*
X130294000Y-80114000D02*
X134334000Y-80114000D01*
X149285000Y-77470000D02*
G75*
G03X149285000Y-77470000I-2620000J0D01*
G01*
X146665000Y-74890000D02*
X146665000Y-80050000D01*
X146705000Y-74890000D02*
X146705000Y-80050000D01*
X146745000Y-74891000D02*
X146745000Y-80049000D01*
X146785000Y-74892000D02*
X146785000Y-80048000D01*
X146825000Y-74894000D02*
X146825000Y-80046000D01*
X146865000Y-74897000D02*
X146865000Y-80043000D01*
X146905000Y-74901000D02*
X146905000Y-76430000D01*
X146905000Y-78510000D02*
X146905000Y-80039000D01*
X146945000Y-74905000D02*
X146945000Y-76430000D01*
X146945000Y-78510000D02*
X146945000Y-80035000D01*
X146985000Y-74909000D02*
X146985000Y-76430000D01*
X146985000Y-78510000D02*
X146985000Y-80031000D01*
X147025000Y-74914000D02*
X147025000Y-76430000D01*
X147025000Y-78510000D02*
X147025000Y-80026000D01*
X147065000Y-74920000D02*
X147065000Y-76430000D01*
X147065000Y-78510000D02*
X147065000Y-80020000D01*
X147105000Y-74927000D02*
X147105000Y-76430000D01*
X147105000Y-78510000D02*
X147105000Y-80013000D01*
X147145000Y-74934000D02*
X147145000Y-76430000D01*
X147145000Y-78510000D02*
X147145000Y-80006000D01*
X147185000Y-74942000D02*
X147185000Y-76430000D01*
X147185000Y-78510000D02*
X147185000Y-79998000D01*
X147225000Y-74950000D02*
X147225000Y-76430000D01*
X147225000Y-78510000D02*
X147225000Y-79990000D01*
X147265000Y-74959000D02*
X147265000Y-76430000D01*
X147265000Y-78510000D02*
X147265000Y-79981000D01*
X147305000Y-74969000D02*
X147305000Y-76430000D01*
X147305000Y-78510000D02*
X147305000Y-79971000D01*
X147345000Y-74979000D02*
X147345000Y-76430000D01*
X147345000Y-78510000D02*
X147345000Y-79961000D01*
X147386000Y-74990000D02*
X147386000Y-76430000D01*
X147386000Y-78510000D02*
X147386000Y-79950000D01*
X147426000Y-75002000D02*
X147426000Y-76430000D01*
X147426000Y-78510000D02*
X147426000Y-79938000D01*
X147466000Y-75015000D02*
X147466000Y-76430000D01*
X147466000Y-78510000D02*
X147466000Y-79925000D01*
X147506000Y-75028000D02*
X147506000Y-76430000D01*
X147506000Y-78510000D02*
X147506000Y-79912000D01*
X147546000Y-75042000D02*
X147546000Y-76430000D01*
X147546000Y-78510000D02*
X147546000Y-79898000D01*
X147586000Y-75056000D02*
X147586000Y-76430000D01*
X147586000Y-78510000D02*
X147586000Y-79884000D01*
X147626000Y-75072000D02*
X147626000Y-76430000D01*
X147626000Y-78510000D02*
X147626000Y-79868000D01*
X147666000Y-75088000D02*
X147666000Y-76430000D01*
X147666000Y-78510000D02*
X147666000Y-79852000D01*
X147706000Y-75105000D02*
X147706000Y-76430000D01*
X147706000Y-78510000D02*
X147706000Y-79835000D01*
X147746000Y-75122000D02*
X147746000Y-76430000D01*
X147746000Y-78510000D02*
X147746000Y-79818000D01*
X147786000Y-75141000D02*
X147786000Y-76430000D01*
X147786000Y-78510000D02*
X147786000Y-79799000D01*
X147826000Y-75160000D02*
X147826000Y-76430000D01*
X147826000Y-78510000D02*
X147826000Y-79780000D01*
X147866000Y-75180000D02*
X147866000Y-76430000D01*
X147866000Y-78510000D02*
X147866000Y-79760000D01*
X147906000Y-75202000D02*
X147906000Y-76430000D01*
X147906000Y-78510000D02*
X147906000Y-79738000D01*
X147946000Y-75223000D02*
X147946000Y-76430000D01*
X147946000Y-78510000D02*
X147946000Y-79717000D01*
X147986000Y-75246000D02*
X147986000Y-76430000D01*
X147986000Y-78510000D02*
X147986000Y-79694000D01*
X148026000Y-75270000D02*
X148026000Y-76430000D01*
X148026000Y-78510000D02*
X148026000Y-79670000D01*
X148066000Y-75295000D02*
X148066000Y-76430000D01*
X148066000Y-78510000D02*
X148066000Y-79645000D01*
X148106000Y-75321000D02*
X148106000Y-76430000D01*
X148106000Y-78510000D02*
X148106000Y-79619000D01*
X148146000Y-75348000D02*
X148146000Y-76430000D01*
X148146000Y-78510000D02*
X148146000Y-79592000D01*
X148186000Y-75375000D02*
X148186000Y-76430000D01*
X148186000Y-78510000D02*
X148186000Y-79565000D01*
X148226000Y-75405000D02*
X148226000Y-76430000D01*
X148226000Y-78510000D02*
X148226000Y-79535000D01*
X148266000Y-75435000D02*
X148266000Y-76430000D01*
X148266000Y-78510000D02*
X148266000Y-79505000D01*
X148306000Y-75466000D02*
X148306000Y-76430000D01*
X148306000Y-78510000D02*
X148306000Y-79474000D01*
X148346000Y-75499000D02*
X148346000Y-76430000D01*
X148346000Y-78510000D02*
X148346000Y-79441000D01*
X148386000Y-75533000D02*
X148386000Y-76430000D01*
X148386000Y-78510000D02*
X148386000Y-79407000D01*
X148426000Y-75569000D02*
X148426000Y-76430000D01*
X148426000Y-78510000D02*
X148426000Y-79371000D01*
X148466000Y-75606000D02*
X148466000Y-76430000D01*
X148466000Y-78510000D02*
X148466000Y-79334000D01*
X148506000Y-75644000D02*
X148506000Y-76430000D01*
X148506000Y-78510000D02*
X148506000Y-79296000D01*
X148546000Y-75685000D02*
X148546000Y-76430000D01*
X148546000Y-78510000D02*
X148546000Y-79255000D01*
X148586000Y-75727000D02*
X148586000Y-76430000D01*
X148586000Y-78510000D02*
X148586000Y-79213000D01*
X148626000Y-75771000D02*
X148626000Y-76430000D01*
X148626000Y-78510000D02*
X148626000Y-79169000D01*
X148666000Y-75817000D02*
X148666000Y-76430000D01*
X148666000Y-78510000D02*
X148666000Y-79123000D01*
X148706000Y-75865000D02*
X148706000Y-76430000D01*
X148706000Y-78510000D02*
X148706000Y-79075000D01*
X148746000Y-75916000D02*
X148746000Y-76430000D01*
X148746000Y-78510000D02*
X148746000Y-79024000D01*
X148786000Y-75970000D02*
X148786000Y-76430000D01*
X148786000Y-78510000D02*
X148786000Y-78970000D01*
X148826000Y-76027000D02*
X148826000Y-76430000D01*
X148826000Y-78510000D02*
X148826000Y-78913000D01*
X148866000Y-76087000D02*
X148866000Y-76430000D01*
X148866000Y-78510000D02*
X148866000Y-78853000D01*
X148906000Y-76151000D02*
X148906000Y-76430000D01*
X148906000Y-78510000D02*
X148906000Y-78789000D01*
X148946000Y-76219000D02*
X148946000Y-76430000D01*
X148946000Y-78510000D02*
X148946000Y-78721000D01*
X148986000Y-76292000D02*
X148986000Y-78648000D01*
X149026000Y-76372000D02*
X149026000Y-78568000D01*
X149066000Y-76459000D02*
X149066000Y-78481000D01*
X149106000Y-76555000D02*
X149106000Y-78385000D01*
X149146000Y-76665000D02*
X149146000Y-78275000D01*
X149186000Y-76793000D02*
X149186000Y-78147000D01*
X149226000Y-76952000D02*
X149226000Y-77988000D01*
X149266000Y-77186000D02*
X149266000Y-77754000D01*
X143860225Y-75995000D02*
X144360225Y-75995000D01*
X144110225Y-75745000D02*
X144110225Y-76245000D01*
X184495000Y-76869000D02*
X184495000Y-77025000D01*
X184495000Y-79185000D02*
X184495000Y-79341000D01*
X187727335Y-77026392D02*
G75*
G03X184495000Y-76869484I-1672335J-1078608D01*
G01*
X187727335Y-79183608D02*
G75*
G02X184495000Y-79340516I-1672335J1078608D01*
G01*
X187096130Y-77025163D02*
G75*
G03X185014039Y-77025000I-1041130J-1079837D01*
G01*
X187096130Y-79184837D02*
G75*
G02X185014039Y-79185000I-1041130J1079837D01*
G01*
X158535000Y-71270000D02*
X158535000Y-73510000D01*
X158535000Y-73510000D02*
X162775000Y-73510000D01*
X162775000Y-73510000D02*
X162775000Y-71270000D01*
X162775000Y-71270000D02*
X158535000Y-71270000D01*
X157885000Y-72390000D02*
X158535000Y-72390000D01*
X163425000Y-72390000D02*
X162775000Y-72390000D01*
X159255000Y-71270000D02*
X159255000Y-73510000D01*
X159375000Y-71270000D02*
X159375000Y-73510000D01*
X159135000Y-71270000D02*
X159135000Y-73510000D01*
X184495000Y-93155000D02*
X184495000Y-93311000D01*
X184495000Y-90839000D02*
X184495000Y-90995000D01*
X187096130Y-93154837D02*
G75*
G02X185014039Y-93155000I-1041130J1079837D01*
G01*
X187096130Y-90995163D02*
G75*
G03X185014039Y-90995000I-1041130J-1079837D01*
G01*
X187727335Y-93153608D02*
G75*
G02X184495000Y-93310516I-1672335J1078608D01*
G01*
X187727335Y-90996392D02*
G75*
G03X184495000Y-90839484I-1672335J-1078608D01*
G01*
X100905000Y-130870000D02*
X106105000Y-130870000D01*
X100905000Y-82550000D02*
X100905000Y-130870000D01*
X106105000Y-79950000D02*
X106105000Y-130870000D01*
X100905000Y-82550000D02*
X103505000Y-82550000D01*
X103505000Y-82550000D02*
X103505000Y-79950000D01*
X103505000Y-79950000D02*
X106105000Y-79950000D01*
X100905000Y-81280000D02*
X100905000Y-79950000D01*
X100905000Y-79950000D02*
X102235000Y-79950000D01*
X100905000Y-77530000D02*
X106105000Y-77530000D01*
X100905000Y-67310000D02*
X100905000Y-77530000D01*
X106105000Y-64710000D02*
X106105000Y-77530000D01*
X100905000Y-67310000D02*
X103505000Y-67310000D01*
X103505000Y-67310000D02*
X103505000Y-64710000D01*
X103505000Y-64710000D02*
X106105000Y-64710000D01*
X100905000Y-66040000D02*
X100905000Y-64710000D01*
X100905000Y-64710000D02*
X102235000Y-64710000D01*
X169485000Y-121860000D02*
X170815000Y-121860000D01*
X169485000Y-123190000D02*
X169485000Y-121860000D01*
X172085000Y-121860000D02*
X174685000Y-121860000D01*
X172085000Y-124460000D02*
X172085000Y-121860000D01*
X169485000Y-124460000D02*
X172085000Y-124460000D01*
X174685000Y-121860000D02*
X174685000Y-124520000D01*
X169485000Y-124460000D02*
X169485000Y-124520000D01*
X169485000Y-124520000D02*
X174685000Y-124520000D01*
X144085000Y-69910000D02*
X149285000Y-69910000D01*
X144085000Y-69850000D02*
X144085000Y-69910000D01*
X149285000Y-67250000D02*
X149285000Y-69910000D01*
X144085000Y-69850000D02*
X146685000Y-69850000D01*
X146685000Y-69850000D02*
X146685000Y-67250000D01*
X146685000Y-67250000D02*
X149285000Y-67250000D01*
X144085000Y-68580000D02*
X144085000Y-67250000D01*
X144085000Y-67250000D02*
X145415000Y-67250000D01*
X177745000Y-86890000D02*
X177745000Y-83290000D01*
X177733478Y-86928478D02*
G75*
G02X173295000Y-85090000I-1838478J1838478D01*
G01*
X177733478Y-83251522D02*
G75*
G03X173295000Y-85090000I-1838478J-1838478D01*
G01*
X124460000Y-82320000D02*
X124460000Y-83090000D01*
X124460000Y-90400000D02*
X124460000Y-89630000D01*
X123090000Y-83090000D02*
X123090000Y-89630000D01*
X125830000Y-83090000D02*
X123090000Y-83090000D01*
X125830000Y-89630000D02*
X125830000Y-83090000D01*
X123090000Y-89630000D02*
X125830000Y-89630000D01*
X138330000Y-89630000D02*
X141070000Y-89630000D01*
X141070000Y-89630000D02*
X141070000Y-83090000D01*
X141070000Y-83090000D02*
X138330000Y-83090000D01*
X138330000Y-83090000D02*
X138330000Y-89630000D01*
X139700000Y-90400000D02*
X139700000Y-89630000D01*
X139700000Y-82320000D02*
X139700000Y-83090000D01*
X190095000Y-81915000D02*
X189325000Y-81915000D01*
X182015000Y-81915000D02*
X182785000Y-81915000D01*
X189325000Y-80545000D02*
X182785000Y-80545000D01*
X189325000Y-83285000D02*
X189325000Y-80545000D01*
X182785000Y-83285000D02*
X189325000Y-83285000D01*
X182785000Y-80545000D02*
X182785000Y-83285000D01*
X163925000Y-69950000D02*
X163925000Y-67210000D01*
X163925000Y-67210000D02*
X157385000Y-67210000D01*
X157385000Y-67210000D02*
X157385000Y-69950000D01*
X157385000Y-69950000D02*
X163925000Y-69950000D01*
X164695000Y-68580000D02*
X163925000Y-68580000D01*
X156615000Y-68580000D02*
X157385000Y-68580000D01*
X157385000Y-74830000D02*
X157385000Y-77570000D01*
X157385000Y-77570000D02*
X163925000Y-77570000D01*
X163925000Y-77570000D02*
X163925000Y-74830000D01*
X163925000Y-74830000D02*
X157385000Y-74830000D01*
X156615000Y-76200000D02*
X157385000Y-76200000D01*
X164695000Y-76200000D02*
X163925000Y-76200000D01*
X182785000Y-86895000D02*
X182785000Y-89635000D01*
X182785000Y-89635000D02*
X189325000Y-89635000D01*
X189325000Y-89635000D02*
X189325000Y-86895000D01*
X189325000Y-86895000D02*
X182785000Y-86895000D01*
X182015000Y-88265000D02*
X182785000Y-88265000D01*
X190095000Y-88265000D02*
X189325000Y-88265000D01*
X190095000Y-85090000D02*
X189325000Y-85090000D01*
X182015000Y-85090000D02*
X182785000Y-85090000D01*
X189325000Y-83720000D02*
X182785000Y-83720000D01*
X189325000Y-86460000D02*
X189325000Y-83720000D01*
X182785000Y-86460000D02*
X189325000Y-86460000D01*
X182785000Y-83720000D02*
X182785000Y-86460000D01*
X112525000Y-110320000D02*
X109725000Y-110320000D01*
X109725000Y-110320000D02*
X109725000Y-123360000D01*
X109725000Y-123360000D02*
X112525000Y-123360000D01*
X112525000Y-123360000D02*
X112525000Y-110320000D01*
X112525000Y-113030000D02*
X109725000Y-113030000D01*
X123070000Y-67140000D02*
X123070000Y-77640000D01*
X141090000Y-67140000D02*
X123070000Y-67140000D01*
X141090000Y-77640000D02*
X141090000Y-67140000D01*
X123070000Y-77640000D02*
X141090000Y-77640000D01*
X123130000Y-70140000D02*
X123130000Y-71390000D01*
X141030000Y-70140000D02*
X123130000Y-70140000D01*
X141030000Y-74640000D02*
X141030000Y-70140000D01*
X123130000Y-74640000D02*
X141030000Y-74640000D01*
X123130000Y-73390000D02*
X123130000Y-74640000D01*
X123130000Y-71390000D02*
G75*
G02X123130000Y-73390000I0J-1000000D01*
G01*
X151705000Y-86090000D02*
X151705000Y-87340000D01*
X151705000Y-87340000D02*
X169605000Y-87340000D01*
X169605000Y-87340000D02*
X169605000Y-82840000D01*
X169605000Y-82840000D02*
X151705000Y-82840000D01*
X151705000Y-82840000D02*
X151705000Y-84090000D01*
X151645000Y-90340000D02*
X169665000Y-90340000D01*
X169665000Y-90340000D02*
X169665000Y-79840000D01*
X169665000Y-79840000D02*
X151645000Y-79840000D01*
X151645000Y-79840000D02*
X151645000Y-90340000D01*
X151705000Y-84090000D02*
G75*
G02X151705000Y-86090000I0J-1000000D01*
G01*
X128855000Y-85740000D02*
X135105000Y-85740000D01*
X128855000Y-90790000D02*
X135105000Y-90790000D01*
X128855000Y-90790000D02*
G75*
G02X128855000Y-85740000I0J2525000D01*
G01*
X135105000Y-90790000D02*
G75*
G03X135105000Y-85740000I0J2525000D01*
G01*
D10*
X113962380Y-111251904D02*
X114771904Y-111251904D01*
X114867142Y-111204285D01*
X114914761Y-111156666D01*
X114962380Y-111061428D01*
X114962380Y-110870952D01*
X114914761Y-110775714D01*
X114867142Y-110728095D01*
X114771904Y-110680476D01*
X113962380Y-110680476D01*
X113962380Y-110299523D02*
X113962380Y-109680476D01*
X114343333Y-110013809D01*
X114343333Y-109870952D01*
X114390952Y-109775714D01*
X114438571Y-109728095D01*
X114533809Y-109680476D01*
X114771904Y-109680476D01*
X114867142Y-109728095D01*
X114914761Y-109775714D01*
X114962380Y-109870952D01*
X114962380Y-110156666D01*
X114914761Y-110251904D01*
X114867142Y-110299523D01*
X174672666Y-95674380D02*
X174672666Y-96388666D01*
X174625047Y-96531523D01*
X174529809Y-96626761D01*
X174386952Y-96674380D01*
X174291714Y-96674380D01*
X175577428Y-95674380D02*
X175386952Y-95674380D01*
X175291714Y-95722000D01*
X175244095Y-95769619D01*
X175148857Y-95912476D01*
X175101238Y-96102952D01*
X175101238Y-96483904D01*
X175148857Y-96579142D01*
X175196476Y-96626761D01*
X175291714Y-96674380D01*
X175482190Y-96674380D01*
X175577428Y-96626761D01*
X175625047Y-96579142D01*
X175672666Y-96483904D01*
X175672666Y-96245809D01*
X175625047Y-96150571D01*
X175577428Y-96102952D01*
X175482190Y-96055333D01*
X175291714Y-96055333D01*
X175196476Y-96102952D01*
X175148857Y-96150571D01*
X175101238Y-96245809D01*
X188896666Y-114597380D02*
X188896666Y-115311666D01*
X188849047Y-115454523D01*
X188753809Y-115549761D01*
X188610952Y-115597380D01*
X188515714Y-115597380D01*
X189801428Y-114930714D02*
X189801428Y-115597380D01*
X189563333Y-114549761D02*
X189325238Y-115264047D01*
X189944285Y-115264047D01*
X145863333Y-126077142D02*
X145815714Y-126124761D01*
X145672857Y-126172380D01*
X145577619Y-126172380D01*
X145434761Y-126124761D01*
X145339523Y-126029523D01*
X145291904Y-125934285D01*
X145244285Y-125743809D01*
X145244285Y-125600952D01*
X145291904Y-125410476D01*
X145339523Y-125315238D01*
X145434761Y-125220000D01*
X145577619Y-125172380D01*
X145672857Y-125172380D01*
X145815714Y-125220000D01*
X145863333Y-125267619D01*
X146815714Y-126172380D02*
X146244285Y-126172380D01*
X146530000Y-126172380D02*
X146530000Y-125172380D01*
X146434761Y-125315238D01*
X146339523Y-125410476D01*
X146244285Y-125458095D01*
X118598333Y-71487142D02*
X118550714Y-71534761D01*
X118407857Y-71582380D01*
X118312619Y-71582380D01*
X118169761Y-71534761D01*
X118074523Y-71439523D01*
X118026904Y-71344285D01*
X117979285Y-71153809D01*
X117979285Y-71010952D01*
X118026904Y-70820476D01*
X118074523Y-70725238D01*
X118169761Y-70630000D01*
X118312619Y-70582380D01*
X118407857Y-70582380D01*
X118550714Y-70630000D01*
X118598333Y-70677619D01*
X118979285Y-70677619D02*
X119026904Y-70630000D01*
X119122142Y-70582380D01*
X119360238Y-70582380D01*
X119455476Y-70630000D01*
X119503095Y-70677619D01*
X119550714Y-70772857D01*
X119550714Y-70868095D01*
X119503095Y-71010952D01*
X118931666Y-71582380D01*
X119550714Y-71582380D01*
X147042142Y-85236666D02*
X147089761Y-85284285D01*
X147137380Y-85427142D01*
X147137380Y-85522380D01*
X147089761Y-85665238D01*
X146994523Y-85760476D01*
X146899285Y-85808095D01*
X146708809Y-85855714D01*
X146565952Y-85855714D01*
X146375476Y-85808095D01*
X146280238Y-85760476D01*
X146185000Y-85665238D01*
X146137380Y-85522380D01*
X146137380Y-85427142D01*
X146185000Y-85284285D01*
X146232619Y-85236666D01*
X146137380Y-84903333D02*
X146137380Y-84284285D01*
X146518333Y-84617619D01*
X146518333Y-84474761D01*
X146565952Y-84379523D01*
X146613571Y-84331904D01*
X146708809Y-84284285D01*
X146946904Y-84284285D01*
X147042142Y-84331904D01*
X147089761Y-84379523D01*
X147137380Y-84474761D01*
X147137380Y-84760476D01*
X147089761Y-84855714D01*
X147042142Y-84903333D01*
X107732142Y-68766666D02*
X107779761Y-68814285D01*
X107827380Y-68957142D01*
X107827380Y-69052380D01*
X107779761Y-69195238D01*
X107684523Y-69290476D01*
X107589285Y-69338095D01*
X107398809Y-69385714D01*
X107255952Y-69385714D01*
X107065476Y-69338095D01*
X106970238Y-69290476D01*
X106875000Y-69195238D01*
X106827380Y-69052380D01*
X106827380Y-68957142D01*
X106875000Y-68814285D01*
X106922619Y-68766666D01*
X107160714Y-67909523D02*
X107827380Y-67909523D01*
X106779761Y-68147619D02*
X107494047Y-68385714D01*
X107494047Y-67766666D01*
X118598333Y-79107142D02*
X118550714Y-79154761D01*
X118407857Y-79202380D01*
X118312619Y-79202380D01*
X118169761Y-79154761D01*
X118074523Y-79059523D01*
X118026904Y-78964285D01*
X117979285Y-78773809D01*
X117979285Y-78630952D01*
X118026904Y-78440476D01*
X118074523Y-78345238D01*
X118169761Y-78250000D01*
X118312619Y-78202380D01*
X118407857Y-78202380D01*
X118550714Y-78250000D01*
X118598333Y-78297619D01*
X119503095Y-78202380D02*
X119026904Y-78202380D01*
X118979285Y-78678571D01*
X119026904Y-78630952D01*
X119122142Y-78583333D01*
X119360238Y-78583333D01*
X119455476Y-78630952D01*
X119503095Y-78678571D01*
X119550714Y-78773809D01*
X119550714Y-79011904D01*
X119503095Y-79107142D01*
X119455476Y-79154761D01*
X119360238Y-79202380D01*
X119122142Y-79202380D01*
X119026904Y-79154761D01*
X118979285Y-79107142D01*
X132147333Y-79341142D02*
X132099714Y-79388761D01*
X131956857Y-79436380D01*
X131861619Y-79436380D01*
X131718761Y-79388761D01*
X131623523Y-79293523D01*
X131575904Y-79198285D01*
X131528285Y-79007809D01*
X131528285Y-78864952D01*
X131575904Y-78674476D01*
X131623523Y-78579238D01*
X131718761Y-78484000D01*
X131861619Y-78436380D01*
X131956857Y-78436380D01*
X132099714Y-78484000D01*
X132147333Y-78531619D01*
X133004476Y-78436380D02*
X132814000Y-78436380D01*
X132718761Y-78484000D01*
X132671142Y-78531619D01*
X132575904Y-78674476D01*
X132528285Y-78864952D01*
X132528285Y-79245904D01*
X132575904Y-79341142D01*
X132623523Y-79388761D01*
X132718761Y-79436380D01*
X132909238Y-79436380D01*
X133004476Y-79388761D01*
X133052095Y-79341142D01*
X133099714Y-79245904D01*
X133099714Y-79007809D01*
X133052095Y-78912571D01*
X133004476Y-78864952D01*
X132909238Y-78817333D01*
X132718761Y-78817333D01*
X132623523Y-78864952D01*
X132575904Y-78912571D01*
X132528285Y-79007809D01*
X146498333Y-74077142D02*
X146450714Y-74124761D01*
X146307857Y-74172380D01*
X146212619Y-74172380D01*
X146069761Y-74124761D01*
X145974523Y-74029523D01*
X145926904Y-73934285D01*
X145879285Y-73743809D01*
X145879285Y-73600952D01*
X145926904Y-73410476D01*
X145974523Y-73315238D01*
X146069761Y-73220000D01*
X146212619Y-73172380D01*
X146307857Y-73172380D01*
X146450714Y-73220000D01*
X146498333Y-73267619D01*
X146831666Y-73172380D02*
X147498333Y-73172380D01*
X147069761Y-74172380D01*
X185316904Y-75597380D02*
X185316904Y-74597380D01*
X185555000Y-74597380D01*
X185697857Y-74645000D01*
X185793095Y-74740238D01*
X185840714Y-74835476D01*
X185888333Y-75025952D01*
X185888333Y-75168809D01*
X185840714Y-75359285D01*
X185793095Y-75454523D01*
X185697857Y-75549761D01*
X185555000Y-75597380D01*
X185316904Y-75597380D01*
X186840714Y-75597380D02*
X186269285Y-75597380D01*
X186555000Y-75597380D02*
X186555000Y-74597380D01*
X186459761Y-74740238D01*
X186364523Y-74835476D01*
X186269285Y-74883095D01*
X167536904Y-72842380D02*
X167536904Y-71842380D01*
X167775000Y-71842380D01*
X167917857Y-71890000D01*
X168013095Y-71985238D01*
X168060714Y-72080476D01*
X168108333Y-72270952D01*
X168108333Y-72413809D01*
X168060714Y-72604285D01*
X168013095Y-72699523D01*
X167917857Y-72794761D01*
X167775000Y-72842380D01*
X167536904Y-72842380D01*
X168489285Y-71937619D02*
X168536904Y-71890000D01*
X168632142Y-71842380D01*
X168870238Y-71842380D01*
X168965476Y-71890000D01*
X169013095Y-71937619D01*
X169060714Y-72032857D01*
X169060714Y-72128095D01*
X169013095Y-72270952D01*
X168441666Y-72842380D01*
X169060714Y-72842380D01*
X156583095Y-71042380D02*
X156583095Y-70042380D01*
X157154523Y-71042380D02*
X156725952Y-70470952D01*
X157154523Y-70042380D02*
X156583095Y-70613809D01*
X185316904Y-95702380D02*
X185316904Y-94702380D01*
X185555000Y-94702380D01*
X185697857Y-94750000D01*
X185793095Y-94845238D01*
X185840714Y-94940476D01*
X185888333Y-95130952D01*
X185888333Y-95273809D01*
X185840714Y-95464285D01*
X185793095Y-95559523D01*
X185697857Y-95654761D01*
X185555000Y-95702380D01*
X185316904Y-95702380D01*
X186221666Y-94702380D02*
X186840714Y-94702380D01*
X186507380Y-95083333D01*
X186650238Y-95083333D01*
X186745476Y-95130952D01*
X186793095Y-95178571D01*
X186840714Y-95273809D01*
X186840714Y-95511904D01*
X186793095Y-95607142D01*
X186745476Y-95654761D01*
X186650238Y-95702380D01*
X186364523Y-95702380D01*
X186269285Y-95654761D01*
X186221666Y-95607142D01*
X103171666Y-78402380D02*
X103171666Y-79116666D01*
X103124047Y-79259523D01*
X103028809Y-79354761D01*
X102885952Y-79402380D01*
X102790714Y-79402380D01*
X104171666Y-79402380D02*
X103600238Y-79402380D01*
X103885952Y-79402380D02*
X103885952Y-78402380D01*
X103790714Y-78545238D01*
X103695476Y-78640476D01*
X103600238Y-78688095D01*
X103171666Y-63162380D02*
X103171666Y-63876666D01*
X103124047Y-64019523D01*
X103028809Y-64114761D01*
X102885952Y-64162380D01*
X102790714Y-64162380D01*
X103600238Y-63257619D02*
X103647857Y-63210000D01*
X103743095Y-63162380D01*
X103981190Y-63162380D01*
X104076428Y-63210000D01*
X104124047Y-63257619D01*
X104171666Y-63352857D01*
X104171666Y-63448095D01*
X104124047Y-63590952D01*
X103552619Y-64162380D01*
X104171666Y-64162380D01*
X171751666Y-120312380D02*
X171751666Y-121026666D01*
X171704047Y-121169523D01*
X171608809Y-121264761D01*
X171465952Y-121312380D01*
X171370714Y-121312380D01*
X172132619Y-120312380D02*
X172751666Y-120312380D01*
X172418333Y-120693333D01*
X172561190Y-120693333D01*
X172656428Y-120740952D01*
X172704047Y-120788571D01*
X172751666Y-120883809D01*
X172751666Y-121121904D01*
X172704047Y-121217142D01*
X172656428Y-121264761D01*
X172561190Y-121312380D01*
X172275476Y-121312380D01*
X172180238Y-121264761D01*
X172132619Y-121217142D01*
X146351666Y-65702380D02*
X146351666Y-66416666D01*
X146304047Y-66559523D01*
X146208809Y-66654761D01*
X146065952Y-66702380D01*
X145970714Y-66702380D01*
X147304047Y-65702380D02*
X146827857Y-65702380D01*
X146780238Y-66178571D01*
X146827857Y-66130952D01*
X146923095Y-66083333D01*
X147161190Y-66083333D01*
X147256428Y-66130952D01*
X147304047Y-66178571D01*
X147351666Y-66273809D01*
X147351666Y-66511904D01*
X147304047Y-66607142D01*
X147256428Y-66654761D01*
X147161190Y-66702380D01*
X146923095Y-66702380D01*
X146827857Y-66654761D01*
X146780238Y-66607142D01*
X172882619Y-85185238D02*
X172835000Y-85280476D01*
X172739761Y-85375714D01*
X172596904Y-85518571D01*
X172549285Y-85613809D01*
X172549285Y-85709047D01*
X172787380Y-85661428D02*
X172739761Y-85756666D01*
X172644523Y-85851904D01*
X172454047Y-85899523D01*
X172120714Y-85899523D01*
X171930238Y-85851904D01*
X171835000Y-85756666D01*
X171787380Y-85661428D01*
X171787380Y-85470952D01*
X171835000Y-85375714D01*
X171930238Y-85280476D01*
X172120714Y-85232857D01*
X172454047Y-85232857D01*
X172644523Y-85280476D01*
X172739761Y-85375714D01*
X172787380Y-85470952D01*
X172787380Y-85661428D01*
X172787380Y-84280476D02*
X172787380Y-84851904D01*
X172787380Y-84566190D02*
X171787380Y-84566190D01*
X171930238Y-84661428D01*
X172025476Y-84756666D01*
X172073095Y-84851904D01*
X122542380Y-86526666D02*
X122066190Y-86860000D01*
X122542380Y-87098095D02*
X121542380Y-87098095D01*
X121542380Y-86717142D01*
X121590000Y-86621904D01*
X121637619Y-86574285D01*
X121732857Y-86526666D01*
X121875714Y-86526666D01*
X121970952Y-86574285D01*
X122018571Y-86621904D01*
X122066190Y-86717142D01*
X122066190Y-87098095D01*
X122542380Y-85574285D02*
X122542380Y-86145714D01*
X122542380Y-85860000D02*
X121542380Y-85860000D01*
X121685238Y-85955238D01*
X121780476Y-86050476D01*
X121828095Y-86145714D01*
X142692380Y-86526666D02*
X142216190Y-86860000D01*
X142692380Y-87098095D02*
X141692380Y-87098095D01*
X141692380Y-86717142D01*
X141740000Y-86621904D01*
X141787619Y-86574285D01*
X141882857Y-86526666D01*
X142025714Y-86526666D01*
X142120952Y-86574285D01*
X142168571Y-86621904D01*
X142216190Y-86717142D01*
X142216190Y-87098095D01*
X141787619Y-86145714D02*
X141740000Y-86098095D01*
X141692380Y-86002857D01*
X141692380Y-85764761D01*
X141740000Y-85669523D01*
X141787619Y-85621904D01*
X141882857Y-85574285D01*
X141978095Y-85574285D01*
X142120952Y-85621904D01*
X142692380Y-86193333D01*
X142692380Y-85574285D01*
X193508333Y-82367380D02*
X193175000Y-81891190D01*
X192936904Y-82367380D02*
X192936904Y-81367380D01*
X193317857Y-81367380D01*
X193413095Y-81415000D01*
X193460714Y-81462619D01*
X193508333Y-81557857D01*
X193508333Y-81700714D01*
X193460714Y-81795952D01*
X193413095Y-81843571D01*
X193317857Y-81891190D01*
X192936904Y-81891190D01*
X193841666Y-81367380D02*
X194460714Y-81367380D01*
X194127380Y-81748333D01*
X194270238Y-81748333D01*
X194365476Y-81795952D01*
X194413095Y-81843571D01*
X194460714Y-81938809D01*
X194460714Y-82176904D01*
X194413095Y-82272142D01*
X194365476Y-82319761D01*
X194270238Y-82367380D01*
X193984523Y-82367380D01*
X193889285Y-82319761D01*
X193841666Y-82272142D01*
X168108333Y-69032380D02*
X167775000Y-68556190D01*
X167536904Y-69032380D02*
X167536904Y-68032380D01*
X167917857Y-68032380D01*
X168013095Y-68080000D01*
X168060714Y-68127619D01*
X168108333Y-68222857D01*
X168108333Y-68365714D01*
X168060714Y-68460952D01*
X168013095Y-68508571D01*
X167917857Y-68556190D01*
X167536904Y-68556190D01*
X168965476Y-68365714D02*
X168965476Y-69032380D01*
X168727380Y-67984761D02*
X168489285Y-68699047D01*
X169108333Y-68699047D01*
X168108333Y-76652380D02*
X167775000Y-76176190D01*
X167536904Y-76652380D02*
X167536904Y-75652380D01*
X167917857Y-75652380D01*
X168013095Y-75700000D01*
X168060714Y-75747619D01*
X168108333Y-75842857D01*
X168108333Y-75985714D01*
X168060714Y-76080952D01*
X168013095Y-76128571D01*
X167917857Y-76176190D01*
X167536904Y-76176190D01*
X169013095Y-75652380D02*
X168536904Y-75652380D01*
X168489285Y-76128571D01*
X168536904Y-76080952D01*
X168632142Y-76033333D01*
X168870238Y-76033333D01*
X168965476Y-76080952D01*
X169013095Y-76128571D01*
X169060714Y-76223809D01*
X169060714Y-76461904D01*
X169013095Y-76557142D01*
X168965476Y-76604761D01*
X168870238Y-76652380D01*
X168632142Y-76652380D01*
X168536904Y-76604761D01*
X168489285Y-76557142D01*
X193508333Y-88717380D02*
X193175000Y-88241190D01*
X192936904Y-88717380D02*
X192936904Y-87717380D01*
X193317857Y-87717380D01*
X193413095Y-87765000D01*
X193460714Y-87812619D01*
X193508333Y-87907857D01*
X193508333Y-88050714D01*
X193460714Y-88145952D01*
X193413095Y-88193571D01*
X193317857Y-88241190D01*
X192936904Y-88241190D01*
X194365476Y-87717380D02*
X194175000Y-87717380D01*
X194079761Y-87765000D01*
X194032142Y-87812619D01*
X193936904Y-87955476D01*
X193889285Y-88145952D01*
X193889285Y-88526904D01*
X193936904Y-88622142D01*
X193984523Y-88669761D01*
X194079761Y-88717380D01*
X194270238Y-88717380D01*
X194365476Y-88669761D01*
X194413095Y-88622142D01*
X194460714Y-88526904D01*
X194460714Y-88288809D01*
X194413095Y-88193571D01*
X194365476Y-88145952D01*
X194270238Y-88098333D01*
X194079761Y-88098333D01*
X193984523Y-88145952D01*
X193936904Y-88193571D01*
X193889285Y-88288809D01*
X193508333Y-85542380D02*
X193175000Y-85066190D01*
X192936904Y-85542380D02*
X192936904Y-84542380D01*
X193317857Y-84542380D01*
X193413095Y-84590000D01*
X193460714Y-84637619D01*
X193508333Y-84732857D01*
X193508333Y-84875714D01*
X193460714Y-84970952D01*
X193413095Y-85018571D01*
X193317857Y-85066190D01*
X192936904Y-85066190D01*
X193841666Y-84542380D02*
X194508333Y-84542380D01*
X194079761Y-85542380D01*
X113977380Y-118800476D02*
X113501190Y-119133809D01*
X113977380Y-119371904D02*
X112977380Y-119371904D01*
X112977380Y-118990952D01*
X113025000Y-118895714D01*
X113072619Y-118848095D01*
X113167857Y-118800476D01*
X113310714Y-118800476D01*
X113405952Y-118848095D01*
X113453571Y-118895714D01*
X113501190Y-118990952D01*
X113501190Y-119371904D01*
X113977380Y-118371904D02*
X112977380Y-118371904D01*
X113977380Y-117800476D01*
X112977380Y-117800476D01*
X113977380Y-116800476D02*
X113977380Y-117371904D01*
X113977380Y-117086190D02*
X112977380Y-117086190D01*
X113120238Y-117181428D01*
X113215476Y-117276666D01*
X113263095Y-117371904D01*
X121582380Y-73151904D02*
X122391904Y-73151904D01*
X122487142Y-73104285D01*
X122534761Y-73056666D01*
X122582380Y-72961428D01*
X122582380Y-72770952D01*
X122534761Y-72675714D01*
X122487142Y-72628095D01*
X122391904Y-72580476D01*
X121582380Y-72580476D01*
X122582380Y-71580476D02*
X122582380Y-72151904D01*
X122582380Y-71866190D02*
X121582380Y-71866190D01*
X121725238Y-71961428D01*
X121820476Y-72056666D01*
X121868095Y-72151904D01*
X149947380Y-89661904D02*
X150756904Y-89661904D01*
X150852142Y-89614285D01*
X150899761Y-89566666D01*
X150947380Y-89471428D01*
X150947380Y-89280952D01*
X150899761Y-89185714D01*
X150852142Y-89138095D01*
X150756904Y-89090476D01*
X149947380Y-89090476D01*
X150042619Y-88661904D02*
X149995000Y-88614285D01*
X149947380Y-88519047D01*
X149947380Y-88280952D01*
X149995000Y-88185714D01*
X150042619Y-88138095D01*
X150137857Y-88090476D01*
X150233095Y-88090476D01*
X150375952Y-88138095D01*
X150947380Y-88709523D01*
X150947380Y-88090476D01*
X131603809Y-92051190D02*
X131603809Y-92527380D01*
X131270476Y-91527380D02*
X131603809Y-92051190D01*
X131937142Y-91527380D01*
X132794285Y-92527380D02*
X132222857Y-92527380D01*
X132508571Y-92527380D02*
X132508571Y-91527380D01*
X132413333Y-91670238D01*
X132318095Y-91765476D01*
X132222857Y-91813095D01*
M02*
