G04 #@! TF.GenerationSoftware,KiCad,Pcbnew,(5.1.4)-1*
G04 #@! TF.CreationDate,2021-06-26T17:24:00+03:00*
G04 #@! TF.ProjectId,CPU,4350552e-6b69-4636-9164-5f7063625858,rev?*
G04 #@! TF.SameCoordinates,Original*
G04 #@! TF.FileFunction,Legend,Top*
G04 #@! TF.FilePolarity,Positive*
%FSLAX46Y46*%
G04 Gerber Fmt 4.6, Leading zero omitted, Abs format (unit mm)*
G04 Created by KiCad (PCBNEW (5.1.4)-1) date 2021-06-26 17:24:00*
%MOMM*%
%LPD*%
G04 APERTURE LIST*
%ADD10C,0.150000*%
%ADD11C,0.120000*%
G04 APERTURE END LIST*
D10*
X123532380Y-95592380D02*
X124199047Y-95592380D01*
X123532380Y-96592380D01*
X124199047Y-96592380D01*
X124722857Y-96020952D02*
X124627619Y-95973333D01*
X124580000Y-95925714D01*
X124532380Y-95830476D01*
X124532380Y-95782857D01*
X124580000Y-95687619D01*
X124627619Y-95640000D01*
X124722857Y-95592380D01*
X124913333Y-95592380D01*
X125008571Y-95640000D01*
X125056190Y-95687619D01*
X125103809Y-95782857D01*
X125103809Y-95830476D01*
X125056190Y-95925714D01*
X125008571Y-95973333D01*
X124913333Y-96020952D01*
X124722857Y-96020952D01*
X124627619Y-96068571D01*
X124580000Y-96116190D01*
X124532380Y-96211428D01*
X124532380Y-96401904D01*
X124580000Y-96497142D01*
X124627619Y-96544761D01*
X124722857Y-96592380D01*
X124913333Y-96592380D01*
X125008571Y-96544761D01*
X125056190Y-96497142D01*
X125103809Y-96401904D01*
X125103809Y-96211428D01*
X125056190Y-96116190D01*
X125008571Y-96068571D01*
X124913333Y-96020952D01*
X125722857Y-95592380D02*
X125818095Y-95592380D01*
X125913333Y-95640000D01*
X125960952Y-95687619D01*
X126008571Y-95782857D01*
X126056190Y-95973333D01*
X126056190Y-96211428D01*
X126008571Y-96401904D01*
X125960952Y-96497142D01*
X125913333Y-96544761D01*
X125818095Y-96592380D01*
X125722857Y-96592380D01*
X125627619Y-96544761D01*
X125580000Y-96497142D01*
X125532380Y-96401904D01*
X125484761Y-96211428D01*
X125484761Y-95973333D01*
X125532380Y-95782857D01*
X125580000Y-95687619D01*
X125627619Y-95640000D01*
X125722857Y-95592380D01*
X127246666Y-96592380D02*
X127246666Y-95592380D01*
X127580000Y-96306666D01*
X127913333Y-95592380D01*
X127913333Y-96592380D01*
X128532380Y-96592380D02*
X128437142Y-96544761D01*
X128389523Y-96497142D01*
X128341904Y-96401904D01*
X128341904Y-96116190D01*
X128389523Y-96020952D01*
X128437142Y-95973333D01*
X128532380Y-95925714D01*
X128675238Y-95925714D01*
X128770476Y-95973333D01*
X128818095Y-96020952D01*
X128865714Y-96116190D01*
X128865714Y-96401904D01*
X128818095Y-96497142D01*
X128770476Y-96544761D01*
X128675238Y-96592380D01*
X128532380Y-96592380D01*
X129722857Y-96592380D02*
X129722857Y-95592380D01*
X129722857Y-96544761D02*
X129627619Y-96592380D01*
X129437142Y-96592380D01*
X129341904Y-96544761D01*
X129294285Y-96497142D01*
X129246666Y-96401904D01*
X129246666Y-96116190D01*
X129294285Y-96020952D01*
X129341904Y-95973333D01*
X129437142Y-95925714D01*
X129627619Y-95925714D01*
X129722857Y-95973333D01*
X130627619Y-95925714D02*
X130627619Y-96592380D01*
X130199047Y-95925714D02*
X130199047Y-96449523D01*
X130246666Y-96544761D01*
X130341904Y-96592380D01*
X130484761Y-96592380D01*
X130580000Y-96544761D01*
X130627619Y-96497142D01*
X131246666Y-96592380D02*
X131151428Y-96544761D01*
X131103809Y-96449523D01*
X131103809Y-95592380D01*
X132056190Y-96592380D02*
X132056190Y-96068571D01*
X132008571Y-95973333D01*
X131913333Y-95925714D01*
X131722857Y-95925714D01*
X131627619Y-95973333D01*
X132056190Y-96544761D02*
X131960952Y-96592380D01*
X131722857Y-96592380D01*
X131627619Y-96544761D01*
X131580000Y-96449523D01*
X131580000Y-96354285D01*
X131627619Y-96259047D01*
X131722857Y-96211428D01*
X131960952Y-96211428D01*
X132056190Y-96163809D01*
X132532380Y-96592380D02*
X132532380Y-95925714D01*
X132532380Y-96116190D02*
X132580000Y-96020952D01*
X132627619Y-95973333D01*
X132722857Y-95925714D01*
X132818095Y-95925714D01*
X134484761Y-96497142D02*
X134437142Y-96544761D01*
X134294285Y-96592380D01*
X134199047Y-96592380D01*
X134056190Y-96544761D01*
X133960952Y-96449523D01*
X133913333Y-96354285D01*
X133865714Y-96163809D01*
X133865714Y-96020952D01*
X133913333Y-95830476D01*
X133960952Y-95735238D01*
X134056190Y-95640000D01*
X134199047Y-95592380D01*
X134294285Y-95592380D01*
X134437142Y-95640000D01*
X134484761Y-95687619D01*
X135056190Y-96592380D02*
X134960952Y-96544761D01*
X134913333Y-96497142D01*
X134865714Y-96401904D01*
X134865714Y-96116190D01*
X134913333Y-96020952D01*
X134960952Y-95973333D01*
X135056190Y-95925714D01*
X135199047Y-95925714D01*
X135294285Y-95973333D01*
X135341904Y-96020952D01*
X135389523Y-96116190D01*
X135389523Y-96401904D01*
X135341904Y-96497142D01*
X135294285Y-96544761D01*
X135199047Y-96592380D01*
X135056190Y-96592380D01*
X135818095Y-96592380D02*
X135818095Y-95925714D01*
X135818095Y-96020952D02*
X135865714Y-95973333D01*
X135960952Y-95925714D01*
X136103809Y-95925714D01*
X136199047Y-95973333D01*
X136246666Y-96068571D01*
X136246666Y-96592380D01*
X136246666Y-96068571D02*
X136294285Y-95973333D01*
X136389523Y-95925714D01*
X136532380Y-95925714D01*
X136627619Y-95973333D01*
X136675238Y-96068571D01*
X136675238Y-96592380D01*
X137151428Y-95925714D02*
X137151428Y-96925714D01*
X137151428Y-95973333D02*
X137246666Y-95925714D01*
X137437142Y-95925714D01*
X137532380Y-95973333D01*
X137580000Y-96020952D01*
X137627619Y-96116190D01*
X137627619Y-96401904D01*
X137580000Y-96497142D01*
X137532380Y-96544761D01*
X137437142Y-96592380D01*
X137246666Y-96592380D01*
X137151428Y-96544761D01*
X138484761Y-95925714D02*
X138484761Y-96592380D01*
X138056190Y-95925714D02*
X138056190Y-96449523D01*
X138103809Y-96544761D01*
X138199047Y-96592380D01*
X138341904Y-96592380D01*
X138437142Y-96544761D01*
X138484761Y-96497142D01*
X138818095Y-95925714D02*
X139199047Y-95925714D01*
X138960952Y-95592380D02*
X138960952Y-96449523D01*
X139008571Y-96544761D01*
X139103809Y-96592380D01*
X139199047Y-96592380D01*
X139913333Y-96544761D02*
X139818095Y-96592380D01*
X139627619Y-96592380D01*
X139532380Y-96544761D01*
X139484761Y-96449523D01*
X139484761Y-96068571D01*
X139532380Y-95973333D01*
X139627619Y-95925714D01*
X139818095Y-95925714D01*
X139913333Y-95973333D01*
X139960952Y-96068571D01*
X139960952Y-96163809D01*
X139484761Y-96259047D01*
X140389523Y-96592380D02*
X140389523Y-95925714D01*
X140389523Y-96116190D02*
X140437142Y-96020952D01*
X140484761Y-95973333D01*
X140580000Y-95925714D01*
X140675238Y-95925714D01*
X124651428Y-98147142D02*
X124603809Y-98194761D01*
X124460952Y-98242380D01*
X124365714Y-98242380D01*
X124222857Y-98194761D01*
X124127619Y-98099523D01*
X124080000Y-98004285D01*
X124032380Y-97813809D01*
X124032380Y-97670952D01*
X124080000Y-97480476D01*
X124127619Y-97385238D01*
X124222857Y-97290000D01*
X124365714Y-97242380D01*
X124460952Y-97242380D01*
X124603809Y-97290000D01*
X124651428Y-97337619D01*
X125080000Y-98242380D02*
X125080000Y-97242380D01*
X125460952Y-97242380D01*
X125556190Y-97290000D01*
X125603809Y-97337619D01*
X125651428Y-97432857D01*
X125651428Y-97575714D01*
X125603809Y-97670952D01*
X125556190Y-97718571D01*
X125460952Y-97766190D01*
X125080000Y-97766190D01*
X126080000Y-97242380D02*
X126080000Y-98051904D01*
X126127619Y-98147142D01*
X126175238Y-98194761D01*
X126270476Y-98242380D01*
X126460952Y-98242380D01*
X126556190Y-98194761D01*
X126603809Y-98147142D01*
X126651428Y-98051904D01*
X126651428Y-97242380D01*
X128460952Y-98147142D02*
X128413333Y-98194761D01*
X128270476Y-98242380D01*
X128175238Y-98242380D01*
X128032380Y-98194761D01*
X127937142Y-98099523D01*
X127889523Y-98004285D01*
X127841904Y-97813809D01*
X127841904Y-97670952D01*
X127889523Y-97480476D01*
X127937142Y-97385238D01*
X128032380Y-97290000D01*
X128175238Y-97242380D01*
X128270476Y-97242380D01*
X128413333Y-97290000D01*
X128460952Y-97337619D01*
X129318095Y-98242380D02*
X129318095Y-97718571D01*
X129270476Y-97623333D01*
X129175238Y-97575714D01*
X128984761Y-97575714D01*
X128889523Y-97623333D01*
X129318095Y-98194761D02*
X129222857Y-98242380D01*
X128984761Y-98242380D01*
X128889523Y-98194761D01*
X128841904Y-98099523D01*
X128841904Y-98004285D01*
X128889523Y-97909047D01*
X128984761Y-97861428D01*
X129222857Y-97861428D01*
X129318095Y-97813809D01*
X129794285Y-98242380D02*
X129794285Y-97575714D01*
X129794285Y-97766190D02*
X129841904Y-97670952D01*
X129889523Y-97623333D01*
X129984761Y-97575714D01*
X130080000Y-97575714D01*
X130841904Y-98242380D02*
X130841904Y-97242380D01*
X130841904Y-98194761D02*
X130746666Y-98242380D01*
X130556190Y-98242380D01*
X130460952Y-98194761D01*
X130413333Y-98147142D01*
X130365714Y-98051904D01*
X130365714Y-97766190D01*
X130413333Y-97670952D01*
X130460952Y-97623333D01*
X130556190Y-97575714D01*
X130746666Y-97575714D01*
X130841904Y-97623333D01*
X131984761Y-97575714D02*
X132222857Y-98242380D01*
X132460952Y-97575714D01*
X133222857Y-98194761D02*
X133127619Y-98242380D01*
X132937142Y-98242380D01*
X132841904Y-98194761D01*
X132794285Y-98099523D01*
X132794285Y-97718571D01*
X132841904Y-97623333D01*
X132937142Y-97575714D01*
X133127619Y-97575714D01*
X133222857Y-97623333D01*
X133270476Y-97718571D01*
X133270476Y-97813809D01*
X132794285Y-97909047D01*
X133699047Y-98242380D02*
X133699047Y-97575714D01*
X133699047Y-97766190D02*
X133746666Y-97670952D01*
X133794285Y-97623333D01*
X133889523Y-97575714D01*
X133984761Y-97575714D01*
X134270476Y-98194761D02*
X134365714Y-98242380D01*
X134556190Y-98242380D01*
X134651428Y-98194761D01*
X134699047Y-98099523D01*
X134699047Y-98051904D01*
X134651428Y-97956666D01*
X134556190Y-97909047D01*
X134413333Y-97909047D01*
X134318095Y-97861428D01*
X134270476Y-97766190D01*
X134270476Y-97718571D01*
X134318095Y-97623333D01*
X134413333Y-97575714D01*
X134556190Y-97575714D01*
X134651428Y-97623333D01*
X135127619Y-98242380D02*
X135127619Y-97575714D01*
X135127619Y-97242380D02*
X135080000Y-97290000D01*
X135127619Y-97337619D01*
X135175238Y-97290000D01*
X135127619Y-97242380D01*
X135127619Y-97337619D01*
X135746666Y-98242380D02*
X135651428Y-98194761D01*
X135603809Y-98147142D01*
X135556190Y-98051904D01*
X135556190Y-97766190D01*
X135603809Y-97670952D01*
X135651428Y-97623333D01*
X135746666Y-97575714D01*
X135889523Y-97575714D01*
X135984761Y-97623333D01*
X136032380Y-97670952D01*
X136080000Y-97766190D01*
X136080000Y-98051904D01*
X136032380Y-98147142D01*
X135984761Y-98194761D01*
X135889523Y-98242380D01*
X135746666Y-98242380D01*
X136508571Y-97575714D02*
X136508571Y-98242380D01*
X136508571Y-97670952D02*
X136556190Y-97623333D01*
X136651428Y-97575714D01*
X136794285Y-97575714D01*
X136889523Y-97623333D01*
X136937142Y-97718571D01*
X136937142Y-98242380D01*
X138699047Y-98242380D02*
X138127619Y-98242380D01*
X138413333Y-98242380D02*
X138413333Y-97242380D01*
X138318095Y-97385238D01*
X138222857Y-97480476D01*
X138127619Y-97528095D01*
X139127619Y-98147142D02*
X139175238Y-98194761D01*
X139127619Y-98242380D01*
X139080000Y-98194761D01*
X139127619Y-98147142D01*
X139127619Y-98242380D01*
X139794285Y-97242380D02*
X139889523Y-97242380D01*
X139984761Y-97290000D01*
X140032380Y-97337619D01*
X140080000Y-97432857D01*
X140127619Y-97623333D01*
X140127619Y-97861428D01*
X140080000Y-98051904D01*
X140032380Y-98147142D01*
X139984761Y-98194761D01*
X139889523Y-98242380D01*
X139794285Y-98242380D01*
X139699047Y-98194761D01*
X139651428Y-98147142D01*
X139603809Y-98051904D01*
X139556190Y-97861428D01*
X139556190Y-97623333D01*
X139603809Y-97432857D01*
X139651428Y-97337619D01*
X139699047Y-97290000D01*
X139794285Y-97242380D01*
X121008571Y-99892380D02*
X121008571Y-98892380D01*
X121246666Y-98892380D01*
X121389523Y-98940000D01*
X121484761Y-99035238D01*
X121532380Y-99130476D01*
X121580000Y-99320952D01*
X121580000Y-99463809D01*
X121532380Y-99654285D01*
X121484761Y-99749523D01*
X121389523Y-99844761D01*
X121246666Y-99892380D01*
X121008571Y-99892380D01*
X122389523Y-99844761D02*
X122294285Y-99892380D01*
X122103809Y-99892380D01*
X122008571Y-99844761D01*
X121960952Y-99749523D01*
X121960952Y-99368571D01*
X122008571Y-99273333D01*
X122103809Y-99225714D01*
X122294285Y-99225714D01*
X122389523Y-99273333D01*
X122437142Y-99368571D01*
X122437142Y-99463809D01*
X121960952Y-99559047D01*
X122818095Y-99844761D02*
X122913333Y-99892380D01*
X123103809Y-99892380D01*
X123199047Y-99844761D01*
X123246666Y-99749523D01*
X123246666Y-99701904D01*
X123199047Y-99606666D01*
X123103809Y-99559047D01*
X122960952Y-99559047D01*
X122865714Y-99511428D01*
X122818095Y-99416190D01*
X122818095Y-99368571D01*
X122865714Y-99273333D01*
X122960952Y-99225714D01*
X123103809Y-99225714D01*
X123199047Y-99273333D01*
X123675238Y-99892380D02*
X123675238Y-99225714D01*
X123675238Y-98892380D02*
X123627619Y-98940000D01*
X123675238Y-98987619D01*
X123722857Y-98940000D01*
X123675238Y-98892380D01*
X123675238Y-98987619D01*
X124580000Y-99225714D02*
X124580000Y-100035238D01*
X124532380Y-100130476D01*
X124484761Y-100178095D01*
X124389523Y-100225714D01*
X124246666Y-100225714D01*
X124151428Y-100178095D01*
X124580000Y-99844761D02*
X124484761Y-99892380D01*
X124294285Y-99892380D01*
X124199047Y-99844761D01*
X124151428Y-99797142D01*
X124103809Y-99701904D01*
X124103809Y-99416190D01*
X124151428Y-99320952D01*
X124199047Y-99273333D01*
X124294285Y-99225714D01*
X124484761Y-99225714D01*
X124580000Y-99273333D01*
X125056190Y-99225714D02*
X125056190Y-99892380D01*
X125056190Y-99320952D02*
X125103809Y-99273333D01*
X125199047Y-99225714D01*
X125341904Y-99225714D01*
X125437142Y-99273333D01*
X125484761Y-99368571D01*
X125484761Y-99892380D01*
X126722857Y-99892380D02*
X126722857Y-98892380D01*
X126722857Y-99273333D02*
X126818095Y-99225714D01*
X127008571Y-99225714D01*
X127103809Y-99273333D01*
X127151428Y-99320952D01*
X127199047Y-99416190D01*
X127199047Y-99701904D01*
X127151428Y-99797142D01*
X127103809Y-99844761D01*
X127008571Y-99892380D01*
X126818095Y-99892380D01*
X126722857Y-99844761D01*
X127532380Y-99225714D02*
X127770476Y-99892380D01*
X128008571Y-99225714D02*
X127770476Y-99892380D01*
X127675238Y-100130476D01*
X127627619Y-100178095D01*
X127532380Y-100225714D01*
X129151428Y-99892380D02*
X129151428Y-98892380D01*
X129722857Y-99892380D02*
X129294285Y-99320952D01*
X129722857Y-98892380D02*
X129151428Y-99463809D01*
X130580000Y-99892380D02*
X130580000Y-99368571D01*
X130532380Y-99273333D01*
X130437142Y-99225714D01*
X130246666Y-99225714D01*
X130151428Y-99273333D01*
X130580000Y-99844761D02*
X130484761Y-99892380D01*
X130246666Y-99892380D01*
X130151428Y-99844761D01*
X130103809Y-99749523D01*
X130103809Y-99654285D01*
X130151428Y-99559047D01*
X130246666Y-99511428D01*
X130484761Y-99511428D01*
X130580000Y-99463809D01*
X131199047Y-99892380D02*
X131103809Y-99844761D01*
X131056190Y-99749523D01*
X131056190Y-98892380D01*
X131437142Y-99225714D02*
X131818095Y-99225714D01*
X131580000Y-98892380D02*
X131580000Y-99749523D01*
X131627619Y-99844761D01*
X131722857Y-99892380D01*
X131818095Y-99892380D01*
X132580000Y-99844761D02*
X132484761Y-99892380D01*
X132294285Y-99892380D01*
X132199047Y-99844761D01*
X132151428Y-99797142D01*
X132103809Y-99701904D01*
X132103809Y-99416190D01*
X132151428Y-99320952D01*
X132199047Y-99273333D01*
X132294285Y-99225714D01*
X132484761Y-99225714D01*
X132580000Y-99273333D01*
X133008571Y-99892380D02*
X133008571Y-98892380D01*
X133437142Y-99892380D02*
X133437142Y-99368571D01*
X133389523Y-99273333D01*
X133294285Y-99225714D01*
X133151428Y-99225714D01*
X133056190Y-99273333D01*
X133008571Y-99320952D01*
X134341904Y-99225714D02*
X134341904Y-99892380D01*
X133913333Y-99225714D02*
X133913333Y-99749523D01*
X133960952Y-99844761D01*
X134056190Y-99892380D01*
X134199047Y-99892380D01*
X134294285Y-99844761D01*
X134341904Y-99797142D01*
X134818095Y-99892380D02*
X134818095Y-98892380D01*
X134913333Y-99511428D02*
X135199047Y-99892380D01*
X135199047Y-99225714D02*
X134818095Y-99606666D01*
X135675238Y-99844761D02*
X135675238Y-99892380D01*
X135627619Y-99987619D01*
X135580000Y-100035238D01*
X137056190Y-98892380D02*
X137151428Y-98892380D01*
X137246666Y-98940000D01*
X137294285Y-98987619D01*
X137341904Y-99082857D01*
X137389523Y-99273333D01*
X137389523Y-99511428D01*
X137341904Y-99701904D01*
X137294285Y-99797142D01*
X137246666Y-99844761D01*
X137151428Y-99892380D01*
X137056190Y-99892380D01*
X136960952Y-99844761D01*
X136913333Y-99797142D01*
X136865714Y-99701904D01*
X136818095Y-99511428D01*
X136818095Y-99273333D01*
X136865714Y-99082857D01*
X136913333Y-98987619D01*
X136960952Y-98940000D01*
X137056190Y-98892380D01*
X138246666Y-98892380D02*
X138056190Y-98892380D01*
X137960952Y-98940000D01*
X137913333Y-98987619D01*
X137818095Y-99130476D01*
X137770476Y-99320952D01*
X137770476Y-99701904D01*
X137818095Y-99797142D01*
X137865714Y-99844761D01*
X137960952Y-99892380D01*
X138151428Y-99892380D01*
X138246666Y-99844761D01*
X138294285Y-99797142D01*
X138341904Y-99701904D01*
X138341904Y-99463809D01*
X138294285Y-99368571D01*
X138246666Y-99320952D01*
X138151428Y-99273333D01*
X137960952Y-99273333D01*
X137865714Y-99320952D01*
X137818095Y-99368571D01*
X137770476Y-99463809D01*
X139484761Y-98844761D02*
X138627619Y-100130476D01*
X139770476Y-98987619D02*
X139818095Y-98940000D01*
X139913333Y-98892380D01*
X140151428Y-98892380D01*
X140246666Y-98940000D01*
X140294285Y-98987619D01*
X140341904Y-99082857D01*
X140341904Y-99178095D01*
X140294285Y-99320952D01*
X139722857Y-99892380D01*
X140341904Y-99892380D01*
X140960952Y-98892380D02*
X141056190Y-98892380D01*
X141151428Y-98940000D01*
X141199047Y-98987619D01*
X141246666Y-99082857D01*
X141294285Y-99273333D01*
X141294285Y-99511428D01*
X141246666Y-99701904D01*
X141199047Y-99797142D01*
X141151428Y-99844761D01*
X141056190Y-99892380D01*
X140960952Y-99892380D01*
X140865714Y-99844761D01*
X140818095Y-99797142D01*
X140770476Y-99701904D01*
X140722857Y-99511428D01*
X140722857Y-99273333D01*
X140770476Y-99082857D01*
X140818095Y-98987619D01*
X140865714Y-98940000D01*
X140960952Y-98892380D01*
X141675238Y-98987619D02*
X141722857Y-98940000D01*
X141818095Y-98892380D01*
X142056190Y-98892380D01*
X142151428Y-98940000D01*
X142199047Y-98987619D01*
X142246666Y-99082857D01*
X142246666Y-99178095D01*
X142199047Y-99320952D01*
X141627619Y-99892380D01*
X142246666Y-99892380D01*
X143199047Y-99892380D02*
X142627619Y-99892380D01*
X142913333Y-99892380D02*
X142913333Y-98892380D01*
X142818095Y-99035238D01*
X142722857Y-99130476D01*
X142627619Y-99178095D01*
D11*
X189170000Y-116145000D02*
X190500000Y-116145000D01*
X189170000Y-117475000D02*
X189170000Y-116145000D01*
X191770000Y-116145000D02*
X194370000Y-116145000D01*
X191770000Y-118745000D02*
X191770000Y-116145000D01*
X189170000Y-118745000D02*
X191770000Y-118745000D01*
X194370000Y-116145000D02*
X194370000Y-121345000D01*
X189170000Y-118745000D02*
X189170000Y-121345000D01*
X189170000Y-121345000D02*
X194370000Y-121345000D01*
X144010000Y-126850000D02*
X148050000Y-126850000D01*
X144010000Y-129690000D02*
X148050000Y-129690000D01*
X144010000Y-126850000D02*
X144010000Y-127475000D01*
X144010000Y-129065000D02*
X144010000Y-129690000D01*
X148050000Y-126850000D02*
X148050000Y-127475000D01*
X148050000Y-129065000D02*
X148050000Y-129690000D01*
X115450000Y-106510000D02*
X115450000Y-124630000D01*
X166490000Y-106510000D02*
X115450000Y-106510000D01*
X166490000Y-124630000D02*
X166490000Y-106510000D01*
X115450000Y-124630000D02*
X166490000Y-124630000D01*
X115510000Y-109510000D02*
X115510000Y-114570000D01*
X166430000Y-109510000D02*
X115510000Y-109510000D01*
X166430000Y-121630000D02*
X166430000Y-109510000D01*
X115510000Y-121630000D02*
X166430000Y-121630000D01*
X115510000Y-116570000D02*
X115510000Y-121630000D01*
X115510000Y-114570000D02*
G75*
G02X115510000Y-116570000I0J-1000000D01*
G01*
X116745000Y-67785000D02*
X116745000Y-67160000D01*
X116745000Y-70000000D02*
X116745000Y-69375000D01*
X120785000Y-67785000D02*
X120785000Y-67160000D01*
X120785000Y-70000000D02*
X120785000Y-69375000D01*
X120785000Y-67160000D02*
X116745000Y-67160000D01*
X120785000Y-70000000D02*
X116745000Y-70000000D01*
X150645000Y-83050000D02*
X150645000Y-87090000D01*
X147805000Y-83050000D02*
X147805000Y-87090000D01*
X150645000Y-83050000D02*
X150020000Y-83050000D01*
X148430000Y-83050000D02*
X147805000Y-83050000D01*
X150645000Y-87090000D02*
X150020000Y-87090000D01*
X148430000Y-87090000D02*
X147805000Y-87090000D01*
X109400000Y-71154775D02*
X109900000Y-71154775D01*
X109650000Y-71404775D02*
X109650000Y-70904775D01*
X110841000Y-65999000D02*
X111409000Y-65999000D01*
X110607000Y-66039000D02*
X111643000Y-66039000D01*
X110448000Y-66079000D02*
X111802000Y-66079000D01*
X110320000Y-66119000D02*
X111930000Y-66119000D01*
X110210000Y-66159000D02*
X112040000Y-66159000D01*
X110114000Y-66199000D02*
X112136000Y-66199000D01*
X110027000Y-66239000D02*
X112223000Y-66239000D01*
X109947000Y-66279000D02*
X112303000Y-66279000D01*
X112165000Y-66319000D02*
X112376000Y-66319000D01*
X109874000Y-66319000D02*
X110085000Y-66319000D01*
X112165000Y-66359000D02*
X112444000Y-66359000D01*
X109806000Y-66359000D02*
X110085000Y-66359000D01*
X112165000Y-66399000D02*
X112508000Y-66399000D01*
X109742000Y-66399000D02*
X110085000Y-66399000D01*
X112165000Y-66439000D02*
X112568000Y-66439000D01*
X109682000Y-66439000D02*
X110085000Y-66439000D01*
X112165000Y-66479000D02*
X112625000Y-66479000D01*
X109625000Y-66479000D02*
X110085000Y-66479000D01*
X112165000Y-66519000D02*
X112679000Y-66519000D01*
X109571000Y-66519000D02*
X110085000Y-66519000D01*
X112165000Y-66559000D02*
X112730000Y-66559000D01*
X109520000Y-66559000D02*
X110085000Y-66559000D01*
X112165000Y-66599000D02*
X112778000Y-66599000D01*
X109472000Y-66599000D02*
X110085000Y-66599000D01*
X112165000Y-66639000D02*
X112824000Y-66639000D01*
X109426000Y-66639000D02*
X110085000Y-66639000D01*
X112165000Y-66679000D02*
X112868000Y-66679000D01*
X109382000Y-66679000D02*
X110085000Y-66679000D01*
X112165000Y-66719000D02*
X112910000Y-66719000D01*
X109340000Y-66719000D02*
X110085000Y-66719000D01*
X112165000Y-66759000D02*
X112951000Y-66759000D01*
X109299000Y-66759000D02*
X110085000Y-66759000D01*
X112165000Y-66799000D02*
X112989000Y-66799000D01*
X109261000Y-66799000D02*
X110085000Y-66799000D01*
X112165000Y-66839000D02*
X113026000Y-66839000D01*
X109224000Y-66839000D02*
X110085000Y-66839000D01*
X112165000Y-66879000D02*
X113062000Y-66879000D01*
X109188000Y-66879000D02*
X110085000Y-66879000D01*
X112165000Y-66919000D02*
X113096000Y-66919000D01*
X109154000Y-66919000D02*
X110085000Y-66919000D01*
X112165000Y-66959000D02*
X113129000Y-66959000D01*
X109121000Y-66959000D02*
X110085000Y-66959000D01*
X112165000Y-66999000D02*
X113160000Y-66999000D01*
X109090000Y-66999000D02*
X110085000Y-66999000D01*
X112165000Y-67039000D02*
X113190000Y-67039000D01*
X109060000Y-67039000D02*
X110085000Y-67039000D01*
X112165000Y-67079000D02*
X113220000Y-67079000D01*
X109030000Y-67079000D02*
X110085000Y-67079000D01*
X112165000Y-67119000D02*
X113247000Y-67119000D01*
X109003000Y-67119000D02*
X110085000Y-67119000D01*
X112165000Y-67159000D02*
X113274000Y-67159000D01*
X108976000Y-67159000D02*
X110085000Y-67159000D01*
X112165000Y-67199000D02*
X113300000Y-67199000D01*
X108950000Y-67199000D02*
X110085000Y-67199000D01*
X112165000Y-67239000D02*
X113325000Y-67239000D01*
X108925000Y-67239000D02*
X110085000Y-67239000D01*
X112165000Y-67279000D02*
X113349000Y-67279000D01*
X108901000Y-67279000D02*
X110085000Y-67279000D01*
X112165000Y-67319000D02*
X113372000Y-67319000D01*
X108878000Y-67319000D02*
X110085000Y-67319000D01*
X112165000Y-67359000D02*
X113393000Y-67359000D01*
X108857000Y-67359000D02*
X110085000Y-67359000D01*
X112165000Y-67399000D02*
X113415000Y-67399000D01*
X108835000Y-67399000D02*
X110085000Y-67399000D01*
X112165000Y-67439000D02*
X113435000Y-67439000D01*
X108815000Y-67439000D02*
X110085000Y-67439000D01*
X112165000Y-67479000D02*
X113454000Y-67479000D01*
X108796000Y-67479000D02*
X110085000Y-67479000D01*
X112165000Y-67519000D02*
X113473000Y-67519000D01*
X108777000Y-67519000D02*
X110085000Y-67519000D01*
X112165000Y-67559000D02*
X113490000Y-67559000D01*
X108760000Y-67559000D02*
X110085000Y-67559000D01*
X112165000Y-67599000D02*
X113507000Y-67599000D01*
X108743000Y-67599000D02*
X110085000Y-67599000D01*
X112165000Y-67639000D02*
X113523000Y-67639000D01*
X108727000Y-67639000D02*
X110085000Y-67639000D01*
X112165000Y-67679000D02*
X113539000Y-67679000D01*
X108711000Y-67679000D02*
X110085000Y-67679000D01*
X112165000Y-67719000D02*
X113553000Y-67719000D01*
X108697000Y-67719000D02*
X110085000Y-67719000D01*
X112165000Y-67759000D02*
X113567000Y-67759000D01*
X108683000Y-67759000D02*
X110085000Y-67759000D01*
X112165000Y-67799000D02*
X113580000Y-67799000D01*
X108670000Y-67799000D02*
X110085000Y-67799000D01*
X112165000Y-67839000D02*
X113593000Y-67839000D01*
X108657000Y-67839000D02*
X110085000Y-67839000D01*
X112165000Y-67879000D02*
X113605000Y-67879000D01*
X108645000Y-67879000D02*
X110085000Y-67879000D01*
X112165000Y-67920000D02*
X113616000Y-67920000D01*
X108634000Y-67920000D02*
X110085000Y-67920000D01*
X112165000Y-67960000D02*
X113626000Y-67960000D01*
X108624000Y-67960000D02*
X110085000Y-67960000D01*
X112165000Y-68000000D02*
X113636000Y-68000000D01*
X108614000Y-68000000D02*
X110085000Y-68000000D01*
X112165000Y-68040000D02*
X113645000Y-68040000D01*
X108605000Y-68040000D02*
X110085000Y-68040000D01*
X112165000Y-68080000D02*
X113653000Y-68080000D01*
X108597000Y-68080000D02*
X110085000Y-68080000D01*
X112165000Y-68120000D02*
X113661000Y-68120000D01*
X108589000Y-68120000D02*
X110085000Y-68120000D01*
X112165000Y-68160000D02*
X113668000Y-68160000D01*
X108582000Y-68160000D02*
X110085000Y-68160000D01*
X112165000Y-68200000D02*
X113675000Y-68200000D01*
X108575000Y-68200000D02*
X110085000Y-68200000D01*
X112165000Y-68240000D02*
X113681000Y-68240000D01*
X108569000Y-68240000D02*
X110085000Y-68240000D01*
X112165000Y-68280000D02*
X113686000Y-68280000D01*
X108564000Y-68280000D02*
X110085000Y-68280000D01*
X112165000Y-68320000D02*
X113690000Y-68320000D01*
X108560000Y-68320000D02*
X110085000Y-68320000D01*
X112165000Y-68360000D02*
X113694000Y-68360000D01*
X108556000Y-68360000D02*
X110085000Y-68360000D01*
X108552000Y-68400000D02*
X113698000Y-68400000D01*
X108549000Y-68440000D02*
X113701000Y-68440000D01*
X108547000Y-68480000D02*
X113703000Y-68480000D01*
X108546000Y-68520000D02*
X113704000Y-68520000D01*
X108545000Y-68560000D02*
X113705000Y-68560000D01*
X108545000Y-68600000D02*
X113705000Y-68600000D01*
X113745000Y-68600000D02*
G75*
G03X113745000Y-68600000I-2620000J0D01*
G01*
X120785000Y-78890000D02*
X116745000Y-78890000D01*
X120785000Y-76050000D02*
X116745000Y-76050000D01*
X120785000Y-78890000D02*
X120785000Y-78265000D01*
X120785000Y-76675000D02*
X120785000Y-76050000D01*
X116745000Y-78890000D02*
X116745000Y-78265000D01*
X116745000Y-76675000D02*
X116745000Y-76050000D01*
X134080000Y-83345000D02*
X134080000Y-83970000D01*
X134080000Y-81130000D02*
X134080000Y-81755000D01*
X130040000Y-83345000D02*
X130040000Y-83970000D01*
X130040000Y-81130000D02*
X130040000Y-81755000D01*
X130040000Y-83970000D02*
X134080000Y-83970000D01*
X130040000Y-81130000D02*
X134080000Y-81130000D01*
X149285000Y-77470000D02*
G75*
G03X149285000Y-77470000I-2620000J0D01*
G01*
X146665000Y-74890000D02*
X146665000Y-80050000D01*
X146705000Y-74890000D02*
X146705000Y-80050000D01*
X146745000Y-74891000D02*
X146745000Y-80049000D01*
X146785000Y-74892000D02*
X146785000Y-80048000D01*
X146825000Y-74894000D02*
X146825000Y-80046000D01*
X146865000Y-74897000D02*
X146865000Y-80043000D01*
X146905000Y-74901000D02*
X146905000Y-76430000D01*
X146905000Y-78510000D02*
X146905000Y-80039000D01*
X146945000Y-74905000D02*
X146945000Y-76430000D01*
X146945000Y-78510000D02*
X146945000Y-80035000D01*
X146985000Y-74909000D02*
X146985000Y-76430000D01*
X146985000Y-78510000D02*
X146985000Y-80031000D01*
X147025000Y-74914000D02*
X147025000Y-76430000D01*
X147025000Y-78510000D02*
X147025000Y-80026000D01*
X147065000Y-74920000D02*
X147065000Y-76430000D01*
X147065000Y-78510000D02*
X147065000Y-80020000D01*
X147105000Y-74927000D02*
X147105000Y-76430000D01*
X147105000Y-78510000D02*
X147105000Y-80013000D01*
X147145000Y-74934000D02*
X147145000Y-76430000D01*
X147145000Y-78510000D02*
X147145000Y-80006000D01*
X147185000Y-74942000D02*
X147185000Y-76430000D01*
X147185000Y-78510000D02*
X147185000Y-79998000D01*
X147225000Y-74950000D02*
X147225000Y-76430000D01*
X147225000Y-78510000D02*
X147225000Y-79990000D01*
X147265000Y-74959000D02*
X147265000Y-76430000D01*
X147265000Y-78510000D02*
X147265000Y-79981000D01*
X147305000Y-74969000D02*
X147305000Y-76430000D01*
X147305000Y-78510000D02*
X147305000Y-79971000D01*
X147345000Y-74979000D02*
X147345000Y-76430000D01*
X147345000Y-78510000D02*
X147345000Y-79961000D01*
X147386000Y-74990000D02*
X147386000Y-76430000D01*
X147386000Y-78510000D02*
X147386000Y-79950000D01*
X147426000Y-75002000D02*
X147426000Y-76430000D01*
X147426000Y-78510000D02*
X147426000Y-79938000D01*
X147466000Y-75015000D02*
X147466000Y-76430000D01*
X147466000Y-78510000D02*
X147466000Y-79925000D01*
X147506000Y-75028000D02*
X147506000Y-76430000D01*
X147506000Y-78510000D02*
X147506000Y-79912000D01*
X147546000Y-75042000D02*
X147546000Y-76430000D01*
X147546000Y-78510000D02*
X147546000Y-79898000D01*
X147586000Y-75056000D02*
X147586000Y-76430000D01*
X147586000Y-78510000D02*
X147586000Y-79884000D01*
X147626000Y-75072000D02*
X147626000Y-76430000D01*
X147626000Y-78510000D02*
X147626000Y-79868000D01*
X147666000Y-75088000D02*
X147666000Y-76430000D01*
X147666000Y-78510000D02*
X147666000Y-79852000D01*
X147706000Y-75105000D02*
X147706000Y-76430000D01*
X147706000Y-78510000D02*
X147706000Y-79835000D01*
X147746000Y-75122000D02*
X147746000Y-76430000D01*
X147746000Y-78510000D02*
X147746000Y-79818000D01*
X147786000Y-75141000D02*
X147786000Y-76430000D01*
X147786000Y-78510000D02*
X147786000Y-79799000D01*
X147826000Y-75160000D02*
X147826000Y-76430000D01*
X147826000Y-78510000D02*
X147826000Y-79780000D01*
X147866000Y-75180000D02*
X147866000Y-76430000D01*
X147866000Y-78510000D02*
X147866000Y-79760000D01*
X147906000Y-75202000D02*
X147906000Y-76430000D01*
X147906000Y-78510000D02*
X147906000Y-79738000D01*
X147946000Y-75223000D02*
X147946000Y-76430000D01*
X147946000Y-78510000D02*
X147946000Y-79717000D01*
X147986000Y-75246000D02*
X147986000Y-76430000D01*
X147986000Y-78510000D02*
X147986000Y-79694000D01*
X148026000Y-75270000D02*
X148026000Y-76430000D01*
X148026000Y-78510000D02*
X148026000Y-79670000D01*
X148066000Y-75295000D02*
X148066000Y-76430000D01*
X148066000Y-78510000D02*
X148066000Y-79645000D01*
X148106000Y-75321000D02*
X148106000Y-76430000D01*
X148106000Y-78510000D02*
X148106000Y-79619000D01*
X148146000Y-75348000D02*
X148146000Y-76430000D01*
X148146000Y-78510000D02*
X148146000Y-79592000D01*
X148186000Y-75375000D02*
X148186000Y-76430000D01*
X148186000Y-78510000D02*
X148186000Y-79565000D01*
X148226000Y-75405000D02*
X148226000Y-76430000D01*
X148226000Y-78510000D02*
X148226000Y-79535000D01*
X148266000Y-75435000D02*
X148266000Y-76430000D01*
X148266000Y-78510000D02*
X148266000Y-79505000D01*
X148306000Y-75466000D02*
X148306000Y-76430000D01*
X148306000Y-78510000D02*
X148306000Y-79474000D01*
X148346000Y-75499000D02*
X148346000Y-76430000D01*
X148346000Y-78510000D02*
X148346000Y-79441000D01*
X148386000Y-75533000D02*
X148386000Y-76430000D01*
X148386000Y-78510000D02*
X148386000Y-79407000D01*
X148426000Y-75569000D02*
X148426000Y-76430000D01*
X148426000Y-78510000D02*
X148426000Y-79371000D01*
X148466000Y-75606000D02*
X148466000Y-76430000D01*
X148466000Y-78510000D02*
X148466000Y-79334000D01*
X148506000Y-75644000D02*
X148506000Y-76430000D01*
X148506000Y-78510000D02*
X148506000Y-79296000D01*
X148546000Y-75685000D02*
X148546000Y-76430000D01*
X148546000Y-78510000D02*
X148546000Y-79255000D01*
X148586000Y-75727000D02*
X148586000Y-76430000D01*
X148586000Y-78510000D02*
X148586000Y-79213000D01*
X148626000Y-75771000D02*
X148626000Y-76430000D01*
X148626000Y-78510000D02*
X148626000Y-79169000D01*
X148666000Y-75817000D02*
X148666000Y-76430000D01*
X148666000Y-78510000D02*
X148666000Y-79123000D01*
X148706000Y-75865000D02*
X148706000Y-76430000D01*
X148706000Y-78510000D02*
X148706000Y-79075000D01*
X148746000Y-75916000D02*
X148746000Y-76430000D01*
X148746000Y-78510000D02*
X148746000Y-79024000D01*
X148786000Y-75970000D02*
X148786000Y-76430000D01*
X148786000Y-78510000D02*
X148786000Y-78970000D01*
X148826000Y-76027000D02*
X148826000Y-76430000D01*
X148826000Y-78510000D02*
X148826000Y-78913000D01*
X148866000Y-76087000D02*
X148866000Y-76430000D01*
X148866000Y-78510000D02*
X148866000Y-78853000D01*
X148906000Y-76151000D02*
X148906000Y-76430000D01*
X148906000Y-78510000D02*
X148906000Y-78789000D01*
X148946000Y-76219000D02*
X148946000Y-76430000D01*
X148946000Y-78510000D02*
X148946000Y-78721000D01*
X148986000Y-76292000D02*
X148986000Y-78648000D01*
X149026000Y-76372000D02*
X149026000Y-78568000D01*
X149066000Y-76459000D02*
X149066000Y-78481000D01*
X149106000Y-76555000D02*
X149106000Y-78385000D01*
X149146000Y-76665000D02*
X149146000Y-78275000D01*
X149186000Y-76793000D02*
X149186000Y-78147000D01*
X149226000Y-76952000D02*
X149226000Y-77988000D01*
X149266000Y-77186000D02*
X149266000Y-77754000D01*
X143860225Y-75995000D02*
X144360225Y-75995000D01*
X144110225Y-75745000D02*
X144110225Y-76245000D01*
X187727335Y-77026392D02*
G75*
G03X184495000Y-76869484I-1672335J-1078608D01*
G01*
X187727335Y-79183608D02*
G75*
G02X184495000Y-79340516I-1672335J1078608D01*
G01*
X187096130Y-77025163D02*
G75*
G03X185014039Y-77025000I-1041130J-1079837D01*
G01*
X187096130Y-79184837D02*
G75*
G02X185014039Y-79185000I-1041130J1079837D01*
G01*
X184495000Y-76869000D02*
X184495000Y-77025000D01*
X184495000Y-79185000D02*
X184495000Y-79341000D01*
X158535000Y-71270000D02*
X158535000Y-73510000D01*
X158535000Y-73510000D02*
X162775000Y-73510000D01*
X162775000Y-73510000D02*
X162775000Y-71270000D01*
X162775000Y-71270000D02*
X158535000Y-71270000D01*
X157885000Y-72390000D02*
X158535000Y-72390000D01*
X163425000Y-72390000D02*
X162775000Y-72390000D01*
X159255000Y-71270000D02*
X159255000Y-73510000D01*
X159375000Y-71270000D02*
X159375000Y-73510000D01*
X159135000Y-71270000D02*
X159135000Y-73510000D01*
X184495000Y-93155000D02*
X184495000Y-93311000D01*
X184495000Y-90839000D02*
X184495000Y-90995000D01*
X187096130Y-93154837D02*
G75*
G02X185014039Y-93155000I-1041130J1079837D01*
G01*
X187096130Y-90995163D02*
G75*
G03X185014039Y-90995000I-1041130J-1079837D01*
G01*
X187727335Y-93153608D02*
G75*
G02X184495000Y-93310516I-1672335J1078608D01*
G01*
X187727335Y-90996392D02*
G75*
G03X184495000Y-90839484I-1672335J-1078608D01*
G01*
X100905000Y-130870000D02*
X106105000Y-130870000D01*
X100905000Y-82550000D02*
X100905000Y-130870000D01*
X106105000Y-79950000D02*
X106105000Y-130870000D01*
X100905000Y-82550000D02*
X103505000Y-82550000D01*
X103505000Y-82550000D02*
X103505000Y-79950000D01*
X103505000Y-79950000D02*
X106105000Y-79950000D01*
X100905000Y-81280000D02*
X100905000Y-79950000D01*
X100905000Y-79950000D02*
X102235000Y-79950000D01*
X100905000Y-77530000D02*
X106105000Y-77530000D01*
X100905000Y-67310000D02*
X100905000Y-77530000D01*
X106105000Y-64710000D02*
X106105000Y-77530000D01*
X100905000Y-67310000D02*
X103505000Y-67310000D01*
X103505000Y-67310000D02*
X103505000Y-64710000D01*
X103505000Y-64710000D02*
X106105000Y-64710000D01*
X100905000Y-66040000D02*
X100905000Y-64710000D01*
X100905000Y-64710000D02*
X102235000Y-64710000D01*
X169485000Y-121860000D02*
X170815000Y-121860000D01*
X169485000Y-123190000D02*
X169485000Y-121860000D01*
X172085000Y-121860000D02*
X174685000Y-121860000D01*
X172085000Y-124460000D02*
X172085000Y-121860000D01*
X169485000Y-124460000D02*
X172085000Y-124460000D01*
X174685000Y-121860000D02*
X174685000Y-124520000D01*
X169485000Y-124460000D02*
X169485000Y-124520000D01*
X169485000Y-124520000D02*
X174685000Y-124520000D01*
X144085000Y-69910000D02*
X149285000Y-69910000D01*
X144085000Y-69850000D02*
X144085000Y-69910000D01*
X149285000Y-67250000D02*
X149285000Y-69910000D01*
X144085000Y-69850000D02*
X146685000Y-69850000D01*
X146685000Y-69850000D02*
X146685000Y-67250000D01*
X146685000Y-67250000D02*
X149285000Y-67250000D01*
X144085000Y-68580000D02*
X144085000Y-67250000D01*
X144085000Y-67250000D02*
X145415000Y-67250000D01*
X164525000Y-98485000D02*
X164525000Y-93285000D01*
X159385000Y-98485000D02*
X164525000Y-98485000D01*
X156785000Y-93285000D02*
X164525000Y-93285000D01*
X159385000Y-98485000D02*
X159385000Y-95885000D01*
X159385000Y-95885000D02*
X156785000Y-95885000D01*
X156785000Y-95885000D02*
X156785000Y-93285000D01*
X158115000Y-98485000D02*
X156785000Y-98485000D01*
X156785000Y-98485000D02*
X156785000Y-97155000D01*
X177745000Y-86890000D02*
X177745000Y-83290000D01*
X177733478Y-86928478D02*
G75*
G02X173295000Y-85090000I-1838478J1838478D01*
G01*
X177733478Y-83251522D02*
G75*
G03X173295000Y-85090000I-1838478J-1838478D01*
G01*
X124460000Y-82320000D02*
X124460000Y-83090000D01*
X124460000Y-90400000D02*
X124460000Y-89630000D01*
X123090000Y-83090000D02*
X123090000Y-89630000D01*
X125830000Y-83090000D02*
X123090000Y-83090000D01*
X125830000Y-89630000D02*
X125830000Y-83090000D01*
X123090000Y-89630000D02*
X125830000Y-89630000D01*
X138330000Y-89630000D02*
X141070000Y-89630000D01*
X141070000Y-89630000D02*
X141070000Y-83090000D01*
X141070000Y-83090000D02*
X138330000Y-83090000D01*
X138330000Y-83090000D02*
X138330000Y-89630000D01*
X139700000Y-90400000D02*
X139700000Y-89630000D01*
X139700000Y-82320000D02*
X139700000Y-83090000D01*
X190095000Y-81915000D02*
X189325000Y-81915000D01*
X182015000Y-81915000D02*
X182785000Y-81915000D01*
X189325000Y-80545000D02*
X182785000Y-80545000D01*
X189325000Y-83285000D02*
X189325000Y-80545000D01*
X182785000Y-83285000D02*
X189325000Y-83285000D01*
X182785000Y-80545000D02*
X182785000Y-83285000D01*
X163925000Y-69950000D02*
X163925000Y-67210000D01*
X163925000Y-67210000D02*
X157385000Y-67210000D01*
X157385000Y-67210000D02*
X157385000Y-69950000D01*
X157385000Y-69950000D02*
X163925000Y-69950000D01*
X164695000Y-68580000D02*
X163925000Y-68580000D01*
X156615000Y-68580000D02*
X157385000Y-68580000D01*
X157385000Y-74830000D02*
X157385000Y-77570000D01*
X157385000Y-77570000D02*
X163925000Y-77570000D01*
X163925000Y-77570000D02*
X163925000Y-74830000D01*
X163925000Y-74830000D02*
X157385000Y-74830000D01*
X156615000Y-76200000D02*
X157385000Y-76200000D01*
X164695000Y-76200000D02*
X163925000Y-76200000D01*
X182785000Y-86895000D02*
X182785000Y-89635000D01*
X182785000Y-89635000D02*
X189325000Y-89635000D01*
X189325000Y-89635000D02*
X189325000Y-86895000D01*
X189325000Y-86895000D02*
X182785000Y-86895000D01*
X182015000Y-88265000D02*
X182785000Y-88265000D01*
X190095000Y-88265000D02*
X189325000Y-88265000D01*
X190095000Y-85090000D02*
X189325000Y-85090000D01*
X182015000Y-85090000D02*
X182785000Y-85090000D01*
X189325000Y-83720000D02*
X182785000Y-83720000D01*
X189325000Y-86460000D02*
X189325000Y-83720000D01*
X182785000Y-86460000D02*
X189325000Y-86460000D01*
X182785000Y-83720000D02*
X182785000Y-86460000D01*
X112525000Y-110320000D02*
X109725000Y-110320000D01*
X109725000Y-110320000D02*
X109725000Y-123360000D01*
X109725000Y-123360000D02*
X112525000Y-123360000D01*
X112525000Y-123360000D02*
X112525000Y-110320000D01*
X112525000Y-113030000D02*
X109725000Y-113030000D01*
X123070000Y-67140000D02*
X123070000Y-77640000D01*
X141090000Y-67140000D02*
X123070000Y-67140000D01*
X141090000Y-77640000D02*
X141090000Y-67140000D01*
X123070000Y-77640000D02*
X141090000Y-77640000D01*
X123130000Y-70140000D02*
X123130000Y-71390000D01*
X141030000Y-70140000D02*
X123130000Y-70140000D01*
X141030000Y-74640000D02*
X141030000Y-70140000D01*
X123130000Y-74640000D02*
X141030000Y-74640000D01*
X123130000Y-73390000D02*
X123130000Y-74640000D01*
X123130000Y-71390000D02*
G75*
G02X123130000Y-73390000I0J-1000000D01*
G01*
X151705000Y-84090000D02*
G75*
G02X151705000Y-86090000I0J-1000000D01*
G01*
X151705000Y-86090000D02*
X151705000Y-87340000D01*
X151705000Y-87340000D02*
X169605000Y-87340000D01*
X169605000Y-87340000D02*
X169605000Y-82840000D01*
X169605000Y-82840000D02*
X151705000Y-82840000D01*
X151705000Y-82840000D02*
X151705000Y-84090000D01*
X151645000Y-90340000D02*
X169665000Y-90340000D01*
X169665000Y-90340000D02*
X169665000Y-79840000D01*
X169665000Y-79840000D02*
X151645000Y-79840000D01*
X151645000Y-79840000D02*
X151645000Y-90340000D01*
X128855000Y-85740000D02*
X135105000Y-85740000D01*
X128855000Y-90790000D02*
X135105000Y-90790000D01*
X128855000Y-90790000D02*
G75*
G02X128855000Y-85740000I0J2525000D01*
G01*
X135105000Y-90790000D02*
G75*
G03X135105000Y-85740000I0J2525000D01*
G01*
D10*
X191436666Y-114597380D02*
X191436666Y-115311666D01*
X191389047Y-115454523D01*
X191293809Y-115549761D01*
X191150952Y-115597380D01*
X191055714Y-115597380D01*
X192341428Y-114930714D02*
X192341428Y-115597380D01*
X192103333Y-114549761D02*
X191865238Y-115264047D01*
X192484285Y-115264047D01*
X145863333Y-126077142D02*
X145815714Y-126124761D01*
X145672857Y-126172380D01*
X145577619Y-126172380D01*
X145434761Y-126124761D01*
X145339523Y-126029523D01*
X145291904Y-125934285D01*
X145244285Y-125743809D01*
X145244285Y-125600952D01*
X145291904Y-125410476D01*
X145339523Y-125315238D01*
X145434761Y-125220000D01*
X145577619Y-125172380D01*
X145672857Y-125172380D01*
X145815714Y-125220000D01*
X145863333Y-125267619D01*
X146815714Y-126172380D02*
X146244285Y-126172380D01*
X146530000Y-126172380D02*
X146530000Y-125172380D01*
X146434761Y-125315238D01*
X146339523Y-125410476D01*
X146244285Y-125458095D01*
X113962380Y-111251904D02*
X114771904Y-111251904D01*
X114867142Y-111204285D01*
X114914761Y-111156666D01*
X114962380Y-111061428D01*
X114962380Y-110870952D01*
X114914761Y-110775714D01*
X114867142Y-110728095D01*
X114771904Y-110680476D01*
X113962380Y-110680476D01*
X113962380Y-110299523D02*
X113962380Y-109680476D01*
X114343333Y-110013809D01*
X114343333Y-109870952D01*
X114390952Y-109775714D01*
X114438571Y-109728095D01*
X114533809Y-109680476D01*
X114771904Y-109680476D01*
X114867142Y-109728095D01*
X114914761Y-109775714D01*
X114962380Y-109870952D01*
X114962380Y-110156666D01*
X114914761Y-110251904D01*
X114867142Y-110299523D01*
X118598333Y-71487142D02*
X118550714Y-71534761D01*
X118407857Y-71582380D01*
X118312619Y-71582380D01*
X118169761Y-71534761D01*
X118074523Y-71439523D01*
X118026904Y-71344285D01*
X117979285Y-71153809D01*
X117979285Y-71010952D01*
X118026904Y-70820476D01*
X118074523Y-70725238D01*
X118169761Y-70630000D01*
X118312619Y-70582380D01*
X118407857Y-70582380D01*
X118550714Y-70630000D01*
X118598333Y-70677619D01*
X118979285Y-70677619D02*
X119026904Y-70630000D01*
X119122142Y-70582380D01*
X119360238Y-70582380D01*
X119455476Y-70630000D01*
X119503095Y-70677619D01*
X119550714Y-70772857D01*
X119550714Y-70868095D01*
X119503095Y-71010952D01*
X118931666Y-71582380D01*
X119550714Y-71582380D01*
X147042142Y-85236666D02*
X147089761Y-85284285D01*
X147137380Y-85427142D01*
X147137380Y-85522380D01*
X147089761Y-85665238D01*
X146994523Y-85760476D01*
X146899285Y-85808095D01*
X146708809Y-85855714D01*
X146565952Y-85855714D01*
X146375476Y-85808095D01*
X146280238Y-85760476D01*
X146185000Y-85665238D01*
X146137380Y-85522380D01*
X146137380Y-85427142D01*
X146185000Y-85284285D01*
X146232619Y-85236666D01*
X146137380Y-84903333D02*
X146137380Y-84284285D01*
X146518333Y-84617619D01*
X146518333Y-84474761D01*
X146565952Y-84379523D01*
X146613571Y-84331904D01*
X146708809Y-84284285D01*
X146946904Y-84284285D01*
X147042142Y-84331904D01*
X147089761Y-84379523D01*
X147137380Y-84474761D01*
X147137380Y-84760476D01*
X147089761Y-84855714D01*
X147042142Y-84903333D01*
X107732142Y-68766666D02*
X107779761Y-68814285D01*
X107827380Y-68957142D01*
X107827380Y-69052380D01*
X107779761Y-69195238D01*
X107684523Y-69290476D01*
X107589285Y-69338095D01*
X107398809Y-69385714D01*
X107255952Y-69385714D01*
X107065476Y-69338095D01*
X106970238Y-69290476D01*
X106875000Y-69195238D01*
X106827380Y-69052380D01*
X106827380Y-68957142D01*
X106875000Y-68814285D01*
X106922619Y-68766666D01*
X107160714Y-67909523D02*
X107827380Y-67909523D01*
X106779761Y-68147619D02*
X107494047Y-68385714D01*
X107494047Y-67766666D01*
X118598333Y-80377142D02*
X118550714Y-80424761D01*
X118407857Y-80472380D01*
X118312619Y-80472380D01*
X118169761Y-80424761D01*
X118074523Y-80329523D01*
X118026904Y-80234285D01*
X117979285Y-80043809D01*
X117979285Y-79900952D01*
X118026904Y-79710476D01*
X118074523Y-79615238D01*
X118169761Y-79520000D01*
X118312619Y-79472380D01*
X118407857Y-79472380D01*
X118550714Y-79520000D01*
X118598333Y-79567619D01*
X119503095Y-79472380D02*
X119026904Y-79472380D01*
X118979285Y-79948571D01*
X119026904Y-79900952D01*
X119122142Y-79853333D01*
X119360238Y-79853333D01*
X119455476Y-79900952D01*
X119503095Y-79948571D01*
X119550714Y-80043809D01*
X119550714Y-80281904D01*
X119503095Y-80377142D01*
X119455476Y-80424761D01*
X119360238Y-80472380D01*
X119122142Y-80472380D01*
X119026904Y-80424761D01*
X118979285Y-80377142D01*
X131893333Y-80357142D02*
X131845714Y-80404761D01*
X131702857Y-80452380D01*
X131607619Y-80452380D01*
X131464761Y-80404761D01*
X131369523Y-80309523D01*
X131321904Y-80214285D01*
X131274285Y-80023809D01*
X131274285Y-79880952D01*
X131321904Y-79690476D01*
X131369523Y-79595238D01*
X131464761Y-79500000D01*
X131607619Y-79452380D01*
X131702857Y-79452380D01*
X131845714Y-79500000D01*
X131893333Y-79547619D01*
X132750476Y-79452380D02*
X132560000Y-79452380D01*
X132464761Y-79500000D01*
X132417142Y-79547619D01*
X132321904Y-79690476D01*
X132274285Y-79880952D01*
X132274285Y-80261904D01*
X132321904Y-80357142D01*
X132369523Y-80404761D01*
X132464761Y-80452380D01*
X132655238Y-80452380D01*
X132750476Y-80404761D01*
X132798095Y-80357142D01*
X132845714Y-80261904D01*
X132845714Y-80023809D01*
X132798095Y-79928571D01*
X132750476Y-79880952D01*
X132655238Y-79833333D01*
X132464761Y-79833333D01*
X132369523Y-79880952D01*
X132321904Y-79928571D01*
X132274285Y-80023809D01*
X146498333Y-74077142D02*
X146450714Y-74124761D01*
X146307857Y-74172380D01*
X146212619Y-74172380D01*
X146069761Y-74124761D01*
X145974523Y-74029523D01*
X145926904Y-73934285D01*
X145879285Y-73743809D01*
X145879285Y-73600952D01*
X145926904Y-73410476D01*
X145974523Y-73315238D01*
X146069761Y-73220000D01*
X146212619Y-73172380D01*
X146307857Y-73172380D01*
X146450714Y-73220000D01*
X146498333Y-73267619D01*
X146831666Y-73172380D02*
X147498333Y-73172380D01*
X147069761Y-74172380D01*
X185316904Y-75597380D02*
X185316904Y-74597380D01*
X185555000Y-74597380D01*
X185697857Y-74645000D01*
X185793095Y-74740238D01*
X185840714Y-74835476D01*
X185888333Y-75025952D01*
X185888333Y-75168809D01*
X185840714Y-75359285D01*
X185793095Y-75454523D01*
X185697857Y-75549761D01*
X185555000Y-75597380D01*
X185316904Y-75597380D01*
X186840714Y-75597380D02*
X186269285Y-75597380D01*
X186555000Y-75597380D02*
X186555000Y-74597380D01*
X186459761Y-74740238D01*
X186364523Y-74835476D01*
X186269285Y-74883095D01*
X167536904Y-72842380D02*
X167536904Y-71842380D01*
X167775000Y-71842380D01*
X167917857Y-71890000D01*
X168013095Y-71985238D01*
X168060714Y-72080476D01*
X168108333Y-72270952D01*
X168108333Y-72413809D01*
X168060714Y-72604285D01*
X168013095Y-72699523D01*
X167917857Y-72794761D01*
X167775000Y-72842380D01*
X167536904Y-72842380D01*
X168489285Y-71937619D02*
X168536904Y-71890000D01*
X168632142Y-71842380D01*
X168870238Y-71842380D01*
X168965476Y-71890000D01*
X169013095Y-71937619D01*
X169060714Y-72032857D01*
X169060714Y-72128095D01*
X169013095Y-72270952D01*
X168441666Y-72842380D01*
X169060714Y-72842380D01*
X156583095Y-71042380D02*
X156583095Y-70042380D01*
X157154523Y-71042380D02*
X156725952Y-70470952D01*
X157154523Y-70042380D02*
X156583095Y-70613809D01*
X185316904Y-95702380D02*
X185316904Y-94702380D01*
X185555000Y-94702380D01*
X185697857Y-94750000D01*
X185793095Y-94845238D01*
X185840714Y-94940476D01*
X185888333Y-95130952D01*
X185888333Y-95273809D01*
X185840714Y-95464285D01*
X185793095Y-95559523D01*
X185697857Y-95654761D01*
X185555000Y-95702380D01*
X185316904Y-95702380D01*
X186221666Y-94702380D02*
X186840714Y-94702380D01*
X186507380Y-95083333D01*
X186650238Y-95083333D01*
X186745476Y-95130952D01*
X186793095Y-95178571D01*
X186840714Y-95273809D01*
X186840714Y-95511904D01*
X186793095Y-95607142D01*
X186745476Y-95654761D01*
X186650238Y-95702380D01*
X186364523Y-95702380D01*
X186269285Y-95654761D01*
X186221666Y-95607142D01*
X103171666Y-78402380D02*
X103171666Y-79116666D01*
X103124047Y-79259523D01*
X103028809Y-79354761D01*
X102885952Y-79402380D01*
X102790714Y-79402380D01*
X104171666Y-79402380D02*
X103600238Y-79402380D01*
X103885952Y-79402380D02*
X103885952Y-78402380D01*
X103790714Y-78545238D01*
X103695476Y-78640476D01*
X103600238Y-78688095D01*
X103171666Y-63162380D02*
X103171666Y-63876666D01*
X103124047Y-64019523D01*
X103028809Y-64114761D01*
X102885952Y-64162380D01*
X102790714Y-64162380D01*
X103600238Y-63257619D02*
X103647857Y-63210000D01*
X103743095Y-63162380D01*
X103981190Y-63162380D01*
X104076428Y-63210000D01*
X104124047Y-63257619D01*
X104171666Y-63352857D01*
X104171666Y-63448095D01*
X104124047Y-63590952D01*
X103552619Y-64162380D01*
X104171666Y-64162380D01*
X171751666Y-120312380D02*
X171751666Y-121026666D01*
X171704047Y-121169523D01*
X171608809Y-121264761D01*
X171465952Y-121312380D01*
X171370714Y-121312380D01*
X172132619Y-120312380D02*
X172751666Y-120312380D01*
X172418333Y-120693333D01*
X172561190Y-120693333D01*
X172656428Y-120740952D01*
X172704047Y-120788571D01*
X172751666Y-120883809D01*
X172751666Y-121121904D01*
X172704047Y-121217142D01*
X172656428Y-121264761D01*
X172561190Y-121312380D01*
X172275476Y-121312380D01*
X172180238Y-121264761D01*
X172132619Y-121217142D01*
X146351666Y-65702380D02*
X146351666Y-66416666D01*
X146304047Y-66559523D01*
X146208809Y-66654761D01*
X146065952Y-66702380D01*
X145970714Y-66702380D01*
X147304047Y-65702380D02*
X146827857Y-65702380D01*
X146780238Y-66178571D01*
X146827857Y-66130952D01*
X146923095Y-66083333D01*
X147161190Y-66083333D01*
X147256428Y-66130952D01*
X147304047Y-66178571D01*
X147351666Y-66273809D01*
X147351666Y-66511904D01*
X147304047Y-66607142D01*
X147256428Y-66654761D01*
X147161190Y-66702380D01*
X146923095Y-66702380D01*
X146827857Y-66654761D01*
X146780238Y-66607142D01*
X155237380Y-96218333D02*
X155951666Y-96218333D01*
X156094523Y-96265952D01*
X156189761Y-96361190D01*
X156237380Y-96504047D01*
X156237380Y-96599285D01*
X155237380Y-95313571D02*
X155237380Y-95504047D01*
X155285000Y-95599285D01*
X155332619Y-95646904D01*
X155475476Y-95742142D01*
X155665952Y-95789761D01*
X156046904Y-95789761D01*
X156142142Y-95742142D01*
X156189761Y-95694523D01*
X156237380Y-95599285D01*
X156237380Y-95408809D01*
X156189761Y-95313571D01*
X156142142Y-95265952D01*
X156046904Y-95218333D01*
X155808809Y-95218333D01*
X155713571Y-95265952D01*
X155665952Y-95313571D01*
X155618333Y-95408809D01*
X155618333Y-95599285D01*
X155665952Y-95694523D01*
X155713571Y-95742142D01*
X155808809Y-95789761D01*
X172882619Y-85185238D02*
X172835000Y-85280476D01*
X172739761Y-85375714D01*
X172596904Y-85518571D01*
X172549285Y-85613809D01*
X172549285Y-85709047D01*
X172787380Y-85661428D02*
X172739761Y-85756666D01*
X172644523Y-85851904D01*
X172454047Y-85899523D01*
X172120714Y-85899523D01*
X171930238Y-85851904D01*
X171835000Y-85756666D01*
X171787380Y-85661428D01*
X171787380Y-85470952D01*
X171835000Y-85375714D01*
X171930238Y-85280476D01*
X172120714Y-85232857D01*
X172454047Y-85232857D01*
X172644523Y-85280476D01*
X172739761Y-85375714D01*
X172787380Y-85470952D01*
X172787380Y-85661428D01*
X172787380Y-84280476D02*
X172787380Y-84851904D01*
X172787380Y-84566190D02*
X171787380Y-84566190D01*
X171930238Y-84661428D01*
X172025476Y-84756666D01*
X172073095Y-84851904D01*
X122542380Y-86526666D02*
X122066190Y-86860000D01*
X122542380Y-87098095D02*
X121542380Y-87098095D01*
X121542380Y-86717142D01*
X121590000Y-86621904D01*
X121637619Y-86574285D01*
X121732857Y-86526666D01*
X121875714Y-86526666D01*
X121970952Y-86574285D01*
X122018571Y-86621904D01*
X122066190Y-86717142D01*
X122066190Y-87098095D01*
X122542380Y-85574285D02*
X122542380Y-86145714D01*
X122542380Y-85860000D02*
X121542380Y-85860000D01*
X121685238Y-85955238D01*
X121780476Y-86050476D01*
X121828095Y-86145714D01*
X142692380Y-86526666D02*
X142216190Y-86860000D01*
X142692380Y-87098095D02*
X141692380Y-87098095D01*
X141692380Y-86717142D01*
X141740000Y-86621904D01*
X141787619Y-86574285D01*
X141882857Y-86526666D01*
X142025714Y-86526666D01*
X142120952Y-86574285D01*
X142168571Y-86621904D01*
X142216190Y-86717142D01*
X142216190Y-87098095D01*
X141787619Y-86145714D02*
X141740000Y-86098095D01*
X141692380Y-86002857D01*
X141692380Y-85764761D01*
X141740000Y-85669523D01*
X141787619Y-85621904D01*
X141882857Y-85574285D01*
X141978095Y-85574285D01*
X142120952Y-85621904D01*
X142692380Y-86193333D01*
X142692380Y-85574285D01*
X193508333Y-82367380D02*
X193175000Y-81891190D01*
X192936904Y-82367380D02*
X192936904Y-81367380D01*
X193317857Y-81367380D01*
X193413095Y-81415000D01*
X193460714Y-81462619D01*
X193508333Y-81557857D01*
X193508333Y-81700714D01*
X193460714Y-81795952D01*
X193413095Y-81843571D01*
X193317857Y-81891190D01*
X192936904Y-81891190D01*
X193841666Y-81367380D02*
X194460714Y-81367380D01*
X194127380Y-81748333D01*
X194270238Y-81748333D01*
X194365476Y-81795952D01*
X194413095Y-81843571D01*
X194460714Y-81938809D01*
X194460714Y-82176904D01*
X194413095Y-82272142D01*
X194365476Y-82319761D01*
X194270238Y-82367380D01*
X193984523Y-82367380D01*
X193889285Y-82319761D01*
X193841666Y-82272142D01*
X168108333Y-69032380D02*
X167775000Y-68556190D01*
X167536904Y-69032380D02*
X167536904Y-68032380D01*
X167917857Y-68032380D01*
X168013095Y-68080000D01*
X168060714Y-68127619D01*
X168108333Y-68222857D01*
X168108333Y-68365714D01*
X168060714Y-68460952D01*
X168013095Y-68508571D01*
X167917857Y-68556190D01*
X167536904Y-68556190D01*
X168965476Y-68365714D02*
X168965476Y-69032380D01*
X168727380Y-67984761D02*
X168489285Y-68699047D01*
X169108333Y-68699047D01*
X168108333Y-76652380D02*
X167775000Y-76176190D01*
X167536904Y-76652380D02*
X167536904Y-75652380D01*
X167917857Y-75652380D01*
X168013095Y-75700000D01*
X168060714Y-75747619D01*
X168108333Y-75842857D01*
X168108333Y-75985714D01*
X168060714Y-76080952D01*
X168013095Y-76128571D01*
X167917857Y-76176190D01*
X167536904Y-76176190D01*
X169013095Y-75652380D02*
X168536904Y-75652380D01*
X168489285Y-76128571D01*
X168536904Y-76080952D01*
X168632142Y-76033333D01*
X168870238Y-76033333D01*
X168965476Y-76080952D01*
X169013095Y-76128571D01*
X169060714Y-76223809D01*
X169060714Y-76461904D01*
X169013095Y-76557142D01*
X168965476Y-76604761D01*
X168870238Y-76652380D01*
X168632142Y-76652380D01*
X168536904Y-76604761D01*
X168489285Y-76557142D01*
X193508333Y-88717380D02*
X193175000Y-88241190D01*
X192936904Y-88717380D02*
X192936904Y-87717380D01*
X193317857Y-87717380D01*
X193413095Y-87765000D01*
X193460714Y-87812619D01*
X193508333Y-87907857D01*
X193508333Y-88050714D01*
X193460714Y-88145952D01*
X193413095Y-88193571D01*
X193317857Y-88241190D01*
X192936904Y-88241190D01*
X194365476Y-87717380D02*
X194175000Y-87717380D01*
X194079761Y-87765000D01*
X194032142Y-87812619D01*
X193936904Y-87955476D01*
X193889285Y-88145952D01*
X193889285Y-88526904D01*
X193936904Y-88622142D01*
X193984523Y-88669761D01*
X194079761Y-88717380D01*
X194270238Y-88717380D01*
X194365476Y-88669761D01*
X194413095Y-88622142D01*
X194460714Y-88526904D01*
X194460714Y-88288809D01*
X194413095Y-88193571D01*
X194365476Y-88145952D01*
X194270238Y-88098333D01*
X194079761Y-88098333D01*
X193984523Y-88145952D01*
X193936904Y-88193571D01*
X193889285Y-88288809D01*
X193508333Y-85542380D02*
X193175000Y-85066190D01*
X192936904Y-85542380D02*
X192936904Y-84542380D01*
X193317857Y-84542380D01*
X193413095Y-84590000D01*
X193460714Y-84637619D01*
X193508333Y-84732857D01*
X193508333Y-84875714D01*
X193460714Y-84970952D01*
X193413095Y-85018571D01*
X193317857Y-85066190D01*
X192936904Y-85066190D01*
X193841666Y-84542380D02*
X194508333Y-84542380D01*
X194079761Y-85542380D01*
X113977380Y-118800476D02*
X113501190Y-119133809D01*
X113977380Y-119371904D02*
X112977380Y-119371904D01*
X112977380Y-118990952D01*
X113025000Y-118895714D01*
X113072619Y-118848095D01*
X113167857Y-118800476D01*
X113310714Y-118800476D01*
X113405952Y-118848095D01*
X113453571Y-118895714D01*
X113501190Y-118990952D01*
X113501190Y-119371904D01*
X113977380Y-118371904D02*
X112977380Y-118371904D01*
X113977380Y-117800476D01*
X112977380Y-117800476D01*
X113977380Y-116800476D02*
X113977380Y-117371904D01*
X113977380Y-117086190D02*
X112977380Y-117086190D01*
X113120238Y-117181428D01*
X113215476Y-117276666D01*
X113263095Y-117371904D01*
X121582380Y-73151904D02*
X122391904Y-73151904D01*
X122487142Y-73104285D01*
X122534761Y-73056666D01*
X122582380Y-72961428D01*
X122582380Y-72770952D01*
X122534761Y-72675714D01*
X122487142Y-72628095D01*
X122391904Y-72580476D01*
X121582380Y-72580476D01*
X122582380Y-71580476D02*
X122582380Y-72151904D01*
X122582380Y-71866190D02*
X121582380Y-71866190D01*
X121725238Y-71961428D01*
X121820476Y-72056666D01*
X121868095Y-72151904D01*
X149947380Y-89661904D02*
X150756904Y-89661904D01*
X150852142Y-89614285D01*
X150899761Y-89566666D01*
X150947380Y-89471428D01*
X150947380Y-89280952D01*
X150899761Y-89185714D01*
X150852142Y-89138095D01*
X150756904Y-89090476D01*
X149947380Y-89090476D01*
X150042619Y-88661904D02*
X149995000Y-88614285D01*
X149947380Y-88519047D01*
X149947380Y-88280952D01*
X149995000Y-88185714D01*
X150042619Y-88138095D01*
X150137857Y-88090476D01*
X150233095Y-88090476D01*
X150375952Y-88138095D01*
X150947380Y-88709523D01*
X150947380Y-88090476D01*
X131603809Y-92051190D02*
X131603809Y-92527380D01*
X131270476Y-91527380D02*
X131603809Y-92051190D01*
X131937142Y-91527380D01*
X132794285Y-92527380D02*
X132222857Y-92527380D01*
X132508571Y-92527380D02*
X132508571Y-91527380D01*
X132413333Y-91670238D01*
X132318095Y-91765476D01*
X132222857Y-91813095D01*
M02*
