M48
; DRILL file {KiCad (5.1.4)-1} date 26/06/2021 17:25:03
; FORMAT={-:-/ absolute / metric / decimal}
; #@! TF.CreationDate,2021-06-26T17:25:03+03:00
; #@! TF.GenerationSoftware,Kicad,Pcbnew,(5.1.4)-1
; #@! TF.FileFunction,Plated,1,2,PTH
FMAT,2
METRIC
T1C0.400
T2C0.750
T3C0.800
T4C0.900
T5C1.000
T6C3.048
%
G90
G05
T1
X111.28Y-103.687
X111.588Y-105.315
X117.174Y-119.814
X119.308Y-120.54
X123.791Y-120.54
X126.271Y-111.76
X155.711Y-120.54
T2
X175.895Y-83.82
X175.895Y-85.09
X175.895Y-86.36
T3
X130.81Y-82.55
X133.31Y-82.55
X180.975Y-88.265
X191.135Y-88.265
X156.845Y-72.39
X164.465Y-72.39
X124.46Y-68.58
X124.46Y-76.2
X127.0Y-68.58
X127.0Y-76.2
X129.54Y-68.58
X129.54Y-76.2
X132.08Y-68.58
X132.08Y-76.2
X134.62Y-68.58
X134.62Y-76.2
X137.16Y-68.58
X137.16Y-76.2
X139.7Y-68.58
X139.7Y-76.2
X117.515Y-68.58
X120.015Y-68.58
X139.7Y-81.28
X139.7Y-91.44
X117.515Y-77.47
X120.015Y-77.47
X155.575Y-76.2
X165.735Y-76.2
X111.125Y-111.76
X111.125Y-114.3
X111.125Y-116.84
X111.125Y-119.38
X111.125Y-121.92
X129.54Y-88.265
X134.42Y-88.265
X116.84Y-107.95
X116.84Y-123.19
X119.38Y-107.95
X119.38Y-123.19
X121.92Y-107.95
X121.92Y-123.19
X124.46Y-107.95
X124.46Y-123.19
X127.0Y-107.95
X127.0Y-123.19
X129.54Y-107.95
X129.54Y-123.19
X132.08Y-107.95
X132.08Y-123.19
X134.62Y-107.95
X134.62Y-123.19
X137.16Y-107.95
X137.16Y-123.19
X139.7Y-107.95
X139.7Y-123.19
X142.24Y-107.95
X142.24Y-123.19
X144.78Y-107.95
X144.78Y-123.19
X147.32Y-107.95
X147.32Y-123.19
X149.86Y-107.95
X149.86Y-123.19
X152.4Y-107.95
X152.4Y-123.19
X154.94Y-107.95
X154.94Y-123.19
X157.48Y-107.95
X157.48Y-123.19
X160.02Y-107.95
X160.02Y-123.19
X162.56Y-107.95
X162.56Y-123.19
X165.1Y-107.95
X165.1Y-123.19
X124.46Y-81.28
X124.46Y-91.44
X111.125Y-67.35
X111.125Y-69.85
X155.575Y-68.58
X165.735Y-68.58
X145.415Y-77.47
X147.915Y-77.47
X180.975Y-85.09
X191.135Y-85.09
X153.035Y-81.28
X153.035Y-88.9
X155.575Y-81.28
X155.575Y-88.9
X158.115Y-81.28
X158.115Y-88.9
X160.655Y-81.28
X160.655Y-88.9
X163.195Y-81.28
X163.195Y-88.9
X165.735Y-81.28
X165.735Y-88.9
X168.275Y-81.28
X168.275Y-88.9
X144.78Y-128.27
X147.28Y-128.27
X149.225Y-83.82
X149.225Y-86.32
X180.975Y-81.915
X191.135Y-81.915
T4
X184.785Y-78.105
X187.325Y-78.105
X184.785Y-92.075
X187.325Y-92.075
T5
X102.235Y-66.04
X102.235Y-68.58
X102.235Y-71.12
X102.235Y-73.66
X102.235Y-76.2
X104.775Y-66.04
X104.775Y-68.58
X104.775Y-71.12
X104.775Y-73.66
X104.775Y-76.2
X190.5Y-117.475
X190.5Y-120.015
X193.04Y-117.475
X193.04Y-120.015
X158.115Y-94.615
X158.115Y-97.155
X160.655Y-94.615
X160.655Y-97.155
X163.195Y-94.615
X163.195Y-97.155
X102.235Y-81.28
X102.235Y-83.82
X102.235Y-86.36
X102.235Y-88.9
X102.235Y-91.44
X102.235Y-93.98
X102.235Y-96.52
X102.235Y-99.06
X102.235Y-101.6
X102.235Y-104.14
X102.235Y-106.68
X102.235Y-109.22
X102.235Y-111.76
X102.235Y-114.3
X102.235Y-116.84
X102.235Y-119.38
X102.235Y-121.92
X102.235Y-124.46
X102.235Y-127.0
X102.235Y-129.54
X104.775Y-81.28
X104.775Y-83.82
X104.775Y-86.36
X104.775Y-88.9
X104.775Y-91.44
X104.775Y-93.98
X104.775Y-96.52
X104.775Y-99.06
X104.775Y-101.6
X104.775Y-104.14
X104.775Y-106.68
X104.775Y-109.22
X104.775Y-111.76
X104.775Y-114.3
X104.775Y-116.84
X104.775Y-119.38
X104.775Y-121.92
X104.775Y-124.46
X104.775Y-127.0
X104.775Y-129.54
X145.415Y-68.58
X147.955Y-68.58
X170.815Y-123.19
X173.355Y-123.19
T6
X192.405Y-67.945
X192.405Y-127.635
T0
M30
