G04 #@! TF.GenerationSoftware,KiCad,Pcbnew,(5.1.4)-1*
G04 #@! TF.CreationDate,2021-06-26T17:24:00+03:00*
G04 #@! TF.ProjectId,CPU,4350552e-6b69-4636-9164-5f7063625858,rev?*
G04 #@! TF.SameCoordinates,Original*
G04 #@! TF.FileFunction,Copper,L1,Top*
G04 #@! TF.FilePolarity,Positive*
%FSLAX46Y46*%
G04 Gerber Fmt 4.6, Leading zero omitted, Abs format (unit mm)*
G04 Created by KiCad (PCBNEW (5.1.4)-1) date 2021-06-26 17:24:00*
%MOMM*%
%LPD*%
G04 APERTURE LIST*
%ADD10O,1.700000X1.700000*%
%ADD11R,1.700000X1.700000*%
%ADD12C,1.600000*%
%ADD13O,1.600000X2.400000*%
%ADD14R,1.600000X2.400000*%
%ADD15R,1.600000X1.600000*%
%ADD16R,1.800000X1.800000*%
%ADD17C,1.800000*%
%ADD18O,1.600000X1.600000*%
%ADD19O,1.500000X1.050000*%
%ADD20R,1.500000X1.050000*%
%ADD21C,1.500000*%
%ADD22C,5.080000*%
%ADD23C,0.800000*%
%ADD24C,0.375000*%
%ADD25C,0.250000*%
G04 APERTURE END LIST*
D10*
X193040000Y-120015000D03*
X190500000Y-120015000D03*
X193040000Y-117475000D03*
D11*
X190500000Y-117475000D03*
D12*
X144780000Y-128270000D03*
X147280000Y-128270000D03*
D13*
X116840000Y-107950000D03*
X165100000Y-123190000D03*
X119380000Y-107950000D03*
X162560000Y-123190000D03*
X121920000Y-107950000D03*
X160020000Y-123190000D03*
X124460000Y-107950000D03*
X157480000Y-123190000D03*
X127000000Y-107950000D03*
X154940000Y-123190000D03*
X129540000Y-107950000D03*
X152400000Y-123190000D03*
X132080000Y-107950000D03*
X149860000Y-123190000D03*
X134620000Y-107950000D03*
X147320000Y-123190000D03*
X137160000Y-107950000D03*
X144780000Y-123190000D03*
X139700000Y-107950000D03*
X142240000Y-123190000D03*
X142240000Y-107950000D03*
X139700000Y-123190000D03*
X144780000Y-107950000D03*
X137160000Y-123190000D03*
X147320000Y-107950000D03*
X134620000Y-123190000D03*
X149860000Y-107950000D03*
X132080000Y-123190000D03*
X152400000Y-107950000D03*
X129540000Y-123190000D03*
X154940000Y-107950000D03*
X127000000Y-123190000D03*
X157480000Y-107950000D03*
X124460000Y-123190000D03*
X160020000Y-107950000D03*
X121920000Y-123190000D03*
X162560000Y-107950000D03*
X119380000Y-123190000D03*
X165100000Y-107950000D03*
D14*
X116840000Y-123190000D03*
D12*
X117515000Y-68580000D03*
X120015000Y-68580000D03*
X149225000Y-83820000D03*
X149225000Y-86320000D03*
X111125000Y-67350000D03*
D15*
X111125000Y-69850000D03*
D12*
X120015000Y-77470000D03*
X117515000Y-77470000D03*
X133310000Y-82550000D03*
X130810000Y-82550000D03*
D15*
X145415000Y-77470000D03*
D12*
X147915000Y-77470000D03*
D16*
X184785000Y-78105000D03*
D17*
X187325000Y-78105000D03*
D15*
X156845000Y-72390000D03*
D18*
X164465000Y-72390000D03*
D17*
X187325000Y-92075000D03*
D16*
X184785000Y-92075000D03*
D11*
X102235000Y-81280000D03*
D10*
X104775000Y-81280000D03*
X102235000Y-83820000D03*
X104775000Y-83820000D03*
X102235000Y-86360000D03*
X104775000Y-86360000D03*
X102235000Y-88900000D03*
X104775000Y-88900000D03*
X102235000Y-91440000D03*
X104775000Y-91440000D03*
X102235000Y-93980000D03*
X104775000Y-93980000D03*
X102235000Y-96520000D03*
X104775000Y-96520000D03*
X102235000Y-99060000D03*
X104775000Y-99060000D03*
X102235000Y-101600000D03*
X104775000Y-101600000D03*
X102235000Y-104140000D03*
X104775000Y-104140000D03*
X102235000Y-106680000D03*
X104775000Y-106680000D03*
X102235000Y-109220000D03*
X104775000Y-109220000D03*
X102235000Y-111760000D03*
X104775000Y-111760000D03*
X102235000Y-114300000D03*
X104775000Y-114300000D03*
X102235000Y-116840000D03*
X104775000Y-116840000D03*
X102235000Y-119380000D03*
X104775000Y-119380000D03*
X102235000Y-121920000D03*
X104775000Y-121920000D03*
X102235000Y-124460000D03*
X104775000Y-124460000D03*
X102235000Y-127000000D03*
X104775000Y-127000000D03*
X102235000Y-129540000D03*
X104775000Y-129540000D03*
D11*
X102235000Y-66040000D03*
D10*
X104775000Y-66040000D03*
X102235000Y-68580000D03*
X104775000Y-68580000D03*
X102235000Y-71120000D03*
X104775000Y-71120000D03*
X102235000Y-73660000D03*
X104775000Y-73660000D03*
X102235000Y-76200000D03*
X104775000Y-76200000D03*
X173355000Y-123190000D03*
D11*
X170815000Y-123190000D03*
X145415000Y-68580000D03*
D10*
X147955000Y-68580000D03*
D11*
X158115000Y-97155000D03*
D10*
X158115000Y-94615000D03*
X160655000Y-97155000D03*
X160655000Y-94615000D03*
X163195000Y-97155000D03*
X163195000Y-94615000D03*
D19*
X175895000Y-85090000D03*
X175895000Y-83820000D03*
D20*
X175895000Y-86360000D03*
D18*
X124460000Y-81280000D03*
D12*
X124460000Y-91440000D03*
X139700000Y-91440000D03*
D18*
X139700000Y-81280000D03*
X191135000Y-81915000D03*
D12*
X180975000Y-81915000D03*
X165735000Y-68580000D03*
D18*
X155575000Y-68580000D03*
D12*
X155575000Y-76200000D03*
D18*
X165735000Y-76200000D03*
D12*
X180975000Y-88265000D03*
D18*
X191135000Y-88265000D03*
X191135000Y-85090000D03*
D12*
X180975000Y-85090000D03*
D15*
X111125000Y-111760000D03*
D18*
X111125000Y-114300000D03*
X111125000Y-116840000D03*
X111125000Y-119380000D03*
X111125000Y-121920000D03*
D13*
X124460000Y-68580000D03*
X139700000Y-76200000D03*
X127000000Y-68580000D03*
X137160000Y-76200000D03*
X129540000Y-68580000D03*
X134620000Y-76200000D03*
X132080000Y-68580000D03*
X132080000Y-76200000D03*
X134620000Y-68580000D03*
X129540000Y-76200000D03*
X137160000Y-68580000D03*
X127000000Y-76200000D03*
X139700000Y-68580000D03*
D14*
X124460000Y-76200000D03*
X153035000Y-88900000D03*
D13*
X168275000Y-81280000D03*
X155575000Y-88900000D03*
X165735000Y-81280000D03*
X158115000Y-88900000D03*
X163195000Y-81280000D03*
X160655000Y-88900000D03*
X160655000Y-81280000D03*
X163195000Y-88900000D03*
X158115000Y-81280000D03*
X165735000Y-88900000D03*
X155575000Y-81280000D03*
X168275000Y-88900000D03*
X153035000Y-81280000D03*
D21*
X129540000Y-88265000D03*
X134420000Y-88265000D03*
D22*
X192405000Y-67945000D03*
X192405000Y-127635000D03*
D23*
X126271400Y-111760000D03*
X123790900Y-120539800D03*
X111588500Y-105315300D03*
X111280300Y-103686700D03*
X119307700Y-120539900D03*
X117174400Y-119814400D03*
X155711200Y-120539700D03*
D24*
X126271400Y-111760000D02*
X111125000Y-111760000D01*
X175895000Y-83363600D02*
X179526400Y-83363600D01*
X179526400Y-83363600D02*
X180975000Y-81915000D01*
X163195000Y-82867800D02*
X163690800Y-83363600D01*
X163690800Y-83363600D02*
X175895000Y-83363600D01*
X155575000Y-81280000D02*
X155575000Y-82867800D01*
X155575000Y-82867800D02*
X163195000Y-82867800D01*
X153035000Y-81280000D02*
X155575000Y-81280000D01*
X104775000Y-68580000D02*
X106012800Y-68580000D01*
X111125000Y-69850000D02*
X107282800Y-69850000D01*
X107282800Y-69850000D02*
X106012800Y-68580000D01*
X120015000Y-68580000D02*
X118745000Y-69850000D01*
X118745000Y-69850000D02*
X111125000Y-69850000D01*
X124460000Y-68580000D02*
X124460000Y-66992200D01*
X124460000Y-66992200D02*
X142589400Y-66992200D01*
X142589400Y-66992200D02*
X144177200Y-68580000D01*
X120015000Y-68580000D02*
X124460000Y-68580000D01*
X145415000Y-68580000D02*
X144177200Y-68580000D01*
X102235000Y-68580000D02*
X104775000Y-68580000D01*
X163195000Y-81280000D02*
X163195000Y-82867800D01*
X175895000Y-83820000D02*
X175895000Y-83363600D01*
D25*
X183810900Y-89875600D02*
X184785000Y-88901500D01*
X184785000Y-88901500D02*
X184785000Y-78105000D01*
X168275000Y-88807700D02*
X169342900Y-89875600D01*
X169342900Y-89875600D02*
X183810900Y-89875600D01*
X184785000Y-90849700D02*
X183810900Y-89875600D01*
X184785000Y-92075000D02*
X184785000Y-90849700D01*
X168275000Y-88807700D02*
X168275000Y-88715400D01*
X168275000Y-88900000D02*
X168275000Y-88807700D01*
X168275000Y-88695000D02*
X168275000Y-88715400D01*
X168275000Y-88695000D02*
X168275000Y-87374700D01*
X149225000Y-86320000D02*
X167220300Y-86320000D01*
X167220300Y-86320000D02*
X168275000Y-87374700D01*
X165735000Y-76200000D02*
X165735000Y-75074700D01*
X165735000Y-75074700D02*
X164465000Y-73804700D01*
X164465000Y-73804700D02*
X164465000Y-72390000D01*
X173355000Y-123190000D02*
X172179700Y-123190000D01*
X139700000Y-76200000D02*
X139700000Y-74674700D01*
X139700000Y-74674700D02*
X139229800Y-74204500D01*
X139229800Y-74204500D02*
X120780500Y-74204500D01*
X120780500Y-74204500D02*
X117515000Y-77470000D01*
X147280000Y-128270000D02*
X167907700Y-128270000D01*
X167907700Y-128270000D02*
X172179700Y-123998000D01*
X172179700Y-123998000D02*
X172179700Y-123190000D01*
X124460000Y-75437300D02*
X122047700Y-75437300D01*
X122047700Y-75437300D02*
X120015000Y-77470000D01*
X124460000Y-75437300D02*
X124460000Y-74674700D01*
X124460000Y-76200000D02*
X124460000Y-75437300D01*
X127000000Y-76200000D02*
X127000000Y-74674700D01*
X124460000Y-74674700D02*
X127000000Y-74674700D01*
X129540000Y-88265000D02*
X127635000Y-88265000D01*
X127635000Y-88265000D02*
X124460000Y-91440000D01*
X133310000Y-82550000D02*
X139700000Y-88940000D01*
X139700000Y-88940000D02*
X139700000Y-91440000D01*
X132080000Y-76200000D02*
X134620000Y-76200000D01*
X127762700Y-79502700D02*
X125985400Y-81280000D01*
X125985400Y-81280000D02*
X125585300Y-81280000D01*
X129540000Y-76200000D02*
X129540000Y-77725400D01*
X129540000Y-77725400D02*
X127762700Y-79502700D01*
X130810000Y-82550000D02*
X127762700Y-79502700D01*
X124460000Y-81280000D02*
X125585300Y-81280000D01*
X129540000Y-68580000D02*
X129540000Y-70105300D01*
X129540000Y-70105300D02*
X140550300Y-70105300D01*
X140550300Y-70105300D02*
X147915000Y-77470000D01*
X127000000Y-68580000D02*
X129540000Y-68580000D01*
X155575000Y-76200000D02*
X149185000Y-76200000D01*
X149185000Y-76200000D02*
X147915000Y-77470000D01*
X191135000Y-88265000D02*
X190009700Y-88265000D01*
X190009700Y-88265000D02*
X190009700Y-89390300D01*
X190009700Y-89390300D02*
X187325000Y-92075000D01*
X152400000Y-123190000D02*
X152400000Y-124715300D01*
X102235000Y-101600000D02*
X102235000Y-102775300D01*
X102235000Y-102775300D02*
X101867700Y-102775300D01*
X101867700Y-102775300D02*
X100553400Y-104089600D01*
X100553400Y-104089600D02*
X100553400Y-130228600D01*
X100553400Y-130228600D02*
X102006400Y-131681600D01*
X102006400Y-131681600D02*
X139306200Y-131681600D01*
X139306200Y-131681600D02*
X145782500Y-125205300D01*
X145782500Y-125205300D02*
X151910000Y-125205300D01*
X151910000Y-125205300D02*
X152400000Y-124715300D01*
X149860000Y-123190000D02*
X149860000Y-121664700D01*
X123790900Y-120539800D02*
X148735100Y-120539800D01*
X148735100Y-120539800D02*
X149860000Y-121664700D01*
X103410300Y-104140000D02*
X103410300Y-104507400D01*
X103410300Y-104507400D02*
X104218200Y-105315300D01*
X104218200Y-105315300D02*
X111588500Y-105315300D01*
X102235000Y-104140000D02*
X103410300Y-104140000D01*
X105950300Y-104140000D02*
X106403600Y-103686700D01*
X106403600Y-103686700D02*
X111280300Y-103686700D01*
X104775000Y-104140000D02*
X105950300Y-104140000D01*
X137160000Y-123190000D02*
X137160000Y-124715300D01*
X102235000Y-106680000D02*
X102235000Y-107855300D01*
X102235000Y-107855300D02*
X101867700Y-107855300D01*
X101867700Y-107855300D02*
X101014100Y-108708900D01*
X101014100Y-108708900D02*
X101014100Y-129997000D01*
X101014100Y-129997000D02*
X102200300Y-131183200D01*
X102200300Y-131183200D02*
X130692100Y-131183200D01*
X130692100Y-131183200D02*
X137160000Y-124715300D01*
X147320000Y-123190000D02*
X147320000Y-121664700D01*
X119307700Y-120539900D02*
X120044900Y-121277100D01*
X120044900Y-121277100D02*
X126466900Y-121277100D01*
X126466900Y-121277100D02*
X126538500Y-121205500D01*
X126538500Y-121205500D02*
X146860800Y-121205500D01*
X146860800Y-121205500D02*
X147320000Y-121664700D01*
X162560000Y-107950000D02*
X162560000Y-106424700D01*
X102235000Y-111760000D02*
X103410300Y-111760000D01*
X103410300Y-111760000D02*
X103410300Y-111392600D01*
X103410300Y-111392600D02*
X104218200Y-110584700D01*
X104218200Y-110584700D02*
X108179800Y-110584700D01*
X108179800Y-110584700D02*
X114141100Y-104623400D01*
X114141100Y-104623400D02*
X160758700Y-104623400D01*
X160758700Y-104623400D02*
X162560000Y-106424700D01*
X162560000Y-121664700D02*
X160709700Y-119814400D01*
X160709700Y-119814400D02*
X117174400Y-119814400D01*
X162560000Y-123190000D02*
X162560000Y-121664700D01*
X103410300Y-114300000D02*
X103410300Y-113932600D01*
X103410300Y-113932600D02*
X104218200Y-113124700D01*
X104218200Y-113124700D02*
X106657000Y-113124700D01*
X106657000Y-113124700D02*
X114707900Y-105073800D01*
X114707900Y-105073800D02*
X159153700Y-105073800D01*
X159153700Y-105073800D02*
X161290000Y-107210100D01*
X161290000Y-107210100D02*
X161290000Y-108671800D01*
X161290000Y-108671800D02*
X162093500Y-109475300D01*
X162093500Y-109475300D02*
X165100000Y-109475300D01*
X165100000Y-107950000D02*
X165100000Y-109475300D01*
X102235000Y-114300000D02*
X103410300Y-114300000D01*
X103410300Y-116840000D02*
X103410300Y-116472600D01*
X103410300Y-116472600D02*
X104218200Y-115664700D01*
X104218200Y-115664700D02*
X105127200Y-115664700D01*
X105127200Y-115664700D02*
X115267800Y-105524100D01*
X115267800Y-105524100D02*
X157594100Y-105524100D01*
X157594100Y-105524100D02*
X160020000Y-107950000D01*
X102235000Y-116840000D02*
X103410300Y-116840000D01*
X111125000Y-114300000D02*
X112250300Y-114300000D01*
X112250300Y-114300000D02*
X137886700Y-114300000D01*
X137886700Y-114300000D02*
X143510000Y-108676700D01*
X143510000Y-108676700D02*
X143510000Y-107228400D01*
X143510000Y-107228400D02*
X144764000Y-105974400D01*
X144764000Y-105974400D02*
X154489700Y-105974400D01*
X154489700Y-105974400D02*
X154940000Y-106424700D01*
X104775000Y-116840000D02*
X105950300Y-116840000D01*
X111125000Y-114300000D02*
X108490300Y-114300000D01*
X108490300Y-114300000D02*
X105950300Y-116840000D01*
X154940000Y-107950000D02*
X154940000Y-106424700D01*
X111125000Y-116840000D02*
X108490300Y-116840000D01*
X108490300Y-116840000D02*
X105950300Y-119380000D01*
X157480000Y-109475300D02*
X154473500Y-109475300D01*
X154473500Y-109475300D02*
X153670000Y-108671800D01*
X153670000Y-108671800D02*
X153670000Y-107221000D01*
X153670000Y-107221000D02*
X152873700Y-106424700D01*
X152873700Y-106424700D02*
X146844400Y-106424700D01*
X146844400Y-106424700D02*
X146050000Y-107219100D01*
X146050000Y-107219100D02*
X146050000Y-108735700D01*
X146050000Y-108735700D02*
X137945700Y-116840000D01*
X137945700Y-116840000D02*
X111125000Y-116840000D01*
X104775000Y-119380000D02*
X105950300Y-119380000D01*
X157480000Y-107950000D02*
X157480000Y-109475300D01*
X102235000Y-121920000D02*
X103410300Y-121920000D01*
X111125000Y-121920000D02*
X109999700Y-121920000D01*
X109999700Y-121920000D02*
X108824400Y-123095300D01*
X108824400Y-123095300D02*
X104218200Y-123095300D01*
X104218200Y-123095300D02*
X103410300Y-122287400D01*
X103410300Y-122287400D02*
X103410300Y-121920000D01*
X193040000Y-120015000D02*
X191864700Y-120015000D01*
X170227400Y-123190000D02*
X172227100Y-121190300D01*
X172227100Y-121190300D02*
X191056800Y-121190300D01*
X191056800Y-121190300D02*
X191864700Y-120382400D01*
X191864700Y-120382400D02*
X191864700Y-120015000D01*
X170227400Y-123190000D02*
X169639700Y-123190000D01*
X170815000Y-123190000D02*
X170227400Y-123190000D01*
X154940000Y-123190000D02*
X154940000Y-124715300D01*
X154940000Y-124715300D02*
X168114400Y-124715300D01*
X168114400Y-124715300D02*
X169639700Y-123190000D01*
X111125000Y-119380000D02*
X109999700Y-119380000D01*
X109999700Y-119380000D02*
X107459700Y-121920000D01*
X107459700Y-121920000D02*
X104775000Y-121920000D01*
X149860000Y-109475300D02*
X140768300Y-118567000D01*
X140768300Y-118567000D02*
X116759200Y-118567000D01*
X116759200Y-118567000D02*
X107114200Y-128212000D01*
X107114200Y-128212000D02*
X104255000Y-128212000D01*
X104255000Y-128212000D02*
X103410300Y-127367300D01*
X103410300Y-127367300D02*
X103410300Y-127000000D01*
X149860000Y-107950000D02*
X149860000Y-109475300D01*
X102235000Y-127000000D02*
X103410300Y-127000000D01*
X147320000Y-109475300D02*
X138678700Y-118116600D01*
X138678700Y-118116600D02*
X116572700Y-118116600D01*
X116572700Y-118116600D02*
X107689300Y-127000000D01*
X107689300Y-127000000D02*
X105950300Y-127000000D01*
X147320000Y-107950000D02*
X147320000Y-109475300D01*
X104775000Y-127000000D02*
X105950300Y-127000000D01*
X129540000Y-123190000D02*
X129540000Y-121664700D01*
X155711200Y-120539700D02*
X153051400Y-120539700D01*
X153051400Y-120539700D02*
X151130000Y-122461100D01*
X151130000Y-122461100D02*
X151130000Y-123914100D01*
X151130000Y-123914100D02*
X150289200Y-124754900D01*
X150289200Y-124754900D02*
X146851100Y-124754900D01*
X146851100Y-124754900D02*
X146050000Y-123953800D01*
X146050000Y-123953800D02*
X146050000Y-122451500D01*
X146050000Y-122451500D02*
X145263200Y-121664700D01*
X145263200Y-121664700D02*
X129540000Y-121664700D01*
X129540000Y-123190000D02*
X129540000Y-124715300D01*
X102235000Y-129540000D02*
X103410300Y-129540000D01*
X103410300Y-129540000D02*
X103410300Y-129912700D01*
X103410300Y-129912700D02*
X104230000Y-130732400D01*
X104230000Y-130732400D02*
X123522900Y-130732400D01*
X123522900Y-130732400D02*
X129540000Y-124715300D01*
X163195000Y-94615000D02*
X160655000Y-94615000D01*
X152400000Y-109475300D02*
X142857900Y-119017400D01*
X142857900Y-119017400D02*
X116945700Y-119017400D01*
X116945700Y-119017400D02*
X106423100Y-129540000D01*
X106423100Y-129540000D02*
X105950300Y-129540000D01*
X104775000Y-129540000D02*
X105950300Y-129540000D01*
X191864700Y-117475000D02*
X191864700Y-116666900D01*
X191864700Y-116666900D02*
X191497500Y-116299700D01*
X191497500Y-116299700D02*
X159224400Y-116299700D01*
X159224400Y-116299700D02*
X152400000Y-109475300D01*
X193040000Y-117475000D02*
X191864700Y-117475000D01*
X152400000Y-107950000D02*
X152400000Y-109475300D01*
X104775000Y-71120000D02*
X102235000Y-71120000D01*
X104775000Y-73660000D02*
X102235000Y-73660000D01*
X147955000Y-68580000D02*
X149130300Y-68580000D01*
X165735000Y-68580000D02*
X164581300Y-67426300D01*
X164581300Y-67426300D02*
X150284000Y-67426300D01*
X150284000Y-67426300D02*
X149130300Y-68580000D01*
X158115000Y-97155000D02*
X158115000Y-95979700D01*
X158115000Y-88900000D02*
X158115000Y-90425300D01*
X158115000Y-90425300D02*
X159290300Y-91600600D01*
X159290300Y-91600600D02*
X159290300Y-95171800D01*
X159290300Y-95171800D02*
X158482400Y-95979700D01*
X158482400Y-95979700D02*
X158115000Y-95979700D01*
X180975000Y-85090000D02*
X175895000Y-85090000D01*
X175895000Y-86360000D02*
X175895000Y-87210300D01*
X180975000Y-88265000D02*
X176949700Y-88265000D01*
X176949700Y-88265000D02*
X175895000Y-87210300D01*
X137160000Y-76200000D02*
X137160000Y-77725300D01*
X139700000Y-81280000D02*
X139700000Y-80154700D01*
X137160000Y-77725300D02*
X137270600Y-77725300D01*
X137270600Y-77725300D02*
X139700000Y-80154700D01*
X137160000Y-68580000D02*
X134620000Y-68580000D01*
X168275000Y-81280000D02*
X168275000Y-79754700D01*
X158115000Y-81280000D02*
X158115000Y-79754700D01*
X158115000Y-79754700D02*
X168275000Y-79754700D01*
X165735000Y-88900000D02*
X165735000Y-87374700D01*
X155575000Y-88900000D02*
X155575000Y-87374700D01*
X165735000Y-87374700D02*
X155575000Y-87374700D01*
M02*
