G04 #@! TF.GenerationSoftware,KiCad,Pcbnew,(5.1.4)-1*
G04 #@! TF.CreationDate,2021-06-27T21:17:14+03:00*
G04 #@! TF.ProjectId,CPU,4350552e-6b69-4636-9164-5f7063625858,rev?*
G04 #@! TF.SameCoordinates,Original*
G04 #@! TF.FileFunction,Copper,L1,Top*
G04 #@! TF.FilePolarity,Positive*
%FSLAX46Y46*%
G04 Gerber Fmt 4.6, Leading zero omitted, Abs format (unit mm)*
G04 Created by KiCad (PCBNEW (5.1.4)-1) date 2021-06-27 21:17:14*
%MOMM*%
%LPD*%
G04 APERTURE LIST*
%ADD10O,1.600000X2.400000*%
%ADD11R,1.600000X2.400000*%
%ADD12O,1.700000X1.700000*%
%ADD13R,1.700000X1.700000*%
%ADD14C,1.600000*%
%ADD15R,1.600000X1.600000*%
%ADD16R,1.800000X1.800000*%
%ADD17C,1.800000*%
%ADD18O,1.600000X1.600000*%
%ADD19O,1.500000X1.050000*%
%ADD20R,1.500000X1.050000*%
%ADD21C,1.500000*%
%ADD22C,5.080000*%
%ADD23C,0.800000*%
%ADD24C,0.375000*%
%ADD25C,0.250000*%
G04 APERTURE END LIST*
D10*
X116840000Y-107950000D03*
X165100000Y-123190000D03*
X119380000Y-107950000D03*
X162560000Y-123190000D03*
X121920000Y-107950000D03*
X160020000Y-123190000D03*
X124460000Y-107950000D03*
X157480000Y-123190000D03*
X127000000Y-107950000D03*
X154940000Y-123190000D03*
X129540000Y-107950000D03*
X152400000Y-123190000D03*
X132080000Y-107950000D03*
X149860000Y-123190000D03*
X134620000Y-107950000D03*
X147320000Y-123190000D03*
X137160000Y-107950000D03*
X144780000Y-123190000D03*
X139700000Y-107950000D03*
X142240000Y-123190000D03*
X142240000Y-107950000D03*
X139700000Y-123190000D03*
X144780000Y-107950000D03*
X137160000Y-123190000D03*
X147320000Y-107950000D03*
X134620000Y-123190000D03*
X149860000Y-107950000D03*
X132080000Y-123190000D03*
X152400000Y-107950000D03*
X129540000Y-123190000D03*
X154940000Y-107950000D03*
X127000000Y-123190000D03*
X157480000Y-107950000D03*
X124460000Y-123190000D03*
X160020000Y-107950000D03*
X121920000Y-123190000D03*
X162560000Y-107950000D03*
X119380000Y-123190000D03*
X165100000Y-107950000D03*
D11*
X116840000Y-123190000D03*
D12*
X176276000Y-103632000D03*
X173736000Y-103632000D03*
X176276000Y-101092000D03*
X173736000Y-101092000D03*
X176276000Y-98552000D03*
D13*
X173736000Y-98552000D03*
D12*
X190500000Y-120015000D03*
X187960000Y-120015000D03*
X190500000Y-117475000D03*
D13*
X187960000Y-117475000D03*
D14*
X144780000Y-128270000D03*
X147280000Y-128270000D03*
X117515000Y-68580000D03*
X120015000Y-68580000D03*
X149225000Y-83820000D03*
X149225000Y-86320000D03*
X111125000Y-67350000D03*
D15*
X111125000Y-69850000D03*
D14*
X120015000Y-76200000D03*
X117515000Y-76200000D03*
X133564000Y-81534000D03*
X131064000Y-81534000D03*
D15*
X145415000Y-77470000D03*
D14*
X147915000Y-77470000D03*
D16*
X184785000Y-78105000D03*
D17*
X187325000Y-78105000D03*
D15*
X156845000Y-72390000D03*
D18*
X164465000Y-72390000D03*
D17*
X187325000Y-92075000D03*
D16*
X184785000Y-92075000D03*
D13*
X102235000Y-81280000D03*
D12*
X104775000Y-81280000D03*
X102235000Y-83820000D03*
X104775000Y-83820000D03*
X102235000Y-86360000D03*
X104775000Y-86360000D03*
X102235000Y-88900000D03*
X104775000Y-88900000D03*
X102235000Y-91440000D03*
X104775000Y-91440000D03*
X102235000Y-93980000D03*
X104775000Y-93980000D03*
X102235000Y-96520000D03*
X104775000Y-96520000D03*
X102235000Y-99060000D03*
X104775000Y-99060000D03*
X102235000Y-101600000D03*
X104775000Y-101600000D03*
X102235000Y-104140000D03*
X104775000Y-104140000D03*
X102235000Y-106680000D03*
X104775000Y-106680000D03*
X102235000Y-109220000D03*
X104775000Y-109220000D03*
X102235000Y-111760000D03*
X104775000Y-111760000D03*
X102235000Y-114300000D03*
X104775000Y-114300000D03*
X102235000Y-116840000D03*
X104775000Y-116840000D03*
X102235000Y-119380000D03*
X104775000Y-119380000D03*
X102235000Y-121920000D03*
X104775000Y-121920000D03*
X102235000Y-124460000D03*
X104775000Y-124460000D03*
X102235000Y-127000000D03*
X104775000Y-127000000D03*
X102235000Y-129540000D03*
X104775000Y-129540000D03*
D13*
X102235000Y-66040000D03*
D12*
X104775000Y-66040000D03*
X102235000Y-68580000D03*
X104775000Y-68580000D03*
X102235000Y-71120000D03*
X104775000Y-71120000D03*
X102235000Y-73660000D03*
X104775000Y-73660000D03*
X102235000Y-76200000D03*
X104775000Y-76200000D03*
X173355000Y-123190000D03*
D13*
X170815000Y-123190000D03*
X145415000Y-68580000D03*
D12*
X147955000Y-68580000D03*
D19*
X175895000Y-85090000D03*
X175895000Y-83820000D03*
D20*
X175895000Y-86360000D03*
D18*
X124460000Y-81280000D03*
D14*
X124460000Y-91440000D03*
X139700000Y-91440000D03*
D18*
X139700000Y-81280000D03*
X191135000Y-81915000D03*
D14*
X180975000Y-81915000D03*
X165735000Y-68580000D03*
D18*
X155575000Y-68580000D03*
D14*
X155575000Y-76200000D03*
D18*
X165735000Y-76200000D03*
D14*
X180975000Y-88265000D03*
D18*
X191135000Y-88265000D03*
X191135000Y-85090000D03*
D14*
X180975000Y-85090000D03*
D15*
X111125000Y-111760000D03*
D18*
X111125000Y-114300000D03*
X111125000Y-116840000D03*
X111125000Y-119380000D03*
X111125000Y-121920000D03*
D10*
X124460000Y-68580000D03*
X139700000Y-76200000D03*
X127000000Y-68580000D03*
X137160000Y-76200000D03*
X129540000Y-68580000D03*
X134620000Y-76200000D03*
X132080000Y-68580000D03*
X132080000Y-76200000D03*
X134620000Y-68580000D03*
X129540000Y-76200000D03*
X137160000Y-68580000D03*
X127000000Y-76200000D03*
X139700000Y-68580000D03*
D11*
X124460000Y-76200000D03*
X153035000Y-88900000D03*
D10*
X168275000Y-81280000D03*
X155575000Y-88900000D03*
X165735000Y-81280000D03*
X158115000Y-88900000D03*
X163195000Y-81280000D03*
X160655000Y-88900000D03*
X160655000Y-81280000D03*
X163195000Y-88900000D03*
X158115000Y-81280000D03*
X165735000Y-88900000D03*
X155575000Y-81280000D03*
X168275000Y-88900000D03*
X153035000Y-81280000D03*
D21*
X129540000Y-88265000D03*
X134420000Y-88265000D03*
D22*
X192405000Y-67945000D03*
X192405000Y-127635000D03*
D23*
X109369700Y-127902700D03*
X109874500Y-105012200D03*
D24*
X142240000Y-124777800D02*
X142240000Y-125730000D01*
X142240000Y-125730000D02*
X144780000Y-128270000D01*
X187960000Y-117475000D02*
X187960000Y-116237200D01*
X180975000Y-81915000D02*
X188692400Y-89632400D01*
X188692400Y-89632400D02*
X188692400Y-115504800D01*
X188692400Y-115504800D02*
X187960000Y-116237200D01*
X175895000Y-82907200D02*
X176887200Y-81915000D01*
X176887200Y-81915000D02*
X180975000Y-81915000D01*
X145415000Y-77470000D02*
X145415000Y-68580000D01*
X142240000Y-123190000D02*
X142240000Y-124777800D01*
X153035000Y-81280000D02*
X155575000Y-81280000D01*
X120015000Y-68580000D02*
X118745000Y-69850000D01*
X118745000Y-69850000D02*
X111125000Y-69850000D01*
X120015000Y-68580000D02*
X124460000Y-68580000D01*
X124460000Y-68580000D02*
X124460000Y-66992200D01*
X145415000Y-68580000D02*
X144177200Y-68580000D01*
X144177200Y-68580000D02*
X142589400Y-66992200D01*
X142589400Y-66992200D02*
X124460000Y-66992200D01*
X155575000Y-81280000D02*
X155575000Y-82867800D01*
X155575000Y-82867800D02*
X163195000Y-82867800D01*
X175895000Y-83820000D02*
X175895000Y-82907200D01*
X163195000Y-81280000D02*
X163195000Y-82867800D01*
X163195000Y-82867800D02*
X175855600Y-82867800D01*
X175855600Y-82867800D02*
X175895000Y-82907200D01*
X104775000Y-68580000D02*
X106012800Y-68580000D01*
X111125000Y-69850000D02*
X107282800Y-69850000D01*
X107282800Y-69850000D02*
X106012800Y-68580000D01*
X102235000Y-68580000D02*
X104775000Y-68580000D01*
D25*
X104775000Y-76200000D02*
X102235000Y-76200000D01*
X104775000Y-66040000D02*
X102235000Y-66040000D01*
X184785000Y-118015300D02*
X184785000Y-92075000D01*
X186897300Y-120015000D02*
X186784700Y-120015000D01*
X186784700Y-120015000D02*
X184785000Y-118015300D01*
X173355000Y-123190000D02*
X179610300Y-123190000D01*
X179610300Y-123190000D02*
X184785000Y-118015300D01*
X187960000Y-120015000D02*
X186897300Y-120015000D01*
X139700000Y-76200000D02*
X139700000Y-77725300D01*
X149225000Y-86320000D02*
X140630300Y-77725300D01*
X140630300Y-77725300D02*
X139700000Y-77725300D01*
X168275000Y-87374700D02*
X167220300Y-86320000D01*
X167220300Y-86320000D02*
X149225000Y-86320000D01*
X117515000Y-68580000D02*
X112355000Y-68580000D01*
X112355000Y-68580000D02*
X111125000Y-67350000D01*
X147280000Y-128270000D02*
X167907700Y-128270000D01*
X167907700Y-128270000D02*
X172179700Y-123998000D01*
X172179700Y-123998000D02*
X172179700Y-123190000D01*
X139700000Y-76200000D02*
X139700000Y-74674700D01*
X139700000Y-74674700D02*
X139231900Y-74206600D01*
X139231900Y-74206600D02*
X119508400Y-74206600D01*
X119508400Y-74206600D02*
X117515000Y-76200000D01*
X165735000Y-76200000D02*
X165735000Y-75074700D01*
X165735000Y-75074700D02*
X164465000Y-73804700D01*
X164465000Y-73804700D02*
X164465000Y-72390000D01*
X168275000Y-88900000D02*
X168275000Y-87374700D01*
X184785000Y-92075000D02*
X183559700Y-92075000D01*
X168275000Y-88900000D02*
X168275000Y-90425300D01*
X168275000Y-90425300D02*
X181910000Y-90425300D01*
X181910000Y-90425300D02*
X183559700Y-92075000D01*
X173355000Y-123190000D02*
X172179700Y-123190000D01*
X124460000Y-74674700D02*
X126813400Y-74674700D01*
X126813400Y-74674700D02*
X127000000Y-74861300D01*
X127000000Y-76200000D02*
X127000000Y-74861300D01*
X124460000Y-75437300D02*
X120777700Y-75437300D01*
X120777700Y-75437300D02*
X120015000Y-76200000D01*
X124460000Y-75437300D02*
X124460000Y-74674700D01*
X124460000Y-76200000D02*
X124460000Y-75437300D01*
X129540000Y-88265000D02*
X127635000Y-88265000D01*
X127635000Y-88265000D02*
X124460000Y-91440000D01*
X133564000Y-81534000D02*
X139700000Y-87670000D01*
X139700000Y-87670000D02*
X139700000Y-91440000D01*
X132080000Y-76200000D02*
X134620000Y-76200000D01*
X129540000Y-81280000D02*
X129794000Y-81534000D01*
X129794000Y-81534000D02*
X131064000Y-81534000D01*
X129540000Y-76200000D02*
X129540000Y-81280000D01*
X129540000Y-81280000D02*
X125585300Y-81280000D01*
X124460000Y-81280000D02*
X125585300Y-81280000D01*
X129540000Y-68580000D02*
X129540000Y-70105300D01*
X129540000Y-70105300D02*
X135787500Y-70105300D01*
X135787500Y-70105300D02*
X144277600Y-78595400D01*
X144277600Y-78595400D02*
X146789600Y-78595400D01*
X146789600Y-78595400D02*
X147915000Y-77470000D01*
X127000000Y-68580000D02*
X129540000Y-68580000D01*
X155575000Y-76200000D02*
X149185000Y-76200000D01*
X149185000Y-76200000D02*
X147915000Y-77470000D01*
X121920000Y-124715300D02*
X118732600Y-127902700D01*
X118732600Y-127902700D02*
X109369700Y-127902700D01*
X121920000Y-123190000D02*
X121920000Y-124715300D01*
X103410300Y-99060000D02*
X103410300Y-99427400D01*
X103410300Y-99427400D02*
X104218200Y-100235300D01*
X104218200Y-100235300D02*
X105097600Y-100235300D01*
X105097600Y-100235300D02*
X109874500Y-105012200D01*
X102235000Y-99060000D02*
X103410300Y-99060000D01*
X149860000Y-123190000D02*
X149860000Y-124715300D01*
X104775000Y-101600000D02*
X104775000Y-102775300D01*
X104775000Y-102775300D02*
X104407600Y-102775300D01*
X104407600Y-102775300D02*
X103599700Y-103583200D01*
X103599700Y-103583200D02*
X103599700Y-104459500D01*
X103599700Y-104459500D02*
X102649200Y-105410000D01*
X102649200Y-105410000D02*
X101753200Y-105410000D01*
X101753200Y-105410000D02*
X100111400Y-107051800D01*
X100111400Y-107051800D02*
X100111400Y-130493500D01*
X100111400Y-130493500D02*
X101740500Y-132122600D01*
X101740500Y-132122600D02*
X142576800Y-132122600D01*
X142576800Y-132122600D02*
X145905400Y-128794000D01*
X145905400Y-128794000D02*
X145905400Y-128002600D01*
X145905400Y-128002600D02*
X149192700Y-124715300D01*
X149192700Y-124715300D02*
X149860000Y-124715300D01*
X137160000Y-123190000D02*
X137160000Y-124715300D01*
X102235000Y-106680000D02*
X102235000Y-107855300D01*
X102235000Y-107855300D02*
X101867700Y-107855300D01*
X101867700Y-107855300D02*
X100585000Y-109138000D01*
X100585000Y-109138000D02*
X100585000Y-130247400D01*
X100585000Y-130247400D02*
X101991100Y-131653500D01*
X101991100Y-131653500D02*
X130221800Y-131653500D01*
X130221800Y-131653500D02*
X137160000Y-124715300D01*
X102235000Y-111760000D02*
X103410300Y-111760000D01*
X103410300Y-111760000D02*
X103410300Y-112127300D01*
X103410300Y-112127300D02*
X104231500Y-112948500D01*
X104231500Y-112948500D02*
X106035600Y-112948500D01*
X106035600Y-112948500D02*
X114398300Y-104585800D01*
X114398300Y-104585800D02*
X159319000Y-104585800D01*
X159319000Y-104585800D02*
X162560000Y-107826800D01*
X162560000Y-107826800D02*
X162560000Y-107950000D01*
X105950300Y-111760000D02*
X106587200Y-111760000D01*
X106587200Y-111760000D02*
X114227400Y-104119800D01*
X114227400Y-104119800D02*
X160785500Y-104119800D01*
X160785500Y-104119800D02*
X163830000Y-107164300D01*
X163830000Y-107164300D02*
X163830000Y-119719800D01*
X163830000Y-119719800D02*
X166242200Y-122132000D01*
X166242200Y-122132000D02*
X166242200Y-124089700D01*
X166242200Y-124089700D02*
X165607100Y-124724800D01*
X165607100Y-124724800D02*
X164094800Y-124724800D01*
X164094800Y-124724800D02*
X162560000Y-123190000D01*
X104775000Y-111760000D02*
X105950300Y-111760000D01*
X165100000Y-107950000D02*
X165100000Y-106424700D01*
X102235000Y-114300000D02*
X102235000Y-113124700D01*
X102235000Y-113124700D02*
X101867700Y-113124700D01*
X101867700Y-113124700D02*
X101035400Y-112292400D01*
X101035400Y-112292400D02*
X101035400Y-111292200D01*
X101035400Y-111292200D02*
X101837600Y-110490000D01*
X101837600Y-110490000D02*
X107220300Y-110490000D01*
X107220300Y-110490000D02*
X114040900Y-103669400D01*
X114040900Y-103669400D02*
X162344700Y-103669400D01*
X162344700Y-103669400D02*
X165100000Y-106424700D01*
X104775000Y-114300000D02*
X105321000Y-114300000D01*
X105321000Y-114300000D02*
X114584800Y-105036200D01*
X114584800Y-105036200D02*
X159111300Y-105036200D01*
X159111300Y-105036200D02*
X161290000Y-107214900D01*
X161290000Y-107214900D02*
X161290000Y-117854700D01*
X161290000Y-117854700D02*
X165100000Y-121664700D01*
X165100000Y-123190000D02*
X165100000Y-121664700D01*
X103410300Y-116840000D02*
X103410300Y-116472600D01*
X103410300Y-116472600D02*
X104218200Y-115664700D01*
X104218200Y-115664700D02*
X105157300Y-115664700D01*
X105157300Y-115664700D02*
X115328600Y-105493400D01*
X115328600Y-105493400D02*
X157563400Y-105493400D01*
X157563400Y-105493400D02*
X160020000Y-107950000D01*
X102235000Y-116840000D02*
X103410300Y-116840000D01*
X112250300Y-114300000D02*
X113375600Y-113174700D01*
X113375600Y-113174700D02*
X121275500Y-113174700D01*
X121275500Y-113174700D02*
X125730000Y-108720200D01*
X125730000Y-108720200D02*
X125730000Y-107228500D01*
X125730000Y-107228500D02*
X127014700Y-105943800D01*
X127014700Y-105943800D02*
X154459100Y-105943800D01*
X154459100Y-105943800D02*
X154940000Y-106424700D01*
X154940000Y-107950000D02*
X154940000Y-106424700D01*
X111125000Y-114300000D02*
X112250300Y-114300000D01*
X105950300Y-116840000D02*
X108490300Y-114300000D01*
X108490300Y-114300000D02*
X111125000Y-114300000D01*
X104775000Y-116840000D02*
X105950300Y-116840000D01*
X102235000Y-119380000D02*
X102235000Y-120555300D01*
X160020000Y-123190000D02*
X160020000Y-121664700D01*
X160020000Y-121664700D02*
X136678800Y-121664700D01*
X136678800Y-121664700D02*
X135890000Y-122453500D01*
X135890000Y-122453500D02*
X135890000Y-124008600D01*
X135890000Y-124008600D02*
X128695500Y-131203100D01*
X128695500Y-131203100D02*
X102225900Y-131203100D01*
X102225900Y-131203100D02*
X101059700Y-130036900D01*
X101059700Y-130036900D02*
X101059700Y-121363200D01*
X101059700Y-121363200D02*
X101867600Y-120555300D01*
X101867600Y-120555300D02*
X102235000Y-120555300D01*
X157480000Y-107950000D02*
X157480000Y-109475300D01*
X111125000Y-116840000D02*
X112250300Y-116840000D01*
X112250300Y-116840000D02*
X114603100Y-114487200D01*
X114603100Y-114487200D02*
X140271600Y-114487200D01*
X140271600Y-114487200D02*
X146050000Y-108708800D01*
X146050000Y-108708800D02*
X146050000Y-107209700D01*
X146050000Y-107209700D02*
X146835100Y-106424600D01*
X146835100Y-106424600D02*
X152873500Y-106424600D01*
X152873500Y-106424600D02*
X153596100Y-107147200D01*
X153596100Y-107147200D02*
X153596100Y-108638500D01*
X153596100Y-108638500D02*
X154432900Y-109475300D01*
X154432900Y-109475300D02*
X157480000Y-109475300D01*
X105950300Y-119380000D02*
X108490300Y-116840000D01*
X108490300Y-116840000D02*
X111125000Y-116840000D01*
X104775000Y-119380000D02*
X105950300Y-119380000D01*
X102235000Y-121920000D02*
X103410300Y-121920000D01*
X111125000Y-121920000D02*
X109999700Y-121920000D01*
X109999700Y-121920000D02*
X108824400Y-123095300D01*
X108824400Y-123095300D02*
X104218200Y-123095300D01*
X104218200Y-123095300D02*
X103410300Y-122287400D01*
X103410300Y-122287400D02*
X103410300Y-121920000D01*
X111125000Y-119380000D02*
X109999700Y-119380000D01*
X109999700Y-119380000D02*
X107459700Y-121920000D01*
X107459700Y-121920000D02*
X104775000Y-121920000D01*
X149860000Y-109475300D02*
X139674900Y-119660400D01*
X139674900Y-119660400D02*
X115684600Y-119660400D01*
X115684600Y-119660400D02*
X107141000Y-128204000D01*
X107141000Y-128204000D02*
X104247000Y-128204000D01*
X104247000Y-128204000D02*
X103410300Y-127367300D01*
X103410300Y-127367300D02*
X103410300Y-127000000D01*
X149860000Y-107950000D02*
X149860000Y-109475300D01*
X102235000Y-127000000D02*
X103410300Y-127000000D01*
X105950300Y-127000000D02*
X107708000Y-127000000D01*
X107708000Y-127000000D02*
X119770400Y-114937600D01*
X119770400Y-114937600D02*
X141857700Y-114937600D01*
X141857700Y-114937600D02*
X147320000Y-109475300D01*
X147320000Y-107950000D02*
X147320000Y-109475300D01*
X104775000Y-127000000D02*
X105950300Y-127000000D01*
X129540000Y-124715300D02*
X123502600Y-130752700D01*
X123502600Y-130752700D02*
X104255700Y-130752700D01*
X104255700Y-130752700D02*
X103410300Y-129907300D01*
X103410300Y-129907300D02*
X103410300Y-129540000D01*
X176276000Y-103632000D02*
X176276000Y-114692800D01*
X176276000Y-114692800D02*
X165793700Y-125175100D01*
X165793700Y-125175100D02*
X162549700Y-125175100D01*
X162549700Y-125175100D02*
X161290000Y-123915400D01*
X161290000Y-123915400D02*
X161290000Y-122257700D01*
X161290000Y-122257700D02*
X160246700Y-121214400D01*
X160246700Y-121214400D02*
X129990300Y-121214400D01*
X129990300Y-121214400D02*
X129540000Y-121664700D01*
X129540000Y-123190000D02*
X129540000Y-124715300D01*
X102235000Y-129540000D02*
X103410300Y-129540000D01*
X129540000Y-123190000D02*
X129540000Y-121664700D01*
X152400000Y-107950000D02*
X152400000Y-109475300D01*
X152400000Y-109475300D02*
X141764500Y-120110800D01*
X141764500Y-120110800D02*
X116135900Y-120110800D01*
X116135900Y-120110800D02*
X106706700Y-129540000D01*
X106706700Y-129540000D02*
X104775000Y-129540000D01*
X104775000Y-71120000D02*
X102235000Y-71120000D01*
X104775000Y-73660000D02*
X102235000Y-73660000D01*
X147955000Y-68580000D02*
X149130300Y-68580000D01*
X165735000Y-68580000D02*
X164581300Y-67426300D01*
X164581300Y-67426300D02*
X150284000Y-67426300D01*
X150284000Y-67426300D02*
X149130300Y-68580000D01*
X173736000Y-98552000D02*
X172560700Y-98552000D01*
X158115000Y-88900000D02*
X158115000Y-90425300D01*
X158115000Y-90425300D02*
X164434000Y-90425300D01*
X164434000Y-90425300D02*
X172560700Y-98552000D01*
X180975000Y-85090000D02*
X175895000Y-85090000D01*
X175895000Y-86360000D02*
X175895000Y-87210300D01*
X180975000Y-88265000D02*
X176949700Y-88265000D01*
X176949700Y-88265000D02*
X175895000Y-87210300D01*
X137160000Y-68580000D02*
X134620000Y-68580000D01*
X137160000Y-76200000D02*
X137160000Y-77725300D01*
X139700000Y-81280000D02*
X139700000Y-80154700D01*
X137160000Y-77725300D02*
X137270600Y-77725300D01*
X137270600Y-77725300D02*
X139700000Y-80154700D01*
X168275000Y-81280000D02*
X168275000Y-79754700D01*
X158115000Y-81280000D02*
X158115000Y-79754700D01*
X158115000Y-79754700D02*
X168275000Y-79754700D01*
X155575000Y-88900000D02*
X155575000Y-87374700D01*
X165735000Y-88900000D02*
X165735000Y-87374700D01*
X165735000Y-87374700D02*
X155575000Y-87374700D01*
M02*
