G04 #@! TF.GenerationSoftware,KiCad,Pcbnew,(5.1.4)-1*
G04 #@! TF.CreationDate,2021-06-26T17:24:00+03:00*
G04 #@! TF.ProjectId,CPU,4350552e-6b69-4636-9164-5f7063625858,rev?*
G04 #@! TF.SameCoordinates,Original*
G04 #@! TF.FileFunction,Copper,L2,Bot*
G04 #@! TF.FilePolarity,Positive*
%FSLAX46Y46*%
G04 Gerber Fmt 4.6, Leading zero omitted, Abs format (unit mm)*
G04 Created by KiCad (PCBNEW (5.1.4)-1) date 2021-06-26 17:24:00*
%MOMM*%
%LPD*%
G04 APERTURE LIST*
%ADD10O,1.700000X1.700000*%
%ADD11R,1.700000X1.700000*%
%ADD12C,1.600000*%
%ADD13O,1.600000X2.400000*%
%ADD14R,1.600000X2.400000*%
%ADD15R,1.600000X1.600000*%
%ADD16R,1.800000X1.800000*%
%ADD17C,1.800000*%
%ADD18O,1.600000X1.600000*%
%ADD19O,1.500000X1.050000*%
%ADD20R,1.500000X1.050000*%
%ADD21C,1.500000*%
%ADD22C,5.080000*%
%ADD23C,0.800000*%
%ADD24C,0.375000*%
%ADD25C,0.250000*%
%ADD26C,0.254000*%
G04 APERTURE END LIST*
D10*
X193040000Y-120015000D03*
X190500000Y-120015000D03*
X193040000Y-117475000D03*
D11*
X190500000Y-117475000D03*
D12*
X144780000Y-128270000D03*
X147280000Y-128270000D03*
D13*
X116840000Y-107950000D03*
X165100000Y-123190000D03*
X119380000Y-107950000D03*
X162560000Y-123190000D03*
X121920000Y-107950000D03*
X160020000Y-123190000D03*
X124460000Y-107950000D03*
X157480000Y-123190000D03*
X127000000Y-107950000D03*
X154940000Y-123190000D03*
X129540000Y-107950000D03*
X152400000Y-123190000D03*
X132080000Y-107950000D03*
X149860000Y-123190000D03*
X134620000Y-107950000D03*
X147320000Y-123190000D03*
X137160000Y-107950000D03*
X144780000Y-123190000D03*
X139700000Y-107950000D03*
X142240000Y-123190000D03*
X142240000Y-107950000D03*
X139700000Y-123190000D03*
X144780000Y-107950000D03*
X137160000Y-123190000D03*
X147320000Y-107950000D03*
X134620000Y-123190000D03*
X149860000Y-107950000D03*
X132080000Y-123190000D03*
X152400000Y-107950000D03*
X129540000Y-123190000D03*
X154940000Y-107950000D03*
X127000000Y-123190000D03*
X157480000Y-107950000D03*
X124460000Y-123190000D03*
X160020000Y-107950000D03*
X121920000Y-123190000D03*
X162560000Y-107950000D03*
X119380000Y-123190000D03*
X165100000Y-107950000D03*
D14*
X116840000Y-123190000D03*
D12*
X117515000Y-68580000D03*
X120015000Y-68580000D03*
X149225000Y-83820000D03*
X149225000Y-86320000D03*
X111125000Y-67350000D03*
D15*
X111125000Y-69850000D03*
D12*
X120015000Y-77470000D03*
X117515000Y-77470000D03*
X133310000Y-82550000D03*
X130810000Y-82550000D03*
D15*
X145415000Y-77470000D03*
D12*
X147915000Y-77470000D03*
D16*
X184785000Y-78105000D03*
D17*
X187325000Y-78105000D03*
D15*
X156845000Y-72390000D03*
D18*
X164465000Y-72390000D03*
D17*
X187325000Y-92075000D03*
D16*
X184785000Y-92075000D03*
D11*
X102235000Y-81280000D03*
D10*
X104775000Y-81280000D03*
X102235000Y-83820000D03*
X104775000Y-83820000D03*
X102235000Y-86360000D03*
X104775000Y-86360000D03*
X102235000Y-88900000D03*
X104775000Y-88900000D03*
X102235000Y-91440000D03*
X104775000Y-91440000D03*
X102235000Y-93980000D03*
X104775000Y-93980000D03*
X102235000Y-96520000D03*
X104775000Y-96520000D03*
X102235000Y-99060000D03*
X104775000Y-99060000D03*
X102235000Y-101600000D03*
X104775000Y-101600000D03*
X102235000Y-104140000D03*
X104775000Y-104140000D03*
X102235000Y-106680000D03*
X104775000Y-106680000D03*
X102235000Y-109220000D03*
X104775000Y-109220000D03*
X102235000Y-111760000D03*
X104775000Y-111760000D03*
X102235000Y-114300000D03*
X104775000Y-114300000D03*
X102235000Y-116840000D03*
X104775000Y-116840000D03*
X102235000Y-119380000D03*
X104775000Y-119380000D03*
X102235000Y-121920000D03*
X104775000Y-121920000D03*
X102235000Y-124460000D03*
X104775000Y-124460000D03*
X102235000Y-127000000D03*
X104775000Y-127000000D03*
X102235000Y-129540000D03*
X104775000Y-129540000D03*
D11*
X102235000Y-66040000D03*
D10*
X104775000Y-66040000D03*
X102235000Y-68580000D03*
X104775000Y-68580000D03*
X102235000Y-71120000D03*
X104775000Y-71120000D03*
X102235000Y-73660000D03*
X104775000Y-73660000D03*
X102235000Y-76200000D03*
X104775000Y-76200000D03*
X173355000Y-123190000D03*
D11*
X170815000Y-123190000D03*
X145415000Y-68580000D03*
D10*
X147955000Y-68580000D03*
D11*
X158115000Y-97155000D03*
D10*
X158115000Y-94615000D03*
X160655000Y-97155000D03*
X160655000Y-94615000D03*
X163195000Y-97155000D03*
X163195000Y-94615000D03*
D19*
X175895000Y-85090000D03*
X175895000Y-83820000D03*
D20*
X175895000Y-86360000D03*
D18*
X124460000Y-81280000D03*
D12*
X124460000Y-91440000D03*
X139700000Y-91440000D03*
D18*
X139700000Y-81280000D03*
X191135000Y-81915000D03*
D12*
X180975000Y-81915000D03*
X165735000Y-68580000D03*
D18*
X155575000Y-68580000D03*
D12*
X155575000Y-76200000D03*
D18*
X165735000Y-76200000D03*
D12*
X180975000Y-88265000D03*
D18*
X191135000Y-88265000D03*
X191135000Y-85090000D03*
D12*
X180975000Y-85090000D03*
D15*
X111125000Y-111760000D03*
D18*
X111125000Y-114300000D03*
X111125000Y-116840000D03*
X111125000Y-119380000D03*
X111125000Y-121920000D03*
D13*
X124460000Y-68580000D03*
X139700000Y-76200000D03*
X127000000Y-68580000D03*
X137160000Y-76200000D03*
X129540000Y-68580000D03*
X134620000Y-76200000D03*
X132080000Y-68580000D03*
X132080000Y-76200000D03*
X134620000Y-68580000D03*
X129540000Y-76200000D03*
X137160000Y-68580000D03*
X127000000Y-76200000D03*
X139700000Y-68580000D03*
D14*
X124460000Y-76200000D03*
X153035000Y-88900000D03*
D13*
X168275000Y-81280000D03*
X155575000Y-88900000D03*
X165735000Y-81280000D03*
X158115000Y-88900000D03*
X163195000Y-81280000D03*
X160655000Y-88900000D03*
X160655000Y-81280000D03*
X163195000Y-88900000D03*
X158115000Y-81280000D03*
X165735000Y-88900000D03*
X155575000Y-81280000D03*
X168275000Y-88900000D03*
X153035000Y-81280000D03*
D21*
X129540000Y-88265000D03*
X134420000Y-88265000D03*
D22*
X192405000Y-67945000D03*
X192405000Y-127635000D03*
D23*
X126271400Y-111760000D03*
X123790900Y-120539800D03*
X111588500Y-105315300D03*
X111280300Y-103686700D03*
X119307700Y-120539900D03*
X117174400Y-119814400D03*
X155711200Y-120539700D03*
D24*
X142240000Y-121602200D02*
X136113600Y-121602200D01*
X136113600Y-121602200D02*
X126271400Y-111760000D01*
X142240000Y-123190000D02*
X142240000Y-121602200D01*
X142240000Y-123538200D02*
X142240000Y-123190000D01*
X142240000Y-123538200D02*
X142240000Y-124640300D01*
X142240000Y-124640300D02*
X142240000Y-125730000D01*
X142240000Y-125730000D02*
X144780000Y-128270000D01*
X145415000Y-77470000D02*
X145415000Y-78657800D01*
X149225000Y-83820000D02*
X149225000Y-82467800D01*
X149225000Y-82467800D02*
X145415000Y-78657800D01*
X152717200Y-83820000D02*
X149225000Y-83820000D01*
X153607900Y-91060700D02*
X153607900Y-124063900D01*
X153607900Y-124063900D02*
X148213800Y-129458000D01*
X148213800Y-129458000D02*
X145968000Y-129458000D01*
X145968000Y-129458000D02*
X144780000Y-128270000D01*
X153035000Y-90487800D02*
X153607900Y-91060700D01*
X153607900Y-91060700D02*
X160082100Y-91060700D01*
X160082100Y-91060700D02*
X160655000Y-90487800D01*
X160655000Y-88900000D02*
X160655000Y-90487800D01*
X153035000Y-81280000D02*
X153035000Y-82867800D01*
X152717200Y-83820000D02*
X152717200Y-86994400D01*
X152717200Y-86994400D02*
X153035000Y-87312200D01*
X153035000Y-82867800D02*
X152717200Y-83185600D01*
X152717200Y-83185600D02*
X152717200Y-83820000D01*
X153035000Y-88900000D02*
X153035000Y-87312200D01*
X153035000Y-89333500D02*
X153035000Y-88900000D01*
X153035000Y-89333500D02*
X153035000Y-90487800D01*
X190500000Y-117475000D02*
X190500000Y-116237200D01*
X180975000Y-81915000D02*
X182562500Y-83502500D01*
X182562500Y-83502500D02*
X191269200Y-83502500D01*
X191269200Y-83502500D02*
X192376900Y-84610200D01*
X192376900Y-84610200D02*
X192376900Y-114360300D01*
X192376900Y-114360300D02*
X190500000Y-116237200D01*
X145415000Y-68580000D02*
X145415000Y-77470000D01*
D25*
X117515000Y-68580000D02*
X112355000Y-68580000D01*
X112355000Y-68580000D02*
X111125000Y-67350000D01*
X117515000Y-77470000D02*
X117515000Y-68580000D01*
X139700000Y-76200000D02*
X139700000Y-77725300D01*
X149225000Y-86320000D02*
X140630300Y-77725300D01*
X140630300Y-77725300D02*
X139700000Y-77725300D01*
X144780000Y-109475300D02*
X146050000Y-110745300D01*
X146050000Y-110745300D02*
X146050000Y-127040000D01*
X146050000Y-127040000D02*
X147280000Y-128270000D01*
X173355000Y-123190000D02*
X174530300Y-123190000D01*
X184785000Y-113932700D02*
X189692000Y-118839700D01*
X189692000Y-118839700D02*
X190500000Y-118839700D01*
X184785000Y-92075000D02*
X184785000Y-113932700D01*
X184785000Y-113932700D02*
X183787600Y-113932700D01*
X183787600Y-113932700D02*
X174530300Y-123190000D01*
X165735000Y-76200000D02*
X165735000Y-77325300D01*
X168275000Y-88900000D02*
X168275000Y-87374700D01*
X168275000Y-87374700D02*
X166860300Y-85960000D01*
X166860300Y-85960000D02*
X166860300Y-78450600D01*
X166860300Y-78450600D02*
X165735000Y-77325300D01*
X103909000Y-66716600D02*
X104098400Y-66716600D01*
X104098400Y-66716600D02*
X104775000Y-66040000D01*
X103909000Y-66716600D02*
X103599700Y-67025900D01*
X103599700Y-67025900D02*
X103599700Y-74216800D01*
X103599700Y-74216800D02*
X104407600Y-75024700D01*
X103410300Y-66040000D02*
X103410300Y-66217900D01*
X103410300Y-66217900D02*
X103909000Y-66716600D01*
X104775000Y-66040000D02*
X105950300Y-66040000D01*
X111125000Y-67350000D02*
X107260300Y-67350000D01*
X107260300Y-67350000D02*
X105950300Y-66040000D01*
X102235000Y-66040000D02*
X103410300Y-66040000D01*
X104407600Y-75024700D02*
X104775000Y-75024700D01*
X104407600Y-75024700D02*
X103410300Y-76022000D01*
X103410300Y-76022000D02*
X103410300Y-76200000D01*
X102235000Y-76200000D02*
X103410300Y-76200000D01*
X104775000Y-76200000D02*
X104775000Y-75024700D01*
X190500000Y-120015000D02*
X190500000Y-118839700D01*
X144780000Y-107950000D02*
X144780000Y-109475300D01*
X127000000Y-76200000D02*
X127000000Y-77725300D01*
X129540000Y-88265000D02*
X129540000Y-80265300D01*
X129540000Y-80265300D02*
X127000000Y-77725300D01*
X132080000Y-77725300D02*
X133310000Y-78955300D01*
X133310000Y-78955300D02*
X133310000Y-82550000D01*
X132080000Y-76200000D02*
X132080000Y-77725300D01*
X155575000Y-68580000D02*
X155575000Y-69705300D01*
X155575000Y-69705300D02*
X156845000Y-70975300D01*
X156845000Y-70975300D02*
X156845000Y-72390000D01*
X155575000Y-76200000D02*
X156845000Y-74930000D01*
X156845000Y-74930000D02*
X156845000Y-72390000D01*
X191135000Y-81915000D02*
X190009700Y-81915000D01*
X190009700Y-81915000D02*
X190009700Y-80789700D01*
X190009700Y-80789700D02*
X187325000Y-78105000D01*
X103410300Y-81280000D02*
X103410300Y-81647400D01*
X103410300Y-81647400D02*
X104404800Y-82641900D01*
X104404800Y-82641900D02*
X114014100Y-82641900D01*
X114014100Y-82641900D02*
X139322200Y-107950000D01*
X139322200Y-107950000D02*
X139700000Y-107950000D01*
X102235000Y-81280000D02*
X103410300Y-81280000D01*
X104775000Y-81280000D02*
X117095300Y-81280000D01*
X117095300Y-81280000D02*
X142240000Y-106424700D01*
X142240000Y-107950000D02*
X142240000Y-106424700D01*
X134620000Y-107950000D02*
X134620000Y-106424700D01*
X102235000Y-83820000D02*
X103410300Y-83820000D01*
X103410300Y-83820000D02*
X103410300Y-84187400D01*
X103410300Y-84187400D02*
X104218200Y-84995300D01*
X104218200Y-84995300D02*
X113190600Y-84995300D01*
X113190600Y-84995300D02*
X134620000Y-106424700D01*
X104775000Y-83820000D02*
X114555300Y-83820000D01*
X114555300Y-83820000D02*
X137160000Y-106424700D01*
X137160000Y-107950000D02*
X137160000Y-106424700D01*
X129540000Y-107950000D02*
X129540000Y-106424700D01*
X102235000Y-86360000D02*
X103410300Y-86360000D01*
X103410300Y-86360000D02*
X103410300Y-86727400D01*
X103410300Y-86727400D02*
X104218200Y-87535300D01*
X104218200Y-87535300D02*
X110650600Y-87535300D01*
X110650600Y-87535300D02*
X129540000Y-106424700D01*
X104775000Y-86360000D02*
X112015300Y-86360000D01*
X112015300Y-86360000D02*
X132080000Y-106424700D01*
X132080000Y-107950000D02*
X132080000Y-106424700D01*
X124460000Y-107950000D02*
X124460000Y-106424700D01*
X102235000Y-88900000D02*
X103410300Y-88900000D01*
X103410300Y-88900000D02*
X103410300Y-89267400D01*
X103410300Y-89267400D02*
X104218200Y-90075300D01*
X104218200Y-90075300D02*
X108110600Y-90075300D01*
X108110600Y-90075300D02*
X124460000Y-106424700D01*
X127000000Y-107950000D02*
X127000000Y-106424700D01*
X104775000Y-88900000D02*
X109475300Y-88900000D01*
X109475300Y-88900000D02*
X127000000Y-106424700D01*
X119380000Y-107950000D02*
X119380000Y-106424700D01*
X102235000Y-91440000D02*
X103410300Y-91440000D01*
X103410300Y-91440000D02*
X103410300Y-91807400D01*
X103410300Y-91807400D02*
X104218200Y-92615300D01*
X104218200Y-92615300D02*
X105570600Y-92615300D01*
X105570600Y-92615300D02*
X119380000Y-106424700D01*
X121920000Y-107950000D02*
X121920000Y-106424700D01*
X104775000Y-91440000D02*
X105950300Y-91440000D01*
X105950300Y-91440000D02*
X120935000Y-106424700D01*
X120935000Y-106424700D02*
X121920000Y-106424700D01*
X116840000Y-123190000D02*
X116840000Y-121664700D01*
X102235000Y-93980000D02*
X102235000Y-95155300D01*
X102235000Y-95155300D02*
X101867700Y-95155300D01*
X101867700Y-95155300D02*
X100571400Y-96451600D01*
X100571400Y-96451600D02*
X100571400Y-109218800D01*
X100571400Y-109218800D02*
X101937200Y-110584600D01*
X101937200Y-110584600D02*
X102760600Y-110584600D01*
X102760600Y-110584600D02*
X103599600Y-111423600D01*
X103599600Y-111423600D02*
X103599600Y-112285600D01*
X103599600Y-112285600D02*
X104344000Y-113030000D01*
X104344000Y-113030000D02*
X105247500Y-113030000D01*
X105247500Y-113030000D02*
X110327500Y-118110000D01*
X110327500Y-118110000D02*
X113285300Y-118110000D01*
X113285300Y-118110000D02*
X116840000Y-121664700D01*
X116840000Y-107950000D02*
X116840000Y-106424700D01*
X104775000Y-93980000D02*
X104775000Y-95155300D01*
X104775000Y-95155300D02*
X105570600Y-95155300D01*
X105570600Y-95155300D02*
X116840000Y-106424700D01*
X102235000Y-97695300D02*
X101867600Y-97695300D01*
X101867600Y-97695300D02*
X101059700Y-98503200D01*
X101059700Y-98503200D02*
X101059700Y-102151600D01*
X101059700Y-102151600D02*
X101683500Y-102775400D01*
X101683500Y-102775400D02*
X102534600Y-102775400D01*
X102534600Y-102775400D02*
X103599600Y-103840400D01*
X103599600Y-103840400D02*
X103599600Y-104665600D01*
X103599600Y-104665600D02*
X104343900Y-105409900D01*
X104343900Y-105409900D02*
X107570900Y-105409900D01*
X107570900Y-105409900D02*
X111040100Y-108879100D01*
X111040100Y-108879100D02*
X111616100Y-108879100D01*
X111616100Y-108879100D02*
X121920000Y-119183000D01*
X121920000Y-119183000D02*
X121920000Y-121664700D01*
X102235000Y-96520000D02*
X102235000Y-97695300D01*
X121920000Y-123190000D02*
X121920000Y-121664700D01*
X119380000Y-124715300D02*
X120294100Y-125629400D01*
X120294100Y-125629400D02*
X131734500Y-125629400D01*
X131734500Y-125629400D02*
X133261400Y-124102500D01*
X133261400Y-124102500D02*
X133261400Y-122365200D01*
X133261400Y-122365200D02*
X123141900Y-112245700D01*
X123141900Y-112245700D02*
X117530300Y-112245700D01*
X117530300Y-112245700D02*
X111912100Y-106627500D01*
X111912100Y-106627500D02*
X111874800Y-106627500D01*
X111874800Y-106627500D02*
X109690400Y-104443100D01*
X109690400Y-104443100D02*
X109690400Y-102299100D01*
X109690400Y-102299100D02*
X105086600Y-97695300D01*
X105086600Y-97695300D02*
X104775000Y-97695300D01*
X119380000Y-123190000D02*
X119380000Y-124715300D01*
X104775000Y-96520000D02*
X104775000Y-97695300D01*
X102235000Y-100235300D02*
X102602400Y-100235300D01*
X102602400Y-100235300D02*
X103410300Y-101043200D01*
X103410300Y-101043200D02*
X103410300Y-101900000D01*
X103410300Y-101900000D02*
X104380300Y-102870000D01*
X104380300Y-102870000D02*
X105689900Y-102870000D01*
X105689900Y-102870000D02*
X111248700Y-108428800D01*
X111248700Y-108428800D02*
X111802700Y-108428800D01*
X111802700Y-108428800D02*
X123045400Y-119671500D01*
X123045400Y-119671500D02*
X123045400Y-123779900D01*
X123045400Y-123779900D02*
X123980800Y-124715300D01*
X123980800Y-124715300D02*
X127000000Y-124715300D01*
X127000000Y-123190000D02*
X127000000Y-124715300D01*
X102235000Y-99060000D02*
X102235000Y-100235300D01*
X124460000Y-123190000D02*
X124460000Y-121664700D01*
X104775000Y-99060000D02*
X104775000Y-100235300D01*
X104775000Y-100235300D02*
X105075200Y-100235300D01*
X105075200Y-100235300D02*
X109015000Y-104175100D01*
X109015000Y-104175100D02*
X109015000Y-104442300D01*
X109015000Y-104442300D02*
X111650600Y-107077900D01*
X111650600Y-107077900D02*
X111725600Y-107077900D01*
X111725600Y-107077900D02*
X124536000Y-119888300D01*
X124536000Y-119888300D02*
X124536000Y-121588700D01*
X124536000Y-121588700D02*
X124460000Y-121664700D01*
X104775000Y-101600000D02*
X105292200Y-101600000D01*
X105292200Y-101600000D02*
X111445600Y-107753400D01*
X111445600Y-107753400D02*
X111764200Y-107753400D01*
X111764200Y-107753400D02*
X123790900Y-119780100D01*
X123790900Y-119780100D02*
X123790900Y-120539800D01*
X134620000Y-121664700D02*
X123378800Y-110423500D01*
X123378800Y-110423500D02*
X116660600Y-110423500D01*
X116660600Y-110423500D02*
X111588500Y-105351400D01*
X111588500Y-105351400D02*
X111588500Y-105315300D01*
X134620000Y-123190000D02*
X134620000Y-121664700D01*
X144780000Y-121664700D02*
X132590700Y-109475400D01*
X132590700Y-109475400D02*
X116373900Y-109475400D01*
X116373900Y-109475400D02*
X113352900Y-106454400D01*
X113352900Y-106454400D02*
X113352900Y-105759300D01*
X113352900Y-105759300D02*
X111280300Y-103686700D01*
X144780000Y-123190000D02*
X144780000Y-121664700D01*
X105950300Y-106680000D02*
X108011100Y-106680000D01*
X108011100Y-106680000D02*
X110660500Y-109329400D01*
X110660500Y-109329400D02*
X111429500Y-109329400D01*
X111429500Y-109329400D02*
X120650000Y-118549900D01*
X120650000Y-118549900D02*
X120650000Y-123911700D01*
X120650000Y-123911700D02*
X121917300Y-125179000D01*
X121917300Y-125179000D02*
X130091000Y-125179000D01*
X130091000Y-125179000D02*
X132080000Y-123190000D01*
X104775000Y-106680000D02*
X105950300Y-106680000D01*
X103410300Y-109220000D02*
X103410300Y-108852700D01*
X103410300Y-108852700D02*
X104228800Y-108034200D01*
X104228800Y-108034200D02*
X108728400Y-108034200D01*
X108728400Y-108034200D02*
X110473900Y-109779700D01*
X110473900Y-109779700D02*
X111242900Y-109779700D01*
X111242900Y-109779700D02*
X119307700Y-117844500D01*
X119307700Y-117844500D02*
X119307700Y-120539900D01*
X102235000Y-109220000D02*
X103410300Y-109220000D01*
X139700000Y-123190000D02*
X139700000Y-124715300D01*
X104775000Y-109220000D02*
X105950300Y-109220000D01*
X105950300Y-109220000D02*
X109615700Y-112885400D01*
X109615700Y-112885400D02*
X111319300Y-112885400D01*
X111319300Y-112885400D02*
X117965400Y-119531500D01*
X117965400Y-119531500D02*
X117965400Y-123937600D01*
X117965400Y-123937600D02*
X120109400Y-126081600D01*
X120109400Y-126081600D02*
X138333700Y-126081600D01*
X138333700Y-126081600D02*
X139700000Y-124715300D01*
X105950300Y-111760000D02*
X109760300Y-115570000D01*
X109760300Y-115570000D02*
X112930000Y-115570000D01*
X112930000Y-115570000D02*
X117174400Y-119814400D01*
X104775000Y-111760000D02*
X105950300Y-111760000D01*
X165100000Y-123190000D02*
X165100000Y-124715300D01*
X104775000Y-114300000D02*
X104775000Y-115475300D01*
X104775000Y-115475300D02*
X104407600Y-115475300D01*
X104407600Y-115475300D02*
X103599700Y-116283200D01*
X103599700Y-116283200D02*
X103599700Y-117176300D01*
X103599700Y-117176300D02*
X102666000Y-118110000D01*
X102666000Y-118110000D02*
X101814300Y-118110000D01*
X101814300Y-118110000D02*
X101053900Y-118870400D01*
X101053900Y-118870400D02*
X101053900Y-122427200D01*
X101053900Y-122427200D02*
X101816700Y-123190000D01*
X101816700Y-123190000D02*
X107426400Y-123190000D01*
X107426400Y-123190000D02*
X115581600Y-131345200D01*
X115581600Y-131345200D02*
X158470100Y-131345200D01*
X158470100Y-131345200D02*
X165100000Y-124715300D01*
X160020000Y-123190000D02*
X160020000Y-121664700D01*
X191135000Y-85090000D02*
X189497500Y-85090000D01*
X189497500Y-85090000D02*
X170543100Y-104044400D01*
X170543100Y-104044400D02*
X170543100Y-111141600D01*
X170543100Y-111141600D02*
X160020000Y-121664700D01*
X103410300Y-119380000D02*
X103410300Y-119747400D01*
X103410300Y-119747400D02*
X104218200Y-120555300D01*
X104218200Y-120555300D02*
X107485300Y-120555300D01*
X107485300Y-120555300D02*
X117817000Y-130887000D01*
X117817000Y-130887000D02*
X153848300Y-130887000D01*
X153848300Y-130887000D02*
X160020000Y-124715300D01*
X160020000Y-123190000D02*
X160020000Y-124715300D01*
X102235000Y-119380000D02*
X103410300Y-119380000D01*
X111125000Y-121920000D02*
X112250300Y-121920000D01*
X112250300Y-121920000D02*
X120316000Y-129985700D01*
X120316000Y-129985700D02*
X149669600Y-129985700D01*
X149669600Y-129985700D02*
X154940000Y-124715300D01*
X154940000Y-123190000D02*
X154940000Y-124715300D01*
X157480000Y-123190000D02*
X157480000Y-124715300D01*
X111125000Y-119380000D02*
X111125000Y-120505300D01*
X111125000Y-120505300D02*
X110843700Y-120505300D01*
X110843700Y-120505300D02*
X109985100Y-121363900D01*
X109985100Y-121363900D02*
X109985100Y-122418200D01*
X109985100Y-122418200D02*
X118003600Y-130436700D01*
X118003600Y-130436700D02*
X151758600Y-130436700D01*
X151758600Y-130436700D02*
X157480000Y-124715300D01*
X163195000Y-97155000D02*
X163195000Y-98330300D01*
X163195000Y-98330300D02*
X156210000Y-105315300D01*
X156210000Y-105315300D02*
X156210000Y-120040900D01*
X156210000Y-120040900D02*
X155711200Y-120539700D01*
X163195000Y-94615000D02*
X163195000Y-97155000D01*
X132080000Y-68580000D02*
X132080000Y-70105300D01*
X132080000Y-70105300D02*
X135890000Y-73915300D01*
X135890000Y-73915300D02*
X135890000Y-76960700D01*
X135890000Y-76960700D02*
X138441200Y-79511900D01*
X138441200Y-79511900D02*
X139554000Y-79511900D01*
X139554000Y-79511900D02*
X152400000Y-92357900D01*
X152400000Y-92357900D02*
X152400000Y-107950000D01*
X139700000Y-68580000D02*
X139700000Y-67054700D01*
X158115000Y-88900000D02*
X158115000Y-87374700D01*
X158115000Y-87374700D02*
X154305000Y-83564700D01*
X154305000Y-83564700D02*
X154305000Y-76830200D01*
X154305000Y-76830200D02*
X146590400Y-69115600D01*
X146590400Y-69115600D02*
X146590400Y-67511500D01*
X146590400Y-67511500D02*
X146133600Y-67054700D01*
X146133600Y-67054700D02*
X139700000Y-67054700D01*
X158115000Y-94615000D02*
X159290300Y-94615000D01*
X163195000Y-88900000D02*
X163195000Y-90425300D01*
X163195000Y-90425300D02*
X163083700Y-90425300D01*
X163083700Y-90425300D02*
X159290300Y-94218700D01*
X159290300Y-94218700D02*
X159290300Y-94615000D01*
X160655000Y-82805300D02*
X163195000Y-85345300D01*
X163195000Y-85345300D02*
X163195000Y-88900000D01*
X160655000Y-81280000D02*
X160655000Y-82805300D01*
X160655000Y-97155000D02*
X160655000Y-95979700D01*
X165735000Y-81280000D02*
X165735000Y-82805300D01*
X165735000Y-82805300D02*
X164572200Y-83968100D01*
X164572200Y-83968100D02*
X164572200Y-90349300D01*
X164572200Y-90349300D02*
X161830300Y-93091200D01*
X161830300Y-93091200D02*
X161830300Y-95171800D01*
X161830300Y-95171800D02*
X161022400Y-95979700D01*
X161022400Y-95979700D02*
X160655000Y-95979700D01*
X134420000Y-88265000D02*
X139700000Y-82985000D01*
X139700000Y-82985000D02*
X139700000Y-81280000D01*
X137160000Y-68580000D02*
X137160000Y-76200000D01*
D26*
G36*
X196825001Y-132055000D02*
G01*
X158748323Y-132055000D01*
X158762347Y-132050746D01*
X158894376Y-131980174D01*
X159010101Y-131885201D01*
X159033904Y-131856197D01*
X163567812Y-127322290D01*
X189230000Y-127322290D01*
X189230000Y-127947710D01*
X189352014Y-128561113D01*
X189591352Y-129138926D01*
X189938817Y-129658944D01*
X190381056Y-130101183D01*
X190901074Y-130448648D01*
X191478887Y-130687986D01*
X192092290Y-130810000D01*
X192717710Y-130810000D01*
X193331113Y-130687986D01*
X193908926Y-130448648D01*
X194428944Y-130101183D01*
X194871183Y-129658944D01*
X195218648Y-129138926D01*
X195457986Y-128561113D01*
X195580000Y-127947710D01*
X195580000Y-127322290D01*
X195457986Y-126708887D01*
X195218648Y-126131074D01*
X194871183Y-125611056D01*
X194428944Y-125168817D01*
X193908926Y-124821352D01*
X193331113Y-124582014D01*
X192717710Y-124460000D01*
X192092290Y-124460000D01*
X191478887Y-124582014D01*
X190901074Y-124821352D01*
X190381056Y-125168817D01*
X189938817Y-125611056D01*
X189591352Y-126131074D01*
X189352014Y-126708887D01*
X189230000Y-127322290D01*
X163567812Y-127322290D01*
X165611008Y-125279095D01*
X165640001Y-125255301D01*
X165663795Y-125226308D01*
X165663799Y-125226304D01*
X165734973Y-125139577D01*
X165734974Y-125139576D01*
X165805546Y-125007547D01*
X165849003Y-124864286D01*
X165853942Y-124814139D01*
X165901101Y-124788932D01*
X166119608Y-124609608D01*
X166298932Y-124391101D01*
X166432182Y-124141808D01*
X166514236Y-123871309D01*
X166535000Y-123660491D01*
X166535000Y-122719508D01*
X166514236Y-122508691D01*
X166463065Y-122340000D01*
X169326928Y-122340000D01*
X169326928Y-124040000D01*
X169339188Y-124164482D01*
X169375498Y-124284180D01*
X169434463Y-124394494D01*
X169513815Y-124491185D01*
X169610506Y-124570537D01*
X169720820Y-124629502D01*
X169840518Y-124665812D01*
X169965000Y-124678072D01*
X171665000Y-124678072D01*
X171789482Y-124665812D01*
X171909180Y-124629502D01*
X172019494Y-124570537D01*
X172116185Y-124491185D01*
X172195537Y-124394494D01*
X172254502Y-124284180D01*
X172277498Y-124208374D01*
X172473645Y-124385178D01*
X172723748Y-124534157D01*
X172998109Y-124631481D01*
X173228000Y-124510814D01*
X173228000Y-123317000D01*
X173482000Y-123317000D01*
X173482000Y-124510814D01*
X173711891Y-124631481D01*
X173986252Y-124534157D01*
X174236355Y-124385178D01*
X174452588Y-124190269D01*
X174626641Y-123956920D01*
X174751825Y-123694099D01*
X174796476Y-123546890D01*
X174675155Y-123317000D01*
X173482000Y-123317000D01*
X173228000Y-123317000D01*
X173208000Y-123317000D01*
X173208000Y-123063000D01*
X173228000Y-123063000D01*
X173228000Y-121869186D01*
X173482000Y-121869186D01*
X173482000Y-123063000D01*
X174675155Y-123063000D01*
X174796476Y-122833110D01*
X174751825Y-122685901D01*
X174626641Y-122423080D01*
X174452588Y-122189731D01*
X174236355Y-121994822D01*
X173986252Y-121845843D01*
X173711891Y-121748519D01*
X173482000Y-121869186D01*
X173228000Y-121869186D01*
X172998109Y-121748519D01*
X172723748Y-121845843D01*
X172473645Y-121994822D01*
X172277498Y-122171626D01*
X172254502Y-122095820D01*
X172195537Y-121985506D01*
X172116185Y-121888815D01*
X172019494Y-121809463D01*
X171909180Y-121750498D01*
X171789482Y-121714188D01*
X171665000Y-121701928D01*
X169965000Y-121701928D01*
X169840518Y-121714188D01*
X169720820Y-121750498D01*
X169610506Y-121809463D01*
X169513815Y-121888815D01*
X169434463Y-121985506D01*
X169375498Y-122095820D01*
X169339188Y-122215518D01*
X169326928Y-122340000D01*
X166463065Y-122340000D01*
X166432182Y-122238192D01*
X166298932Y-121988899D01*
X166119607Y-121770392D01*
X165901100Y-121591068D01*
X165651807Y-121457818D01*
X165381308Y-121375764D01*
X165100000Y-121348057D01*
X164818691Y-121375764D01*
X164548192Y-121457818D01*
X164298899Y-121591068D01*
X164080392Y-121770393D01*
X163901068Y-121988900D01*
X163830000Y-122121858D01*
X163758932Y-121988899D01*
X163579607Y-121770392D01*
X163361100Y-121591068D01*
X163111807Y-121457818D01*
X162841308Y-121375764D01*
X162560000Y-121348057D01*
X162278691Y-121375764D01*
X162008192Y-121457818D01*
X161758899Y-121591068D01*
X161540392Y-121770393D01*
X161361068Y-121988900D01*
X161290000Y-122121858D01*
X161218932Y-121988899D01*
X161039607Y-121770392D01*
X161011871Y-121747630D01*
X162387611Y-120371890D01*
X189058524Y-120371890D01*
X189103175Y-120519099D01*
X189228359Y-120781920D01*
X189402412Y-121015269D01*
X189618645Y-121210178D01*
X189868748Y-121359157D01*
X190143109Y-121456481D01*
X190373000Y-121335814D01*
X190373000Y-120142000D01*
X189179845Y-120142000D01*
X189058524Y-120371890D01*
X162387611Y-120371890D01*
X171054103Y-111705399D01*
X171083101Y-111681601D01*
X171178074Y-111565876D01*
X171248646Y-111433847D01*
X171292103Y-111290586D01*
X171303100Y-111178933D01*
X171303100Y-111178925D01*
X171306776Y-111141600D01*
X171303100Y-111104275D01*
X171303100Y-104359201D01*
X183249741Y-92412561D01*
X183246928Y-92975000D01*
X183259188Y-93099482D01*
X183295498Y-93219180D01*
X183354463Y-93329494D01*
X183433815Y-93426185D01*
X183530506Y-93505537D01*
X183640820Y-93564502D01*
X183760518Y-93600812D01*
X183885000Y-93613072D01*
X184499250Y-93610000D01*
X184658000Y-93451250D01*
X184658000Y-92202000D01*
X184638000Y-92202000D01*
X184638000Y-91948000D01*
X184658000Y-91948000D01*
X184658000Y-91928000D01*
X184912000Y-91928000D01*
X184912000Y-91948000D01*
X184932000Y-91948000D01*
X184932000Y-92202000D01*
X184912000Y-92202000D01*
X184912000Y-93451250D01*
X185070750Y-93610000D01*
X185685000Y-93613072D01*
X185809482Y-93600812D01*
X185929180Y-93564502D01*
X186039494Y-93505537D01*
X186136185Y-93426185D01*
X186215537Y-93329494D01*
X186274502Y-93219180D01*
X186280056Y-93200873D01*
X186346495Y-93267312D01*
X186597905Y-93435299D01*
X186877257Y-93551011D01*
X187173816Y-93610000D01*
X187476184Y-93610000D01*
X187772743Y-93551011D01*
X188052095Y-93435299D01*
X188303505Y-93267312D01*
X188517312Y-93053505D01*
X188685299Y-92802095D01*
X188801011Y-92522743D01*
X188860000Y-92226184D01*
X188860000Y-91923816D01*
X188801011Y-91627257D01*
X188685299Y-91347905D01*
X188517312Y-91096495D01*
X188303505Y-90882688D01*
X188052095Y-90714701D01*
X187772743Y-90598989D01*
X187476184Y-90540000D01*
X187173816Y-90540000D01*
X186877257Y-90598989D01*
X186597905Y-90714701D01*
X186346495Y-90882688D01*
X186280056Y-90949127D01*
X186274502Y-90930820D01*
X186215537Y-90820506D01*
X186136185Y-90723815D01*
X186039494Y-90644463D01*
X185929180Y-90585498D01*
X185809482Y-90549188D01*
X185685000Y-90536928D01*
X185122561Y-90539741D01*
X189812302Y-85850000D01*
X189914099Y-85850000D01*
X189936068Y-85891101D01*
X190115392Y-86109608D01*
X190333899Y-86288932D01*
X190583192Y-86422182D01*
X190853691Y-86504236D01*
X191064508Y-86525000D01*
X191205492Y-86525000D01*
X191416309Y-86504236D01*
X191554400Y-86462347D01*
X191554400Y-86892653D01*
X191416309Y-86850764D01*
X191205492Y-86830000D01*
X191064508Y-86830000D01*
X190853691Y-86850764D01*
X190583192Y-86932818D01*
X190333899Y-87066068D01*
X190115392Y-87245392D01*
X189936068Y-87463899D01*
X189802818Y-87713192D01*
X189720764Y-87983691D01*
X189693057Y-88265000D01*
X189720764Y-88546309D01*
X189802818Y-88816808D01*
X189936068Y-89066101D01*
X190115392Y-89284608D01*
X190333899Y-89463932D01*
X190583192Y-89597182D01*
X190853691Y-89679236D01*
X191064508Y-89700000D01*
X191205492Y-89700000D01*
X191416309Y-89679236D01*
X191554400Y-89637347D01*
X191554401Y-114019609D01*
X189946971Y-115627039D01*
X189915592Y-115652791D01*
X189812809Y-115778033D01*
X189790168Y-115820392D01*
X189736433Y-115920921D01*
X189716410Y-115986928D01*
X189650000Y-115986928D01*
X189525518Y-115999188D01*
X189405820Y-116035498D01*
X189295506Y-116094463D01*
X189198815Y-116173815D01*
X189119463Y-116270506D01*
X189060498Y-116380820D01*
X189024188Y-116500518D01*
X189011928Y-116625000D01*
X189011928Y-118325000D01*
X189024188Y-118449482D01*
X189060498Y-118569180D01*
X189119463Y-118679494D01*
X189198815Y-118776185D01*
X189295506Y-118855537D01*
X189405820Y-118914502D01*
X189486466Y-118938966D01*
X189402412Y-119014731D01*
X189228359Y-119248080D01*
X189103175Y-119510901D01*
X189058524Y-119658110D01*
X189179845Y-119888000D01*
X190373000Y-119888000D01*
X190373000Y-119868000D01*
X190627000Y-119868000D01*
X190627000Y-119888000D01*
X190647000Y-119888000D01*
X190647000Y-120142000D01*
X190627000Y-120142000D01*
X190627000Y-121335814D01*
X190856891Y-121456481D01*
X191131252Y-121359157D01*
X191381355Y-121210178D01*
X191597588Y-121015269D01*
X191768416Y-120786244D01*
X191799294Y-120844014D01*
X191984866Y-121070134D01*
X192210986Y-121255706D01*
X192468966Y-121393599D01*
X192748889Y-121478513D01*
X192967050Y-121500000D01*
X193112950Y-121500000D01*
X193331111Y-121478513D01*
X193611034Y-121393599D01*
X193869014Y-121255706D01*
X194095134Y-121070134D01*
X194280706Y-120844014D01*
X194418599Y-120586034D01*
X194503513Y-120306111D01*
X194532185Y-120015000D01*
X194503513Y-119723889D01*
X194418599Y-119443966D01*
X194280706Y-119185986D01*
X194095134Y-118959866D01*
X193869014Y-118774294D01*
X193814209Y-118745000D01*
X193869014Y-118715706D01*
X194095134Y-118530134D01*
X194280706Y-118304014D01*
X194418599Y-118046034D01*
X194503513Y-117766111D01*
X194532185Y-117475000D01*
X194503513Y-117183889D01*
X194418599Y-116903966D01*
X194280706Y-116645986D01*
X194095134Y-116419866D01*
X193869014Y-116234294D01*
X193611034Y-116096401D01*
X193331111Y-116011487D01*
X193112950Y-115990000D01*
X192967050Y-115990000D01*
X192748889Y-116011487D01*
X192468966Y-116096401D01*
X192210986Y-116234294D01*
X191984866Y-116419866D01*
X191960393Y-116449687D01*
X191939502Y-116380820D01*
X191880537Y-116270506D01*
X191801185Y-116173815D01*
X191760206Y-116140184D01*
X192929925Y-114970465D01*
X192961309Y-114944709D01*
X193064092Y-114819467D01*
X193140467Y-114676580D01*
X193187498Y-114521538D01*
X193199400Y-114400698D01*
X193199400Y-114400689D01*
X193203378Y-114360301D01*
X193199400Y-114319913D01*
X193199400Y-84650587D01*
X193203378Y-84610199D01*
X193199400Y-84569811D01*
X193199400Y-84569802D01*
X193187498Y-84448962D01*
X193140467Y-84293920D01*
X193064092Y-84151033D01*
X192961309Y-84025791D01*
X192929926Y-84000036D01*
X191995266Y-83065376D01*
X192154608Y-82934608D01*
X192333932Y-82716101D01*
X192467182Y-82466808D01*
X192549236Y-82196309D01*
X192576943Y-81915000D01*
X192549236Y-81633691D01*
X192467182Y-81363192D01*
X192333932Y-81113899D01*
X192154608Y-80895392D01*
X191936101Y-80716068D01*
X191686808Y-80582818D01*
X191416309Y-80500764D01*
X191205492Y-80480000D01*
X191064508Y-80480000D01*
X190853691Y-80500764D01*
X190727832Y-80538943D01*
X190715246Y-80497453D01*
X190670791Y-80414285D01*
X190644674Y-80365423D01*
X190573499Y-80278697D01*
X190549701Y-80249699D01*
X190520703Y-80225901D01*
X188808731Y-78513930D01*
X188860000Y-78256184D01*
X188860000Y-77953816D01*
X188801011Y-77657257D01*
X188685299Y-77377905D01*
X188517312Y-77126495D01*
X188303505Y-76912688D01*
X188052095Y-76744701D01*
X187772743Y-76628989D01*
X187476184Y-76570000D01*
X187173816Y-76570000D01*
X186877257Y-76628989D01*
X186597905Y-76744701D01*
X186346495Y-76912688D01*
X186280056Y-76979127D01*
X186274502Y-76960820D01*
X186215537Y-76850506D01*
X186136185Y-76753815D01*
X186039494Y-76674463D01*
X185929180Y-76615498D01*
X185809482Y-76579188D01*
X185685000Y-76566928D01*
X185070750Y-76570000D01*
X184912000Y-76728750D01*
X184912000Y-77978000D01*
X184932000Y-77978000D01*
X184932000Y-78232000D01*
X184912000Y-78232000D01*
X184912000Y-79481250D01*
X185070750Y-79640000D01*
X185685000Y-79643072D01*
X185809482Y-79630812D01*
X185929180Y-79594502D01*
X186039494Y-79535537D01*
X186136185Y-79456185D01*
X186215537Y-79359494D01*
X186274502Y-79249180D01*
X186280056Y-79230873D01*
X186346495Y-79297312D01*
X186597905Y-79465299D01*
X186877257Y-79581011D01*
X187173816Y-79640000D01*
X187476184Y-79640000D01*
X187733930Y-79588731D01*
X189249701Y-81104503D01*
X189249700Y-81877667D01*
X189246023Y-81915000D01*
X189260697Y-82063986D01*
X189304154Y-82207247D01*
X189374726Y-82339276D01*
X189404046Y-82375002D01*
X189469699Y-82455001D01*
X189585424Y-82549974D01*
X189717453Y-82620546D01*
X189860714Y-82664003D01*
X189910861Y-82668942D01*
X189916772Y-82680000D01*
X182903191Y-82680000D01*
X182388353Y-82165162D01*
X182410000Y-82056335D01*
X182410000Y-81773665D01*
X182354853Y-81496426D01*
X182246680Y-81235273D01*
X182089637Y-81000241D01*
X181889759Y-80800363D01*
X181654727Y-80643320D01*
X181393574Y-80535147D01*
X181116335Y-80480000D01*
X180833665Y-80480000D01*
X180556426Y-80535147D01*
X180295273Y-80643320D01*
X180060241Y-80800363D01*
X179860363Y-81000241D01*
X179703320Y-81235273D01*
X179595147Y-81496426D01*
X179540000Y-81773665D01*
X179540000Y-82056335D01*
X179595147Y-82333574D01*
X179703320Y-82594727D01*
X179860363Y-82829759D01*
X180060241Y-83029637D01*
X180295273Y-83186680D01*
X180556426Y-83294853D01*
X180833665Y-83350000D01*
X181116335Y-83350000D01*
X181225162Y-83328353D01*
X181836758Y-83939949D01*
X181654727Y-83818320D01*
X181393574Y-83710147D01*
X181116335Y-83655000D01*
X180833665Y-83655000D01*
X180556426Y-83710147D01*
X180295273Y-83818320D01*
X180060241Y-83975363D01*
X179860363Y-84175241D01*
X179703320Y-84410273D01*
X179595147Y-84671426D01*
X179540000Y-84948665D01*
X179540000Y-85231335D01*
X179595147Y-85508574D01*
X179703320Y-85769727D01*
X179860363Y-86004759D01*
X180060241Y-86204637D01*
X180295273Y-86361680D01*
X180556426Y-86469853D01*
X180833665Y-86525000D01*
X181116335Y-86525000D01*
X181393574Y-86469853D01*
X181654727Y-86361680D01*
X181889759Y-86204637D01*
X182089637Y-86004759D01*
X182246680Y-85769727D01*
X182354853Y-85508574D01*
X182410000Y-85231335D01*
X182410000Y-84948665D01*
X182354853Y-84671426D01*
X182246680Y-84410273D01*
X182094388Y-84182351D01*
X182103333Y-84189692D01*
X182209235Y-84246298D01*
X182246220Y-84266067D01*
X182401261Y-84313098D01*
X182562499Y-84328979D01*
X182602898Y-84325000D01*
X189916772Y-84325000D01*
X189914099Y-84330000D01*
X189534833Y-84330000D01*
X189497500Y-84326323D01*
X189460167Y-84330000D01*
X189348514Y-84340997D01*
X189205253Y-84384454D01*
X189073224Y-84455026D01*
X188957499Y-84549999D01*
X188933701Y-84578997D01*
X170032103Y-103480596D01*
X170003099Y-103504399D01*
X169967191Y-103548154D01*
X169908126Y-103620124D01*
X169868586Y-103694098D01*
X169837554Y-103752154D01*
X169794097Y-103895415D01*
X169783100Y-104007068D01*
X169783100Y-104007078D01*
X169779424Y-104044400D01*
X169783100Y-104081723D01*
X169783101Y-110826797D01*
X159508998Y-121100901D01*
X159480000Y-121124699D01*
X159456203Y-121153696D01*
X159456201Y-121153698D01*
X159385026Y-121240424D01*
X159314454Y-121372454D01*
X159288560Y-121457818D01*
X159270998Y-121515714D01*
X159266059Y-121565860D01*
X159218899Y-121591068D01*
X159000392Y-121770393D01*
X158821068Y-121988900D01*
X158750000Y-122121858D01*
X158678932Y-121988899D01*
X158499607Y-121770392D01*
X158281100Y-121591068D01*
X158031807Y-121457818D01*
X157761308Y-121375764D01*
X157480000Y-121348057D01*
X157198691Y-121375764D01*
X156928192Y-121457818D01*
X156678899Y-121591068D01*
X156460392Y-121770393D01*
X156281068Y-121988900D01*
X156210000Y-122121858D01*
X156138932Y-121988899D01*
X155959607Y-121770392D01*
X155741100Y-121591068D01*
X155710478Y-121574700D01*
X155813139Y-121574700D01*
X156013098Y-121534926D01*
X156201456Y-121456905D01*
X156370974Y-121343637D01*
X156515137Y-121199474D01*
X156628405Y-121029956D01*
X156706426Y-120841598D01*
X156746200Y-120641639D01*
X156746200Y-120584020D01*
X156750001Y-120580901D01*
X156844974Y-120465176D01*
X156915546Y-120333147D01*
X156959003Y-120189886D01*
X156970000Y-120078233D01*
X156970000Y-120078225D01*
X156973676Y-120040900D01*
X156970000Y-120003575D01*
X156970000Y-109694864D01*
X157198692Y-109764236D01*
X157480000Y-109791943D01*
X157761309Y-109764236D01*
X158031808Y-109682182D01*
X158281101Y-109548932D01*
X158499608Y-109369608D01*
X158678932Y-109151101D01*
X158750000Y-109018142D01*
X158821068Y-109151101D01*
X159000393Y-109369608D01*
X159218900Y-109548932D01*
X159468193Y-109682182D01*
X159738692Y-109764236D01*
X160020000Y-109791943D01*
X160301309Y-109764236D01*
X160571808Y-109682182D01*
X160821101Y-109548932D01*
X161039608Y-109369608D01*
X161218932Y-109151101D01*
X161290000Y-109018142D01*
X161361068Y-109151101D01*
X161540393Y-109369608D01*
X161758900Y-109548932D01*
X162008193Y-109682182D01*
X162278692Y-109764236D01*
X162560000Y-109791943D01*
X162841309Y-109764236D01*
X163111808Y-109682182D01*
X163361101Y-109548932D01*
X163579608Y-109369608D01*
X163758932Y-109151101D01*
X163830000Y-109018142D01*
X163901068Y-109151101D01*
X164080393Y-109369608D01*
X164298900Y-109548932D01*
X164548193Y-109682182D01*
X164818692Y-109764236D01*
X165100000Y-109791943D01*
X165381309Y-109764236D01*
X165651808Y-109682182D01*
X165901101Y-109548932D01*
X166119608Y-109369608D01*
X166298932Y-109151101D01*
X166432182Y-108901808D01*
X166514236Y-108631309D01*
X166535000Y-108420491D01*
X166535000Y-107479508D01*
X166514236Y-107268691D01*
X166432182Y-106998192D01*
X166298932Y-106748899D01*
X166119607Y-106530392D01*
X165901100Y-106351068D01*
X165651807Y-106217818D01*
X165381308Y-106135764D01*
X165100000Y-106108057D01*
X164818691Y-106135764D01*
X164548192Y-106217818D01*
X164298899Y-106351068D01*
X164080392Y-106530393D01*
X163901068Y-106748900D01*
X163830000Y-106881858D01*
X163758932Y-106748899D01*
X163579607Y-106530392D01*
X163361100Y-106351068D01*
X163111807Y-106217818D01*
X162841308Y-106135764D01*
X162560000Y-106108057D01*
X162278691Y-106135764D01*
X162008192Y-106217818D01*
X161758899Y-106351068D01*
X161540392Y-106530393D01*
X161361068Y-106748900D01*
X161290000Y-106881858D01*
X161218932Y-106748899D01*
X161039607Y-106530392D01*
X160821100Y-106351068D01*
X160571807Y-106217818D01*
X160301308Y-106135764D01*
X160020000Y-106108057D01*
X159738691Y-106135764D01*
X159468192Y-106217818D01*
X159218899Y-106351068D01*
X159000392Y-106530393D01*
X158821068Y-106748900D01*
X158750000Y-106881858D01*
X158678932Y-106748899D01*
X158499607Y-106530392D01*
X158281100Y-106351068D01*
X158031807Y-106217818D01*
X157761308Y-106135764D01*
X157480000Y-106108057D01*
X157198691Y-106135764D01*
X156970000Y-106205136D01*
X156970000Y-105630101D01*
X163706003Y-98894099D01*
X163735001Y-98870301D01*
X163829974Y-98754576D01*
X163900546Y-98622547D01*
X163944003Y-98479286D01*
X163948246Y-98436205D01*
X164024014Y-98395706D01*
X164250134Y-98210134D01*
X164435706Y-97984014D01*
X164573599Y-97726034D01*
X164658513Y-97446111D01*
X164687185Y-97155000D01*
X164658513Y-96863889D01*
X164573599Y-96583966D01*
X164435706Y-96325986D01*
X164250134Y-96099866D01*
X164024014Y-95914294D01*
X163969209Y-95885000D01*
X164024014Y-95855706D01*
X164250134Y-95670134D01*
X164435706Y-95444014D01*
X164573599Y-95186034D01*
X164658513Y-94906111D01*
X164687185Y-94615000D01*
X164658513Y-94323889D01*
X164573599Y-94043966D01*
X164435706Y-93785986D01*
X164250134Y-93559866D01*
X164024014Y-93374294D01*
X163766034Y-93236401D01*
X163486111Y-93151487D01*
X163267950Y-93130000D01*
X163122050Y-93130000D01*
X162903889Y-93151487D01*
X162819091Y-93177210D01*
X165083203Y-90913099D01*
X165112201Y-90889301D01*
X165207174Y-90773576D01*
X165268861Y-90658169D01*
X165453692Y-90714236D01*
X165735000Y-90741943D01*
X166016309Y-90714236D01*
X166286808Y-90632182D01*
X166536101Y-90498932D01*
X166754608Y-90319608D01*
X166933932Y-90101101D01*
X167002265Y-89973259D01*
X167152399Y-90202839D01*
X167350105Y-90404500D01*
X167583354Y-90563715D01*
X167843182Y-90674367D01*
X167925961Y-90691904D01*
X168148000Y-90569915D01*
X168148000Y-89027000D01*
X168402000Y-89027000D01*
X168402000Y-90569915D01*
X168624039Y-90691904D01*
X168706818Y-90674367D01*
X168966646Y-90563715D01*
X169199895Y-90404500D01*
X169397601Y-90202839D01*
X169552166Y-89966483D01*
X169657650Y-89704514D01*
X169710000Y-89427000D01*
X169710000Y-89027000D01*
X168402000Y-89027000D01*
X168148000Y-89027000D01*
X168128000Y-89027000D01*
X168128000Y-88773000D01*
X168148000Y-88773000D01*
X168148000Y-87230085D01*
X168402000Y-87230085D01*
X168402000Y-88773000D01*
X169710000Y-88773000D01*
X169710000Y-88373000D01*
X169662966Y-88123665D01*
X179540000Y-88123665D01*
X179540000Y-88406335D01*
X179595147Y-88683574D01*
X179703320Y-88944727D01*
X179860363Y-89179759D01*
X180060241Y-89379637D01*
X180295273Y-89536680D01*
X180556426Y-89644853D01*
X180833665Y-89700000D01*
X181116335Y-89700000D01*
X181393574Y-89644853D01*
X181654727Y-89536680D01*
X181889759Y-89379637D01*
X182089637Y-89179759D01*
X182246680Y-88944727D01*
X182354853Y-88683574D01*
X182410000Y-88406335D01*
X182410000Y-88123665D01*
X182354853Y-87846426D01*
X182246680Y-87585273D01*
X182089637Y-87350241D01*
X181889759Y-87150363D01*
X181654727Y-86993320D01*
X181393574Y-86885147D01*
X181116335Y-86830000D01*
X180833665Y-86830000D01*
X180556426Y-86885147D01*
X180295273Y-86993320D01*
X180060241Y-87150363D01*
X179860363Y-87350241D01*
X179703320Y-87585273D01*
X179595147Y-87846426D01*
X179540000Y-88123665D01*
X169662966Y-88123665D01*
X169657650Y-88095486D01*
X169552166Y-87833517D01*
X169397601Y-87597161D01*
X169199895Y-87395500D01*
X168966646Y-87236285D01*
X168706818Y-87125633D01*
X168624039Y-87108096D01*
X168402000Y-87230085D01*
X168148000Y-87230085D01*
X167925961Y-87108096D01*
X167843182Y-87125633D01*
X167583354Y-87236285D01*
X167350105Y-87395500D01*
X167152399Y-87597161D01*
X167002265Y-87826741D01*
X166933932Y-87698899D01*
X166754607Y-87480392D01*
X166536100Y-87301068D01*
X166286807Y-87167818D01*
X166016308Y-87085764D01*
X165735000Y-87058057D01*
X165453691Y-87085764D01*
X165332200Y-87122617D01*
X165332200Y-84282901D01*
X165795101Y-83820000D01*
X174504388Y-83820000D01*
X174526785Y-84047400D01*
X174593115Y-84266060D01*
X174694105Y-84455000D01*
X174593115Y-84643940D01*
X174526785Y-84862600D01*
X174504388Y-85090000D01*
X174526785Y-85317400D01*
X174590093Y-85526098D01*
X174555498Y-85590820D01*
X174519188Y-85710518D01*
X174506928Y-85835000D01*
X174506928Y-86885000D01*
X174519188Y-87009482D01*
X174555498Y-87129180D01*
X174614463Y-87239494D01*
X174693815Y-87336185D01*
X174790506Y-87415537D01*
X174900820Y-87474502D01*
X175020518Y-87510812D01*
X175145000Y-87523072D01*
X176645000Y-87523072D01*
X176769482Y-87510812D01*
X176889180Y-87474502D01*
X176999494Y-87415537D01*
X177096185Y-87336185D01*
X177175537Y-87239494D01*
X177234502Y-87129180D01*
X177270812Y-87009482D01*
X177283072Y-86885000D01*
X177283072Y-85835000D01*
X177270812Y-85710518D01*
X177234502Y-85590820D01*
X177199907Y-85526098D01*
X177263215Y-85317400D01*
X177285612Y-85090000D01*
X177263215Y-84862600D01*
X177196885Y-84643940D01*
X177095895Y-84455000D01*
X177196885Y-84266060D01*
X177263215Y-84047400D01*
X177285612Y-83820000D01*
X177263215Y-83592600D01*
X177196885Y-83373940D01*
X177089171Y-83172421D01*
X176944212Y-82995788D01*
X176767579Y-82850829D01*
X176566060Y-82743115D01*
X176347400Y-82676785D01*
X176176979Y-82660000D01*
X175613021Y-82660000D01*
X175442600Y-82676785D01*
X175223940Y-82743115D01*
X175022421Y-82850829D01*
X174845788Y-82995788D01*
X174700829Y-83172421D01*
X174593115Y-83373940D01*
X174526785Y-83592600D01*
X174504388Y-83820000D01*
X165795101Y-83820000D01*
X166246003Y-83369099D01*
X166275001Y-83345301D01*
X166369974Y-83229576D01*
X166440546Y-83097547D01*
X166484003Y-82954286D01*
X166488942Y-82904139D01*
X166536101Y-82878932D01*
X166754608Y-82699608D01*
X166933932Y-82481101D01*
X167005000Y-82348142D01*
X167076068Y-82481101D01*
X167255393Y-82699608D01*
X167473900Y-82878932D01*
X167723193Y-83012182D01*
X167993692Y-83094236D01*
X168275000Y-83121943D01*
X168556309Y-83094236D01*
X168826808Y-83012182D01*
X169076101Y-82878932D01*
X169294608Y-82699608D01*
X169473932Y-82481101D01*
X169607182Y-82231808D01*
X169689236Y-81961309D01*
X169710000Y-81750491D01*
X169710000Y-80809508D01*
X169689236Y-80598691D01*
X169607182Y-80328192D01*
X169473932Y-80078899D01*
X169294607Y-79860392D01*
X169076100Y-79681068D01*
X168826807Y-79547818D01*
X168556308Y-79465764D01*
X168275000Y-79438057D01*
X167993691Y-79465764D01*
X167723192Y-79547818D01*
X167473899Y-79681068D01*
X167255392Y-79860393D01*
X167076068Y-80078900D01*
X167005000Y-80211858D01*
X166933932Y-80078899D01*
X166754607Y-79860392D01*
X166536100Y-79681068D01*
X166286807Y-79547818D01*
X166016308Y-79465764D01*
X165735000Y-79438057D01*
X165453691Y-79465764D01*
X165183192Y-79547818D01*
X164933899Y-79681068D01*
X164715392Y-79860393D01*
X164536068Y-80078900D01*
X164465000Y-80211858D01*
X164393932Y-80078899D01*
X164214607Y-79860392D01*
X163996100Y-79681068D01*
X163746807Y-79547818D01*
X163476308Y-79465764D01*
X163195000Y-79438057D01*
X162913691Y-79465764D01*
X162643192Y-79547818D01*
X162393899Y-79681068D01*
X162175392Y-79860393D01*
X161996068Y-80078900D01*
X161925000Y-80211858D01*
X161853932Y-80078899D01*
X161674607Y-79860392D01*
X161456100Y-79681068D01*
X161206807Y-79547818D01*
X160936308Y-79465764D01*
X160655000Y-79438057D01*
X160373691Y-79465764D01*
X160103192Y-79547818D01*
X159853899Y-79681068D01*
X159635392Y-79860393D01*
X159456068Y-80078900D01*
X159385000Y-80211858D01*
X159313932Y-80078899D01*
X159134607Y-79860392D01*
X158916100Y-79681068D01*
X158666807Y-79547818D01*
X158396308Y-79465764D01*
X158115000Y-79438057D01*
X157833691Y-79465764D01*
X157563192Y-79547818D01*
X157313899Y-79681068D01*
X157095392Y-79860393D01*
X156916068Y-80078900D01*
X156845000Y-80211858D01*
X156773932Y-80078899D01*
X156594607Y-79860392D01*
X156376100Y-79681068D01*
X156126807Y-79547818D01*
X155856308Y-79465764D01*
X155575000Y-79438057D01*
X155293691Y-79465764D01*
X155065000Y-79535136D01*
X155065000Y-79005000D01*
X183246928Y-79005000D01*
X183259188Y-79129482D01*
X183295498Y-79249180D01*
X183354463Y-79359494D01*
X183433815Y-79456185D01*
X183530506Y-79535537D01*
X183640820Y-79594502D01*
X183760518Y-79630812D01*
X183885000Y-79643072D01*
X184499250Y-79640000D01*
X184658000Y-79481250D01*
X184658000Y-78232000D01*
X183408750Y-78232000D01*
X183250000Y-78390750D01*
X183246928Y-79005000D01*
X155065000Y-79005000D01*
X155065000Y-77541983D01*
X155156426Y-77579853D01*
X155433665Y-77635000D01*
X155716335Y-77635000D01*
X155993574Y-77579853D01*
X156254727Y-77471680D01*
X156489759Y-77314637D01*
X156689637Y-77114759D01*
X156846680Y-76879727D01*
X156954853Y-76618574D01*
X156968684Y-76549039D01*
X164343096Y-76549039D01*
X164383754Y-76683087D01*
X164503963Y-76937420D01*
X164671481Y-77163414D01*
X164879869Y-77352385D01*
X165121119Y-77497070D01*
X165385960Y-77591909D01*
X165608000Y-77470624D01*
X165608000Y-76327000D01*
X165862000Y-76327000D01*
X165862000Y-77470624D01*
X166084040Y-77591909D01*
X166348881Y-77497070D01*
X166590131Y-77352385D01*
X166752659Y-77205000D01*
X183246928Y-77205000D01*
X183250000Y-77819250D01*
X183408750Y-77978000D01*
X184658000Y-77978000D01*
X184658000Y-76728750D01*
X184499250Y-76570000D01*
X183885000Y-76566928D01*
X183760518Y-76579188D01*
X183640820Y-76615498D01*
X183530506Y-76674463D01*
X183433815Y-76753815D01*
X183354463Y-76850506D01*
X183295498Y-76960820D01*
X183259188Y-77080518D01*
X183246928Y-77205000D01*
X166752659Y-77205000D01*
X166798519Y-77163414D01*
X166966037Y-76937420D01*
X167086246Y-76683087D01*
X167126904Y-76549039D01*
X167004915Y-76327000D01*
X165862000Y-76327000D01*
X165608000Y-76327000D01*
X164465085Y-76327000D01*
X164343096Y-76549039D01*
X156968684Y-76549039D01*
X157010000Y-76341335D01*
X157010000Y-76058665D01*
X156973688Y-75876114D01*
X156998841Y-75850961D01*
X164343096Y-75850961D01*
X164465085Y-76073000D01*
X165608000Y-76073000D01*
X165608000Y-74929376D01*
X165862000Y-74929376D01*
X165862000Y-76073000D01*
X167004915Y-76073000D01*
X167126904Y-75850961D01*
X167086246Y-75716913D01*
X166966037Y-75462580D01*
X166798519Y-75236586D01*
X166590131Y-75047615D01*
X166348881Y-74902930D01*
X166084040Y-74808091D01*
X165862000Y-74929376D01*
X165608000Y-74929376D01*
X165385960Y-74808091D01*
X165121119Y-74902930D01*
X164879869Y-75047615D01*
X164671481Y-75236586D01*
X164503963Y-75462580D01*
X164383754Y-75716913D01*
X164343096Y-75850961D01*
X156998841Y-75850961D01*
X157356004Y-75493798D01*
X157385001Y-75470001D01*
X157479974Y-75354276D01*
X157550546Y-75222247D01*
X157594003Y-75078986D01*
X157605000Y-74967333D01*
X157605000Y-74967324D01*
X157608676Y-74930001D01*
X157605000Y-74892678D01*
X157605000Y-73828072D01*
X157645000Y-73828072D01*
X157769482Y-73815812D01*
X157889180Y-73779502D01*
X157999494Y-73720537D01*
X158096185Y-73641185D01*
X158175537Y-73544494D01*
X158234502Y-73434180D01*
X158270812Y-73314482D01*
X158283072Y-73190000D01*
X158283072Y-72739039D01*
X163073096Y-72739039D01*
X163113754Y-72873087D01*
X163233963Y-73127420D01*
X163401481Y-73353414D01*
X163609869Y-73542385D01*
X163851119Y-73687070D01*
X164115960Y-73781909D01*
X164338000Y-73660624D01*
X164338000Y-72517000D01*
X164592000Y-72517000D01*
X164592000Y-73660624D01*
X164814040Y-73781909D01*
X165078881Y-73687070D01*
X165320131Y-73542385D01*
X165528519Y-73353414D01*
X165696037Y-73127420D01*
X165816246Y-72873087D01*
X165856904Y-72739039D01*
X165734915Y-72517000D01*
X164592000Y-72517000D01*
X164338000Y-72517000D01*
X163195085Y-72517000D01*
X163073096Y-72739039D01*
X158283072Y-72739039D01*
X158283072Y-72040961D01*
X163073096Y-72040961D01*
X163195085Y-72263000D01*
X164338000Y-72263000D01*
X164338000Y-71119376D01*
X164592000Y-71119376D01*
X164592000Y-72263000D01*
X165734915Y-72263000D01*
X165856904Y-72040961D01*
X165816246Y-71906913D01*
X165696037Y-71652580D01*
X165528519Y-71426586D01*
X165320131Y-71237615D01*
X165078881Y-71092930D01*
X164814040Y-70998091D01*
X164592000Y-71119376D01*
X164338000Y-71119376D01*
X164115960Y-70998091D01*
X163851119Y-71092930D01*
X163609869Y-71237615D01*
X163401481Y-71426586D01*
X163233963Y-71652580D01*
X163113754Y-71906913D01*
X163073096Y-72040961D01*
X158283072Y-72040961D01*
X158283072Y-71590000D01*
X158270812Y-71465518D01*
X158234502Y-71345820D01*
X158175537Y-71235506D01*
X158096185Y-71138815D01*
X157999494Y-71059463D01*
X157889180Y-71000498D01*
X157769482Y-70964188D01*
X157645000Y-70951928D01*
X157606374Y-70951928D01*
X157605000Y-70937976D01*
X157605000Y-70937967D01*
X157594003Y-70826314D01*
X157550546Y-70683053D01*
X157479974Y-70551024D01*
X157385001Y-70435299D01*
X157356004Y-70411502D01*
X156566872Y-69622370D01*
X156594608Y-69599608D01*
X156773932Y-69381101D01*
X156907182Y-69131808D01*
X156989236Y-68861309D01*
X157016943Y-68580000D01*
X157003023Y-68438665D01*
X164300000Y-68438665D01*
X164300000Y-68721335D01*
X164355147Y-68998574D01*
X164463320Y-69259727D01*
X164620363Y-69494759D01*
X164820241Y-69694637D01*
X165055273Y-69851680D01*
X165316426Y-69959853D01*
X165593665Y-70015000D01*
X165876335Y-70015000D01*
X166153574Y-69959853D01*
X166414727Y-69851680D01*
X166649759Y-69694637D01*
X166849637Y-69494759D01*
X167006680Y-69259727D01*
X167114853Y-68998574D01*
X167170000Y-68721335D01*
X167170000Y-68438665D01*
X167114853Y-68161426D01*
X167006680Y-67900273D01*
X166849637Y-67665241D01*
X166816686Y-67632290D01*
X189230000Y-67632290D01*
X189230000Y-68257710D01*
X189352014Y-68871113D01*
X189591352Y-69448926D01*
X189938817Y-69968944D01*
X190381056Y-70411183D01*
X190901074Y-70758648D01*
X191478887Y-70997986D01*
X192092290Y-71120000D01*
X192717710Y-71120000D01*
X193331113Y-70997986D01*
X193908926Y-70758648D01*
X194428944Y-70411183D01*
X194871183Y-69968944D01*
X195218648Y-69448926D01*
X195457986Y-68871113D01*
X195580000Y-68257710D01*
X195580000Y-67632290D01*
X195457986Y-67018887D01*
X195218648Y-66441074D01*
X194871183Y-65921056D01*
X194428944Y-65478817D01*
X193908926Y-65131352D01*
X193331113Y-64892014D01*
X192717710Y-64770000D01*
X192092290Y-64770000D01*
X191478887Y-64892014D01*
X190901074Y-65131352D01*
X190381056Y-65478817D01*
X189938817Y-65921056D01*
X189591352Y-66441074D01*
X189352014Y-67018887D01*
X189230000Y-67632290D01*
X166816686Y-67632290D01*
X166649759Y-67465363D01*
X166414727Y-67308320D01*
X166153574Y-67200147D01*
X165876335Y-67145000D01*
X165593665Y-67145000D01*
X165316426Y-67200147D01*
X165055273Y-67308320D01*
X164820241Y-67465363D01*
X164620363Y-67665241D01*
X164463320Y-67900273D01*
X164355147Y-68161426D01*
X164300000Y-68438665D01*
X157003023Y-68438665D01*
X156989236Y-68298691D01*
X156907182Y-68028192D01*
X156773932Y-67778899D01*
X156594608Y-67560392D01*
X156376101Y-67381068D01*
X156126808Y-67247818D01*
X155856309Y-67165764D01*
X155645492Y-67145000D01*
X155504508Y-67145000D01*
X155293691Y-67165764D01*
X155023192Y-67247818D01*
X154773899Y-67381068D01*
X154555392Y-67560392D01*
X154376068Y-67778899D01*
X154242818Y-68028192D01*
X154160764Y-68298691D01*
X154133057Y-68580000D01*
X154160764Y-68861309D01*
X154242818Y-69131808D01*
X154376068Y-69381101D01*
X154555392Y-69599608D01*
X154773899Y-69778932D01*
X154821059Y-69804140D01*
X154825998Y-69854285D01*
X154869454Y-69997546D01*
X154940026Y-70129576D01*
X154980532Y-70178932D01*
X155035000Y-70245301D01*
X155063998Y-70269099D01*
X155797286Y-71002387D01*
X155690506Y-71059463D01*
X155593815Y-71138815D01*
X155514463Y-71235506D01*
X155455498Y-71345820D01*
X155419188Y-71465518D01*
X155406928Y-71590000D01*
X155406928Y-73190000D01*
X155419188Y-73314482D01*
X155455498Y-73434180D01*
X155514463Y-73544494D01*
X155593815Y-73641185D01*
X155690506Y-73720537D01*
X155800820Y-73779502D01*
X155920518Y-73815812D01*
X156045000Y-73828072D01*
X156085000Y-73828072D01*
X156085000Y-74615198D01*
X155898886Y-74801312D01*
X155716335Y-74765000D01*
X155433665Y-74765000D01*
X155156426Y-74820147D01*
X154895273Y-74928320D01*
X154660241Y-75085363D01*
X154460363Y-75285241D01*
X154303320Y-75520273D01*
X154234946Y-75685344D01*
X148512351Y-69962750D01*
X148526034Y-69958599D01*
X148784014Y-69820706D01*
X149010134Y-69635134D01*
X149195706Y-69409014D01*
X149333599Y-69151034D01*
X149418513Y-68871111D01*
X149447185Y-68580000D01*
X149418513Y-68288889D01*
X149333599Y-68008966D01*
X149195706Y-67750986D01*
X149010134Y-67524866D01*
X148784014Y-67339294D01*
X148526034Y-67201401D01*
X148246111Y-67116487D01*
X148027950Y-67095000D01*
X147882050Y-67095000D01*
X147663889Y-67116487D01*
X147383966Y-67201401D01*
X147303567Y-67244375D01*
X147295946Y-67219253D01*
X147225374Y-67087224D01*
X147130401Y-66971499D01*
X147101397Y-66947696D01*
X146697404Y-66543703D01*
X146673601Y-66514699D01*
X146557876Y-66419726D01*
X146425847Y-66349154D01*
X146282586Y-66305697D01*
X146170933Y-66294700D01*
X146170922Y-66294700D01*
X146133600Y-66291024D01*
X146096278Y-66294700D01*
X139737333Y-66294700D01*
X139700000Y-66291023D01*
X139662667Y-66294700D01*
X139551014Y-66305697D01*
X139407753Y-66349154D01*
X139275724Y-66419726D01*
X139159999Y-66514699D01*
X139065026Y-66630424D01*
X138994454Y-66762453D01*
X138950997Y-66905714D01*
X138946058Y-66955861D01*
X138898899Y-66981068D01*
X138680392Y-67160393D01*
X138501068Y-67378900D01*
X138430000Y-67511858D01*
X138358932Y-67378899D01*
X138179607Y-67160392D01*
X137961100Y-66981068D01*
X137711807Y-66847818D01*
X137441308Y-66765764D01*
X137160000Y-66738057D01*
X136878691Y-66765764D01*
X136608192Y-66847818D01*
X136358899Y-66981068D01*
X136140392Y-67160393D01*
X135961068Y-67378900D01*
X135890000Y-67511858D01*
X135818932Y-67378899D01*
X135639607Y-67160392D01*
X135421100Y-66981068D01*
X135171807Y-66847818D01*
X134901308Y-66765764D01*
X134620000Y-66738057D01*
X134338691Y-66765764D01*
X134068192Y-66847818D01*
X133818899Y-66981068D01*
X133600392Y-67160393D01*
X133421068Y-67378900D01*
X133350000Y-67511858D01*
X133278932Y-67378899D01*
X133099607Y-67160392D01*
X132881100Y-66981068D01*
X132631807Y-66847818D01*
X132361308Y-66765764D01*
X132080000Y-66738057D01*
X131798691Y-66765764D01*
X131528192Y-66847818D01*
X131278899Y-66981068D01*
X131060392Y-67160393D01*
X130881068Y-67378900D01*
X130810000Y-67511858D01*
X130738932Y-67378899D01*
X130559607Y-67160392D01*
X130341100Y-66981068D01*
X130091807Y-66847818D01*
X129821308Y-66765764D01*
X129540000Y-66738057D01*
X129258691Y-66765764D01*
X128988192Y-66847818D01*
X128738899Y-66981068D01*
X128520392Y-67160393D01*
X128341068Y-67378900D01*
X128270000Y-67511858D01*
X128198932Y-67378899D01*
X128019607Y-67160392D01*
X127801100Y-66981068D01*
X127551807Y-66847818D01*
X127281308Y-66765764D01*
X127000000Y-66738057D01*
X126718691Y-66765764D01*
X126448192Y-66847818D01*
X126198899Y-66981068D01*
X125980392Y-67160393D01*
X125801068Y-67378900D01*
X125730000Y-67511858D01*
X125658932Y-67378899D01*
X125479607Y-67160392D01*
X125261100Y-66981068D01*
X125011807Y-66847818D01*
X124741308Y-66765764D01*
X124460000Y-66738057D01*
X124178691Y-66765764D01*
X123908192Y-66847818D01*
X123658899Y-66981068D01*
X123440392Y-67160393D01*
X123261068Y-67378900D01*
X123127818Y-67628193D01*
X123045764Y-67898692D01*
X123025000Y-68109509D01*
X123025000Y-69050492D01*
X123045764Y-69261309D01*
X123127818Y-69531808D01*
X123261068Y-69781101D01*
X123440393Y-69999608D01*
X123658900Y-70178932D01*
X123908193Y-70312182D01*
X124178692Y-70394236D01*
X124460000Y-70421943D01*
X124741309Y-70394236D01*
X125011808Y-70312182D01*
X125261101Y-70178932D01*
X125479608Y-69999608D01*
X125658932Y-69781101D01*
X125730000Y-69648142D01*
X125801068Y-69781101D01*
X125980393Y-69999608D01*
X126198900Y-70178932D01*
X126448193Y-70312182D01*
X126718692Y-70394236D01*
X127000000Y-70421943D01*
X127281309Y-70394236D01*
X127551808Y-70312182D01*
X127801101Y-70178932D01*
X128019608Y-69999608D01*
X128198932Y-69781101D01*
X128270000Y-69648142D01*
X128341068Y-69781101D01*
X128520393Y-69999608D01*
X128738900Y-70178932D01*
X128988193Y-70312182D01*
X129258692Y-70394236D01*
X129540000Y-70421943D01*
X129821309Y-70394236D01*
X130091808Y-70312182D01*
X130341101Y-70178932D01*
X130559608Y-69999608D01*
X130738932Y-69781101D01*
X130810000Y-69648142D01*
X130881068Y-69781101D01*
X131060393Y-69999608D01*
X131278900Y-70178932D01*
X131326059Y-70204139D01*
X131330998Y-70254285D01*
X131374454Y-70397546D01*
X131445026Y-70529576D01*
X131516201Y-70616302D01*
X131540000Y-70645301D01*
X131568998Y-70669099D01*
X135130000Y-74230102D01*
X135130000Y-74455136D01*
X134901308Y-74385764D01*
X134620000Y-74358057D01*
X134338691Y-74385764D01*
X134068192Y-74467818D01*
X133818899Y-74601068D01*
X133600392Y-74780393D01*
X133421068Y-74998900D01*
X133350000Y-75131858D01*
X133278932Y-74998899D01*
X133099607Y-74780392D01*
X132881100Y-74601068D01*
X132631807Y-74467818D01*
X132361308Y-74385764D01*
X132080000Y-74358057D01*
X131798691Y-74385764D01*
X131528192Y-74467818D01*
X131278899Y-74601068D01*
X131060392Y-74780393D01*
X130881068Y-74998900D01*
X130810000Y-75131858D01*
X130738932Y-74998899D01*
X130559607Y-74780392D01*
X130341100Y-74601068D01*
X130091807Y-74467818D01*
X129821308Y-74385764D01*
X129540000Y-74358057D01*
X129258691Y-74385764D01*
X128988192Y-74467818D01*
X128738899Y-74601068D01*
X128520392Y-74780393D01*
X128341068Y-74998900D01*
X128270000Y-75131858D01*
X128198932Y-74998899D01*
X128019607Y-74780392D01*
X127801100Y-74601068D01*
X127551807Y-74467818D01*
X127281308Y-74385764D01*
X127000000Y-74358057D01*
X126718691Y-74385764D01*
X126448192Y-74467818D01*
X126198899Y-74601068D01*
X125980392Y-74780393D01*
X125887581Y-74893483D01*
X125885812Y-74875518D01*
X125849502Y-74755820D01*
X125790537Y-74645506D01*
X125711185Y-74548815D01*
X125614494Y-74469463D01*
X125504180Y-74410498D01*
X125384482Y-74374188D01*
X125260000Y-74361928D01*
X123660000Y-74361928D01*
X123535518Y-74374188D01*
X123415820Y-74410498D01*
X123305506Y-74469463D01*
X123208815Y-74548815D01*
X123129463Y-74645506D01*
X123070498Y-74755820D01*
X123034188Y-74875518D01*
X123021928Y-75000000D01*
X123021928Y-77400000D01*
X123034188Y-77524482D01*
X123070498Y-77644180D01*
X123129463Y-77754494D01*
X123208815Y-77851185D01*
X123305506Y-77930537D01*
X123415820Y-77989502D01*
X123535518Y-78025812D01*
X123660000Y-78038072D01*
X125260000Y-78038072D01*
X125384482Y-78025812D01*
X125504180Y-77989502D01*
X125614494Y-77930537D01*
X125711185Y-77851185D01*
X125790537Y-77754494D01*
X125849502Y-77644180D01*
X125885812Y-77524482D01*
X125887581Y-77506517D01*
X125980393Y-77619608D01*
X126198900Y-77798932D01*
X126246059Y-77824139D01*
X126250568Y-77869915D01*
X126250998Y-77874285D01*
X126294454Y-78017546D01*
X126365026Y-78149576D01*
X126436201Y-78236302D01*
X126460000Y-78265301D01*
X126488998Y-78289099D01*
X128780001Y-80580104D01*
X128780000Y-87107091D01*
X128657114Y-87189201D01*
X128464201Y-87382114D01*
X128312629Y-87608957D01*
X128208225Y-87861011D01*
X128155000Y-88128589D01*
X128155000Y-88401411D01*
X128208225Y-88668989D01*
X128312629Y-88921043D01*
X128464201Y-89147886D01*
X128657114Y-89340799D01*
X128883957Y-89492371D01*
X129136011Y-89596775D01*
X129403589Y-89650000D01*
X129676411Y-89650000D01*
X129943989Y-89596775D01*
X130196043Y-89492371D01*
X130422886Y-89340799D01*
X130615799Y-89147886D01*
X130767371Y-88921043D01*
X130871775Y-88668989D01*
X130925000Y-88401411D01*
X130925000Y-88128589D01*
X130871775Y-87861011D01*
X130767371Y-87608957D01*
X130615799Y-87382114D01*
X130422886Y-87189201D01*
X130300000Y-87107091D01*
X130300000Y-83891983D01*
X130391426Y-83929853D01*
X130668665Y-83985000D01*
X130951335Y-83985000D01*
X131228574Y-83929853D01*
X131489727Y-83821680D01*
X131724759Y-83664637D01*
X131924637Y-83464759D01*
X132060000Y-83262173D01*
X132195363Y-83464759D01*
X132395241Y-83664637D01*
X132630273Y-83821680D01*
X132891426Y-83929853D01*
X133168665Y-83985000D01*
X133451335Y-83985000D01*
X133728574Y-83929853D01*
X133989727Y-83821680D01*
X134224759Y-83664637D01*
X134424637Y-83464759D01*
X134581680Y-83229727D01*
X134689853Y-82968574D01*
X134745000Y-82691335D01*
X134745000Y-82408665D01*
X134689853Y-82131426D01*
X134581680Y-81870273D01*
X134424637Y-81635241D01*
X134224759Y-81435363D01*
X134070000Y-81331957D01*
X134070000Y-78992625D01*
X134073676Y-78955300D01*
X134070000Y-78917975D01*
X134070000Y-78917967D01*
X134059003Y-78806314D01*
X134015546Y-78663053D01*
X133944974Y-78531024D01*
X133850001Y-78415299D01*
X133821004Y-78391502D01*
X133071872Y-77642370D01*
X133099608Y-77619608D01*
X133278932Y-77401101D01*
X133350000Y-77268142D01*
X133421068Y-77401101D01*
X133600393Y-77619608D01*
X133818900Y-77798932D01*
X134068193Y-77932182D01*
X134338692Y-78014236D01*
X134620000Y-78041943D01*
X134901309Y-78014236D01*
X135171808Y-77932182D01*
X135421101Y-77798932D01*
X135548707Y-77694208D01*
X137877400Y-80022902D01*
X137901199Y-80051901D01*
X138016924Y-80146874D01*
X138148953Y-80217446D01*
X138292214Y-80260903D01*
X138403867Y-80271900D01*
X138403875Y-80271900D01*
X138441200Y-80275576D01*
X138478525Y-80271900D01*
X138670948Y-80271900D01*
X138501068Y-80478899D01*
X138367818Y-80728192D01*
X138285764Y-80998691D01*
X138258057Y-81280000D01*
X138285764Y-81561309D01*
X138367818Y-81831808D01*
X138501068Y-82081101D01*
X138680392Y-82299608D01*
X138898899Y-82478932D01*
X138940000Y-82500901D01*
X138940000Y-82670198D01*
X134701365Y-86908833D01*
X134556411Y-86880000D01*
X134283589Y-86880000D01*
X134016011Y-86933225D01*
X133763957Y-87037629D01*
X133537114Y-87189201D01*
X133344201Y-87382114D01*
X133192629Y-87608957D01*
X133088225Y-87861011D01*
X133035000Y-88128589D01*
X133035000Y-88401411D01*
X133088225Y-88668989D01*
X133192629Y-88921043D01*
X133344201Y-89147886D01*
X133537114Y-89340799D01*
X133763957Y-89492371D01*
X134016011Y-89596775D01*
X134283589Y-89650000D01*
X134556411Y-89650000D01*
X134823989Y-89596775D01*
X135076043Y-89492371D01*
X135302886Y-89340799D01*
X135495799Y-89147886D01*
X135647371Y-88921043D01*
X135751775Y-88668989D01*
X135805000Y-88401411D01*
X135805000Y-88128589D01*
X135776167Y-87983635D01*
X140211004Y-83548798D01*
X140240001Y-83525001D01*
X140334974Y-83409276D01*
X140405546Y-83277247D01*
X140449003Y-83133986D01*
X140460000Y-83022333D01*
X140460000Y-83022332D01*
X140463677Y-82985000D01*
X140460000Y-82947667D01*
X140460000Y-82500901D01*
X140501101Y-82478932D01*
X140719608Y-82299608D01*
X140898932Y-82081101D01*
X140950996Y-81983697D01*
X151640000Y-92672703D01*
X151640001Y-106329099D01*
X151598899Y-106351068D01*
X151380392Y-106530393D01*
X151201068Y-106748900D01*
X151130000Y-106881858D01*
X151058932Y-106748899D01*
X150879607Y-106530392D01*
X150661100Y-106351068D01*
X150411807Y-106217818D01*
X150141308Y-106135764D01*
X149860000Y-106108057D01*
X149578691Y-106135764D01*
X149308192Y-106217818D01*
X149058899Y-106351068D01*
X148840392Y-106530393D01*
X148661068Y-106748900D01*
X148590000Y-106881858D01*
X148518932Y-106748899D01*
X148339607Y-106530392D01*
X148121100Y-106351068D01*
X147871807Y-106217818D01*
X147601308Y-106135764D01*
X147320000Y-106108057D01*
X147038691Y-106135764D01*
X146768192Y-106217818D01*
X146518899Y-106351068D01*
X146300392Y-106530393D01*
X146121068Y-106748900D01*
X146052735Y-106876742D01*
X145902601Y-106647161D01*
X145704895Y-106445500D01*
X145471646Y-106286285D01*
X145211818Y-106175633D01*
X145129039Y-106158096D01*
X144907000Y-106280085D01*
X144907000Y-107823000D01*
X144927000Y-107823000D01*
X144927000Y-108077000D01*
X144907000Y-108077000D01*
X144907000Y-109619915D01*
X145129039Y-109741904D01*
X145211818Y-109724367D01*
X145471646Y-109613715D01*
X145704895Y-109454500D01*
X145902601Y-109252839D01*
X146052735Y-109023259D01*
X146121068Y-109151101D01*
X146300393Y-109369608D01*
X146518900Y-109548932D01*
X146768193Y-109682182D01*
X147038692Y-109764236D01*
X147320000Y-109791943D01*
X147601309Y-109764236D01*
X147871808Y-109682182D01*
X148121101Y-109548932D01*
X148339608Y-109369608D01*
X148518932Y-109151101D01*
X148590000Y-109018142D01*
X148661068Y-109151101D01*
X148840393Y-109369608D01*
X149058900Y-109548932D01*
X149308193Y-109682182D01*
X149578692Y-109764236D01*
X149860000Y-109791943D01*
X150141309Y-109764236D01*
X150411808Y-109682182D01*
X150661101Y-109548932D01*
X150879608Y-109369608D01*
X151058932Y-109151101D01*
X151130000Y-109018142D01*
X151201068Y-109151101D01*
X151380393Y-109369608D01*
X151598900Y-109548932D01*
X151848193Y-109682182D01*
X152118692Y-109764236D01*
X152400000Y-109791943D01*
X152681309Y-109764236D01*
X152785401Y-109732661D01*
X152785401Y-121407340D01*
X152681308Y-121375764D01*
X152400000Y-121348057D01*
X152118691Y-121375764D01*
X151848192Y-121457818D01*
X151598899Y-121591068D01*
X151380392Y-121770393D01*
X151201068Y-121988900D01*
X151130000Y-122121858D01*
X151058932Y-121988899D01*
X150879607Y-121770392D01*
X150661100Y-121591068D01*
X150411807Y-121457818D01*
X150141308Y-121375764D01*
X149860000Y-121348057D01*
X149578691Y-121375764D01*
X149308192Y-121457818D01*
X149058899Y-121591068D01*
X148840392Y-121770393D01*
X148661068Y-121988900D01*
X148590000Y-122121858D01*
X148518932Y-121988899D01*
X148339607Y-121770392D01*
X148121100Y-121591068D01*
X147871807Y-121457818D01*
X147601308Y-121375764D01*
X147320000Y-121348057D01*
X147038691Y-121375764D01*
X146768192Y-121457818D01*
X146518899Y-121591068D01*
X146300392Y-121770393D01*
X146121068Y-121988900D01*
X146050000Y-122121858D01*
X145978932Y-121988899D01*
X145799607Y-121770392D01*
X145581100Y-121591068D01*
X145533942Y-121565862D01*
X145529003Y-121515714D01*
X145485546Y-121372453D01*
X145414974Y-121240424D01*
X145394039Y-121214915D01*
X145343799Y-121153696D01*
X145343795Y-121153692D01*
X145320001Y-121124699D01*
X145291008Y-121100905D01*
X133300622Y-109110521D01*
X133350000Y-109018142D01*
X133421068Y-109151101D01*
X133600393Y-109369608D01*
X133818900Y-109548932D01*
X134068193Y-109682182D01*
X134338692Y-109764236D01*
X134620000Y-109791943D01*
X134901309Y-109764236D01*
X135171808Y-109682182D01*
X135421101Y-109548932D01*
X135639608Y-109369608D01*
X135818932Y-109151101D01*
X135890000Y-109018142D01*
X135961068Y-109151101D01*
X136140393Y-109369608D01*
X136358900Y-109548932D01*
X136608193Y-109682182D01*
X136878692Y-109764236D01*
X137160000Y-109791943D01*
X137441309Y-109764236D01*
X137711808Y-109682182D01*
X137961101Y-109548932D01*
X138179608Y-109369608D01*
X138358932Y-109151101D01*
X138430000Y-109018142D01*
X138501068Y-109151101D01*
X138680393Y-109369608D01*
X138898900Y-109548932D01*
X139148193Y-109682182D01*
X139418692Y-109764236D01*
X139700000Y-109791943D01*
X139981309Y-109764236D01*
X140251808Y-109682182D01*
X140501101Y-109548932D01*
X140719608Y-109369608D01*
X140898932Y-109151101D01*
X140970000Y-109018142D01*
X141041068Y-109151101D01*
X141220393Y-109369608D01*
X141438900Y-109548932D01*
X141688193Y-109682182D01*
X141958692Y-109764236D01*
X142240000Y-109791943D01*
X142521309Y-109764236D01*
X142791808Y-109682182D01*
X143041101Y-109548932D01*
X143259608Y-109369608D01*
X143438932Y-109151101D01*
X143507265Y-109023259D01*
X143657399Y-109252839D01*
X143855105Y-109454500D01*
X144088354Y-109613715D01*
X144348182Y-109724367D01*
X144430961Y-109741904D01*
X144653000Y-109619915D01*
X144653000Y-108077000D01*
X144633000Y-108077000D01*
X144633000Y-107823000D01*
X144653000Y-107823000D01*
X144653000Y-106280085D01*
X144430961Y-106158096D01*
X144348182Y-106175633D01*
X144088354Y-106286285D01*
X143855105Y-106445500D01*
X143657399Y-106647161D01*
X143507265Y-106876741D01*
X143438932Y-106748899D01*
X143259607Y-106530392D01*
X143041100Y-106351068D01*
X142993942Y-106325862D01*
X142989003Y-106275714D01*
X142945546Y-106132453D01*
X142874974Y-106000424D01*
X142780001Y-105884699D01*
X142751003Y-105860901D01*
X128188767Y-91298665D01*
X138265000Y-91298665D01*
X138265000Y-91581335D01*
X138320147Y-91858574D01*
X138428320Y-92119727D01*
X138585363Y-92354759D01*
X138785241Y-92554637D01*
X139020273Y-92711680D01*
X139281426Y-92819853D01*
X139558665Y-92875000D01*
X139841335Y-92875000D01*
X140118574Y-92819853D01*
X140379727Y-92711680D01*
X140614759Y-92554637D01*
X140814637Y-92354759D01*
X140971680Y-92119727D01*
X141079853Y-91858574D01*
X141135000Y-91581335D01*
X141135000Y-91298665D01*
X141079853Y-91021426D01*
X140971680Y-90760273D01*
X140814637Y-90525241D01*
X140614759Y-90325363D01*
X140379727Y-90168320D01*
X140118574Y-90060147D01*
X139841335Y-90005000D01*
X139558665Y-90005000D01*
X139281426Y-90060147D01*
X139020273Y-90168320D01*
X138785241Y-90325363D01*
X138585363Y-90525241D01*
X138428320Y-90760273D01*
X138320147Y-91021426D01*
X138265000Y-91298665D01*
X128188767Y-91298665D01*
X118170102Y-81280000D01*
X123018057Y-81280000D01*
X123045764Y-81561309D01*
X123127818Y-81831808D01*
X123261068Y-82081101D01*
X123440392Y-82299608D01*
X123658899Y-82478932D01*
X123908192Y-82612182D01*
X124178691Y-82694236D01*
X124389508Y-82715000D01*
X124530492Y-82715000D01*
X124741309Y-82694236D01*
X125011808Y-82612182D01*
X125261101Y-82478932D01*
X125479608Y-82299608D01*
X125658932Y-82081101D01*
X125792182Y-81831808D01*
X125874236Y-81561309D01*
X125901943Y-81280000D01*
X125874236Y-80998691D01*
X125792182Y-80728192D01*
X125658932Y-80478899D01*
X125479608Y-80260392D01*
X125261101Y-80081068D01*
X125011808Y-79947818D01*
X124741309Y-79865764D01*
X124530492Y-79845000D01*
X124389508Y-79845000D01*
X124178691Y-79865764D01*
X123908192Y-79947818D01*
X123658899Y-80081068D01*
X123440392Y-80260392D01*
X123261068Y-80478899D01*
X123127818Y-80728192D01*
X123045764Y-80998691D01*
X123018057Y-81280000D01*
X118170102Y-81280000D01*
X117659104Y-80769003D01*
X117635301Y-80739999D01*
X117519576Y-80645026D01*
X117387547Y-80574454D01*
X117244286Y-80530997D01*
X117132633Y-80520000D01*
X117132622Y-80520000D01*
X117095300Y-80516324D01*
X117057978Y-80520000D01*
X106052595Y-80520000D01*
X106015706Y-80450986D01*
X105830134Y-80224866D01*
X105604014Y-80039294D01*
X105346034Y-79901401D01*
X105066111Y-79816487D01*
X104847950Y-79795000D01*
X104702050Y-79795000D01*
X104483889Y-79816487D01*
X104203966Y-79901401D01*
X103945986Y-80039294D01*
X103719866Y-80224866D01*
X103695393Y-80254687D01*
X103674502Y-80185820D01*
X103615537Y-80075506D01*
X103536185Y-79978815D01*
X103439494Y-79899463D01*
X103329180Y-79840498D01*
X103209482Y-79804188D01*
X103085000Y-79791928D01*
X101385000Y-79791928D01*
X101260518Y-79804188D01*
X101140820Y-79840498D01*
X101030506Y-79899463D01*
X100933815Y-79978815D01*
X100854463Y-80075506D01*
X100795498Y-80185820D01*
X100759188Y-80305518D01*
X100746928Y-80430000D01*
X100746928Y-82130000D01*
X100759188Y-82254482D01*
X100795498Y-82374180D01*
X100854463Y-82484494D01*
X100933815Y-82581185D01*
X101030506Y-82660537D01*
X101140820Y-82719502D01*
X101209687Y-82740393D01*
X101179866Y-82764866D01*
X100994294Y-82990986D01*
X100856401Y-83248966D01*
X100771487Y-83528889D01*
X100742815Y-83820000D01*
X100771487Y-84111111D01*
X100856401Y-84391034D01*
X100994294Y-84649014D01*
X101179866Y-84875134D01*
X101405986Y-85060706D01*
X101460791Y-85090000D01*
X101405986Y-85119294D01*
X101179866Y-85304866D01*
X100994294Y-85530986D01*
X100856401Y-85788966D01*
X100771487Y-86068889D01*
X100742815Y-86360000D01*
X100771487Y-86651111D01*
X100856401Y-86931034D01*
X100994294Y-87189014D01*
X101179866Y-87415134D01*
X101405986Y-87600706D01*
X101460791Y-87630000D01*
X101405986Y-87659294D01*
X101179866Y-87844866D01*
X100994294Y-88070986D01*
X100856401Y-88328966D01*
X100771487Y-88608889D01*
X100742815Y-88900000D01*
X100771487Y-89191111D01*
X100856401Y-89471034D01*
X100994294Y-89729014D01*
X101179866Y-89955134D01*
X101405986Y-90140706D01*
X101460791Y-90170000D01*
X101405986Y-90199294D01*
X101179866Y-90384866D01*
X100994294Y-90610986D01*
X100856401Y-90868966D01*
X100771487Y-91148889D01*
X100742815Y-91440000D01*
X100771487Y-91731111D01*
X100856401Y-92011034D01*
X100994294Y-92269014D01*
X101179866Y-92495134D01*
X101405986Y-92680706D01*
X101460791Y-92710000D01*
X101405986Y-92739294D01*
X101179866Y-92924866D01*
X100994294Y-93150986D01*
X100856401Y-93408966D01*
X100771487Y-93688889D01*
X100742815Y-93980000D01*
X100771487Y-94271111D01*
X100856401Y-94551034D01*
X100994294Y-94809014D01*
X101059604Y-94888594D01*
X100060403Y-95887796D01*
X100031399Y-95911599D01*
X99976271Y-95978774D01*
X99936426Y-96027324D01*
X99918522Y-96060820D01*
X99865854Y-96159354D01*
X99822397Y-96302615D01*
X99811400Y-96414268D01*
X99811400Y-96414278D01*
X99807724Y-96451600D01*
X99811400Y-96488922D01*
X99811401Y-109181468D01*
X99807724Y-109218800D01*
X99811401Y-109256133D01*
X99822398Y-109367786D01*
X99829956Y-109392701D01*
X99865854Y-109511046D01*
X99936426Y-109643076D01*
X100003141Y-109724367D01*
X100031400Y-109758801D01*
X100060398Y-109782599D01*
X101090976Y-110813178D01*
X100994294Y-110930986D01*
X100856401Y-111188966D01*
X100771487Y-111468889D01*
X100742815Y-111760000D01*
X100771487Y-112051111D01*
X100856401Y-112331034D01*
X100994294Y-112589014D01*
X101179866Y-112815134D01*
X101405986Y-113000706D01*
X101460791Y-113030000D01*
X101405986Y-113059294D01*
X101179866Y-113244866D01*
X100994294Y-113470986D01*
X100856401Y-113728966D01*
X100771487Y-114008889D01*
X100742815Y-114300000D01*
X100771487Y-114591111D01*
X100856401Y-114871034D01*
X100994294Y-115129014D01*
X101179866Y-115355134D01*
X101405986Y-115540706D01*
X101460791Y-115570000D01*
X101405986Y-115599294D01*
X101179866Y-115784866D01*
X100994294Y-116010986D01*
X100856401Y-116268966D01*
X100771487Y-116548889D01*
X100742815Y-116840000D01*
X100771487Y-117131111D01*
X100856401Y-117411034D01*
X100994294Y-117669014D01*
X101078220Y-117771278D01*
X100542902Y-118306597D01*
X100513899Y-118330399D01*
X100489285Y-118360392D01*
X100418926Y-118446124D01*
X100371807Y-118534277D01*
X100348354Y-118578154D01*
X100304897Y-118721415D01*
X100293900Y-118833068D01*
X100293900Y-118833078D01*
X100290224Y-118870400D01*
X100293900Y-118907723D01*
X100293901Y-122389868D01*
X100290224Y-122427200D01*
X100293901Y-122464533D01*
X100304012Y-122567185D01*
X100304898Y-122576185D01*
X100348354Y-122719446D01*
X100418926Y-122851476D01*
X100482548Y-122928999D01*
X100513900Y-122967201D01*
X100542898Y-122990999D01*
X101079302Y-123527404D01*
X100994294Y-123630986D01*
X100856401Y-123888966D01*
X100771487Y-124168889D01*
X100742815Y-124460000D01*
X100771487Y-124751111D01*
X100856401Y-125031034D01*
X100994294Y-125289014D01*
X101179866Y-125515134D01*
X101405986Y-125700706D01*
X101460791Y-125730000D01*
X101405986Y-125759294D01*
X101179866Y-125944866D01*
X100994294Y-126170986D01*
X100856401Y-126428966D01*
X100771487Y-126708889D01*
X100742815Y-127000000D01*
X100771487Y-127291111D01*
X100856401Y-127571034D01*
X100994294Y-127829014D01*
X101179866Y-128055134D01*
X101405986Y-128240706D01*
X101460791Y-128270000D01*
X101405986Y-128299294D01*
X101179866Y-128484866D01*
X100994294Y-128710986D01*
X100856401Y-128968966D01*
X100771487Y-129248889D01*
X100742815Y-129540000D01*
X100771487Y-129831111D01*
X100856401Y-130111034D01*
X100994294Y-130369014D01*
X101179866Y-130595134D01*
X101405986Y-130780706D01*
X101663966Y-130918599D01*
X101943889Y-131003513D01*
X102162050Y-131025000D01*
X102307950Y-131025000D01*
X102526111Y-131003513D01*
X102806034Y-130918599D01*
X103064014Y-130780706D01*
X103290134Y-130595134D01*
X103475706Y-130369014D01*
X103505000Y-130314209D01*
X103534294Y-130369014D01*
X103719866Y-130595134D01*
X103945986Y-130780706D01*
X104203966Y-130918599D01*
X104483889Y-131003513D01*
X104702050Y-131025000D01*
X104847950Y-131025000D01*
X105066111Y-131003513D01*
X105346034Y-130918599D01*
X105604014Y-130780706D01*
X105830134Y-130595134D01*
X106015706Y-130369014D01*
X106153599Y-130111034D01*
X106238513Y-129831111D01*
X106267185Y-129540000D01*
X106238513Y-129248889D01*
X106153599Y-128968966D01*
X106015706Y-128710986D01*
X105830134Y-128484866D01*
X105604014Y-128299294D01*
X105549209Y-128270000D01*
X105604014Y-128240706D01*
X105830134Y-128055134D01*
X106015706Y-127829014D01*
X106153599Y-127571034D01*
X106238513Y-127291111D01*
X106267185Y-127000000D01*
X106238513Y-126708889D01*
X106153599Y-126428966D01*
X106015706Y-126170986D01*
X105830134Y-125944866D01*
X105604014Y-125759294D01*
X105549209Y-125730000D01*
X105604014Y-125700706D01*
X105830134Y-125515134D01*
X106015706Y-125289014D01*
X106153599Y-125031034D01*
X106238513Y-124751111D01*
X106267185Y-124460000D01*
X106238513Y-124168889D01*
X106172114Y-123950000D01*
X107111599Y-123950000D01*
X115017805Y-131856208D01*
X115041599Y-131885201D01*
X115070592Y-131908995D01*
X115070596Y-131908999D01*
X115141285Y-131967011D01*
X115157324Y-131980174D01*
X115289353Y-132050746D01*
X115303377Y-132055000D01*
X98450000Y-132055000D01*
X98450000Y-78462702D01*
X116701903Y-78462702D01*
X116773486Y-78706671D01*
X117028996Y-78827571D01*
X117303184Y-78896300D01*
X117585512Y-78910217D01*
X117865130Y-78868787D01*
X118131292Y-78773603D01*
X118256514Y-78706671D01*
X118328097Y-78462702D01*
X117515000Y-77649605D01*
X116701903Y-78462702D01*
X98450000Y-78462702D01*
X98450000Y-76556890D01*
X100793524Y-76556890D01*
X100838175Y-76704099D01*
X100963359Y-76966920D01*
X101137412Y-77200269D01*
X101353645Y-77395178D01*
X101603748Y-77544157D01*
X101878109Y-77641481D01*
X102108000Y-77520814D01*
X102108000Y-76327000D01*
X102362000Y-76327000D01*
X102362000Y-77520814D01*
X102591891Y-77641481D01*
X102866252Y-77544157D01*
X103116355Y-77395178D01*
X103332588Y-77200269D01*
X103505000Y-76969120D01*
X103677412Y-77200269D01*
X103893645Y-77395178D01*
X104143748Y-77544157D01*
X104418109Y-77641481D01*
X104648000Y-77520814D01*
X104648000Y-76327000D01*
X104902000Y-76327000D01*
X104902000Y-77520814D01*
X105131891Y-77641481D01*
X105406252Y-77544157D01*
X105412371Y-77540512D01*
X116074783Y-77540512D01*
X116116213Y-77820130D01*
X116211397Y-78086292D01*
X116278329Y-78211514D01*
X116522298Y-78283097D01*
X117335395Y-77470000D01*
X117694605Y-77470000D01*
X118507702Y-78283097D01*
X118751671Y-78211514D01*
X118765324Y-78182659D01*
X118900363Y-78384759D01*
X119100241Y-78584637D01*
X119335273Y-78741680D01*
X119596426Y-78849853D01*
X119873665Y-78905000D01*
X120156335Y-78905000D01*
X120433574Y-78849853D01*
X120694727Y-78741680D01*
X120929759Y-78584637D01*
X121129637Y-78384759D01*
X121286680Y-78149727D01*
X121394853Y-77888574D01*
X121450000Y-77611335D01*
X121450000Y-77328665D01*
X121394853Y-77051426D01*
X121286680Y-76790273D01*
X121129637Y-76555241D01*
X120929759Y-76355363D01*
X120694727Y-76198320D01*
X120433574Y-76090147D01*
X120156335Y-76035000D01*
X119873665Y-76035000D01*
X119596426Y-76090147D01*
X119335273Y-76198320D01*
X119100241Y-76355363D01*
X118900363Y-76555241D01*
X118766308Y-76755869D01*
X118751671Y-76728486D01*
X118507702Y-76656903D01*
X117694605Y-77470000D01*
X117335395Y-77470000D01*
X116522298Y-76656903D01*
X116278329Y-76728486D01*
X116157429Y-76983996D01*
X116088700Y-77258184D01*
X116074783Y-77540512D01*
X105412371Y-77540512D01*
X105656355Y-77395178D01*
X105872588Y-77200269D01*
X106046641Y-76966920D01*
X106171825Y-76704099D01*
X106216476Y-76556890D01*
X106174473Y-76477298D01*
X116701903Y-76477298D01*
X117515000Y-77290395D01*
X118328097Y-76477298D01*
X118256514Y-76233329D01*
X118001004Y-76112429D01*
X117726816Y-76043700D01*
X117444488Y-76029783D01*
X117164870Y-76071213D01*
X116898708Y-76166397D01*
X116773486Y-76233329D01*
X116701903Y-76477298D01*
X106174473Y-76477298D01*
X106095155Y-76327000D01*
X104902000Y-76327000D01*
X104648000Y-76327000D01*
X102362000Y-76327000D01*
X102108000Y-76327000D01*
X100914845Y-76327000D01*
X100793524Y-76556890D01*
X98450000Y-76556890D01*
X98450000Y-68580000D01*
X100742815Y-68580000D01*
X100771487Y-68871111D01*
X100856401Y-69151034D01*
X100994294Y-69409014D01*
X101179866Y-69635134D01*
X101405986Y-69820706D01*
X101460791Y-69850000D01*
X101405986Y-69879294D01*
X101179866Y-70064866D01*
X100994294Y-70290986D01*
X100856401Y-70548966D01*
X100771487Y-70828889D01*
X100742815Y-71120000D01*
X100771487Y-71411111D01*
X100856401Y-71691034D01*
X100994294Y-71949014D01*
X101179866Y-72175134D01*
X101405986Y-72360706D01*
X101460791Y-72390000D01*
X101405986Y-72419294D01*
X101179866Y-72604866D01*
X100994294Y-72830986D01*
X100856401Y-73088966D01*
X100771487Y-73368889D01*
X100742815Y-73660000D01*
X100771487Y-73951111D01*
X100856401Y-74231034D01*
X100994294Y-74489014D01*
X101179866Y-74715134D01*
X101405986Y-74900706D01*
X101470523Y-74935201D01*
X101353645Y-75004822D01*
X101137412Y-75199731D01*
X100963359Y-75433080D01*
X100838175Y-75695901D01*
X100793524Y-75843110D01*
X100914845Y-76073000D01*
X102108000Y-76073000D01*
X102108000Y-76053000D01*
X102362000Y-76053000D01*
X102362000Y-76073000D01*
X104648000Y-76073000D01*
X104648000Y-76053000D01*
X104902000Y-76053000D01*
X104902000Y-76073000D01*
X106095155Y-76073000D01*
X106216476Y-75843110D01*
X106171825Y-75695901D01*
X106046641Y-75433080D01*
X105872588Y-75199731D01*
X105656355Y-75004822D01*
X105539477Y-74935201D01*
X105604014Y-74900706D01*
X105830134Y-74715134D01*
X106015706Y-74489014D01*
X106153599Y-74231034D01*
X106238513Y-73951111D01*
X106267185Y-73660000D01*
X106238513Y-73368889D01*
X106153599Y-73088966D01*
X106015706Y-72830986D01*
X105830134Y-72604866D01*
X105604014Y-72419294D01*
X105549209Y-72390000D01*
X105604014Y-72360706D01*
X105830134Y-72175134D01*
X106015706Y-71949014D01*
X106153599Y-71691034D01*
X106238513Y-71411111D01*
X106267185Y-71120000D01*
X106238513Y-70828889D01*
X106153599Y-70548966D01*
X106015706Y-70290986D01*
X105830134Y-70064866D01*
X105604014Y-69879294D01*
X105549209Y-69850000D01*
X105604014Y-69820706D01*
X105830134Y-69635134D01*
X106015706Y-69409014D01*
X106153599Y-69151034D01*
X106184247Y-69050000D01*
X109686928Y-69050000D01*
X109686928Y-70650000D01*
X109699188Y-70774482D01*
X109735498Y-70894180D01*
X109794463Y-71004494D01*
X109873815Y-71101185D01*
X109970506Y-71180537D01*
X110080820Y-71239502D01*
X110200518Y-71275812D01*
X110325000Y-71288072D01*
X111925000Y-71288072D01*
X112049482Y-71275812D01*
X112169180Y-71239502D01*
X112279494Y-71180537D01*
X112376185Y-71101185D01*
X112455537Y-71004494D01*
X112514502Y-70894180D01*
X112550812Y-70774482D01*
X112563072Y-70650000D01*
X112563072Y-69572702D01*
X116701903Y-69572702D01*
X116773486Y-69816671D01*
X117028996Y-69937571D01*
X117303184Y-70006300D01*
X117585512Y-70020217D01*
X117865130Y-69978787D01*
X118131292Y-69883603D01*
X118256514Y-69816671D01*
X118328097Y-69572702D01*
X117515000Y-68759605D01*
X116701903Y-69572702D01*
X112563072Y-69572702D01*
X112563072Y-69050000D01*
X112550812Y-68925518D01*
X112514502Y-68805820D01*
X112455537Y-68695506D01*
X112418612Y-68650512D01*
X116074783Y-68650512D01*
X116116213Y-68930130D01*
X116211397Y-69196292D01*
X116278329Y-69321514D01*
X116522298Y-69393097D01*
X117335395Y-68580000D01*
X117694605Y-68580000D01*
X118507702Y-69393097D01*
X118751671Y-69321514D01*
X118765324Y-69292659D01*
X118900363Y-69494759D01*
X119100241Y-69694637D01*
X119335273Y-69851680D01*
X119596426Y-69959853D01*
X119873665Y-70015000D01*
X120156335Y-70015000D01*
X120433574Y-69959853D01*
X120694727Y-69851680D01*
X120929759Y-69694637D01*
X121129637Y-69494759D01*
X121286680Y-69259727D01*
X121394853Y-68998574D01*
X121450000Y-68721335D01*
X121450000Y-68438665D01*
X121394853Y-68161426D01*
X121286680Y-67900273D01*
X121129637Y-67665241D01*
X120929759Y-67465363D01*
X120694727Y-67308320D01*
X120433574Y-67200147D01*
X120156335Y-67145000D01*
X119873665Y-67145000D01*
X119596426Y-67200147D01*
X119335273Y-67308320D01*
X119100241Y-67465363D01*
X118900363Y-67665241D01*
X118766308Y-67865869D01*
X118751671Y-67838486D01*
X118507702Y-67766903D01*
X117694605Y-68580000D01*
X117335395Y-68580000D01*
X116522298Y-67766903D01*
X116278329Y-67838486D01*
X116157429Y-68093996D01*
X116088700Y-68368184D01*
X116074783Y-68650512D01*
X112418612Y-68650512D01*
X112376185Y-68598815D01*
X112279494Y-68519463D01*
X112169180Y-68460498D01*
X112049482Y-68424188D01*
X111925000Y-68411928D01*
X111917785Y-68411928D01*
X111938097Y-68342702D01*
X111125000Y-67529605D01*
X110311903Y-68342702D01*
X110332215Y-68411928D01*
X110325000Y-68411928D01*
X110200518Y-68424188D01*
X110080820Y-68460498D01*
X109970506Y-68519463D01*
X109873815Y-68598815D01*
X109794463Y-68695506D01*
X109735498Y-68805820D01*
X109699188Y-68925518D01*
X109686928Y-69050000D01*
X106184247Y-69050000D01*
X106238513Y-68871111D01*
X106267185Y-68580000D01*
X106238513Y-68288889D01*
X106153599Y-68008966D01*
X106015706Y-67750986D01*
X105830134Y-67524866D01*
X105702979Y-67420512D01*
X109684783Y-67420512D01*
X109726213Y-67700130D01*
X109821397Y-67966292D01*
X109888329Y-68091514D01*
X110132298Y-68163097D01*
X110945395Y-67350000D01*
X111304605Y-67350000D01*
X112117702Y-68163097D01*
X112361671Y-68091514D01*
X112482571Y-67836004D01*
X112544912Y-67587298D01*
X116701903Y-67587298D01*
X117515000Y-68400395D01*
X118328097Y-67587298D01*
X118256514Y-67343329D01*
X118001004Y-67222429D01*
X117726816Y-67153700D01*
X117444488Y-67139783D01*
X117164870Y-67181213D01*
X116898708Y-67276397D01*
X116773486Y-67343329D01*
X116701903Y-67587298D01*
X112544912Y-67587298D01*
X112551300Y-67561816D01*
X112565217Y-67279488D01*
X112523787Y-66999870D01*
X112428603Y-66733708D01*
X112361671Y-66608486D01*
X112117702Y-66536903D01*
X111304605Y-67350000D01*
X110945395Y-67350000D01*
X110132298Y-66536903D01*
X109888329Y-66608486D01*
X109767429Y-66863996D01*
X109698700Y-67138184D01*
X109684783Y-67420512D01*
X105702979Y-67420512D01*
X105604014Y-67339294D01*
X105539477Y-67304799D01*
X105656355Y-67235178D01*
X105872588Y-67040269D01*
X106046641Y-66806920D01*
X106171825Y-66544099D01*
X106216476Y-66396890D01*
X106195582Y-66357298D01*
X110311903Y-66357298D01*
X111125000Y-67170395D01*
X111938097Y-66357298D01*
X111866514Y-66113329D01*
X111611004Y-65992429D01*
X111336816Y-65923700D01*
X111054488Y-65909783D01*
X110774870Y-65951213D01*
X110508708Y-66046397D01*
X110383486Y-66113329D01*
X110311903Y-66357298D01*
X106195582Y-66357298D01*
X106095155Y-66167000D01*
X104902000Y-66167000D01*
X104902000Y-66187000D01*
X104648000Y-66187000D01*
X104648000Y-66167000D01*
X102362000Y-66167000D01*
X102362000Y-66187000D01*
X102108000Y-66187000D01*
X102108000Y-66167000D01*
X100908750Y-66167000D01*
X100750000Y-66325750D01*
X100746928Y-66890000D01*
X100759188Y-67014482D01*
X100795498Y-67134180D01*
X100854463Y-67244494D01*
X100933815Y-67341185D01*
X101030506Y-67420537D01*
X101140820Y-67479502D01*
X101209687Y-67500393D01*
X101179866Y-67524866D01*
X100994294Y-67750986D01*
X100856401Y-68008966D01*
X100771487Y-68288889D01*
X100742815Y-68580000D01*
X98450000Y-68580000D01*
X98450000Y-65190000D01*
X100746928Y-65190000D01*
X100750000Y-65754250D01*
X100908750Y-65913000D01*
X102108000Y-65913000D01*
X102108000Y-64713750D01*
X102362000Y-64713750D01*
X102362000Y-65913000D01*
X104648000Y-65913000D01*
X104648000Y-64719186D01*
X104902000Y-64719186D01*
X104902000Y-65913000D01*
X106095155Y-65913000D01*
X106216476Y-65683110D01*
X106171825Y-65535901D01*
X106046641Y-65273080D01*
X105872588Y-65039731D01*
X105656355Y-64844822D01*
X105406252Y-64695843D01*
X105131891Y-64598519D01*
X104902000Y-64719186D01*
X104648000Y-64719186D01*
X104418109Y-64598519D01*
X104143748Y-64695843D01*
X103893645Y-64844822D01*
X103697498Y-65021626D01*
X103674502Y-64945820D01*
X103615537Y-64835506D01*
X103536185Y-64738815D01*
X103439494Y-64659463D01*
X103329180Y-64600498D01*
X103209482Y-64564188D01*
X103085000Y-64551928D01*
X102520750Y-64555000D01*
X102362000Y-64713750D01*
X102108000Y-64713750D01*
X101949250Y-64555000D01*
X101385000Y-64551928D01*
X101260518Y-64564188D01*
X101140820Y-64600498D01*
X101030506Y-64659463D01*
X100933815Y-64738815D01*
X100854463Y-64835506D01*
X100795498Y-64945820D01*
X100759188Y-65065518D01*
X100746928Y-65190000D01*
X98450000Y-65190000D01*
X98450000Y-63525000D01*
X196825000Y-63525000D01*
X196825001Y-132055000D01*
X196825001Y-132055000D01*
G37*
X196825001Y-132055000D02*
X158748323Y-132055000D01*
X158762347Y-132050746D01*
X158894376Y-131980174D01*
X159010101Y-131885201D01*
X159033904Y-131856197D01*
X163567812Y-127322290D01*
X189230000Y-127322290D01*
X189230000Y-127947710D01*
X189352014Y-128561113D01*
X189591352Y-129138926D01*
X189938817Y-129658944D01*
X190381056Y-130101183D01*
X190901074Y-130448648D01*
X191478887Y-130687986D01*
X192092290Y-130810000D01*
X192717710Y-130810000D01*
X193331113Y-130687986D01*
X193908926Y-130448648D01*
X194428944Y-130101183D01*
X194871183Y-129658944D01*
X195218648Y-129138926D01*
X195457986Y-128561113D01*
X195580000Y-127947710D01*
X195580000Y-127322290D01*
X195457986Y-126708887D01*
X195218648Y-126131074D01*
X194871183Y-125611056D01*
X194428944Y-125168817D01*
X193908926Y-124821352D01*
X193331113Y-124582014D01*
X192717710Y-124460000D01*
X192092290Y-124460000D01*
X191478887Y-124582014D01*
X190901074Y-124821352D01*
X190381056Y-125168817D01*
X189938817Y-125611056D01*
X189591352Y-126131074D01*
X189352014Y-126708887D01*
X189230000Y-127322290D01*
X163567812Y-127322290D01*
X165611008Y-125279095D01*
X165640001Y-125255301D01*
X165663795Y-125226308D01*
X165663799Y-125226304D01*
X165734973Y-125139577D01*
X165734974Y-125139576D01*
X165805546Y-125007547D01*
X165849003Y-124864286D01*
X165853942Y-124814139D01*
X165901101Y-124788932D01*
X166119608Y-124609608D01*
X166298932Y-124391101D01*
X166432182Y-124141808D01*
X166514236Y-123871309D01*
X166535000Y-123660491D01*
X166535000Y-122719508D01*
X166514236Y-122508691D01*
X166463065Y-122340000D01*
X169326928Y-122340000D01*
X169326928Y-124040000D01*
X169339188Y-124164482D01*
X169375498Y-124284180D01*
X169434463Y-124394494D01*
X169513815Y-124491185D01*
X169610506Y-124570537D01*
X169720820Y-124629502D01*
X169840518Y-124665812D01*
X169965000Y-124678072D01*
X171665000Y-124678072D01*
X171789482Y-124665812D01*
X171909180Y-124629502D01*
X172019494Y-124570537D01*
X172116185Y-124491185D01*
X172195537Y-124394494D01*
X172254502Y-124284180D01*
X172277498Y-124208374D01*
X172473645Y-124385178D01*
X172723748Y-124534157D01*
X172998109Y-124631481D01*
X173228000Y-124510814D01*
X173228000Y-123317000D01*
X173482000Y-123317000D01*
X173482000Y-124510814D01*
X173711891Y-124631481D01*
X173986252Y-124534157D01*
X174236355Y-124385178D01*
X174452588Y-124190269D01*
X174626641Y-123956920D01*
X174751825Y-123694099D01*
X174796476Y-123546890D01*
X174675155Y-123317000D01*
X173482000Y-123317000D01*
X173228000Y-123317000D01*
X173208000Y-123317000D01*
X173208000Y-123063000D01*
X173228000Y-123063000D01*
X173228000Y-121869186D01*
X173482000Y-121869186D01*
X173482000Y-123063000D01*
X174675155Y-123063000D01*
X174796476Y-122833110D01*
X174751825Y-122685901D01*
X174626641Y-122423080D01*
X174452588Y-122189731D01*
X174236355Y-121994822D01*
X173986252Y-121845843D01*
X173711891Y-121748519D01*
X173482000Y-121869186D01*
X173228000Y-121869186D01*
X172998109Y-121748519D01*
X172723748Y-121845843D01*
X172473645Y-121994822D01*
X172277498Y-122171626D01*
X172254502Y-122095820D01*
X172195537Y-121985506D01*
X172116185Y-121888815D01*
X172019494Y-121809463D01*
X171909180Y-121750498D01*
X171789482Y-121714188D01*
X171665000Y-121701928D01*
X169965000Y-121701928D01*
X169840518Y-121714188D01*
X169720820Y-121750498D01*
X169610506Y-121809463D01*
X169513815Y-121888815D01*
X169434463Y-121985506D01*
X169375498Y-122095820D01*
X169339188Y-122215518D01*
X169326928Y-122340000D01*
X166463065Y-122340000D01*
X166432182Y-122238192D01*
X166298932Y-121988899D01*
X166119607Y-121770392D01*
X165901100Y-121591068D01*
X165651807Y-121457818D01*
X165381308Y-121375764D01*
X165100000Y-121348057D01*
X164818691Y-121375764D01*
X164548192Y-121457818D01*
X164298899Y-121591068D01*
X164080392Y-121770393D01*
X163901068Y-121988900D01*
X163830000Y-122121858D01*
X163758932Y-121988899D01*
X163579607Y-121770392D01*
X163361100Y-121591068D01*
X163111807Y-121457818D01*
X162841308Y-121375764D01*
X162560000Y-121348057D01*
X162278691Y-121375764D01*
X162008192Y-121457818D01*
X161758899Y-121591068D01*
X161540392Y-121770393D01*
X161361068Y-121988900D01*
X161290000Y-122121858D01*
X161218932Y-121988899D01*
X161039607Y-121770392D01*
X161011871Y-121747630D01*
X162387611Y-120371890D01*
X189058524Y-120371890D01*
X189103175Y-120519099D01*
X189228359Y-120781920D01*
X189402412Y-121015269D01*
X189618645Y-121210178D01*
X189868748Y-121359157D01*
X190143109Y-121456481D01*
X190373000Y-121335814D01*
X190373000Y-120142000D01*
X189179845Y-120142000D01*
X189058524Y-120371890D01*
X162387611Y-120371890D01*
X171054103Y-111705399D01*
X171083101Y-111681601D01*
X171178074Y-111565876D01*
X171248646Y-111433847D01*
X171292103Y-111290586D01*
X171303100Y-111178933D01*
X171303100Y-111178925D01*
X171306776Y-111141600D01*
X171303100Y-111104275D01*
X171303100Y-104359201D01*
X183249741Y-92412561D01*
X183246928Y-92975000D01*
X183259188Y-93099482D01*
X183295498Y-93219180D01*
X183354463Y-93329494D01*
X183433815Y-93426185D01*
X183530506Y-93505537D01*
X183640820Y-93564502D01*
X183760518Y-93600812D01*
X183885000Y-93613072D01*
X184499250Y-93610000D01*
X184658000Y-93451250D01*
X184658000Y-92202000D01*
X184638000Y-92202000D01*
X184638000Y-91948000D01*
X184658000Y-91948000D01*
X184658000Y-91928000D01*
X184912000Y-91928000D01*
X184912000Y-91948000D01*
X184932000Y-91948000D01*
X184932000Y-92202000D01*
X184912000Y-92202000D01*
X184912000Y-93451250D01*
X185070750Y-93610000D01*
X185685000Y-93613072D01*
X185809482Y-93600812D01*
X185929180Y-93564502D01*
X186039494Y-93505537D01*
X186136185Y-93426185D01*
X186215537Y-93329494D01*
X186274502Y-93219180D01*
X186280056Y-93200873D01*
X186346495Y-93267312D01*
X186597905Y-93435299D01*
X186877257Y-93551011D01*
X187173816Y-93610000D01*
X187476184Y-93610000D01*
X187772743Y-93551011D01*
X188052095Y-93435299D01*
X188303505Y-93267312D01*
X188517312Y-93053505D01*
X188685299Y-92802095D01*
X188801011Y-92522743D01*
X188860000Y-92226184D01*
X188860000Y-91923816D01*
X188801011Y-91627257D01*
X188685299Y-91347905D01*
X188517312Y-91096495D01*
X188303505Y-90882688D01*
X188052095Y-90714701D01*
X187772743Y-90598989D01*
X187476184Y-90540000D01*
X187173816Y-90540000D01*
X186877257Y-90598989D01*
X186597905Y-90714701D01*
X186346495Y-90882688D01*
X186280056Y-90949127D01*
X186274502Y-90930820D01*
X186215537Y-90820506D01*
X186136185Y-90723815D01*
X186039494Y-90644463D01*
X185929180Y-90585498D01*
X185809482Y-90549188D01*
X185685000Y-90536928D01*
X185122561Y-90539741D01*
X189812302Y-85850000D01*
X189914099Y-85850000D01*
X189936068Y-85891101D01*
X190115392Y-86109608D01*
X190333899Y-86288932D01*
X190583192Y-86422182D01*
X190853691Y-86504236D01*
X191064508Y-86525000D01*
X191205492Y-86525000D01*
X191416309Y-86504236D01*
X191554400Y-86462347D01*
X191554400Y-86892653D01*
X191416309Y-86850764D01*
X191205492Y-86830000D01*
X191064508Y-86830000D01*
X190853691Y-86850764D01*
X190583192Y-86932818D01*
X190333899Y-87066068D01*
X190115392Y-87245392D01*
X189936068Y-87463899D01*
X189802818Y-87713192D01*
X189720764Y-87983691D01*
X189693057Y-88265000D01*
X189720764Y-88546309D01*
X189802818Y-88816808D01*
X189936068Y-89066101D01*
X190115392Y-89284608D01*
X190333899Y-89463932D01*
X190583192Y-89597182D01*
X190853691Y-89679236D01*
X191064508Y-89700000D01*
X191205492Y-89700000D01*
X191416309Y-89679236D01*
X191554400Y-89637347D01*
X191554401Y-114019609D01*
X189946971Y-115627039D01*
X189915592Y-115652791D01*
X189812809Y-115778033D01*
X189790168Y-115820392D01*
X189736433Y-115920921D01*
X189716410Y-115986928D01*
X189650000Y-115986928D01*
X189525518Y-115999188D01*
X189405820Y-116035498D01*
X189295506Y-116094463D01*
X189198815Y-116173815D01*
X189119463Y-116270506D01*
X189060498Y-116380820D01*
X189024188Y-116500518D01*
X189011928Y-116625000D01*
X189011928Y-118325000D01*
X189024188Y-118449482D01*
X189060498Y-118569180D01*
X189119463Y-118679494D01*
X189198815Y-118776185D01*
X189295506Y-118855537D01*
X189405820Y-118914502D01*
X189486466Y-118938966D01*
X189402412Y-119014731D01*
X189228359Y-119248080D01*
X189103175Y-119510901D01*
X189058524Y-119658110D01*
X189179845Y-119888000D01*
X190373000Y-119888000D01*
X190373000Y-119868000D01*
X190627000Y-119868000D01*
X190627000Y-119888000D01*
X190647000Y-119888000D01*
X190647000Y-120142000D01*
X190627000Y-120142000D01*
X190627000Y-121335814D01*
X190856891Y-121456481D01*
X191131252Y-121359157D01*
X191381355Y-121210178D01*
X191597588Y-121015269D01*
X191768416Y-120786244D01*
X191799294Y-120844014D01*
X191984866Y-121070134D01*
X192210986Y-121255706D01*
X192468966Y-121393599D01*
X192748889Y-121478513D01*
X192967050Y-121500000D01*
X193112950Y-121500000D01*
X193331111Y-121478513D01*
X193611034Y-121393599D01*
X193869014Y-121255706D01*
X194095134Y-121070134D01*
X194280706Y-120844014D01*
X194418599Y-120586034D01*
X194503513Y-120306111D01*
X194532185Y-120015000D01*
X194503513Y-119723889D01*
X194418599Y-119443966D01*
X194280706Y-119185986D01*
X194095134Y-118959866D01*
X193869014Y-118774294D01*
X193814209Y-118745000D01*
X193869014Y-118715706D01*
X194095134Y-118530134D01*
X194280706Y-118304014D01*
X194418599Y-118046034D01*
X194503513Y-117766111D01*
X194532185Y-117475000D01*
X194503513Y-117183889D01*
X194418599Y-116903966D01*
X194280706Y-116645986D01*
X194095134Y-116419866D01*
X193869014Y-116234294D01*
X193611034Y-116096401D01*
X193331111Y-116011487D01*
X193112950Y-115990000D01*
X192967050Y-115990000D01*
X192748889Y-116011487D01*
X192468966Y-116096401D01*
X192210986Y-116234294D01*
X191984866Y-116419866D01*
X191960393Y-116449687D01*
X191939502Y-116380820D01*
X191880537Y-116270506D01*
X191801185Y-116173815D01*
X191760206Y-116140184D01*
X192929925Y-114970465D01*
X192961309Y-114944709D01*
X193064092Y-114819467D01*
X193140467Y-114676580D01*
X193187498Y-114521538D01*
X193199400Y-114400698D01*
X193199400Y-114400689D01*
X193203378Y-114360301D01*
X193199400Y-114319913D01*
X193199400Y-84650587D01*
X193203378Y-84610199D01*
X193199400Y-84569811D01*
X193199400Y-84569802D01*
X193187498Y-84448962D01*
X193140467Y-84293920D01*
X193064092Y-84151033D01*
X192961309Y-84025791D01*
X192929926Y-84000036D01*
X191995266Y-83065376D01*
X192154608Y-82934608D01*
X192333932Y-82716101D01*
X192467182Y-82466808D01*
X192549236Y-82196309D01*
X192576943Y-81915000D01*
X192549236Y-81633691D01*
X192467182Y-81363192D01*
X192333932Y-81113899D01*
X192154608Y-80895392D01*
X191936101Y-80716068D01*
X191686808Y-80582818D01*
X191416309Y-80500764D01*
X191205492Y-80480000D01*
X191064508Y-80480000D01*
X190853691Y-80500764D01*
X190727832Y-80538943D01*
X190715246Y-80497453D01*
X190670791Y-80414285D01*
X190644674Y-80365423D01*
X190573499Y-80278697D01*
X190549701Y-80249699D01*
X190520703Y-80225901D01*
X188808731Y-78513930D01*
X188860000Y-78256184D01*
X188860000Y-77953816D01*
X188801011Y-77657257D01*
X188685299Y-77377905D01*
X188517312Y-77126495D01*
X188303505Y-76912688D01*
X188052095Y-76744701D01*
X187772743Y-76628989D01*
X187476184Y-76570000D01*
X187173816Y-76570000D01*
X186877257Y-76628989D01*
X186597905Y-76744701D01*
X186346495Y-76912688D01*
X186280056Y-76979127D01*
X186274502Y-76960820D01*
X186215537Y-76850506D01*
X186136185Y-76753815D01*
X186039494Y-76674463D01*
X185929180Y-76615498D01*
X185809482Y-76579188D01*
X185685000Y-76566928D01*
X185070750Y-76570000D01*
X184912000Y-76728750D01*
X184912000Y-77978000D01*
X184932000Y-77978000D01*
X184932000Y-78232000D01*
X184912000Y-78232000D01*
X184912000Y-79481250D01*
X185070750Y-79640000D01*
X185685000Y-79643072D01*
X185809482Y-79630812D01*
X185929180Y-79594502D01*
X186039494Y-79535537D01*
X186136185Y-79456185D01*
X186215537Y-79359494D01*
X186274502Y-79249180D01*
X186280056Y-79230873D01*
X186346495Y-79297312D01*
X186597905Y-79465299D01*
X186877257Y-79581011D01*
X187173816Y-79640000D01*
X187476184Y-79640000D01*
X187733930Y-79588731D01*
X189249701Y-81104503D01*
X189249700Y-81877667D01*
X189246023Y-81915000D01*
X189260697Y-82063986D01*
X189304154Y-82207247D01*
X189374726Y-82339276D01*
X189404046Y-82375002D01*
X189469699Y-82455001D01*
X189585424Y-82549974D01*
X189717453Y-82620546D01*
X189860714Y-82664003D01*
X189910861Y-82668942D01*
X189916772Y-82680000D01*
X182903191Y-82680000D01*
X182388353Y-82165162D01*
X182410000Y-82056335D01*
X182410000Y-81773665D01*
X182354853Y-81496426D01*
X182246680Y-81235273D01*
X182089637Y-81000241D01*
X181889759Y-80800363D01*
X181654727Y-80643320D01*
X181393574Y-80535147D01*
X181116335Y-80480000D01*
X180833665Y-80480000D01*
X180556426Y-80535147D01*
X180295273Y-80643320D01*
X180060241Y-80800363D01*
X179860363Y-81000241D01*
X179703320Y-81235273D01*
X179595147Y-81496426D01*
X179540000Y-81773665D01*
X179540000Y-82056335D01*
X179595147Y-82333574D01*
X179703320Y-82594727D01*
X179860363Y-82829759D01*
X180060241Y-83029637D01*
X180295273Y-83186680D01*
X180556426Y-83294853D01*
X180833665Y-83350000D01*
X181116335Y-83350000D01*
X181225162Y-83328353D01*
X181836758Y-83939949D01*
X181654727Y-83818320D01*
X181393574Y-83710147D01*
X181116335Y-83655000D01*
X180833665Y-83655000D01*
X180556426Y-83710147D01*
X180295273Y-83818320D01*
X180060241Y-83975363D01*
X179860363Y-84175241D01*
X179703320Y-84410273D01*
X179595147Y-84671426D01*
X179540000Y-84948665D01*
X179540000Y-85231335D01*
X179595147Y-85508574D01*
X179703320Y-85769727D01*
X179860363Y-86004759D01*
X180060241Y-86204637D01*
X180295273Y-86361680D01*
X180556426Y-86469853D01*
X180833665Y-86525000D01*
X181116335Y-86525000D01*
X181393574Y-86469853D01*
X181654727Y-86361680D01*
X181889759Y-86204637D01*
X182089637Y-86004759D01*
X182246680Y-85769727D01*
X182354853Y-85508574D01*
X182410000Y-85231335D01*
X182410000Y-84948665D01*
X182354853Y-84671426D01*
X182246680Y-84410273D01*
X182094388Y-84182351D01*
X182103333Y-84189692D01*
X182209235Y-84246298D01*
X182246220Y-84266067D01*
X182401261Y-84313098D01*
X182562499Y-84328979D01*
X182602898Y-84325000D01*
X189916772Y-84325000D01*
X189914099Y-84330000D01*
X189534833Y-84330000D01*
X189497500Y-84326323D01*
X189460167Y-84330000D01*
X189348514Y-84340997D01*
X189205253Y-84384454D01*
X189073224Y-84455026D01*
X188957499Y-84549999D01*
X188933701Y-84578997D01*
X170032103Y-103480596D01*
X170003099Y-103504399D01*
X169967191Y-103548154D01*
X169908126Y-103620124D01*
X169868586Y-103694098D01*
X169837554Y-103752154D01*
X169794097Y-103895415D01*
X169783100Y-104007068D01*
X169783100Y-104007078D01*
X169779424Y-104044400D01*
X169783100Y-104081723D01*
X169783101Y-110826797D01*
X159508998Y-121100901D01*
X159480000Y-121124699D01*
X159456203Y-121153696D01*
X159456201Y-121153698D01*
X159385026Y-121240424D01*
X159314454Y-121372454D01*
X159288560Y-121457818D01*
X159270998Y-121515714D01*
X159266059Y-121565860D01*
X159218899Y-121591068D01*
X159000392Y-121770393D01*
X158821068Y-121988900D01*
X158750000Y-122121858D01*
X158678932Y-121988899D01*
X158499607Y-121770392D01*
X158281100Y-121591068D01*
X158031807Y-121457818D01*
X157761308Y-121375764D01*
X157480000Y-121348057D01*
X157198691Y-121375764D01*
X156928192Y-121457818D01*
X156678899Y-121591068D01*
X156460392Y-121770393D01*
X156281068Y-121988900D01*
X156210000Y-122121858D01*
X156138932Y-121988899D01*
X155959607Y-121770392D01*
X155741100Y-121591068D01*
X155710478Y-121574700D01*
X155813139Y-121574700D01*
X156013098Y-121534926D01*
X156201456Y-121456905D01*
X156370974Y-121343637D01*
X156515137Y-121199474D01*
X156628405Y-121029956D01*
X156706426Y-120841598D01*
X156746200Y-120641639D01*
X156746200Y-120584020D01*
X156750001Y-120580901D01*
X156844974Y-120465176D01*
X156915546Y-120333147D01*
X156959003Y-120189886D01*
X156970000Y-120078233D01*
X156970000Y-120078225D01*
X156973676Y-120040900D01*
X156970000Y-120003575D01*
X156970000Y-109694864D01*
X157198692Y-109764236D01*
X157480000Y-109791943D01*
X157761309Y-109764236D01*
X158031808Y-109682182D01*
X158281101Y-109548932D01*
X158499608Y-109369608D01*
X158678932Y-109151101D01*
X158750000Y-109018142D01*
X158821068Y-109151101D01*
X159000393Y-109369608D01*
X159218900Y-109548932D01*
X159468193Y-109682182D01*
X159738692Y-109764236D01*
X160020000Y-109791943D01*
X160301309Y-109764236D01*
X160571808Y-109682182D01*
X160821101Y-109548932D01*
X161039608Y-109369608D01*
X161218932Y-109151101D01*
X161290000Y-109018142D01*
X161361068Y-109151101D01*
X161540393Y-109369608D01*
X161758900Y-109548932D01*
X162008193Y-109682182D01*
X162278692Y-109764236D01*
X162560000Y-109791943D01*
X162841309Y-109764236D01*
X163111808Y-109682182D01*
X163361101Y-109548932D01*
X163579608Y-109369608D01*
X163758932Y-109151101D01*
X163830000Y-109018142D01*
X163901068Y-109151101D01*
X164080393Y-109369608D01*
X164298900Y-109548932D01*
X164548193Y-109682182D01*
X164818692Y-109764236D01*
X165100000Y-109791943D01*
X165381309Y-109764236D01*
X165651808Y-109682182D01*
X165901101Y-109548932D01*
X166119608Y-109369608D01*
X166298932Y-109151101D01*
X166432182Y-108901808D01*
X166514236Y-108631309D01*
X166535000Y-108420491D01*
X166535000Y-107479508D01*
X166514236Y-107268691D01*
X166432182Y-106998192D01*
X166298932Y-106748899D01*
X166119607Y-106530392D01*
X165901100Y-106351068D01*
X165651807Y-106217818D01*
X165381308Y-106135764D01*
X165100000Y-106108057D01*
X164818691Y-106135764D01*
X164548192Y-106217818D01*
X164298899Y-106351068D01*
X164080392Y-106530393D01*
X163901068Y-106748900D01*
X163830000Y-106881858D01*
X163758932Y-106748899D01*
X163579607Y-106530392D01*
X163361100Y-106351068D01*
X163111807Y-106217818D01*
X162841308Y-106135764D01*
X162560000Y-106108057D01*
X162278691Y-106135764D01*
X162008192Y-106217818D01*
X161758899Y-106351068D01*
X161540392Y-106530393D01*
X161361068Y-106748900D01*
X161290000Y-106881858D01*
X161218932Y-106748899D01*
X161039607Y-106530392D01*
X160821100Y-106351068D01*
X160571807Y-106217818D01*
X160301308Y-106135764D01*
X160020000Y-106108057D01*
X159738691Y-106135764D01*
X159468192Y-106217818D01*
X159218899Y-106351068D01*
X159000392Y-106530393D01*
X158821068Y-106748900D01*
X158750000Y-106881858D01*
X158678932Y-106748899D01*
X158499607Y-106530392D01*
X158281100Y-106351068D01*
X158031807Y-106217818D01*
X157761308Y-106135764D01*
X157480000Y-106108057D01*
X157198691Y-106135764D01*
X156970000Y-106205136D01*
X156970000Y-105630101D01*
X163706003Y-98894099D01*
X163735001Y-98870301D01*
X163829974Y-98754576D01*
X163900546Y-98622547D01*
X163944003Y-98479286D01*
X163948246Y-98436205D01*
X164024014Y-98395706D01*
X164250134Y-98210134D01*
X164435706Y-97984014D01*
X164573599Y-97726034D01*
X164658513Y-97446111D01*
X164687185Y-97155000D01*
X164658513Y-96863889D01*
X164573599Y-96583966D01*
X164435706Y-96325986D01*
X164250134Y-96099866D01*
X164024014Y-95914294D01*
X163969209Y-95885000D01*
X164024014Y-95855706D01*
X164250134Y-95670134D01*
X164435706Y-95444014D01*
X164573599Y-95186034D01*
X164658513Y-94906111D01*
X164687185Y-94615000D01*
X164658513Y-94323889D01*
X164573599Y-94043966D01*
X164435706Y-93785986D01*
X164250134Y-93559866D01*
X164024014Y-93374294D01*
X163766034Y-93236401D01*
X163486111Y-93151487D01*
X163267950Y-93130000D01*
X163122050Y-93130000D01*
X162903889Y-93151487D01*
X162819091Y-93177210D01*
X165083203Y-90913099D01*
X165112201Y-90889301D01*
X165207174Y-90773576D01*
X165268861Y-90658169D01*
X165453692Y-90714236D01*
X165735000Y-90741943D01*
X166016309Y-90714236D01*
X166286808Y-90632182D01*
X166536101Y-90498932D01*
X166754608Y-90319608D01*
X166933932Y-90101101D01*
X167002265Y-89973259D01*
X167152399Y-90202839D01*
X167350105Y-90404500D01*
X167583354Y-90563715D01*
X167843182Y-90674367D01*
X167925961Y-90691904D01*
X168148000Y-90569915D01*
X168148000Y-89027000D01*
X168402000Y-89027000D01*
X168402000Y-90569915D01*
X168624039Y-90691904D01*
X168706818Y-90674367D01*
X168966646Y-90563715D01*
X169199895Y-90404500D01*
X169397601Y-90202839D01*
X169552166Y-89966483D01*
X169657650Y-89704514D01*
X169710000Y-89427000D01*
X169710000Y-89027000D01*
X168402000Y-89027000D01*
X168148000Y-89027000D01*
X168128000Y-89027000D01*
X168128000Y-88773000D01*
X168148000Y-88773000D01*
X168148000Y-87230085D01*
X168402000Y-87230085D01*
X168402000Y-88773000D01*
X169710000Y-88773000D01*
X169710000Y-88373000D01*
X169662966Y-88123665D01*
X179540000Y-88123665D01*
X179540000Y-88406335D01*
X179595147Y-88683574D01*
X179703320Y-88944727D01*
X179860363Y-89179759D01*
X180060241Y-89379637D01*
X180295273Y-89536680D01*
X180556426Y-89644853D01*
X180833665Y-89700000D01*
X181116335Y-89700000D01*
X181393574Y-89644853D01*
X181654727Y-89536680D01*
X181889759Y-89379637D01*
X182089637Y-89179759D01*
X182246680Y-88944727D01*
X182354853Y-88683574D01*
X182410000Y-88406335D01*
X182410000Y-88123665D01*
X182354853Y-87846426D01*
X182246680Y-87585273D01*
X182089637Y-87350241D01*
X181889759Y-87150363D01*
X181654727Y-86993320D01*
X181393574Y-86885147D01*
X181116335Y-86830000D01*
X180833665Y-86830000D01*
X180556426Y-86885147D01*
X180295273Y-86993320D01*
X180060241Y-87150363D01*
X179860363Y-87350241D01*
X179703320Y-87585273D01*
X179595147Y-87846426D01*
X179540000Y-88123665D01*
X169662966Y-88123665D01*
X169657650Y-88095486D01*
X169552166Y-87833517D01*
X169397601Y-87597161D01*
X169199895Y-87395500D01*
X168966646Y-87236285D01*
X168706818Y-87125633D01*
X168624039Y-87108096D01*
X168402000Y-87230085D01*
X168148000Y-87230085D01*
X167925961Y-87108096D01*
X167843182Y-87125633D01*
X167583354Y-87236285D01*
X167350105Y-87395500D01*
X167152399Y-87597161D01*
X167002265Y-87826741D01*
X166933932Y-87698899D01*
X166754607Y-87480392D01*
X166536100Y-87301068D01*
X166286807Y-87167818D01*
X166016308Y-87085764D01*
X165735000Y-87058057D01*
X165453691Y-87085764D01*
X165332200Y-87122617D01*
X165332200Y-84282901D01*
X165795101Y-83820000D01*
X174504388Y-83820000D01*
X174526785Y-84047400D01*
X174593115Y-84266060D01*
X174694105Y-84455000D01*
X174593115Y-84643940D01*
X174526785Y-84862600D01*
X174504388Y-85090000D01*
X174526785Y-85317400D01*
X174590093Y-85526098D01*
X174555498Y-85590820D01*
X174519188Y-85710518D01*
X174506928Y-85835000D01*
X174506928Y-86885000D01*
X174519188Y-87009482D01*
X174555498Y-87129180D01*
X174614463Y-87239494D01*
X174693815Y-87336185D01*
X174790506Y-87415537D01*
X174900820Y-87474502D01*
X175020518Y-87510812D01*
X175145000Y-87523072D01*
X176645000Y-87523072D01*
X176769482Y-87510812D01*
X176889180Y-87474502D01*
X176999494Y-87415537D01*
X177096185Y-87336185D01*
X177175537Y-87239494D01*
X177234502Y-87129180D01*
X177270812Y-87009482D01*
X177283072Y-86885000D01*
X177283072Y-85835000D01*
X177270812Y-85710518D01*
X177234502Y-85590820D01*
X177199907Y-85526098D01*
X177263215Y-85317400D01*
X177285612Y-85090000D01*
X177263215Y-84862600D01*
X177196885Y-84643940D01*
X177095895Y-84455000D01*
X177196885Y-84266060D01*
X177263215Y-84047400D01*
X177285612Y-83820000D01*
X177263215Y-83592600D01*
X177196885Y-83373940D01*
X177089171Y-83172421D01*
X176944212Y-82995788D01*
X176767579Y-82850829D01*
X176566060Y-82743115D01*
X176347400Y-82676785D01*
X176176979Y-82660000D01*
X175613021Y-82660000D01*
X175442600Y-82676785D01*
X175223940Y-82743115D01*
X175022421Y-82850829D01*
X174845788Y-82995788D01*
X174700829Y-83172421D01*
X174593115Y-83373940D01*
X174526785Y-83592600D01*
X174504388Y-83820000D01*
X165795101Y-83820000D01*
X166246003Y-83369099D01*
X166275001Y-83345301D01*
X166369974Y-83229576D01*
X166440546Y-83097547D01*
X166484003Y-82954286D01*
X166488942Y-82904139D01*
X166536101Y-82878932D01*
X166754608Y-82699608D01*
X166933932Y-82481101D01*
X167005000Y-82348142D01*
X167076068Y-82481101D01*
X167255393Y-82699608D01*
X167473900Y-82878932D01*
X167723193Y-83012182D01*
X167993692Y-83094236D01*
X168275000Y-83121943D01*
X168556309Y-83094236D01*
X168826808Y-83012182D01*
X169076101Y-82878932D01*
X169294608Y-82699608D01*
X169473932Y-82481101D01*
X169607182Y-82231808D01*
X169689236Y-81961309D01*
X169710000Y-81750491D01*
X169710000Y-80809508D01*
X169689236Y-80598691D01*
X169607182Y-80328192D01*
X169473932Y-80078899D01*
X169294607Y-79860392D01*
X169076100Y-79681068D01*
X168826807Y-79547818D01*
X168556308Y-79465764D01*
X168275000Y-79438057D01*
X167993691Y-79465764D01*
X167723192Y-79547818D01*
X167473899Y-79681068D01*
X167255392Y-79860393D01*
X167076068Y-80078900D01*
X167005000Y-80211858D01*
X166933932Y-80078899D01*
X166754607Y-79860392D01*
X166536100Y-79681068D01*
X166286807Y-79547818D01*
X166016308Y-79465764D01*
X165735000Y-79438057D01*
X165453691Y-79465764D01*
X165183192Y-79547818D01*
X164933899Y-79681068D01*
X164715392Y-79860393D01*
X164536068Y-80078900D01*
X164465000Y-80211858D01*
X164393932Y-80078899D01*
X164214607Y-79860392D01*
X163996100Y-79681068D01*
X163746807Y-79547818D01*
X163476308Y-79465764D01*
X163195000Y-79438057D01*
X162913691Y-79465764D01*
X162643192Y-79547818D01*
X162393899Y-79681068D01*
X162175392Y-79860393D01*
X161996068Y-80078900D01*
X161925000Y-80211858D01*
X161853932Y-80078899D01*
X161674607Y-79860392D01*
X161456100Y-79681068D01*
X161206807Y-79547818D01*
X160936308Y-79465764D01*
X160655000Y-79438057D01*
X160373691Y-79465764D01*
X160103192Y-79547818D01*
X159853899Y-79681068D01*
X159635392Y-79860393D01*
X159456068Y-80078900D01*
X159385000Y-80211858D01*
X159313932Y-80078899D01*
X159134607Y-79860392D01*
X158916100Y-79681068D01*
X158666807Y-79547818D01*
X158396308Y-79465764D01*
X158115000Y-79438057D01*
X157833691Y-79465764D01*
X157563192Y-79547818D01*
X157313899Y-79681068D01*
X157095392Y-79860393D01*
X156916068Y-80078900D01*
X156845000Y-80211858D01*
X156773932Y-80078899D01*
X156594607Y-79860392D01*
X156376100Y-79681068D01*
X156126807Y-79547818D01*
X155856308Y-79465764D01*
X155575000Y-79438057D01*
X155293691Y-79465764D01*
X155065000Y-79535136D01*
X155065000Y-79005000D01*
X183246928Y-79005000D01*
X183259188Y-79129482D01*
X183295498Y-79249180D01*
X183354463Y-79359494D01*
X183433815Y-79456185D01*
X183530506Y-79535537D01*
X183640820Y-79594502D01*
X183760518Y-79630812D01*
X183885000Y-79643072D01*
X184499250Y-79640000D01*
X184658000Y-79481250D01*
X184658000Y-78232000D01*
X183408750Y-78232000D01*
X183250000Y-78390750D01*
X183246928Y-79005000D01*
X155065000Y-79005000D01*
X155065000Y-77541983D01*
X155156426Y-77579853D01*
X155433665Y-77635000D01*
X155716335Y-77635000D01*
X155993574Y-77579853D01*
X156254727Y-77471680D01*
X156489759Y-77314637D01*
X156689637Y-77114759D01*
X156846680Y-76879727D01*
X156954853Y-76618574D01*
X156968684Y-76549039D01*
X164343096Y-76549039D01*
X164383754Y-76683087D01*
X164503963Y-76937420D01*
X164671481Y-77163414D01*
X164879869Y-77352385D01*
X165121119Y-77497070D01*
X165385960Y-77591909D01*
X165608000Y-77470624D01*
X165608000Y-76327000D01*
X165862000Y-76327000D01*
X165862000Y-77470624D01*
X166084040Y-77591909D01*
X166348881Y-77497070D01*
X166590131Y-77352385D01*
X166752659Y-77205000D01*
X183246928Y-77205000D01*
X183250000Y-77819250D01*
X183408750Y-77978000D01*
X184658000Y-77978000D01*
X184658000Y-76728750D01*
X184499250Y-76570000D01*
X183885000Y-76566928D01*
X183760518Y-76579188D01*
X183640820Y-76615498D01*
X183530506Y-76674463D01*
X183433815Y-76753815D01*
X183354463Y-76850506D01*
X183295498Y-76960820D01*
X183259188Y-77080518D01*
X183246928Y-77205000D01*
X166752659Y-77205000D01*
X166798519Y-77163414D01*
X166966037Y-76937420D01*
X167086246Y-76683087D01*
X167126904Y-76549039D01*
X167004915Y-76327000D01*
X165862000Y-76327000D01*
X165608000Y-76327000D01*
X164465085Y-76327000D01*
X164343096Y-76549039D01*
X156968684Y-76549039D01*
X157010000Y-76341335D01*
X157010000Y-76058665D01*
X156973688Y-75876114D01*
X156998841Y-75850961D01*
X164343096Y-75850961D01*
X164465085Y-76073000D01*
X165608000Y-76073000D01*
X165608000Y-74929376D01*
X165862000Y-74929376D01*
X165862000Y-76073000D01*
X167004915Y-76073000D01*
X167126904Y-75850961D01*
X167086246Y-75716913D01*
X166966037Y-75462580D01*
X166798519Y-75236586D01*
X166590131Y-75047615D01*
X166348881Y-74902930D01*
X166084040Y-74808091D01*
X165862000Y-74929376D01*
X165608000Y-74929376D01*
X165385960Y-74808091D01*
X165121119Y-74902930D01*
X164879869Y-75047615D01*
X164671481Y-75236586D01*
X164503963Y-75462580D01*
X164383754Y-75716913D01*
X164343096Y-75850961D01*
X156998841Y-75850961D01*
X157356004Y-75493798D01*
X157385001Y-75470001D01*
X157479974Y-75354276D01*
X157550546Y-75222247D01*
X157594003Y-75078986D01*
X157605000Y-74967333D01*
X157605000Y-74967324D01*
X157608676Y-74930001D01*
X157605000Y-74892678D01*
X157605000Y-73828072D01*
X157645000Y-73828072D01*
X157769482Y-73815812D01*
X157889180Y-73779502D01*
X157999494Y-73720537D01*
X158096185Y-73641185D01*
X158175537Y-73544494D01*
X158234502Y-73434180D01*
X158270812Y-73314482D01*
X158283072Y-73190000D01*
X158283072Y-72739039D01*
X163073096Y-72739039D01*
X163113754Y-72873087D01*
X163233963Y-73127420D01*
X163401481Y-73353414D01*
X163609869Y-73542385D01*
X163851119Y-73687070D01*
X164115960Y-73781909D01*
X164338000Y-73660624D01*
X164338000Y-72517000D01*
X164592000Y-72517000D01*
X164592000Y-73660624D01*
X164814040Y-73781909D01*
X165078881Y-73687070D01*
X165320131Y-73542385D01*
X165528519Y-73353414D01*
X165696037Y-73127420D01*
X165816246Y-72873087D01*
X165856904Y-72739039D01*
X165734915Y-72517000D01*
X164592000Y-72517000D01*
X164338000Y-72517000D01*
X163195085Y-72517000D01*
X163073096Y-72739039D01*
X158283072Y-72739039D01*
X158283072Y-72040961D01*
X163073096Y-72040961D01*
X163195085Y-72263000D01*
X164338000Y-72263000D01*
X164338000Y-71119376D01*
X164592000Y-71119376D01*
X164592000Y-72263000D01*
X165734915Y-72263000D01*
X165856904Y-72040961D01*
X165816246Y-71906913D01*
X165696037Y-71652580D01*
X165528519Y-71426586D01*
X165320131Y-71237615D01*
X165078881Y-71092930D01*
X164814040Y-70998091D01*
X164592000Y-71119376D01*
X164338000Y-71119376D01*
X164115960Y-70998091D01*
X163851119Y-71092930D01*
X163609869Y-71237615D01*
X163401481Y-71426586D01*
X163233963Y-71652580D01*
X163113754Y-71906913D01*
X163073096Y-72040961D01*
X158283072Y-72040961D01*
X158283072Y-71590000D01*
X158270812Y-71465518D01*
X158234502Y-71345820D01*
X158175537Y-71235506D01*
X158096185Y-71138815D01*
X157999494Y-71059463D01*
X157889180Y-71000498D01*
X157769482Y-70964188D01*
X157645000Y-70951928D01*
X157606374Y-70951928D01*
X157605000Y-70937976D01*
X157605000Y-70937967D01*
X157594003Y-70826314D01*
X157550546Y-70683053D01*
X157479974Y-70551024D01*
X157385001Y-70435299D01*
X157356004Y-70411502D01*
X156566872Y-69622370D01*
X156594608Y-69599608D01*
X156773932Y-69381101D01*
X156907182Y-69131808D01*
X156989236Y-68861309D01*
X157016943Y-68580000D01*
X157003023Y-68438665D01*
X164300000Y-68438665D01*
X164300000Y-68721335D01*
X164355147Y-68998574D01*
X164463320Y-69259727D01*
X164620363Y-69494759D01*
X164820241Y-69694637D01*
X165055273Y-69851680D01*
X165316426Y-69959853D01*
X165593665Y-70015000D01*
X165876335Y-70015000D01*
X166153574Y-69959853D01*
X166414727Y-69851680D01*
X166649759Y-69694637D01*
X166849637Y-69494759D01*
X167006680Y-69259727D01*
X167114853Y-68998574D01*
X167170000Y-68721335D01*
X167170000Y-68438665D01*
X167114853Y-68161426D01*
X167006680Y-67900273D01*
X166849637Y-67665241D01*
X166816686Y-67632290D01*
X189230000Y-67632290D01*
X189230000Y-68257710D01*
X189352014Y-68871113D01*
X189591352Y-69448926D01*
X189938817Y-69968944D01*
X190381056Y-70411183D01*
X190901074Y-70758648D01*
X191478887Y-70997986D01*
X192092290Y-71120000D01*
X192717710Y-71120000D01*
X193331113Y-70997986D01*
X193908926Y-70758648D01*
X194428944Y-70411183D01*
X194871183Y-69968944D01*
X195218648Y-69448926D01*
X195457986Y-68871113D01*
X195580000Y-68257710D01*
X195580000Y-67632290D01*
X195457986Y-67018887D01*
X195218648Y-66441074D01*
X194871183Y-65921056D01*
X194428944Y-65478817D01*
X193908926Y-65131352D01*
X193331113Y-64892014D01*
X192717710Y-64770000D01*
X192092290Y-64770000D01*
X191478887Y-64892014D01*
X190901074Y-65131352D01*
X190381056Y-65478817D01*
X189938817Y-65921056D01*
X189591352Y-66441074D01*
X189352014Y-67018887D01*
X189230000Y-67632290D01*
X166816686Y-67632290D01*
X166649759Y-67465363D01*
X166414727Y-67308320D01*
X166153574Y-67200147D01*
X165876335Y-67145000D01*
X165593665Y-67145000D01*
X165316426Y-67200147D01*
X165055273Y-67308320D01*
X164820241Y-67465363D01*
X164620363Y-67665241D01*
X164463320Y-67900273D01*
X164355147Y-68161426D01*
X164300000Y-68438665D01*
X157003023Y-68438665D01*
X156989236Y-68298691D01*
X156907182Y-68028192D01*
X156773932Y-67778899D01*
X156594608Y-67560392D01*
X156376101Y-67381068D01*
X156126808Y-67247818D01*
X155856309Y-67165764D01*
X155645492Y-67145000D01*
X155504508Y-67145000D01*
X155293691Y-67165764D01*
X155023192Y-67247818D01*
X154773899Y-67381068D01*
X154555392Y-67560392D01*
X154376068Y-67778899D01*
X154242818Y-68028192D01*
X154160764Y-68298691D01*
X154133057Y-68580000D01*
X154160764Y-68861309D01*
X154242818Y-69131808D01*
X154376068Y-69381101D01*
X154555392Y-69599608D01*
X154773899Y-69778932D01*
X154821059Y-69804140D01*
X154825998Y-69854285D01*
X154869454Y-69997546D01*
X154940026Y-70129576D01*
X154980532Y-70178932D01*
X155035000Y-70245301D01*
X155063998Y-70269099D01*
X155797286Y-71002387D01*
X155690506Y-71059463D01*
X155593815Y-71138815D01*
X155514463Y-71235506D01*
X155455498Y-71345820D01*
X155419188Y-71465518D01*
X155406928Y-71590000D01*
X155406928Y-73190000D01*
X155419188Y-73314482D01*
X155455498Y-73434180D01*
X155514463Y-73544494D01*
X155593815Y-73641185D01*
X155690506Y-73720537D01*
X155800820Y-73779502D01*
X155920518Y-73815812D01*
X156045000Y-73828072D01*
X156085000Y-73828072D01*
X156085000Y-74615198D01*
X155898886Y-74801312D01*
X155716335Y-74765000D01*
X155433665Y-74765000D01*
X155156426Y-74820147D01*
X154895273Y-74928320D01*
X154660241Y-75085363D01*
X154460363Y-75285241D01*
X154303320Y-75520273D01*
X154234946Y-75685344D01*
X148512351Y-69962750D01*
X148526034Y-69958599D01*
X148784014Y-69820706D01*
X149010134Y-69635134D01*
X149195706Y-69409014D01*
X149333599Y-69151034D01*
X149418513Y-68871111D01*
X149447185Y-68580000D01*
X149418513Y-68288889D01*
X149333599Y-68008966D01*
X149195706Y-67750986D01*
X149010134Y-67524866D01*
X148784014Y-67339294D01*
X148526034Y-67201401D01*
X148246111Y-67116487D01*
X148027950Y-67095000D01*
X147882050Y-67095000D01*
X147663889Y-67116487D01*
X147383966Y-67201401D01*
X147303567Y-67244375D01*
X147295946Y-67219253D01*
X147225374Y-67087224D01*
X147130401Y-66971499D01*
X147101397Y-66947696D01*
X146697404Y-66543703D01*
X146673601Y-66514699D01*
X146557876Y-66419726D01*
X146425847Y-66349154D01*
X146282586Y-66305697D01*
X146170933Y-66294700D01*
X146170922Y-66294700D01*
X146133600Y-66291024D01*
X146096278Y-66294700D01*
X139737333Y-66294700D01*
X139700000Y-66291023D01*
X139662667Y-66294700D01*
X139551014Y-66305697D01*
X139407753Y-66349154D01*
X139275724Y-66419726D01*
X139159999Y-66514699D01*
X139065026Y-66630424D01*
X138994454Y-66762453D01*
X138950997Y-66905714D01*
X138946058Y-66955861D01*
X138898899Y-66981068D01*
X138680392Y-67160393D01*
X138501068Y-67378900D01*
X138430000Y-67511858D01*
X138358932Y-67378899D01*
X138179607Y-67160392D01*
X137961100Y-66981068D01*
X137711807Y-66847818D01*
X137441308Y-66765764D01*
X137160000Y-66738057D01*
X136878691Y-66765764D01*
X136608192Y-66847818D01*
X136358899Y-66981068D01*
X136140392Y-67160393D01*
X135961068Y-67378900D01*
X135890000Y-67511858D01*
X135818932Y-67378899D01*
X135639607Y-67160392D01*
X135421100Y-66981068D01*
X135171807Y-66847818D01*
X134901308Y-66765764D01*
X134620000Y-66738057D01*
X134338691Y-66765764D01*
X134068192Y-66847818D01*
X133818899Y-66981068D01*
X133600392Y-67160393D01*
X133421068Y-67378900D01*
X133350000Y-67511858D01*
X133278932Y-67378899D01*
X133099607Y-67160392D01*
X132881100Y-66981068D01*
X132631807Y-66847818D01*
X132361308Y-66765764D01*
X132080000Y-66738057D01*
X131798691Y-66765764D01*
X131528192Y-66847818D01*
X131278899Y-66981068D01*
X131060392Y-67160393D01*
X130881068Y-67378900D01*
X130810000Y-67511858D01*
X130738932Y-67378899D01*
X130559607Y-67160392D01*
X130341100Y-66981068D01*
X130091807Y-66847818D01*
X129821308Y-66765764D01*
X129540000Y-66738057D01*
X129258691Y-66765764D01*
X128988192Y-66847818D01*
X128738899Y-66981068D01*
X128520392Y-67160393D01*
X128341068Y-67378900D01*
X128270000Y-67511858D01*
X128198932Y-67378899D01*
X128019607Y-67160392D01*
X127801100Y-66981068D01*
X127551807Y-66847818D01*
X127281308Y-66765764D01*
X127000000Y-66738057D01*
X126718691Y-66765764D01*
X126448192Y-66847818D01*
X126198899Y-66981068D01*
X125980392Y-67160393D01*
X125801068Y-67378900D01*
X125730000Y-67511858D01*
X125658932Y-67378899D01*
X125479607Y-67160392D01*
X125261100Y-66981068D01*
X125011807Y-66847818D01*
X124741308Y-66765764D01*
X124460000Y-66738057D01*
X124178691Y-66765764D01*
X123908192Y-66847818D01*
X123658899Y-66981068D01*
X123440392Y-67160393D01*
X123261068Y-67378900D01*
X123127818Y-67628193D01*
X123045764Y-67898692D01*
X123025000Y-68109509D01*
X123025000Y-69050492D01*
X123045764Y-69261309D01*
X123127818Y-69531808D01*
X123261068Y-69781101D01*
X123440393Y-69999608D01*
X123658900Y-70178932D01*
X123908193Y-70312182D01*
X124178692Y-70394236D01*
X124460000Y-70421943D01*
X124741309Y-70394236D01*
X125011808Y-70312182D01*
X125261101Y-70178932D01*
X125479608Y-69999608D01*
X125658932Y-69781101D01*
X125730000Y-69648142D01*
X125801068Y-69781101D01*
X125980393Y-69999608D01*
X126198900Y-70178932D01*
X126448193Y-70312182D01*
X126718692Y-70394236D01*
X127000000Y-70421943D01*
X127281309Y-70394236D01*
X127551808Y-70312182D01*
X127801101Y-70178932D01*
X128019608Y-69999608D01*
X128198932Y-69781101D01*
X128270000Y-69648142D01*
X128341068Y-69781101D01*
X128520393Y-69999608D01*
X128738900Y-70178932D01*
X128988193Y-70312182D01*
X129258692Y-70394236D01*
X129540000Y-70421943D01*
X129821309Y-70394236D01*
X130091808Y-70312182D01*
X130341101Y-70178932D01*
X130559608Y-69999608D01*
X130738932Y-69781101D01*
X130810000Y-69648142D01*
X130881068Y-69781101D01*
X131060393Y-69999608D01*
X131278900Y-70178932D01*
X131326059Y-70204139D01*
X131330998Y-70254285D01*
X131374454Y-70397546D01*
X131445026Y-70529576D01*
X131516201Y-70616302D01*
X131540000Y-70645301D01*
X131568998Y-70669099D01*
X135130000Y-74230102D01*
X135130000Y-74455136D01*
X134901308Y-74385764D01*
X134620000Y-74358057D01*
X134338691Y-74385764D01*
X134068192Y-74467818D01*
X133818899Y-74601068D01*
X133600392Y-74780393D01*
X133421068Y-74998900D01*
X133350000Y-75131858D01*
X133278932Y-74998899D01*
X133099607Y-74780392D01*
X132881100Y-74601068D01*
X132631807Y-74467818D01*
X132361308Y-74385764D01*
X132080000Y-74358057D01*
X131798691Y-74385764D01*
X131528192Y-74467818D01*
X131278899Y-74601068D01*
X131060392Y-74780393D01*
X130881068Y-74998900D01*
X130810000Y-75131858D01*
X130738932Y-74998899D01*
X130559607Y-74780392D01*
X130341100Y-74601068D01*
X130091807Y-74467818D01*
X129821308Y-74385764D01*
X129540000Y-74358057D01*
X129258691Y-74385764D01*
X128988192Y-74467818D01*
X128738899Y-74601068D01*
X128520392Y-74780393D01*
X128341068Y-74998900D01*
X128270000Y-75131858D01*
X128198932Y-74998899D01*
X128019607Y-74780392D01*
X127801100Y-74601068D01*
X127551807Y-74467818D01*
X127281308Y-74385764D01*
X127000000Y-74358057D01*
X126718691Y-74385764D01*
X126448192Y-74467818D01*
X126198899Y-74601068D01*
X125980392Y-74780393D01*
X125887581Y-74893483D01*
X125885812Y-74875518D01*
X125849502Y-74755820D01*
X125790537Y-74645506D01*
X125711185Y-74548815D01*
X125614494Y-74469463D01*
X125504180Y-74410498D01*
X125384482Y-74374188D01*
X125260000Y-74361928D01*
X123660000Y-74361928D01*
X123535518Y-74374188D01*
X123415820Y-74410498D01*
X123305506Y-74469463D01*
X123208815Y-74548815D01*
X123129463Y-74645506D01*
X123070498Y-74755820D01*
X123034188Y-74875518D01*
X123021928Y-75000000D01*
X123021928Y-77400000D01*
X123034188Y-77524482D01*
X123070498Y-77644180D01*
X123129463Y-77754494D01*
X123208815Y-77851185D01*
X123305506Y-77930537D01*
X123415820Y-77989502D01*
X123535518Y-78025812D01*
X123660000Y-78038072D01*
X125260000Y-78038072D01*
X125384482Y-78025812D01*
X125504180Y-77989502D01*
X125614494Y-77930537D01*
X125711185Y-77851185D01*
X125790537Y-77754494D01*
X125849502Y-77644180D01*
X125885812Y-77524482D01*
X125887581Y-77506517D01*
X125980393Y-77619608D01*
X126198900Y-77798932D01*
X126246059Y-77824139D01*
X126250568Y-77869915D01*
X126250998Y-77874285D01*
X126294454Y-78017546D01*
X126365026Y-78149576D01*
X126436201Y-78236302D01*
X126460000Y-78265301D01*
X126488998Y-78289099D01*
X128780001Y-80580104D01*
X128780000Y-87107091D01*
X128657114Y-87189201D01*
X128464201Y-87382114D01*
X128312629Y-87608957D01*
X128208225Y-87861011D01*
X128155000Y-88128589D01*
X128155000Y-88401411D01*
X128208225Y-88668989D01*
X128312629Y-88921043D01*
X128464201Y-89147886D01*
X128657114Y-89340799D01*
X128883957Y-89492371D01*
X129136011Y-89596775D01*
X129403589Y-89650000D01*
X129676411Y-89650000D01*
X129943989Y-89596775D01*
X130196043Y-89492371D01*
X130422886Y-89340799D01*
X130615799Y-89147886D01*
X130767371Y-88921043D01*
X130871775Y-88668989D01*
X130925000Y-88401411D01*
X130925000Y-88128589D01*
X130871775Y-87861011D01*
X130767371Y-87608957D01*
X130615799Y-87382114D01*
X130422886Y-87189201D01*
X130300000Y-87107091D01*
X130300000Y-83891983D01*
X130391426Y-83929853D01*
X130668665Y-83985000D01*
X130951335Y-83985000D01*
X131228574Y-83929853D01*
X131489727Y-83821680D01*
X131724759Y-83664637D01*
X131924637Y-83464759D01*
X132060000Y-83262173D01*
X132195363Y-83464759D01*
X132395241Y-83664637D01*
X132630273Y-83821680D01*
X132891426Y-83929853D01*
X133168665Y-83985000D01*
X133451335Y-83985000D01*
X133728574Y-83929853D01*
X133989727Y-83821680D01*
X134224759Y-83664637D01*
X134424637Y-83464759D01*
X134581680Y-83229727D01*
X134689853Y-82968574D01*
X134745000Y-82691335D01*
X134745000Y-82408665D01*
X134689853Y-82131426D01*
X134581680Y-81870273D01*
X134424637Y-81635241D01*
X134224759Y-81435363D01*
X134070000Y-81331957D01*
X134070000Y-78992625D01*
X134073676Y-78955300D01*
X134070000Y-78917975D01*
X134070000Y-78917967D01*
X134059003Y-78806314D01*
X134015546Y-78663053D01*
X133944974Y-78531024D01*
X133850001Y-78415299D01*
X133821004Y-78391502D01*
X133071872Y-77642370D01*
X133099608Y-77619608D01*
X133278932Y-77401101D01*
X133350000Y-77268142D01*
X133421068Y-77401101D01*
X133600393Y-77619608D01*
X133818900Y-77798932D01*
X134068193Y-77932182D01*
X134338692Y-78014236D01*
X134620000Y-78041943D01*
X134901309Y-78014236D01*
X135171808Y-77932182D01*
X135421101Y-77798932D01*
X135548707Y-77694208D01*
X137877400Y-80022902D01*
X137901199Y-80051901D01*
X138016924Y-80146874D01*
X138148953Y-80217446D01*
X138292214Y-80260903D01*
X138403867Y-80271900D01*
X138403875Y-80271900D01*
X138441200Y-80275576D01*
X138478525Y-80271900D01*
X138670948Y-80271900D01*
X138501068Y-80478899D01*
X138367818Y-80728192D01*
X138285764Y-80998691D01*
X138258057Y-81280000D01*
X138285764Y-81561309D01*
X138367818Y-81831808D01*
X138501068Y-82081101D01*
X138680392Y-82299608D01*
X138898899Y-82478932D01*
X138940000Y-82500901D01*
X138940000Y-82670198D01*
X134701365Y-86908833D01*
X134556411Y-86880000D01*
X134283589Y-86880000D01*
X134016011Y-86933225D01*
X133763957Y-87037629D01*
X133537114Y-87189201D01*
X133344201Y-87382114D01*
X133192629Y-87608957D01*
X133088225Y-87861011D01*
X133035000Y-88128589D01*
X133035000Y-88401411D01*
X133088225Y-88668989D01*
X133192629Y-88921043D01*
X133344201Y-89147886D01*
X133537114Y-89340799D01*
X133763957Y-89492371D01*
X134016011Y-89596775D01*
X134283589Y-89650000D01*
X134556411Y-89650000D01*
X134823989Y-89596775D01*
X135076043Y-89492371D01*
X135302886Y-89340799D01*
X135495799Y-89147886D01*
X135647371Y-88921043D01*
X135751775Y-88668989D01*
X135805000Y-88401411D01*
X135805000Y-88128589D01*
X135776167Y-87983635D01*
X140211004Y-83548798D01*
X140240001Y-83525001D01*
X140334974Y-83409276D01*
X140405546Y-83277247D01*
X140449003Y-83133986D01*
X140460000Y-83022333D01*
X140460000Y-83022332D01*
X140463677Y-82985000D01*
X140460000Y-82947667D01*
X140460000Y-82500901D01*
X140501101Y-82478932D01*
X140719608Y-82299608D01*
X140898932Y-82081101D01*
X140950996Y-81983697D01*
X151640000Y-92672703D01*
X151640001Y-106329099D01*
X151598899Y-106351068D01*
X151380392Y-106530393D01*
X151201068Y-106748900D01*
X151130000Y-106881858D01*
X151058932Y-106748899D01*
X150879607Y-106530392D01*
X150661100Y-106351068D01*
X150411807Y-106217818D01*
X150141308Y-106135764D01*
X149860000Y-106108057D01*
X149578691Y-106135764D01*
X149308192Y-106217818D01*
X149058899Y-106351068D01*
X148840392Y-106530393D01*
X148661068Y-106748900D01*
X148590000Y-106881858D01*
X148518932Y-106748899D01*
X148339607Y-106530392D01*
X148121100Y-106351068D01*
X147871807Y-106217818D01*
X147601308Y-106135764D01*
X147320000Y-106108057D01*
X147038691Y-106135764D01*
X146768192Y-106217818D01*
X146518899Y-106351068D01*
X146300392Y-106530393D01*
X146121068Y-106748900D01*
X146052735Y-106876742D01*
X145902601Y-106647161D01*
X145704895Y-106445500D01*
X145471646Y-106286285D01*
X145211818Y-106175633D01*
X145129039Y-106158096D01*
X144907000Y-106280085D01*
X144907000Y-107823000D01*
X144927000Y-107823000D01*
X144927000Y-108077000D01*
X144907000Y-108077000D01*
X144907000Y-109619915D01*
X145129039Y-109741904D01*
X145211818Y-109724367D01*
X145471646Y-109613715D01*
X145704895Y-109454500D01*
X145902601Y-109252839D01*
X146052735Y-109023259D01*
X146121068Y-109151101D01*
X146300393Y-109369608D01*
X146518900Y-109548932D01*
X146768193Y-109682182D01*
X147038692Y-109764236D01*
X147320000Y-109791943D01*
X147601309Y-109764236D01*
X147871808Y-109682182D01*
X148121101Y-109548932D01*
X148339608Y-109369608D01*
X148518932Y-109151101D01*
X148590000Y-109018142D01*
X148661068Y-109151101D01*
X148840393Y-109369608D01*
X149058900Y-109548932D01*
X149308193Y-109682182D01*
X149578692Y-109764236D01*
X149860000Y-109791943D01*
X150141309Y-109764236D01*
X150411808Y-109682182D01*
X150661101Y-109548932D01*
X150879608Y-109369608D01*
X151058932Y-109151101D01*
X151130000Y-109018142D01*
X151201068Y-109151101D01*
X151380393Y-109369608D01*
X151598900Y-109548932D01*
X151848193Y-109682182D01*
X152118692Y-109764236D01*
X152400000Y-109791943D01*
X152681309Y-109764236D01*
X152785401Y-109732661D01*
X152785401Y-121407340D01*
X152681308Y-121375764D01*
X152400000Y-121348057D01*
X152118691Y-121375764D01*
X151848192Y-121457818D01*
X151598899Y-121591068D01*
X151380392Y-121770393D01*
X151201068Y-121988900D01*
X151130000Y-122121858D01*
X151058932Y-121988899D01*
X150879607Y-121770392D01*
X150661100Y-121591068D01*
X150411807Y-121457818D01*
X150141308Y-121375764D01*
X149860000Y-121348057D01*
X149578691Y-121375764D01*
X149308192Y-121457818D01*
X149058899Y-121591068D01*
X148840392Y-121770393D01*
X148661068Y-121988900D01*
X148590000Y-122121858D01*
X148518932Y-121988899D01*
X148339607Y-121770392D01*
X148121100Y-121591068D01*
X147871807Y-121457818D01*
X147601308Y-121375764D01*
X147320000Y-121348057D01*
X147038691Y-121375764D01*
X146768192Y-121457818D01*
X146518899Y-121591068D01*
X146300392Y-121770393D01*
X146121068Y-121988900D01*
X146050000Y-122121858D01*
X145978932Y-121988899D01*
X145799607Y-121770392D01*
X145581100Y-121591068D01*
X145533942Y-121565862D01*
X145529003Y-121515714D01*
X145485546Y-121372453D01*
X145414974Y-121240424D01*
X145394039Y-121214915D01*
X145343799Y-121153696D01*
X145343795Y-121153692D01*
X145320001Y-121124699D01*
X145291008Y-121100905D01*
X133300622Y-109110521D01*
X133350000Y-109018142D01*
X133421068Y-109151101D01*
X133600393Y-109369608D01*
X133818900Y-109548932D01*
X134068193Y-109682182D01*
X134338692Y-109764236D01*
X134620000Y-109791943D01*
X134901309Y-109764236D01*
X135171808Y-109682182D01*
X135421101Y-109548932D01*
X135639608Y-109369608D01*
X135818932Y-109151101D01*
X135890000Y-109018142D01*
X135961068Y-109151101D01*
X136140393Y-109369608D01*
X136358900Y-109548932D01*
X136608193Y-109682182D01*
X136878692Y-109764236D01*
X137160000Y-109791943D01*
X137441309Y-109764236D01*
X137711808Y-109682182D01*
X137961101Y-109548932D01*
X138179608Y-109369608D01*
X138358932Y-109151101D01*
X138430000Y-109018142D01*
X138501068Y-109151101D01*
X138680393Y-109369608D01*
X138898900Y-109548932D01*
X139148193Y-109682182D01*
X139418692Y-109764236D01*
X139700000Y-109791943D01*
X139981309Y-109764236D01*
X140251808Y-109682182D01*
X140501101Y-109548932D01*
X140719608Y-109369608D01*
X140898932Y-109151101D01*
X140970000Y-109018142D01*
X141041068Y-109151101D01*
X141220393Y-109369608D01*
X141438900Y-109548932D01*
X141688193Y-109682182D01*
X141958692Y-109764236D01*
X142240000Y-109791943D01*
X142521309Y-109764236D01*
X142791808Y-109682182D01*
X143041101Y-109548932D01*
X143259608Y-109369608D01*
X143438932Y-109151101D01*
X143507265Y-109023259D01*
X143657399Y-109252839D01*
X143855105Y-109454500D01*
X144088354Y-109613715D01*
X144348182Y-109724367D01*
X144430961Y-109741904D01*
X144653000Y-109619915D01*
X144653000Y-108077000D01*
X144633000Y-108077000D01*
X144633000Y-107823000D01*
X144653000Y-107823000D01*
X144653000Y-106280085D01*
X144430961Y-106158096D01*
X144348182Y-106175633D01*
X144088354Y-106286285D01*
X143855105Y-106445500D01*
X143657399Y-106647161D01*
X143507265Y-106876741D01*
X143438932Y-106748899D01*
X143259607Y-106530392D01*
X143041100Y-106351068D01*
X142993942Y-106325862D01*
X142989003Y-106275714D01*
X142945546Y-106132453D01*
X142874974Y-106000424D01*
X142780001Y-105884699D01*
X142751003Y-105860901D01*
X128188767Y-91298665D01*
X138265000Y-91298665D01*
X138265000Y-91581335D01*
X138320147Y-91858574D01*
X138428320Y-92119727D01*
X138585363Y-92354759D01*
X138785241Y-92554637D01*
X139020273Y-92711680D01*
X139281426Y-92819853D01*
X139558665Y-92875000D01*
X139841335Y-92875000D01*
X140118574Y-92819853D01*
X140379727Y-92711680D01*
X140614759Y-92554637D01*
X140814637Y-92354759D01*
X140971680Y-92119727D01*
X141079853Y-91858574D01*
X141135000Y-91581335D01*
X141135000Y-91298665D01*
X141079853Y-91021426D01*
X140971680Y-90760273D01*
X140814637Y-90525241D01*
X140614759Y-90325363D01*
X140379727Y-90168320D01*
X140118574Y-90060147D01*
X139841335Y-90005000D01*
X139558665Y-90005000D01*
X139281426Y-90060147D01*
X139020273Y-90168320D01*
X138785241Y-90325363D01*
X138585363Y-90525241D01*
X138428320Y-90760273D01*
X138320147Y-91021426D01*
X138265000Y-91298665D01*
X128188767Y-91298665D01*
X118170102Y-81280000D01*
X123018057Y-81280000D01*
X123045764Y-81561309D01*
X123127818Y-81831808D01*
X123261068Y-82081101D01*
X123440392Y-82299608D01*
X123658899Y-82478932D01*
X123908192Y-82612182D01*
X124178691Y-82694236D01*
X124389508Y-82715000D01*
X124530492Y-82715000D01*
X124741309Y-82694236D01*
X125011808Y-82612182D01*
X125261101Y-82478932D01*
X125479608Y-82299608D01*
X125658932Y-82081101D01*
X125792182Y-81831808D01*
X125874236Y-81561309D01*
X125901943Y-81280000D01*
X125874236Y-80998691D01*
X125792182Y-80728192D01*
X125658932Y-80478899D01*
X125479608Y-80260392D01*
X125261101Y-80081068D01*
X125011808Y-79947818D01*
X124741309Y-79865764D01*
X124530492Y-79845000D01*
X124389508Y-79845000D01*
X124178691Y-79865764D01*
X123908192Y-79947818D01*
X123658899Y-80081068D01*
X123440392Y-80260392D01*
X123261068Y-80478899D01*
X123127818Y-80728192D01*
X123045764Y-80998691D01*
X123018057Y-81280000D01*
X118170102Y-81280000D01*
X117659104Y-80769003D01*
X117635301Y-80739999D01*
X117519576Y-80645026D01*
X117387547Y-80574454D01*
X117244286Y-80530997D01*
X117132633Y-80520000D01*
X117132622Y-80520000D01*
X117095300Y-80516324D01*
X117057978Y-80520000D01*
X106052595Y-80520000D01*
X106015706Y-80450986D01*
X105830134Y-80224866D01*
X105604014Y-80039294D01*
X105346034Y-79901401D01*
X105066111Y-79816487D01*
X104847950Y-79795000D01*
X104702050Y-79795000D01*
X104483889Y-79816487D01*
X104203966Y-79901401D01*
X103945986Y-80039294D01*
X103719866Y-80224866D01*
X103695393Y-80254687D01*
X103674502Y-80185820D01*
X103615537Y-80075506D01*
X103536185Y-79978815D01*
X103439494Y-79899463D01*
X103329180Y-79840498D01*
X103209482Y-79804188D01*
X103085000Y-79791928D01*
X101385000Y-79791928D01*
X101260518Y-79804188D01*
X101140820Y-79840498D01*
X101030506Y-79899463D01*
X100933815Y-79978815D01*
X100854463Y-80075506D01*
X100795498Y-80185820D01*
X100759188Y-80305518D01*
X100746928Y-80430000D01*
X100746928Y-82130000D01*
X100759188Y-82254482D01*
X100795498Y-82374180D01*
X100854463Y-82484494D01*
X100933815Y-82581185D01*
X101030506Y-82660537D01*
X101140820Y-82719502D01*
X101209687Y-82740393D01*
X101179866Y-82764866D01*
X100994294Y-82990986D01*
X100856401Y-83248966D01*
X100771487Y-83528889D01*
X100742815Y-83820000D01*
X100771487Y-84111111D01*
X100856401Y-84391034D01*
X100994294Y-84649014D01*
X101179866Y-84875134D01*
X101405986Y-85060706D01*
X101460791Y-85090000D01*
X101405986Y-85119294D01*
X101179866Y-85304866D01*
X100994294Y-85530986D01*
X100856401Y-85788966D01*
X100771487Y-86068889D01*
X100742815Y-86360000D01*
X100771487Y-86651111D01*
X100856401Y-86931034D01*
X100994294Y-87189014D01*
X101179866Y-87415134D01*
X101405986Y-87600706D01*
X101460791Y-87630000D01*
X101405986Y-87659294D01*
X101179866Y-87844866D01*
X100994294Y-88070986D01*
X100856401Y-88328966D01*
X100771487Y-88608889D01*
X100742815Y-88900000D01*
X100771487Y-89191111D01*
X100856401Y-89471034D01*
X100994294Y-89729014D01*
X101179866Y-89955134D01*
X101405986Y-90140706D01*
X101460791Y-90170000D01*
X101405986Y-90199294D01*
X101179866Y-90384866D01*
X100994294Y-90610986D01*
X100856401Y-90868966D01*
X100771487Y-91148889D01*
X100742815Y-91440000D01*
X100771487Y-91731111D01*
X100856401Y-92011034D01*
X100994294Y-92269014D01*
X101179866Y-92495134D01*
X101405986Y-92680706D01*
X101460791Y-92710000D01*
X101405986Y-92739294D01*
X101179866Y-92924866D01*
X100994294Y-93150986D01*
X100856401Y-93408966D01*
X100771487Y-93688889D01*
X100742815Y-93980000D01*
X100771487Y-94271111D01*
X100856401Y-94551034D01*
X100994294Y-94809014D01*
X101059604Y-94888594D01*
X100060403Y-95887796D01*
X100031399Y-95911599D01*
X99976271Y-95978774D01*
X99936426Y-96027324D01*
X99918522Y-96060820D01*
X99865854Y-96159354D01*
X99822397Y-96302615D01*
X99811400Y-96414268D01*
X99811400Y-96414278D01*
X99807724Y-96451600D01*
X99811400Y-96488922D01*
X99811401Y-109181468D01*
X99807724Y-109218800D01*
X99811401Y-109256133D01*
X99822398Y-109367786D01*
X99829956Y-109392701D01*
X99865854Y-109511046D01*
X99936426Y-109643076D01*
X100003141Y-109724367D01*
X100031400Y-109758801D01*
X100060398Y-109782599D01*
X101090976Y-110813178D01*
X100994294Y-110930986D01*
X100856401Y-111188966D01*
X100771487Y-111468889D01*
X100742815Y-111760000D01*
X100771487Y-112051111D01*
X100856401Y-112331034D01*
X100994294Y-112589014D01*
X101179866Y-112815134D01*
X101405986Y-113000706D01*
X101460791Y-113030000D01*
X101405986Y-113059294D01*
X101179866Y-113244866D01*
X100994294Y-113470986D01*
X100856401Y-113728966D01*
X100771487Y-114008889D01*
X100742815Y-114300000D01*
X100771487Y-114591111D01*
X100856401Y-114871034D01*
X100994294Y-115129014D01*
X101179866Y-115355134D01*
X101405986Y-115540706D01*
X101460791Y-115570000D01*
X101405986Y-115599294D01*
X101179866Y-115784866D01*
X100994294Y-116010986D01*
X100856401Y-116268966D01*
X100771487Y-116548889D01*
X100742815Y-116840000D01*
X100771487Y-117131111D01*
X100856401Y-117411034D01*
X100994294Y-117669014D01*
X101078220Y-117771278D01*
X100542902Y-118306597D01*
X100513899Y-118330399D01*
X100489285Y-118360392D01*
X100418926Y-118446124D01*
X100371807Y-118534277D01*
X100348354Y-118578154D01*
X100304897Y-118721415D01*
X100293900Y-118833068D01*
X100293900Y-118833078D01*
X100290224Y-118870400D01*
X100293900Y-118907723D01*
X100293901Y-122389868D01*
X100290224Y-122427200D01*
X100293901Y-122464533D01*
X100304012Y-122567185D01*
X100304898Y-122576185D01*
X100348354Y-122719446D01*
X100418926Y-122851476D01*
X100482548Y-122928999D01*
X100513900Y-122967201D01*
X100542898Y-122990999D01*
X101079302Y-123527404D01*
X100994294Y-123630986D01*
X100856401Y-123888966D01*
X100771487Y-124168889D01*
X100742815Y-124460000D01*
X100771487Y-124751111D01*
X100856401Y-125031034D01*
X100994294Y-125289014D01*
X101179866Y-125515134D01*
X101405986Y-125700706D01*
X101460791Y-125730000D01*
X101405986Y-125759294D01*
X101179866Y-125944866D01*
X100994294Y-126170986D01*
X100856401Y-126428966D01*
X100771487Y-126708889D01*
X100742815Y-127000000D01*
X100771487Y-127291111D01*
X100856401Y-127571034D01*
X100994294Y-127829014D01*
X101179866Y-128055134D01*
X101405986Y-128240706D01*
X101460791Y-128270000D01*
X101405986Y-128299294D01*
X101179866Y-128484866D01*
X100994294Y-128710986D01*
X100856401Y-128968966D01*
X100771487Y-129248889D01*
X100742815Y-129540000D01*
X100771487Y-129831111D01*
X100856401Y-130111034D01*
X100994294Y-130369014D01*
X101179866Y-130595134D01*
X101405986Y-130780706D01*
X101663966Y-130918599D01*
X101943889Y-131003513D01*
X102162050Y-131025000D01*
X102307950Y-131025000D01*
X102526111Y-131003513D01*
X102806034Y-130918599D01*
X103064014Y-130780706D01*
X103290134Y-130595134D01*
X103475706Y-130369014D01*
X103505000Y-130314209D01*
X103534294Y-130369014D01*
X103719866Y-130595134D01*
X103945986Y-130780706D01*
X104203966Y-130918599D01*
X104483889Y-131003513D01*
X104702050Y-131025000D01*
X104847950Y-131025000D01*
X105066111Y-131003513D01*
X105346034Y-130918599D01*
X105604014Y-130780706D01*
X105830134Y-130595134D01*
X106015706Y-130369014D01*
X106153599Y-130111034D01*
X106238513Y-129831111D01*
X106267185Y-129540000D01*
X106238513Y-129248889D01*
X106153599Y-128968966D01*
X106015706Y-128710986D01*
X105830134Y-128484866D01*
X105604014Y-128299294D01*
X105549209Y-128270000D01*
X105604014Y-128240706D01*
X105830134Y-128055134D01*
X106015706Y-127829014D01*
X106153599Y-127571034D01*
X106238513Y-127291111D01*
X106267185Y-127000000D01*
X106238513Y-126708889D01*
X106153599Y-126428966D01*
X106015706Y-126170986D01*
X105830134Y-125944866D01*
X105604014Y-125759294D01*
X105549209Y-125730000D01*
X105604014Y-125700706D01*
X105830134Y-125515134D01*
X106015706Y-125289014D01*
X106153599Y-125031034D01*
X106238513Y-124751111D01*
X106267185Y-124460000D01*
X106238513Y-124168889D01*
X106172114Y-123950000D01*
X107111599Y-123950000D01*
X115017805Y-131856208D01*
X115041599Y-131885201D01*
X115070592Y-131908995D01*
X115070596Y-131908999D01*
X115141285Y-131967011D01*
X115157324Y-131980174D01*
X115289353Y-132050746D01*
X115303377Y-132055000D01*
X98450000Y-132055000D01*
X98450000Y-78462702D01*
X116701903Y-78462702D01*
X116773486Y-78706671D01*
X117028996Y-78827571D01*
X117303184Y-78896300D01*
X117585512Y-78910217D01*
X117865130Y-78868787D01*
X118131292Y-78773603D01*
X118256514Y-78706671D01*
X118328097Y-78462702D01*
X117515000Y-77649605D01*
X116701903Y-78462702D01*
X98450000Y-78462702D01*
X98450000Y-76556890D01*
X100793524Y-76556890D01*
X100838175Y-76704099D01*
X100963359Y-76966920D01*
X101137412Y-77200269D01*
X101353645Y-77395178D01*
X101603748Y-77544157D01*
X101878109Y-77641481D01*
X102108000Y-77520814D01*
X102108000Y-76327000D01*
X102362000Y-76327000D01*
X102362000Y-77520814D01*
X102591891Y-77641481D01*
X102866252Y-77544157D01*
X103116355Y-77395178D01*
X103332588Y-77200269D01*
X103505000Y-76969120D01*
X103677412Y-77200269D01*
X103893645Y-77395178D01*
X104143748Y-77544157D01*
X104418109Y-77641481D01*
X104648000Y-77520814D01*
X104648000Y-76327000D01*
X104902000Y-76327000D01*
X104902000Y-77520814D01*
X105131891Y-77641481D01*
X105406252Y-77544157D01*
X105412371Y-77540512D01*
X116074783Y-77540512D01*
X116116213Y-77820130D01*
X116211397Y-78086292D01*
X116278329Y-78211514D01*
X116522298Y-78283097D01*
X117335395Y-77470000D01*
X117694605Y-77470000D01*
X118507702Y-78283097D01*
X118751671Y-78211514D01*
X118765324Y-78182659D01*
X118900363Y-78384759D01*
X119100241Y-78584637D01*
X119335273Y-78741680D01*
X119596426Y-78849853D01*
X119873665Y-78905000D01*
X120156335Y-78905000D01*
X120433574Y-78849853D01*
X120694727Y-78741680D01*
X120929759Y-78584637D01*
X121129637Y-78384759D01*
X121286680Y-78149727D01*
X121394853Y-77888574D01*
X121450000Y-77611335D01*
X121450000Y-77328665D01*
X121394853Y-77051426D01*
X121286680Y-76790273D01*
X121129637Y-76555241D01*
X120929759Y-76355363D01*
X120694727Y-76198320D01*
X120433574Y-76090147D01*
X120156335Y-76035000D01*
X119873665Y-76035000D01*
X119596426Y-76090147D01*
X119335273Y-76198320D01*
X119100241Y-76355363D01*
X118900363Y-76555241D01*
X118766308Y-76755869D01*
X118751671Y-76728486D01*
X118507702Y-76656903D01*
X117694605Y-77470000D01*
X117335395Y-77470000D01*
X116522298Y-76656903D01*
X116278329Y-76728486D01*
X116157429Y-76983996D01*
X116088700Y-77258184D01*
X116074783Y-77540512D01*
X105412371Y-77540512D01*
X105656355Y-77395178D01*
X105872588Y-77200269D01*
X106046641Y-76966920D01*
X106171825Y-76704099D01*
X106216476Y-76556890D01*
X106174473Y-76477298D01*
X116701903Y-76477298D01*
X117515000Y-77290395D01*
X118328097Y-76477298D01*
X118256514Y-76233329D01*
X118001004Y-76112429D01*
X117726816Y-76043700D01*
X117444488Y-76029783D01*
X117164870Y-76071213D01*
X116898708Y-76166397D01*
X116773486Y-76233329D01*
X116701903Y-76477298D01*
X106174473Y-76477298D01*
X106095155Y-76327000D01*
X104902000Y-76327000D01*
X104648000Y-76327000D01*
X102362000Y-76327000D01*
X102108000Y-76327000D01*
X100914845Y-76327000D01*
X100793524Y-76556890D01*
X98450000Y-76556890D01*
X98450000Y-68580000D01*
X100742815Y-68580000D01*
X100771487Y-68871111D01*
X100856401Y-69151034D01*
X100994294Y-69409014D01*
X101179866Y-69635134D01*
X101405986Y-69820706D01*
X101460791Y-69850000D01*
X101405986Y-69879294D01*
X101179866Y-70064866D01*
X100994294Y-70290986D01*
X100856401Y-70548966D01*
X100771487Y-70828889D01*
X100742815Y-71120000D01*
X100771487Y-71411111D01*
X100856401Y-71691034D01*
X100994294Y-71949014D01*
X101179866Y-72175134D01*
X101405986Y-72360706D01*
X101460791Y-72390000D01*
X101405986Y-72419294D01*
X101179866Y-72604866D01*
X100994294Y-72830986D01*
X100856401Y-73088966D01*
X100771487Y-73368889D01*
X100742815Y-73660000D01*
X100771487Y-73951111D01*
X100856401Y-74231034D01*
X100994294Y-74489014D01*
X101179866Y-74715134D01*
X101405986Y-74900706D01*
X101470523Y-74935201D01*
X101353645Y-75004822D01*
X101137412Y-75199731D01*
X100963359Y-75433080D01*
X100838175Y-75695901D01*
X100793524Y-75843110D01*
X100914845Y-76073000D01*
X102108000Y-76073000D01*
X102108000Y-76053000D01*
X102362000Y-76053000D01*
X102362000Y-76073000D01*
X104648000Y-76073000D01*
X104648000Y-76053000D01*
X104902000Y-76053000D01*
X104902000Y-76073000D01*
X106095155Y-76073000D01*
X106216476Y-75843110D01*
X106171825Y-75695901D01*
X106046641Y-75433080D01*
X105872588Y-75199731D01*
X105656355Y-75004822D01*
X105539477Y-74935201D01*
X105604014Y-74900706D01*
X105830134Y-74715134D01*
X106015706Y-74489014D01*
X106153599Y-74231034D01*
X106238513Y-73951111D01*
X106267185Y-73660000D01*
X106238513Y-73368889D01*
X106153599Y-73088966D01*
X106015706Y-72830986D01*
X105830134Y-72604866D01*
X105604014Y-72419294D01*
X105549209Y-72390000D01*
X105604014Y-72360706D01*
X105830134Y-72175134D01*
X106015706Y-71949014D01*
X106153599Y-71691034D01*
X106238513Y-71411111D01*
X106267185Y-71120000D01*
X106238513Y-70828889D01*
X106153599Y-70548966D01*
X106015706Y-70290986D01*
X105830134Y-70064866D01*
X105604014Y-69879294D01*
X105549209Y-69850000D01*
X105604014Y-69820706D01*
X105830134Y-69635134D01*
X106015706Y-69409014D01*
X106153599Y-69151034D01*
X106184247Y-69050000D01*
X109686928Y-69050000D01*
X109686928Y-70650000D01*
X109699188Y-70774482D01*
X109735498Y-70894180D01*
X109794463Y-71004494D01*
X109873815Y-71101185D01*
X109970506Y-71180537D01*
X110080820Y-71239502D01*
X110200518Y-71275812D01*
X110325000Y-71288072D01*
X111925000Y-71288072D01*
X112049482Y-71275812D01*
X112169180Y-71239502D01*
X112279494Y-71180537D01*
X112376185Y-71101185D01*
X112455537Y-71004494D01*
X112514502Y-70894180D01*
X112550812Y-70774482D01*
X112563072Y-70650000D01*
X112563072Y-69572702D01*
X116701903Y-69572702D01*
X116773486Y-69816671D01*
X117028996Y-69937571D01*
X117303184Y-70006300D01*
X117585512Y-70020217D01*
X117865130Y-69978787D01*
X118131292Y-69883603D01*
X118256514Y-69816671D01*
X118328097Y-69572702D01*
X117515000Y-68759605D01*
X116701903Y-69572702D01*
X112563072Y-69572702D01*
X112563072Y-69050000D01*
X112550812Y-68925518D01*
X112514502Y-68805820D01*
X112455537Y-68695506D01*
X112418612Y-68650512D01*
X116074783Y-68650512D01*
X116116213Y-68930130D01*
X116211397Y-69196292D01*
X116278329Y-69321514D01*
X116522298Y-69393097D01*
X117335395Y-68580000D01*
X117694605Y-68580000D01*
X118507702Y-69393097D01*
X118751671Y-69321514D01*
X118765324Y-69292659D01*
X118900363Y-69494759D01*
X119100241Y-69694637D01*
X119335273Y-69851680D01*
X119596426Y-69959853D01*
X119873665Y-70015000D01*
X120156335Y-70015000D01*
X120433574Y-69959853D01*
X120694727Y-69851680D01*
X120929759Y-69694637D01*
X121129637Y-69494759D01*
X121286680Y-69259727D01*
X121394853Y-68998574D01*
X121450000Y-68721335D01*
X121450000Y-68438665D01*
X121394853Y-68161426D01*
X121286680Y-67900273D01*
X121129637Y-67665241D01*
X120929759Y-67465363D01*
X120694727Y-67308320D01*
X120433574Y-67200147D01*
X120156335Y-67145000D01*
X119873665Y-67145000D01*
X119596426Y-67200147D01*
X119335273Y-67308320D01*
X119100241Y-67465363D01*
X118900363Y-67665241D01*
X118766308Y-67865869D01*
X118751671Y-67838486D01*
X118507702Y-67766903D01*
X117694605Y-68580000D01*
X117335395Y-68580000D01*
X116522298Y-67766903D01*
X116278329Y-67838486D01*
X116157429Y-68093996D01*
X116088700Y-68368184D01*
X116074783Y-68650512D01*
X112418612Y-68650512D01*
X112376185Y-68598815D01*
X112279494Y-68519463D01*
X112169180Y-68460498D01*
X112049482Y-68424188D01*
X111925000Y-68411928D01*
X111917785Y-68411928D01*
X111938097Y-68342702D01*
X111125000Y-67529605D01*
X110311903Y-68342702D01*
X110332215Y-68411928D01*
X110325000Y-68411928D01*
X110200518Y-68424188D01*
X110080820Y-68460498D01*
X109970506Y-68519463D01*
X109873815Y-68598815D01*
X109794463Y-68695506D01*
X109735498Y-68805820D01*
X109699188Y-68925518D01*
X109686928Y-69050000D01*
X106184247Y-69050000D01*
X106238513Y-68871111D01*
X106267185Y-68580000D01*
X106238513Y-68288889D01*
X106153599Y-68008966D01*
X106015706Y-67750986D01*
X105830134Y-67524866D01*
X105702979Y-67420512D01*
X109684783Y-67420512D01*
X109726213Y-67700130D01*
X109821397Y-67966292D01*
X109888329Y-68091514D01*
X110132298Y-68163097D01*
X110945395Y-67350000D01*
X111304605Y-67350000D01*
X112117702Y-68163097D01*
X112361671Y-68091514D01*
X112482571Y-67836004D01*
X112544912Y-67587298D01*
X116701903Y-67587298D01*
X117515000Y-68400395D01*
X118328097Y-67587298D01*
X118256514Y-67343329D01*
X118001004Y-67222429D01*
X117726816Y-67153700D01*
X117444488Y-67139783D01*
X117164870Y-67181213D01*
X116898708Y-67276397D01*
X116773486Y-67343329D01*
X116701903Y-67587298D01*
X112544912Y-67587298D01*
X112551300Y-67561816D01*
X112565217Y-67279488D01*
X112523787Y-66999870D01*
X112428603Y-66733708D01*
X112361671Y-66608486D01*
X112117702Y-66536903D01*
X111304605Y-67350000D01*
X110945395Y-67350000D01*
X110132298Y-66536903D01*
X109888329Y-66608486D01*
X109767429Y-66863996D01*
X109698700Y-67138184D01*
X109684783Y-67420512D01*
X105702979Y-67420512D01*
X105604014Y-67339294D01*
X105539477Y-67304799D01*
X105656355Y-67235178D01*
X105872588Y-67040269D01*
X106046641Y-66806920D01*
X106171825Y-66544099D01*
X106216476Y-66396890D01*
X106195582Y-66357298D01*
X110311903Y-66357298D01*
X111125000Y-67170395D01*
X111938097Y-66357298D01*
X111866514Y-66113329D01*
X111611004Y-65992429D01*
X111336816Y-65923700D01*
X111054488Y-65909783D01*
X110774870Y-65951213D01*
X110508708Y-66046397D01*
X110383486Y-66113329D01*
X110311903Y-66357298D01*
X106195582Y-66357298D01*
X106095155Y-66167000D01*
X104902000Y-66167000D01*
X104902000Y-66187000D01*
X104648000Y-66187000D01*
X104648000Y-66167000D01*
X102362000Y-66167000D01*
X102362000Y-66187000D01*
X102108000Y-66187000D01*
X102108000Y-66167000D01*
X100908750Y-66167000D01*
X100750000Y-66325750D01*
X100746928Y-66890000D01*
X100759188Y-67014482D01*
X100795498Y-67134180D01*
X100854463Y-67244494D01*
X100933815Y-67341185D01*
X101030506Y-67420537D01*
X101140820Y-67479502D01*
X101209687Y-67500393D01*
X101179866Y-67524866D01*
X100994294Y-67750986D01*
X100856401Y-68008966D01*
X100771487Y-68288889D01*
X100742815Y-68580000D01*
X98450000Y-68580000D01*
X98450000Y-65190000D01*
X100746928Y-65190000D01*
X100750000Y-65754250D01*
X100908750Y-65913000D01*
X102108000Y-65913000D01*
X102108000Y-64713750D01*
X102362000Y-64713750D01*
X102362000Y-65913000D01*
X104648000Y-65913000D01*
X104648000Y-64719186D01*
X104902000Y-64719186D01*
X104902000Y-65913000D01*
X106095155Y-65913000D01*
X106216476Y-65683110D01*
X106171825Y-65535901D01*
X106046641Y-65273080D01*
X105872588Y-65039731D01*
X105656355Y-64844822D01*
X105406252Y-64695843D01*
X105131891Y-64598519D01*
X104902000Y-64719186D01*
X104648000Y-64719186D01*
X104418109Y-64598519D01*
X104143748Y-64695843D01*
X103893645Y-64844822D01*
X103697498Y-65021626D01*
X103674502Y-64945820D01*
X103615537Y-64835506D01*
X103536185Y-64738815D01*
X103439494Y-64659463D01*
X103329180Y-64600498D01*
X103209482Y-64564188D01*
X103085000Y-64551928D01*
X102520750Y-64555000D01*
X102362000Y-64713750D01*
X102108000Y-64713750D01*
X101949250Y-64555000D01*
X101385000Y-64551928D01*
X101260518Y-64564188D01*
X101140820Y-64600498D01*
X101030506Y-64659463D01*
X100933815Y-64738815D01*
X100854463Y-64835506D01*
X100795498Y-64945820D01*
X100759188Y-65065518D01*
X100746928Y-65190000D01*
X98450000Y-65190000D01*
X98450000Y-63525000D01*
X196825000Y-63525000D01*
X196825001Y-132055000D01*
G36*
X103534294Y-74489014D02*
G01*
X103719866Y-74715134D01*
X103945986Y-74900706D01*
X104010523Y-74935201D01*
X103893645Y-75004822D01*
X103677412Y-75199731D01*
X103505000Y-75430880D01*
X103332588Y-75199731D01*
X103116355Y-75004822D01*
X102999477Y-74935201D01*
X103064014Y-74900706D01*
X103290134Y-74715134D01*
X103475706Y-74489014D01*
X103505000Y-74434209D01*
X103534294Y-74489014D01*
X103534294Y-74489014D01*
G37*
X103534294Y-74489014D02*
X103719866Y-74715134D01*
X103945986Y-74900706D01*
X104010523Y-74935201D01*
X103893645Y-75004822D01*
X103677412Y-75199731D01*
X103505000Y-75430880D01*
X103332588Y-75199731D01*
X103116355Y-75004822D01*
X102999477Y-74935201D01*
X103064014Y-74900706D01*
X103290134Y-74715134D01*
X103475706Y-74489014D01*
X103505000Y-74434209D01*
X103534294Y-74489014D01*
G36*
X103893645Y-67235178D02*
G01*
X104010523Y-67304799D01*
X103945986Y-67339294D01*
X103719866Y-67524866D01*
X103534294Y-67750986D01*
X103505000Y-67805791D01*
X103475706Y-67750986D01*
X103290134Y-67524866D01*
X103260313Y-67500393D01*
X103329180Y-67479502D01*
X103439494Y-67420537D01*
X103536185Y-67341185D01*
X103615537Y-67244494D01*
X103674502Y-67134180D01*
X103697498Y-67058374D01*
X103893645Y-67235178D01*
X103893645Y-67235178D01*
G37*
X103893645Y-67235178D02*
X104010523Y-67304799D01*
X103945986Y-67339294D01*
X103719866Y-67524866D01*
X103534294Y-67750986D01*
X103505000Y-67805791D01*
X103475706Y-67750986D01*
X103290134Y-67524866D01*
X103260313Y-67500393D01*
X103329180Y-67479502D01*
X103439494Y-67420537D01*
X103536185Y-67341185D01*
X103615537Y-67244494D01*
X103674502Y-67134180D01*
X103697498Y-67058374D01*
X103893645Y-67235178D01*
G36*
X151201068Y-124391101D02*
G01*
X151380393Y-124609608D01*
X151598900Y-124788932D01*
X151677608Y-124831002D01*
X148655067Y-127853543D01*
X148583603Y-127653708D01*
X148516671Y-127528486D01*
X148272702Y-127456903D01*
X147459605Y-128270000D01*
X147473748Y-128284143D01*
X147294143Y-128463748D01*
X147280000Y-128449605D01*
X147265858Y-128463748D01*
X147086253Y-128284143D01*
X147100395Y-128270000D01*
X146287298Y-127456903D01*
X146043329Y-127528486D01*
X146029676Y-127557341D01*
X145894637Y-127355241D01*
X145816694Y-127277298D01*
X146466903Y-127277298D01*
X147280000Y-128090395D01*
X148093097Y-127277298D01*
X148021514Y-127033329D01*
X147766004Y-126912429D01*
X147491816Y-126843700D01*
X147209488Y-126829783D01*
X146929870Y-126871213D01*
X146663708Y-126966397D01*
X146538486Y-127033329D01*
X146466903Y-127277298D01*
X145816694Y-127277298D01*
X145694759Y-127155363D01*
X145459727Y-126998320D01*
X145198574Y-126890147D01*
X144921335Y-126835000D01*
X144638665Y-126835000D01*
X144529837Y-126856647D01*
X143062500Y-125389310D01*
X143062500Y-124771370D01*
X143259608Y-124609608D01*
X143438932Y-124391101D01*
X143510000Y-124258142D01*
X143581068Y-124391101D01*
X143760393Y-124609608D01*
X143978900Y-124788932D01*
X144228193Y-124922182D01*
X144498692Y-125004236D01*
X144780000Y-125031943D01*
X145061309Y-125004236D01*
X145331808Y-124922182D01*
X145581101Y-124788932D01*
X145799608Y-124609608D01*
X145978932Y-124391101D01*
X146050000Y-124258142D01*
X146121068Y-124391101D01*
X146300393Y-124609608D01*
X146518900Y-124788932D01*
X146768193Y-124922182D01*
X147038692Y-125004236D01*
X147320000Y-125031943D01*
X147601309Y-125004236D01*
X147871808Y-124922182D01*
X148121101Y-124788932D01*
X148339608Y-124609608D01*
X148518932Y-124391101D01*
X148590000Y-124258142D01*
X148661068Y-124391101D01*
X148840393Y-124609608D01*
X149058900Y-124788932D01*
X149308193Y-124922182D01*
X149578692Y-125004236D01*
X149860000Y-125031943D01*
X150141309Y-125004236D01*
X150411808Y-124922182D01*
X150661101Y-124788932D01*
X150879608Y-124609608D01*
X151058932Y-124391101D01*
X151130000Y-124258142D01*
X151201068Y-124391101D01*
X151201068Y-124391101D01*
G37*
X151201068Y-124391101D02*
X151380393Y-124609608D01*
X151598900Y-124788932D01*
X151677608Y-124831002D01*
X148655067Y-127853543D01*
X148583603Y-127653708D01*
X148516671Y-127528486D01*
X148272702Y-127456903D01*
X147459605Y-128270000D01*
X147473748Y-128284143D01*
X147294143Y-128463748D01*
X147280000Y-128449605D01*
X147265858Y-128463748D01*
X147086253Y-128284143D01*
X147100395Y-128270000D01*
X146287298Y-127456903D01*
X146043329Y-127528486D01*
X146029676Y-127557341D01*
X145894637Y-127355241D01*
X145816694Y-127277298D01*
X146466903Y-127277298D01*
X147280000Y-128090395D01*
X148093097Y-127277298D01*
X148021514Y-127033329D01*
X147766004Y-126912429D01*
X147491816Y-126843700D01*
X147209488Y-126829783D01*
X146929870Y-126871213D01*
X146663708Y-126966397D01*
X146538486Y-127033329D01*
X146466903Y-127277298D01*
X145816694Y-127277298D01*
X145694759Y-127155363D01*
X145459727Y-126998320D01*
X145198574Y-126890147D01*
X144921335Y-126835000D01*
X144638665Y-126835000D01*
X144529837Y-126856647D01*
X143062500Y-125389310D01*
X143062500Y-124771370D01*
X143259608Y-124609608D01*
X143438932Y-124391101D01*
X143510000Y-124258142D01*
X143581068Y-124391101D01*
X143760393Y-124609608D01*
X143978900Y-124788932D01*
X144228193Y-124922182D01*
X144498692Y-125004236D01*
X144780000Y-125031943D01*
X145061309Y-125004236D01*
X145331808Y-124922182D01*
X145581101Y-124788932D01*
X145799608Y-124609608D01*
X145978932Y-124391101D01*
X146050000Y-124258142D01*
X146121068Y-124391101D01*
X146300393Y-124609608D01*
X146518900Y-124788932D01*
X146768193Y-124922182D01*
X147038692Y-125004236D01*
X147320000Y-125031943D01*
X147601309Y-125004236D01*
X147871808Y-124922182D01*
X148121101Y-124788932D01*
X148339608Y-124609608D01*
X148518932Y-124391101D01*
X148590000Y-124258142D01*
X148661068Y-124391101D01*
X148840393Y-124609608D01*
X149058900Y-124788932D01*
X149308193Y-124922182D01*
X149578692Y-125004236D01*
X149860000Y-125031943D01*
X150141309Y-125004236D01*
X150411808Y-124922182D01*
X150661101Y-124788932D01*
X150879608Y-124609608D01*
X151058932Y-124391101D01*
X151130000Y-124258142D01*
X151201068Y-124391101D01*
G36*
X143926928Y-69430000D02*
G01*
X143939188Y-69554482D01*
X143975498Y-69674180D01*
X144034463Y-69784494D01*
X144113815Y-69881185D01*
X144210506Y-69960537D01*
X144320820Y-70019502D01*
X144440518Y-70055812D01*
X144565000Y-70068072D01*
X144592500Y-70068072D01*
X144592501Y-76034144D01*
X144490518Y-76044188D01*
X144370820Y-76080498D01*
X144260506Y-76139463D01*
X144163815Y-76218815D01*
X144084463Y-76315506D01*
X144025498Y-76425820D01*
X143989188Y-76545518D01*
X143976928Y-76670000D01*
X143976928Y-78270000D01*
X143989188Y-78394482D01*
X144025498Y-78514180D01*
X144084463Y-78624494D01*
X144163815Y-78721185D01*
X144260506Y-78800537D01*
X144370820Y-78859502D01*
X144490518Y-78895812D01*
X144615000Y-78908072D01*
X144631410Y-78908072D01*
X144651433Y-78974079D01*
X144651434Y-78974080D01*
X144727809Y-79116967D01*
X144830592Y-79242209D01*
X144861971Y-79267961D01*
X148304807Y-82710797D01*
X148110363Y-82905241D01*
X147953320Y-83140273D01*
X147845147Y-83401426D01*
X147790000Y-83678665D01*
X147790000Y-83961335D01*
X147845147Y-84238574D01*
X147953320Y-84499727D01*
X148110363Y-84734759D01*
X148310241Y-84934637D01*
X148510869Y-85068692D01*
X148483486Y-85083329D01*
X148411903Y-85327298D01*
X149225000Y-86140395D01*
X150038097Y-85327298D01*
X149966514Y-85083329D01*
X149937659Y-85069676D01*
X150139759Y-84934637D01*
X150339637Y-84734759D01*
X150401282Y-84642500D01*
X151894700Y-84642500D01*
X151894701Y-86953992D01*
X151890721Y-86994400D01*
X151906590Y-87155520D01*
X151880506Y-87169463D01*
X151783815Y-87248815D01*
X151704463Y-87345506D01*
X151645498Y-87455820D01*
X151609188Y-87575518D01*
X151596928Y-87700000D01*
X151596928Y-90100000D01*
X151609188Y-90224482D01*
X151645498Y-90344180D01*
X151704463Y-90454494D01*
X151783815Y-90551185D01*
X151880506Y-90630537D01*
X151990820Y-90689502D01*
X152110518Y-90725812D01*
X152235000Y-90738072D01*
X152251410Y-90738072D01*
X152271433Y-90804079D01*
X152290086Y-90838976D01*
X152347809Y-90946967D01*
X152450592Y-91072209D01*
X152481970Y-91097960D01*
X152785400Y-91401391D01*
X152785400Y-91668497D01*
X148813031Y-87696129D01*
X149013184Y-87746300D01*
X149295512Y-87760217D01*
X149575130Y-87718787D01*
X149841292Y-87623603D01*
X149966514Y-87556671D01*
X150038097Y-87312702D01*
X149225000Y-86499605D01*
X149210858Y-86513748D01*
X149031253Y-86334143D01*
X149045395Y-86320000D01*
X149404605Y-86320000D01*
X150217702Y-87133097D01*
X150461671Y-87061514D01*
X150582571Y-86806004D01*
X150651300Y-86531816D01*
X150665217Y-86249488D01*
X150623787Y-85969870D01*
X150528603Y-85703708D01*
X150461671Y-85578486D01*
X150217702Y-85506903D01*
X149404605Y-86320000D01*
X149045395Y-86320000D01*
X148232298Y-85506903D01*
X147988329Y-85578486D01*
X147867429Y-85833996D01*
X147798700Y-86108184D01*
X147784783Y-86390512D01*
X147826213Y-86670130D01*
X147848025Y-86731123D01*
X140117804Y-79000903D01*
X140094001Y-78971899D01*
X139978276Y-78876926D01*
X139846247Y-78806354D01*
X139702986Y-78762897D01*
X139591333Y-78751900D01*
X139591322Y-78751900D01*
X139554000Y-78748224D01*
X139516678Y-78751900D01*
X138756002Y-78751900D01*
X137858093Y-77853991D01*
X137961101Y-77798932D01*
X138179608Y-77619608D01*
X138358932Y-77401101D01*
X138427265Y-77273259D01*
X138577399Y-77502839D01*
X138775105Y-77704500D01*
X139008354Y-77863715D01*
X139268182Y-77974367D01*
X139350961Y-77991904D01*
X139573000Y-77869915D01*
X139573000Y-76327000D01*
X139827000Y-76327000D01*
X139827000Y-77869915D01*
X140049039Y-77991904D01*
X140131818Y-77974367D01*
X140391646Y-77863715D01*
X140624895Y-77704500D01*
X140822601Y-77502839D01*
X140977166Y-77266483D01*
X141082650Y-77004514D01*
X141135000Y-76727000D01*
X141135000Y-76327000D01*
X139827000Y-76327000D01*
X139573000Y-76327000D01*
X139553000Y-76327000D01*
X139553000Y-76073000D01*
X139573000Y-76073000D01*
X139573000Y-74530085D01*
X139827000Y-74530085D01*
X139827000Y-76073000D01*
X141135000Y-76073000D01*
X141135000Y-75673000D01*
X141082650Y-75395486D01*
X140977166Y-75133517D01*
X140822601Y-74897161D01*
X140624895Y-74695500D01*
X140391646Y-74536285D01*
X140131818Y-74425633D01*
X140049039Y-74408096D01*
X139827000Y-74530085D01*
X139573000Y-74530085D01*
X139350961Y-74408096D01*
X139268182Y-74425633D01*
X139008354Y-74536285D01*
X138775105Y-74695500D01*
X138577399Y-74897161D01*
X138427265Y-75126741D01*
X138358932Y-74998899D01*
X138179607Y-74780392D01*
X137961100Y-74601068D01*
X137920000Y-74579100D01*
X137920000Y-70200901D01*
X137961101Y-70178932D01*
X138179608Y-69999608D01*
X138358932Y-69781101D01*
X138430000Y-69648142D01*
X138501068Y-69781101D01*
X138680393Y-69999608D01*
X138898900Y-70178932D01*
X139148193Y-70312182D01*
X139418692Y-70394236D01*
X139700000Y-70421943D01*
X139981309Y-70394236D01*
X140251808Y-70312182D01*
X140501101Y-70178932D01*
X140719608Y-69999608D01*
X140898932Y-69781101D01*
X141032182Y-69531808D01*
X141114236Y-69261309D01*
X141135000Y-69050491D01*
X141135000Y-68109508D01*
X141114236Y-67898691D01*
X141088758Y-67814700D01*
X143926928Y-67814700D01*
X143926928Y-69430000D01*
X143926928Y-69430000D01*
G37*
X143926928Y-69430000D02*
X143939188Y-69554482D01*
X143975498Y-69674180D01*
X144034463Y-69784494D01*
X144113815Y-69881185D01*
X144210506Y-69960537D01*
X144320820Y-70019502D01*
X144440518Y-70055812D01*
X144565000Y-70068072D01*
X144592500Y-70068072D01*
X144592501Y-76034144D01*
X144490518Y-76044188D01*
X144370820Y-76080498D01*
X144260506Y-76139463D01*
X144163815Y-76218815D01*
X144084463Y-76315506D01*
X144025498Y-76425820D01*
X143989188Y-76545518D01*
X143976928Y-76670000D01*
X143976928Y-78270000D01*
X143989188Y-78394482D01*
X144025498Y-78514180D01*
X144084463Y-78624494D01*
X144163815Y-78721185D01*
X144260506Y-78800537D01*
X144370820Y-78859502D01*
X144490518Y-78895812D01*
X144615000Y-78908072D01*
X144631410Y-78908072D01*
X144651433Y-78974079D01*
X144651434Y-78974080D01*
X144727809Y-79116967D01*
X144830592Y-79242209D01*
X144861971Y-79267961D01*
X148304807Y-82710797D01*
X148110363Y-82905241D01*
X147953320Y-83140273D01*
X147845147Y-83401426D01*
X147790000Y-83678665D01*
X147790000Y-83961335D01*
X147845147Y-84238574D01*
X147953320Y-84499727D01*
X148110363Y-84734759D01*
X148310241Y-84934637D01*
X148510869Y-85068692D01*
X148483486Y-85083329D01*
X148411903Y-85327298D01*
X149225000Y-86140395D01*
X150038097Y-85327298D01*
X149966514Y-85083329D01*
X149937659Y-85069676D01*
X150139759Y-84934637D01*
X150339637Y-84734759D01*
X150401282Y-84642500D01*
X151894700Y-84642500D01*
X151894701Y-86953992D01*
X151890721Y-86994400D01*
X151906590Y-87155520D01*
X151880506Y-87169463D01*
X151783815Y-87248815D01*
X151704463Y-87345506D01*
X151645498Y-87455820D01*
X151609188Y-87575518D01*
X151596928Y-87700000D01*
X151596928Y-90100000D01*
X151609188Y-90224482D01*
X151645498Y-90344180D01*
X151704463Y-90454494D01*
X151783815Y-90551185D01*
X151880506Y-90630537D01*
X151990820Y-90689502D01*
X152110518Y-90725812D01*
X152235000Y-90738072D01*
X152251410Y-90738072D01*
X152271433Y-90804079D01*
X152290086Y-90838976D01*
X152347809Y-90946967D01*
X152450592Y-91072209D01*
X152481970Y-91097960D01*
X152785400Y-91401391D01*
X152785400Y-91668497D01*
X148813031Y-87696129D01*
X149013184Y-87746300D01*
X149295512Y-87760217D01*
X149575130Y-87718787D01*
X149841292Y-87623603D01*
X149966514Y-87556671D01*
X150038097Y-87312702D01*
X149225000Y-86499605D01*
X149210858Y-86513748D01*
X149031253Y-86334143D01*
X149045395Y-86320000D01*
X149404605Y-86320000D01*
X150217702Y-87133097D01*
X150461671Y-87061514D01*
X150582571Y-86806004D01*
X150651300Y-86531816D01*
X150665217Y-86249488D01*
X150623787Y-85969870D01*
X150528603Y-85703708D01*
X150461671Y-85578486D01*
X150217702Y-85506903D01*
X149404605Y-86320000D01*
X149045395Y-86320000D01*
X148232298Y-85506903D01*
X147988329Y-85578486D01*
X147867429Y-85833996D01*
X147798700Y-86108184D01*
X147784783Y-86390512D01*
X147826213Y-86670130D01*
X147848025Y-86731123D01*
X140117804Y-79000903D01*
X140094001Y-78971899D01*
X139978276Y-78876926D01*
X139846247Y-78806354D01*
X139702986Y-78762897D01*
X139591333Y-78751900D01*
X139591322Y-78751900D01*
X139554000Y-78748224D01*
X139516678Y-78751900D01*
X138756002Y-78751900D01*
X137858093Y-77853991D01*
X137961101Y-77798932D01*
X138179608Y-77619608D01*
X138358932Y-77401101D01*
X138427265Y-77273259D01*
X138577399Y-77502839D01*
X138775105Y-77704500D01*
X139008354Y-77863715D01*
X139268182Y-77974367D01*
X139350961Y-77991904D01*
X139573000Y-77869915D01*
X139573000Y-76327000D01*
X139827000Y-76327000D01*
X139827000Y-77869915D01*
X140049039Y-77991904D01*
X140131818Y-77974367D01*
X140391646Y-77863715D01*
X140624895Y-77704500D01*
X140822601Y-77502839D01*
X140977166Y-77266483D01*
X141082650Y-77004514D01*
X141135000Y-76727000D01*
X141135000Y-76327000D01*
X139827000Y-76327000D01*
X139573000Y-76327000D01*
X139553000Y-76327000D01*
X139553000Y-76073000D01*
X139573000Y-76073000D01*
X139573000Y-74530085D01*
X139827000Y-74530085D01*
X139827000Y-76073000D01*
X141135000Y-76073000D01*
X141135000Y-75673000D01*
X141082650Y-75395486D01*
X140977166Y-75133517D01*
X140822601Y-74897161D01*
X140624895Y-74695500D01*
X140391646Y-74536285D01*
X140131818Y-74425633D01*
X140049039Y-74408096D01*
X139827000Y-74530085D01*
X139573000Y-74530085D01*
X139350961Y-74408096D01*
X139268182Y-74425633D01*
X139008354Y-74536285D01*
X138775105Y-74695500D01*
X138577399Y-74897161D01*
X138427265Y-75126741D01*
X138358932Y-74998899D01*
X138179607Y-74780392D01*
X137961100Y-74601068D01*
X137920000Y-74579100D01*
X137920000Y-70200901D01*
X137961101Y-70178932D01*
X138179608Y-69999608D01*
X138358932Y-69781101D01*
X138430000Y-69648142D01*
X138501068Y-69781101D01*
X138680393Y-69999608D01*
X138898900Y-70178932D01*
X139148193Y-70312182D01*
X139418692Y-70394236D01*
X139700000Y-70421943D01*
X139981309Y-70394236D01*
X140251808Y-70312182D01*
X140501101Y-70178932D01*
X140719608Y-69999608D01*
X140898932Y-69781101D01*
X141032182Y-69531808D01*
X141114236Y-69261309D01*
X141135000Y-69050491D01*
X141135000Y-68109508D01*
X141114236Y-67898691D01*
X141088758Y-67814700D01*
X143926928Y-67814700D01*
X143926928Y-69430000D01*
M02*
