M48
; DRILL file {KiCad (5.1.4)-1} date 28/06/2021 11:39:16
; FORMAT={-:-/ absolute / metric / decimal}
; #@! TF.CreationDate,2021-06-28T11:39:16+03:00
; #@! TF.GenerationSoftware,Kicad,Pcbnew,(5.1.4)-1
; #@! TF.FileFunction,Plated,1,2,PTH
FMAT,2
METRIC
T1C0.400
T2C0.800
T3C1.000
T4C3.048
%
G90
G05
T1
X133.774Y-120.711
T2
X121.285Y-95.885
X121.285Y-98.385
X119.38Y-122.555
X119.38Y-125.055
X153.035Y-69.85
X163.195Y-69.85
X124.841Y-83.185
X124.841Y-90.805
X127.381Y-83.185
X127.381Y-90.805
X129.921Y-83.185
X129.921Y-90.805
X132.461Y-83.185
X132.461Y-90.805
X135.001Y-83.185
X135.001Y-90.805
X137.541Y-83.185
X137.541Y-90.805
X140.081Y-83.185
X140.081Y-90.805
X142.621Y-83.185
X142.621Y-90.805
X145.161Y-83.185
X145.161Y-90.805
X147.701Y-83.185
X147.701Y-90.805
X120.65Y-69.215
X120.65Y-71.715
X156.845Y-130.81
X159.345Y-130.81
X156.845Y-79.375
X156.845Y-81.375
X156.845Y-83.375
X156.845Y-85.375
X156.845Y-87.375
X156.845Y-89.375
X156.845Y-91.375
X156.845Y-93.375
X156.845Y-95.375
X156.845Y-97.375
X156.845Y-99.375
X156.845Y-101.375
X156.845Y-103.375
X156.845Y-105.375
X156.845Y-107.375
X156.845Y-109.375
X156.845Y-111.375
X156.845Y-113.375
X156.845Y-115.375
X156.845Y-117.375
X156.845Y-119.375
X156.845Y-121.375
X158.845Y-79.375
X158.845Y-81.375
X158.845Y-83.375
X158.845Y-85.375
X158.845Y-87.375
X158.845Y-89.375
X158.845Y-91.375
X158.845Y-93.375
X158.845Y-95.375
X158.845Y-97.375
X158.845Y-99.375
X158.845Y-101.375
X158.845Y-103.375
X158.845Y-105.375
X158.845Y-107.375
X158.845Y-109.375
X158.845Y-111.375
X158.845Y-113.375
X158.845Y-115.375
X158.845Y-117.375
X158.845Y-119.375
X158.845Y-121.375
X124.815Y-69.63
X124.815Y-77.25
X127.355Y-69.63
X127.355Y-77.25
X129.895Y-69.63
X129.895Y-77.25
X132.435Y-69.63
X132.435Y-77.25
X134.975Y-69.63
X134.975Y-77.25
X137.515Y-69.63
X137.515Y-77.25
X140.055Y-69.63
X140.055Y-77.25
X142.595Y-69.63
X142.595Y-77.25
X145.135Y-69.63
X145.135Y-77.25
X147.675Y-69.63
X147.675Y-77.25
X125.095Y-96.52
X125.095Y-104.14
X127.635Y-96.52
X127.635Y-104.14
X130.175Y-96.52
X130.175Y-104.14
X132.715Y-96.52
X132.715Y-104.14
X135.255Y-96.52
X135.255Y-104.14
X137.795Y-96.52
X137.795Y-104.14
X140.335Y-96.52
X140.335Y-104.14
X120.65Y-82.55
X120.65Y-85.05
X123.19Y-123.19
X123.19Y-130.81
X125.73Y-123.19
X125.73Y-130.81
X128.27Y-123.19
X128.27Y-130.81
X130.81Y-123.19
X130.81Y-130.81
X133.35Y-123.19
X133.35Y-130.81
X135.89Y-123.19
X135.89Y-130.81
X138.43Y-123.19
X138.43Y-130.81
X140.97Y-123.19
X140.97Y-130.81
X130.175Y-109.855
X132.715Y-109.855
X135.255Y-109.855
X137.795Y-109.855
X140.335Y-109.855
X114.935Y-74.97
X114.935Y-77.47
T3
X106.045Y-68.58
X106.045Y-71.12
X106.045Y-73.66
X106.045Y-76.2
X106.045Y-78.74
X108.585Y-68.58
X108.585Y-71.12
X108.585Y-73.66
X108.585Y-76.2
X108.585Y-78.74
X106.045Y-83.82
X106.045Y-86.36
X106.045Y-88.9
X106.045Y-91.44
X106.045Y-93.98
X106.045Y-96.52
X106.045Y-99.06
X106.045Y-101.6
X106.045Y-104.14
X106.045Y-106.68
X106.045Y-109.22
X106.045Y-111.76
X106.045Y-114.3
X106.045Y-116.84
X106.045Y-119.38
X106.045Y-121.92
X106.045Y-124.46
X106.045Y-127.0
X106.045Y-129.54
X106.045Y-132.08
X108.585Y-83.82
X108.585Y-86.36
X108.585Y-88.9
X108.585Y-91.44
X108.585Y-93.98
X108.585Y-96.52
X108.585Y-99.06
X108.585Y-101.6
X108.585Y-104.14
X108.585Y-106.68
X108.585Y-109.22
X108.585Y-111.76
X108.585Y-114.3
X108.585Y-116.84
X108.585Y-119.38
X108.585Y-121.92
X108.585Y-124.46
X108.585Y-127.0
X108.585Y-129.54
X108.585Y-132.08
X132.715Y-114.935
X132.715Y-117.475
X135.255Y-114.935
X135.255Y-117.475
X137.795Y-114.935
X137.795Y-117.475
X140.335Y-114.935
X140.335Y-117.475
T4
X196.215Y-70.485
X196.215Y-130.175
T0
M30
