M48
; DRILL file {KiCad (5.1.4)-1} date 17/09/2021 15:24:16
; FORMAT={-:-/ absolute / metric / decimal}
; #@! TF.CreationDate,2021-09-17T15:24:16+03:00
; #@! TF.GenerationSoftware,Kicad,Pcbnew,(5.1.4)-1
; #@! TF.FileFunction,Plated,1,2,PTH
FMAT,2
METRIC
T1C0.400
T2C0.800
T3C0.900
T4C1.000
T5C3.048
T6C3.200
%
G90
G05
T1
X125.461Y-103.291
X129.04Y-125.095
T2
X150.495Y-128.905
X150.495Y-131.445
X150.495Y-133.985
X150.495Y-136.525
X150.495Y-139.065
X150.495Y-141.605
X150.495Y-144.145
X158.115Y-128.905
X158.115Y-131.445
X158.115Y-133.985
X158.115Y-136.525
X158.115Y-139.065
X158.115Y-141.605
X158.115Y-144.145
X133.35Y-107.95
X135.85Y-107.95
X114.3Y-85.725
X114.3Y-88.265
X114.3Y-90.805
X114.3Y-93.345
X114.3Y-95.885
X114.3Y-98.425
X114.3Y-100.965
X114.3Y-103.505
X121.92Y-85.725
X121.92Y-88.265
X121.92Y-90.805
X121.92Y-93.345
X121.92Y-95.885
X121.92Y-98.425
X121.92Y-100.965
X121.92Y-103.505
X151.13Y-106.68
X151.13Y-114.3
X153.67Y-106.68
X153.67Y-114.3
X156.21Y-106.68
X156.21Y-114.3
X158.75Y-106.68
X158.75Y-114.3
X161.29Y-106.68
X161.29Y-114.3
X163.83Y-106.68
X163.83Y-114.3
X166.37Y-106.68
X166.37Y-114.3
X168.91Y-106.68
X168.91Y-114.3
X123.825Y-128.905
X126.325Y-128.905
X152.4Y-119.38
X154.9Y-119.38
X163.83Y-82.55
X166.33Y-82.55
X145.415Y-113.03
X145.415Y-115.53
X123.825Y-111.125
X126.325Y-111.125
X168.91Y-130.81
X168.91Y-133.35
X168.91Y-135.89
X168.91Y-138.43
X168.91Y-140.97
X131.445Y-82.55
X133.945Y-82.55
X148.59Y-85.725
X148.59Y-88.265
X148.59Y-90.805
X148.59Y-93.345
X148.59Y-95.885
X148.59Y-98.425
X148.59Y-100.965
X156.21Y-85.725
X156.21Y-88.265
X156.21Y-90.805
X156.21Y-93.345
X156.21Y-95.885
X156.21Y-98.425
X156.21Y-100.965
X111.125Y-111.125
X111.125Y-113.665
X111.125Y-116.205
X111.125Y-118.745
X111.125Y-121.285
X111.125Y-123.825
X111.125Y-126.365
X111.125Y-128.905
X111.125Y-131.445
X111.125Y-133.985
X111.125Y-136.525
X111.125Y-139.065
X111.125Y-141.605
X111.125Y-144.145
X118.745Y-111.125
X118.745Y-113.665
X118.745Y-116.205
X118.745Y-118.745
X118.745Y-121.285
X118.745Y-123.825
X118.745Y-126.365
X118.745Y-128.905
X118.745Y-131.445
X118.745Y-133.985
X118.745Y-136.525
X118.745Y-139.065
X118.745Y-141.605
X118.745Y-144.145
X98.425Y-121.285
X98.425Y-123.825
X98.425Y-126.365
X98.425Y-128.905
X98.425Y-131.445
X98.425Y-133.985
X98.425Y-136.525
X98.425Y-139.065
X98.425Y-141.605
X98.425Y-144.145
X106.045Y-121.285
X106.045Y-123.825
X106.045Y-126.365
X106.045Y-128.905
X106.045Y-131.445
X106.045Y-133.985
X106.045Y-136.525
X106.045Y-139.065
X106.045Y-141.605
X106.045Y-144.145
X113.665Y-107.95
X116.165Y-107.95
X125.095Y-116.205
X125.095Y-121.085
X96.52Y-101.6
X99.02Y-101.6
X158.75Y-119.38
X161.25Y-119.38
X153.035Y-125.73
X155.535Y-125.73
X142.24Y-86.995
X142.24Y-89.535
X142.24Y-92.075
X142.24Y-94.615
X142.24Y-97.155
X151.13Y-82.55
X153.63Y-82.55
X130.81Y-111.125
X130.81Y-113.665
X130.81Y-116.205
X130.81Y-118.745
X130.81Y-121.285
X130.81Y-123.825
X130.81Y-126.365
X130.81Y-128.905
X130.81Y-131.445
X130.81Y-133.985
X130.81Y-136.525
X130.81Y-139.065
X130.81Y-141.605
X130.81Y-144.145
X138.43Y-111.125
X138.43Y-113.665
X138.43Y-116.205
X138.43Y-118.745
X138.43Y-121.285
X138.43Y-123.825
X138.43Y-126.365
X138.43Y-128.905
X138.43Y-131.445
X138.43Y-133.985
X138.43Y-136.525
X138.43Y-139.065
X138.43Y-141.605
X138.43Y-144.145
X161.29Y-85.725
X161.29Y-88.265
X161.29Y-90.805
X161.29Y-93.345
X161.29Y-95.885
X161.29Y-98.425
X161.29Y-100.965
X168.91Y-85.725
X168.91Y-88.265
X168.91Y-90.805
X168.91Y-93.345
X168.91Y-95.885
X168.91Y-98.425
X168.91Y-100.965
X116.84Y-82.55
X119.34Y-82.55
X128.905Y-85.725
X128.905Y-88.265
X128.905Y-90.805
X128.905Y-93.345
X128.905Y-95.885
X128.905Y-98.425
X128.905Y-100.965
X136.525Y-85.725
X136.525Y-88.265
X136.525Y-90.805
X136.525Y-93.345
X136.525Y-95.885
X136.525Y-98.425
X136.525Y-100.965
X125.095Y-133.985
X125.095Y-138.865
X123.825Y-144.145
X126.325Y-144.145
X145.415Y-106.085
X145.415Y-108.585
X97.79Y-118.11
X100.29Y-118.11
X165.1Y-119.38
X167.6Y-119.38
X97.79Y-82.55
X100.33Y-82.55
X102.87Y-82.55
X105.41Y-82.55
X107.95Y-82.55
X123.825Y-125.095
X126.325Y-125.095
T3
X161.925Y-143.51
X164.465Y-143.51
X161.925Y-134.62
X164.465Y-134.62
X161.925Y-139.065
X164.465Y-139.065
X161.925Y-130.175
X164.465Y-130.175
T4
X88.9Y-97.155
X88.9Y-99.695
X88.9Y-102.235
X88.9Y-104.775
X88.9Y-107.315
X88.9Y-109.855
X88.9Y-112.395
X88.9Y-114.935
X88.9Y-117.475
X88.9Y-120.015
X88.9Y-122.555
X88.9Y-125.095
X88.9Y-127.635
X88.9Y-130.175
X88.9Y-132.715
X88.9Y-135.255
X88.9Y-137.795
X88.9Y-140.335
X88.9Y-142.875
X88.9Y-145.415
X91.44Y-97.155
X91.44Y-99.695
X91.44Y-102.235
X91.44Y-104.775
X91.44Y-107.315
X91.44Y-109.855
X91.44Y-112.395
X91.44Y-114.935
X91.44Y-117.475
X91.44Y-120.015
X91.44Y-122.555
X91.44Y-125.095
X91.44Y-127.635
X91.44Y-130.175
X91.44Y-132.715
X91.44Y-135.255
X91.44Y-137.795
X91.44Y-140.335
X91.44Y-142.875
X91.44Y-145.415
X174.625Y-123.825
X174.625Y-126.365
X177.165Y-123.825
X177.165Y-126.365
X144.145Y-137.795
X144.145Y-140.335
X144.145Y-142.875
X88.9Y-81.915
X88.9Y-84.455
X88.9Y-86.995
X88.9Y-89.535
X88.9Y-92.075
X91.44Y-81.915
X91.44Y-84.455
X91.44Y-86.995
X91.44Y-89.535
X91.44Y-92.075
X97.79Y-87.63
X97.79Y-90.17
X100.33Y-87.63
X100.33Y-90.17
X102.87Y-87.63
X102.87Y-90.17
X105.41Y-87.63
X105.41Y-90.17
X144.145Y-126.365
X144.145Y-128.905
X144.145Y-131.445
X176.53Y-98.14
X176.53Y-100.91
X176.53Y-103.68
X176.53Y-106.45
X176.53Y-109.22
X179.37Y-99.525
X179.37Y-102.295
X179.37Y-105.065
X179.37Y-107.835
X174.625Y-132.08
X174.625Y-134.62
X174.625Y-137.16
X177.165Y-132.08
X177.165Y-134.62
X177.165Y-137.16
T5
X179.07Y-83.82
X179.07Y-143.51
T6
X176.83Y-91.18
X176.83Y-116.18
T0
M30
