%TF.GenerationSoftware,KiCad,Pcbnew,(6.0.4)*%
%TF.CreationDate,2022-06-06T18:32:31+03:00*%
%TF.ProjectId,I2C_frontal,4932435f-6672-46f6-9e74-616c2e6b6963,rev?*%
%TF.SameCoordinates,Original*%
%TF.FileFunction,Legend,Top*%
%TF.FilePolarity,Positive*%
%FSLAX46Y46*%
G04 Gerber Fmt 4.6, Leading zero omitted, Abs format (unit mm)*
G04 Created by KiCad (PCBNEW (6.0.4)) date 2022-06-06 18:32:31*
%MOMM*%
%LPD*%
G01*
G04 APERTURE LIST*
%ADD10C,0.100000*%
%ADD11C,0.330200*%
%ADD12C,0.787400*%
%ADD13C,0.150000*%
%ADD14C,0.120000*%
G04 APERTURE END LIST*
D10*
G36*
X192786000Y-127381000D02*
G01*
X184531000Y-127381000D01*
X184531000Y-122936000D01*
X192786000Y-122936000D01*
X192786000Y-127381000D01*
G37*
X192786000Y-127381000D02*
X184531000Y-127381000D01*
X184531000Y-122936000D01*
X192786000Y-122936000D01*
X192786000Y-127381000D01*
D11*
X176097534Y-93118565D02*
X176097534Y-91035765D01*
X176990163Y-91234126D02*
X177089344Y-91134946D01*
X177287706Y-91035765D01*
X177783610Y-91035765D01*
X177981972Y-91134946D01*
X178081153Y-91234126D01*
X178180334Y-91432488D01*
X178180334Y-91630850D01*
X178081153Y-91928393D01*
X176890982Y-93118565D01*
X178180334Y-93118565D01*
X180263134Y-92920203D02*
X180163953Y-93019384D01*
X179866410Y-93118565D01*
X179668049Y-93118565D01*
X179370506Y-93019384D01*
X179172144Y-92821022D01*
X179072963Y-92622660D01*
X178973782Y-92225936D01*
X178973782Y-91928393D01*
X179072963Y-91531669D01*
X179172144Y-91333307D01*
X179370506Y-91134946D01*
X179668049Y-91035765D01*
X179866410Y-91035765D01*
X180163953Y-91134946D01*
X180263134Y-91234126D01*
X176791801Y-95380882D02*
X177089344Y-95480063D01*
X177188525Y-95579244D01*
X177287706Y-95777606D01*
X177287706Y-96075149D01*
X177188525Y-96273511D01*
X177089344Y-96372692D01*
X176890982Y-96471873D01*
X176097534Y-96471873D01*
X176097534Y-94389073D01*
X176791801Y-94389073D01*
X176990163Y-94488254D01*
X177089344Y-94587434D01*
X177188525Y-94785796D01*
X177188525Y-94984158D01*
X177089344Y-95182520D01*
X176990163Y-95281701D01*
X176791801Y-95380882D01*
X176097534Y-95380882D01*
X179072963Y-95083339D02*
X179072963Y-96471873D01*
X178180334Y-95083339D02*
X178180334Y-96174330D01*
X178279515Y-96372692D01*
X178477877Y-96471873D01*
X178775420Y-96471873D01*
X178973782Y-96372692D01*
X179072963Y-96273511D01*
X179965591Y-96372692D02*
X180163953Y-96471873D01*
X180560677Y-96471873D01*
X180759039Y-96372692D01*
X180858220Y-96174330D01*
X180858220Y-96075149D01*
X180759039Y-95876787D01*
X180560677Y-95777606D01*
X180263134Y-95777606D01*
X180064772Y-95678425D01*
X179965591Y-95480063D01*
X179965591Y-95380882D01*
X180064772Y-95182520D01*
X180263134Y-95083339D01*
X180560677Y-95083339D01*
X180759039Y-95182520D01*
X173925895Y-125823133D02*
X174917704Y-125823133D01*
X173727533Y-126418219D02*
X174421800Y-124335419D01*
X175116066Y-126418219D01*
X175810333Y-126418219D02*
X175810333Y-124335419D01*
X176306238Y-124335419D01*
X176603780Y-124434600D01*
X176802142Y-124632961D01*
X176901323Y-124831323D01*
X177000504Y-125228047D01*
X177000504Y-125525590D01*
X176901323Y-125922314D01*
X176802142Y-126120676D01*
X176603780Y-126319038D01*
X176306238Y-126418219D01*
X175810333Y-126418219D01*
X177893133Y-126418219D02*
X177893133Y-124335419D01*
X178389038Y-124335419D01*
X178686580Y-124434600D01*
X178884942Y-124632961D01*
X178984123Y-124831323D01*
X179083304Y-125228047D01*
X179083304Y-125525590D01*
X178984123Y-125922314D01*
X178884942Y-126120676D01*
X178686580Y-126319038D01*
X178389038Y-126418219D01*
X177893133Y-126418219D01*
X181166104Y-126418219D02*
X180471838Y-125426409D01*
X179975933Y-126418219D02*
X179975933Y-124335419D01*
X180769380Y-124335419D01*
X180967742Y-124434600D01*
X181066923Y-124533780D01*
X181166104Y-124732142D01*
X181166104Y-125029685D01*
X181066923Y-125228047D01*
X180967742Y-125327228D01*
X180769380Y-125426409D01*
X179975933Y-125426409D01*
D12*
X178689000Y-55499000D02*
X178689000Y-50165000D01*
X180975000Y-50673000D02*
X181229000Y-50419000D01*
X181737000Y-50165000D01*
X183007000Y-50165000D01*
X183515000Y-50419000D01*
X183769000Y-50673000D01*
X184023000Y-51181000D01*
X184023000Y-51689000D01*
X183769000Y-52451000D01*
X180721000Y-55499000D01*
X184023000Y-55499000D01*
X189357000Y-54991000D02*
X189103000Y-55245000D01*
X188341000Y-55499000D01*
X187833000Y-55499000D01*
X187071000Y-55245000D01*
X186563000Y-54737000D01*
X186309000Y-54229000D01*
X186055000Y-53213000D01*
X186055000Y-52451000D01*
X186309000Y-51435000D01*
X186563000Y-50927000D01*
X187071000Y-50419000D01*
X187833000Y-50165000D01*
X188341000Y-50165000D01*
X189103000Y-50419000D01*
X189357000Y-50673000D01*
D13*
X173458619Y-57643380D02*
X173458619Y-56643380D01*
X173696714Y-56643380D01*
X173839571Y-56691000D01*
X173934809Y-56786238D01*
X173982428Y-56881476D01*
X174030047Y-57071952D01*
X174030047Y-57214809D01*
X173982428Y-57405285D01*
X173934809Y-57500523D01*
X173839571Y-57595761D01*
X173696714Y-57643380D01*
X173458619Y-57643380D01*
X174839571Y-57595761D02*
X174744333Y-57643380D01*
X174553857Y-57643380D01*
X174458619Y-57595761D01*
X174411000Y-57500523D01*
X174411000Y-57119571D01*
X174458619Y-57024333D01*
X174553857Y-56976714D01*
X174744333Y-56976714D01*
X174839571Y-57024333D01*
X174887190Y-57119571D01*
X174887190Y-57214809D01*
X174411000Y-57310047D01*
X175268142Y-57595761D02*
X175363380Y-57643380D01*
X175553857Y-57643380D01*
X175649095Y-57595761D01*
X175696714Y-57500523D01*
X175696714Y-57452904D01*
X175649095Y-57357666D01*
X175553857Y-57310047D01*
X175411000Y-57310047D01*
X175315761Y-57262428D01*
X175268142Y-57167190D01*
X175268142Y-57119571D01*
X175315761Y-57024333D01*
X175411000Y-56976714D01*
X175553857Y-56976714D01*
X175649095Y-57024333D01*
X176125285Y-57643380D02*
X176125285Y-56976714D01*
X176125285Y-56643380D02*
X176077666Y-56691000D01*
X176125285Y-56738619D01*
X176172904Y-56691000D01*
X176125285Y-56643380D01*
X176125285Y-56738619D01*
X177030047Y-56976714D02*
X177030047Y-57786238D01*
X176982428Y-57881476D01*
X176934809Y-57929095D01*
X176839571Y-57976714D01*
X176696714Y-57976714D01*
X176601476Y-57929095D01*
X177030047Y-57595761D02*
X176934809Y-57643380D01*
X176744333Y-57643380D01*
X176649095Y-57595761D01*
X176601476Y-57548142D01*
X176553857Y-57452904D01*
X176553857Y-57167190D01*
X176601476Y-57071952D01*
X176649095Y-57024333D01*
X176744333Y-56976714D01*
X176934809Y-56976714D01*
X177030047Y-57024333D01*
X177506238Y-56976714D02*
X177506238Y-57643380D01*
X177506238Y-57071952D02*
X177553857Y-57024333D01*
X177649095Y-56976714D01*
X177791952Y-56976714D01*
X177887190Y-57024333D01*
X177934809Y-57119571D01*
X177934809Y-57643380D01*
X179172904Y-57643380D02*
X179172904Y-56643380D01*
X179172904Y-57024333D02*
X179268142Y-56976714D01*
X179458619Y-56976714D01*
X179553857Y-57024333D01*
X179601476Y-57071952D01*
X179649095Y-57167190D01*
X179649095Y-57452904D01*
X179601476Y-57548142D01*
X179553857Y-57595761D01*
X179458619Y-57643380D01*
X179268142Y-57643380D01*
X179172904Y-57595761D01*
X179982428Y-56976714D02*
X180220523Y-57643380D01*
X180458619Y-56976714D02*
X180220523Y-57643380D01*
X180125285Y-57881476D01*
X180077666Y-57929095D01*
X179982428Y-57976714D01*
X173911000Y-59253380D02*
X173911000Y-58253380D01*
X174482428Y-59253380D02*
X174053857Y-58681952D01*
X174482428Y-58253380D02*
X173911000Y-58824809D01*
X175339571Y-59253380D02*
X175339571Y-58729571D01*
X175291952Y-58634333D01*
X175196714Y-58586714D01*
X175006238Y-58586714D01*
X174911000Y-58634333D01*
X175339571Y-59205761D02*
X175244333Y-59253380D01*
X175006238Y-59253380D01*
X174911000Y-59205761D01*
X174863380Y-59110523D01*
X174863380Y-59015285D01*
X174911000Y-58920047D01*
X175006238Y-58872428D01*
X175244333Y-58872428D01*
X175339571Y-58824809D01*
X175958619Y-59253380D02*
X175863380Y-59205761D01*
X175815761Y-59110523D01*
X175815761Y-58253380D01*
X176196714Y-58586714D02*
X176577666Y-58586714D01*
X176339571Y-58253380D02*
X176339571Y-59110523D01*
X176387190Y-59205761D01*
X176482428Y-59253380D01*
X176577666Y-59253380D01*
X177339571Y-59205761D02*
X177244333Y-59253380D01*
X177053857Y-59253380D01*
X176958619Y-59205761D01*
X176911000Y-59158142D01*
X176863380Y-59062904D01*
X176863380Y-58777190D01*
X176911000Y-58681952D01*
X176958619Y-58634333D01*
X177053857Y-58586714D01*
X177244333Y-58586714D01*
X177339571Y-58634333D01*
X177768142Y-59253380D02*
X177768142Y-58253380D01*
X178196714Y-59253380D02*
X178196714Y-58729571D01*
X178149095Y-58634333D01*
X178053857Y-58586714D01*
X177911000Y-58586714D01*
X177815761Y-58634333D01*
X177768142Y-58681952D01*
X179101476Y-58586714D02*
X179101476Y-59253380D01*
X178672904Y-58586714D02*
X178672904Y-59110523D01*
X178720523Y-59205761D01*
X178815761Y-59253380D01*
X178958619Y-59253380D01*
X179053857Y-59205761D01*
X179101476Y-59158142D01*
X179577666Y-59253380D02*
X179577666Y-58253380D01*
X179672904Y-58872428D02*
X179958619Y-59253380D01*
X179958619Y-58586714D02*
X179577666Y-58967666D01*
X175196714Y-59958619D02*
X175244333Y-59911000D01*
X175339571Y-59863380D01*
X175577666Y-59863380D01*
X175672904Y-59911000D01*
X175720523Y-59958619D01*
X175768142Y-60053857D01*
X175768142Y-60149095D01*
X175720523Y-60291952D01*
X175149095Y-60863380D01*
X175768142Y-60863380D01*
X176387190Y-59863380D02*
X176482428Y-59863380D01*
X176577666Y-59911000D01*
X176625285Y-59958619D01*
X176672904Y-60053857D01*
X176720523Y-60244333D01*
X176720523Y-60482428D01*
X176672904Y-60672904D01*
X176625285Y-60768142D01*
X176577666Y-60815761D01*
X176482428Y-60863380D01*
X176387190Y-60863380D01*
X176291952Y-60815761D01*
X176244333Y-60768142D01*
X176196714Y-60672904D01*
X176149095Y-60482428D01*
X176149095Y-60244333D01*
X176196714Y-60053857D01*
X176244333Y-59958619D01*
X176291952Y-59911000D01*
X176387190Y-59863380D01*
X177101476Y-59958619D02*
X177149095Y-59911000D01*
X177244333Y-59863380D01*
X177482428Y-59863380D01*
X177577666Y-59911000D01*
X177625285Y-59958619D01*
X177672904Y-60053857D01*
X177672904Y-60149095D01*
X177625285Y-60291952D01*
X177053857Y-60863380D01*
X177672904Y-60863380D01*
X178053857Y-59958619D02*
X178101476Y-59911000D01*
X178196714Y-59863380D01*
X178434809Y-59863380D01*
X178530047Y-59911000D01*
X178577666Y-59958619D01*
X178625285Y-60053857D01*
X178625285Y-60149095D01*
X178577666Y-60291952D01*
X178006238Y-60863380D01*
X178625285Y-60863380D01*
D14*
%TO.C,J8*%
X184471000Y-117161000D02*
X185801000Y-117161000D01*
X184471000Y-119821000D02*
X187131000Y-119821000D01*
X184471000Y-118491000D02*
X184471000Y-117161000D01*
X184471000Y-119761000D02*
X187131000Y-119761000D01*
X187131000Y-119761000D02*
X187131000Y-119821000D01*
X184471000Y-119761000D02*
X184471000Y-119821000D01*
%TO.C,J7*%
X184471000Y-60131000D02*
X187131000Y-60131000D01*
X184471000Y-57471000D02*
X185801000Y-57471000D01*
X187131000Y-60071000D02*
X187131000Y-60131000D01*
X184471000Y-58801000D02*
X184471000Y-57471000D01*
X184471000Y-60071000D02*
X187131000Y-60071000D01*
X184471000Y-60071000D02*
X184471000Y-60131000D01*
%TD*%
M02*
