%TF.GenerationSoftware,KiCad,Pcbnew,(6.0.4)*%
%TF.CreationDate,2022-06-04T07:24:44+03:00*%
%TF.ProjectId,I2C_frontal,4932435f-6672-46f6-9e74-616c2e6b6963,rev?*%
%TF.SameCoordinates,Original*%
%TF.FileFunction,Copper,L2,Bot*%
%TF.FilePolarity,Positive*%
%FSLAX46Y46*%
G04 Gerber Fmt 4.6, Leading zero omitted, Abs format (unit mm)*
G04 Created by KiCad (PCBNEW (6.0.4)) date 2022-06-04 07:24:44*
%MOMM*%
%LPD*%
G01*
G04 APERTURE LIST*
%TA.AperFunction,ComponentPad*%
%ADD10C,5.080000*%
%TD*%
G04 APERTURE END LIST*
D10*
%TO.P,J8,1*%
%TO.N,N/C*%
X185801000Y-118491000D03*
%TD*%
%TO.P,J7,1*%
%TO.N,N/C*%
X185801000Y-58801000D03*
%TD*%
%TA.AperFunction,NonConductor*%
G36*
X195394621Y-49169502D02*
G01*
X195441114Y-49223158D01*
X195452500Y-49275500D01*
X195452500Y-128016500D01*
X195432498Y-128084621D01*
X195378842Y-128131114D01*
X195326500Y-128142500D01*
X171957500Y-128142500D01*
X171889379Y-128122498D01*
X171842886Y-128068842D01*
X171831500Y-128016500D01*
X171831500Y-118448369D01*
X182747995Y-118448369D01*
X182762269Y-118788950D01*
X182814419Y-119125817D01*
X182903794Y-119454772D01*
X183029280Y-119771714D01*
X183189314Y-120072693D01*
X183191299Y-120075592D01*
X183379909Y-120351051D01*
X183379914Y-120351057D01*
X183381900Y-120353958D01*
X183604638Y-120612002D01*
X183854751Y-120843610D01*
X184129124Y-121045895D01*
X184424334Y-121216335D01*
X184504185Y-121251221D01*
X184733482Y-121351399D01*
X184733492Y-121351403D01*
X184736704Y-121352806D01*
X184740061Y-121353845D01*
X184740066Y-121353847D01*
X185058979Y-121452567D01*
X185062339Y-121453607D01*
X185065795Y-121454266D01*
X185065794Y-121454266D01*
X185393730Y-121516823D01*
X185393735Y-121516824D01*
X185397181Y-121517481D01*
X185621197Y-121534718D01*
X185733559Y-121543364D01*
X185733560Y-121543364D01*
X185737056Y-121543633D01*
X185949407Y-121536218D01*
X186074214Y-121531860D01*
X186074219Y-121531860D01*
X186077729Y-121531737D01*
X186246340Y-121506839D01*
X186411473Y-121482454D01*
X186411478Y-121482453D01*
X186414952Y-121481940D01*
X186418344Y-121481044D01*
X186418348Y-121481043D01*
X186741132Y-121395760D01*
X186741133Y-121395760D01*
X186744523Y-121394864D01*
X187062333Y-121271593D01*
X187364422Y-121113665D01*
X187647024Y-120923047D01*
X187906617Y-120702116D01*
X187993738Y-120609342D01*
X188137555Y-120456193D01*
X188137559Y-120456188D01*
X188139966Y-120453625D01*
X188142071Y-120450811D01*
X188142077Y-120450804D01*
X188342052Y-120183491D01*
X188344161Y-120180672D01*
X188516658Y-119886658D01*
X188655306Y-119575249D01*
X188758378Y-119250326D01*
X188824588Y-118915938D01*
X188853113Y-118576253D01*
X188854303Y-118491000D01*
X188835275Y-118150652D01*
X188778426Y-117814545D01*
X188765560Y-117769674D01*
X188685436Y-117490250D01*
X188684467Y-117486870D01*
X188638757Y-117375969D01*
X188555906Y-117174956D01*
X188555902Y-117174948D01*
X188554568Y-117171711D01*
X188390348Y-116872996D01*
X188193854Y-116594448D01*
X187967534Y-116339538D01*
X187714211Y-116111445D01*
X187711361Y-116109404D01*
X187711354Y-116109399D01*
X187439896Y-115915054D01*
X187439893Y-115915052D01*
X187437042Y-115913011D01*
X187139480Y-115746709D01*
X186825235Y-115614613D01*
X186821872Y-115613623D01*
X186821863Y-115613620D01*
X186620552Y-115554372D01*
X186498224Y-115518369D01*
X186215043Y-115468436D01*
X186165983Y-115459785D01*
X186165981Y-115459785D01*
X186162523Y-115459175D01*
X186159014Y-115458954D01*
X186159012Y-115458954D01*
X185825834Y-115437992D01*
X185825828Y-115437992D01*
X185822316Y-115437771D01*
X185725892Y-115442487D01*
X185485350Y-115454251D01*
X185485342Y-115454252D01*
X185481843Y-115454423D01*
X185478375Y-115454985D01*
X185478372Y-115454985D01*
X185148823Y-115508361D01*
X185148820Y-115508362D01*
X185145348Y-115508924D01*
X185141965Y-115509869D01*
X185141963Y-115509869D01*
X185107970Y-115519360D01*
X184817025Y-115600593D01*
X184500967Y-115728289D01*
X184201112Y-115890420D01*
X183921199Y-116084964D01*
X183918557Y-116087277D01*
X183918553Y-116087280D01*
X183682343Y-116294067D01*
X183664716Y-116309498D01*
X183434860Y-116561223D01*
X183234495Y-116837001D01*
X183066121Y-117133394D01*
X183064734Y-117136629D01*
X183064732Y-117136634D01*
X182933219Y-117443477D01*
X182931834Y-117446709D01*
X182833309Y-117773040D01*
X182771773Y-118108320D01*
X182747995Y-118448369D01*
X171831500Y-118448369D01*
X171831500Y-96637963D01*
X184008245Y-96637963D01*
X184008935Y-96642780D01*
X184008935Y-96642784D01*
X184009086Y-96643838D01*
X184010037Y-96652711D01*
X184027126Y-96891714D01*
X184081197Y-97140299D01*
X184082773Y-97144523D01*
X184082773Y-97144525D01*
X184156239Y-97341504D01*
X184170096Y-97378659D01*
X184292011Y-97601941D01*
X184444462Y-97805600D01*
X184624345Y-97985490D01*
X184627952Y-97988190D01*
X184627954Y-97988192D01*
X184824384Y-98135245D01*
X184824389Y-98135248D01*
X184827998Y-98137950D01*
X184831955Y-98140111D01*
X184831960Y-98140114D01*
X185047322Y-98257716D01*
X185047329Y-98257719D01*
X185051275Y-98259874D01*
X185055487Y-98261445D01*
X185055489Y-98261446D01*
X185285413Y-98347209D01*
X185285417Y-98347210D01*
X185289631Y-98348782D01*
X185389321Y-98370470D01*
X185533818Y-98401907D01*
X185533823Y-98401908D01*
X185538214Y-98402863D01*
X185542699Y-98403184D01*
X185542700Y-98403184D01*
X185758619Y-98418631D01*
X185770540Y-98420057D01*
X185774615Y-98420743D01*
X185774617Y-98420743D01*
X185779411Y-98421550D01*
X185785626Y-98421626D01*
X185787098Y-98421644D01*
X185787102Y-98421644D01*
X185791963Y-98421703D01*
X185813417Y-98418631D01*
X185819598Y-98417746D01*
X185837458Y-98416474D01*
X189548720Y-98416474D01*
X189569625Y-98418221D01*
X189574613Y-98419060D01*
X189584608Y-98420742D01*
X189584610Y-98420742D01*
X189589411Y-98421550D01*
X189595687Y-98421627D01*
X189597095Y-98421644D01*
X189597099Y-98421644D01*
X189601963Y-98421703D01*
X189606839Y-98421005D01*
X189607120Y-98420965D01*
X189615983Y-98420015D01*
X189851231Y-98403194D01*
X189855720Y-98402873D01*
X189860111Y-98401918D01*
X189860117Y-98401917D01*
X190019363Y-98367277D01*
X190104312Y-98348799D01*
X190108522Y-98347229D01*
X190108528Y-98347227D01*
X190338460Y-98261469D01*
X190338462Y-98261468D01*
X190342677Y-98259896D01*
X190565963Y-98137975D01*
X190769625Y-97985517D01*
X190949517Y-97805625D01*
X191101975Y-97601963D01*
X191223896Y-97378677D01*
X191237757Y-97341513D01*
X191311227Y-97144528D01*
X191311229Y-97144522D01*
X191312799Y-97140312D01*
X191358678Y-96929396D01*
X191365917Y-96896117D01*
X191365918Y-96896111D01*
X191366873Y-96891720D01*
X191374393Y-96786545D01*
X191382634Y-96671297D01*
X191384058Y-96659387D01*
X191384742Y-96655317D01*
X191385550Y-96650515D01*
X191385703Y-96637963D01*
X191385007Y-96633098D01*
X191381747Y-96610344D01*
X191380474Y-96592479D01*
X191380474Y-91629280D01*
X191382221Y-91608372D01*
X191384742Y-91593392D01*
X191384742Y-91593390D01*
X191385550Y-91588589D01*
X191385703Y-91576037D01*
X191384965Y-91570880D01*
X191384015Y-91562017D01*
X191367194Y-91326769D01*
X191366873Y-91322280D01*
X191365885Y-91317735D01*
X191313755Y-91078084D01*
X191312799Y-91073688D01*
X191311072Y-91069056D01*
X191225469Y-90839540D01*
X191225468Y-90839538D01*
X191223896Y-90835323D01*
X191101975Y-90612037D01*
X190949517Y-90408375D01*
X190769625Y-90228483D01*
X190761835Y-90222651D01*
X190569564Y-90078721D01*
X190565963Y-90076025D01*
X190342677Y-89954104D01*
X190338460Y-89952531D01*
X190108528Y-89866773D01*
X190108522Y-89866771D01*
X190104312Y-89865201D01*
X190019363Y-89846723D01*
X189860117Y-89812083D01*
X189860111Y-89812082D01*
X189855720Y-89811127D01*
X189832491Y-89809466D01*
X189635297Y-89795366D01*
X189623387Y-89793942D01*
X189620540Y-89793463D01*
X189614515Y-89792450D01*
X189608132Y-89792372D01*
X189606822Y-89792356D01*
X189606819Y-89792356D01*
X189601963Y-89792297D01*
X189597155Y-89792986D01*
X189597150Y-89792986D01*
X189574344Y-89796253D01*
X189556479Y-89797526D01*
X185907899Y-89797526D01*
X185886994Y-89795780D01*
X185818344Y-89784230D01*
X185818341Y-89784230D01*
X185813552Y-89783424D01*
X185807555Y-89783351D01*
X185805868Y-89783330D01*
X185805864Y-89783330D01*
X185801000Y-89783271D01*
X185796006Y-89783986D01*
X185795851Y-89784008D01*
X185786984Y-89784959D01*
X185551735Y-89801785D01*
X185547247Y-89802106D01*
X185488513Y-89814883D01*
X185303056Y-89855226D01*
X185303050Y-89855228D01*
X185298659Y-89856183D01*
X185294444Y-89857755D01*
X185294441Y-89857756D01*
X185064509Y-89943516D01*
X185060297Y-89945087D01*
X184837014Y-90067009D01*
X184833411Y-90069706D01*
X184833405Y-90069710D01*
X184676862Y-90186897D01*
X184633355Y-90219466D01*
X184453466Y-90399355D01*
X184446714Y-90408375D01*
X184303710Y-90599405D01*
X184303706Y-90599411D01*
X184301009Y-90603014D01*
X184179087Y-90826297D01*
X184090183Y-91064659D01*
X184089228Y-91069050D01*
X184089226Y-91069056D01*
X184072938Y-91143933D01*
X184036106Y-91313247D01*
X184027938Y-91427455D01*
X184026186Y-91451948D01*
X184025009Y-91462331D01*
X184013474Y-91536412D01*
X184013474Y-96584720D01*
X184011727Y-96605625D01*
X184008398Y-96625411D01*
X184008245Y-96637963D01*
X171831500Y-96637963D01*
X171831500Y-58758369D01*
X182747995Y-58758369D01*
X182762269Y-59098950D01*
X182814419Y-59435817D01*
X182903794Y-59764772D01*
X183029280Y-60081714D01*
X183189314Y-60382693D01*
X183191299Y-60385592D01*
X183379909Y-60661051D01*
X183379914Y-60661057D01*
X183381900Y-60663958D01*
X183604638Y-60922002D01*
X183854751Y-61153610D01*
X184129124Y-61355895D01*
X184424334Y-61526335D01*
X184504185Y-61561221D01*
X184733482Y-61661399D01*
X184733492Y-61661403D01*
X184736704Y-61662806D01*
X184740061Y-61663845D01*
X184740066Y-61663847D01*
X185058979Y-61762567D01*
X185062339Y-61763607D01*
X185065795Y-61764266D01*
X185065794Y-61764266D01*
X185393730Y-61826823D01*
X185393735Y-61826824D01*
X185397181Y-61827481D01*
X185621197Y-61844718D01*
X185733559Y-61853364D01*
X185733560Y-61853364D01*
X185737056Y-61853633D01*
X185949407Y-61846218D01*
X186074214Y-61841860D01*
X186074219Y-61841860D01*
X186077729Y-61841737D01*
X186246340Y-61816839D01*
X186411473Y-61792454D01*
X186411478Y-61792453D01*
X186414952Y-61791940D01*
X186418344Y-61791044D01*
X186418348Y-61791043D01*
X186741132Y-61705760D01*
X186741133Y-61705760D01*
X186744523Y-61704864D01*
X187062333Y-61581593D01*
X187364422Y-61423665D01*
X187647024Y-61233047D01*
X187906617Y-61012116D01*
X187993738Y-60919342D01*
X188137555Y-60766193D01*
X188137559Y-60766188D01*
X188139966Y-60763625D01*
X188142071Y-60760811D01*
X188142077Y-60760804D01*
X188342052Y-60493491D01*
X188344161Y-60490672D01*
X188516658Y-60196658D01*
X188655306Y-59885249D01*
X188758378Y-59560326D01*
X188824588Y-59225938D01*
X188853113Y-58886253D01*
X188854303Y-58801000D01*
X188835275Y-58460652D01*
X188778426Y-58124545D01*
X188765560Y-58079674D01*
X188685436Y-57800250D01*
X188684467Y-57796870D01*
X188638757Y-57685969D01*
X188555906Y-57484956D01*
X188555902Y-57484948D01*
X188554568Y-57481711D01*
X188390348Y-57182996D01*
X188193854Y-56904448D01*
X187967534Y-56649538D01*
X187714211Y-56421445D01*
X187711361Y-56419404D01*
X187711354Y-56419399D01*
X187439896Y-56225054D01*
X187439893Y-56225052D01*
X187437042Y-56223011D01*
X187139480Y-56056709D01*
X186825235Y-55924613D01*
X186821872Y-55923623D01*
X186821863Y-55923620D01*
X186620552Y-55864372D01*
X186498224Y-55828369D01*
X186215043Y-55778436D01*
X186165983Y-55769785D01*
X186165981Y-55769785D01*
X186162523Y-55769175D01*
X186159014Y-55768954D01*
X186159012Y-55768954D01*
X185825834Y-55747992D01*
X185825828Y-55747992D01*
X185822316Y-55747771D01*
X185725891Y-55752487D01*
X185485350Y-55764251D01*
X185485342Y-55764252D01*
X185481843Y-55764423D01*
X185478375Y-55764985D01*
X185478372Y-55764985D01*
X185148823Y-55818361D01*
X185148820Y-55818362D01*
X185145348Y-55818924D01*
X185141965Y-55819869D01*
X185141963Y-55819869D01*
X185107970Y-55829360D01*
X184817025Y-55910593D01*
X184500967Y-56038289D01*
X184201112Y-56200420D01*
X183921199Y-56394964D01*
X183918557Y-56397277D01*
X183918553Y-56397280D01*
X183682343Y-56604067D01*
X183664716Y-56619498D01*
X183434860Y-56871223D01*
X183234495Y-57147001D01*
X183066121Y-57443394D01*
X183064734Y-57446629D01*
X183064732Y-57446634D01*
X182933219Y-57753477D01*
X182931834Y-57756709D01*
X182833309Y-58083040D01*
X182771773Y-58418320D01*
X182747995Y-58758369D01*
X171831500Y-58758369D01*
X171831500Y-49275500D01*
X171851502Y-49207379D01*
X171905158Y-49160886D01*
X171957500Y-49149500D01*
X195326500Y-49149500D01*
X195394621Y-49169502D01*
G37*
%TD.AperFunction*%
M02*
