M48
; DRILL file {KiCad (5.1.4)-1} date 17/09/2021 15:34:13
; FORMAT={-:-/ absolute / metric / decimal}
; #@! TF.CreationDate,2021-09-17T15:34:13+03:00
; #@! TF.GenerationSoftware,Kicad,Pcbnew,(5.1.4)-1
; #@! TF.FileFunction,Plated,1,2,PTH
FMAT,2
METRIC
T1C0.400
T2C0.800
T3C0.900
T4C1.000
T5C3.048
%
G90
G05
T1
X107.408Y-104.711
X110.107Y-76.985
X110.905Y-77.866
X111.842Y-107.044
X120.875Y-89.63
X121.458Y-104.352
X122.109Y-77.628
X129.439Y-83.951
X136.624Y-87.635
X138.31Y-87.125
X139.311Y-87.382
X142.272Y-72.39
X149.242Y-81.676
T2
X111.76Y-62.27
X111.76Y-64.77
X128.27Y-74.93
X128.27Y-90.17
X130.81Y-74.93
X130.81Y-90.17
X133.35Y-74.93
X133.35Y-90.17
X135.89Y-74.93
X135.89Y-90.17
X138.43Y-74.93
X138.43Y-90.17
X140.97Y-74.93
X140.97Y-90.17
X143.51Y-74.93
X143.51Y-90.17
X146.05Y-74.93
X146.05Y-90.17
X148.59Y-74.93
X148.59Y-90.17
X151.13Y-74.93
X151.13Y-90.17
X153.67Y-74.93
X153.67Y-90.17
X156.21Y-74.93
X156.21Y-90.17
X158.75Y-74.93
X158.75Y-90.17
X161.29Y-74.93
X161.29Y-90.17
X163.83Y-74.93
X163.83Y-90.17
X166.37Y-74.93
X166.37Y-90.17
X171.45Y-76.835
X171.45Y-79.335
X110.49Y-90.805
X110.49Y-93.345
X110.49Y-95.885
X110.49Y-98.425
X110.49Y-100.965
X174.625Y-74.295
X174.625Y-81.915
X177.165Y-74.295
X177.165Y-81.915
X179.705Y-74.295
X179.705Y-81.915
X182.245Y-74.295
X182.245Y-81.915
X184.785Y-74.295
X184.785Y-81.915
X187.325Y-74.295
X187.325Y-81.915
X189.865Y-74.295
X189.865Y-81.915
X125.095Y-81.28
X125.095Y-83.78
X174.625Y-85.725
X174.625Y-93.345
X177.165Y-85.725
X177.165Y-93.345
X179.705Y-85.725
X179.705Y-93.345
X182.245Y-85.725
X182.245Y-93.345
X184.785Y-85.725
X184.785Y-93.345
X187.325Y-85.725
X187.325Y-93.345
X189.865Y-85.725
X189.865Y-93.345
X163.83Y-62.23
X163.83Y-64.73
X189.64Y-102.655
X189.64Y-112.815
X193.04Y-102.655
X193.04Y-112.815
X167.005Y-59.69
X167.005Y-67.31
X169.545Y-59.69
X169.545Y-67.31
X172.085Y-59.69
X172.085Y-67.31
X174.625Y-59.69
X174.625Y-67.31
X177.165Y-59.69
X177.165Y-67.31
X179.705Y-59.69
X179.705Y-67.31
X182.245Y-59.69
X182.245Y-67.31
X184.785Y-59.69
X184.785Y-67.31
X139.065Y-62.23
X139.065Y-64.73
X114.935Y-59.69
X114.935Y-67.31
X117.475Y-59.69
X117.475Y-67.31
X120.015Y-59.69
X120.015Y-67.31
X122.555Y-59.69
X122.555Y-67.31
X125.095Y-59.69
X125.095Y-67.31
X127.635Y-59.69
X127.635Y-67.31
X130.175Y-59.69
X130.175Y-67.31
X132.715Y-59.69
X132.715Y-67.31
X171.45Y-88.265
X171.45Y-90.765
X121.92Y-106.68
X121.92Y-109.18
X179.07Y-102.235
X179.07Y-104.775
X179.07Y-107.315
X179.07Y-109.855
X179.07Y-112.395
X111.76Y-71.16
X111.76Y-73.66
X142.24Y-59.69
X142.24Y-67.31
X144.78Y-59.69
X144.78Y-67.31
X147.32Y-59.69
X147.32Y-67.31
X149.86Y-59.69
X149.86Y-67.31
X152.4Y-59.69
X152.4Y-67.31
X154.94Y-59.69
X154.94Y-67.31
X157.48Y-59.69
X157.48Y-67.31
T3
X183.515Y-105.41
X186.055Y-105.41
X183.515Y-101.6
X186.055Y-101.6
X183.515Y-114.3
X186.055Y-114.3
X183.515Y-109.855
X186.055Y-109.855
T4
X102.87Y-74.295
X102.87Y-76.835
X102.87Y-79.375
X102.87Y-81.915
X102.87Y-84.455
X102.87Y-86.995
X102.87Y-89.535
X102.87Y-92.075
X102.87Y-94.615
X102.87Y-97.155
X102.87Y-99.695
X102.87Y-102.235
X102.87Y-104.775
X102.87Y-107.315
X102.87Y-109.855
X102.87Y-112.395
X102.87Y-114.935
X102.87Y-117.475
X102.87Y-120.015
X102.87Y-122.555
X105.41Y-74.295
X105.41Y-76.835
X105.41Y-79.375
X105.41Y-81.915
X105.41Y-84.455
X105.41Y-86.995
X105.41Y-89.535
X105.41Y-92.075
X105.41Y-94.615
X105.41Y-97.155
X105.41Y-99.695
X105.41Y-102.235
X105.41Y-104.775
X105.41Y-107.315
X105.41Y-109.855
X105.41Y-112.395
X105.41Y-114.935
X105.41Y-117.475
X105.41Y-120.015
X105.41Y-122.555
X113.665Y-81.28
X113.665Y-83.82
X116.205Y-81.28
X116.205Y-83.82
X118.745Y-81.28
X118.745Y-83.82
X116.205Y-90.805
X116.205Y-93.345
X116.205Y-95.885
X116.205Y-98.425
X118.745Y-90.805
X118.745Y-93.345
X118.745Y-95.885
X118.745Y-98.425
X102.87Y-59.055
X102.87Y-61.595
X102.87Y-64.135
X102.87Y-66.675
X102.87Y-69.215
X105.41Y-59.055
X105.41Y-61.595
X105.41Y-64.135
X105.41Y-66.675
X105.41Y-69.215
X135.255Y-101.6
X135.255Y-116.84
X137.795Y-101.6
X137.795Y-116.84
X140.335Y-101.6
X140.335Y-116.84
X142.875Y-101.6
X142.875Y-116.84
X145.415Y-101.6
X145.415Y-116.84
X147.955Y-101.6
X147.955Y-116.84
X150.495Y-101.6
X150.495Y-116.84
X153.035Y-101.6
X153.035Y-116.84
X155.575Y-101.6
X155.575Y-116.84
X158.115Y-101.6
X158.115Y-116.84
X160.655Y-101.6
X160.655Y-116.84
X163.195Y-101.6
X163.195Y-116.84
X165.735Y-101.6
X165.735Y-116.84
X168.275Y-101.6
X168.275Y-116.84
X113.03Y-107.95
X113.03Y-110.49
X115.57Y-107.95
X115.57Y-110.49
T5
X193.04Y-60.96
X193.04Y-120.65
T0
M30
