G04 #@! TF.GenerationSoftware,KiCad,Pcbnew,(5.1.4)-1*
G04 #@! TF.CreationDate,2021-06-28T11:39:02+03:00*
G04 #@! TF.ProjectId,FLASHv2,464c4153-4876-4322-9e6b-696361645f70,rev?*
G04 #@! TF.SameCoordinates,Original*
G04 #@! TF.FileFunction,Legend,Top*
G04 #@! TF.FilePolarity,Positive*
%FSLAX46Y46*%
G04 Gerber Fmt 4.6, Leading zero omitted, Abs format (unit mm)*
G04 Created by KiCad (PCBNEW (5.1.4)-1) date 2021-06-28 11:39:02*
%MOMM*%
%LPD*%
G04 APERTURE LIST*
%ADD10C,0.150000*%
%ADD11C,0.120000*%
G04 APERTURE END LIST*
D10*
X146392380Y-115862619D02*
X146392380Y-115195952D01*
X147392380Y-115862619D01*
X147392380Y-115195952D01*
X146820952Y-114672142D02*
X146773333Y-114767380D01*
X146725714Y-114815000D01*
X146630476Y-114862619D01*
X146582857Y-114862619D01*
X146487619Y-114815000D01*
X146440000Y-114767380D01*
X146392380Y-114672142D01*
X146392380Y-114481666D01*
X146440000Y-114386428D01*
X146487619Y-114338809D01*
X146582857Y-114291190D01*
X146630476Y-114291190D01*
X146725714Y-114338809D01*
X146773333Y-114386428D01*
X146820952Y-114481666D01*
X146820952Y-114672142D01*
X146868571Y-114767380D01*
X146916190Y-114815000D01*
X147011428Y-114862619D01*
X147201904Y-114862619D01*
X147297142Y-114815000D01*
X147344761Y-114767380D01*
X147392380Y-114672142D01*
X147392380Y-114481666D01*
X147344761Y-114386428D01*
X147297142Y-114338809D01*
X147201904Y-114291190D01*
X147011428Y-114291190D01*
X146916190Y-114338809D01*
X146868571Y-114386428D01*
X146820952Y-114481666D01*
X146392380Y-113672142D02*
X146392380Y-113576904D01*
X146440000Y-113481666D01*
X146487619Y-113434047D01*
X146582857Y-113386428D01*
X146773333Y-113338809D01*
X147011428Y-113338809D01*
X147201904Y-113386428D01*
X147297142Y-113434047D01*
X147344761Y-113481666D01*
X147392380Y-113576904D01*
X147392380Y-113672142D01*
X147344761Y-113767380D01*
X147297142Y-113815000D01*
X147201904Y-113862619D01*
X147011428Y-113910238D01*
X146773333Y-113910238D01*
X146582857Y-113862619D01*
X146487619Y-113815000D01*
X146440000Y-113767380D01*
X146392380Y-113672142D01*
X147392380Y-112148333D02*
X146392380Y-112148333D01*
X147106666Y-111815000D01*
X146392380Y-111481666D01*
X147392380Y-111481666D01*
X147392380Y-110862619D02*
X147344761Y-110957857D01*
X147297142Y-111005476D01*
X147201904Y-111053095D01*
X146916190Y-111053095D01*
X146820952Y-111005476D01*
X146773333Y-110957857D01*
X146725714Y-110862619D01*
X146725714Y-110719761D01*
X146773333Y-110624523D01*
X146820952Y-110576904D01*
X146916190Y-110529285D01*
X147201904Y-110529285D01*
X147297142Y-110576904D01*
X147344761Y-110624523D01*
X147392380Y-110719761D01*
X147392380Y-110862619D01*
X147392380Y-109672142D02*
X146392380Y-109672142D01*
X147344761Y-109672142D02*
X147392380Y-109767380D01*
X147392380Y-109957857D01*
X147344761Y-110053095D01*
X147297142Y-110100714D01*
X147201904Y-110148333D01*
X146916190Y-110148333D01*
X146820952Y-110100714D01*
X146773333Y-110053095D01*
X146725714Y-109957857D01*
X146725714Y-109767380D01*
X146773333Y-109672142D01*
X146725714Y-108767380D02*
X147392380Y-108767380D01*
X146725714Y-109195952D02*
X147249523Y-109195952D01*
X147344761Y-109148333D01*
X147392380Y-109053095D01*
X147392380Y-108910238D01*
X147344761Y-108815000D01*
X147297142Y-108767380D01*
X147392380Y-108148333D02*
X147344761Y-108243571D01*
X147249523Y-108291190D01*
X146392380Y-108291190D01*
X147392380Y-107338809D02*
X146868571Y-107338809D01*
X146773333Y-107386428D01*
X146725714Y-107481666D01*
X146725714Y-107672142D01*
X146773333Y-107767380D01*
X147344761Y-107338809D02*
X147392380Y-107434047D01*
X147392380Y-107672142D01*
X147344761Y-107767380D01*
X147249523Y-107815000D01*
X147154285Y-107815000D01*
X147059047Y-107767380D01*
X147011428Y-107672142D01*
X147011428Y-107434047D01*
X146963809Y-107338809D01*
X147392380Y-106862619D02*
X146725714Y-106862619D01*
X146916190Y-106862619D02*
X146820952Y-106815000D01*
X146773333Y-106767380D01*
X146725714Y-106672142D01*
X146725714Y-106576904D01*
X147297142Y-104910238D02*
X147344761Y-104957857D01*
X147392380Y-105100714D01*
X147392380Y-105195952D01*
X147344761Y-105338809D01*
X147249523Y-105434047D01*
X147154285Y-105481666D01*
X146963809Y-105529285D01*
X146820952Y-105529285D01*
X146630476Y-105481666D01*
X146535238Y-105434047D01*
X146440000Y-105338809D01*
X146392380Y-105195952D01*
X146392380Y-105100714D01*
X146440000Y-104957857D01*
X146487619Y-104910238D01*
X147392380Y-104338809D02*
X147344761Y-104434047D01*
X147297142Y-104481666D01*
X147201904Y-104529285D01*
X146916190Y-104529285D01*
X146820952Y-104481666D01*
X146773333Y-104434047D01*
X146725714Y-104338809D01*
X146725714Y-104195952D01*
X146773333Y-104100714D01*
X146820952Y-104053095D01*
X146916190Y-104005476D01*
X147201904Y-104005476D01*
X147297142Y-104053095D01*
X147344761Y-104100714D01*
X147392380Y-104195952D01*
X147392380Y-104338809D01*
X147392380Y-103576904D02*
X146725714Y-103576904D01*
X146820952Y-103576904D02*
X146773333Y-103529285D01*
X146725714Y-103434047D01*
X146725714Y-103291190D01*
X146773333Y-103195952D01*
X146868571Y-103148333D01*
X147392380Y-103148333D01*
X146868571Y-103148333D02*
X146773333Y-103100714D01*
X146725714Y-103005476D01*
X146725714Y-102862619D01*
X146773333Y-102767380D01*
X146868571Y-102719761D01*
X147392380Y-102719761D01*
X146725714Y-102243571D02*
X147725714Y-102243571D01*
X146773333Y-102243571D02*
X146725714Y-102148333D01*
X146725714Y-101957857D01*
X146773333Y-101862619D01*
X146820952Y-101815000D01*
X146916190Y-101767380D01*
X147201904Y-101767380D01*
X147297142Y-101815000D01*
X147344761Y-101862619D01*
X147392380Y-101957857D01*
X147392380Y-102148333D01*
X147344761Y-102243571D01*
X146725714Y-100910238D02*
X147392380Y-100910238D01*
X146725714Y-101338809D02*
X147249523Y-101338809D01*
X147344761Y-101291190D01*
X147392380Y-101195952D01*
X147392380Y-101053095D01*
X147344761Y-100957857D01*
X147297142Y-100910238D01*
X146725714Y-100576904D02*
X146725714Y-100195952D01*
X146392380Y-100434047D02*
X147249523Y-100434047D01*
X147344761Y-100386428D01*
X147392380Y-100291190D01*
X147392380Y-100195952D01*
X147344761Y-99481666D02*
X147392380Y-99576904D01*
X147392380Y-99767380D01*
X147344761Y-99862619D01*
X147249523Y-99910238D01*
X146868571Y-99910238D01*
X146773333Y-99862619D01*
X146725714Y-99767380D01*
X146725714Y-99576904D01*
X146773333Y-99481666D01*
X146868571Y-99434047D01*
X146963809Y-99434047D01*
X147059047Y-99910238D01*
X147392380Y-99005476D02*
X146725714Y-99005476D01*
X146916190Y-99005476D02*
X146820952Y-98957857D01*
X146773333Y-98910238D01*
X146725714Y-98815000D01*
X146725714Y-98719761D01*
X148518571Y-115719761D02*
X148518571Y-116053095D01*
X149042380Y-116053095D02*
X148042380Y-116053095D01*
X148042380Y-115576904D01*
X149042380Y-114719761D02*
X149042380Y-115195952D01*
X148042380Y-115195952D01*
X148756666Y-114434047D02*
X148756666Y-113957857D01*
X149042380Y-114529285D02*
X148042380Y-114195952D01*
X149042380Y-113862619D01*
X148994761Y-113576904D02*
X149042380Y-113434047D01*
X149042380Y-113195952D01*
X148994761Y-113100714D01*
X148947142Y-113053095D01*
X148851904Y-113005476D01*
X148756666Y-113005476D01*
X148661428Y-113053095D01*
X148613809Y-113100714D01*
X148566190Y-113195952D01*
X148518571Y-113386428D01*
X148470952Y-113481666D01*
X148423333Y-113529285D01*
X148328095Y-113576904D01*
X148232857Y-113576904D01*
X148137619Y-113529285D01*
X148090000Y-113481666D01*
X148042380Y-113386428D01*
X148042380Y-113148333D01*
X148090000Y-113005476D01*
X149042380Y-112576904D02*
X148042380Y-112576904D01*
X148518571Y-112576904D02*
X148518571Y-112005476D01*
X149042380Y-112005476D02*
X148042380Y-112005476D01*
X148947142Y-110195952D02*
X148994761Y-110243571D01*
X149042380Y-110386428D01*
X149042380Y-110481666D01*
X148994761Y-110624523D01*
X148899523Y-110719761D01*
X148804285Y-110767380D01*
X148613809Y-110815000D01*
X148470952Y-110815000D01*
X148280476Y-110767380D01*
X148185238Y-110719761D01*
X148090000Y-110624523D01*
X148042380Y-110481666D01*
X148042380Y-110386428D01*
X148090000Y-110243571D01*
X148137619Y-110195952D01*
X149042380Y-109338809D02*
X148518571Y-109338809D01*
X148423333Y-109386428D01*
X148375714Y-109481666D01*
X148375714Y-109672142D01*
X148423333Y-109767380D01*
X148994761Y-109338809D02*
X149042380Y-109434047D01*
X149042380Y-109672142D01*
X148994761Y-109767380D01*
X148899523Y-109815000D01*
X148804285Y-109815000D01*
X148709047Y-109767380D01*
X148661428Y-109672142D01*
X148661428Y-109434047D01*
X148613809Y-109338809D01*
X149042380Y-108862619D02*
X148375714Y-108862619D01*
X148566190Y-108862619D02*
X148470952Y-108815000D01*
X148423333Y-108767380D01*
X148375714Y-108672142D01*
X148375714Y-108576904D01*
X149042380Y-107815000D02*
X148042380Y-107815000D01*
X148994761Y-107815000D02*
X149042380Y-107910238D01*
X149042380Y-108100714D01*
X148994761Y-108195952D01*
X148947142Y-108243571D01*
X148851904Y-108291190D01*
X148566190Y-108291190D01*
X148470952Y-108243571D01*
X148423333Y-108195952D01*
X148375714Y-108100714D01*
X148375714Y-107910238D01*
X148423333Y-107815000D01*
X148375714Y-106672142D02*
X149042380Y-106434047D01*
X148375714Y-106195952D01*
X148994761Y-105434047D02*
X149042380Y-105529285D01*
X149042380Y-105719761D01*
X148994761Y-105815000D01*
X148899523Y-105862619D01*
X148518571Y-105862619D01*
X148423333Y-105815000D01*
X148375714Y-105719761D01*
X148375714Y-105529285D01*
X148423333Y-105434047D01*
X148518571Y-105386428D01*
X148613809Y-105386428D01*
X148709047Y-105862619D01*
X149042380Y-104957857D02*
X148375714Y-104957857D01*
X148566190Y-104957857D02*
X148470952Y-104910238D01*
X148423333Y-104862619D01*
X148375714Y-104767380D01*
X148375714Y-104672142D01*
X148994761Y-104386428D02*
X149042380Y-104291190D01*
X149042380Y-104100714D01*
X148994761Y-104005476D01*
X148899523Y-103957857D01*
X148851904Y-103957857D01*
X148756666Y-104005476D01*
X148709047Y-104100714D01*
X148709047Y-104243571D01*
X148661428Y-104338809D01*
X148566190Y-104386428D01*
X148518571Y-104386428D01*
X148423333Y-104338809D01*
X148375714Y-104243571D01*
X148375714Y-104100714D01*
X148423333Y-104005476D01*
X149042380Y-103529285D02*
X148375714Y-103529285D01*
X148042380Y-103529285D02*
X148090000Y-103576904D01*
X148137619Y-103529285D01*
X148090000Y-103481666D01*
X148042380Y-103529285D01*
X148137619Y-103529285D01*
X149042380Y-102910238D02*
X148994761Y-103005476D01*
X148947142Y-103053095D01*
X148851904Y-103100714D01*
X148566190Y-103100714D01*
X148470952Y-103053095D01*
X148423333Y-103005476D01*
X148375714Y-102910238D01*
X148375714Y-102767380D01*
X148423333Y-102672142D01*
X148470952Y-102624523D01*
X148566190Y-102576904D01*
X148851904Y-102576904D01*
X148947142Y-102624523D01*
X148994761Y-102672142D01*
X149042380Y-102767380D01*
X149042380Y-102910238D01*
X148375714Y-102148333D02*
X149042380Y-102148333D01*
X148470952Y-102148333D02*
X148423333Y-102100714D01*
X148375714Y-102005476D01*
X148375714Y-101862619D01*
X148423333Y-101767380D01*
X148518571Y-101719761D01*
X149042380Y-101719761D01*
X148137619Y-100529285D02*
X148090000Y-100481666D01*
X148042380Y-100386428D01*
X148042380Y-100148333D01*
X148090000Y-100053095D01*
X148137619Y-100005476D01*
X148232857Y-99957857D01*
X148328095Y-99957857D01*
X148470952Y-100005476D01*
X149042380Y-100576904D01*
X149042380Y-99957857D01*
X148947142Y-99529285D02*
X148994761Y-99481666D01*
X149042380Y-99529285D01*
X148994761Y-99576904D01*
X148947142Y-99529285D01*
X149042380Y-99529285D01*
X148042380Y-98862619D02*
X148042380Y-98767380D01*
X148090000Y-98672142D01*
X148137619Y-98624523D01*
X148232857Y-98576904D01*
X148423333Y-98529285D01*
X148661428Y-98529285D01*
X148851904Y-98576904D01*
X148947142Y-98624523D01*
X148994761Y-98672142D01*
X149042380Y-98767380D01*
X149042380Y-98862619D01*
X148994761Y-98957857D01*
X148947142Y-99005476D01*
X148851904Y-99053095D01*
X148661428Y-99100714D01*
X148423333Y-99100714D01*
X148232857Y-99053095D01*
X148137619Y-99005476D01*
X148090000Y-98957857D01*
X148042380Y-98862619D01*
X150692380Y-118386428D02*
X149692380Y-118386428D01*
X149692380Y-118148333D01*
X149740000Y-118005476D01*
X149835238Y-117910238D01*
X149930476Y-117862619D01*
X150120952Y-117815000D01*
X150263809Y-117815000D01*
X150454285Y-117862619D01*
X150549523Y-117910238D01*
X150644761Y-118005476D01*
X150692380Y-118148333D01*
X150692380Y-118386428D01*
X150644761Y-117005476D02*
X150692380Y-117100714D01*
X150692380Y-117291190D01*
X150644761Y-117386428D01*
X150549523Y-117434047D01*
X150168571Y-117434047D01*
X150073333Y-117386428D01*
X150025714Y-117291190D01*
X150025714Y-117100714D01*
X150073333Y-117005476D01*
X150168571Y-116957857D01*
X150263809Y-116957857D01*
X150359047Y-117434047D01*
X150644761Y-116576904D02*
X150692380Y-116481666D01*
X150692380Y-116291190D01*
X150644761Y-116195952D01*
X150549523Y-116148333D01*
X150501904Y-116148333D01*
X150406666Y-116195952D01*
X150359047Y-116291190D01*
X150359047Y-116434047D01*
X150311428Y-116529285D01*
X150216190Y-116576904D01*
X150168571Y-116576904D01*
X150073333Y-116529285D01*
X150025714Y-116434047D01*
X150025714Y-116291190D01*
X150073333Y-116195952D01*
X150692380Y-115719761D02*
X150025714Y-115719761D01*
X149692380Y-115719761D02*
X149740000Y-115767380D01*
X149787619Y-115719761D01*
X149740000Y-115672142D01*
X149692380Y-115719761D01*
X149787619Y-115719761D01*
X150025714Y-114815000D02*
X150835238Y-114815000D01*
X150930476Y-114862619D01*
X150978095Y-114910238D01*
X151025714Y-115005476D01*
X151025714Y-115148333D01*
X150978095Y-115243571D01*
X150644761Y-114815000D02*
X150692380Y-114910238D01*
X150692380Y-115100714D01*
X150644761Y-115195952D01*
X150597142Y-115243571D01*
X150501904Y-115291190D01*
X150216190Y-115291190D01*
X150120952Y-115243571D01*
X150073333Y-115195952D01*
X150025714Y-115100714D01*
X150025714Y-114910238D01*
X150073333Y-114815000D01*
X150025714Y-114338809D02*
X150692380Y-114338809D01*
X150120952Y-114338809D02*
X150073333Y-114291190D01*
X150025714Y-114195952D01*
X150025714Y-114053095D01*
X150073333Y-113957857D01*
X150168571Y-113910238D01*
X150692380Y-113910238D01*
X150692380Y-112672142D02*
X149692380Y-112672142D01*
X150073333Y-112672142D02*
X150025714Y-112576904D01*
X150025714Y-112386428D01*
X150073333Y-112291190D01*
X150120952Y-112243571D01*
X150216190Y-112195952D01*
X150501904Y-112195952D01*
X150597142Y-112243571D01*
X150644761Y-112291190D01*
X150692380Y-112386428D01*
X150692380Y-112576904D01*
X150644761Y-112672142D01*
X150025714Y-111862619D02*
X150692380Y-111624523D01*
X150025714Y-111386428D02*
X150692380Y-111624523D01*
X150930476Y-111719761D01*
X150978095Y-111767380D01*
X151025714Y-111862619D01*
X150692380Y-110243571D02*
X149692380Y-110243571D01*
X150692380Y-109672142D02*
X150120952Y-110100714D01*
X149692380Y-109672142D02*
X150263809Y-110243571D01*
X150692380Y-108815000D02*
X150168571Y-108815000D01*
X150073333Y-108862619D01*
X150025714Y-108957857D01*
X150025714Y-109148333D01*
X150073333Y-109243571D01*
X150644761Y-108815000D02*
X150692380Y-108910238D01*
X150692380Y-109148333D01*
X150644761Y-109243571D01*
X150549523Y-109291190D01*
X150454285Y-109291190D01*
X150359047Y-109243571D01*
X150311428Y-109148333D01*
X150311428Y-108910238D01*
X150263809Y-108815000D01*
X150692380Y-108195952D02*
X150644761Y-108291190D01*
X150549523Y-108338809D01*
X149692380Y-108338809D01*
X150025714Y-107957857D02*
X150025714Y-107576904D01*
X149692380Y-107815000D02*
X150549523Y-107815000D01*
X150644761Y-107767380D01*
X150692380Y-107672142D01*
X150692380Y-107576904D01*
X150644761Y-106815000D02*
X150692380Y-106910238D01*
X150692380Y-107100714D01*
X150644761Y-107195952D01*
X150597142Y-107243571D01*
X150501904Y-107291190D01*
X150216190Y-107291190D01*
X150120952Y-107243571D01*
X150073333Y-107195952D01*
X150025714Y-107100714D01*
X150025714Y-106910238D01*
X150073333Y-106815000D01*
X150692380Y-106386428D02*
X149692380Y-106386428D01*
X150692380Y-105957857D02*
X150168571Y-105957857D01*
X150073333Y-106005476D01*
X150025714Y-106100714D01*
X150025714Y-106243571D01*
X150073333Y-106338809D01*
X150120952Y-106386428D01*
X150025714Y-105053095D02*
X150692380Y-105053095D01*
X150025714Y-105481666D02*
X150549523Y-105481666D01*
X150644761Y-105434047D01*
X150692380Y-105338809D01*
X150692380Y-105195952D01*
X150644761Y-105100714D01*
X150597142Y-105053095D01*
X150692380Y-104576904D02*
X149692380Y-104576904D01*
X150311428Y-104481666D02*
X150692380Y-104195952D01*
X150025714Y-104195952D02*
X150406666Y-104576904D01*
X150644761Y-103719761D02*
X150692380Y-103719761D01*
X150787619Y-103767380D01*
X150835238Y-103815000D01*
X149692380Y-102338809D02*
X149692380Y-102243571D01*
X149740000Y-102148333D01*
X149787619Y-102100714D01*
X149882857Y-102053095D01*
X150073333Y-102005476D01*
X150311428Y-102005476D01*
X150501904Y-102053095D01*
X150597142Y-102100714D01*
X150644761Y-102148333D01*
X150692380Y-102243571D01*
X150692380Y-102338809D01*
X150644761Y-102434047D01*
X150597142Y-102481666D01*
X150501904Y-102529285D01*
X150311428Y-102576904D01*
X150073333Y-102576904D01*
X149882857Y-102529285D01*
X149787619Y-102481666D01*
X149740000Y-102434047D01*
X149692380Y-102338809D01*
X149692380Y-101148333D02*
X149692380Y-101338809D01*
X149740000Y-101434047D01*
X149787619Y-101481666D01*
X149930476Y-101576904D01*
X150120952Y-101624523D01*
X150501904Y-101624523D01*
X150597142Y-101576904D01*
X150644761Y-101529285D01*
X150692380Y-101434047D01*
X150692380Y-101243571D01*
X150644761Y-101148333D01*
X150597142Y-101100714D01*
X150501904Y-101053095D01*
X150263809Y-101053095D01*
X150168571Y-101100714D01*
X150120952Y-101148333D01*
X150073333Y-101243571D01*
X150073333Y-101434047D01*
X150120952Y-101529285D01*
X150168571Y-101576904D01*
X150263809Y-101624523D01*
X149644761Y-99910238D02*
X150930476Y-100767380D01*
X149787619Y-99624523D02*
X149740000Y-99576904D01*
X149692380Y-99481666D01*
X149692380Y-99243571D01*
X149740000Y-99148333D01*
X149787619Y-99100714D01*
X149882857Y-99053095D01*
X149978095Y-99053095D01*
X150120952Y-99100714D01*
X150692380Y-99672142D01*
X150692380Y-99053095D01*
X149692380Y-98434047D02*
X149692380Y-98338809D01*
X149740000Y-98243571D01*
X149787619Y-98195952D01*
X149882857Y-98148333D01*
X150073333Y-98100714D01*
X150311428Y-98100714D01*
X150501904Y-98148333D01*
X150597142Y-98195952D01*
X150644761Y-98243571D01*
X150692380Y-98338809D01*
X150692380Y-98434047D01*
X150644761Y-98529285D01*
X150597142Y-98576904D01*
X150501904Y-98624523D01*
X150311428Y-98672142D01*
X150073333Y-98672142D01*
X149882857Y-98624523D01*
X149787619Y-98576904D01*
X149740000Y-98529285D01*
X149692380Y-98434047D01*
X149787619Y-97719761D02*
X149740000Y-97672142D01*
X149692380Y-97576904D01*
X149692380Y-97338809D01*
X149740000Y-97243571D01*
X149787619Y-97195952D01*
X149882857Y-97148333D01*
X149978095Y-97148333D01*
X150120952Y-97195952D01*
X150692380Y-97767380D01*
X150692380Y-97148333D01*
X150692380Y-96195952D02*
X150692380Y-96767380D01*
X150692380Y-96481666D02*
X149692380Y-96481666D01*
X149835238Y-96576904D01*
X149930476Y-96672142D01*
X149978095Y-96767380D01*
X132477380Y-119467380D02*
X133096428Y-119467380D01*
X132763095Y-119848333D01*
X132905952Y-119848333D01*
X133001190Y-119895952D01*
X133048809Y-119943571D01*
X133096428Y-120038809D01*
X133096428Y-120276904D01*
X133048809Y-120372142D01*
X133001190Y-120419761D01*
X132905952Y-120467380D01*
X132620238Y-120467380D01*
X132525000Y-120419761D01*
X132477380Y-120372142D01*
X135001190Y-119562619D02*
X135048809Y-119515000D01*
X135144047Y-119467380D01*
X135382142Y-119467380D01*
X135477380Y-119515000D01*
X135525000Y-119562619D01*
X135572619Y-119657857D01*
X135572619Y-119753095D01*
X135525000Y-119895952D01*
X134953571Y-120467380D01*
X135572619Y-120467380D01*
X138048809Y-120467380D02*
X137477380Y-120467380D01*
X137763095Y-120467380D02*
X137763095Y-119467380D01*
X137667857Y-119610238D01*
X137572619Y-119705476D01*
X137477380Y-119753095D01*
X140191666Y-119467380D02*
X140286904Y-119467380D01*
X140382142Y-119515000D01*
X140429761Y-119562619D01*
X140477380Y-119657857D01*
X140525000Y-119848333D01*
X140525000Y-120086428D01*
X140477380Y-120276904D01*
X140429761Y-120372142D01*
X140382142Y-120419761D01*
X140286904Y-120467380D01*
X140191666Y-120467380D01*
X140096428Y-120419761D01*
X140048809Y-120372142D01*
X140001190Y-120276904D01*
X139953571Y-120086428D01*
X139953571Y-119848333D01*
X140001190Y-119657857D01*
X140048809Y-119562619D01*
X140096428Y-119515000D01*
X140191666Y-119467380D01*
X126095238Y-115737142D02*
X126047619Y-115784761D01*
X125904761Y-115832380D01*
X125809523Y-115832380D01*
X125666666Y-115784761D01*
X125571428Y-115689523D01*
X125523809Y-115594285D01*
X125476190Y-115403809D01*
X125476190Y-115260952D01*
X125523809Y-115070476D01*
X125571428Y-114975238D01*
X125666666Y-114880000D01*
X125809523Y-114832380D01*
X125904761Y-114832380D01*
X126047619Y-114880000D01*
X126095238Y-114927619D01*
X126952380Y-115832380D02*
X126952380Y-115308571D01*
X126904761Y-115213333D01*
X126809523Y-115165714D01*
X126619047Y-115165714D01*
X126523809Y-115213333D01*
X126952380Y-115784761D02*
X126857142Y-115832380D01*
X126619047Y-115832380D01*
X126523809Y-115784761D01*
X126476190Y-115689523D01*
X126476190Y-115594285D01*
X126523809Y-115499047D01*
X126619047Y-115451428D01*
X126857142Y-115451428D01*
X126952380Y-115403809D01*
X127428571Y-115832380D02*
X127428571Y-115165714D01*
X127428571Y-115356190D02*
X127476190Y-115260952D01*
X127523809Y-115213333D01*
X127619047Y-115165714D01*
X127714285Y-115165714D01*
X128476190Y-115832380D02*
X128476190Y-114832380D01*
X128476190Y-115784761D02*
X128380952Y-115832380D01*
X128190476Y-115832380D01*
X128095238Y-115784761D01*
X128047619Y-115737142D01*
X128000000Y-115641904D01*
X128000000Y-115356190D01*
X128047619Y-115260952D01*
X128095238Y-115213333D01*
X128190476Y-115165714D01*
X128380952Y-115165714D01*
X128476190Y-115213333D01*
X125547619Y-117196666D02*
X126023809Y-117196666D01*
X125452380Y-117482380D02*
X125785714Y-116482380D01*
X126119047Y-117482380D01*
X126880952Y-117482380D02*
X126880952Y-116482380D01*
X126880952Y-117434761D02*
X126785714Y-117482380D01*
X126595238Y-117482380D01*
X126500000Y-117434761D01*
X126452380Y-117387142D01*
X126404761Y-117291904D01*
X126404761Y-117006190D01*
X126452380Y-116910952D01*
X126500000Y-116863333D01*
X126595238Y-116815714D01*
X126785714Y-116815714D01*
X126880952Y-116863333D01*
X127785714Y-117482380D02*
X127785714Y-116482380D01*
X127785714Y-117434761D02*
X127690476Y-117482380D01*
X127500000Y-117482380D01*
X127404761Y-117434761D01*
X127357142Y-117387142D01*
X127309523Y-117291904D01*
X127309523Y-117006190D01*
X127357142Y-116910952D01*
X127404761Y-116863333D01*
X127500000Y-116815714D01*
X127690476Y-116815714D01*
X127785714Y-116863333D01*
X128261904Y-117482380D02*
X128261904Y-116815714D01*
X128261904Y-117006190D02*
X128309523Y-116910952D01*
X128357142Y-116863333D01*
X128452380Y-116815714D01*
X128547619Y-116815714D01*
X181332142Y-111695238D02*
X181379761Y-111742857D01*
X181427380Y-111885714D01*
X181427380Y-111980952D01*
X181379761Y-112123809D01*
X181284523Y-112219047D01*
X181189285Y-112266666D01*
X180998809Y-112314285D01*
X180855952Y-112314285D01*
X180665476Y-112266666D01*
X180570238Y-112219047D01*
X180475000Y-112123809D01*
X180427380Y-111980952D01*
X180427380Y-111885714D01*
X180475000Y-111742857D01*
X180522619Y-111695238D01*
X181427380Y-111123809D02*
X181379761Y-111219047D01*
X181332142Y-111266666D01*
X181236904Y-111314285D01*
X180951190Y-111314285D01*
X180855952Y-111266666D01*
X180808333Y-111219047D01*
X180760714Y-111123809D01*
X180760714Y-110980952D01*
X180808333Y-110885714D01*
X180855952Y-110838095D01*
X180951190Y-110790476D01*
X181236904Y-110790476D01*
X181332142Y-110838095D01*
X181379761Y-110885714D01*
X181427380Y-110980952D01*
X181427380Y-111123809D01*
X181427380Y-110361904D02*
X180760714Y-110361904D01*
X180855952Y-110361904D02*
X180808333Y-110314285D01*
X180760714Y-110219047D01*
X180760714Y-110076190D01*
X180808333Y-109980952D01*
X180903571Y-109933333D01*
X181427380Y-109933333D01*
X180903571Y-109933333D02*
X180808333Y-109885714D01*
X180760714Y-109790476D01*
X180760714Y-109647619D01*
X180808333Y-109552380D01*
X180903571Y-109504761D01*
X181427380Y-109504761D01*
X180760714Y-109028571D02*
X181760714Y-109028571D01*
X180808333Y-109028571D02*
X180760714Y-108933333D01*
X180760714Y-108742857D01*
X180808333Y-108647619D01*
X180855952Y-108600000D01*
X180951190Y-108552380D01*
X181236904Y-108552380D01*
X181332142Y-108600000D01*
X181379761Y-108647619D01*
X181427380Y-108742857D01*
X181427380Y-108933333D01*
X181379761Y-109028571D01*
X181427380Y-107695238D02*
X180903571Y-107695238D01*
X180808333Y-107742857D01*
X180760714Y-107838095D01*
X180760714Y-108028571D01*
X180808333Y-108123809D01*
X181379761Y-107695238D02*
X181427380Y-107790476D01*
X181427380Y-108028571D01*
X181379761Y-108123809D01*
X181284523Y-108171428D01*
X181189285Y-108171428D01*
X181094047Y-108123809D01*
X181046428Y-108028571D01*
X181046428Y-107790476D01*
X180998809Y-107695238D01*
X181379761Y-106790476D02*
X181427380Y-106885714D01*
X181427380Y-107076190D01*
X181379761Y-107171428D01*
X181332142Y-107219047D01*
X181236904Y-107266666D01*
X180951190Y-107266666D01*
X180855952Y-107219047D01*
X180808333Y-107171428D01*
X180760714Y-107076190D01*
X180760714Y-106885714D01*
X180808333Y-106790476D01*
X180760714Y-106504761D02*
X180760714Y-106123809D01*
X180427380Y-106361904D02*
X181284523Y-106361904D01*
X181379761Y-106314285D01*
X181427380Y-106219047D01*
X181427380Y-106123809D01*
X180903571Y-104695238D02*
X180903571Y-105028571D01*
X181427380Y-105028571D02*
X180427380Y-105028571D01*
X180427380Y-104552380D01*
X181427380Y-104028571D02*
X181379761Y-104123809D01*
X181284523Y-104171428D01*
X180427380Y-104171428D01*
X181427380Y-103219047D02*
X180903571Y-103219047D01*
X180808333Y-103266666D01*
X180760714Y-103361904D01*
X180760714Y-103552380D01*
X180808333Y-103647619D01*
X181379761Y-103219047D02*
X181427380Y-103314285D01*
X181427380Y-103552380D01*
X181379761Y-103647619D01*
X181284523Y-103695238D01*
X181189285Y-103695238D01*
X181094047Y-103647619D01*
X181046428Y-103552380D01*
X181046428Y-103314285D01*
X180998809Y-103219047D01*
X181379761Y-102790476D02*
X181427380Y-102695238D01*
X181427380Y-102504761D01*
X181379761Y-102409523D01*
X181284523Y-102361904D01*
X181236904Y-102361904D01*
X181141666Y-102409523D01*
X181094047Y-102504761D01*
X181094047Y-102647619D01*
X181046428Y-102742857D01*
X180951190Y-102790476D01*
X180903571Y-102790476D01*
X180808333Y-102742857D01*
X180760714Y-102647619D01*
X180760714Y-102504761D01*
X180808333Y-102409523D01*
X181427380Y-101933333D02*
X180427380Y-101933333D01*
X181427380Y-101504761D02*
X180903571Y-101504761D01*
X180808333Y-101552380D01*
X180760714Y-101647619D01*
X180760714Y-101790476D01*
X180808333Y-101885714D01*
X180855952Y-101933333D01*
X181332142Y-99695238D02*
X181379761Y-99742857D01*
X181427380Y-99885714D01*
X181427380Y-99980952D01*
X181379761Y-100123809D01*
X181284523Y-100219047D01*
X181189285Y-100266666D01*
X180998809Y-100314285D01*
X180855952Y-100314285D01*
X180665476Y-100266666D01*
X180570238Y-100219047D01*
X180475000Y-100123809D01*
X180427380Y-99980952D01*
X180427380Y-99885714D01*
X180475000Y-99742857D01*
X180522619Y-99695238D01*
X181427380Y-98838095D02*
X180903571Y-98838095D01*
X180808333Y-98885714D01*
X180760714Y-98980952D01*
X180760714Y-99171428D01*
X180808333Y-99266666D01*
X181379761Y-98838095D02*
X181427380Y-98933333D01*
X181427380Y-99171428D01*
X181379761Y-99266666D01*
X181284523Y-99314285D01*
X181189285Y-99314285D01*
X181094047Y-99266666D01*
X181046428Y-99171428D01*
X181046428Y-98933333D01*
X180998809Y-98838095D01*
X181427380Y-98361904D02*
X180760714Y-98361904D01*
X180951190Y-98361904D02*
X180855952Y-98314285D01*
X180808333Y-98266666D01*
X180760714Y-98171428D01*
X180760714Y-98076190D01*
X181427380Y-97314285D02*
X180427380Y-97314285D01*
X181379761Y-97314285D02*
X181427380Y-97409523D01*
X181427380Y-97600000D01*
X181379761Y-97695238D01*
X181332142Y-97742857D01*
X181236904Y-97790476D01*
X180951190Y-97790476D01*
X180855952Y-97742857D01*
X180808333Y-97695238D01*
X180760714Y-97600000D01*
X180760714Y-97409523D01*
X180808333Y-97314285D01*
X181141666Y-96123809D02*
X181141666Y-95647619D01*
X181427380Y-96219047D02*
X180427380Y-95885714D01*
X181427380Y-95552380D01*
X181427380Y-94790476D02*
X180427380Y-94790476D01*
X181379761Y-94790476D02*
X181427380Y-94885714D01*
X181427380Y-95076190D01*
X181379761Y-95171428D01*
X181332142Y-95219047D01*
X181236904Y-95266666D01*
X180951190Y-95266666D01*
X180855952Y-95219047D01*
X180808333Y-95171428D01*
X180760714Y-95076190D01*
X180760714Y-94885714D01*
X180808333Y-94790476D01*
X181427380Y-93885714D02*
X180903571Y-93885714D01*
X180808333Y-93933333D01*
X180760714Y-94028571D01*
X180760714Y-94219047D01*
X180808333Y-94314285D01*
X181379761Y-93885714D02*
X181427380Y-93980952D01*
X181427380Y-94219047D01*
X181379761Y-94314285D01*
X181284523Y-94361904D01*
X181189285Y-94361904D01*
X181094047Y-94314285D01*
X181046428Y-94219047D01*
X181046428Y-93980952D01*
X180998809Y-93885714D01*
X180760714Y-93409523D02*
X181760714Y-93409523D01*
X180808333Y-93409523D02*
X180760714Y-93314285D01*
X180760714Y-93123809D01*
X180808333Y-93028571D01*
X180855952Y-92980952D01*
X180951190Y-92933333D01*
X181236904Y-92933333D01*
X181332142Y-92980952D01*
X181379761Y-93028571D01*
X181427380Y-93123809D01*
X181427380Y-93314285D01*
X181379761Y-93409523D01*
X180760714Y-92647619D02*
X180760714Y-92266666D01*
X180427380Y-92504761D02*
X181284523Y-92504761D01*
X181379761Y-92457142D01*
X181427380Y-92361904D01*
X181427380Y-92266666D01*
X181379761Y-91552380D02*
X181427380Y-91647619D01*
X181427380Y-91838095D01*
X181379761Y-91933333D01*
X181284523Y-91980952D01*
X180903571Y-91980952D01*
X180808333Y-91933333D01*
X180760714Y-91838095D01*
X180760714Y-91647619D01*
X180808333Y-91552380D01*
X180903571Y-91504761D01*
X180998809Y-91504761D01*
X181094047Y-91980952D01*
X181427380Y-91076190D02*
X180760714Y-91076190D01*
X180951190Y-91076190D02*
X180855952Y-91028571D01*
X180808333Y-90980952D01*
X180760714Y-90885714D01*
X180760714Y-90790476D01*
D11*
X163195000Y-127635000D02*
X163195000Y-123190000D01*
X156210000Y-123190000D02*
X163195000Y-123190000D01*
X156210000Y-77470000D02*
X163195000Y-77470000D01*
X163195000Y-77470000D02*
X163195000Y-73660000D01*
X201295000Y-127635000D02*
X163195000Y-127635000D01*
X201295000Y-73660000D02*
X201295000Y-127635000D01*
X163195000Y-73660000D02*
X201295000Y-73660000D01*
X104715000Y-80070000D02*
X109915000Y-80070000D01*
X104715000Y-69850000D02*
X104715000Y-80070000D01*
X109915000Y-67250000D02*
X109915000Y-80070000D01*
X104715000Y-69850000D02*
X107315000Y-69850000D01*
X107315000Y-69850000D02*
X107315000Y-67250000D01*
X107315000Y-67250000D02*
X109915000Y-67250000D01*
X104715000Y-68580000D02*
X104715000Y-67250000D01*
X104715000Y-67250000D02*
X106045000Y-67250000D01*
X117555000Y-76220000D02*
G75*
G03X117555000Y-76220000I-2620000J0D01*
G01*
X112355000Y-76220000D02*
X117515000Y-76220000D01*
X112355000Y-76180000D02*
X117515000Y-76180000D01*
X112356000Y-76140000D02*
X117514000Y-76140000D01*
X112357000Y-76100000D02*
X117513000Y-76100000D01*
X112359000Y-76060000D02*
X117511000Y-76060000D01*
X112362000Y-76020000D02*
X117508000Y-76020000D01*
X112366000Y-75980000D02*
X113895000Y-75980000D01*
X115975000Y-75980000D02*
X117504000Y-75980000D01*
X112370000Y-75940000D02*
X113895000Y-75940000D01*
X115975000Y-75940000D02*
X117500000Y-75940000D01*
X112374000Y-75900000D02*
X113895000Y-75900000D01*
X115975000Y-75900000D02*
X117496000Y-75900000D01*
X112379000Y-75860000D02*
X113895000Y-75860000D01*
X115975000Y-75860000D02*
X117491000Y-75860000D01*
X112385000Y-75820000D02*
X113895000Y-75820000D01*
X115975000Y-75820000D02*
X117485000Y-75820000D01*
X112392000Y-75780000D02*
X113895000Y-75780000D01*
X115975000Y-75780000D02*
X117478000Y-75780000D01*
X112399000Y-75740000D02*
X113895000Y-75740000D01*
X115975000Y-75740000D02*
X117471000Y-75740000D01*
X112407000Y-75700000D02*
X113895000Y-75700000D01*
X115975000Y-75700000D02*
X117463000Y-75700000D01*
X112415000Y-75660000D02*
X113895000Y-75660000D01*
X115975000Y-75660000D02*
X117455000Y-75660000D01*
X112424000Y-75620000D02*
X113895000Y-75620000D01*
X115975000Y-75620000D02*
X117446000Y-75620000D01*
X112434000Y-75580000D02*
X113895000Y-75580000D01*
X115975000Y-75580000D02*
X117436000Y-75580000D01*
X112444000Y-75540000D02*
X113895000Y-75540000D01*
X115975000Y-75540000D02*
X117426000Y-75540000D01*
X112455000Y-75499000D02*
X113895000Y-75499000D01*
X115975000Y-75499000D02*
X117415000Y-75499000D01*
X112467000Y-75459000D02*
X113895000Y-75459000D01*
X115975000Y-75459000D02*
X117403000Y-75459000D01*
X112480000Y-75419000D02*
X113895000Y-75419000D01*
X115975000Y-75419000D02*
X117390000Y-75419000D01*
X112493000Y-75379000D02*
X113895000Y-75379000D01*
X115975000Y-75379000D02*
X117377000Y-75379000D01*
X112507000Y-75339000D02*
X113895000Y-75339000D01*
X115975000Y-75339000D02*
X117363000Y-75339000D01*
X112521000Y-75299000D02*
X113895000Y-75299000D01*
X115975000Y-75299000D02*
X117349000Y-75299000D01*
X112537000Y-75259000D02*
X113895000Y-75259000D01*
X115975000Y-75259000D02*
X117333000Y-75259000D01*
X112553000Y-75219000D02*
X113895000Y-75219000D01*
X115975000Y-75219000D02*
X117317000Y-75219000D01*
X112570000Y-75179000D02*
X113895000Y-75179000D01*
X115975000Y-75179000D02*
X117300000Y-75179000D01*
X112587000Y-75139000D02*
X113895000Y-75139000D01*
X115975000Y-75139000D02*
X117283000Y-75139000D01*
X112606000Y-75099000D02*
X113895000Y-75099000D01*
X115975000Y-75099000D02*
X117264000Y-75099000D01*
X112625000Y-75059000D02*
X113895000Y-75059000D01*
X115975000Y-75059000D02*
X117245000Y-75059000D01*
X112645000Y-75019000D02*
X113895000Y-75019000D01*
X115975000Y-75019000D02*
X117225000Y-75019000D01*
X112667000Y-74979000D02*
X113895000Y-74979000D01*
X115975000Y-74979000D02*
X117203000Y-74979000D01*
X112688000Y-74939000D02*
X113895000Y-74939000D01*
X115975000Y-74939000D02*
X117182000Y-74939000D01*
X112711000Y-74899000D02*
X113895000Y-74899000D01*
X115975000Y-74899000D02*
X117159000Y-74899000D01*
X112735000Y-74859000D02*
X113895000Y-74859000D01*
X115975000Y-74859000D02*
X117135000Y-74859000D01*
X112760000Y-74819000D02*
X113895000Y-74819000D01*
X115975000Y-74819000D02*
X117110000Y-74819000D01*
X112786000Y-74779000D02*
X113895000Y-74779000D01*
X115975000Y-74779000D02*
X117084000Y-74779000D01*
X112813000Y-74739000D02*
X113895000Y-74739000D01*
X115975000Y-74739000D02*
X117057000Y-74739000D01*
X112840000Y-74699000D02*
X113895000Y-74699000D01*
X115975000Y-74699000D02*
X117030000Y-74699000D01*
X112870000Y-74659000D02*
X113895000Y-74659000D01*
X115975000Y-74659000D02*
X117000000Y-74659000D01*
X112900000Y-74619000D02*
X113895000Y-74619000D01*
X115975000Y-74619000D02*
X116970000Y-74619000D01*
X112931000Y-74579000D02*
X113895000Y-74579000D01*
X115975000Y-74579000D02*
X116939000Y-74579000D01*
X112964000Y-74539000D02*
X113895000Y-74539000D01*
X115975000Y-74539000D02*
X116906000Y-74539000D01*
X112998000Y-74499000D02*
X113895000Y-74499000D01*
X115975000Y-74499000D02*
X116872000Y-74499000D01*
X113034000Y-74459000D02*
X113895000Y-74459000D01*
X115975000Y-74459000D02*
X116836000Y-74459000D01*
X113071000Y-74419000D02*
X113895000Y-74419000D01*
X115975000Y-74419000D02*
X116799000Y-74419000D01*
X113109000Y-74379000D02*
X113895000Y-74379000D01*
X115975000Y-74379000D02*
X116761000Y-74379000D01*
X113150000Y-74339000D02*
X113895000Y-74339000D01*
X115975000Y-74339000D02*
X116720000Y-74339000D01*
X113192000Y-74299000D02*
X113895000Y-74299000D01*
X115975000Y-74299000D02*
X116678000Y-74299000D01*
X113236000Y-74259000D02*
X113895000Y-74259000D01*
X115975000Y-74259000D02*
X116634000Y-74259000D01*
X113282000Y-74219000D02*
X113895000Y-74219000D01*
X115975000Y-74219000D02*
X116588000Y-74219000D01*
X113330000Y-74179000D02*
X113895000Y-74179000D01*
X115975000Y-74179000D02*
X116540000Y-74179000D01*
X113381000Y-74139000D02*
X113895000Y-74139000D01*
X115975000Y-74139000D02*
X116489000Y-74139000D01*
X113435000Y-74099000D02*
X113895000Y-74099000D01*
X115975000Y-74099000D02*
X116435000Y-74099000D01*
X113492000Y-74059000D02*
X113895000Y-74059000D01*
X115975000Y-74059000D02*
X116378000Y-74059000D01*
X113552000Y-74019000D02*
X113895000Y-74019000D01*
X115975000Y-74019000D02*
X116318000Y-74019000D01*
X113616000Y-73979000D02*
X113895000Y-73979000D01*
X115975000Y-73979000D02*
X116254000Y-73979000D01*
X113684000Y-73939000D02*
X113895000Y-73939000D01*
X115975000Y-73939000D02*
X116186000Y-73939000D01*
X113757000Y-73899000D02*
X116113000Y-73899000D01*
X113837000Y-73859000D02*
X116033000Y-73859000D01*
X113924000Y-73819000D02*
X115946000Y-73819000D01*
X114020000Y-73779000D02*
X115850000Y-73779000D01*
X114130000Y-73739000D02*
X115740000Y-73739000D01*
X114258000Y-73699000D02*
X115612000Y-73699000D01*
X114417000Y-73659000D02*
X115453000Y-73659000D01*
X114651000Y-73619000D02*
X115219000Y-73619000D01*
X113460000Y-79024775D02*
X113460000Y-78524775D01*
X113210000Y-78774775D02*
X113710000Y-78774775D01*
X122705000Y-95115000D02*
X122705000Y-99155000D01*
X119865000Y-95115000D02*
X119865000Y-99155000D01*
X122705000Y-95115000D02*
X122080000Y-95115000D01*
X120490000Y-95115000D02*
X119865000Y-95115000D01*
X122705000Y-99155000D02*
X122080000Y-99155000D01*
X120490000Y-99155000D02*
X119865000Y-99155000D01*
X120800000Y-121785000D02*
X120800000Y-125825000D01*
X117960000Y-121785000D02*
X117960000Y-125825000D01*
X120800000Y-121785000D02*
X120175000Y-121785000D01*
X118585000Y-121785000D02*
X117960000Y-121785000D01*
X120800000Y-125825000D02*
X120175000Y-125825000D01*
X118585000Y-125825000D02*
X117960000Y-125825000D01*
X119855000Y-72485000D02*
X119230000Y-72485000D01*
X122070000Y-72485000D02*
X121445000Y-72485000D01*
X119855000Y-68445000D02*
X119230000Y-68445000D01*
X122070000Y-68445000D02*
X121445000Y-68445000D01*
X119230000Y-68445000D02*
X119230000Y-72485000D01*
X122070000Y-68445000D02*
X122070000Y-72485000D01*
X122070000Y-81780000D02*
X122070000Y-85820000D01*
X119230000Y-81780000D02*
X119230000Y-85820000D01*
X122070000Y-81780000D02*
X121445000Y-81780000D01*
X119855000Y-81780000D02*
X119230000Y-81780000D01*
X122070000Y-85820000D02*
X121445000Y-85820000D01*
X119855000Y-85820000D02*
X119230000Y-85820000D01*
X160115000Y-131605000D02*
X160115000Y-132230000D01*
X160115000Y-129390000D02*
X160115000Y-130015000D01*
X156075000Y-131605000D02*
X156075000Y-132230000D01*
X156075000Y-129390000D02*
X156075000Y-130015000D01*
X156075000Y-132230000D02*
X160115000Y-132230000D01*
X156075000Y-129390000D02*
X160115000Y-129390000D01*
X141665000Y-118805000D02*
X141665000Y-113605000D01*
X133985000Y-118805000D02*
X141665000Y-118805000D01*
X131385000Y-113605000D02*
X141665000Y-113605000D01*
X133985000Y-118805000D02*
X133985000Y-116205000D01*
X133985000Y-116205000D02*
X131385000Y-116205000D01*
X131385000Y-116205000D02*
X131385000Y-113605000D01*
X132715000Y-118805000D02*
X131385000Y-118805000D01*
X131385000Y-118805000D02*
X131385000Y-117475000D01*
X104715000Y-133410000D02*
X109915000Y-133410000D01*
X104715000Y-85090000D02*
X104715000Y-133410000D01*
X109915000Y-82490000D02*
X109915000Y-133410000D01*
X104715000Y-85090000D02*
X107315000Y-85090000D01*
X107315000Y-85090000D02*
X107315000Y-82490000D01*
X107315000Y-82490000D02*
X109915000Y-82490000D01*
X104715000Y-83820000D02*
X104715000Y-82490000D01*
X104715000Y-82490000D02*
X106045000Y-82490000D01*
X155785000Y-122435000D02*
X159905000Y-122435000D01*
X155785000Y-80375000D02*
X155785000Y-122435000D01*
X159905000Y-78315000D02*
X159905000Y-122435000D01*
X155785000Y-80375000D02*
X157845000Y-80375000D01*
X157845000Y-80375000D02*
X157845000Y-78315000D01*
X157845000Y-78315000D02*
X159905000Y-78315000D01*
X155785000Y-79375000D02*
X155785000Y-78315000D01*
X155785000Y-78315000D02*
X156845000Y-78315000D01*
X161385000Y-71220000D02*
X161385000Y-68480000D01*
X161385000Y-68480000D02*
X154845000Y-68480000D01*
X154845000Y-68480000D02*
X154845000Y-71220000D01*
X154845000Y-71220000D02*
X161385000Y-71220000D01*
X162155000Y-69850000D02*
X161385000Y-69850000D01*
X154075000Y-69850000D02*
X154845000Y-69850000D01*
X128735000Y-108455000D02*
X128735000Y-111255000D01*
X128735000Y-111255000D02*
X141775000Y-111255000D01*
X141775000Y-111255000D02*
X141775000Y-108455000D01*
X141775000Y-108455000D02*
X128735000Y-108455000D01*
X131445000Y-108455000D02*
X131445000Y-111255000D01*
X123765000Y-99330000D02*
G75*
G02X123765000Y-101330000I0J-1000000D01*
G01*
X123765000Y-101330000D02*
X123765000Y-102580000D01*
X123765000Y-102580000D02*
X141665000Y-102580000D01*
X141665000Y-102580000D02*
X141665000Y-98080000D01*
X141665000Y-98080000D02*
X123765000Y-98080000D01*
X123765000Y-98080000D02*
X123765000Y-99330000D01*
X123705000Y-105580000D02*
X141725000Y-105580000D01*
X141725000Y-105580000D02*
X141725000Y-95080000D01*
X141725000Y-95080000D02*
X123705000Y-95080000D01*
X123705000Y-95080000D02*
X123705000Y-105580000D01*
X121860000Y-126000000D02*
G75*
G02X121860000Y-128000000I0J-1000000D01*
G01*
X121860000Y-128000000D02*
X121860000Y-129250000D01*
X121860000Y-129250000D02*
X142300000Y-129250000D01*
X142300000Y-129250000D02*
X142300000Y-124750000D01*
X142300000Y-124750000D02*
X121860000Y-124750000D01*
X121860000Y-124750000D02*
X121860000Y-126000000D01*
X121800000Y-132250000D02*
X142360000Y-132250000D01*
X142360000Y-132250000D02*
X142360000Y-121750000D01*
X142360000Y-121750000D02*
X121800000Y-121750000D01*
X121800000Y-121750000D02*
X121800000Y-132250000D01*
X123485000Y-72440000D02*
G75*
G02X123485000Y-74440000I0J-1000000D01*
G01*
X123485000Y-74440000D02*
X123485000Y-75690000D01*
X123485000Y-75690000D02*
X149005000Y-75690000D01*
X149005000Y-75690000D02*
X149005000Y-71190000D01*
X149005000Y-71190000D02*
X123485000Y-71190000D01*
X123485000Y-71190000D02*
X123485000Y-72440000D01*
X123425000Y-78690000D02*
X149065000Y-78690000D01*
X149065000Y-78690000D02*
X149065000Y-68190000D01*
X149065000Y-68190000D02*
X123425000Y-68190000D01*
X123425000Y-68190000D02*
X123425000Y-78690000D01*
X123451000Y-81745000D02*
X123451000Y-92245000D01*
X149091000Y-81745000D02*
X123451000Y-81745000D01*
X149091000Y-92245000D02*
X149091000Y-81745000D01*
X123451000Y-92245000D02*
X149091000Y-92245000D01*
X123511000Y-84745000D02*
X123511000Y-85995000D01*
X149031000Y-84745000D02*
X123511000Y-84745000D01*
X149031000Y-89245000D02*
X149031000Y-84745000D01*
X123511000Y-89245000D02*
X149031000Y-89245000D01*
X123511000Y-87995000D02*
X123511000Y-89245000D01*
X123511000Y-85995000D02*
G75*
G02X123511000Y-87995000I0J-1000000D01*
G01*
D10*
X106981666Y-65702380D02*
X106981666Y-66416666D01*
X106934047Y-66559523D01*
X106838809Y-66654761D01*
X106695952Y-66702380D01*
X106600714Y-66702380D01*
X107410238Y-65797619D02*
X107457857Y-65750000D01*
X107553095Y-65702380D01*
X107791190Y-65702380D01*
X107886428Y-65750000D01*
X107934047Y-65797619D01*
X107981666Y-65892857D01*
X107981666Y-65988095D01*
X107934047Y-66130952D01*
X107362619Y-66702380D01*
X107981666Y-66702380D01*
X115292142Y-80176666D02*
X115339761Y-80224285D01*
X115387380Y-80367142D01*
X115387380Y-80462380D01*
X115339761Y-80605238D01*
X115244523Y-80700476D01*
X115149285Y-80748095D01*
X114958809Y-80795714D01*
X114815952Y-80795714D01*
X114625476Y-80748095D01*
X114530238Y-80700476D01*
X114435000Y-80605238D01*
X114387380Y-80462380D01*
X114387380Y-80367142D01*
X114435000Y-80224285D01*
X114482619Y-80176666D01*
X115387380Y-79224285D02*
X115387380Y-79795714D01*
X115387380Y-79510000D02*
X114387380Y-79510000D01*
X114530238Y-79605238D01*
X114625476Y-79700476D01*
X114673095Y-79795714D01*
X119102142Y-97301666D02*
X119149761Y-97349285D01*
X119197380Y-97492142D01*
X119197380Y-97587380D01*
X119149761Y-97730238D01*
X119054523Y-97825476D01*
X118959285Y-97873095D01*
X118768809Y-97920714D01*
X118625952Y-97920714D01*
X118435476Y-97873095D01*
X118340238Y-97825476D01*
X118245000Y-97730238D01*
X118197380Y-97587380D01*
X118197380Y-97492142D01*
X118245000Y-97349285D01*
X118292619Y-97301666D01*
X118292619Y-96920714D02*
X118245000Y-96873095D01*
X118197380Y-96777857D01*
X118197380Y-96539761D01*
X118245000Y-96444523D01*
X118292619Y-96396904D01*
X118387857Y-96349285D01*
X118483095Y-96349285D01*
X118625952Y-96396904D01*
X119197380Y-96968333D01*
X119197380Y-96349285D01*
X117197142Y-123991666D02*
X117244761Y-124039285D01*
X117292380Y-124182142D01*
X117292380Y-124277380D01*
X117244761Y-124420238D01*
X117149523Y-124515476D01*
X117054285Y-124563095D01*
X116863809Y-124610714D01*
X116720952Y-124610714D01*
X116530476Y-124563095D01*
X116435238Y-124515476D01*
X116340000Y-124420238D01*
X116292380Y-124277380D01*
X116292380Y-124182142D01*
X116340000Y-124039285D01*
X116387619Y-123991666D01*
X116292380Y-123658333D02*
X116292380Y-123039285D01*
X116673333Y-123372619D01*
X116673333Y-123229761D01*
X116720952Y-123134523D01*
X116768571Y-123086904D01*
X116863809Y-123039285D01*
X117101904Y-123039285D01*
X117197142Y-123086904D01*
X117244761Y-123134523D01*
X117292380Y-123229761D01*
X117292380Y-123515476D01*
X117244761Y-123610714D01*
X117197142Y-123658333D01*
X118467142Y-70631666D02*
X118514761Y-70679285D01*
X118562380Y-70822142D01*
X118562380Y-70917380D01*
X118514761Y-71060238D01*
X118419523Y-71155476D01*
X118324285Y-71203095D01*
X118133809Y-71250714D01*
X117990952Y-71250714D01*
X117800476Y-71203095D01*
X117705238Y-71155476D01*
X117610000Y-71060238D01*
X117562380Y-70917380D01*
X117562380Y-70822142D01*
X117610000Y-70679285D01*
X117657619Y-70631666D01*
X117895714Y-69774523D02*
X118562380Y-69774523D01*
X117514761Y-70012619D02*
X118229047Y-70250714D01*
X118229047Y-69631666D01*
X118467142Y-83966666D02*
X118514761Y-84014285D01*
X118562380Y-84157142D01*
X118562380Y-84252380D01*
X118514761Y-84395238D01*
X118419523Y-84490476D01*
X118324285Y-84538095D01*
X118133809Y-84585714D01*
X117990952Y-84585714D01*
X117800476Y-84538095D01*
X117705238Y-84490476D01*
X117610000Y-84395238D01*
X117562380Y-84252380D01*
X117562380Y-84157142D01*
X117610000Y-84014285D01*
X117657619Y-83966666D01*
X117562380Y-83061904D02*
X117562380Y-83538095D01*
X118038571Y-83585714D01*
X117990952Y-83538095D01*
X117943333Y-83442857D01*
X117943333Y-83204761D01*
X117990952Y-83109523D01*
X118038571Y-83061904D01*
X118133809Y-83014285D01*
X118371904Y-83014285D01*
X118467142Y-83061904D01*
X118514761Y-83109523D01*
X118562380Y-83204761D01*
X118562380Y-83442857D01*
X118514761Y-83538095D01*
X118467142Y-83585714D01*
X157948333Y-128627142D02*
X157900714Y-128674761D01*
X157757857Y-128722380D01*
X157662619Y-128722380D01*
X157519761Y-128674761D01*
X157424523Y-128579523D01*
X157376904Y-128484285D01*
X157329285Y-128293809D01*
X157329285Y-128150952D01*
X157376904Y-127960476D01*
X157424523Y-127865238D01*
X157519761Y-127770000D01*
X157662619Y-127722380D01*
X157757857Y-127722380D01*
X157900714Y-127770000D01*
X157948333Y-127817619D01*
X158805476Y-127722380D02*
X158615000Y-127722380D01*
X158519761Y-127770000D01*
X158472142Y-127817619D01*
X158376904Y-127960476D01*
X158329285Y-128150952D01*
X158329285Y-128531904D01*
X158376904Y-128627142D01*
X158424523Y-128674761D01*
X158519761Y-128722380D01*
X158710238Y-128722380D01*
X158805476Y-128674761D01*
X158853095Y-128627142D01*
X158900714Y-128531904D01*
X158900714Y-128293809D01*
X158853095Y-128198571D01*
X158805476Y-128150952D01*
X158710238Y-128103333D01*
X158519761Y-128103333D01*
X158424523Y-128150952D01*
X158376904Y-128198571D01*
X158329285Y-128293809D01*
X129837380Y-116538333D02*
X130551666Y-116538333D01*
X130694523Y-116585952D01*
X130789761Y-116681190D01*
X130837380Y-116824047D01*
X130837380Y-116919285D01*
X130837380Y-115538333D02*
X130837380Y-116109761D01*
X130837380Y-115824047D02*
X129837380Y-115824047D01*
X129980238Y-115919285D01*
X130075476Y-116014523D01*
X130123095Y-116109761D01*
X106981666Y-80942380D02*
X106981666Y-81656666D01*
X106934047Y-81799523D01*
X106838809Y-81894761D01*
X106695952Y-81942380D01*
X106600714Y-81942380D01*
X107362619Y-80942380D02*
X107981666Y-80942380D01*
X107648333Y-81323333D01*
X107791190Y-81323333D01*
X107886428Y-81370952D01*
X107934047Y-81418571D01*
X107981666Y-81513809D01*
X107981666Y-81751904D01*
X107934047Y-81847142D01*
X107886428Y-81894761D01*
X107791190Y-81942380D01*
X107505476Y-81942380D01*
X107410238Y-81894761D01*
X107362619Y-81847142D01*
X157511666Y-75652380D02*
X157511666Y-76366666D01*
X157464047Y-76509523D01*
X157368809Y-76604761D01*
X157225952Y-76652380D01*
X157130714Y-76652380D01*
X158416428Y-75985714D02*
X158416428Y-76652380D01*
X158178333Y-75604761D02*
X157940238Y-76319047D01*
X158559285Y-76319047D01*
X157948333Y-72672380D02*
X157615000Y-72196190D01*
X157376904Y-72672380D02*
X157376904Y-71672380D01*
X157757857Y-71672380D01*
X157853095Y-71720000D01*
X157900714Y-71767619D01*
X157948333Y-71862857D01*
X157948333Y-72005714D01*
X157900714Y-72100952D01*
X157853095Y-72148571D01*
X157757857Y-72196190D01*
X157376904Y-72196190D01*
X158805476Y-71672380D02*
X158615000Y-71672380D01*
X158519761Y-71720000D01*
X158472142Y-71767619D01*
X158376904Y-71910476D01*
X158329285Y-72100952D01*
X158329285Y-72481904D01*
X158376904Y-72577142D01*
X158424523Y-72624761D01*
X158519761Y-72672380D01*
X158710238Y-72672380D01*
X158805476Y-72624761D01*
X158853095Y-72577142D01*
X158900714Y-72481904D01*
X158900714Y-72243809D01*
X158853095Y-72148571D01*
X158805476Y-72100952D01*
X158710238Y-72053333D01*
X158519761Y-72053333D01*
X158424523Y-72100952D01*
X158376904Y-72148571D01*
X158329285Y-72243809D01*
X135834523Y-107907380D02*
X135501190Y-107431190D01*
X135263095Y-107907380D02*
X135263095Y-106907380D01*
X135644047Y-106907380D01*
X135739285Y-106955000D01*
X135786904Y-107002619D01*
X135834523Y-107097857D01*
X135834523Y-107240714D01*
X135786904Y-107335952D01*
X135739285Y-107383571D01*
X135644047Y-107431190D01*
X135263095Y-107431190D01*
X136263095Y-107907380D02*
X136263095Y-106907380D01*
X136834523Y-107907380D01*
X136834523Y-106907380D01*
X137834523Y-107907380D02*
X137263095Y-107907380D01*
X137548809Y-107907380D02*
X137548809Y-106907380D01*
X137453571Y-107050238D01*
X137358333Y-107145476D01*
X137263095Y-107193095D01*
X122007380Y-104901904D02*
X122816904Y-104901904D01*
X122912142Y-104854285D01*
X122959761Y-104806666D01*
X123007380Y-104711428D01*
X123007380Y-104520952D01*
X122959761Y-104425714D01*
X122912142Y-104378095D01*
X122816904Y-104330476D01*
X122007380Y-104330476D01*
X123007380Y-103330476D02*
X123007380Y-103901904D01*
X123007380Y-103616190D02*
X122007380Y-103616190D01*
X122150238Y-103711428D01*
X122245476Y-103806666D01*
X122293095Y-103901904D01*
X120102380Y-130936904D02*
X120911904Y-130936904D01*
X121007142Y-130889285D01*
X121054761Y-130841666D01*
X121102380Y-130746428D01*
X121102380Y-130555952D01*
X121054761Y-130460714D01*
X121007142Y-130413095D01*
X120911904Y-130365476D01*
X120102380Y-130365476D01*
X120197619Y-129936904D02*
X120150000Y-129889285D01*
X120102380Y-129794047D01*
X120102380Y-129555952D01*
X120150000Y-129460714D01*
X120197619Y-129413095D01*
X120292857Y-129365476D01*
X120388095Y-129365476D01*
X120530952Y-129413095D01*
X121102380Y-129984523D01*
X121102380Y-129365476D01*
X121372379Y-77596905D02*
X122181903Y-77596905D01*
X122277141Y-77549286D01*
X122324760Y-77501667D01*
X122372379Y-77406429D01*
X122372379Y-77215953D01*
X122324760Y-77120715D01*
X122277141Y-77073096D01*
X122181903Y-77025477D01*
X121372379Y-77025477D01*
X121372379Y-76644524D02*
X121372379Y-76025477D01*
X121753332Y-76358810D01*
X121753332Y-76215953D01*
X121800951Y-76120715D01*
X121848570Y-76073096D01*
X121943808Y-76025477D01*
X122181903Y-76025477D01*
X122277141Y-76073096D01*
X122324760Y-76120715D01*
X122372379Y-76215953D01*
X122372379Y-76501667D01*
X122324760Y-76596905D01*
X122277141Y-76644524D01*
X121372380Y-91566904D02*
X122181904Y-91566904D01*
X122277142Y-91519285D01*
X122324761Y-91471666D01*
X122372380Y-91376428D01*
X122372380Y-91185952D01*
X122324761Y-91090714D01*
X122277142Y-91043095D01*
X122181904Y-90995476D01*
X121372380Y-90995476D01*
X121705714Y-90090714D02*
X122372380Y-90090714D01*
X121324761Y-90328809D02*
X122039047Y-90566904D01*
X122039047Y-89947857D01*
M02*
