%TF.GenerationSoftware,KiCad,Pcbnew,(6.0.4)*%
%TF.CreationDate,2022-06-06T18:53:01+03:00*%
%TF.ProjectId,PSU2_frontal,50535532-5f66-4726-9f6e-74616c2e6b69,rev?*%
%TF.SameCoordinates,Original*%
%TF.FileFunction,Legend,Top*%
%TF.FilePolarity,Positive*%
%FSLAX46Y46*%
G04 Gerber Fmt 4.6, Leading zero omitted, Abs format (unit mm)*
G04 Created by KiCad (PCBNEW (6.0.4)) date 2022-06-06 18:53:01*
%MOMM*%
%LPD*%
G01*
G04 APERTURE LIST*
%ADD10C,0.330200*%
%ADD11C,0.150000*%
%ADD12C,0.787400*%
%ADD13C,0.120000*%
G04 APERTURE END LIST*
D10*
X120652419Y-91412725D02*
X120652419Y-91016001D01*
X120751600Y-90817639D01*
X120949961Y-90619277D01*
X121346685Y-90520096D01*
X122040952Y-90520096D01*
X122437676Y-90619277D01*
X122636038Y-90817639D01*
X122735219Y-91016001D01*
X122735219Y-91412725D01*
X122636038Y-91611087D01*
X122437676Y-91809449D01*
X122040952Y-91908630D01*
X121346685Y-91908630D01*
X120949961Y-91809449D01*
X120751600Y-91611087D01*
X120652419Y-91412725D01*
X121346685Y-89627468D02*
X122735219Y-89627468D01*
X121545047Y-89627468D02*
X121445866Y-89528287D01*
X121346685Y-89329925D01*
X121346685Y-89032382D01*
X121445866Y-88834020D01*
X121644228Y-88734839D01*
X122735219Y-88734839D01*
X120553238Y-86255315D02*
X123231123Y-88040572D01*
X120652419Y-85164325D02*
X120652419Y-84767601D01*
X120751600Y-84569239D01*
X120949961Y-84370877D01*
X121346685Y-84271696D01*
X122040952Y-84271696D01*
X122437676Y-84370877D01*
X122636038Y-84569239D01*
X122735219Y-84767601D01*
X122735219Y-85164325D01*
X122636038Y-85362687D01*
X122437676Y-85561049D01*
X122040952Y-85660230D01*
X121346685Y-85660230D01*
X120949961Y-85561049D01*
X120751600Y-85362687D01*
X120652419Y-85164325D01*
X121346685Y-83676610D02*
X121346685Y-82883163D01*
X122735219Y-83379068D02*
X120949961Y-83379068D01*
X120751600Y-83279887D01*
X120652419Y-83081525D01*
X120652419Y-82883163D01*
X121346685Y-82486439D02*
X121346685Y-81692991D01*
X122735219Y-82188896D02*
X120949961Y-82188896D01*
X120751600Y-82089715D01*
X120652419Y-81891353D01*
X120652419Y-81692991D01*
X117138208Y-72011419D02*
X116146398Y-72011419D01*
X116047217Y-73003228D01*
X116146398Y-72904047D01*
X116344760Y-72804866D01*
X116840665Y-72804866D01*
X117039027Y-72904047D01*
X117138208Y-73003228D01*
X117237389Y-73201590D01*
X117237389Y-73697495D01*
X117138208Y-73895857D01*
X117039027Y-73995038D01*
X116840665Y-74094219D01*
X116344760Y-74094219D01*
X116146398Y-73995038D01*
X116047217Y-73895857D01*
X117832474Y-72011419D02*
X118526741Y-74094219D01*
X119221008Y-72011419D01*
D11*
X110085619Y-61834380D02*
X110085619Y-60834380D01*
X110323714Y-60834380D01*
X110466571Y-60882000D01*
X110561809Y-60977238D01*
X110609428Y-61072476D01*
X110657047Y-61262952D01*
X110657047Y-61405809D01*
X110609428Y-61596285D01*
X110561809Y-61691523D01*
X110466571Y-61786761D01*
X110323714Y-61834380D01*
X110085619Y-61834380D01*
X111466571Y-61786761D02*
X111371333Y-61834380D01*
X111180857Y-61834380D01*
X111085619Y-61786761D01*
X111038000Y-61691523D01*
X111038000Y-61310571D01*
X111085619Y-61215333D01*
X111180857Y-61167714D01*
X111371333Y-61167714D01*
X111466571Y-61215333D01*
X111514190Y-61310571D01*
X111514190Y-61405809D01*
X111038000Y-61501047D01*
X111895142Y-61786761D02*
X111990380Y-61834380D01*
X112180857Y-61834380D01*
X112276095Y-61786761D01*
X112323714Y-61691523D01*
X112323714Y-61643904D01*
X112276095Y-61548666D01*
X112180857Y-61501047D01*
X112038000Y-61501047D01*
X111942761Y-61453428D01*
X111895142Y-61358190D01*
X111895142Y-61310571D01*
X111942761Y-61215333D01*
X112038000Y-61167714D01*
X112180857Y-61167714D01*
X112276095Y-61215333D01*
X112752285Y-61834380D02*
X112752285Y-61167714D01*
X112752285Y-60834380D02*
X112704666Y-60882000D01*
X112752285Y-60929619D01*
X112799904Y-60882000D01*
X112752285Y-60834380D01*
X112752285Y-60929619D01*
X113657047Y-61167714D02*
X113657047Y-61977238D01*
X113609428Y-62072476D01*
X113561809Y-62120095D01*
X113466571Y-62167714D01*
X113323714Y-62167714D01*
X113228476Y-62120095D01*
X113657047Y-61786761D02*
X113561809Y-61834380D01*
X113371333Y-61834380D01*
X113276095Y-61786761D01*
X113228476Y-61739142D01*
X113180857Y-61643904D01*
X113180857Y-61358190D01*
X113228476Y-61262952D01*
X113276095Y-61215333D01*
X113371333Y-61167714D01*
X113561809Y-61167714D01*
X113657047Y-61215333D01*
X114133238Y-61167714D02*
X114133238Y-61834380D01*
X114133238Y-61262952D02*
X114180857Y-61215333D01*
X114276095Y-61167714D01*
X114418952Y-61167714D01*
X114514190Y-61215333D01*
X114561809Y-61310571D01*
X114561809Y-61834380D01*
X115799904Y-61834380D02*
X115799904Y-60834380D01*
X115799904Y-61215333D02*
X115895142Y-61167714D01*
X116085619Y-61167714D01*
X116180857Y-61215333D01*
X116228476Y-61262952D01*
X116276095Y-61358190D01*
X116276095Y-61643904D01*
X116228476Y-61739142D01*
X116180857Y-61786761D01*
X116085619Y-61834380D01*
X115895142Y-61834380D01*
X115799904Y-61786761D01*
X116609428Y-61167714D02*
X116847523Y-61834380D01*
X117085619Y-61167714D02*
X116847523Y-61834380D01*
X116752285Y-62072476D01*
X116704666Y-62120095D01*
X116609428Y-62167714D01*
X110538000Y-63444380D02*
X110538000Y-62444380D01*
X111109428Y-63444380D02*
X110680857Y-62872952D01*
X111109428Y-62444380D02*
X110538000Y-63015809D01*
X111966571Y-63444380D02*
X111966571Y-62920571D01*
X111918952Y-62825333D01*
X111823714Y-62777714D01*
X111633238Y-62777714D01*
X111538000Y-62825333D01*
X111966571Y-63396761D02*
X111871333Y-63444380D01*
X111633238Y-63444380D01*
X111538000Y-63396761D01*
X111490380Y-63301523D01*
X111490380Y-63206285D01*
X111538000Y-63111047D01*
X111633238Y-63063428D01*
X111871333Y-63063428D01*
X111966571Y-63015809D01*
X112585619Y-63444380D02*
X112490380Y-63396761D01*
X112442761Y-63301523D01*
X112442761Y-62444380D01*
X112823714Y-62777714D02*
X113204666Y-62777714D01*
X112966571Y-62444380D02*
X112966571Y-63301523D01*
X113014190Y-63396761D01*
X113109428Y-63444380D01*
X113204666Y-63444380D01*
X113966571Y-63396761D02*
X113871333Y-63444380D01*
X113680857Y-63444380D01*
X113585619Y-63396761D01*
X113538000Y-63349142D01*
X113490380Y-63253904D01*
X113490380Y-62968190D01*
X113538000Y-62872952D01*
X113585619Y-62825333D01*
X113680857Y-62777714D01*
X113871333Y-62777714D01*
X113966571Y-62825333D01*
X114395142Y-63444380D02*
X114395142Y-62444380D01*
X114823714Y-63444380D02*
X114823714Y-62920571D01*
X114776095Y-62825333D01*
X114680857Y-62777714D01*
X114538000Y-62777714D01*
X114442761Y-62825333D01*
X114395142Y-62872952D01*
X115728476Y-62777714D02*
X115728476Y-63444380D01*
X115299904Y-62777714D02*
X115299904Y-63301523D01*
X115347523Y-63396761D01*
X115442761Y-63444380D01*
X115585619Y-63444380D01*
X115680857Y-63396761D01*
X115728476Y-63349142D01*
X116204666Y-63444380D02*
X116204666Y-62444380D01*
X116299904Y-63063428D02*
X116585619Y-63444380D01*
X116585619Y-62777714D02*
X116204666Y-63158666D01*
X111823714Y-64149619D02*
X111871333Y-64102000D01*
X111966571Y-64054380D01*
X112204666Y-64054380D01*
X112299904Y-64102000D01*
X112347523Y-64149619D01*
X112395142Y-64244857D01*
X112395142Y-64340095D01*
X112347523Y-64482952D01*
X111776095Y-65054380D01*
X112395142Y-65054380D01*
X113014190Y-64054380D02*
X113109428Y-64054380D01*
X113204666Y-64102000D01*
X113252285Y-64149619D01*
X113299904Y-64244857D01*
X113347523Y-64435333D01*
X113347523Y-64673428D01*
X113299904Y-64863904D01*
X113252285Y-64959142D01*
X113204666Y-65006761D01*
X113109428Y-65054380D01*
X113014190Y-65054380D01*
X112918952Y-65006761D01*
X112871333Y-64959142D01*
X112823714Y-64863904D01*
X112776095Y-64673428D01*
X112776095Y-64435333D01*
X112823714Y-64244857D01*
X112871333Y-64149619D01*
X112918952Y-64102000D01*
X113014190Y-64054380D01*
X113728476Y-64149619D02*
X113776095Y-64102000D01*
X113871333Y-64054380D01*
X114109428Y-64054380D01*
X114204666Y-64102000D01*
X114252285Y-64149619D01*
X114299904Y-64244857D01*
X114299904Y-64340095D01*
X114252285Y-64482952D01*
X113680857Y-65054380D01*
X114299904Y-65054380D01*
X114680857Y-64149619D02*
X114728476Y-64102000D01*
X114823714Y-64054380D01*
X115061809Y-64054380D01*
X115157047Y-64102000D01*
X115204666Y-64149619D01*
X115252285Y-64244857D01*
X115252285Y-64340095D01*
X115204666Y-64482952D01*
X114633238Y-65054380D01*
X115252285Y-65054380D01*
D10*
X113099608Y-76456419D02*
X114388960Y-76456419D01*
X113694693Y-77249866D01*
X113992236Y-77249866D01*
X114190598Y-77349047D01*
X114289779Y-77448228D01*
X114388960Y-77646590D01*
X114388960Y-78142495D01*
X114289779Y-78340857D01*
X114190598Y-78440038D01*
X113992236Y-78539219D01*
X113397150Y-78539219D01*
X113198789Y-78440038D01*
X113099608Y-78340857D01*
X115281589Y-78340857D02*
X115380770Y-78440038D01*
X115281589Y-78539219D01*
X115182408Y-78440038D01*
X115281589Y-78340857D01*
X115281589Y-78539219D01*
X116075036Y-76456419D02*
X117364389Y-76456419D01*
X116670122Y-77249866D01*
X116967665Y-77249866D01*
X117166027Y-77349047D01*
X117265208Y-77448228D01*
X117364389Y-77646590D01*
X117364389Y-78142495D01*
X117265208Y-78340857D01*
X117166027Y-78440038D01*
X116967665Y-78539219D01*
X116372579Y-78539219D01*
X116174217Y-78440038D01*
X116075036Y-78340857D01*
X117959474Y-76456419D02*
X118653741Y-78539219D01*
X119348008Y-76456419D01*
X130863219Y-98583991D02*
X130863219Y-99575801D01*
X128780419Y-99575801D01*
D11*
X128865380Y-89612214D02*
X128865380Y-90088404D01*
X129341571Y-90136023D01*
X129293952Y-90088404D01*
X129246333Y-89993166D01*
X129246333Y-89755071D01*
X129293952Y-89659833D01*
X129341571Y-89612214D01*
X129436809Y-89564595D01*
X129674904Y-89564595D01*
X129770142Y-89612214D01*
X129817761Y-89659833D01*
X129865380Y-89755071D01*
X129865380Y-89993166D01*
X129817761Y-90088404D01*
X129770142Y-90136023D01*
X128865380Y-89278880D02*
X129865380Y-88945547D01*
X128865380Y-88612214D01*
X129865380Y-87516976D02*
X129198714Y-87516976D01*
X129389190Y-87516976D02*
X129293952Y-87469357D01*
X129246333Y-87421738D01*
X129198714Y-87326500D01*
X129198714Y-87231261D01*
X129817761Y-86516976D02*
X129865380Y-86612214D01*
X129865380Y-86802690D01*
X129817761Y-86897928D01*
X129722523Y-86945547D01*
X129341571Y-86945547D01*
X129246333Y-86897928D01*
X129198714Y-86802690D01*
X129198714Y-86612214D01*
X129246333Y-86516976D01*
X129341571Y-86469357D01*
X129436809Y-86469357D01*
X129532047Y-86945547D01*
X129865380Y-85897928D02*
X129817761Y-85993166D01*
X129722523Y-86040785D01*
X128865380Y-86040785D01*
X129865380Y-85088404D02*
X129341571Y-85088404D01*
X129246333Y-85136023D01*
X129198714Y-85231261D01*
X129198714Y-85421738D01*
X129246333Y-85516976D01*
X129817761Y-85088404D02*
X129865380Y-85183642D01*
X129865380Y-85421738D01*
X129817761Y-85516976D01*
X129722523Y-85564595D01*
X129627285Y-85564595D01*
X129532047Y-85516976D01*
X129484428Y-85421738D01*
X129484428Y-85183642D01*
X129436809Y-85088404D01*
X129198714Y-84707452D02*
X129865380Y-84469357D01*
X129198714Y-84231261D02*
X129865380Y-84469357D01*
X130103476Y-84564595D01*
X130151095Y-84612214D01*
X130198714Y-84707452D01*
X115641380Y-108917904D02*
X115641380Y-109489333D01*
X115641380Y-109203619D02*
X114641380Y-109203619D01*
X114784238Y-109298857D01*
X114879476Y-109394095D01*
X114927095Y-109489333D01*
X114641380Y-108298857D02*
X114641380Y-108203619D01*
X114689000Y-108108380D01*
X114736619Y-108060761D01*
X114831857Y-108013142D01*
X115022333Y-107965523D01*
X115260428Y-107965523D01*
X115450904Y-108013142D01*
X115546142Y-108060761D01*
X115593761Y-108108380D01*
X115641380Y-108203619D01*
X115641380Y-108298857D01*
X115593761Y-108394095D01*
X115546142Y-108441714D01*
X115450904Y-108489333D01*
X115260428Y-108536952D01*
X115022333Y-108536952D01*
X114831857Y-108489333D01*
X114736619Y-108441714D01*
X114689000Y-108394095D01*
X114641380Y-108298857D01*
X114641380Y-107346476D02*
X114641380Y-107251238D01*
X114689000Y-107156000D01*
X114736619Y-107108380D01*
X114831857Y-107060761D01*
X115022333Y-107013142D01*
X115260428Y-107013142D01*
X115450904Y-107060761D01*
X115546142Y-107108380D01*
X115593761Y-107156000D01*
X115641380Y-107251238D01*
X115641380Y-107346476D01*
X115593761Y-107441714D01*
X115546142Y-107489333D01*
X115450904Y-107536952D01*
X115260428Y-107584571D01*
X115022333Y-107584571D01*
X114831857Y-107536952D01*
X114736619Y-107489333D01*
X114689000Y-107441714D01*
X114641380Y-107346476D01*
X115260428Y-106727428D02*
X115212809Y-106679809D01*
X115165190Y-106584571D01*
X115260428Y-106394095D01*
X115212809Y-106298857D01*
X115165190Y-106251238D01*
X114736619Y-105917904D02*
X114689000Y-105870285D01*
X114641380Y-105775047D01*
X114641380Y-105536952D01*
X114689000Y-105441714D01*
X114736619Y-105394095D01*
X114831857Y-105346476D01*
X114927095Y-105346476D01*
X115069952Y-105394095D01*
X115641380Y-105965523D01*
X115641380Y-105346476D01*
X114641380Y-104489333D02*
X114641380Y-104679809D01*
X114689000Y-104775047D01*
X114736619Y-104822666D01*
X114879476Y-104917904D01*
X115069952Y-104965523D01*
X115450904Y-104965523D01*
X115546142Y-104917904D01*
X115593761Y-104870285D01*
X115641380Y-104775047D01*
X115641380Y-104584571D01*
X115593761Y-104489333D01*
X115546142Y-104441714D01*
X115450904Y-104394095D01*
X115212809Y-104394095D01*
X115117571Y-104441714D01*
X115069952Y-104489333D01*
X115022333Y-104584571D01*
X115022333Y-104775047D01*
X115069952Y-104870285D01*
X115117571Y-104917904D01*
X115212809Y-104965523D01*
X114641380Y-103489333D02*
X114641380Y-103965523D01*
X115117571Y-104013142D01*
X115069952Y-103965523D01*
X115022333Y-103870285D01*
X115022333Y-103632190D01*
X115069952Y-103536952D01*
X115117571Y-103489333D01*
X115212809Y-103441714D01*
X115450904Y-103441714D01*
X115546142Y-103489333D01*
X115593761Y-103536952D01*
X115641380Y-103632190D01*
X115641380Y-103870285D01*
X115593761Y-103965523D01*
X115546142Y-104013142D01*
X114641380Y-103156000D02*
X115641380Y-102822666D01*
X114641380Y-102489333D01*
X115641380Y-101727428D02*
X115117571Y-101727428D01*
X115022333Y-101775047D01*
X114974714Y-101870285D01*
X114974714Y-102060761D01*
X115022333Y-102156000D01*
X115593761Y-101727428D02*
X115641380Y-101822666D01*
X115641380Y-102060761D01*
X115593761Y-102156000D01*
X115498523Y-102203619D01*
X115403285Y-102203619D01*
X115308047Y-102156000D01*
X115260428Y-102060761D01*
X115260428Y-101822666D01*
X115212809Y-101727428D01*
X115593761Y-100822666D02*
X115641380Y-100917904D01*
X115641380Y-101108380D01*
X115593761Y-101203619D01*
X115546142Y-101251238D01*
X115450904Y-101298857D01*
X115165190Y-101298857D01*
X115069952Y-101251238D01*
X115022333Y-101203619D01*
X114974714Y-101108380D01*
X114974714Y-100917904D01*
X115022333Y-100822666D01*
D10*
X113591219Y-108946647D02*
X111508419Y-108946647D01*
X112996133Y-108252380D01*
X111508419Y-107558114D01*
X113591219Y-107558114D01*
X113591219Y-105673676D02*
X112500228Y-105673676D01*
X112301866Y-105772857D01*
X112202685Y-105971219D01*
X112202685Y-106367942D01*
X112301866Y-106566304D01*
X113492038Y-105673676D02*
X113591219Y-105872038D01*
X113591219Y-106367942D01*
X113492038Y-106566304D01*
X113293676Y-106665485D01*
X113095314Y-106665485D01*
X112896952Y-106566304D01*
X112797771Y-106367942D01*
X112797771Y-105872038D01*
X112698590Y-105673676D01*
X113591219Y-104681866D02*
X112202685Y-104681866D01*
X111508419Y-104681866D02*
X111607600Y-104781047D01*
X111706780Y-104681866D01*
X111607600Y-104582685D01*
X111508419Y-104681866D01*
X111706780Y-104681866D01*
X112202685Y-103690057D02*
X113591219Y-103690057D01*
X112401047Y-103690057D02*
X112301866Y-103590876D01*
X112202685Y-103392514D01*
X112202685Y-103094971D01*
X112301866Y-102896609D01*
X112500228Y-102797428D01*
X113591219Y-102797428D01*
X113492038Y-101904800D02*
X113591219Y-101706438D01*
X113591219Y-101309714D01*
X113492038Y-101111352D01*
X113293676Y-101012171D01*
X113194495Y-101012171D01*
X112996133Y-101111352D01*
X112896952Y-101309714D01*
X112896952Y-101607257D01*
X112797771Y-101805619D01*
X112599409Y-101904800D01*
X112500228Y-101904800D01*
X112301866Y-101805619D01*
X112202685Y-101607257D01*
X112202685Y-101309714D01*
X112301866Y-101111352D01*
D12*
X113284000Y-59690000D02*
X113284000Y-54356000D01*
X115316000Y-54356000D01*
X115824000Y-54610000D01*
X116078000Y-54864000D01*
X116332000Y-55372000D01*
X116332000Y-56134000D01*
X116078000Y-56642000D01*
X115824000Y-56896000D01*
X115316000Y-57150000D01*
X113284000Y-57150000D01*
X118364000Y-59436000D02*
X119126000Y-59690000D01*
X120396000Y-59690000D01*
X120904000Y-59436000D01*
X121158000Y-59182000D01*
X121412000Y-58674000D01*
X121412000Y-58166000D01*
X121158000Y-57658000D01*
X120904000Y-57404000D01*
X120396000Y-57150000D01*
X119380000Y-56896000D01*
X118872000Y-56642000D01*
X118618000Y-56388000D01*
X118364000Y-55880000D01*
X118364000Y-55372000D01*
X118618000Y-54864000D01*
X118872000Y-54610000D01*
X119380000Y-54356000D01*
X120650000Y-54356000D01*
X121412000Y-54610000D01*
X123698000Y-54356000D02*
X123698000Y-58674000D01*
X123952000Y-59182000D01*
X124206000Y-59436000D01*
X124714000Y-59690000D01*
X125730000Y-59690000D01*
X126238000Y-59436000D01*
X126492000Y-59182000D01*
X126746000Y-58674000D01*
X126746000Y-54356000D01*
D10*
X130990219Y-111247706D02*
X128907419Y-111247706D01*
X130990219Y-110057534D01*
X128907419Y-110057534D01*
X110414465Y-81587219D02*
X110414465Y-79504419D01*
X115253770Y-69649219D02*
X114063598Y-69649219D01*
X114658684Y-69649219D02*
X114658684Y-67566419D01*
X114460322Y-67863961D01*
X114261960Y-68062323D01*
X114063598Y-68161504D01*
X116047217Y-67764780D02*
X116146398Y-67665600D01*
X116344760Y-67566419D01*
X116840665Y-67566419D01*
X117039027Y-67665600D01*
X117138208Y-67764780D01*
X117237389Y-67963142D01*
X117237389Y-68161504D01*
X117138208Y-68459047D01*
X115948036Y-69649219D01*
X117237389Y-69649219D01*
X117832474Y-67566419D02*
X118526741Y-69649219D01*
X119221008Y-67566419D01*
X110256017Y-91315419D02*
X110652741Y-91315419D01*
X110851103Y-91414600D01*
X111049465Y-91612961D01*
X111148646Y-92009685D01*
X111148646Y-92703952D01*
X111049465Y-93100676D01*
X110851103Y-93299038D01*
X110652741Y-93398219D01*
X110256017Y-93398219D01*
X110057655Y-93299038D01*
X109859293Y-93100676D01*
X109760112Y-92703952D01*
X109760112Y-92009685D01*
X109859293Y-91612961D01*
X110057655Y-91414600D01*
X110256017Y-91315419D01*
D13*
%TO.C,J10*%
X121225000Y-69977000D02*
X123885000Y-69977000D01*
X121225000Y-69977000D02*
X121225000Y-70037000D01*
X121225000Y-70037000D02*
X123885000Y-70037000D01*
X121225000Y-68707000D02*
X121225000Y-67377000D01*
X121225000Y-67377000D02*
X122555000Y-67377000D01*
X123885000Y-69977000D02*
X123885000Y-70037000D01*
%TO.C,J17*%
X123885000Y-74422000D02*
X123885000Y-74482000D01*
X121225000Y-74422000D02*
X121225000Y-74482000D01*
X121225000Y-71822000D02*
X122555000Y-71822000D01*
X121225000Y-73152000D02*
X121225000Y-71822000D01*
X121225000Y-74482000D02*
X123885000Y-74482000D01*
X121225000Y-74422000D02*
X123885000Y-74422000D01*
X121225000Y-77597000D02*
X121225000Y-76267000D01*
X121225000Y-78927000D02*
X123885000Y-78927000D01*
X121225000Y-78867000D02*
X121225000Y-78927000D01*
X121225000Y-76267000D02*
X122555000Y-76267000D01*
X121225000Y-78867000D02*
X123885000Y-78867000D01*
X123885000Y-78867000D02*
X123885000Y-78927000D01*
%TO.C,J9*%
X114240000Y-85157000D02*
X115570000Y-85157000D01*
X114240000Y-86487000D02*
X114240000Y-85157000D01*
X116900000Y-87757000D02*
X116900000Y-87817000D01*
X114240000Y-87757000D02*
X114240000Y-87817000D01*
X114240000Y-87817000D02*
X116900000Y-87817000D01*
X114240000Y-87757000D02*
X116900000Y-87757000D01*
%TO.C,J1*%
X123885000Y-64262000D02*
X123885000Y-64322000D01*
X121225000Y-62992000D02*
X121225000Y-61662000D01*
X121225000Y-64322000D02*
X123885000Y-64322000D01*
X121225000Y-64262000D02*
X121225000Y-64322000D01*
X121225000Y-64262000D02*
X123885000Y-64262000D01*
X121225000Y-61662000D02*
X122555000Y-61662000D01*
%TO.C,J2*%
X123885000Y-123952000D02*
X123885000Y-124012000D01*
X121225000Y-122682000D02*
X121225000Y-121352000D01*
X121225000Y-123952000D02*
X123885000Y-123952000D01*
X121225000Y-124012000D02*
X123885000Y-124012000D01*
X121225000Y-121352000D02*
X122555000Y-121352000D01*
X121225000Y-123952000D02*
X121225000Y-124012000D01*
%TD*%
M02*
