%TF.GenerationSoftware,KiCad,Pcbnew,(6.0.4)*%
%TF.CreationDate,2022-06-04T07:14:15+03:00*%
%TF.ProjectId,TopBottomLateral,546f7042-6f74-4746-9f6d-4c6174657261,rev?*%
%TF.SameCoordinates,Original*%
%TF.FileFunction,Legend,Bot*%
%TF.FilePolarity,Positive*%
%FSLAX46Y46*%
G04 Gerber Fmt 4.6, Leading zero omitted, Abs format (unit mm)*
G04 Created by KiCad (PCBNEW (6.0.4)) date 2022-06-04 07:14:15*
%MOMM*%
%LPD*%
G01*
G04 APERTURE LIST*
%ADD10C,0.304800*%
%ADD11C,0.150000*%
G04 APERTURE END LIST*
D10*
X93345000Y-58420000D02*
X93345000Y-125730000D01*
X66675000Y-58420000D02*
X66675000Y-125730000D01*
X120015000Y-58420000D02*
X120015000Y-125730000D01*
D11*
X119102142Y-88114523D02*
X119149761Y-88066904D01*
X119197380Y-87924047D01*
X119197380Y-87828809D01*
X119149761Y-87685952D01*
X119054523Y-87590714D01*
X118959285Y-87543095D01*
X118768809Y-87495476D01*
X118625952Y-87495476D01*
X118435476Y-87543095D01*
X118340238Y-87590714D01*
X118245000Y-87685952D01*
X118197380Y-87828809D01*
X118197380Y-87924047D01*
X118245000Y-88066904D01*
X118292619Y-88114523D01*
X119197380Y-88971666D02*
X118673571Y-88971666D01*
X118578333Y-88924047D01*
X118530714Y-88828809D01*
X118530714Y-88638333D01*
X118578333Y-88543095D01*
X119149761Y-88971666D02*
X119197380Y-88876428D01*
X119197380Y-88638333D01*
X119149761Y-88543095D01*
X119054523Y-88495476D01*
X118959285Y-88495476D01*
X118864047Y-88543095D01*
X118816428Y-88638333D01*
X118816428Y-88876428D01*
X118768809Y-88971666D01*
X119197380Y-89447857D02*
X118530714Y-89447857D01*
X118721190Y-89447857D02*
X118625952Y-89495476D01*
X118578333Y-89543095D01*
X118530714Y-89638333D01*
X118530714Y-89733571D01*
X119197380Y-90495476D02*
X118197380Y-90495476D01*
X119149761Y-90495476D02*
X119197380Y-90400238D01*
X119197380Y-90209761D01*
X119149761Y-90114523D01*
X119102142Y-90066904D01*
X119006904Y-90019285D01*
X118721190Y-90019285D01*
X118625952Y-90066904D01*
X118578333Y-90114523D01*
X118530714Y-90209761D01*
X118530714Y-90400238D01*
X118578333Y-90495476D01*
X119149761Y-91685952D02*
X119197380Y-91781190D01*
X119197380Y-91971666D01*
X119149761Y-92066904D01*
X119054523Y-92114523D01*
X119006904Y-92114523D01*
X118911666Y-92066904D01*
X118864047Y-91971666D01*
X118864047Y-91828809D01*
X118816428Y-91733571D01*
X118721190Y-91685952D01*
X118673571Y-91685952D01*
X118578333Y-91733571D01*
X118530714Y-91828809D01*
X118530714Y-91971666D01*
X118578333Y-92066904D01*
X119197380Y-92685952D02*
X119149761Y-92590714D01*
X119054523Y-92543095D01*
X118197380Y-92543095D01*
X119197380Y-93209761D02*
X119149761Y-93114523D01*
X119102142Y-93066904D01*
X119006904Y-93019285D01*
X118721190Y-93019285D01*
X118625952Y-93066904D01*
X118578333Y-93114523D01*
X118530714Y-93209761D01*
X118530714Y-93352619D01*
X118578333Y-93447857D01*
X118625952Y-93495476D01*
X118721190Y-93543095D01*
X119006904Y-93543095D01*
X119102142Y-93495476D01*
X119149761Y-93447857D01*
X119197380Y-93352619D01*
X119197380Y-93209761D01*
X118530714Y-93828809D02*
X118530714Y-94209761D01*
X118197380Y-93971666D02*
X119054523Y-93971666D01*
X119149761Y-94019285D01*
X119197380Y-94114523D01*
X119197380Y-94209761D01*
X65762142Y-88114523D02*
X65809761Y-88066904D01*
X65857380Y-87924047D01*
X65857380Y-87828809D01*
X65809761Y-87685952D01*
X65714523Y-87590714D01*
X65619285Y-87543095D01*
X65428809Y-87495476D01*
X65285952Y-87495476D01*
X65095476Y-87543095D01*
X65000238Y-87590714D01*
X64905000Y-87685952D01*
X64857380Y-87828809D01*
X64857380Y-87924047D01*
X64905000Y-88066904D01*
X64952619Y-88114523D01*
X65857380Y-88971666D02*
X65333571Y-88971666D01*
X65238333Y-88924047D01*
X65190714Y-88828809D01*
X65190714Y-88638333D01*
X65238333Y-88543095D01*
X65809761Y-88971666D02*
X65857380Y-88876428D01*
X65857380Y-88638333D01*
X65809761Y-88543095D01*
X65714523Y-88495476D01*
X65619285Y-88495476D01*
X65524047Y-88543095D01*
X65476428Y-88638333D01*
X65476428Y-88876428D01*
X65428809Y-88971666D01*
X65857380Y-89447857D02*
X65190714Y-89447857D01*
X65381190Y-89447857D02*
X65285952Y-89495476D01*
X65238333Y-89543095D01*
X65190714Y-89638333D01*
X65190714Y-89733571D01*
X65857380Y-90495476D02*
X64857380Y-90495476D01*
X65809761Y-90495476D02*
X65857380Y-90400238D01*
X65857380Y-90209761D01*
X65809761Y-90114523D01*
X65762142Y-90066904D01*
X65666904Y-90019285D01*
X65381190Y-90019285D01*
X65285952Y-90066904D01*
X65238333Y-90114523D01*
X65190714Y-90209761D01*
X65190714Y-90400238D01*
X65238333Y-90495476D01*
X65809761Y-91685952D02*
X65857380Y-91781190D01*
X65857380Y-91971666D01*
X65809761Y-92066904D01*
X65714523Y-92114523D01*
X65666904Y-92114523D01*
X65571666Y-92066904D01*
X65524047Y-91971666D01*
X65524047Y-91828809D01*
X65476428Y-91733571D01*
X65381190Y-91685952D01*
X65333571Y-91685952D01*
X65238333Y-91733571D01*
X65190714Y-91828809D01*
X65190714Y-91971666D01*
X65238333Y-92066904D01*
X65857380Y-92685952D02*
X65809761Y-92590714D01*
X65714523Y-92543095D01*
X64857380Y-92543095D01*
X65857380Y-93209761D02*
X65809761Y-93114523D01*
X65762142Y-93066904D01*
X65666904Y-93019285D01*
X65381190Y-93019285D01*
X65285952Y-93066904D01*
X65238333Y-93114523D01*
X65190714Y-93209761D01*
X65190714Y-93352619D01*
X65238333Y-93447857D01*
X65285952Y-93495476D01*
X65381190Y-93543095D01*
X65666904Y-93543095D01*
X65762142Y-93495476D01*
X65809761Y-93447857D01*
X65857380Y-93352619D01*
X65857380Y-93209761D01*
X65190714Y-93828809D02*
X65190714Y-94209761D01*
X64857380Y-93971666D02*
X65714523Y-93971666D01*
X65809761Y-94019285D01*
X65857380Y-94114523D01*
X65857380Y-94209761D01*
X92432142Y-88114523D02*
X92479761Y-88066904D01*
X92527380Y-87924047D01*
X92527380Y-87828809D01*
X92479761Y-87685952D01*
X92384523Y-87590714D01*
X92289285Y-87543095D01*
X92098809Y-87495476D01*
X91955952Y-87495476D01*
X91765476Y-87543095D01*
X91670238Y-87590714D01*
X91575000Y-87685952D01*
X91527380Y-87828809D01*
X91527380Y-87924047D01*
X91575000Y-88066904D01*
X91622619Y-88114523D01*
X92527380Y-88971666D02*
X92003571Y-88971666D01*
X91908333Y-88924047D01*
X91860714Y-88828809D01*
X91860714Y-88638333D01*
X91908333Y-88543095D01*
X92479761Y-88971666D02*
X92527380Y-88876428D01*
X92527380Y-88638333D01*
X92479761Y-88543095D01*
X92384523Y-88495476D01*
X92289285Y-88495476D01*
X92194047Y-88543095D01*
X92146428Y-88638333D01*
X92146428Y-88876428D01*
X92098809Y-88971666D01*
X92527380Y-89447857D02*
X91860714Y-89447857D01*
X92051190Y-89447857D02*
X91955952Y-89495476D01*
X91908333Y-89543095D01*
X91860714Y-89638333D01*
X91860714Y-89733571D01*
X92527380Y-90495476D02*
X91527380Y-90495476D01*
X92479761Y-90495476D02*
X92527380Y-90400238D01*
X92527380Y-90209761D01*
X92479761Y-90114523D01*
X92432142Y-90066904D01*
X92336904Y-90019285D01*
X92051190Y-90019285D01*
X91955952Y-90066904D01*
X91908333Y-90114523D01*
X91860714Y-90209761D01*
X91860714Y-90400238D01*
X91908333Y-90495476D01*
X92479761Y-91685952D02*
X92527380Y-91781190D01*
X92527380Y-91971666D01*
X92479761Y-92066904D01*
X92384523Y-92114523D01*
X92336904Y-92114523D01*
X92241666Y-92066904D01*
X92194047Y-91971666D01*
X92194047Y-91828809D01*
X92146428Y-91733571D01*
X92051190Y-91685952D01*
X92003571Y-91685952D01*
X91908333Y-91733571D01*
X91860714Y-91828809D01*
X91860714Y-91971666D01*
X91908333Y-92066904D01*
X92527380Y-92685952D02*
X92479761Y-92590714D01*
X92384523Y-92543095D01*
X91527380Y-92543095D01*
X92527380Y-93209761D02*
X92479761Y-93114523D01*
X92432142Y-93066904D01*
X92336904Y-93019285D01*
X92051190Y-93019285D01*
X91955952Y-93066904D01*
X91908333Y-93114523D01*
X91860714Y-93209761D01*
X91860714Y-93352619D01*
X91908333Y-93447857D01*
X91955952Y-93495476D01*
X92051190Y-93543095D01*
X92336904Y-93543095D01*
X92432142Y-93495476D01*
X92479761Y-93447857D01*
X92527380Y-93352619D01*
X92527380Y-93209761D01*
X91860714Y-93828809D02*
X91860714Y-94209761D01*
X91527380Y-93971666D02*
X92384523Y-93971666D01*
X92479761Y-94019285D01*
X92527380Y-94114523D01*
X92527380Y-94209761D01*
M02*
