G04 #@! TF.GenerationSoftware,KiCad,Pcbnew,(5.1.4)-1*
G04 #@! TF.CreationDate,2022-01-22T16:02:53+02:00*
G04 #@! TF.ProjectId,Protoboardv2,50726f74-6f62-46f6-9172-6476322e6b69,rev?*
G04 #@! TF.SameCoordinates,Original*
G04 #@! TF.FileFunction,Copper,L2,Bot*
G04 #@! TF.FilePolarity,Positive*
%FSLAX46Y46*%
G04 Gerber Fmt 4.6, Leading zero omitted, Abs format (unit mm)*
G04 Created by KiCad (PCBNEW (5.1.4)-1) date 2022-01-22 16:02:53*
%MOMM*%
%LPD*%
G04 APERTURE LIST*
%ADD10O,1.800000X2.500000*%
%ADD11O,1.700000X1.700000*%
%ADD12R,1.700000X1.700000*%
%ADD13C,5.000000*%
%ADD14C,0.500000*%
%ADD15C,0.250000*%
G04 APERTURE END LIST*
D10*
X103505000Y-76200000D03*
X100965000Y-76200000D03*
X98425000Y-76200000D03*
X103505000Y-83820000D03*
X100965000Y-83820000D03*
X98425000Y-83820000D03*
X103505000Y-91440000D03*
X100965000Y-91440000D03*
X98425000Y-91440000D03*
X103505000Y-99060000D03*
X100965000Y-99060000D03*
X98425000Y-99060000D03*
X103505000Y-106680000D03*
X100965000Y-106680000D03*
X98425000Y-106680000D03*
X100965000Y-137160000D03*
X103505000Y-137160000D03*
X98425000Y-137160000D03*
X100965000Y-129540000D03*
X103505000Y-129540000D03*
X98425000Y-129540000D03*
X103505000Y-121920000D03*
X100965000Y-121920000D03*
X98425000Y-121920000D03*
X98425000Y-114300000D03*
X100965000Y-114300000D03*
X103505000Y-114300000D03*
D11*
X90170000Y-137160000D03*
X90170000Y-134620000D03*
X90170000Y-132080000D03*
X90170000Y-129540000D03*
X90170000Y-127000000D03*
D12*
X90170000Y-124460000D03*
D11*
X81915000Y-137160000D03*
X81915000Y-134620000D03*
X81915000Y-132080000D03*
D12*
X81915000Y-129540000D03*
X74295000Y-90170000D03*
D11*
X76835000Y-90170000D03*
X74295000Y-92710000D03*
X76835000Y-92710000D03*
X74295000Y-95250000D03*
X76835000Y-95250000D03*
X74295000Y-97790000D03*
X76835000Y-97790000D03*
X74295000Y-100330000D03*
X76835000Y-100330000D03*
X74295000Y-102870000D03*
X76835000Y-102870000D03*
X74295000Y-105410000D03*
X76835000Y-105410000D03*
X74295000Y-107950000D03*
X76835000Y-107950000D03*
X74295000Y-110490000D03*
X76835000Y-110490000D03*
X74295000Y-113030000D03*
X76835000Y-113030000D03*
X74295000Y-115570000D03*
X76835000Y-115570000D03*
X74295000Y-118110000D03*
X76835000Y-118110000D03*
X74295000Y-120650000D03*
X76835000Y-120650000D03*
X74295000Y-123190000D03*
X76835000Y-123190000D03*
X74295000Y-125730000D03*
X76835000Y-125730000D03*
X74295000Y-128270000D03*
X76835000Y-128270000D03*
X74295000Y-130810000D03*
X76835000Y-130810000D03*
X74295000Y-133350000D03*
X76835000Y-133350000D03*
X74295000Y-135890000D03*
X76835000Y-135890000D03*
X74295000Y-138430000D03*
X76835000Y-138430000D03*
D12*
X90170000Y-107315000D03*
D11*
X90170000Y-109855000D03*
X90170000Y-112395000D03*
X90170000Y-114935000D03*
X90170000Y-117475000D03*
X90170000Y-120015000D03*
D12*
X81915000Y-85090000D03*
D11*
X81915000Y-87630000D03*
X81915000Y-90170000D03*
X81915000Y-92710000D03*
X81915000Y-95250000D03*
X81915000Y-97790000D03*
X81915000Y-100330000D03*
X81915000Y-102870000D03*
X90170000Y-102870000D03*
X90170000Y-100330000D03*
X90170000Y-97790000D03*
X90170000Y-95250000D03*
X90170000Y-92710000D03*
X90170000Y-90170000D03*
X90170000Y-87630000D03*
D12*
X90170000Y-85090000D03*
X81915000Y-107315000D03*
D11*
X81915000Y-109855000D03*
X81915000Y-112395000D03*
X81915000Y-114935000D03*
X81915000Y-117475000D03*
X81915000Y-120015000D03*
X81915000Y-122555000D03*
X81915000Y-125095000D03*
D12*
X74295000Y-74930000D03*
D11*
X76835000Y-74930000D03*
X74295000Y-77470000D03*
X76835000Y-77470000D03*
X74295000Y-80010000D03*
X76835000Y-80010000D03*
X74295000Y-82550000D03*
X76835000Y-82550000D03*
X74295000Y-85090000D03*
X76835000Y-85090000D03*
D13*
X164465000Y-136525000D03*
D10*
X161925000Y-99060000D03*
D13*
X164465000Y-76835000D03*
D10*
X154305000Y-99060000D03*
X159385000Y-99060000D03*
X156845000Y-99060000D03*
X149225000Y-99060000D03*
X151765000Y-99060000D03*
X121285000Y-99060000D03*
X116205000Y-99060000D03*
X106045000Y-99060000D03*
X164465000Y-99060000D03*
X118745000Y-99060000D03*
X108585000Y-99060000D03*
X113665000Y-99060000D03*
X111125000Y-99060000D03*
X123825000Y-99060000D03*
X126365000Y-99060000D03*
X128905000Y-99060000D03*
X131445000Y-99060000D03*
X133985000Y-99060000D03*
X136525000Y-99060000D03*
X139065000Y-99060000D03*
X141605000Y-99060000D03*
X144145000Y-99060000D03*
X146685000Y-99060000D03*
X106045000Y-106680000D03*
X108585000Y-106680000D03*
X116205000Y-106680000D03*
X118745000Y-106680000D03*
X121285000Y-106680000D03*
X123825000Y-106680000D03*
X126365000Y-106680000D03*
X128905000Y-106680000D03*
X131445000Y-106680000D03*
X133985000Y-106680000D03*
X136525000Y-106680000D03*
X139065000Y-106680000D03*
X141605000Y-106680000D03*
X144145000Y-106680000D03*
X146685000Y-106680000D03*
X149225000Y-106680000D03*
X151765000Y-106680000D03*
X154305000Y-106680000D03*
X156845000Y-106680000D03*
X159385000Y-106680000D03*
X161925000Y-106680000D03*
X164465000Y-106680000D03*
X113665000Y-114300000D03*
X111125000Y-114300000D03*
X164465000Y-114300000D03*
X161925000Y-114300000D03*
X159385000Y-114300000D03*
X156845000Y-114300000D03*
X154305000Y-114300000D03*
X151765000Y-114300000D03*
X149225000Y-114300000D03*
X111125000Y-106680000D03*
X146685000Y-114300000D03*
X141605000Y-114300000D03*
X144145000Y-114300000D03*
X136525000Y-114300000D03*
X139065000Y-114300000D03*
X131445000Y-114300000D03*
X128905000Y-114300000D03*
X126365000Y-114300000D03*
X123825000Y-114300000D03*
X121285000Y-114300000D03*
X108585000Y-114300000D03*
X106045000Y-114300000D03*
X113665000Y-106680000D03*
X116205000Y-114300000D03*
X118745000Y-114300000D03*
X133985000Y-114300000D03*
X154305000Y-76200000D03*
X159385000Y-76200000D03*
X156845000Y-76200000D03*
X149225000Y-76200000D03*
X151765000Y-76200000D03*
X121285000Y-76200000D03*
X116205000Y-76200000D03*
X106045000Y-76200000D03*
X118745000Y-76200000D03*
X108585000Y-76200000D03*
X113665000Y-76200000D03*
X111125000Y-76200000D03*
X123825000Y-76200000D03*
X126365000Y-76200000D03*
X128905000Y-76200000D03*
X131445000Y-76200000D03*
X133985000Y-76200000D03*
X136525000Y-76200000D03*
X139065000Y-76200000D03*
X141605000Y-76200000D03*
X144145000Y-76200000D03*
X146685000Y-76200000D03*
X106045000Y-83820000D03*
X108585000Y-83820000D03*
X116205000Y-83820000D03*
X118745000Y-83820000D03*
X121285000Y-83820000D03*
X123825000Y-83820000D03*
X126365000Y-83820000D03*
X128905000Y-83820000D03*
X131445000Y-83820000D03*
X133985000Y-83820000D03*
X136525000Y-83820000D03*
X139065000Y-83820000D03*
X141605000Y-83820000D03*
X144145000Y-83820000D03*
X146685000Y-83820000D03*
X149225000Y-83820000D03*
X151765000Y-83820000D03*
X154305000Y-83820000D03*
X156845000Y-83820000D03*
X159385000Y-83820000D03*
X161925000Y-83820000D03*
X164465000Y-83820000D03*
X113665000Y-91440000D03*
X111125000Y-91440000D03*
X164465000Y-91440000D03*
X161925000Y-91440000D03*
X159385000Y-91440000D03*
X156845000Y-91440000D03*
X154305000Y-91440000D03*
X151765000Y-91440000D03*
X149225000Y-91440000D03*
X111125000Y-83820000D03*
X146685000Y-91440000D03*
X141605000Y-91440000D03*
X144145000Y-91440000D03*
X136525000Y-91440000D03*
X139065000Y-91440000D03*
X131445000Y-91440000D03*
X128905000Y-91440000D03*
X126365000Y-91440000D03*
X123825000Y-91440000D03*
X121285000Y-91440000D03*
X108585000Y-91440000D03*
X106045000Y-91440000D03*
X113665000Y-83820000D03*
X116205000Y-91440000D03*
X118745000Y-91440000D03*
X133985000Y-91440000D03*
X106045000Y-121920000D03*
X108585000Y-121920000D03*
X116205000Y-121920000D03*
X118745000Y-121920000D03*
X121285000Y-121920000D03*
X123825000Y-121920000D03*
X126365000Y-121920000D03*
X128905000Y-121920000D03*
X131445000Y-121920000D03*
X133985000Y-121920000D03*
X136525000Y-121920000D03*
X139065000Y-121920000D03*
X141605000Y-121920000D03*
X144145000Y-121920000D03*
X146685000Y-121920000D03*
X149225000Y-121920000D03*
X151765000Y-121920000D03*
X154305000Y-121920000D03*
X156845000Y-121920000D03*
X159385000Y-121920000D03*
X161925000Y-121920000D03*
X164465000Y-121920000D03*
X111125000Y-121920000D03*
X113665000Y-121920000D03*
X106045000Y-137160000D03*
X108585000Y-137160000D03*
X116205000Y-137160000D03*
X118745000Y-137160000D03*
X121285000Y-137160000D03*
X123825000Y-137160000D03*
X126365000Y-137160000D03*
X128905000Y-137160000D03*
X131445000Y-137160000D03*
X133985000Y-137160000D03*
X136525000Y-137160000D03*
X139065000Y-137160000D03*
X141605000Y-137160000D03*
X144145000Y-137160000D03*
X146685000Y-137160000D03*
X149225000Y-137160000D03*
X151765000Y-137160000D03*
X154305000Y-137160000D03*
X156845000Y-137160000D03*
X159385000Y-137160000D03*
X111125000Y-137160000D03*
X113665000Y-137160000D03*
X164465000Y-129540000D03*
X161925000Y-129540000D03*
X159385000Y-129540000D03*
X156845000Y-129540000D03*
X154305000Y-129540000D03*
X151765000Y-129540000D03*
X149225000Y-129540000D03*
X146685000Y-129540000D03*
X144145000Y-129540000D03*
X141605000Y-129540000D03*
X139065000Y-129540000D03*
X136525000Y-129540000D03*
X133985000Y-129540000D03*
X131445000Y-129540000D03*
X128905000Y-129540000D03*
X126365000Y-129540000D03*
X123825000Y-129540000D03*
X121285000Y-129540000D03*
X118745000Y-129540000D03*
X116205000Y-129540000D03*
X108585000Y-129540000D03*
X111125000Y-129540000D03*
X106045000Y-129540000D03*
X113665000Y-129540000D03*
D12*
X81915000Y-76200000D03*
D11*
X84455000Y-76200000D03*
X86995000Y-76200000D03*
X89535000Y-76200000D03*
D14*
X81915000Y-76200000D02*
X80010000Y-76200000D01*
X78740000Y-74930000D02*
X76835000Y-74930000D01*
X80010000Y-76200000D02*
X78740000Y-74930000D01*
X76835000Y-74930000D02*
X74295000Y-74930000D01*
X74295000Y-74930000D02*
X72390000Y-74930000D01*
X72390000Y-74930000D02*
X72390000Y-85090000D01*
X72390000Y-85090000D02*
X74295000Y-85090000D01*
X74295000Y-85090000D02*
X76835000Y-85090000D01*
X74295000Y-77470000D02*
X76835000Y-77470000D01*
X83605001Y-77049999D02*
X84455000Y-76200000D01*
X83154999Y-77500001D02*
X83605001Y-77049999D01*
X80704999Y-77500001D02*
X83154999Y-77500001D01*
X80674998Y-77470000D02*
X80704999Y-77500001D01*
X76835000Y-77470000D02*
X80674998Y-77470000D01*
X74295000Y-80010000D02*
X76835000Y-80010000D01*
X76835000Y-80010000D02*
X78105000Y-78740000D01*
X84455000Y-78740000D02*
X86995000Y-76200000D01*
X78105000Y-78740000D02*
X84455000Y-78740000D01*
X74295000Y-82550000D02*
X76835000Y-82550000D01*
X77684999Y-81700001D02*
X78954999Y-81700001D01*
X76835000Y-82550000D02*
X77684999Y-81700001D01*
X78954999Y-81700001D02*
X80645000Y-80010000D01*
X85725000Y-80010000D02*
X89535000Y-76200000D01*
X80645000Y-80010000D02*
X85725000Y-80010000D01*
D15*
X75144999Y-127420001D02*
X74295000Y-128270000D01*
X75470001Y-127094999D02*
X75144999Y-127420001D01*
X78369999Y-127094999D02*
X75470001Y-127094999D01*
X80815000Y-129540000D02*
X78369999Y-127094999D01*
X81915000Y-129540000D02*
X80815000Y-129540000D01*
X81915000Y-132080000D02*
X79825010Y-129990010D01*
X78105000Y-128270000D02*
X79825010Y-129990010D01*
X76835000Y-128270000D02*
X78105000Y-128270000D01*
X75144999Y-129960001D02*
X74295000Y-130810000D01*
X75565000Y-129540000D02*
X75144999Y-129960001D01*
X77304002Y-129540000D02*
X75565000Y-129540000D01*
X81915000Y-134150998D02*
X77304002Y-129540000D01*
X81915000Y-134620000D02*
X81915000Y-134150998D01*
X81065001Y-136310001D02*
X81915000Y-137160000D01*
X80739999Y-135984999D02*
X81065001Y-136310001D01*
X80739999Y-134714999D02*
X80739999Y-135984999D01*
X76835000Y-130810000D02*
X80739999Y-134714999D01*
X81065001Y-88479999D02*
X81915000Y-87630000D01*
X78105000Y-91440000D02*
X81065001Y-88479999D01*
X76365998Y-91440000D02*
X78105000Y-91440000D01*
X75095998Y-90170000D02*
X76365998Y-91440000D01*
X74295000Y-90170000D02*
X75095998Y-90170000D01*
X77684999Y-89320001D02*
X81915000Y-85090000D01*
X76835000Y-90170000D02*
X77684999Y-89320001D01*
X81065001Y-93559999D02*
X81915000Y-92710000D01*
X80739999Y-93885001D02*
X81065001Y-93559999D01*
X75470001Y-93885001D02*
X80739999Y-93885001D01*
X74295000Y-92710000D02*
X75470001Y-93885001D01*
X79375000Y-92710000D02*
X81915000Y-90170000D01*
X76835000Y-92710000D02*
X79375000Y-92710000D01*
X81065001Y-96940001D02*
X81915000Y-97790000D01*
X80739999Y-96614999D02*
X81065001Y-96940001D01*
X75659999Y-96614999D02*
X80739999Y-96614999D01*
X74295000Y-95250000D02*
X75659999Y-96614999D01*
X76835000Y-95250000D02*
X81915000Y-95250000D01*
X81915000Y-102235000D02*
X81915000Y-102870000D01*
X78740000Y-99060000D02*
X81915000Y-102235000D01*
X74295000Y-97790000D02*
X75565000Y-99060000D01*
X75565000Y-99060000D02*
X78740000Y-99060000D01*
X76835000Y-97790000D02*
X79375000Y-97790000D01*
X79375000Y-97790000D02*
X81915000Y-100330000D01*
X81065001Y-110704999D02*
X81915000Y-109855000D01*
X80104999Y-111665001D02*
X81065001Y-110704999D01*
X75470001Y-111665001D02*
X80104999Y-111665001D01*
X74295000Y-110490000D02*
X75470001Y-111665001D01*
X80815000Y-107315000D02*
X81915000Y-107315000D01*
X80010000Y-108120000D02*
X80815000Y-107315000D01*
X80010000Y-109855000D02*
X80010000Y-108120000D01*
X79375000Y-110490000D02*
X80010000Y-109855000D01*
X76835000Y-110490000D02*
X79375000Y-110490000D01*
X80712919Y-114935000D02*
X81915000Y-114935000D01*
X79982920Y-114205001D02*
X80712919Y-114935000D01*
X75470001Y-114205001D02*
X79982920Y-114205001D01*
X74295000Y-113030000D02*
X75470001Y-114205001D01*
X81280000Y-113030000D02*
X81915000Y-112395000D01*
X76835000Y-113030000D02*
X81280000Y-113030000D01*
X81065001Y-119165001D02*
X81915000Y-120015000D01*
X78834999Y-116934999D02*
X81065001Y-119165001D01*
X75659999Y-116934999D02*
X78834999Y-116934999D01*
X74295000Y-115570000D02*
X75659999Y-116934999D01*
X80010000Y-115570000D02*
X81915000Y-117475000D01*
X76835000Y-115570000D02*
X80010000Y-115570000D01*
X81065001Y-124245001D02*
X81915000Y-125095000D01*
X80739999Y-123919999D02*
X81065001Y-124245001D01*
X80739999Y-122651409D02*
X80739999Y-123919999D01*
X77373591Y-119285001D02*
X80739999Y-122651409D01*
X75470001Y-119285001D02*
X77373591Y-119285001D01*
X74295000Y-118110000D02*
X75470001Y-119285001D01*
X76835000Y-118110000D02*
X78105000Y-118110000D01*
X81065001Y-121705001D02*
X81065001Y-121070001D01*
X81915000Y-122555000D02*
X81065001Y-121705001D01*
X81065001Y-121070001D02*
X78105000Y-118110000D01*
M02*
