G04 #@! TF.GenerationSoftware,KiCad,Pcbnew,(5.1.4)-1*
G04 #@! TF.CreationDate,2022-01-22T16:02:53+02:00*
G04 #@! TF.ProjectId,Protoboardv2,50726f74-6f62-46f6-9172-6476322e6b69,rev?*
G04 #@! TF.SameCoordinates,Original*
G04 #@! TF.FileFunction,Legend,Top*
G04 #@! TF.FilePolarity,Positive*
%FSLAX46Y46*%
G04 Gerber Fmt 4.6, Leading zero omitted, Abs format (unit mm)*
G04 Created by KiCad (PCBNEW (5.1.4)-1) date 2022-01-22 16:02:53*
%MOMM*%
%LPD*%
G04 APERTURE LIST*
%ADD10C,0.152400*%
%ADD11C,0.300000*%
%ADD12C,0.150000*%
%ADD13C,0.120000*%
G04 APERTURE END LIST*
D10*
X92851393Y-137571238D02*
X92754631Y-137619619D01*
X92561107Y-137619619D01*
X92464345Y-137571238D01*
X92415964Y-137522857D01*
X92367583Y-137426095D01*
X92367583Y-137135809D01*
X92415964Y-137039047D01*
X92464345Y-136990666D01*
X92561107Y-136942285D01*
X92754631Y-136942285D01*
X92851393Y-136990666D01*
X93431964Y-137619619D02*
X93335202Y-137571238D01*
X93286821Y-137474476D01*
X93286821Y-136603619D01*
X93819012Y-137619619D02*
X93819012Y-136603619D01*
X93915774Y-137232571D02*
X94206060Y-137619619D01*
X94206060Y-136942285D02*
X93819012Y-137329333D01*
X92415964Y-135079619D02*
X92415964Y-134402285D01*
X92415964Y-134595809D02*
X92464345Y-134499047D01*
X92512726Y-134450666D01*
X92609488Y-134402285D01*
X92706250Y-134402285D01*
X93431964Y-135031238D02*
X93335202Y-135079619D01*
X93141679Y-135079619D01*
X93044917Y-135031238D01*
X92996536Y-134934476D01*
X92996536Y-134547428D01*
X93044917Y-134450666D01*
X93141679Y-134402285D01*
X93335202Y-134402285D01*
X93431964Y-134450666D01*
X93480345Y-134547428D01*
X93480345Y-134644190D01*
X92996536Y-134740952D01*
X93867393Y-135031238D02*
X93964155Y-135079619D01*
X94157679Y-135079619D01*
X94254440Y-135031238D01*
X94302821Y-134934476D01*
X94302821Y-134886095D01*
X94254440Y-134789333D01*
X94157679Y-134740952D01*
X94012536Y-134740952D01*
X93915774Y-134692571D01*
X93867393Y-134595809D01*
X93867393Y-134547428D01*
X93915774Y-134450666D01*
X94012536Y-134402285D01*
X94157679Y-134402285D01*
X94254440Y-134450666D01*
X95125298Y-135031238D02*
X95028536Y-135079619D01*
X94835012Y-135079619D01*
X94738250Y-135031238D01*
X94689869Y-134934476D01*
X94689869Y-134547428D01*
X94738250Y-134450666D01*
X94835012Y-134402285D01*
X95028536Y-134402285D01*
X95125298Y-134450666D01*
X95173679Y-134547428D01*
X95173679Y-134644190D01*
X94689869Y-134740952D01*
X95463964Y-134402285D02*
X95851012Y-134402285D01*
X95609107Y-134063619D02*
X95609107Y-134934476D01*
X95657488Y-135031238D01*
X95754250Y-135079619D01*
X95851012Y-135079619D01*
X92415964Y-132539619D02*
X92415964Y-131862285D01*
X92415964Y-131959047D02*
X92464345Y-131910666D01*
X92561107Y-131862285D01*
X92706250Y-131862285D01*
X92803012Y-131910666D01*
X92851393Y-132007428D01*
X92851393Y-132539619D01*
X92851393Y-132007428D02*
X92899774Y-131910666D01*
X92996536Y-131862285D01*
X93141679Y-131862285D01*
X93238440Y-131910666D01*
X93286821Y-132007428D01*
X93286821Y-132539619D01*
X94302821Y-132539619D02*
X93722250Y-132539619D01*
X94012536Y-132539619D02*
X94012536Y-131523619D01*
X93915774Y-131668761D01*
X93819012Y-131765523D01*
X93722250Y-131813904D01*
X92415964Y-129999619D02*
X92415964Y-129322285D01*
X92415964Y-129515809D02*
X92464345Y-129419047D01*
X92512726Y-129370666D01*
X92609488Y-129322285D01*
X92706250Y-129322285D01*
X92899774Y-129322285D02*
X93286821Y-129322285D01*
X93044917Y-129999619D02*
X93044917Y-129128761D01*
X93093298Y-129032000D01*
X93190060Y-128983619D01*
X93286821Y-128983619D01*
X93577107Y-129951238D02*
X93673869Y-129999619D01*
X93867393Y-129999619D01*
X93964155Y-129951238D01*
X94012536Y-129854476D01*
X94012536Y-129806095D01*
X93964155Y-129709333D01*
X93867393Y-129660952D01*
X93722250Y-129660952D01*
X93625488Y-129612571D01*
X93577107Y-129515809D01*
X93577107Y-129467428D01*
X93625488Y-129370666D01*
X93722250Y-129322285D01*
X93867393Y-129322285D01*
X93964155Y-129370666D01*
X94447964Y-129999619D02*
X94447964Y-128983619D01*
X94883393Y-129999619D02*
X94883393Y-129467428D01*
X94835012Y-129370666D01*
X94738250Y-129322285D01*
X94593107Y-129322285D01*
X94496345Y-129370666D01*
X94447964Y-129419047D01*
X92367583Y-127411238D02*
X92464345Y-127459619D01*
X92657869Y-127459619D01*
X92754631Y-127411238D01*
X92803012Y-127314476D01*
X92803012Y-127266095D01*
X92754631Y-127169333D01*
X92657869Y-127120952D01*
X92512726Y-127120952D01*
X92415964Y-127072571D01*
X92367583Y-126975809D01*
X92367583Y-126927428D01*
X92415964Y-126830666D01*
X92512726Y-126782285D01*
X92657869Y-126782285D01*
X92754631Y-126830666D01*
X93770631Y-127459619D02*
X93190060Y-127459619D01*
X93480345Y-127459619D02*
X93480345Y-126443619D01*
X93383583Y-126588761D01*
X93286821Y-126685523D01*
X93190060Y-126733904D01*
X92367583Y-124871238D02*
X92464345Y-124919619D01*
X92657869Y-124919619D01*
X92754631Y-124871238D01*
X92803012Y-124774476D01*
X92803012Y-124726095D01*
X92754631Y-124629333D01*
X92657869Y-124580952D01*
X92512726Y-124580952D01*
X92415964Y-124532571D01*
X92367583Y-124435809D01*
X92367583Y-124387428D01*
X92415964Y-124290666D01*
X92512726Y-124242285D01*
X92657869Y-124242285D01*
X92754631Y-124290666D01*
X93431964Y-123903619D02*
X93528726Y-123903619D01*
X93625488Y-123952000D01*
X93673869Y-124000380D01*
X93722250Y-124097142D01*
X93770631Y-124290666D01*
X93770631Y-124532571D01*
X93722250Y-124726095D01*
X93673869Y-124822857D01*
X93625488Y-124871238D01*
X93528726Y-124919619D01*
X93431964Y-124919619D01*
X93335202Y-124871238D01*
X93286821Y-124822857D01*
X93238440Y-124726095D01*
X93190060Y-124532571D01*
X93190060Y-124290666D01*
X93238440Y-124097142D01*
X93286821Y-124000380D01*
X93335202Y-123952000D01*
X93431964Y-123903619D01*
X84160964Y-136942285D02*
X84160964Y-137619619D01*
X84160964Y-137039047D02*
X84209345Y-136990666D01*
X84306107Y-136942285D01*
X84451250Y-136942285D01*
X84548012Y-136990666D01*
X84596393Y-137087428D01*
X84596393Y-137619619D01*
X85080202Y-137619619D02*
X85080202Y-136942285D01*
X85080202Y-137039047D02*
X85128583Y-136990666D01*
X85225345Y-136942285D01*
X85370488Y-136942285D01*
X85467250Y-136990666D01*
X85515631Y-137087428D01*
X85515631Y-137619619D01*
X85515631Y-137087428D02*
X85564012Y-136990666D01*
X85660774Y-136942285D01*
X85805917Y-136942285D01*
X85902679Y-136990666D01*
X85951060Y-137087428D01*
X85951060Y-137619619D01*
X86434869Y-137619619D02*
X86434869Y-136942285D01*
X86434869Y-136603619D02*
X86386488Y-136652000D01*
X86434869Y-136700380D01*
X86483250Y-136652000D01*
X86434869Y-136603619D01*
X86434869Y-136700380D01*
X84160964Y-135079619D02*
X84160964Y-134402285D01*
X84160964Y-134063619D02*
X84112583Y-134112000D01*
X84160964Y-134160380D01*
X84209345Y-134112000D01*
X84160964Y-134063619D01*
X84160964Y-134160380D01*
X84644774Y-134402285D02*
X84644774Y-135079619D01*
X84644774Y-134499047D02*
X84693155Y-134450666D01*
X84789917Y-134402285D01*
X84935060Y-134402285D01*
X85031821Y-134450666D01*
X85080202Y-134547428D01*
X85080202Y-135079619D01*
X85418869Y-134402285D02*
X85805917Y-134402285D01*
X85564012Y-134063619D02*
X85564012Y-134934476D01*
X85612393Y-135031238D01*
X85709155Y-135079619D01*
X85805917Y-135079619D01*
X84064202Y-131862285D02*
X84257726Y-132539619D01*
X84451250Y-132055809D01*
X84644774Y-132539619D01*
X84838298Y-131862285D01*
X85660774Y-132539619D02*
X85660774Y-132007428D01*
X85612393Y-131910666D01*
X85515631Y-131862285D01*
X85322107Y-131862285D01*
X85225345Y-131910666D01*
X85660774Y-132491238D02*
X85564012Y-132539619D01*
X85322107Y-132539619D01*
X85225345Y-132491238D01*
X85176964Y-132394476D01*
X85176964Y-132297714D01*
X85225345Y-132200952D01*
X85322107Y-132152571D01*
X85564012Y-132152571D01*
X85660774Y-132104190D01*
X86144583Y-132539619D02*
X86144583Y-131862285D01*
X86144583Y-131523619D02*
X86096202Y-131572000D01*
X86144583Y-131620380D01*
X86192964Y-131572000D01*
X86144583Y-131523619D01*
X86144583Y-131620380D01*
X86483250Y-131862285D02*
X86870298Y-131862285D01*
X86628393Y-131523619D02*
X86628393Y-132394476D01*
X86676774Y-132491238D01*
X86773536Y-132539619D01*
X86870298Y-132539619D01*
X84160964Y-129999619D02*
X84160964Y-128983619D01*
X84596393Y-129999619D02*
X84596393Y-129467428D01*
X84548012Y-129370666D01*
X84451250Y-129322285D01*
X84306107Y-129322285D01*
X84209345Y-129370666D01*
X84160964Y-129419047D01*
X85515631Y-129999619D02*
X85515631Y-129467428D01*
X85467250Y-129370666D01*
X85370488Y-129322285D01*
X85176964Y-129322285D01*
X85080202Y-129370666D01*
X85515631Y-129951238D02*
X85418869Y-129999619D01*
X85176964Y-129999619D01*
X85080202Y-129951238D01*
X85031821Y-129854476D01*
X85031821Y-129757714D01*
X85080202Y-129660952D01*
X85176964Y-129612571D01*
X85418869Y-129612571D01*
X85515631Y-129564190D01*
X86144583Y-129999619D02*
X86047821Y-129951238D01*
X85999440Y-129854476D01*
X85999440Y-128983619D01*
X86386488Y-129322285D02*
X86773536Y-129322285D01*
X86531631Y-128983619D02*
X86531631Y-129854476D01*
X86580012Y-129951238D01*
X86676774Y-129999619D01*
X86773536Y-129999619D01*
X84596393Y-125554619D02*
X84596393Y-124538619D01*
X84596393Y-125506238D02*
X84499631Y-125554619D01*
X84306107Y-125554619D01*
X84209345Y-125506238D01*
X84160964Y-125457857D01*
X84112583Y-125361095D01*
X84112583Y-125070809D01*
X84160964Y-124974047D01*
X84209345Y-124925666D01*
X84306107Y-124877285D01*
X84499631Y-124877285D01*
X84596393Y-124925666D01*
X85273726Y-124538619D02*
X85370488Y-124538619D01*
X85467250Y-124587000D01*
X85515631Y-124635380D01*
X85564012Y-124732142D01*
X85612393Y-124925666D01*
X85612393Y-125167571D01*
X85564012Y-125361095D01*
X85515631Y-125457857D01*
X85467250Y-125506238D01*
X85370488Y-125554619D01*
X85273726Y-125554619D01*
X85176964Y-125506238D01*
X85128583Y-125457857D01*
X85080202Y-125361095D01*
X85031821Y-125167571D01*
X85031821Y-124925666D01*
X85080202Y-124732142D01*
X85128583Y-124635380D01*
X85176964Y-124587000D01*
X85273726Y-124538619D01*
X85951060Y-124538619D02*
X86628393Y-124538619D01*
X86192964Y-125554619D01*
X84596393Y-123014619D02*
X84596393Y-121998619D01*
X84596393Y-122966238D02*
X84499631Y-123014619D01*
X84306107Y-123014619D01*
X84209345Y-122966238D01*
X84160964Y-122917857D01*
X84112583Y-122821095D01*
X84112583Y-122530809D01*
X84160964Y-122434047D01*
X84209345Y-122385666D01*
X84306107Y-122337285D01*
X84499631Y-122337285D01*
X84596393Y-122385666D01*
X85273726Y-121998619D02*
X85370488Y-121998619D01*
X85467250Y-122047000D01*
X85515631Y-122095380D01*
X85564012Y-122192142D01*
X85612393Y-122385666D01*
X85612393Y-122627571D01*
X85564012Y-122821095D01*
X85515631Y-122917857D01*
X85467250Y-122966238D01*
X85370488Y-123014619D01*
X85273726Y-123014619D01*
X85176964Y-122966238D01*
X85128583Y-122917857D01*
X85080202Y-122821095D01*
X85031821Y-122627571D01*
X85031821Y-122385666D01*
X85080202Y-122192142D01*
X85128583Y-122095380D01*
X85176964Y-122047000D01*
X85273726Y-121998619D01*
X86483250Y-121998619D02*
X86289726Y-121998619D01*
X86192964Y-122047000D01*
X86144583Y-122095380D01*
X86047821Y-122240523D01*
X85999440Y-122434047D01*
X85999440Y-122821095D01*
X86047821Y-122917857D01*
X86096202Y-122966238D01*
X86192964Y-123014619D01*
X86386488Y-123014619D01*
X86483250Y-122966238D01*
X86531631Y-122917857D01*
X86580012Y-122821095D01*
X86580012Y-122579190D01*
X86531631Y-122482428D01*
X86483250Y-122434047D01*
X86386488Y-122385666D01*
X86192964Y-122385666D01*
X86096202Y-122434047D01*
X86047821Y-122482428D01*
X85999440Y-122579190D01*
X84596393Y-120474619D02*
X84596393Y-119458619D01*
X84596393Y-120426238D02*
X84499631Y-120474619D01*
X84306107Y-120474619D01*
X84209345Y-120426238D01*
X84160964Y-120377857D01*
X84112583Y-120281095D01*
X84112583Y-119990809D01*
X84160964Y-119894047D01*
X84209345Y-119845666D01*
X84306107Y-119797285D01*
X84499631Y-119797285D01*
X84596393Y-119845666D01*
X85273726Y-119458619D02*
X85370488Y-119458619D01*
X85467250Y-119507000D01*
X85515631Y-119555380D01*
X85564012Y-119652142D01*
X85612393Y-119845666D01*
X85612393Y-120087571D01*
X85564012Y-120281095D01*
X85515631Y-120377857D01*
X85467250Y-120426238D01*
X85370488Y-120474619D01*
X85273726Y-120474619D01*
X85176964Y-120426238D01*
X85128583Y-120377857D01*
X85080202Y-120281095D01*
X85031821Y-120087571D01*
X85031821Y-119845666D01*
X85080202Y-119652142D01*
X85128583Y-119555380D01*
X85176964Y-119507000D01*
X85273726Y-119458619D01*
X86531631Y-119458619D02*
X86047821Y-119458619D01*
X85999440Y-119942428D01*
X86047821Y-119894047D01*
X86144583Y-119845666D01*
X86386488Y-119845666D01*
X86483250Y-119894047D01*
X86531631Y-119942428D01*
X86580012Y-120039190D01*
X86580012Y-120281095D01*
X86531631Y-120377857D01*
X86483250Y-120426238D01*
X86386488Y-120474619D01*
X86144583Y-120474619D01*
X86047821Y-120426238D01*
X85999440Y-120377857D01*
X84596393Y-117934619D02*
X84596393Y-116918619D01*
X84596393Y-117886238D02*
X84499631Y-117934619D01*
X84306107Y-117934619D01*
X84209345Y-117886238D01*
X84160964Y-117837857D01*
X84112583Y-117741095D01*
X84112583Y-117450809D01*
X84160964Y-117354047D01*
X84209345Y-117305666D01*
X84306107Y-117257285D01*
X84499631Y-117257285D01*
X84596393Y-117305666D01*
X85273726Y-116918619D02*
X85370488Y-116918619D01*
X85467250Y-116967000D01*
X85515631Y-117015380D01*
X85564012Y-117112142D01*
X85612393Y-117305666D01*
X85612393Y-117547571D01*
X85564012Y-117741095D01*
X85515631Y-117837857D01*
X85467250Y-117886238D01*
X85370488Y-117934619D01*
X85273726Y-117934619D01*
X85176964Y-117886238D01*
X85128583Y-117837857D01*
X85080202Y-117741095D01*
X85031821Y-117547571D01*
X85031821Y-117305666D01*
X85080202Y-117112142D01*
X85128583Y-117015380D01*
X85176964Y-116967000D01*
X85273726Y-116918619D01*
X86483250Y-117257285D02*
X86483250Y-117934619D01*
X86241345Y-116870238D02*
X85999440Y-117595952D01*
X86628393Y-117595952D01*
X84596393Y-115394619D02*
X84596393Y-114378619D01*
X84596393Y-115346238D02*
X84499631Y-115394619D01*
X84306107Y-115394619D01*
X84209345Y-115346238D01*
X84160964Y-115297857D01*
X84112583Y-115201095D01*
X84112583Y-114910809D01*
X84160964Y-114814047D01*
X84209345Y-114765666D01*
X84306107Y-114717285D01*
X84499631Y-114717285D01*
X84596393Y-114765666D01*
X85273726Y-114378619D02*
X85370488Y-114378619D01*
X85467250Y-114427000D01*
X85515631Y-114475380D01*
X85564012Y-114572142D01*
X85612393Y-114765666D01*
X85612393Y-115007571D01*
X85564012Y-115201095D01*
X85515631Y-115297857D01*
X85467250Y-115346238D01*
X85370488Y-115394619D01*
X85273726Y-115394619D01*
X85176964Y-115346238D01*
X85128583Y-115297857D01*
X85080202Y-115201095D01*
X85031821Y-115007571D01*
X85031821Y-114765666D01*
X85080202Y-114572142D01*
X85128583Y-114475380D01*
X85176964Y-114427000D01*
X85273726Y-114378619D01*
X85951060Y-114378619D02*
X86580012Y-114378619D01*
X86241345Y-114765666D01*
X86386488Y-114765666D01*
X86483250Y-114814047D01*
X86531631Y-114862428D01*
X86580012Y-114959190D01*
X86580012Y-115201095D01*
X86531631Y-115297857D01*
X86483250Y-115346238D01*
X86386488Y-115394619D01*
X86096202Y-115394619D01*
X85999440Y-115346238D01*
X85951060Y-115297857D01*
X84596393Y-112854619D02*
X84596393Y-111838619D01*
X84596393Y-112806238D02*
X84499631Y-112854619D01*
X84306107Y-112854619D01*
X84209345Y-112806238D01*
X84160964Y-112757857D01*
X84112583Y-112661095D01*
X84112583Y-112370809D01*
X84160964Y-112274047D01*
X84209345Y-112225666D01*
X84306107Y-112177285D01*
X84499631Y-112177285D01*
X84596393Y-112225666D01*
X85273726Y-111838619D02*
X85370488Y-111838619D01*
X85467250Y-111887000D01*
X85515631Y-111935380D01*
X85564012Y-112032142D01*
X85612393Y-112225666D01*
X85612393Y-112467571D01*
X85564012Y-112661095D01*
X85515631Y-112757857D01*
X85467250Y-112806238D01*
X85370488Y-112854619D01*
X85273726Y-112854619D01*
X85176964Y-112806238D01*
X85128583Y-112757857D01*
X85080202Y-112661095D01*
X85031821Y-112467571D01*
X85031821Y-112225666D01*
X85080202Y-112032142D01*
X85128583Y-111935380D01*
X85176964Y-111887000D01*
X85273726Y-111838619D01*
X85999440Y-111935380D02*
X86047821Y-111887000D01*
X86144583Y-111838619D01*
X86386488Y-111838619D01*
X86483250Y-111887000D01*
X86531631Y-111935380D01*
X86580012Y-112032142D01*
X86580012Y-112128904D01*
X86531631Y-112274047D01*
X85951060Y-112854619D01*
X86580012Y-112854619D01*
X84596393Y-110314619D02*
X84596393Y-109298619D01*
X84596393Y-110266238D02*
X84499631Y-110314619D01*
X84306107Y-110314619D01*
X84209345Y-110266238D01*
X84160964Y-110217857D01*
X84112583Y-110121095D01*
X84112583Y-109830809D01*
X84160964Y-109734047D01*
X84209345Y-109685666D01*
X84306107Y-109637285D01*
X84499631Y-109637285D01*
X84596393Y-109685666D01*
X85273726Y-109298619D02*
X85370488Y-109298619D01*
X85467250Y-109347000D01*
X85515631Y-109395380D01*
X85564012Y-109492142D01*
X85612393Y-109685666D01*
X85612393Y-109927571D01*
X85564012Y-110121095D01*
X85515631Y-110217857D01*
X85467250Y-110266238D01*
X85370488Y-110314619D01*
X85273726Y-110314619D01*
X85176964Y-110266238D01*
X85128583Y-110217857D01*
X85080202Y-110121095D01*
X85031821Y-109927571D01*
X85031821Y-109685666D01*
X85080202Y-109492142D01*
X85128583Y-109395380D01*
X85176964Y-109347000D01*
X85273726Y-109298619D01*
X86580012Y-110314619D02*
X85999440Y-110314619D01*
X86289726Y-110314619D02*
X86289726Y-109298619D01*
X86192964Y-109443761D01*
X86096202Y-109540523D01*
X85999440Y-109588904D01*
X84596393Y-107774619D02*
X84596393Y-106758619D01*
X84596393Y-107726238D02*
X84499631Y-107774619D01*
X84306107Y-107774619D01*
X84209345Y-107726238D01*
X84160964Y-107677857D01*
X84112583Y-107581095D01*
X84112583Y-107290809D01*
X84160964Y-107194047D01*
X84209345Y-107145666D01*
X84306107Y-107097285D01*
X84499631Y-107097285D01*
X84596393Y-107145666D01*
X85273726Y-106758619D02*
X85370488Y-106758619D01*
X85467250Y-106807000D01*
X85515631Y-106855380D01*
X85564012Y-106952142D01*
X85612393Y-107145666D01*
X85612393Y-107387571D01*
X85564012Y-107581095D01*
X85515631Y-107677857D01*
X85467250Y-107726238D01*
X85370488Y-107774619D01*
X85273726Y-107774619D01*
X85176964Y-107726238D01*
X85128583Y-107677857D01*
X85080202Y-107581095D01*
X85031821Y-107387571D01*
X85031821Y-107145666D01*
X85080202Y-106952142D01*
X85128583Y-106855380D01*
X85176964Y-106807000D01*
X85273726Y-106758619D01*
X86241345Y-106758619D02*
X86338107Y-106758619D01*
X86434869Y-106807000D01*
X86483250Y-106855380D01*
X86531631Y-106952142D01*
X86580012Y-107145666D01*
X86580012Y-107387571D01*
X86531631Y-107581095D01*
X86483250Y-107677857D01*
X86434869Y-107726238D01*
X86338107Y-107774619D01*
X86241345Y-107774619D01*
X86144583Y-107726238D01*
X86096202Y-107677857D01*
X86047821Y-107581095D01*
X85999440Y-107387571D01*
X85999440Y-107145666D01*
X86047821Y-106952142D01*
X86096202Y-106855380D01*
X86144583Y-106807000D01*
X86241345Y-106758619D01*
X84596393Y-103329619D02*
X84596393Y-102797428D01*
X84548012Y-102700666D01*
X84451250Y-102652285D01*
X84257726Y-102652285D01*
X84160964Y-102700666D01*
X84596393Y-103281238D02*
X84499631Y-103329619D01*
X84257726Y-103329619D01*
X84160964Y-103281238D01*
X84112583Y-103184476D01*
X84112583Y-103087714D01*
X84160964Y-102990952D01*
X84257726Y-102942571D01*
X84499631Y-102942571D01*
X84596393Y-102894190D01*
X85273726Y-102313619D02*
X85370488Y-102313619D01*
X85467250Y-102362000D01*
X85515631Y-102410380D01*
X85564012Y-102507142D01*
X85612393Y-102700666D01*
X85612393Y-102942571D01*
X85564012Y-103136095D01*
X85515631Y-103232857D01*
X85467250Y-103281238D01*
X85370488Y-103329619D01*
X85273726Y-103329619D01*
X85176964Y-103281238D01*
X85128583Y-103232857D01*
X85080202Y-103136095D01*
X85031821Y-102942571D01*
X85031821Y-102700666D01*
X85080202Y-102507142D01*
X85128583Y-102410380D01*
X85176964Y-102362000D01*
X85273726Y-102313619D01*
X85951060Y-102313619D02*
X86628393Y-102313619D01*
X86192964Y-103329619D01*
X84596393Y-100789619D02*
X84596393Y-100257428D01*
X84548012Y-100160666D01*
X84451250Y-100112285D01*
X84257726Y-100112285D01*
X84160964Y-100160666D01*
X84596393Y-100741238D02*
X84499631Y-100789619D01*
X84257726Y-100789619D01*
X84160964Y-100741238D01*
X84112583Y-100644476D01*
X84112583Y-100547714D01*
X84160964Y-100450952D01*
X84257726Y-100402571D01*
X84499631Y-100402571D01*
X84596393Y-100354190D01*
X85273726Y-99773619D02*
X85370488Y-99773619D01*
X85467250Y-99822000D01*
X85515631Y-99870380D01*
X85564012Y-99967142D01*
X85612393Y-100160666D01*
X85612393Y-100402571D01*
X85564012Y-100596095D01*
X85515631Y-100692857D01*
X85467250Y-100741238D01*
X85370488Y-100789619D01*
X85273726Y-100789619D01*
X85176964Y-100741238D01*
X85128583Y-100692857D01*
X85080202Y-100596095D01*
X85031821Y-100402571D01*
X85031821Y-100160666D01*
X85080202Y-99967142D01*
X85128583Y-99870380D01*
X85176964Y-99822000D01*
X85273726Y-99773619D01*
X86483250Y-99773619D02*
X86289726Y-99773619D01*
X86192964Y-99822000D01*
X86144583Y-99870380D01*
X86047821Y-100015523D01*
X85999440Y-100209047D01*
X85999440Y-100596095D01*
X86047821Y-100692857D01*
X86096202Y-100741238D01*
X86192964Y-100789619D01*
X86386488Y-100789619D01*
X86483250Y-100741238D01*
X86531631Y-100692857D01*
X86580012Y-100596095D01*
X86580012Y-100354190D01*
X86531631Y-100257428D01*
X86483250Y-100209047D01*
X86386488Y-100160666D01*
X86192964Y-100160666D01*
X86096202Y-100209047D01*
X86047821Y-100257428D01*
X85999440Y-100354190D01*
X84596393Y-98249619D02*
X84596393Y-97717428D01*
X84548012Y-97620666D01*
X84451250Y-97572285D01*
X84257726Y-97572285D01*
X84160964Y-97620666D01*
X84596393Y-98201238D02*
X84499631Y-98249619D01*
X84257726Y-98249619D01*
X84160964Y-98201238D01*
X84112583Y-98104476D01*
X84112583Y-98007714D01*
X84160964Y-97910952D01*
X84257726Y-97862571D01*
X84499631Y-97862571D01*
X84596393Y-97814190D01*
X85273726Y-97233619D02*
X85370488Y-97233619D01*
X85467250Y-97282000D01*
X85515631Y-97330380D01*
X85564012Y-97427142D01*
X85612393Y-97620666D01*
X85612393Y-97862571D01*
X85564012Y-98056095D01*
X85515631Y-98152857D01*
X85467250Y-98201238D01*
X85370488Y-98249619D01*
X85273726Y-98249619D01*
X85176964Y-98201238D01*
X85128583Y-98152857D01*
X85080202Y-98056095D01*
X85031821Y-97862571D01*
X85031821Y-97620666D01*
X85080202Y-97427142D01*
X85128583Y-97330380D01*
X85176964Y-97282000D01*
X85273726Y-97233619D01*
X86531631Y-97233619D02*
X86047821Y-97233619D01*
X85999440Y-97717428D01*
X86047821Y-97669047D01*
X86144583Y-97620666D01*
X86386488Y-97620666D01*
X86483250Y-97669047D01*
X86531631Y-97717428D01*
X86580012Y-97814190D01*
X86580012Y-98056095D01*
X86531631Y-98152857D01*
X86483250Y-98201238D01*
X86386488Y-98249619D01*
X86144583Y-98249619D01*
X86047821Y-98201238D01*
X85999440Y-98152857D01*
X84596393Y-95709619D02*
X84596393Y-95177428D01*
X84548012Y-95080666D01*
X84451250Y-95032285D01*
X84257726Y-95032285D01*
X84160964Y-95080666D01*
X84596393Y-95661238D02*
X84499631Y-95709619D01*
X84257726Y-95709619D01*
X84160964Y-95661238D01*
X84112583Y-95564476D01*
X84112583Y-95467714D01*
X84160964Y-95370952D01*
X84257726Y-95322571D01*
X84499631Y-95322571D01*
X84596393Y-95274190D01*
X85273726Y-94693619D02*
X85370488Y-94693619D01*
X85467250Y-94742000D01*
X85515631Y-94790380D01*
X85564012Y-94887142D01*
X85612393Y-95080666D01*
X85612393Y-95322571D01*
X85564012Y-95516095D01*
X85515631Y-95612857D01*
X85467250Y-95661238D01*
X85370488Y-95709619D01*
X85273726Y-95709619D01*
X85176964Y-95661238D01*
X85128583Y-95612857D01*
X85080202Y-95516095D01*
X85031821Y-95322571D01*
X85031821Y-95080666D01*
X85080202Y-94887142D01*
X85128583Y-94790380D01*
X85176964Y-94742000D01*
X85273726Y-94693619D01*
X86483250Y-95032285D02*
X86483250Y-95709619D01*
X86241345Y-94645238D02*
X85999440Y-95370952D01*
X86628393Y-95370952D01*
X84596393Y-93169619D02*
X84596393Y-92637428D01*
X84548012Y-92540666D01*
X84451250Y-92492285D01*
X84257726Y-92492285D01*
X84160964Y-92540666D01*
X84596393Y-93121238D02*
X84499631Y-93169619D01*
X84257726Y-93169619D01*
X84160964Y-93121238D01*
X84112583Y-93024476D01*
X84112583Y-92927714D01*
X84160964Y-92830952D01*
X84257726Y-92782571D01*
X84499631Y-92782571D01*
X84596393Y-92734190D01*
X85273726Y-92153619D02*
X85370488Y-92153619D01*
X85467250Y-92202000D01*
X85515631Y-92250380D01*
X85564012Y-92347142D01*
X85612393Y-92540666D01*
X85612393Y-92782571D01*
X85564012Y-92976095D01*
X85515631Y-93072857D01*
X85467250Y-93121238D01*
X85370488Y-93169619D01*
X85273726Y-93169619D01*
X85176964Y-93121238D01*
X85128583Y-93072857D01*
X85080202Y-92976095D01*
X85031821Y-92782571D01*
X85031821Y-92540666D01*
X85080202Y-92347142D01*
X85128583Y-92250380D01*
X85176964Y-92202000D01*
X85273726Y-92153619D01*
X85951060Y-92153619D02*
X86580012Y-92153619D01*
X86241345Y-92540666D01*
X86386488Y-92540666D01*
X86483250Y-92589047D01*
X86531631Y-92637428D01*
X86580012Y-92734190D01*
X86580012Y-92976095D01*
X86531631Y-93072857D01*
X86483250Y-93121238D01*
X86386488Y-93169619D01*
X86096202Y-93169619D01*
X85999440Y-93121238D01*
X85951060Y-93072857D01*
X84596393Y-90629619D02*
X84596393Y-90097428D01*
X84548012Y-90000666D01*
X84451250Y-89952285D01*
X84257726Y-89952285D01*
X84160964Y-90000666D01*
X84596393Y-90581238D02*
X84499631Y-90629619D01*
X84257726Y-90629619D01*
X84160964Y-90581238D01*
X84112583Y-90484476D01*
X84112583Y-90387714D01*
X84160964Y-90290952D01*
X84257726Y-90242571D01*
X84499631Y-90242571D01*
X84596393Y-90194190D01*
X85273726Y-89613619D02*
X85370488Y-89613619D01*
X85467250Y-89662000D01*
X85515631Y-89710380D01*
X85564012Y-89807142D01*
X85612393Y-90000666D01*
X85612393Y-90242571D01*
X85564012Y-90436095D01*
X85515631Y-90532857D01*
X85467250Y-90581238D01*
X85370488Y-90629619D01*
X85273726Y-90629619D01*
X85176964Y-90581238D01*
X85128583Y-90532857D01*
X85080202Y-90436095D01*
X85031821Y-90242571D01*
X85031821Y-90000666D01*
X85080202Y-89807142D01*
X85128583Y-89710380D01*
X85176964Y-89662000D01*
X85273726Y-89613619D01*
X85999440Y-89710380D02*
X86047821Y-89662000D01*
X86144583Y-89613619D01*
X86386488Y-89613619D01*
X86483250Y-89662000D01*
X86531631Y-89710380D01*
X86580012Y-89807142D01*
X86580012Y-89903904D01*
X86531631Y-90049047D01*
X85951060Y-90629619D01*
X86580012Y-90629619D01*
X84596393Y-88089619D02*
X84596393Y-87557428D01*
X84548012Y-87460666D01*
X84451250Y-87412285D01*
X84257726Y-87412285D01*
X84160964Y-87460666D01*
X84596393Y-88041238D02*
X84499631Y-88089619D01*
X84257726Y-88089619D01*
X84160964Y-88041238D01*
X84112583Y-87944476D01*
X84112583Y-87847714D01*
X84160964Y-87750952D01*
X84257726Y-87702571D01*
X84499631Y-87702571D01*
X84596393Y-87654190D01*
X85273726Y-87073619D02*
X85370488Y-87073619D01*
X85467250Y-87122000D01*
X85515631Y-87170380D01*
X85564012Y-87267142D01*
X85612393Y-87460666D01*
X85612393Y-87702571D01*
X85564012Y-87896095D01*
X85515631Y-87992857D01*
X85467250Y-88041238D01*
X85370488Y-88089619D01*
X85273726Y-88089619D01*
X85176964Y-88041238D01*
X85128583Y-87992857D01*
X85080202Y-87896095D01*
X85031821Y-87702571D01*
X85031821Y-87460666D01*
X85080202Y-87267142D01*
X85128583Y-87170380D01*
X85176964Y-87122000D01*
X85273726Y-87073619D01*
X86580012Y-88089619D02*
X85999440Y-88089619D01*
X86289726Y-88089619D02*
X86289726Y-87073619D01*
X86192964Y-87218761D01*
X86096202Y-87315523D01*
X85999440Y-87363904D01*
X84596393Y-85549619D02*
X84596393Y-85017428D01*
X84548012Y-84920666D01*
X84451250Y-84872285D01*
X84257726Y-84872285D01*
X84160964Y-84920666D01*
X84596393Y-85501238D02*
X84499631Y-85549619D01*
X84257726Y-85549619D01*
X84160964Y-85501238D01*
X84112583Y-85404476D01*
X84112583Y-85307714D01*
X84160964Y-85210952D01*
X84257726Y-85162571D01*
X84499631Y-85162571D01*
X84596393Y-85114190D01*
X85273726Y-84533619D02*
X85370488Y-84533619D01*
X85467250Y-84582000D01*
X85515631Y-84630380D01*
X85564012Y-84727142D01*
X85612393Y-84920666D01*
X85612393Y-85162571D01*
X85564012Y-85356095D01*
X85515631Y-85452857D01*
X85467250Y-85501238D01*
X85370488Y-85549619D01*
X85273726Y-85549619D01*
X85176964Y-85501238D01*
X85128583Y-85452857D01*
X85080202Y-85356095D01*
X85031821Y-85162571D01*
X85031821Y-84920666D01*
X85080202Y-84727142D01*
X85128583Y-84630380D01*
X85176964Y-84582000D01*
X85273726Y-84533619D01*
X86241345Y-84533619D02*
X86338107Y-84533619D01*
X86434869Y-84582000D01*
X86483250Y-84630380D01*
X86531631Y-84727142D01*
X86580012Y-84920666D01*
X86580012Y-85162571D01*
X86531631Y-85356095D01*
X86483250Y-85452857D01*
X86434869Y-85501238D01*
X86338107Y-85549619D01*
X86241345Y-85549619D01*
X86144583Y-85501238D01*
X86096202Y-85452857D01*
X86047821Y-85356095D01*
X85999440Y-85162571D01*
X85999440Y-84920666D01*
X86047821Y-84727142D01*
X86096202Y-84630380D01*
X86144583Y-84582000D01*
X86241345Y-84533619D01*
X92851393Y-85549619D02*
X92851393Y-85017428D01*
X92803012Y-84920666D01*
X92706250Y-84872285D01*
X92512726Y-84872285D01*
X92415964Y-84920666D01*
X92851393Y-85501238D02*
X92754631Y-85549619D01*
X92512726Y-85549619D01*
X92415964Y-85501238D01*
X92367583Y-85404476D01*
X92367583Y-85307714D01*
X92415964Y-85210952D01*
X92512726Y-85162571D01*
X92754631Y-85162571D01*
X92851393Y-85114190D01*
X93528726Y-84533619D02*
X93625488Y-84533619D01*
X93722250Y-84582000D01*
X93770631Y-84630380D01*
X93819012Y-84727142D01*
X93867393Y-84920666D01*
X93867393Y-85162571D01*
X93819012Y-85356095D01*
X93770631Y-85452857D01*
X93722250Y-85501238D01*
X93625488Y-85549619D01*
X93528726Y-85549619D01*
X93431964Y-85501238D01*
X93383583Y-85452857D01*
X93335202Y-85356095D01*
X93286821Y-85162571D01*
X93286821Y-84920666D01*
X93335202Y-84727142D01*
X93383583Y-84630380D01*
X93431964Y-84582000D01*
X93528726Y-84533619D01*
X94447964Y-84969047D02*
X94351202Y-84920666D01*
X94302821Y-84872285D01*
X94254440Y-84775523D01*
X94254440Y-84727142D01*
X94302821Y-84630380D01*
X94351202Y-84582000D01*
X94447964Y-84533619D01*
X94641488Y-84533619D01*
X94738250Y-84582000D01*
X94786631Y-84630380D01*
X94835012Y-84727142D01*
X94835012Y-84775523D01*
X94786631Y-84872285D01*
X94738250Y-84920666D01*
X94641488Y-84969047D01*
X94447964Y-84969047D01*
X94351202Y-85017428D01*
X94302821Y-85065809D01*
X94254440Y-85162571D01*
X94254440Y-85356095D01*
X94302821Y-85452857D01*
X94351202Y-85501238D01*
X94447964Y-85549619D01*
X94641488Y-85549619D01*
X94738250Y-85501238D01*
X94786631Y-85452857D01*
X94835012Y-85356095D01*
X94835012Y-85162571D01*
X94786631Y-85065809D01*
X94738250Y-85017428D01*
X94641488Y-84969047D01*
X92851393Y-88089619D02*
X92851393Y-87557428D01*
X92803012Y-87460666D01*
X92706250Y-87412285D01*
X92512726Y-87412285D01*
X92415964Y-87460666D01*
X92851393Y-88041238D02*
X92754631Y-88089619D01*
X92512726Y-88089619D01*
X92415964Y-88041238D01*
X92367583Y-87944476D01*
X92367583Y-87847714D01*
X92415964Y-87750952D01*
X92512726Y-87702571D01*
X92754631Y-87702571D01*
X92851393Y-87654190D01*
X93528726Y-87073619D02*
X93625488Y-87073619D01*
X93722250Y-87122000D01*
X93770631Y-87170380D01*
X93819012Y-87267142D01*
X93867393Y-87460666D01*
X93867393Y-87702571D01*
X93819012Y-87896095D01*
X93770631Y-87992857D01*
X93722250Y-88041238D01*
X93625488Y-88089619D01*
X93528726Y-88089619D01*
X93431964Y-88041238D01*
X93383583Y-87992857D01*
X93335202Y-87896095D01*
X93286821Y-87702571D01*
X93286821Y-87460666D01*
X93335202Y-87267142D01*
X93383583Y-87170380D01*
X93431964Y-87122000D01*
X93528726Y-87073619D01*
X94351202Y-88089619D02*
X94544726Y-88089619D01*
X94641488Y-88041238D01*
X94689869Y-87992857D01*
X94786631Y-87847714D01*
X94835012Y-87654190D01*
X94835012Y-87267142D01*
X94786631Y-87170380D01*
X94738250Y-87122000D01*
X94641488Y-87073619D01*
X94447964Y-87073619D01*
X94351202Y-87122000D01*
X94302821Y-87170380D01*
X94254440Y-87267142D01*
X94254440Y-87509047D01*
X94302821Y-87605809D01*
X94351202Y-87654190D01*
X94447964Y-87702571D01*
X94641488Y-87702571D01*
X94738250Y-87654190D01*
X94786631Y-87605809D01*
X94835012Y-87509047D01*
X92851393Y-90629619D02*
X92851393Y-90097428D01*
X92803012Y-90000666D01*
X92706250Y-89952285D01*
X92512726Y-89952285D01*
X92415964Y-90000666D01*
X92851393Y-90581238D02*
X92754631Y-90629619D01*
X92512726Y-90629619D01*
X92415964Y-90581238D01*
X92367583Y-90484476D01*
X92367583Y-90387714D01*
X92415964Y-90290952D01*
X92512726Y-90242571D01*
X92754631Y-90242571D01*
X92851393Y-90194190D01*
X93867393Y-90629619D02*
X93286821Y-90629619D01*
X93577107Y-90629619D02*
X93577107Y-89613619D01*
X93480345Y-89758761D01*
X93383583Y-89855523D01*
X93286821Y-89903904D01*
X94496345Y-89613619D02*
X94593107Y-89613619D01*
X94689869Y-89662000D01*
X94738250Y-89710380D01*
X94786631Y-89807142D01*
X94835012Y-90000666D01*
X94835012Y-90242571D01*
X94786631Y-90436095D01*
X94738250Y-90532857D01*
X94689869Y-90581238D01*
X94593107Y-90629619D01*
X94496345Y-90629619D01*
X94399583Y-90581238D01*
X94351202Y-90532857D01*
X94302821Y-90436095D01*
X94254440Y-90242571D01*
X94254440Y-90000666D01*
X94302821Y-89807142D01*
X94351202Y-89710380D01*
X94399583Y-89662000D01*
X94496345Y-89613619D01*
X92851393Y-93169619D02*
X92851393Y-92637428D01*
X92803012Y-92540666D01*
X92706250Y-92492285D01*
X92512726Y-92492285D01*
X92415964Y-92540666D01*
X92851393Y-93121238D02*
X92754631Y-93169619D01*
X92512726Y-93169619D01*
X92415964Y-93121238D01*
X92367583Y-93024476D01*
X92367583Y-92927714D01*
X92415964Y-92830952D01*
X92512726Y-92782571D01*
X92754631Y-92782571D01*
X92851393Y-92734190D01*
X93867393Y-93169619D02*
X93286821Y-93169619D01*
X93577107Y-93169619D02*
X93577107Y-92153619D01*
X93480345Y-92298761D01*
X93383583Y-92395523D01*
X93286821Y-92443904D01*
X94835012Y-93169619D02*
X94254440Y-93169619D01*
X94544726Y-93169619D02*
X94544726Y-92153619D01*
X94447964Y-92298761D01*
X94351202Y-92395523D01*
X94254440Y-92443904D01*
X92851393Y-95709619D02*
X92851393Y-95177428D01*
X92803012Y-95080666D01*
X92706250Y-95032285D01*
X92512726Y-95032285D01*
X92415964Y-95080666D01*
X92851393Y-95661238D02*
X92754631Y-95709619D01*
X92512726Y-95709619D01*
X92415964Y-95661238D01*
X92367583Y-95564476D01*
X92367583Y-95467714D01*
X92415964Y-95370952D01*
X92512726Y-95322571D01*
X92754631Y-95322571D01*
X92851393Y-95274190D01*
X93867393Y-95709619D02*
X93286821Y-95709619D01*
X93577107Y-95709619D02*
X93577107Y-94693619D01*
X93480345Y-94838761D01*
X93383583Y-94935523D01*
X93286821Y-94983904D01*
X94254440Y-94790380D02*
X94302821Y-94742000D01*
X94399583Y-94693619D01*
X94641488Y-94693619D01*
X94738250Y-94742000D01*
X94786631Y-94790380D01*
X94835012Y-94887142D01*
X94835012Y-94983904D01*
X94786631Y-95129047D01*
X94206060Y-95709619D01*
X94835012Y-95709619D01*
X92851393Y-98249619D02*
X92851393Y-97717428D01*
X92803012Y-97620666D01*
X92706250Y-97572285D01*
X92512726Y-97572285D01*
X92415964Y-97620666D01*
X92851393Y-98201238D02*
X92754631Y-98249619D01*
X92512726Y-98249619D01*
X92415964Y-98201238D01*
X92367583Y-98104476D01*
X92367583Y-98007714D01*
X92415964Y-97910952D01*
X92512726Y-97862571D01*
X92754631Y-97862571D01*
X92851393Y-97814190D01*
X93867393Y-98249619D02*
X93286821Y-98249619D01*
X93577107Y-98249619D02*
X93577107Y-97233619D01*
X93480345Y-97378761D01*
X93383583Y-97475523D01*
X93286821Y-97523904D01*
X94206060Y-97233619D02*
X94835012Y-97233619D01*
X94496345Y-97620666D01*
X94641488Y-97620666D01*
X94738250Y-97669047D01*
X94786631Y-97717428D01*
X94835012Y-97814190D01*
X94835012Y-98056095D01*
X94786631Y-98152857D01*
X94738250Y-98201238D01*
X94641488Y-98249619D01*
X94351202Y-98249619D01*
X94254440Y-98201238D01*
X94206060Y-98152857D01*
X92851393Y-100789619D02*
X92851393Y-100257428D01*
X92803012Y-100160666D01*
X92706250Y-100112285D01*
X92512726Y-100112285D01*
X92415964Y-100160666D01*
X92851393Y-100741238D02*
X92754631Y-100789619D01*
X92512726Y-100789619D01*
X92415964Y-100741238D01*
X92367583Y-100644476D01*
X92367583Y-100547714D01*
X92415964Y-100450952D01*
X92512726Y-100402571D01*
X92754631Y-100402571D01*
X92851393Y-100354190D01*
X93867393Y-100789619D02*
X93286821Y-100789619D01*
X93577107Y-100789619D02*
X93577107Y-99773619D01*
X93480345Y-99918761D01*
X93383583Y-100015523D01*
X93286821Y-100063904D01*
X94738250Y-100112285D02*
X94738250Y-100789619D01*
X94496345Y-99725238D02*
X94254440Y-100450952D01*
X94883393Y-100450952D01*
X92851393Y-103329619D02*
X92851393Y-102797428D01*
X92803012Y-102700666D01*
X92706250Y-102652285D01*
X92512726Y-102652285D01*
X92415964Y-102700666D01*
X92851393Y-103281238D02*
X92754631Y-103329619D01*
X92512726Y-103329619D01*
X92415964Y-103281238D01*
X92367583Y-103184476D01*
X92367583Y-103087714D01*
X92415964Y-102990952D01*
X92512726Y-102942571D01*
X92754631Y-102942571D01*
X92851393Y-102894190D01*
X93867393Y-103329619D02*
X93286821Y-103329619D01*
X93577107Y-103329619D02*
X93577107Y-102313619D01*
X93480345Y-102458761D01*
X93383583Y-102555523D01*
X93286821Y-102603904D01*
X94786631Y-102313619D02*
X94302821Y-102313619D01*
X94254440Y-102797428D01*
X94302821Y-102749047D01*
X94399583Y-102700666D01*
X94641488Y-102700666D01*
X94738250Y-102749047D01*
X94786631Y-102797428D01*
X94835012Y-102894190D01*
X94835012Y-103136095D01*
X94786631Y-103232857D01*
X94738250Y-103281238D01*
X94641488Y-103329619D01*
X94399583Y-103329619D01*
X94302821Y-103281238D01*
X94254440Y-103232857D01*
X92319202Y-107097285D02*
X92512726Y-107774619D01*
X92706250Y-107290809D01*
X92899774Y-107774619D01*
X93093298Y-107097285D01*
X93480345Y-107774619D02*
X93480345Y-107097285D01*
X93480345Y-107290809D02*
X93528726Y-107194047D01*
X93577107Y-107145666D01*
X93673869Y-107097285D01*
X93770631Y-107097285D01*
X92415964Y-110314619D02*
X92415964Y-109637285D01*
X92415964Y-109734047D02*
X92464345Y-109685666D01*
X92561107Y-109637285D01*
X92706250Y-109637285D01*
X92803012Y-109685666D01*
X92851393Y-109782428D01*
X92851393Y-110314619D01*
X92851393Y-109782428D02*
X92899774Y-109685666D01*
X92996536Y-109637285D01*
X93141679Y-109637285D01*
X93238440Y-109685666D01*
X93286821Y-109782428D01*
X93286821Y-110314619D01*
X93770631Y-110314619D02*
X93770631Y-109637285D01*
X93770631Y-109830809D02*
X93819012Y-109734047D01*
X93867393Y-109685666D01*
X93964155Y-109637285D01*
X94060917Y-109637285D01*
X94786631Y-110266238D02*
X94689869Y-110314619D01*
X94496345Y-110314619D01*
X94399583Y-110266238D01*
X94351202Y-110169476D01*
X94351202Y-109782428D01*
X94399583Y-109685666D01*
X94496345Y-109637285D01*
X94689869Y-109637285D01*
X94786631Y-109685666D01*
X94835012Y-109782428D01*
X94835012Y-109879190D01*
X94351202Y-109975952D01*
X95705869Y-109637285D02*
X95705869Y-110653285D01*
X95705869Y-110266238D02*
X95609107Y-110314619D01*
X95415583Y-110314619D01*
X95318821Y-110266238D01*
X95270440Y-110217857D01*
X95222060Y-110121095D01*
X95222060Y-109830809D01*
X95270440Y-109734047D01*
X95318821Y-109685666D01*
X95415583Y-109637285D01*
X95609107Y-109637285D01*
X95705869Y-109685666D01*
X92415964Y-112854619D02*
X92415964Y-112177285D01*
X92415964Y-112370809D02*
X92464345Y-112274047D01*
X92512726Y-112225666D01*
X92609488Y-112177285D01*
X92706250Y-112177285D01*
X93480345Y-112854619D02*
X93480345Y-111838619D01*
X93480345Y-112806238D02*
X93383583Y-112854619D01*
X93190060Y-112854619D01*
X93093298Y-112806238D01*
X93044917Y-112757857D01*
X92996536Y-112661095D01*
X92996536Y-112370809D01*
X93044917Y-112274047D01*
X93093298Y-112225666D01*
X93190060Y-112177285D01*
X93383583Y-112177285D01*
X93480345Y-112225666D01*
X92415964Y-120474619D02*
X92415964Y-119458619D01*
X92415964Y-119845666D02*
X92512726Y-119797285D01*
X92706250Y-119797285D01*
X92803012Y-119845666D01*
X92851393Y-119894047D01*
X92899774Y-119990809D01*
X92899774Y-120281095D01*
X92851393Y-120377857D01*
X92803012Y-120426238D01*
X92706250Y-120474619D01*
X92512726Y-120474619D01*
X92415964Y-120426238D01*
X93770631Y-119797285D02*
X93770631Y-120474619D01*
X93335202Y-119797285D02*
X93335202Y-120329476D01*
X93383583Y-120426238D01*
X93480345Y-120474619D01*
X93625488Y-120474619D01*
X93722250Y-120426238D01*
X93770631Y-120377857D01*
X94206060Y-120426238D02*
X94302821Y-120474619D01*
X94496345Y-120474619D01*
X94593107Y-120426238D01*
X94641488Y-120329476D01*
X94641488Y-120281095D01*
X94593107Y-120184333D01*
X94496345Y-120135952D01*
X94351202Y-120135952D01*
X94254440Y-120087571D01*
X94206060Y-119990809D01*
X94206060Y-119942428D01*
X94254440Y-119845666D01*
X94351202Y-119797285D01*
X94496345Y-119797285D01*
X94593107Y-119845666D01*
X95076917Y-120474619D02*
X95076917Y-119797285D01*
X95076917Y-119990809D02*
X95125298Y-119894047D01*
X95173679Y-119845666D01*
X95270440Y-119797285D01*
X95367202Y-119797285D01*
X96141298Y-119797285D02*
X96141298Y-120813285D01*
X96141298Y-120426238D02*
X96044536Y-120474619D01*
X95851012Y-120474619D01*
X95754250Y-120426238D01*
X95705869Y-120377857D01*
X95657488Y-120281095D01*
X95657488Y-119990809D01*
X95705869Y-119894047D01*
X95754250Y-119845666D01*
X95851012Y-119797285D01*
X96044536Y-119797285D01*
X96141298Y-119845666D01*
X92415964Y-117934619D02*
X92415964Y-116918619D01*
X92415964Y-117305666D02*
X92512726Y-117257285D01*
X92706250Y-117257285D01*
X92803012Y-117305666D01*
X92851393Y-117354047D01*
X92899774Y-117450809D01*
X92899774Y-117741095D01*
X92851393Y-117837857D01*
X92803012Y-117886238D01*
X92706250Y-117934619D01*
X92512726Y-117934619D01*
X92415964Y-117886238D01*
X93770631Y-117257285D02*
X93770631Y-117934619D01*
X93335202Y-117257285D02*
X93335202Y-117789476D01*
X93383583Y-117886238D01*
X93480345Y-117934619D01*
X93625488Y-117934619D01*
X93722250Y-117886238D01*
X93770631Y-117837857D01*
X94206060Y-117886238D02*
X94302821Y-117934619D01*
X94496345Y-117934619D01*
X94593107Y-117886238D01*
X94641488Y-117789476D01*
X94641488Y-117741095D01*
X94593107Y-117644333D01*
X94496345Y-117595952D01*
X94351202Y-117595952D01*
X94254440Y-117547571D01*
X94206060Y-117450809D01*
X94206060Y-117402428D01*
X94254440Y-117305666D01*
X94351202Y-117257285D01*
X94496345Y-117257285D01*
X94593107Y-117305666D01*
X95512345Y-117934619D02*
X95512345Y-117402428D01*
X95463964Y-117305666D01*
X95367202Y-117257285D01*
X95173679Y-117257285D01*
X95076917Y-117305666D01*
X95512345Y-117886238D02*
X95415583Y-117934619D01*
X95173679Y-117934619D01*
X95076917Y-117886238D01*
X95028536Y-117789476D01*
X95028536Y-117692714D01*
X95076917Y-117595952D01*
X95173679Y-117547571D01*
X95415583Y-117547571D01*
X95512345Y-117499190D01*
X95996155Y-117934619D02*
X95996155Y-116918619D01*
X96092917Y-117547571D02*
X96383202Y-117934619D01*
X96383202Y-117257285D02*
X95996155Y-117644333D01*
X92415964Y-115394619D02*
X92415964Y-114717285D01*
X92415964Y-114378619D02*
X92367583Y-114427000D01*
X92415964Y-114475380D01*
X92464345Y-114427000D01*
X92415964Y-114378619D01*
X92415964Y-114475380D01*
X93044917Y-115394619D02*
X92948155Y-115346238D01*
X92899774Y-115297857D01*
X92851393Y-115201095D01*
X92851393Y-114910809D01*
X92899774Y-114814047D01*
X92948155Y-114765666D01*
X93044917Y-114717285D01*
X93190060Y-114717285D01*
X93286821Y-114765666D01*
X93335202Y-114814047D01*
X93383583Y-114910809D01*
X93383583Y-115201095D01*
X93335202Y-115297857D01*
X93286821Y-115346238D01*
X93190060Y-115394619D01*
X93044917Y-115394619D01*
X93819012Y-115394619D02*
X93819012Y-114717285D01*
X93819012Y-114910809D02*
X93867393Y-114814047D01*
X93915774Y-114765666D01*
X94012536Y-114717285D01*
X94109298Y-114717285D01*
X94883393Y-114717285D02*
X94883393Y-115733285D01*
X94883393Y-115346238D02*
X94786631Y-115394619D01*
X94593107Y-115394619D01*
X94496345Y-115346238D01*
X94447964Y-115297857D01*
X94399583Y-115201095D01*
X94399583Y-114910809D01*
X94447964Y-114814047D01*
X94496345Y-114765666D01*
X94593107Y-114717285D01*
X94786631Y-114717285D01*
X94883393Y-114765666D01*
X88978619Y-80197476D02*
X89994619Y-79858809D01*
X88978619Y-79520142D01*
X89994619Y-78649285D02*
X89994619Y-79229857D01*
X89994619Y-78939571D02*
X88978619Y-78939571D01*
X89123761Y-79036333D01*
X89220523Y-79133095D01*
X89268904Y-79229857D01*
X87067571Y-82435095D02*
X87067571Y-81661000D01*
X87454619Y-82048047D02*
X86680523Y-82048047D01*
X87454619Y-80645000D02*
X87454619Y-81225571D01*
X87454619Y-80935285D02*
X86438619Y-80935285D01*
X86583761Y-81032047D01*
X86680523Y-81128809D01*
X86728904Y-81225571D01*
X86535380Y-80257952D02*
X86487000Y-80209571D01*
X86438619Y-80112809D01*
X86438619Y-79870904D01*
X86487000Y-79774142D01*
X86535380Y-79725761D01*
X86632142Y-79677380D01*
X86728904Y-79677380D01*
X86874047Y-79725761D01*
X87454619Y-80306333D01*
X87454619Y-79677380D01*
X86438619Y-79387095D02*
X87454619Y-79048428D01*
X86438619Y-78709761D01*
X84527571Y-81316285D02*
X84527571Y-80542190D01*
X84914619Y-80929238D02*
X84140523Y-80929238D01*
X83898619Y-79574571D02*
X83898619Y-80058380D01*
X84382428Y-80106761D01*
X84334047Y-80058380D01*
X84285666Y-79961619D01*
X84285666Y-79719714D01*
X84334047Y-79622952D01*
X84382428Y-79574571D01*
X84479190Y-79526190D01*
X84721095Y-79526190D01*
X84817857Y-79574571D01*
X84866238Y-79622952D01*
X84914619Y-79719714D01*
X84914619Y-79961619D01*
X84866238Y-80058380D01*
X84817857Y-80106761D01*
X83898619Y-79235904D02*
X84914619Y-78897238D01*
X83898619Y-78558571D01*
X81407000Y-80784095D02*
X81358619Y-80880857D01*
X81358619Y-81026000D01*
X81407000Y-81171142D01*
X81503761Y-81267904D01*
X81600523Y-81316285D01*
X81794047Y-81364666D01*
X81939190Y-81364666D01*
X82132714Y-81316285D01*
X82229476Y-81267904D01*
X82326238Y-81171142D01*
X82374619Y-81026000D01*
X82374619Y-80929238D01*
X82326238Y-80784095D01*
X82277857Y-80735714D01*
X81939190Y-80735714D01*
X81939190Y-80929238D01*
X82374619Y-80300285D02*
X81358619Y-80300285D01*
X82374619Y-79719714D01*
X81358619Y-79719714D01*
X82374619Y-79235904D02*
X81358619Y-79235904D01*
X81358619Y-78994000D01*
X81407000Y-78848857D01*
X81503761Y-78752095D01*
X81600523Y-78703714D01*
X81794047Y-78655333D01*
X81939190Y-78655333D01*
X82132714Y-78703714D01*
X82229476Y-78752095D01*
X82326238Y-78848857D01*
X82374619Y-78994000D01*
X82374619Y-79235904D01*
D11*
X114984761Y-102284761D02*
X116318095Y-102284761D01*
X114984761Y-104284761D01*
X116318095Y-104284761D01*
X117365714Y-103141904D02*
X117175238Y-103046666D01*
X117080000Y-102951428D01*
X116984761Y-102760952D01*
X116984761Y-102665714D01*
X117080000Y-102475238D01*
X117175238Y-102380000D01*
X117365714Y-102284761D01*
X117746666Y-102284761D01*
X117937142Y-102380000D01*
X118032380Y-102475238D01*
X118127619Y-102665714D01*
X118127619Y-102760952D01*
X118032380Y-102951428D01*
X117937142Y-103046666D01*
X117746666Y-103141904D01*
X117365714Y-103141904D01*
X117175238Y-103237142D01*
X117080000Y-103332380D01*
X116984761Y-103522857D01*
X116984761Y-103903809D01*
X117080000Y-104094285D01*
X117175238Y-104189523D01*
X117365714Y-104284761D01*
X117746666Y-104284761D01*
X117937142Y-104189523D01*
X118032380Y-104094285D01*
X118127619Y-103903809D01*
X118127619Y-103522857D01*
X118032380Y-103332380D01*
X117937142Y-103237142D01*
X117746666Y-103141904D01*
X119365714Y-102284761D02*
X119556190Y-102284761D01*
X119746666Y-102380000D01*
X119841904Y-102475238D01*
X119937142Y-102665714D01*
X120032380Y-103046666D01*
X120032380Y-103522857D01*
X119937142Y-103903809D01*
X119841904Y-104094285D01*
X119746666Y-104189523D01*
X119556190Y-104284761D01*
X119365714Y-104284761D01*
X119175238Y-104189523D01*
X119080000Y-104094285D01*
X118984761Y-103903809D01*
X118889523Y-103522857D01*
X118889523Y-103046666D01*
X118984761Y-102665714D01*
X119080000Y-102475238D01*
X119175238Y-102380000D01*
X119365714Y-102284761D01*
X122413333Y-104284761D02*
X122413333Y-102284761D01*
X123079999Y-103713333D01*
X123746666Y-102284761D01*
X123746666Y-104284761D01*
X124984761Y-104284761D02*
X124794285Y-104189523D01*
X124699047Y-104094285D01*
X124603809Y-103903809D01*
X124603809Y-103332380D01*
X124699047Y-103141904D01*
X124794285Y-103046666D01*
X124984761Y-102951428D01*
X125270476Y-102951428D01*
X125460952Y-103046666D01*
X125556190Y-103141904D01*
X125651428Y-103332380D01*
X125651428Y-103903809D01*
X125556190Y-104094285D01*
X125460952Y-104189523D01*
X125270476Y-104284761D01*
X124984761Y-104284761D01*
X127365714Y-104284761D02*
X127365714Y-102284761D01*
X127365714Y-104189523D02*
X127175238Y-104284761D01*
X126794285Y-104284761D01*
X126603809Y-104189523D01*
X126508571Y-104094285D01*
X126413333Y-103903809D01*
X126413333Y-103332380D01*
X126508571Y-103141904D01*
X126603809Y-103046666D01*
X126794285Y-102951428D01*
X127175238Y-102951428D01*
X127365714Y-103046666D01*
X129175238Y-102951428D02*
X129175238Y-104284761D01*
X128318095Y-102951428D02*
X128318095Y-103999047D01*
X128413333Y-104189523D01*
X128603809Y-104284761D01*
X128889523Y-104284761D01*
X129080000Y-104189523D01*
X129175238Y-104094285D01*
X130413333Y-104284761D02*
X130222857Y-104189523D01*
X130127619Y-103999047D01*
X130127619Y-102284761D01*
X132032380Y-104284761D02*
X132032380Y-103237142D01*
X131937142Y-103046666D01*
X131746666Y-102951428D01*
X131365714Y-102951428D01*
X131175238Y-103046666D01*
X132032380Y-104189523D02*
X131841904Y-104284761D01*
X131365714Y-104284761D01*
X131175238Y-104189523D01*
X131079999Y-103999047D01*
X131079999Y-103808571D01*
X131175238Y-103618095D01*
X131365714Y-103522857D01*
X131841904Y-103522857D01*
X132032380Y-103427619D01*
X132984761Y-104284761D02*
X132984761Y-102951428D01*
X132984761Y-103332380D02*
X133079999Y-103141904D01*
X133175238Y-103046666D01*
X133365714Y-102951428D01*
X133556190Y-102951428D01*
X136889523Y-104094285D02*
X136794285Y-104189523D01*
X136508571Y-104284761D01*
X136318095Y-104284761D01*
X136032380Y-104189523D01*
X135841904Y-103999047D01*
X135746666Y-103808571D01*
X135651428Y-103427619D01*
X135651428Y-103141904D01*
X135746666Y-102760952D01*
X135841904Y-102570476D01*
X136032380Y-102380000D01*
X136318095Y-102284761D01*
X136508571Y-102284761D01*
X136794285Y-102380000D01*
X136889523Y-102475238D01*
X138032380Y-104284761D02*
X137841904Y-104189523D01*
X137746666Y-104094285D01*
X137651428Y-103903809D01*
X137651428Y-103332380D01*
X137746666Y-103141904D01*
X137841904Y-103046666D01*
X138032380Y-102951428D01*
X138318095Y-102951428D01*
X138508571Y-103046666D01*
X138603809Y-103141904D01*
X138699047Y-103332380D01*
X138699047Y-103903809D01*
X138603809Y-104094285D01*
X138508571Y-104189523D01*
X138318095Y-104284761D01*
X138032380Y-104284761D01*
X139556190Y-104284761D02*
X139556190Y-102951428D01*
X139556190Y-103141904D02*
X139651428Y-103046666D01*
X139841904Y-102951428D01*
X140127619Y-102951428D01*
X140318095Y-103046666D01*
X140413333Y-103237142D01*
X140413333Y-104284761D01*
X140413333Y-103237142D02*
X140508571Y-103046666D01*
X140699047Y-102951428D01*
X140984761Y-102951428D01*
X141175238Y-103046666D01*
X141270476Y-103237142D01*
X141270476Y-104284761D01*
X142222857Y-102951428D02*
X142222857Y-104951428D01*
X142222857Y-103046666D02*
X142413333Y-102951428D01*
X142794285Y-102951428D01*
X142984761Y-103046666D01*
X143080000Y-103141904D01*
X143175238Y-103332380D01*
X143175238Y-103903809D01*
X143080000Y-104094285D01*
X142984761Y-104189523D01*
X142794285Y-104284761D01*
X142413333Y-104284761D01*
X142222857Y-104189523D01*
X144889523Y-102951428D02*
X144889523Y-104284761D01*
X144032380Y-102951428D02*
X144032380Y-103999047D01*
X144127619Y-104189523D01*
X144318095Y-104284761D01*
X144603809Y-104284761D01*
X144794285Y-104189523D01*
X144889523Y-104094285D01*
X145556190Y-102951428D02*
X146318095Y-102951428D01*
X145841904Y-102284761D02*
X145841904Y-103999047D01*
X145937142Y-104189523D01*
X146127619Y-104284761D01*
X146318095Y-104284761D01*
X147746666Y-104189523D02*
X147556190Y-104284761D01*
X147175238Y-104284761D01*
X146984761Y-104189523D01*
X146889523Y-103999047D01*
X146889523Y-103237142D01*
X146984761Y-103046666D01*
X147175238Y-102951428D01*
X147556190Y-102951428D01*
X147746666Y-103046666D01*
X147841904Y-103237142D01*
X147841904Y-103427619D01*
X146889523Y-103618095D01*
X148699047Y-104284761D02*
X148699047Y-102951428D01*
X148699047Y-103332380D02*
X148794285Y-103141904D01*
X148889523Y-103046666D01*
X149080000Y-102951428D01*
X149270476Y-102951428D01*
X120318095Y-110884761D02*
X120318095Y-108884761D01*
X121080000Y-108884761D01*
X121270476Y-108980000D01*
X121365714Y-109075238D01*
X121460952Y-109265714D01*
X121460952Y-109551428D01*
X121365714Y-109741904D01*
X121270476Y-109837142D01*
X121080000Y-109932380D01*
X120318095Y-109932380D01*
X122318095Y-110884761D02*
X122318095Y-109551428D01*
X122318095Y-109932380D02*
X122413333Y-109741904D01*
X122508571Y-109646666D01*
X122699047Y-109551428D01*
X122889523Y-109551428D01*
X123841904Y-110884761D02*
X123651428Y-110789523D01*
X123556190Y-110694285D01*
X123460952Y-110503809D01*
X123460952Y-109932380D01*
X123556190Y-109741904D01*
X123651428Y-109646666D01*
X123841904Y-109551428D01*
X124127619Y-109551428D01*
X124318095Y-109646666D01*
X124413333Y-109741904D01*
X124508571Y-109932380D01*
X124508571Y-110503809D01*
X124413333Y-110694285D01*
X124318095Y-110789523D01*
X124127619Y-110884761D01*
X123841904Y-110884761D01*
X125080000Y-109551428D02*
X125841904Y-109551428D01*
X125365714Y-108884761D02*
X125365714Y-110599047D01*
X125460952Y-110789523D01*
X125651428Y-110884761D01*
X125841904Y-110884761D01*
X126794285Y-110884761D02*
X126603809Y-110789523D01*
X126508571Y-110694285D01*
X126413333Y-110503809D01*
X126413333Y-109932380D01*
X126508571Y-109741904D01*
X126603809Y-109646666D01*
X126794285Y-109551428D01*
X127080000Y-109551428D01*
X127270476Y-109646666D01*
X127365714Y-109741904D01*
X127460952Y-109932380D01*
X127460952Y-110503809D01*
X127365714Y-110694285D01*
X127270476Y-110789523D01*
X127080000Y-110884761D01*
X126794285Y-110884761D01*
X128318095Y-110884761D02*
X128318095Y-108884761D01*
X128318095Y-109646666D02*
X128508571Y-109551428D01*
X128889523Y-109551428D01*
X129080000Y-109646666D01*
X129175238Y-109741904D01*
X129270476Y-109932380D01*
X129270476Y-110503809D01*
X129175238Y-110694285D01*
X129080000Y-110789523D01*
X128889523Y-110884761D01*
X128508571Y-110884761D01*
X128318095Y-110789523D01*
X130413333Y-110884761D02*
X130222857Y-110789523D01*
X130127619Y-110694285D01*
X130032380Y-110503809D01*
X130032380Y-109932380D01*
X130127619Y-109741904D01*
X130222857Y-109646666D01*
X130413333Y-109551428D01*
X130699047Y-109551428D01*
X130889523Y-109646666D01*
X130984761Y-109741904D01*
X131080000Y-109932380D01*
X131080000Y-110503809D01*
X130984761Y-110694285D01*
X130889523Y-110789523D01*
X130699047Y-110884761D01*
X130413333Y-110884761D01*
X132794285Y-110884761D02*
X132794285Y-109837142D01*
X132699047Y-109646666D01*
X132508571Y-109551428D01*
X132127619Y-109551428D01*
X131937142Y-109646666D01*
X132794285Y-110789523D02*
X132603809Y-110884761D01*
X132127619Y-110884761D01*
X131937142Y-110789523D01*
X131841904Y-110599047D01*
X131841904Y-110408571D01*
X131937142Y-110218095D01*
X132127619Y-110122857D01*
X132603809Y-110122857D01*
X132794285Y-110027619D01*
X133746666Y-110884761D02*
X133746666Y-109551428D01*
X133746666Y-109932380D02*
X133841904Y-109741904D01*
X133937142Y-109646666D01*
X134127619Y-109551428D01*
X134318095Y-109551428D01*
X135841904Y-110884761D02*
X135841904Y-108884761D01*
X135841904Y-110789523D02*
X135651428Y-110884761D01*
X135270476Y-110884761D01*
X135080000Y-110789523D01*
X134984761Y-110694285D01*
X134889523Y-110503809D01*
X134889523Y-109932380D01*
X134984761Y-109741904D01*
X135080000Y-109646666D01*
X135270476Y-109551428D01*
X135651428Y-109551428D01*
X135841904Y-109646666D01*
X138032380Y-108884761D02*
X138699047Y-110884761D01*
X139365714Y-108884761D01*
X139937142Y-109075238D02*
X140032380Y-108980000D01*
X140222857Y-108884761D01*
X140699047Y-108884761D01*
X140889523Y-108980000D01*
X140984761Y-109075238D01*
X141080000Y-109265714D01*
X141080000Y-109456190D01*
X140984761Y-109741904D01*
X139841904Y-110884761D01*
X141080000Y-110884761D01*
X141937142Y-110694285D02*
X142032380Y-110789523D01*
X141937142Y-110884761D01*
X141841904Y-110789523D01*
X141937142Y-110694285D01*
X141937142Y-110884761D01*
X143270476Y-108884761D02*
X143460952Y-108884761D01*
X143651428Y-108980000D01*
X143746666Y-109075238D01*
X143841904Y-109265714D01*
X143937142Y-109646666D01*
X143937142Y-110122857D01*
X143841904Y-110503809D01*
X143746666Y-110694285D01*
X143651428Y-110789523D01*
X143460952Y-110884761D01*
X143270476Y-110884761D01*
X143080000Y-110789523D01*
X142984761Y-110694285D01*
X142889523Y-110503809D01*
X142794285Y-110122857D01*
X142794285Y-109646666D01*
X142889523Y-109265714D01*
X142984761Y-109075238D01*
X143080000Y-108980000D01*
X143270476Y-108884761D01*
D10*
X121242666Y-132793619D02*
X121242666Y-133519333D01*
X121194285Y-133664476D01*
X121097523Y-133761238D01*
X120952380Y-133809619D01*
X120855619Y-133809619D01*
X122161904Y-133809619D02*
X122161904Y-133277428D01*
X122113523Y-133180666D01*
X122016761Y-133132285D01*
X121823238Y-133132285D01*
X121726476Y-133180666D01*
X122161904Y-133761238D02*
X122065142Y-133809619D01*
X121823238Y-133809619D01*
X121726476Y-133761238D01*
X121678095Y-133664476D01*
X121678095Y-133567714D01*
X121726476Y-133470952D01*
X121823238Y-133422571D01*
X122065142Y-133422571D01*
X122161904Y-133374190D01*
X122645714Y-133132285D02*
X122645714Y-133809619D01*
X122645714Y-133229047D02*
X122694095Y-133180666D01*
X122790857Y-133132285D01*
X122936000Y-133132285D01*
X123032761Y-133180666D01*
X123081142Y-133277428D01*
X123081142Y-133809619D01*
X124000380Y-133132285D02*
X124000380Y-133809619D01*
X123564952Y-133132285D02*
X123564952Y-133664476D01*
X123613333Y-133761238D01*
X123710095Y-133809619D01*
X123855238Y-133809619D01*
X123952000Y-133761238D01*
X124000380Y-133712857D01*
X124919619Y-133809619D02*
X124919619Y-133277428D01*
X124871238Y-133180666D01*
X124774476Y-133132285D01*
X124580952Y-133132285D01*
X124484190Y-133180666D01*
X124919619Y-133761238D02*
X124822857Y-133809619D01*
X124580952Y-133809619D01*
X124484190Y-133761238D01*
X124435809Y-133664476D01*
X124435809Y-133567714D01*
X124484190Y-133470952D01*
X124580952Y-133422571D01*
X124822857Y-133422571D01*
X124919619Y-133374190D01*
X125403428Y-133809619D02*
X125403428Y-133132285D01*
X125403428Y-133325809D02*
X125451809Y-133229047D01*
X125500190Y-133180666D01*
X125596952Y-133132285D01*
X125693714Y-133132285D01*
X125935619Y-133132285D02*
X126177523Y-133809619D01*
X126419428Y-133132285D02*
X126177523Y-133809619D01*
X126080761Y-134051523D01*
X126032380Y-134099904D01*
X125935619Y-134148285D01*
X127532190Y-132745238D02*
X126661333Y-134051523D01*
X127822476Y-132890380D02*
X127870857Y-132842000D01*
X127967619Y-132793619D01*
X128209523Y-132793619D01*
X128306285Y-132842000D01*
X128354666Y-132890380D01*
X128403047Y-132987142D01*
X128403047Y-133083904D01*
X128354666Y-133229047D01*
X127774095Y-133809619D01*
X128403047Y-133809619D01*
X129032000Y-132793619D02*
X129128761Y-132793619D01*
X129225523Y-132842000D01*
X129273904Y-132890380D01*
X129322285Y-132987142D01*
X129370666Y-133180666D01*
X129370666Y-133422571D01*
X129322285Y-133616095D01*
X129273904Y-133712857D01*
X129225523Y-133761238D01*
X129128761Y-133809619D01*
X129032000Y-133809619D01*
X128935238Y-133761238D01*
X128886857Y-133712857D01*
X128838476Y-133616095D01*
X128790095Y-133422571D01*
X128790095Y-133180666D01*
X128838476Y-132987142D01*
X128886857Y-132890380D01*
X128935238Y-132842000D01*
X129032000Y-132793619D01*
X129757714Y-132890380D02*
X129806095Y-132842000D01*
X129902857Y-132793619D01*
X130144761Y-132793619D01*
X130241523Y-132842000D01*
X130289904Y-132890380D01*
X130338285Y-132987142D01*
X130338285Y-133083904D01*
X130289904Y-133229047D01*
X129709333Y-133809619D01*
X130338285Y-133809619D01*
X131305904Y-133809619D02*
X130725333Y-133809619D01*
X131015619Y-133809619D02*
X131015619Y-132793619D01*
X130918857Y-132938761D01*
X130822095Y-133035523D01*
X130725333Y-133083904D01*
X132515428Y-133422571D02*
X133289523Y-133422571D01*
X134886095Y-133277428D02*
X135031238Y-133325809D01*
X135079619Y-133374190D01*
X135128000Y-133470952D01*
X135128000Y-133616095D01*
X135079619Y-133712857D01*
X135031238Y-133761238D01*
X134934476Y-133809619D01*
X134547428Y-133809619D01*
X134547428Y-132793619D01*
X134886095Y-132793619D01*
X134982857Y-132842000D01*
X135031238Y-132890380D01*
X135079619Y-132987142D01*
X135079619Y-133083904D01*
X135031238Y-133180666D01*
X134982857Y-133229047D01*
X134886095Y-133277428D01*
X134547428Y-133277428D01*
X135466666Y-133132285D02*
X135708571Y-133809619D01*
X135950476Y-133132285D02*
X135708571Y-133809619D01*
X135611809Y-134051523D01*
X135563428Y-134099904D01*
X135466666Y-134148285D01*
X137111619Y-133809619D02*
X137111619Y-132793619D01*
X137692190Y-133809619D02*
X137256761Y-133229047D01*
X137692190Y-132793619D02*
X137111619Y-133374190D01*
X138563047Y-133809619D02*
X138563047Y-133277428D01*
X138514666Y-133180666D01*
X138417904Y-133132285D01*
X138224380Y-133132285D01*
X138127619Y-133180666D01*
X138563047Y-133761238D02*
X138466285Y-133809619D01*
X138224380Y-133809619D01*
X138127619Y-133761238D01*
X138079238Y-133664476D01*
X138079238Y-133567714D01*
X138127619Y-133470952D01*
X138224380Y-133422571D01*
X138466285Y-133422571D01*
X138563047Y-133374190D01*
X139192000Y-133809619D02*
X139095238Y-133761238D01*
X139046857Y-133664476D01*
X139046857Y-132793619D01*
X139433904Y-133132285D02*
X139820952Y-133132285D01*
X139579047Y-132793619D02*
X139579047Y-133664476D01*
X139627428Y-133761238D01*
X139724190Y-133809619D01*
X139820952Y-133809619D01*
X140595047Y-133761238D02*
X140498285Y-133809619D01*
X140304761Y-133809619D01*
X140208000Y-133761238D01*
X140159619Y-133712857D01*
X140111238Y-133616095D01*
X140111238Y-133325809D01*
X140159619Y-133229047D01*
X140208000Y-133180666D01*
X140304761Y-133132285D01*
X140498285Y-133132285D01*
X140595047Y-133180666D01*
X141030476Y-133809619D02*
X141030476Y-132793619D01*
X141465904Y-133809619D02*
X141465904Y-133277428D01*
X141417523Y-133180666D01*
X141320761Y-133132285D01*
X141175619Y-133132285D01*
X141078857Y-133180666D01*
X141030476Y-133229047D01*
X142385142Y-133132285D02*
X142385142Y-133809619D01*
X141949714Y-133132285D02*
X141949714Y-133664476D01*
X141998095Y-133761238D01*
X142094857Y-133809619D01*
X142240000Y-133809619D01*
X142336761Y-133761238D01*
X142385142Y-133712857D01*
X142868952Y-133809619D02*
X142868952Y-132793619D01*
X142965714Y-133422571D02*
X143256000Y-133809619D01*
X143256000Y-133132285D02*
X142868952Y-133519333D01*
D12*
X104140000Y-137612380D02*
X104140000Y-136612380D01*
X83415476Y-74112380D02*
X83415476Y-73112380D01*
X83796428Y-73112380D01*
X83891666Y-73160000D01*
X83939285Y-73207619D01*
X83986904Y-73302857D01*
X83986904Y-73445714D01*
X83939285Y-73540952D01*
X83891666Y-73588571D01*
X83796428Y-73636190D01*
X83415476Y-73636190D01*
X84605952Y-73112380D02*
X84796428Y-73112380D01*
X84891666Y-73160000D01*
X84986904Y-73255238D01*
X85034523Y-73445714D01*
X85034523Y-73779047D01*
X84986904Y-73969523D01*
X84891666Y-74064761D01*
X84796428Y-74112380D01*
X84605952Y-74112380D01*
X84510714Y-74064761D01*
X84415476Y-73969523D01*
X84367857Y-73779047D01*
X84367857Y-73445714D01*
X84415476Y-73255238D01*
X84510714Y-73160000D01*
X84605952Y-73112380D01*
X85367857Y-73112380D02*
X85605952Y-74112380D01*
X85796428Y-73398095D01*
X85986904Y-74112380D01*
X86225000Y-73112380D01*
X86605952Y-73588571D02*
X86939285Y-73588571D01*
X87082142Y-74112380D02*
X86605952Y-74112380D01*
X86605952Y-73112380D01*
X87082142Y-73112380D01*
X88082142Y-74112380D02*
X87748809Y-73636190D01*
X87510714Y-74112380D02*
X87510714Y-73112380D01*
X87891666Y-73112380D01*
X87986904Y-73160000D01*
X88034523Y-73207619D01*
X88082142Y-73302857D01*
X88082142Y-73445714D01*
X88034523Y-73540952D01*
X87986904Y-73588571D01*
X87891666Y-73636190D01*
X87510714Y-73636190D01*
D13*
X88840000Y-123130000D02*
X90170000Y-123130000D01*
X88840000Y-124460000D02*
X88840000Y-123130000D01*
X88840000Y-125730000D02*
X91500000Y-125730000D01*
X91500000Y-125730000D02*
X91500000Y-138490000D01*
X88840000Y-125730000D02*
X88840000Y-138490000D01*
X88840000Y-138490000D02*
X91500000Y-138490000D01*
X80585000Y-128210000D02*
X81915000Y-128210000D01*
X80585000Y-129540000D02*
X80585000Y-128210000D01*
X80585000Y-130810000D02*
X83245000Y-130810000D01*
X83245000Y-130810000D02*
X83245000Y-138490000D01*
X80585000Y-130810000D02*
X80585000Y-138490000D01*
X80585000Y-138490000D02*
X83245000Y-138490000D01*
X72965000Y-139760000D02*
X78165000Y-139760000D01*
X72965000Y-91440000D02*
X72965000Y-139760000D01*
X78165000Y-88840000D02*
X78165000Y-139760000D01*
X72965000Y-91440000D02*
X75565000Y-91440000D01*
X75565000Y-91440000D02*
X75565000Y-88840000D01*
X75565000Y-88840000D02*
X78165000Y-88840000D01*
X72965000Y-90170000D02*
X72965000Y-88840000D01*
X72965000Y-88840000D02*
X74295000Y-88840000D01*
X88840000Y-121345000D02*
X91500000Y-121345000D01*
X88840000Y-108585000D02*
X88840000Y-121345000D01*
X91500000Y-108585000D02*
X91500000Y-121345000D01*
X88840000Y-108585000D02*
X91500000Y-108585000D01*
X88840000Y-107315000D02*
X88840000Y-105985000D01*
X88840000Y-105985000D02*
X90170000Y-105985000D01*
X80585000Y-104200000D02*
X83245000Y-104200000D01*
X80585000Y-86360000D02*
X80585000Y-104200000D01*
X83245000Y-86360000D02*
X83245000Y-104200000D01*
X80585000Y-86360000D02*
X83245000Y-86360000D01*
X80585000Y-85090000D02*
X80585000Y-83760000D01*
X80585000Y-83760000D02*
X81915000Y-83760000D01*
X88840000Y-83760000D02*
X90170000Y-83760000D01*
X88840000Y-85090000D02*
X88840000Y-83760000D01*
X88840000Y-86360000D02*
X91500000Y-86360000D01*
X91500000Y-86360000D02*
X91500000Y-104200000D01*
X88840000Y-86360000D02*
X88840000Y-104200000D01*
X88840000Y-104200000D02*
X91500000Y-104200000D01*
X80585000Y-126425000D02*
X83245000Y-126425000D01*
X80585000Y-108585000D02*
X80585000Y-126425000D01*
X83245000Y-108585000D02*
X83245000Y-126425000D01*
X80585000Y-108585000D02*
X83245000Y-108585000D01*
X80585000Y-107315000D02*
X80585000Y-105985000D01*
X80585000Y-105985000D02*
X81915000Y-105985000D01*
X72965000Y-86420000D02*
X78165000Y-86420000D01*
X72965000Y-76200000D02*
X72965000Y-86420000D01*
X78165000Y-73600000D02*
X78165000Y-86420000D01*
X72965000Y-76200000D02*
X75565000Y-76200000D01*
X75565000Y-76200000D02*
X75565000Y-73600000D01*
X75565000Y-73600000D02*
X78165000Y-73600000D01*
X72965000Y-74930000D02*
X72965000Y-73600000D01*
X72965000Y-73600000D02*
X74295000Y-73600000D01*
X90865000Y-77530000D02*
X90865000Y-74870000D01*
X83185000Y-77530000D02*
X90865000Y-77530000D01*
X83185000Y-74870000D02*
X90865000Y-74870000D01*
X83185000Y-77530000D02*
X83185000Y-74870000D01*
X81915000Y-77530000D02*
X80585000Y-77530000D01*
X80585000Y-77530000D02*
X80585000Y-76200000D01*
D12*
X89836666Y-121582380D02*
X89836666Y-122296666D01*
X89789047Y-122439523D01*
X89693809Y-122534761D01*
X89550952Y-122582380D01*
X89455714Y-122582380D01*
X90360476Y-122582380D02*
X90550952Y-122582380D01*
X90646190Y-122534761D01*
X90693809Y-122487142D01*
X90789047Y-122344285D01*
X90836666Y-122153809D01*
X90836666Y-121772857D01*
X90789047Y-121677619D01*
X90741428Y-121630000D01*
X90646190Y-121582380D01*
X90455714Y-121582380D01*
X90360476Y-121630000D01*
X90312857Y-121677619D01*
X90265238Y-121772857D01*
X90265238Y-122010952D01*
X90312857Y-122106190D01*
X90360476Y-122153809D01*
X90455714Y-122201428D01*
X90646190Y-122201428D01*
X90741428Y-122153809D01*
X90789047Y-122106190D01*
X90836666Y-122010952D01*
X81581666Y-126662380D02*
X81581666Y-127376666D01*
X81534047Y-127519523D01*
X81438809Y-127614761D01*
X81295952Y-127662380D01*
X81200714Y-127662380D01*
X82200714Y-127090952D02*
X82105476Y-127043333D01*
X82057857Y-126995714D01*
X82010238Y-126900476D01*
X82010238Y-126852857D01*
X82057857Y-126757619D01*
X82105476Y-126710000D01*
X82200714Y-126662380D01*
X82391190Y-126662380D01*
X82486428Y-126710000D01*
X82534047Y-126757619D01*
X82581666Y-126852857D01*
X82581666Y-126900476D01*
X82534047Y-126995714D01*
X82486428Y-127043333D01*
X82391190Y-127090952D01*
X82200714Y-127090952D01*
X82105476Y-127138571D01*
X82057857Y-127186190D01*
X82010238Y-127281428D01*
X82010238Y-127471904D01*
X82057857Y-127567142D01*
X82105476Y-127614761D01*
X82200714Y-127662380D01*
X82391190Y-127662380D01*
X82486428Y-127614761D01*
X82534047Y-127567142D01*
X82581666Y-127471904D01*
X82581666Y-127281428D01*
X82534047Y-127186190D01*
X82486428Y-127138571D01*
X82391190Y-127090952D01*
X75231666Y-87292380D02*
X75231666Y-88006666D01*
X75184047Y-88149523D01*
X75088809Y-88244761D01*
X74945952Y-88292380D01*
X74850714Y-88292380D01*
X75660238Y-87387619D02*
X75707857Y-87340000D01*
X75803095Y-87292380D01*
X76041190Y-87292380D01*
X76136428Y-87340000D01*
X76184047Y-87387619D01*
X76231666Y-87482857D01*
X76231666Y-87578095D01*
X76184047Y-87720952D01*
X75612619Y-88292380D01*
X76231666Y-88292380D01*
X89836666Y-104437380D02*
X89836666Y-105151666D01*
X89789047Y-105294523D01*
X89693809Y-105389761D01*
X89550952Y-105437380D01*
X89455714Y-105437380D01*
X90217619Y-104437380D02*
X90884285Y-104437380D01*
X90455714Y-105437380D01*
X81581666Y-82212380D02*
X81581666Y-82926666D01*
X81534047Y-83069523D01*
X81438809Y-83164761D01*
X81295952Y-83212380D01*
X81200714Y-83212380D01*
X82486428Y-82545714D02*
X82486428Y-83212380D01*
X82248333Y-82164761D02*
X82010238Y-82879047D01*
X82629285Y-82879047D01*
X89836666Y-82212380D02*
X89836666Y-82926666D01*
X89789047Y-83069523D01*
X89693809Y-83164761D01*
X89550952Y-83212380D01*
X89455714Y-83212380D01*
X90789047Y-82212380D02*
X90312857Y-82212380D01*
X90265238Y-82688571D01*
X90312857Y-82640952D01*
X90408095Y-82593333D01*
X90646190Y-82593333D01*
X90741428Y-82640952D01*
X90789047Y-82688571D01*
X90836666Y-82783809D01*
X90836666Y-83021904D01*
X90789047Y-83117142D01*
X90741428Y-83164761D01*
X90646190Y-83212380D01*
X90408095Y-83212380D01*
X90312857Y-83164761D01*
X90265238Y-83117142D01*
X81581666Y-104437380D02*
X81581666Y-105151666D01*
X81534047Y-105294523D01*
X81438809Y-105389761D01*
X81295952Y-105437380D01*
X81200714Y-105437380D01*
X82486428Y-104437380D02*
X82295952Y-104437380D01*
X82200714Y-104485000D01*
X82153095Y-104532619D01*
X82057857Y-104675476D01*
X82010238Y-104865952D01*
X82010238Y-105246904D01*
X82057857Y-105342142D01*
X82105476Y-105389761D01*
X82200714Y-105437380D01*
X82391190Y-105437380D01*
X82486428Y-105389761D01*
X82534047Y-105342142D01*
X82581666Y-105246904D01*
X82581666Y-105008809D01*
X82534047Y-104913571D01*
X82486428Y-104865952D01*
X82391190Y-104818333D01*
X82200714Y-104818333D01*
X82105476Y-104865952D01*
X82057857Y-104913571D01*
X82010238Y-105008809D01*
X79041666Y-73112380D02*
X79041666Y-73826666D01*
X78994047Y-73969523D01*
X78898809Y-74064761D01*
X78755952Y-74112380D01*
X78660714Y-74112380D01*
X80041666Y-74112380D02*
X79470238Y-74112380D01*
X79755952Y-74112380D02*
X79755952Y-73112380D01*
X79660714Y-73255238D01*
X79565476Y-73350476D01*
X79470238Y-73398095D01*
X91741666Y-73112380D02*
X91741666Y-73826666D01*
X91694047Y-73969523D01*
X91598809Y-74064761D01*
X91455952Y-74112380D01*
X91360714Y-74112380D01*
X92122619Y-73112380D02*
X92741666Y-73112380D01*
X92408333Y-73493333D01*
X92551190Y-73493333D01*
X92646428Y-73540952D01*
X92694047Y-73588571D01*
X92741666Y-73683809D01*
X92741666Y-73921904D01*
X92694047Y-74017142D01*
X92646428Y-74064761D01*
X92551190Y-74112380D01*
X92265476Y-74112380D01*
X92170238Y-74064761D01*
X92122619Y-74017142D01*
M02*
