G04 #@! TF.GenerationSoftware,KiCad,Pcbnew,(5.1.4)-1*
G04 #@! TF.CreationDate,2021-09-17T15:34:01+03:00*
G04 #@! TF.ProjectId,MEM,4d454d2e-6b69-4636-9164-5f7063625858,rev?*
G04 #@! TF.SameCoordinates,Original*
G04 #@! TF.FileFunction,Copper,L2,Bot*
G04 #@! TF.FilePolarity,Positive*
%FSLAX46Y46*%
G04 Gerber Fmt 4.6, Leading zero omitted, Abs format (unit mm)*
G04 Created by KiCad (PCBNEW (5.1.4)-1) date 2021-09-17 15:34:01*
%MOMM*%
%LPD*%
G04 APERTURE LIST*
%ADD10R,1.700000X1.700000*%
%ADD11O,1.700000X1.700000*%
%ADD12R,1.600000X1.600000*%
%ADD13C,1.600000*%
%ADD14R,1.800000X1.800000*%
%ADD15C,1.800000*%
%ADD16O,1.600000X1.600000*%
%ADD17O,1.600000X2.400000*%
%ADD18R,1.600000X2.400000*%
%ADD19R,1.440000X2.000000*%
%ADD20O,1.440000X2.000000*%
%ADD21C,5.080000*%
%ADD22C,0.800000*%
%ADD23C,0.375000*%
%ADD24C,0.250000*%
%ADD25C,0.254000*%
G04 APERTURE END LIST*
D10*
X102870000Y-59055000D03*
D11*
X105410000Y-59055000D03*
X102870000Y-61595000D03*
X105410000Y-61595000D03*
X102870000Y-64135000D03*
X105410000Y-64135000D03*
X102870000Y-66675000D03*
X105410000Y-66675000D03*
X102870000Y-69215000D03*
X105410000Y-69215000D03*
D12*
X111760000Y-73660000D03*
D13*
X111760000Y-71160000D03*
X139065000Y-62230000D03*
X139065000Y-64730000D03*
X125095000Y-81280000D03*
X125095000Y-83780000D03*
X111760000Y-62270000D03*
X111760000Y-64770000D03*
X171450000Y-90765000D03*
X171450000Y-88265000D03*
X163830000Y-62230000D03*
X163830000Y-64730000D03*
X171450000Y-76835000D03*
X171450000Y-79335000D03*
X121920000Y-109180000D03*
X121920000Y-106680000D03*
D14*
X186055000Y-101600000D03*
D15*
X183515000Y-101600000D03*
X183515000Y-105410000D03*
D14*
X186055000Y-105410000D03*
D15*
X183515000Y-109855000D03*
D14*
X186055000Y-109855000D03*
X186055000Y-114300000D03*
D15*
X183515000Y-114300000D03*
D10*
X118745000Y-98425000D03*
D11*
X116205000Y-98425000D03*
X118745000Y-95885000D03*
X116205000Y-95885000D03*
X118745000Y-93345000D03*
X116205000Y-93345000D03*
X118745000Y-90805000D03*
X116205000Y-90805000D03*
D10*
X102870000Y-74295000D03*
D11*
X105410000Y-74295000D03*
X102870000Y-76835000D03*
X105410000Y-76835000D03*
X102870000Y-79375000D03*
X105410000Y-79375000D03*
X102870000Y-81915000D03*
X105410000Y-81915000D03*
X102870000Y-84455000D03*
X105410000Y-84455000D03*
X102870000Y-86995000D03*
X105410000Y-86995000D03*
X102870000Y-89535000D03*
X105410000Y-89535000D03*
X102870000Y-92075000D03*
X105410000Y-92075000D03*
X102870000Y-94615000D03*
X105410000Y-94615000D03*
X102870000Y-97155000D03*
X105410000Y-97155000D03*
X102870000Y-99695000D03*
X105410000Y-99695000D03*
X102870000Y-102235000D03*
X105410000Y-102235000D03*
X102870000Y-104775000D03*
X105410000Y-104775000D03*
X102870000Y-107315000D03*
X105410000Y-107315000D03*
X102870000Y-109855000D03*
X105410000Y-109855000D03*
X102870000Y-112395000D03*
X105410000Y-112395000D03*
X102870000Y-114935000D03*
X105410000Y-114935000D03*
X102870000Y-117475000D03*
X105410000Y-117475000D03*
X102870000Y-120015000D03*
X105410000Y-120015000D03*
X102870000Y-122555000D03*
X105410000Y-122555000D03*
D10*
X115570000Y-107950000D03*
D11*
X115570000Y-110490000D03*
X113030000Y-107950000D03*
X113030000Y-110490000D03*
D13*
X189640000Y-102655000D03*
D16*
X189640000Y-112815000D03*
X193040000Y-112815000D03*
D13*
X193040000Y-102655000D03*
D16*
X110490000Y-90805000D03*
X110490000Y-93345000D03*
X110490000Y-95885000D03*
X110490000Y-98425000D03*
D12*
X110490000Y-100965000D03*
X179070000Y-102235000D03*
D16*
X179070000Y-104775000D03*
X179070000Y-107315000D03*
X179070000Y-109855000D03*
X179070000Y-112395000D03*
D17*
X167005000Y-59690000D03*
X184785000Y-67310000D03*
X169545000Y-59690000D03*
X182245000Y-67310000D03*
X172085000Y-59690000D03*
X179705000Y-67310000D03*
X174625000Y-59690000D03*
X177165000Y-67310000D03*
X177165000Y-59690000D03*
X174625000Y-67310000D03*
X179705000Y-59690000D03*
X172085000Y-67310000D03*
X182245000Y-59690000D03*
X169545000Y-67310000D03*
X184785000Y-59690000D03*
D18*
X167005000Y-67310000D03*
X174625000Y-81915000D03*
D17*
X189865000Y-74295000D03*
X177165000Y-81915000D03*
X187325000Y-74295000D03*
X179705000Y-81915000D03*
X184785000Y-74295000D03*
X182245000Y-81915000D03*
X182245000Y-74295000D03*
X184785000Y-81915000D03*
X179705000Y-74295000D03*
X187325000Y-81915000D03*
X177165000Y-74295000D03*
X189865000Y-81915000D03*
X174625000Y-74295000D03*
D18*
X142240000Y-67310000D03*
D17*
X157480000Y-59690000D03*
X144780000Y-67310000D03*
X154940000Y-59690000D03*
X147320000Y-67310000D03*
X152400000Y-59690000D03*
X149860000Y-67310000D03*
X149860000Y-59690000D03*
X152400000Y-67310000D03*
X147320000Y-59690000D03*
X154940000Y-67310000D03*
X144780000Y-59690000D03*
X157480000Y-67310000D03*
X142240000Y-59690000D03*
D18*
X114935000Y-67310000D03*
D17*
X132715000Y-59690000D03*
X117475000Y-67310000D03*
X130175000Y-59690000D03*
X120015000Y-67310000D03*
X127635000Y-59690000D03*
X122555000Y-67310000D03*
X125095000Y-59690000D03*
X125095000Y-67310000D03*
X122555000Y-59690000D03*
X127635000Y-67310000D03*
X120015000Y-59690000D03*
X130175000Y-67310000D03*
X117475000Y-59690000D03*
X132715000Y-67310000D03*
X114935000Y-59690000D03*
X174625000Y-85725000D03*
X189865000Y-93345000D03*
X177165000Y-85725000D03*
X187325000Y-93345000D03*
X179705000Y-85725000D03*
X184785000Y-93345000D03*
X182245000Y-85725000D03*
X182245000Y-93345000D03*
X184785000Y-85725000D03*
X179705000Y-93345000D03*
X187325000Y-85725000D03*
X177165000Y-93345000D03*
X189865000Y-85725000D03*
D18*
X174625000Y-93345000D03*
X128270000Y-90170000D03*
D17*
X166370000Y-74930000D03*
X130810000Y-90170000D03*
X163830000Y-74930000D03*
X133350000Y-90170000D03*
X161290000Y-74930000D03*
X135890000Y-90170000D03*
X158750000Y-74930000D03*
X138430000Y-90170000D03*
X156210000Y-74930000D03*
X140970000Y-90170000D03*
X153670000Y-74930000D03*
X143510000Y-90170000D03*
X151130000Y-74930000D03*
X146050000Y-90170000D03*
X148590000Y-74930000D03*
X148590000Y-90170000D03*
X146050000Y-74930000D03*
X151130000Y-90170000D03*
X143510000Y-74930000D03*
X153670000Y-90170000D03*
X140970000Y-74930000D03*
X156210000Y-90170000D03*
X138430000Y-74930000D03*
X158750000Y-90170000D03*
X135890000Y-74930000D03*
X161290000Y-90170000D03*
X133350000Y-74930000D03*
X163830000Y-90170000D03*
X130810000Y-74930000D03*
X166370000Y-90170000D03*
X128270000Y-74930000D03*
D19*
X135255000Y-116840000D03*
D20*
X135255000Y-101600000D03*
X137795000Y-116840000D03*
X137795000Y-101600000D03*
X140335000Y-116840000D03*
X140335000Y-101600000D03*
X142875000Y-116840000D03*
X142875000Y-101600000D03*
X145415000Y-116840000D03*
X145415000Y-101600000D03*
X147955000Y-116840000D03*
X147955000Y-101600000D03*
X150495000Y-116840000D03*
X150495000Y-101600000D03*
X153035000Y-116840000D03*
X153035000Y-101600000D03*
X155575000Y-116840000D03*
X155575000Y-101600000D03*
X158115000Y-116840000D03*
X158115000Y-101600000D03*
X160655000Y-116840000D03*
X160655000Y-101600000D03*
X163195000Y-116840000D03*
X163195000Y-101600000D03*
X165735000Y-116840000D03*
X165735000Y-101600000D03*
X168275000Y-116840000D03*
X168275000Y-101600000D03*
D10*
X113665000Y-83820000D03*
D11*
X113665000Y-81280000D03*
X116205000Y-83820000D03*
X116205000Y-81280000D03*
X118745000Y-83820000D03*
X118745000Y-81280000D03*
D21*
X193040000Y-60960000D03*
X193040000Y-120650000D03*
D22*
X120874800Y-89629700D03*
X149241500Y-81676200D03*
X139310900Y-87382200D03*
X138310500Y-87124800D03*
X110107100Y-76985000D03*
X110905400Y-77866300D03*
X136624000Y-87635500D03*
X111841700Y-107044300D03*
X142272100Y-72390000D03*
X121458300Y-104352500D03*
X107408400Y-104711100D03*
X129438900Y-83950800D03*
X122109500Y-77627800D03*
D23*
X152400000Y-59690000D02*
X152400000Y-61277800D01*
X142240000Y-59690000D02*
X141605000Y-59690000D01*
X141605000Y-59690000D02*
X139065000Y-62230000D01*
X171450000Y-76835000D02*
X170214800Y-78070200D01*
X170214800Y-78070200D02*
X170214800Y-81949800D01*
X170214800Y-81949800D02*
X173990000Y-85725000D01*
X174625000Y-85725000D02*
X173990000Y-85725000D01*
X173990000Y-85725000D02*
X171450000Y-88265000D01*
X128270000Y-74930000D02*
X128270000Y-76373900D01*
X149860000Y-67310000D02*
X149860000Y-65722200D01*
X149860000Y-65722200D02*
X152400000Y-63182200D01*
X152400000Y-63182200D02*
X152400000Y-62230000D01*
X152400000Y-62230000D02*
X152400000Y-61277800D01*
X152400000Y-62230000D02*
X163830000Y-62230000D01*
X133350000Y-73342200D02*
X134937800Y-71754400D01*
X134937800Y-71754400D02*
X134937800Y-66357200D01*
X134937800Y-66357200D02*
X139065000Y-62230000D01*
X133350000Y-74930000D02*
X133350000Y-73342200D01*
X135255000Y-101600000D02*
X127000000Y-101600000D01*
X127000000Y-101600000D02*
X121920000Y-106680000D01*
X113665000Y-83201100D02*
X113665000Y-82582200D01*
X113665000Y-83201100D02*
X113665000Y-83820000D01*
X113665000Y-85057800D02*
X113665000Y-96973500D01*
X113665000Y-96973500D02*
X110861300Y-99777200D01*
X110861300Y-99777200D02*
X110490000Y-99777200D01*
X113665000Y-83820000D02*
X113665000Y-85057800D01*
X110490000Y-100965000D02*
X110490000Y-99777200D01*
X133350000Y-74930000D02*
X133350000Y-76517800D01*
X128270000Y-76517800D02*
X133350000Y-76517800D01*
X128270000Y-76373900D02*
X128270000Y-76517800D01*
X128270000Y-76517800D02*
X128270000Y-78105000D01*
X128270000Y-78105000D02*
X125095000Y-81280000D01*
X113665000Y-82582200D02*
X113200800Y-82582200D01*
X113200800Y-82582200D02*
X112193000Y-81574400D01*
X112193000Y-81574400D02*
X112193000Y-75280800D01*
X112193000Y-75280800D02*
X111760000Y-74847800D01*
X111760000Y-73660000D02*
X111760000Y-74847800D01*
X174625000Y-74295000D02*
X173990000Y-74295000D01*
X173990000Y-74295000D02*
X171450000Y-76835000D01*
X114935000Y-59690000D02*
X114935000Y-61595000D01*
X114935000Y-61595000D02*
X111760000Y-64770000D01*
X169382800Y-116840000D02*
X169382800Y-92832200D01*
X169382800Y-92832200D02*
X171450000Y-90765000D01*
X168275000Y-116840000D02*
X169382800Y-116840000D01*
X177165000Y-87312800D02*
X174902200Y-87312800D01*
X174902200Y-87312800D02*
X171450000Y-90765000D01*
X177165000Y-85725000D02*
X177165000Y-87312800D01*
X177165000Y-74295000D02*
X177165000Y-75882800D01*
X184785000Y-68897800D02*
X180974400Y-68897800D01*
X180974400Y-68897800D02*
X177165000Y-72707200D01*
X184785000Y-67310000D02*
X184785000Y-68897800D01*
X177165000Y-74295000D02*
X177165000Y-72707200D01*
X118745000Y-93345000D02*
X118745000Y-90805000D01*
X118745000Y-98425000D02*
X118745000Y-103537200D01*
X118745000Y-103537200D02*
X115570000Y-106712200D01*
X115570000Y-107950000D02*
X115570000Y-106712200D01*
X118745000Y-98425000D02*
X118745000Y-95885000D01*
X118745000Y-95885000D02*
X118745000Y-93345000D01*
X111760000Y-62270000D02*
X106647900Y-62270000D01*
X105410000Y-67977200D02*
X105874200Y-67977200D01*
X105874200Y-67977200D02*
X106647900Y-67203500D01*
X106647900Y-67203500D02*
X106647900Y-62270000D01*
X106647900Y-62270000D02*
X106647900Y-61066500D01*
X106647900Y-61066500D02*
X105874200Y-60292800D01*
X105874200Y-60292800D02*
X105410000Y-60292800D01*
X105410000Y-69215000D02*
X105410000Y-67977200D01*
X105410000Y-59055000D02*
X105410000Y-60292800D01*
X122555000Y-67310000D02*
X122555000Y-68897800D01*
X163830000Y-64730000D02*
X167282200Y-61277800D01*
X167282200Y-61277800D02*
X174625000Y-61277800D01*
X174625000Y-59690000D02*
X174625000Y-61277800D01*
X177165000Y-85725000D02*
X177165000Y-84137200D01*
X175895000Y-79335000D02*
X171450000Y-79335000D01*
X177165000Y-75882800D02*
X175895000Y-77152800D01*
X175895000Y-77152800D02*
X175895000Y-79335000D01*
X118745000Y-83820000D02*
X119363900Y-83820000D01*
X119363900Y-83820000D02*
X119982800Y-83820000D01*
X119363900Y-83820000D02*
X119363900Y-88948300D01*
X119363900Y-88948300D02*
X118745000Y-89567200D01*
X118745000Y-90805000D02*
X118745000Y-89567200D01*
X122897300Y-81772600D02*
X122897300Y-69240100D01*
X122897300Y-69240100D02*
X122555000Y-68897800D01*
X119982800Y-83820000D02*
X122030200Y-81772600D01*
X122030200Y-81772600D02*
X122897300Y-81772600D01*
X122897300Y-81772600D02*
X123087600Y-81772600D01*
X123087600Y-81772600D02*
X125095000Y-83780000D01*
X182245000Y-85725000D02*
X182245000Y-84137200D01*
X175895000Y-79335000D02*
X175895000Y-82867200D01*
X175895000Y-82867200D02*
X177165000Y-84137200D01*
X177165000Y-84137200D02*
X182245000Y-84137200D01*
D24*
X187325000Y-93345000D02*
X187325000Y-99104700D01*
X187325000Y-99104700D02*
X186055000Y-100374700D01*
X186055000Y-101600000D02*
X186055000Y-100374700D01*
X186055000Y-104184700D02*
X188450400Y-101789300D01*
X188450400Y-101789300D02*
X188450400Y-92446500D01*
X188450400Y-92446500D02*
X189865000Y-91031900D01*
X189865000Y-91031900D02*
X189865000Y-85725000D01*
X186055000Y-105410000D02*
X186055000Y-104184700D01*
X177165000Y-94870300D02*
X180835700Y-98541000D01*
X180835700Y-98541000D02*
X180835700Y-105189600D01*
X180835700Y-105189600D02*
X184829700Y-109183600D01*
X184829700Y-109183600D02*
X184829700Y-109855000D01*
X177165000Y-93345000D02*
X177165000Y-94870300D01*
X186055000Y-109855000D02*
X184829700Y-109855000D01*
X186055000Y-114300000D02*
X186055000Y-113074700D01*
X182245000Y-94870300D02*
X182245000Y-105891700D01*
X182245000Y-105891700D02*
X184913300Y-108560000D01*
X184913300Y-108560000D02*
X187059400Y-108560000D01*
X187059400Y-108560000D02*
X187280300Y-108780900D01*
X187280300Y-108780900D02*
X187280300Y-111849400D01*
X187280300Y-111849400D02*
X186055000Y-113074700D01*
X182245000Y-93345000D02*
X182245000Y-94870300D01*
X110490000Y-98425000D02*
X110490000Y-97299700D01*
X110490000Y-97299700D02*
X110771400Y-97299700D01*
X110771400Y-97299700D02*
X111630700Y-96440400D01*
X111630700Y-96440400D02*
X111630700Y-77456800D01*
X111630700Y-77456800D02*
X110634600Y-76460700D01*
X110634600Y-76460700D02*
X110634600Y-72704100D01*
X110634600Y-72704100D02*
X110804100Y-72534600D01*
X110804100Y-72534600D02*
X111990600Y-72534600D01*
X111990600Y-72534600D02*
X114935000Y-69590200D01*
X114935000Y-69590200D02*
X114935000Y-67310000D01*
X120015000Y-61215300D02*
X116326800Y-64903500D01*
X116326800Y-64903500D02*
X116326800Y-78319200D01*
X116326800Y-78319200D02*
X115029700Y-79616300D01*
X115029700Y-79616300D02*
X115029700Y-93901800D01*
X115029700Y-93901800D02*
X115837600Y-94709700D01*
X115837600Y-94709700D02*
X116205000Y-94709700D01*
X120015000Y-59690000D02*
X120015000Y-61215300D01*
X116205000Y-95885000D02*
X116205000Y-94709700D01*
X132715000Y-59690000D02*
X132715000Y-61215300D01*
X120874800Y-89629700D02*
X126236000Y-84268500D01*
X126236000Y-84268500D02*
X126236000Y-83248400D01*
X126236000Y-83248400D02*
X125517600Y-82530000D01*
X125517600Y-82530000D02*
X124753500Y-82530000D01*
X124753500Y-82530000D02*
X123954000Y-81730500D01*
X123954000Y-81730500D02*
X123954000Y-76717000D01*
X123954000Y-76717000D02*
X128905000Y-71766000D01*
X128905000Y-71766000D02*
X128905000Y-65025300D01*
X128905000Y-65025300D02*
X132715000Y-61215300D01*
X153670000Y-90170000D02*
X153670000Y-77223400D01*
X153670000Y-77223400D02*
X152400000Y-75953400D01*
X152400000Y-75953400D02*
X152400000Y-74137400D01*
X152400000Y-74137400D02*
X147237900Y-68975300D01*
X147237900Y-68975300D02*
X146940800Y-68975300D01*
X146940800Y-68975300D02*
X146192000Y-68226500D01*
X146192000Y-68226500D02*
X146192000Y-62343300D01*
X146192000Y-62343300D02*
X147320000Y-61215300D01*
X147320000Y-59690000D02*
X147320000Y-61215300D01*
X154529700Y-116840000D02*
X154529700Y-92555000D01*
X154529700Y-92555000D02*
X153670000Y-91695300D01*
X155575000Y-116840000D02*
X154529700Y-116840000D01*
X153670000Y-90170000D02*
X153670000Y-91695300D01*
X144780000Y-67310000D02*
X144780000Y-68835300D01*
X149241500Y-81676200D02*
X149241500Y-78544600D01*
X149241500Y-78544600D02*
X147460100Y-76763200D01*
X147460100Y-76763200D02*
X147460100Y-71515400D01*
X147460100Y-71515400D02*
X144780000Y-68835300D01*
X157069700Y-116840000D02*
X157069700Y-92555000D01*
X157069700Y-92555000D02*
X156210000Y-91695300D01*
X158115000Y-116840000D02*
X157069700Y-116840000D01*
X156210000Y-90170000D02*
X156210000Y-91695300D01*
X149449700Y-116840000D02*
X149449700Y-92555000D01*
X149449700Y-92555000D02*
X148590000Y-91695300D01*
X150495000Y-116840000D02*
X149449700Y-116840000D01*
X148590000Y-90170000D02*
X148590000Y-91695300D01*
X151989700Y-116840000D02*
X151989700Y-92555000D01*
X151989700Y-92555000D02*
X151130000Y-91695300D01*
X153035000Y-116840000D02*
X151989700Y-116840000D01*
X151130000Y-90170000D02*
X151130000Y-91695300D01*
X144369700Y-116840000D02*
X144369700Y-92555000D01*
X144369700Y-92555000D02*
X143510000Y-91695300D01*
X145415000Y-116840000D02*
X144369700Y-116840000D01*
X143510000Y-90170000D02*
X143510000Y-91695300D01*
X104045300Y-79375000D02*
X104045300Y-79007600D01*
X104045300Y-79007600D02*
X104853200Y-78199700D01*
X104853200Y-78199700D02*
X105726600Y-78199700D01*
X105726600Y-78199700D02*
X106641700Y-77284600D01*
X106641700Y-77284600D02*
X106641700Y-71622000D01*
X106641700Y-71622000D02*
X116205000Y-62058700D01*
X116205000Y-62058700D02*
X116205000Y-58916700D01*
X116205000Y-58916700D02*
X117407400Y-57714300D01*
X117407400Y-57714300D02*
X124644600Y-57714300D01*
X124644600Y-57714300D02*
X125095000Y-58164700D01*
X102870000Y-79375000D02*
X104045300Y-79375000D01*
X125095000Y-59690000D02*
X125095000Y-58164700D01*
X146909700Y-116840000D02*
X146909700Y-92555000D01*
X146909700Y-92555000D02*
X146050000Y-91695300D01*
X147955000Y-116840000D02*
X146909700Y-116840000D01*
X146050000Y-90170000D02*
X146050000Y-91695300D01*
X130175000Y-58164700D02*
X145253700Y-58164700D01*
X145253700Y-58164700D02*
X145915100Y-58826100D01*
X145915100Y-58826100D02*
X145915100Y-61253900D01*
X145915100Y-61253900D02*
X143635600Y-63533400D01*
X143635600Y-63533400D02*
X143635600Y-70470600D01*
X143635600Y-70470600D02*
X144635400Y-71470400D01*
X144635400Y-71470400D02*
X144635400Y-75677600D01*
X144635400Y-75677600D02*
X146050000Y-77092200D01*
X146050000Y-77092200D02*
X146050000Y-90170000D01*
X130175000Y-59690000D02*
X130175000Y-58164700D01*
X139289700Y-116840000D02*
X139289700Y-92555000D01*
X139289700Y-92555000D02*
X138430000Y-91695300D01*
X140335000Y-116840000D02*
X139289700Y-116840000D01*
X138430000Y-90170000D02*
X138430000Y-91695300D01*
X102870000Y-81915000D02*
X104045300Y-81915000D01*
X104045300Y-81915000D02*
X104045300Y-81547600D01*
X104045300Y-81547600D02*
X104853200Y-80739700D01*
X104853200Y-80739700D02*
X105707600Y-80739700D01*
X105707600Y-80739700D02*
X107542400Y-78904900D01*
X107542400Y-78904900D02*
X107542400Y-71358200D01*
X107542400Y-71358200D02*
X117475000Y-61425600D01*
X117475000Y-61425600D02*
X117475000Y-59690000D01*
X141829700Y-116840000D02*
X141829700Y-92555000D01*
X141829700Y-92555000D02*
X140970000Y-91695300D01*
X142875000Y-116840000D02*
X141829700Y-116840000D01*
X140970000Y-90170000D02*
X140970000Y-91695300D01*
X105410000Y-81915000D02*
X108704100Y-78620900D01*
X108704100Y-78620900D02*
X108704100Y-70886400D01*
X108704100Y-70886400D02*
X118745000Y-60845500D01*
X118745000Y-60845500D02*
X118745000Y-58935300D01*
X118745000Y-58935300D02*
X119515600Y-58164700D01*
X119515600Y-58164700D02*
X122555000Y-58164700D01*
X122555000Y-59690000D02*
X122555000Y-58164700D01*
X145415000Y-101600000D02*
X145415000Y-100274700D01*
X143510000Y-74930000D02*
X143510000Y-76455300D01*
X143510000Y-86388000D02*
X143510000Y-76455300D01*
X145415000Y-100274700D02*
X144924600Y-99784300D01*
X144924600Y-99784300D02*
X144924600Y-87802600D01*
X144924600Y-87802600D02*
X143510000Y-86388000D01*
X143510000Y-86388000D02*
X140305100Y-86388000D01*
X140305100Y-86388000D02*
X139310900Y-87382200D01*
X142875000Y-101600000D02*
X142875000Y-100274700D01*
X140970000Y-74930000D02*
X140970000Y-76455300D01*
X138585600Y-87124800D02*
X138310500Y-87124800D01*
X140970000Y-76455300D02*
X138585600Y-78839700D01*
X138585600Y-78839700D02*
X138585600Y-87124800D01*
X138585600Y-87124800D02*
X138585600Y-87682600D01*
X138585600Y-87682600D02*
X139010500Y-88107500D01*
X139010500Y-88107500D02*
X140948000Y-88107500D01*
X140948000Y-88107500D02*
X142291600Y-89451100D01*
X142291600Y-89451100D02*
X142291600Y-99691300D01*
X142291600Y-99691300D02*
X142875000Y-100274700D01*
X147955000Y-101600000D02*
X147955000Y-100274700D01*
X146050000Y-74930000D02*
X146050000Y-76455300D01*
X147955000Y-100274700D02*
X147371600Y-99691300D01*
X147371600Y-99691300D02*
X147371600Y-77776900D01*
X147371600Y-77776900D02*
X146050000Y-76455300D01*
X102870000Y-86995000D02*
X102870000Y-85819700D01*
X102870000Y-85819700D02*
X103237400Y-85819700D01*
X103237400Y-85819700D02*
X104045300Y-85011800D01*
X104045300Y-85011800D02*
X104045300Y-84118700D01*
X104045300Y-84118700D02*
X104884400Y-83279600D01*
X104884400Y-83279600D02*
X105720900Y-83279600D01*
X105720900Y-83279600D02*
X110107100Y-78893400D01*
X110107100Y-78893400D02*
X110107100Y-76985000D01*
X153035000Y-100274700D02*
X152451600Y-99691300D01*
X152451600Y-99691300D02*
X152451600Y-77776900D01*
X152451600Y-77776900D02*
X151130000Y-76455300D01*
X153035000Y-101600000D02*
X153035000Y-100274700D01*
X151130000Y-74930000D02*
X151130000Y-76455300D01*
X110905400Y-77866300D02*
X110905400Y-80691600D01*
X110905400Y-80691600D02*
X105777300Y-85819700D01*
X105777300Y-85819700D02*
X105410000Y-85819700D01*
X105410000Y-86995000D02*
X105410000Y-85819700D01*
X140335000Y-101600000D02*
X140335000Y-100274700D01*
X138430000Y-74930000D02*
X138430000Y-76455300D01*
X137585200Y-87597300D02*
X136662200Y-87597300D01*
X136662200Y-87597300D02*
X136624000Y-87635500D01*
X138430000Y-76455300D02*
X137585200Y-77300100D01*
X137585200Y-77300100D02*
X137585200Y-87597300D01*
X137585200Y-87597300D02*
X137852600Y-87864700D01*
X137852600Y-87864700D02*
X138130800Y-87864700D01*
X138130800Y-87864700D02*
X139844500Y-89578400D01*
X139844500Y-89578400D02*
X139844600Y-89578400D01*
X139844600Y-89578400D02*
X139844600Y-99784300D01*
X139844600Y-99784300D02*
X140335000Y-100274700D01*
X105410000Y-89535000D02*
X105410000Y-90710300D01*
X111841700Y-107044300D02*
X108120900Y-103323500D01*
X108120900Y-103323500D02*
X108120900Y-93053900D01*
X108120900Y-93053900D02*
X105777300Y-90710300D01*
X105777300Y-90710300D02*
X105410000Y-90710300D01*
X133350000Y-90170000D02*
X133350000Y-88644700D01*
X133350000Y-88644700D02*
X137134500Y-84860200D01*
X137134500Y-84860200D02*
X137134500Y-74228200D01*
X137134500Y-74228200D02*
X138972700Y-72390000D01*
X138972700Y-72390000D02*
X142272100Y-72390000D01*
X162149700Y-116840000D02*
X162149700Y-92555000D01*
X162149700Y-92555000D02*
X161290000Y-91695300D01*
X163195000Y-116840000D02*
X162149700Y-116840000D01*
X161290000Y-90170000D02*
X161290000Y-91695300D01*
X159609700Y-116840000D02*
X159609700Y-92555000D01*
X159609700Y-92555000D02*
X158750000Y-91695300D01*
X160655000Y-116840000D02*
X159609700Y-116840000D01*
X158750000Y-90170000D02*
X158750000Y-91695300D01*
X168275000Y-101600000D02*
X168275000Y-78360300D01*
X168275000Y-78360300D02*
X166370000Y-76455300D01*
X166370000Y-74930000D02*
X166370000Y-76455300D01*
X164689700Y-116840000D02*
X164689700Y-92555000D01*
X164689700Y-92555000D02*
X163830000Y-91695300D01*
X165735000Y-116840000D02*
X164689700Y-116840000D01*
X163830000Y-90170000D02*
X163830000Y-91695300D01*
X163195000Y-100274700D02*
X162704600Y-99784300D01*
X162704600Y-99784300D02*
X162704600Y-77869900D01*
X162704600Y-77869900D02*
X161290000Y-76455300D01*
X163195000Y-101600000D02*
X163195000Y-100274700D01*
X161290000Y-74930000D02*
X161290000Y-76455300D01*
X165735000Y-101600000D02*
X165735000Y-100274700D01*
X163830000Y-74930000D02*
X163830000Y-76455300D01*
X163830000Y-76455300D02*
X163830000Y-78561000D01*
X163830000Y-78561000D02*
X165151600Y-79882600D01*
X165151600Y-79882600D02*
X165151600Y-99691300D01*
X165151600Y-99691300D02*
X165735000Y-100274700D01*
X158115000Y-101600000D02*
X158115000Y-100274700D01*
X156210000Y-74930000D02*
X156210000Y-76455300D01*
X156210000Y-76455300D02*
X157531600Y-77776900D01*
X157531600Y-77776900D02*
X157531600Y-99691300D01*
X157531600Y-99691300D02*
X158115000Y-100274700D01*
X160655000Y-100274700D02*
X160071600Y-99691300D01*
X160071600Y-99691300D02*
X160071600Y-77776900D01*
X160071600Y-77776900D02*
X158750000Y-76455300D01*
X160655000Y-101600000D02*
X160655000Y-100274700D01*
X158750000Y-74930000D02*
X158750000Y-76455300D01*
X107408400Y-104711100D02*
X106169200Y-105950300D01*
X106169200Y-105950300D02*
X104853200Y-105950300D01*
X104853200Y-105950300D02*
X104045300Y-105142400D01*
X104045300Y-105142400D02*
X104045300Y-104775000D01*
X102870000Y-104775000D02*
X104045300Y-104775000D01*
X135890000Y-74930000D02*
X135890000Y-76455300D01*
X135890000Y-76455300D02*
X121458300Y-90887000D01*
X121458300Y-90887000D02*
X121458300Y-104352500D01*
X169545000Y-58164700D02*
X168638400Y-57258100D01*
X168638400Y-57258100D02*
X115336600Y-57258100D01*
X115336600Y-57258100D02*
X113708100Y-58886600D01*
X113708100Y-58886600D02*
X113708100Y-61995300D01*
X113708100Y-61995300D02*
X112183400Y-63520000D01*
X112183400Y-63520000D02*
X111418000Y-63520000D01*
X111418000Y-63520000D02*
X107603000Y-67335000D01*
X107603000Y-67335000D02*
X107603000Y-68948500D01*
X107603000Y-68948500D02*
X104209800Y-72341700D01*
X104209800Y-72341700D02*
X104209800Y-77230400D01*
X104209800Y-77230400D02*
X103335200Y-78105000D01*
X103335200Y-78105000D02*
X102412300Y-78105000D01*
X102412300Y-78105000D02*
X101646600Y-78870700D01*
X101646600Y-78870700D02*
X101646600Y-87449200D01*
X101646600Y-87449200D02*
X102557000Y-88359600D01*
X102557000Y-88359600D02*
X103447500Y-88359600D01*
X103447500Y-88359600D02*
X104234700Y-89146800D01*
X104234700Y-89146800D02*
X104234700Y-102791800D01*
X104234700Y-102791800D02*
X105042600Y-103599700D01*
X105042600Y-103599700D02*
X105410000Y-103599700D01*
X169545000Y-59690000D02*
X169545000Y-58164700D01*
X105410000Y-104775000D02*
X105410000Y-103599700D01*
X150495000Y-101600000D02*
X150495000Y-100274700D01*
X148590000Y-74930000D02*
X148590000Y-76455300D01*
X148590000Y-76455300D02*
X149989200Y-77854500D01*
X149989200Y-77854500D02*
X149989200Y-99768900D01*
X149989200Y-99768900D02*
X150495000Y-100274700D01*
X142240000Y-67310000D02*
X142240000Y-66793000D01*
X142240000Y-66793000D02*
X142240000Y-65784700D01*
X105410000Y-122555000D02*
X105410000Y-121379700D01*
X144780000Y-61215300D02*
X142240000Y-63755300D01*
X142240000Y-63755300D02*
X142240000Y-65784700D01*
X144780000Y-59690000D02*
X144780000Y-61215300D01*
X142240000Y-66793000D02*
X142027100Y-66793000D01*
X142027100Y-66793000D02*
X134746700Y-74073400D01*
X134746700Y-74073400D02*
X134746700Y-76783700D01*
X134746700Y-76783700D02*
X120733000Y-90797400D01*
X120733000Y-90797400D02*
X120733000Y-104947800D01*
X120733000Y-104947800D02*
X116550000Y-109130800D01*
X116550000Y-109130800D02*
X115232700Y-109130800D01*
X115232700Y-109130800D02*
X114300000Y-110063500D01*
X114300000Y-110063500D02*
X114300000Y-112857000D01*
X114300000Y-112857000D02*
X105777300Y-121379700D01*
X105777300Y-121379700D02*
X105410000Y-121379700D01*
X130810000Y-90170000D02*
X130810000Y-85321900D01*
X130810000Y-85321900D02*
X129438900Y-83950800D01*
X116205000Y-82644700D02*
X116572400Y-82644700D01*
X116572400Y-82644700D02*
X117380300Y-81836800D01*
X117380300Y-81836800D02*
X117380300Y-69604900D01*
X117380300Y-69604900D02*
X118745000Y-68240200D01*
X118745000Y-68240200D02*
X118745000Y-66532100D01*
X118745000Y-66532100D02*
X124061800Y-61215300D01*
X124061800Y-61215300D02*
X125568700Y-61215300D01*
X125568700Y-61215300D02*
X126291100Y-60492900D01*
X126291100Y-60492900D02*
X126291100Y-58993700D01*
X126291100Y-58993700D02*
X127576300Y-57708500D01*
X127576300Y-57708500D02*
X154483800Y-57708500D01*
X154483800Y-57708500D02*
X154940000Y-58164700D01*
X116205000Y-83820000D02*
X116205000Y-82644700D01*
X154940000Y-59690000D02*
X154940000Y-58164700D01*
X137795000Y-101600000D02*
X136749700Y-101600000D01*
X136749700Y-101600000D02*
X136749700Y-104863600D01*
X136749700Y-104863600D02*
X131123300Y-110490000D01*
X191914700Y-112815000D02*
X186562700Y-118167000D01*
X186562700Y-118167000D02*
X137286000Y-118167000D01*
X137286000Y-118167000D02*
X136365700Y-117246700D01*
X136365700Y-117246700D02*
X136365700Y-115732400D01*
X136365700Y-115732400D02*
X131123300Y-110490000D01*
X131123300Y-110490000D02*
X115570000Y-110490000D01*
X193040000Y-112815000D02*
X191914700Y-112815000D01*
X189640000Y-112815000D02*
X189640000Y-110452800D01*
X189640000Y-110452800D02*
X186515100Y-107327900D01*
X186515100Y-107327900D02*
X185650000Y-107327900D01*
X185650000Y-107327900D02*
X184829600Y-106507500D01*
X184829600Y-106507500D02*
X184829600Y-97749900D01*
X184829600Y-97749900D02*
X183627400Y-96547700D01*
X183627400Y-96547700D02*
X183627400Y-90832600D01*
X183627400Y-90832600D02*
X185960100Y-88499900D01*
X185960100Y-88499900D02*
X185960100Y-84837500D01*
X185960100Y-84837500D02*
X184653600Y-83531000D01*
X184653600Y-83531000D02*
X184368800Y-83531000D01*
X184368800Y-83531000D02*
X183515000Y-82677200D01*
X183515000Y-82677200D02*
X183515000Y-80761500D01*
X183515000Y-80761500D02*
X182245000Y-79491500D01*
X182245000Y-79491500D02*
X182245000Y-74295000D01*
X155575000Y-100274700D02*
X155053300Y-99753000D01*
X155053300Y-99753000D02*
X155053300Y-74090200D01*
X155053300Y-74090200D02*
X156351400Y-72792100D01*
X156351400Y-72792100D02*
X158713200Y-72792100D01*
X158713200Y-72792100D02*
X165720700Y-65784600D01*
X165720700Y-65784600D02*
X175606000Y-65784600D01*
X175606000Y-65784600D02*
X180875500Y-60515100D01*
X180875500Y-60515100D02*
X180875500Y-58861300D01*
X180875500Y-58861300D02*
X180176900Y-58162700D01*
X180176900Y-58162700D02*
X178692300Y-58162700D01*
X178692300Y-58162700D02*
X177165000Y-59690000D01*
X155575000Y-101600000D02*
X155575000Y-100274700D01*
X153670000Y-73404700D02*
X159427900Y-67646800D01*
X159427900Y-67646800D02*
X163221600Y-67646800D01*
X163221600Y-67646800D02*
X168142800Y-62725600D01*
X168142800Y-62725600D02*
X176669400Y-62725600D01*
X176669400Y-62725600D02*
X179705000Y-59690000D01*
X153670000Y-74930000D02*
X153670000Y-73404700D01*
X184785000Y-91819700D02*
X188595000Y-88009700D01*
X188595000Y-88009700D02*
X188595000Y-77090300D01*
X188595000Y-77090300D02*
X189865000Y-75820300D01*
X184785000Y-93345000D02*
X184785000Y-91819700D01*
X189865000Y-74295000D02*
X189865000Y-75820300D01*
X120015000Y-68835300D02*
X122109500Y-70929800D01*
X122109500Y-70929800D02*
X122109500Y-77627800D01*
X120015000Y-67310000D02*
X120015000Y-68835300D01*
X184785000Y-75820300D02*
X186055000Y-77090300D01*
X186055000Y-77090300D02*
X186055000Y-82929700D01*
X186055000Y-82929700D02*
X187325000Y-84199700D01*
X184785000Y-74295000D02*
X184785000Y-75820300D01*
X187325000Y-85725000D02*
X187325000Y-84199700D01*
X174625000Y-91819700D02*
X178173300Y-91819700D01*
X178173300Y-91819700D02*
X183402300Y-86590700D01*
X183402300Y-86590700D02*
X183402300Y-84498900D01*
X183402300Y-84498900D02*
X182343700Y-83440300D01*
X182343700Y-83440300D02*
X182245000Y-83440300D01*
X174625000Y-93345000D02*
X174625000Y-91819700D01*
X182245000Y-81915000D02*
X182245000Y-83440300D01*
X154940000Y-65784700D02*
X161132700Y-65784700D01*
X161132700Y-65784700D02*
X161221100Y-65873100D01*
X161221100Y-65873100D02*
X164358400Y-65873100D01*
X164358400Y-65873100D02*
X168410700Y-61820800D01*
X168410700Y-61820800D02*
X174815700Y-61820800D01*
X174815700Y-61820800D02*
X175968900Y-60667600D01*
X175968900Y-60667600D02*
X175968900Y-58814600D01*
X175968900Y-58814600D02*
X177071200Y-57712300D01*
X177071200Y-57712300D02*
X182307400Y-57712300D01*
X182307400Y-57712300D02*
X183515000Y-58919900D01*
X183515000Y-58919900D02*
X183515000Y-62041900D01*
X183515000Y-62041900D02*
X185933400Y-64460300D01*
X185933400Y-64460300D02*
X185933400Y-69079900D01*
X185933400Y-69079900D02*
X183593500Y-71419800D01*
X183593500Y-71419800D02*
X183593500Y-75265700D01*
X183593500Y-75265700D02*
X184785000Y-76457200D01*
X184785000Y-76457200D02*
X184785000Y-81915000D01*
X154940000Y-67310000D02*
X154940000Y-65784700D01*
X147320000Y-67310000D02*
X147320000Y-63755300D01*
X147320000Y-63755300D02*
X149860000Y-61215300D01*
X149860000Y-59690000D02*
X149860000Y-61215300D01*
D25*
G36*
X115044353Y-56552554D02*
G01*
X114912324Y-56623126D01*
X114796599Y-56718099D01*
X114772801Y-56747097D01*
X113197103Y-58322796D01*
X113168099Y-58346599D01*
X113122777Y-58401825D01*
X113073126Y-58462324D01*
X113006498Y-58586976D01*
X113002554Y-58594354D01*
X112959097Y-58737615D01*
X112948100Y-58849268D01*
X112948100Y-58849278D01*
X112944424Y-58886600D01*
X112948100Y-58923923D01*
X112948101Y-61514235D01*
X112752702Y-61456903D01*
X111939605Y-62270000D01*
X111953748Y-62284143D01*
X111774143Y-62463748D01*
X111760000Y-62449605D01*
X111745858Y-62463748D01*
X111566253Y-62284143D01*
X111580395Y-62270000D01*
X110767298Y-61456903D01*
X110523329Y-61528486D01*
X110402429Y-61783996D01*
X110333700Y-62058184D01*
X110319783Y-62340512D01*
X110361213Y-62620130D01*
X110456397Y-62886292D01*
X110523329Y-63011514D01*
X110767296Y-63083097D01*
X110651023Y-63199370D01*
X110657426Y-63205773D01*
X107092003Y-66771196D01*
X107062999Y-66794999D01*
X107026472Y-66839508D01*
X106968026Y-66910724D01*
X106910817Y-67017754D01*
X106897454Y-67042754D01*
X106853997Y-67186015D01*
X106843000Y-67297668D01*
X106843000Y-67297678D01*
X106839324Y-67335000D01*
X106843000Y-67372323D01*
X106843001Y-68633696D01*
X106793588Y-68683110D01*
X106681641Y-68448080D01*
X106507588Y-68214731D01*
X106291355Y-68019822D01*
X106174477Y-67950201D01*
X106239014Y-67915706D01*
X106465134Y-67730134D01*
X106650706Y-67504014D01*
X106788599Y-67246034D01*
X106873513Y-66966111D01*
X106902185Y-66675000D01*
X106873513Y-66383889D01*
X106788599Y-66103966D01*
X106650706Y-65845986D01*
X106465134Y-65619866D01*
X106239014Y-65434294D01*
X106184209Y-65405000D01*
X106239014Y-65375706D01*
X106465134Y-65190134D01*
X106650706Y-64964014D01*
X106788599Y-64706034D01*
X106873513Y-64426111D01*
X106902185Y-64135000D01*
X106873513Y-63843889D01*
X106788599Y-63563966D01*
X106650706Y-63305986D01*
X106465134Y-63079866D01*
X106239014Y-62894294D01*
X106184209Y-62865000D01*
X106239014Y-62835706D01*
X106465134Y-62650134D01*
X106650706Y-62424014D01*
X106788599Y-62166034D01*
X106873513Y-61886111D01*
X106902185Y-61595000D01*
X106873513Y-61303889D01*
X106865447Y-61277298D01*
X110946903Y-61277298D01*
X111760000Y-62090395D01*
X112573097Y-61277298D01*
X112501514Y-61033329D01*
X112246004Y-60912429D01*
X111971816Y-60843700D01*
X111689488Y-60829783D01*
X111409870Y-60871213D01*
X111143708Y-60966397D01*
X111018486Y-61033329D01*
X110946903Y-61277298D01*
X106865447Y-61277298D01*
X106788599Y-61023966D01*
X106650706Y-60765986D01*
X106465134Y-60539866D01*
X106239014Y-60354294D01*
X106174477Y-60319799D01*
X106291355Y-60250178D01*
X106507588Y-60055269D01*
X106681641Y-59821920D01*
X106806825Y-59559099D01*
X106851476Y-59411890D01*
X106730155Y-59182000D01*
X105537000Y-59182000D01*
X105537000Y-59202000D01*
X105283000Y-59202000D01*
X105283000Y-59182000D01*
X102997000Y-59182000D01*
X102997000Y-59202000D01*
X102743000Y-59202000D01*
X102743000Y-59182000D01*
X101543750Y-59182000D01*
X101385000Y-59340750D01*
X101381928Y-59905000D01*
X101394188Y-60029482D01*
X101430498Y-60149180D01*
X101489463Y-60259494D01*
X101568815Y-60356185D01*
X101665506Y-60435537D01*
X101775820Y-60494502D01*
X101844687Y-60515393D01*
X101814866Y-60539866D01*
X101629294Y-60765986D01*
X101491401Y-61023966D01*
X101406487Y-61303889D01*
X101377815Y-61595000D01*
X101406487Y-61886111D01*
X101491401Y-62166034D01*
X101629294Y-62424014D01*
X101814866Y-62650134D01*
X102040986Y-62835706D01*
X102095791Y-62865000D01*
X102040986Y-62894294D01*
X101814866Y-63079866D01*
X101629294Y-63305986D01*
X101491401Y-63563966D01*
X101406487Y-63843889D01*
X101377815Y-64135000D01*
X101406487Y-64426111D01*
X101491401Y-64706034D01*
X101629294Y-64964014D01*
X101814866Y-65190134D01*
X102040986Y-65375706D01*
X102095791Y-65405000D01*
X102040986Y-65434294D01*
X101814866Y-65619866D01*
X101629294Y-65845986D01*
X101491401Y-66103966D01*
X101406487Y-66383889D01*
X101377815Y-66675000D01*
X101406487Y-66966111D01*
X101491401Y-67246034D01*
X101629294Y-67504014D01*
X101814866Y-67730134D01*
X102040986Y-67915706D01*
X102105523Y-67950201D01*
X101988645Y-68019822D01*
X101772412Y-68214731D01*
X101598359Y-68448080D01*
X101473175Y-68710901D01*
X101428524Y-68858110D01*
X101549845Y-69088000D01*
X102743000Y-69088000D01*
X102743000Y-69068000D01*
X102997000Y-69068000D01*
X102997000Y-69088000D01*
X105283000Y-69088000D01*
X105283000Y-69068000D01*
X105537000Y-69068000D01*
X105537000Y-69088000D01*
X105557000Y-69088000D01*
X105557000Y-69342000D01*
X105537000Y-69342000D01*
X105537000Y-69362000D01*
X105283000Y-69362000D01*
X105283000Y-69342000D01*
X102997000Y-69342000D01*
X102997000Y-70535814D01*
X103226891Y-70656481D01*
X103501252Y-70559157D01*
X103751355Y-70410178D01*
X103967588Y-70215269D01*
X104140000Y-69984120D01*
X104312412Y-70215269D01*
X104528645Y-70410178D01*
X104778748Y-70559157D01*
X104881199Y-70595499D01*
X103698803Y-71777896D01*
X103669799Y-71801699D01*
X103630161Y-71849999D01*
X103574826Y-71917424D01*
X103515495Y-72028423D01*
X103504254Y-72049454D01*
X103460797Y-72192715D01*
X103449800Y-72304368D01*
X103449800Y-72304378D01*
X103446124Y-72341700D01*
X103449800Y-72379023D01*
X103449800Y-72806928D01*
X102020000Y-72806928D01*
X101895518Y-72819188D01*
X101775820Y-72855498D01*
X101665506Y-72914463D01*
X101568815Y-72993815D01*
X101489463Y-73090506D01*
X101430498Y-73200820D01*
X101394188Y-73320518D01*
X101381928Y-73445000D01*
X101381928Y-75145000D01*
X101394188Y-75269482D01*
X101430498Y-75389180D01*
X101489463Y-75499494D01*
X101568815Y-75596185D01*
X101665506Y-75675537D01*
X101775820Y-75734502D01*
X101844687Y-75755393D01*
X101814866Y-75779866D01*
X101629294Y-76005986D01*
X101491401Y-76263966D01*
X101406487Y-76543889D01*
X101377815Y-76835000D01*
X101406487Y-77126111D01*
X101491401Y-77406034D01*
X101629294Y-77664014D01*
X101696542Y-77745956D01*
X101135602Y-78306897D01*
X101106599Y-78330699D01*
X101072191Y-78372626D01*
X101011626Y-78446424D01*
X100957624Y-78547454D01*
X100941054Y-78578454D01*
X100897597Y-78721715D01*
X100886600Y-78833368D01*
X100886600Y-78833378D01*
X100882924Y-78870700D01*
X100886600Y-78908022D01*
X100886601Y-87411868D01*
X100882924Y-87449200D01*
X100886601Y-87486533D01*
X100897598Y-87598186D01*
X100907241Y-87629974D01*
X100941054Y-87741446D01*
X101011626Y-87873476D01*
X101082552Y-87959899D01*
X101106600Y-87989201D01*
X101135598Y-88012999D01*
X101719125Y-88596527D01*
X101629294Y-88705986D01*
X101491401Y-88963966D01*
X101406487Y-89243889D01*
X101377815Y-89535000D01*
X101406487Y-89826111D01*
X101491401Y-90106034D01*
X101629294Y-90364014D01*
X101814866Y-90590134D01*
X102040986Y-90775706D01*
X102095791Y-90805000D01*
X102040986Y-90834294D01*
X101814866Y-91019866D01*
X101629294Y-91245986D01*
X101491401Y-91503966D01*
X101406487Y-91783889D01*
X101377815Y-92075000D01*
X101406487Y-92366111D01*
X101491401Y-92646034D01*
X101629294Y-92904014D01*
X101814866Y-93130134D01*
X102040986Y-93315706D01*
X102095791Y-93345000D01*
X102040986Y-93374294D01*
X101814866Y-93559866D01*
X101629294Y-93785986D01*
X101491401Y-94043966D01*
X101406487Y-94323889D01*
X101377815Y-94615000D01*
X101406487Y-94906111D01*
X101491401Y-95186034D01*
X101629294Y-95444014D01*
X101814866Y-95670134D01*
X102040986Y-95855706D01*
X102095791Y-95885000D01*
X102040986Y-95914294D01*
X101814866Y-96099866D01*
X101629294Y-96325986D01*
X101491401Y-96583966D01*
X101406487Y-96863889D01*
X101377815Y-97155000D01*
X101406487Y-97446111D01*
X101491401Y-97726034D01*
X101629294Y-97984014D01*
X101814866Y-98210134D01*
X102040986Y-98395706D01*
X102095791Y-98425000D01*
X102040986Y-98454294D01*
X101814866Y-98639866D01*
X101629294Y-98865986D01*
X101491401Y-99123966D01*
X101406487Y-99403889D01*
X101377815Y-99695000D01*
X101406487Y-99986111D01*
X101491401Y-100266034D01*
X101629294Y-100524014D01*
X101814866Y-100750134D01*
X102040986Y-100935706D01*
X102095791Y-100965000D01*
X102040986Y-100994294D01*
X101814866Y-101179866D01*
X101629294Y-101405986D01*
X101491401Y-101663966D01*
X101406487Y-101943889D01*
X101377815Y-102235000D01*
X101406487Y-102526111D01*
X101491401Y-102806034D01*
X101629294Y-103064014D01*
X101814866Y-103290134D01*
X102040986Y-103475706D01*
X102095791Y-103505000D01*
X102040986Y-103534294D01*
X101814866Y-103719866D01*
X101629294Y-103945986D01*
X101491401Y-104203966D01*
X101406487Y-104483889D01*
X101377815Y-104775000D01*
X101406487Y-105066111D01*
X101491401Y-105346034D01*
X101629294Y-105604014D01*
X101814866Y-105830134D01*
X102040986Y-106015706D01*
X102095791Y-106045000D01*
X102040986Y-106074294D01*
X101814866Y-106259866D01*
X101629294Y-106485986D01*
X101491401Y-106743966D01*
X101406487Y-107023889D01*
X101377815Y-107315000D01*
X101406487Y-107606111D01*
X101491401Y-107886034D01*
X101629294Y-108144014D01*
X101814866Y-108370134D01*
X102040986Y-108555706D01*
X102095791Y-108585000D01*
X102040986Y-108614294D01*
X101814866Y-108799866D01*
X101629294Y-109025986D01*
X101491401Y-109283966D01*
X101406487Y-109563889D01*
X101377815Y-109855000D01*
X101406487Y-110146111D01*
X101491401Y-110426034D01*
X101629294Y-110684014D01*
X101814866Y-110910134D01*
X102040986Y-111095706D01*
X102095791Y-111125000D01*
X102040986Y-111154294D01*
X101814866Y-111339866D01*
X101629294Y-111565986D01*
X101491401Y-111823966D01*
X101406487Y-112103889D01*
X101377815Y-112395000D01*
X101406487Y-112686111D01*
X101491401Y-112966034D01*
X101629294Y-113224014D01*
X101814866Y-113450134D01*
X102040986Y-113635706D01*
X102095791Y-113665000D01*
X102040986Y-113694294D01*
X101814866Y-113879866D01*
X101629294Y-114105986D01*
X101491401Y-114363966D01*
X101406487Y-114643889D01*
X101377815Y-114935000D01*
X101406487Y-115226111D01*
X101491401Y-115506034D01*
X101629294Y-115764014D01*
X101814866Y-115990134D01*
X102040986Y-116175706D01*
X102095791Y-116205000D01*
X102040986Y-116234294D01*
X101814866Y-116419866D01*
X101629294Y-116645986D01*
X101491401Y-116903966D01*
X101406487Y-117183889D01*
X101377815Y-117475000D01*
X101406487Y-117766111D01*
X101491401Y-118046034D01*
X101629294Y-118304014D01*
X101814866Y-118530134D01*
X102040986Y-118715706D01*
X102095791Y-118745000D01*
X102040986Y-118774294D01*
X101814866Y-118959866D01*
X101629294Y-119185986D01*
X101491401Y-119443966D01*
X101406487Y-119723889D01*
X101377815Y-120015000D01*
X101406487Y-120306111D01*
X101491401Y-120586034D01*
X101629294Y-120844014D01*
X101814866Y-121070134D01*
X102040986Y-121255706D01*
X102095791Y-121285000D01*
X102040986Y-121314294D01*
X101814866Y-121499866D01*
X101629294Y-121725986D01*
X101491401Y-121983966D01*
X101406487Y-122263889D01*
X101377815Y-122555000D01*
X101406487Y-122846111D01*
X101491401Y-123126034D01*
X101629294Y-123384014D01*
X101814866Y-123610134D01*
X102040986Y-123795706D01*
X102298966Y-123933599D01*
X102578889Y-124018513D01*
X102797050Y-124040000D01*
X102942950Y-124040000D01*
X103161111Y-124018513D01*
X103441034Y-123933599D01*
X103699014Y-123795706D01*
X103925134Y-123610134D01*
X104110706Y-123384014D01*
X104140000Y-123329209D01*
X104169294Y-123384014D01*
X104354866Y-123610134D01*
X104580986Y-123795706D01*
X104838966Y-123933599D01*
X105118889Y-124018513D01*
X105337050Y-124040000D01*
X105482950Y-124040000D01*
X105701111Y-124018513D01*
X105981034Y-123933599D01*
X106239014Y-123795706D01*
X106465134Y-123610134D01*
X106650706Y-123384014D01*
X106788599Y-123126034D01*
X106873513Y-122846111D01*
X106902185Y-122555000D01*
X106873513Y-122263889D01*
X106788599Y-121983966D01*
X106650706Y-121725986D01*
X106585396Y-121646405D01*
X107894511Y-120337290D01*
X189865000Y-120337290D01*
X189865000Y-120962710D01*
X189987014Y-121576113D01*
X190226352Y-122153926D01*
X190573817Y-122673944D01*
X191016056Y-123116183D01*
X191536074Y-123463648D01*
X192113887Y-123702986D01*
X192727290Y-123825000D01*
X193352710Y-123825000D01*
X193966113Y-123702986D01*
X194543926Y-123463648D01*
X195063944Y-123116183D01*
X195506183Y-122673944D01*
X195853648Y-122153926D01*
X196092986Y-121576113D01*
X196215000Y-120962710D01*
X196215000Y-120337290D01*
X196092986Y-119723887D01*
X195853648Y-119146074D01*
X195506183Y-118626056D01*
X195063944Y-118183817D01*
X194543926Y-117836352D01*
X193966113Y-117597014D01*
X193352710Y-117475000D01*
X192727290Y-117475000D01*
X192113887Y-117597014D01*
X191536074Y-117836352D01*
X191016056Y-118183817D01*
X190573817Y-118626056D01*
X190226352Y-119146074D01*
X189987014Y-119723887D01*
X189865000Y-120337290D01*
X107894511Y-120337290D01*
X114811003Y-113420799D01*
X114840001Y-113397001D01*
X114866332Y-113364917D01*
X114934974Y-113281277D01*
X115005546Y-113149247D01*
X115049003Y-113005986D01*
X115060000Y-112894333D01*
X115060000Y-112894323D01*
X115063676Y-112857000D01*
X115060000Y-112819677D01*
X115060000Y-111887114D01*
X115278889Y-111953513D01*
X115497050Y-111975000D01*
X115642950Y-111975000D01*
X115861111Y-111953513D01*
X116141034Y-111868599D01*
X116399014Y-111730706D01*
X116625134Y-111545134D01*
X116810706Y-111319014D01*
X116847595Y-111250000D01*
X130808499Y-111250000D01*
X134760426Y-115201928D01*
X134535000Y-115201928D01*
X134410518Y-115214188D01*
X134290820Y-115250498D01*
X134180506Y-115309463D01*
X134083815Y-115388815D01*
X134004463Y-115485506D01*
X133945498Y-115595820D01*
X133909188Y-115715518D01*
X133896928Y-115840000D01*
X133896928Y-117840000D01*
X133909188Y-117964482D01*
X133945498Y-118084180D01*
X134004463Y-118194494D01*
X134083815Y-118291185D01*
X134180506Y-118370537D01*
X134290820Y-118429502D01*
X134410518Y-118465812D01*
X134535000Y-118478072D01*
X135975000Y-118478072D01*
X136099482Y-118465812D01*
X136219180Y-118429502D01*
X136329494Y-118370537D01*
X136376313Y-118332114D01*
X136722201Y-118678003D01*
X136745999Y-118707001D01*
X136861724Y-118801974D01*
X136993753Y-118872546D01*
X137137014Y-118916003D01*
X137248667Y-118927000D01*
X137248675Y-118927000D01*
X137286000Y-118930676D01*
X137323325Y-118927000D01*
X186525378Y-118927000D01*
X186562700Y-118930676D01*
X186600022Y-118927000D01*
X186600033Y-118927000D01*
X186711686Y-118916003D01*
X186854947Y-118872546D01*
X186986976Y-118801974D01*
X187102701Y-118707001D01*
X187126504Y-118677997D01*
X191997630Y-113806872D01*
X192020392Y-113834608D01*
X192238899Y-114013932D01*
X192488192Y-114147182D01*
X192758691Y-114229236D01*
X192969508Y-114250000D01*
X193110492Y-114250000D01*
X193321309Y-114229236D01*
X193591808Y-114147182D01*
X193841101Y-114013932D01*
X194059608Y-113834608D01*
X194238932Y-113616101D01*
X194372182Y-113366808D01*
X194454236Y-113096309D01*
X194481943Y-112815000D01*
X194454236Y-112533691D01*
X194372182Y-112263192D01*
X194238932Y-112013899D01*
X194059608Y-111795392D01*
X193841101Y-111616068D01*
X193591808Y-111482818D01*
X193321309Y-111400764D01*
X193110492Y-111380000D01*
X192969508Y-111380000D01*
X192758691Y-111400764D01*
X192488192Y-111482818D01*
X192238899Y-111616068D01*
X192020392Y-111795392D01*
X191841068Y-112013899D01*
X191815861Y-112061058D01*
X191765714Y-112065997D01*
X191640799Y-112103889D01*
X191622453Y-112109454D01*
X191490423Y-112180026D01*
X191406783Y-112248668D01*
X191374699Y-112274999D01*
X191350901Y-112303997D01*
X191060241Y-112594657D01*
X191054236Y-112533691D01*
X190972182Y-112263192D01*
X190838932Y-112013899D01*
X190659608Y-111795392D01*
X190441101Y-111616068D01*
X190400000Y-111594099D01*
X190400000Y-110490123D01*
X190403676Y-110452800D01*
X190400000Y-110415477D01*
X190400000Y-110415467D01*
X190389003Y-110303814D01*
X190345546Y-110160553D01*
X190338434Y-110147247D01*
X190274974Y-110028523D01*
X190203799Y-109941797D01*
X190180001Y-109912799D01*
X190151003Y-109889001D01*
X187170272Y-106908271D01*
X187199180Y-106899502D01*
X187309494Y-106840537D01*
X187406185Y-106761185D01*
X187485537Y-106664494D01*
X187544502Y-106554180D01*
X187580812Y-106434482D01*
X187593072Y-106310000D01*
X187593072Y-104510000D01*
X187580812Y-104385518D01*
X187544502Y-104265820D01*
X187485537Y-104155506D01*
X187406185Y-104058815D01*
X187323524Y-103990977D01*
X188256958Y-103057543D01*
X188260147Y-103073574D01*
X188368320Y-103334727D01*
X188525363Y-103569759D01*
X188725241Y-103769637D01*
X188960273Y-103926680D01*
X189221426Y-104034853D01*
X189498665Y-104090000D01*
X189781335Y-104090000D01*
X190058574Y-104034853D01*
X190319727Y-103926680D01*
X190554759Y-103769637D01*
X190754637Y-103569759D01*
X190911680Y-103334727D01*
X191019853Y-103073574D01*
X191075000Y-102796335D01*
X191075000Y-102513665D01*
X191605000Y-102513665D01*
X191605000Y-102796335D01*
X191660147Y-103073574D01*
X191768320Y-103334727D01*
X191925363Y-103569759D01*
X192125241Y-103769637D01*
X192360273Y-103926680D01*
X192621426Y-104034853D01*
X192898665Y-104090000D01*
X193181335Y-104090000D01*
X193458574Y-104034853D01*
X193719727Y-103926680D01*
X193954759Y-103769637D01*
X194154637Y-103569759D01*
X194311680Y-103334727D01*
X194419853Y-103073574D01*
X194475000Y-102796335D01*
X194475000Y-102513665D01*
X194419853Y-102236426D01*
X194311680Y-101975273D01*
X194154637Y-101740241D01*
X193954759Y-101540363D01*
X193719727Y-101383320D01*
X193458574Y-101275147D01*
X193181335Y-101220000D01*
X192898665Y-101220000D01*
X192621426Y-101275147D01*
X192360273Y-101383320D01*
X192125241Y-101540363D01*
X191925363Y-101740241D01*
X191768320Y-101975273D01*
X191660147Y-102236426D01*
X191605000Y-102513665D01*
X191075000Y-102513665D01*
X191019853Y-102236426D01*
X190911680Y-101975273D01*
X190754637Y-101740241D01*
X190554759Y-101540363D01*
X190319727Y-101383320D01*
X190058574Y-101275147D01*
X189781335Y-101220000D01*
X189498665Y-101220000D01*
X189221426Y-101275147D01*
X189210400Y-101279714D01*
X189210400Y-95024492D01*
X189433182Y-95119367D01*
X189515961Y-95136904D01*
X189738000Y-95014915D01*
X189738000Y-93472000D01*
X189992000Y-93472000D01*
X189992000Y-95014915D01*
X190214039Y-95136904D01*
X190296818Y-95119367D01*
X190556646Y-95008715D01*
X190789895Y-94849500D01*
X190987601Y-94647839D01*
X191142166Y-94411483D01*
X191247650Y-94149514D01*
X191300000Y-93872000D01*
X191300000Y-93472000D01*
X189992000Y-93472000D01*
X189738000Y-93472000D01*
X189718000Y-93472000D01*
X189718000Y-93218000D01*
X189738000Y-93218000D01*
X189738000Y-93198000D01*
X189992000Y-93198000D01*
X189992000Y-93218000D01*
X191300000Y-93218000D01*
X191300000Y-92818000D01*
X191247650Y-92540486D01*
X191142166Y-92278517D01*
X190987601Y-92042161D01*
X190789895Y-91840500D01*
X190556646Y-91681285D01*
X190369932Y-91601770D01*
X190376004Y-91595698D01*
X190405001Y-91571901D01*
X190499974Y-91456176D01*
X190570546Y-91324147D01*
X190614003Y-91180886D01*
X190625000Y-91069233D01*
X190625000Y-91069232D01*
X190628677Y-91031900D01*
X190625000Y-90994567D01*
X190625000Y-87345901D01*
X190666101Y-87323932D01*
X190884608Y-87144608D01*
X191063932Y-86926101D01*
X191197182Y-86676808D01*
X191279236Y-86406309D01*
X191300000Y-86195491D01*
X191300000Y-85254508D01*
X191279236Y-85043691D01*
X191197182Y-84773192D01*
X191063932Y-84523899D01*
X190884607Y-84305392D01*
X190666100Y-84126068D01*
X190416807Y-83992818D01*
X190146308Y-83910764D01*
X189865000Y-83883057D01*
X189583691Y-83910764D01*
X189355000Y-83980136D01*
X189355000Y-83656072D01*
X189433182Y-83689367D01*
X189515961Y-83706904D01*
X189738000Y-83584915D01*
X189738000Y-82042000D01*
X189992000Y-82042000D01*
X189992000Y-83584915D01*
X190214039Y-83706904D01*
X190296818Y-83689367D01*
X190556646Y-83578715D01*
X190789895Y-83419500D01*
X190987601Y-83217839D01*
X191142166Y-82981483D01*
X191247650Y-82719514D01*
X191300000Y-82442000D01*
X191300000Y-82042000D01*
X189992000Y-82042000D01*
X189738000Y-82042000D01*
X189718000Y-82042000D01*
X189718000Y-81788000D01*
X189738000Y-81788000D01*
X189738000Y-80245085D01*
X189992000Y-80245085D01*
X189992000Y-81788000D01*
X191300000Y-81788000D01*
X191300000Y-81388000D01*
X191247650Y-81110486D01*
X191142166Y-80848517D01*
X190987601Y-80612161D01*
X190789895Y-80410500D01*
X190556646Y-80251285D01*
X190296818Y-80140633D01*
X190214039Y-80123096D01*
X189992000Y-80245085D01*
X189738000Y-80245085D01*
X189515961Y-80123096D01*
X189433182Y-80140633D01*
X189355000Y-80173928D01*
X189355000Y-77405101D01*
X190376003Y-76384099D01*
X190405001Y-76360301D01*
X190499974Y-76244576D01*
X190570546Y-76112547D01*
X190614003Y-75969286D01*
X190618942Y-75919139D01*
X190666101Y-75893932D01*
X190884608Y-75714608D01*
X191063932Y-75496101D01*
X191197182Y-75246808D01*
X191279236Y-74976309D01*
X191300000Y-74765491D01*
X191300000Y-73824508D01*
X191279236Y-73613691D01*
X191197182Y-73343192D01*
X191063932Y-73093899D01*
X190884607Y-72875392D01*
X190666100Y-72696068D01*
X190416807Y-72562818D01*
X190146308Y-72480764D01*
X189865000Y-72453057D01*
X189583691Y-72480764D01*
X189313192Y-72562818D01*
X189063899Y-72696068D01*
X188845392Y-72875393D01*
X188666068Y-73093900D01*
X188595000Y-73226858D01*
X188523932Y-73093899D01*
X188344607Y-72875392D01*
X188126100Y-72696068D01*
X187876807Y-72562818D01*
X187606308Y-72480764D01*
X187325000Y-72453057D01*
X187043691Y-72480764D01*
X186773192Y-72562818D01*
X186523899Y-72696068D01*
X186305392Y-72875393D01*
X186126068Y-73093900D01*
X186055000Y-73226858D01*
X185983932Y-73093899D01*
X185804607Y-72875392D01*
X185586100Y-72696068D01*
X185336807Y-72562818D01*
X185066308Y-72480764D01*
X184785000Y-72453057D01*
X184503691Y-72480764D01*
X184353500Y-72526323D01*
X184353500Y-71734601D01*
X186444403Y-69643699D01*
X186473401Y-69619901D01*
X186568374Y-69504176D01*
X186638946Y-69372147D01*
X186682403Y-69228886D01*
X186693400Y-69117233D01*
X186693400Y-69117224D01*
X186697076Y-69079901D01*
X186693400Y-69042578D01*
X186693400Y-64497622D01*
X186697076Y-64460299D01*
X186693400Y-64422976D01*
X186693400Y-64422967D01*
X186682403Y-64311314D01*
X186638946Y-64168053D01*
X186588353Y-64073401D01*
X186568374Y-64036023D01*
X186497199Y-63949297D01*
X186473401Y-63920299D01*
X186444404Y-63896502D01*
X184275000Y-61727099D01*
X184275000Y-61434864D01*
X184503692Y-61504236D01*
X184785000Y-61531943D01*
X185066309Y-61504236D01*
X185336808Y-61422182D01*
X185586101Y-61288932D01*
X185804608Y-61109608D01*
X185983932Y-60891101D01*
X186114251Y-60647290D01*
X189865000Y-60647290D01*
X189865000Y-61272710D01*
X189987014Y-61886113D01*
X190226352Y-62463926D01*
X190573817Y-62983944D01*
X191016056Y-63426183D01*
X191536074Y-63773648D01*
X192113887Y-64012986D01*
X192727290Y-64135000D01*
X193352710Y-64135000D01*
X193966113Y-64012986D01*
X194543926Y-63773648D01*
X195063944Y-63426183D01*
X195506183Y-62983944D01*
X195853648Y-62463926D01*
X196092986Y-61886113D01*
X196215000Y-61272710D01*
X196215000Y-60647290D01*
X196092986Y-60033887D01*
X195853648Y-59456074D01*
X195506183Y-58936056D01*
X195063944Y-58493817D01*
X194543926Y-58146352D01*
X193966113Y-57907014D01*
X193352710Y-57785000D01*
X192727290Y-57785000D01*
X192113887Y-57907014D01*
X191536074Y-58146352D01*
X191016056Y-58493817D01*
X190573817Y-58936056D01*
X190226352Y-59456074D01*
X189987014Y-60033887D01*
X189865000Y-60647290D01*
X186114251Y-60647290D01*
X186117182Y-60641808D01*
X186199236Y-60371309D01*
X186220000Y-60160491D01*
X186220000Y-59219508D01*
X186199236Y-59008691D01*
X186117182Y-58738192D01*
X185983932Y-58488899D01*
X185804607Y-58270392D01*
X185586100Y-58091068D01*
X185336807Y-57957818D01*
X185066308Y-57875764D01*
X184785000Y-57848057D01*
X184503691Y-57875764D01*
X184233192Y-57957818D01*
X183983899Y-58091068D01*
X183861456Y-58191555D01*
X182871204Y-57201303D01*
X182847401Y-57172299D01*
X182731676Y-57077326D01*
X182599647Y-57006754D01*
X182456386Y-56963297D01*
X182344733Y-56952300D01*
X182344722Y-56952300D01*
X182307400Y-56948624D01*
X182270078Y-56952300D01*
X177108533Y-56952300D01*
X177071200Y-56948623D01*
X177033867Y-56952300D01*
X176922214Y-56963297D01*
X176778953Y-57006754D01*
X176646924Y-57077326D01*
X176531199Y-57172299D01*
X176507401Y-57201297D01*
X175534029Y-58174670D01*
X175316646Y-58026285D01*
X175056818Y-57915633D01*
X174974039Y-57898096D01*
X174752000Y-58020085D01*
X174752000Y-59563000D01*
X174772000Y-59563000D01*
X174772000Y-59817000D01*
X174752000Y-59817000D01*
X174752000Y-59837000D01*
X174498000Y-59837000D01*
X174498000Y-59817000D01*
X174478000Y-59817000D01*
X174478000Y-59563000D01*
X174498000Y-59563000D01*
X174498000Y-58020085D01*
X174275961Y-57898096D01*
X174193182Y-57915633D01*
X173933354Y-58026285D01*
X173700105Y-58185500D01*
X173502399Y-58387161D01*
X173352265Y-58616741D01*
X173283932Y-58488899D01*
X173104607Y-58270392D01*
X172886100Y-58091068D01*
X172636807Y-57957818D01*
X172366308Y-57875764D01*
X172085000Y-57848057D01*
X171803691Y-57875764D01*
X171533192Y-57957818D01*
X171283899Y-58091068D01*
X171065392Y-58270393D01*
X170886068Y-58488900D01*
X170815000Y-58621858D01*
X170743932Y-58488899D01*
X170564607Y-58270392D01*
X170346100Y-58091068D01*
X170298942Y-58065862D01*
X170294003Y-58015714D01*
X170250546Y-57872453D01*
X170179974Y-57740423D01*
X170108799Y-57653697D01*
X170085001Y-57624699D01*
X170056003Y-57600901D01*
X169202203Y-56747102D01*
X169178401Y-56718099D01*
X169062676Y-56623126D01*
X168930647Y-56552554D01*
X168889261Y-56540000D01*
X197460000Y-56540000D01*
X197460001Y-125070000D01*
X99085000Y-125070000D01*
X99085000Y-69571890D01*
X101428524Y-69571890D01*
X101473175Y-69719099D01*
X101598359Y-69981920D01*
X101772412Y-70215269D01*
X101988645Y-70410178D01*
X102238748Y-70559157D01*
X102513109Y-70656481D01*
X102743000Y-70535814D01*
X102743000Y-69342000D01*
X101549845Y-69342000D01*
X101428524Y-69571890D01*
X99085000Y-69571890D01*
X99085000Y-58205000D01*
X101381928Y-58205000D01*
X101385000Y-58769250D01*
X101543750Y-58928000D01*
X102743000Y-58928000D01*
X102743000Y-57728750D01*
X102997000Y-57728750D01*
X102997000Y-58928000D01*
X105283000Y-58928000D01*
X105283000Y-57734186D01*
X105537000Y-57734186D01*
X105537000Y-58928000D01*
X106730155Y-58928000D01*
X106851476Y-58698110D01*
X106806825Y-58550901D01*
X106681641Y-58288080D01*
X106507588Y-58054731D01*
X106291355Y-57859822D01*
X106041252Y-57710843D01*
X105766891Y-57613519D01*
X105537000Y-57734186D01*
X105283000Y-57734186D01*
X105053109Y-57613519D01*
X104778748Y-57710843D01*
X104528645Y-57859822D01*
X104332498Y-58036626D01*
X104309502Y-57960820D01*
X104250537Y-57850506D01*
X104171185Y-57753815D01*
X104074494Y-57674463D01*
X103964180Y-57615498D01*
X103844482Y-57579188D01*
X103720000Y-57566928D01*
X103155750Y-57570000D01*
X102997000Y-57728750D01*
X102743000Y-57728750D01*
X102584250Y-57570000D01*
X102020000Y-57566928D01*
X101895518Y-57579188D01*
X101775820Y-57615498D01*
X101665506Y-57674463D01*
X101568815Y-57753815D01*
X101489463Y-57850506D01*
X101430498Y-57960820D01*
X101394188Y-58080518D01*
X101381928Y-58205000D01*
X99085000Y-58205000D01*
X99085000Y-56540000D01*
X115085739Y-56540000D01*
X115044353Y-56552554D01*
X115044353Y-56552554D01*
G37*
X115044353Y-56552554D02*
X114912324Y-56623126D01*
X114796599Y-56718099D01*
X114772801Y-56747097D01*
X113197103Y-58322796D01*
X113168099Y-58346599D01*
X113122777Y-58401825D01*
X113073126Y-58462324D01*
X113006498Y-58586976D01*
X113002554Y-58594354D01*
X112959097Y-58737615D01*
X112948100Y-58849268D01*
X112948100Y-58849278D01*
X112944424Y-58886600D01*
X112948100Y-58923923D01*
X112948101Y-61514235D01*
X112752702Y-61456903D01*
X111939605Y-62270000D01*
X111953748Y-62284143D01*
X111774143Y-62463748D01*
X111760000Y-62449605D01*
X111745858Y-62463748D01*
X111566253Y-62284143D01*
X111580395Y-62270000D01*
X110767298Y-61456903D01*
X110523329Y-61528486D01*
X110402429Y-61783996D01*
X110333700Y-62058184D01*
X110319783Y-62340512D01*
X110361213Y-62620130D01*
X110456397Y-62886292D01*
X110523329Y-63011514D01*
X110767296Y-63083097D01*
X110651023Y-63199370D01*
X110657426Y-63205773D01*
X107092003Y-66771196D01*
X107062999Y-66794999D01*
X107026472Y-66839508D01*
X106968026Y-66910724D01*
X106910817Y-67017754D01*
X106897454Y-67042754D01*
X106853997Y-67186015D01*
X106843000Y-67297668D01*
X106843000Y-67297678D01*
X106839324Y-67335000D01*
X106843000Y-67372323D01*
X106843001Y-68633696D01*
X106793588Y-68683110D01*
X106681641Y-68448080D01*
X106507588Y-68214731D01*
X106291355Y-68019822D01*
X106174477Y-67950201D01*
X106239014Y-67915706D01*
X106465134Y-67730134D01*
X106650706Y-67504014D01*
X106788599Y-67246034D01*
X106873513Y-66966111D01*
X106902185Y-66675000D01*
X106873513Y-66383889D01*
X106788599Y-66103966D01*
X106650706Y-65845986D01*
X106465134Y-65619866D01*
X106239014Y-65434294D01*
X106184209Y-65405000D01*
X106239014Y-65375706D01*
X106465134Y-65190134D01*
X106650706Y-64964014D01*
X106788599Y-64706034D01*
X106873513Y-64426111D01*
X106902185Y-64135000D01*
X106873513Y-63843889D01*
X106788599Y-63563966D01*
X106650706Y-63305986D01*
X106465134Y-63079866D01*
X106239014Y-62894294D01*
X106184209Y-62865000D01*
X106239014Y-62835706D01*
X106465134Y-62650134D01*
X106650706Y-62424014D01*
X106788599Y-62166034D01*
X106873513Y-61886111D01*
X106902185Y-61595000D01*
X106873513Y-61303889D01*
X106865447Y-61277298D01*
X110946903Y-61277298D01*
X111760000Y-62090395D01*
X112573097Y-61277298D01*
X112501514Y-61033329D01*
X112246004Y-60912429D01*
X111971816Y-60843700D01*
X111689488Y-60829783D01*
X111409870Y-60871213D01*
X111143708Y-60966397D01*
X111018486Y-61033329D01*
X110946903Y-61277298D01*
X106865447Y-61277298D01*
X106788599Y-61023966D01*
X106650706Y-60765986D01*
X106465134Y-60539866D01*
X106239014Y-60354294D01*
X106174477Y-60319799D01*
X106291355Y-60250178D01*
X106507588Y-60055269D01*
X106681641Y-59821920D01*
X106806825Y-59559099D01*
X106851476Y-59411890D01*
X106730155Y-59182000D01*
X105537000Y-59182000D01*
X105537000Y-59202000D01*
X105283000Y-59202000D01*
X105283000Y-59182000D01*
X102997000Y-59182000D01*
X102997000Y-59202000D01*
X102743000Y-59202000D01*
X102743000Y-59182000D01*
X101543750Y-59182000D01*
X101385000Y-59340750D01*
X101381928Y-59905000D01*
X101394188Y-60029482D01*
X101430498Y-60149180D01*
X101489463Y-60259494D01*
X101568815Y-60356185D01*
X101665506Y-60435537D01*
X101775820Y-60494502D01*
X101844687Y-60515393D01*
X101814866Y-60539866D01*
X101629294Y-60765986D01*
X101491401Y-61023966D01*
X101406487Y-61303889D01*
X101377815Y-61595000D01*
X101406487Y-61886111D01*
X101491401Y-62166034D01*
X101629294Y-62424014D01*
X101814866Y-62650134D01*
X102040986Y-62835706D01*
X102095791Y-62865000D01*
X102040986Y-62894294D01*
X101814866Y-63079866D01*
X101629294Y-63305986D01*
X101491401Y-63563966D01*
X101406487Y-63843889D01*
X101377815Y-64135000D01*
X101406487Y-64426111D01*
X101491401Y-64706034D01*
X101629294Y-64964014D01*
X101814866Y-65190134D01*
X102040986Y-65375706D01*
X102095791Y-65405000D01*
X102040986Y-65434294D01*
X101814866Y-65619866D01*
X101629294Y-65845986D01*
X101491401Y-66103966D01*
X101406487Y-66383889D01*
X101377815Y-66675000D01*
X101406487Y-66966111D01*
X101491401Y-67246034D01*
X101629294Y-67504014D01*
X101814866Y-67730134D01*
X102040986Y-67915706D01*
X102105523Y-67950201D01*
X101988645Y-68019822D01*
X101772412Y-68214731D01*
X101598359Y-68448080D01*
X101473175Y-68710901D01*
X101428524Y-68858110D01*
X101549845Y-69088000D01*
X102743000Y-69088000D01*
X102743000Y-69068000D01*
X102997000Y-69068000D01*
X102997000Y-69088000D01*
X105283000Y-69088000D01*
X105283000Y-69068000D01*
X105537000Y-69068000D01*
X105537000Y-69088000D01*
X105557000Y-69088000D01*
X105557000Y-69342000D01*
X105537000Y-69342000D01*
X105537000Y-69362000D01*
X105283000Y-69362000D01*
X105283000Y-69342000D01*
X102997000Y-69342000D01*
X102997000Y-70535814D01*
X103226891Y-70656481D01*
X103501252Y-70559157D01*
X103751355Y-70410178D01*
X103967588Y-70215269D01*
X104140000Y-69984120D01*
X104312412Y-70215269D01*
X104528645Y-70410178D01*
X104778748Y-70559157D01*
X104881199Y-70595499D01*
X103698803Y-71777896D01*
X103669799Y-71801699D01*
X103630161Y-71849999D01*
X103574826Y-71917424D01*
X103515495Y-72028423D01*
X103504254Y-72049454D01*
X103460797Y-72192715D01*
X103449800Y-72304368D01*
X103449800Y-72304378D01*
X103446124Y-72341700D01*
X103449800Y-72379023D01*
X103449800Y-72806928D01*
X102020000Y-72806928D01*
X101895518Y-72819188D01*
X101775820Y-72855498D01*
X101665506Y-72914463D01*
X101568815Y-72993815D01*
X101489463Y-73090506D01*
X101430498Y-73200820D01*
X101394188Y-73320518D01*
X101381928Y-73445000D01*
X101381928Y-75145000D01*
X101394188Y-75269482D01*
X101430498Y-75389180D01*
X101489463Y-75499494D01*
X101568815Y-75596185D01*
X101665506Y-75675537D01*
X101775820Y-75734502D01*
X101844687Y-75755393D01*
X101814866Y-75779866D01*
X101629294Y-76005986D01*
X101491401Y-76263966D01*
X101406487Y-76543889D01*
X101377815Y-76835000D01*
X101406487Y-77126111D01*
X101491401Y-77406034D01*
X101629294Y-77664014D01*
X101696542Y-77745956D01*
X101135602Y-78306897D01*
X101106599Y-78330699D01*
X101072191Y-78372626D01*
X101011626Y-78446424D01*
X100957624Y-78547454D01*
X100941054Y-78578454D01*
X100897597Y-78721715D01*
X100886600Y-78833368D01*
X100886600Y-78833378D01*
X100882924Y-78870700D01*
X100886600Y-78908022D01*
X100886601Y-87411868D01*
X100882924Y-87449200D01*
X100886601Y-87486533D01*
X100897598Y-87598186D01*
X100907241Y-87629974D01*
X100941054Y-87741446D01*
X101011626Y-87873476D01*
X101082552Y-87959899D01*
X101106600Y-87989201D01*
X101135598Y-88012999D01*
X101719125Y-88596527D01*
X101629294Y-88705986D01*
X101491401Y-88963966D01*
X101406487Y-89243889D01*
X101377815Y-89535000D01*
X101406487Y-89826111D01*
X101491401Y-90106034D01*
X101629294Y-90364014D01*
X101814866Y-90590134D01*
X102040986Y-90775706D01*
X102095791Y-90805000D01*
X102040986Y-90834294D01*
X101814866Y-91019866D01*
X101629294Y-91245986D01*
X101491401Y-91503966D01*
X101406487Y-91783889D01*
X101377815Y-92075000D01*
X101406487Y-92366111D01*
X101491401Y-92646034D01*
X101629294Y-92904014D01*
X101814866Y-93130134D01*
X102040986Y-93315706D01*
X102095791Y-93345000D01*
X102040986Y-93374294D01*
X101814866Y-93559866D01*
X101629294Y-93785986D01*
X101491401Y-94043966D01*
X101406487Y-94323889D01*
X101377815Y-94615000D01*
X101406487Y-94906111D01*
X101491401Y-95186034D01*
X101629294Y-95444014D01*
X101814866Y-95670134D01*
X102040986Y-95855706D01*
X102095791Y-95885000D01*
X102040986Y-95914294D01*
X101814866Y-96099866D01*
X101629294Y-96325986D01*
X101491401Y-96583966D01*
X101406487Y-96863889D01*
X101377815Y-97155000D01*
X101406487Y-97446111D01*
X101491401Y-97726034D01*
X101629294Y-97984014D01*
X101814866Y-98210134D01*
X102040986Y-98395706D01*
X102095791Y-98425000D01*
X102040986Y-98454294D01*
X101814866Y-98639866D01*
X101629294Y-98865986D01*
X101491401Y-99123966D01*
X101406487Y-99403889D01*
X101377815Y-99695000D01*
X101406487Y-99986111D01*
X101491401Y-100266034D01*
X101629294Y-100524014D01*
X101814866Y-100750134D01*
X102040986Y-100935706D01*
X102095791Y-100965000D01*
X102040986Y-100994294D01*
X101814866Y-101179866D01*
X101629294Y-101405986D01*
X101491401Y-101663966D01*
X101406487Y-101943889D01*
X101377815Y-102235000D01*
X101406487Y-102526111D01*
X101491401Y-102806034D01*
X101629294Y-103064014D01*
X101814866Y-103290134D01*
X102040986Y-103475706D01*
X102095791Y-103505000D01*
X102040986Y-103534294D01*
X101814866Y-103719866D01*
X101629294Y-103945986D01*
X101491401Y-104203966D01*
X101406487Y-104483889D01*
X101377815Y-104775000D01*
X101406487Y-105066111D01*
X101491401Y-105346034D01*
X101629294Y-105604014D01*
X101814866Y-105830134D01*
X102040986Y-106015706D01*
X102095791Y-106045000D01*
X102040986Y-106074294D01*
X101814866Y-106259866D01*
X101629294Y-106485986D01*
X101491401Y-106743966D01*
X101406487Y-107023889D01*
X101377815Y-107315000D01*
X101406487Y-107606111D01*
X101491401Y-107886034D01*
X101629294Y-108144014D01*
X101814866Y-108370134D01*
X102040986Y-108555706D01*
X102095791Y-108585000D01*
X102040986Y-108614294D01*
X101814866Y-108799866D01*
X101629294Y-109025986D01*
X101491401Y-109283966D01*
X101406487Y-109563889D01*
X101377815Y-109855000D01*
X101406487Y-110146111D01*
X101491401Y-110426034D01*
X101629294Y-110684014D01*
X101814866Y-110910134D01*
X102040986Y-111095706D01*
X102095791Y-111125000D01*
X102040986Y-111154294D01*
X101814866Y-111339866D01*
X101629294Y-111565986D01*
X101491401Y-111823966D01*
X101406487Y-112103889D01*
X101377815Y-112395000D01*
X101406487Y-112686111D01*
X101491401Y-112966034D01*
X101629294Y-113224014D01*
X101814866Y-113450134D01*
X102040986Y-113635706D01*
X102095791Y-113665000D01*
X102040986Y-113694294D01*
X101814866Y-113879866D01*
X101629294Y-114105986D01*
X101491401Y-114363966D01*
X101406487Y-114643889D01*
X101377815Y-114935000D01*
X101406487Y-115226111D01*
X101491401Y-115506034D01*
X101629294Y-115764014D01*
X101814866Y-115990134D01*
X102040986Y-116175706D01*
X102095791Y-116205000D01*
X102040986Y-116234294D01*
X101814866Y-116419866D01*
X101629294Y-116645986D01*
X101491401Y-116903966D01*
X101406487Y-117183889D01*
X101377815Y-117475000D01*
X101406487Y-117766111D01*
X101491401Y-118046034D01*
X101629294Y-118304014D01*
X101814866Y-118530134D01*
X102040986Y-118715706D01*
X102095791Y-118745000D01*
X102040986Y-118774294D01*
X101814866Y-118959866D01*
X101629294Y-119185986D01*
X101491401Y-119443966D01*
X101406487Y-119723889D01*
X101377815Y-120015000D01*
X101406487Y-120306111D01*
X101491401Y-120586034D01*
X101629294Y-120844014D01*
X101814866Y-121070134D01*
X102040986Y-121255706D01*
X102095791Y-121285000D01*
X102040986Y-121314294D01*
X101814866Y-121499866D01*
X101629294Y-121725986D01*
X101491401Y-121983966D01*
X101406487Y-122263889D01*
X101377815Y-122555000D01*
X101406487Y-122846111D01*
X101491401Y-123126034D01*
X101629294Y-123384014D01*
X101814866Y-123610134D01*
X102040986Y-123795706D01*
X102298966Y-123933599D01*
X102578889Y-124018513D01*
X102797050Y-124040000D01*
X102942950Y-124040000D01*
X103161111Y-124018513D01*
X103441034Y-123933599D01*
X103699014Y-123795706D01*
X103925134Y-123610134D01*
X104110706Y-123384014D01*
X104140000Y-123329209D01*
X104169294Y-123384014D01*
X104354866Y-123610134D01*
X104580986Y-123795706D01*
X104838966Y-123933599D01*
X105118889Y-124018513D01*
X105337050Y-124040000D01*
X105482950Y-124040000D01*
X105701111Y-124018513D01*
X105981034Y-123933599D01*
X106239014Y-123795706D01*
X106465134Y-123610134D01*
X106650706Y-123384014D01*
X106788599Y-123126034D01*
X106873513Y-122846111D01*
X106902185Y-122555000D01*
X106873513Y-122263889D01*
X106788599Y-121983966D01*
X106650706Y-121725986D01*
X106585396Y-121646405D01*
X107894511Y-120337290D01*
X189865000Y-120337290D01*
X189865000Y-120962710D01*
X189987014Y-121576113D01*
X190226352Y-122153926D01*
X190573817Y-122673944D01*
X191016056Y-123116183D01*
X191536074Y-123463648D01*
X192113887Y-123702986D01*
X192727290Y-123825000D01*
X193352710Y-123825000D01*
X193966113Y-123702986D01*
X194543926Y-123463648D01*
X195063944Y-123116183D01*
X195506183Y-122673944D01*
X195853648Y-122153926D01*
X196092986Y-121576113D01*
X196215000Y-120962710D01*
X196215000Y-120337290D01*
X196092986Y-119723887D01*
X195853648Y-119146074D01*
X195506183Y-118626056D01*
X195063944Y-118183817D01*
X194543926Y-117836352D01*
X193966113Y-117597014D01*
X193352710Y-117475000D01*
X192727290Y-117475000D01*
X192113887Y-117597014D01*
X191536074Y-117836352D01*
X191016056Y-118183817D01*
X190573817Y-118626056D01*
X190226352Y-119146074D01*
X189987014Y-119723887D01*
X189865000Y-120337290D01*
X107894511Y-120337290D01*
X114811003Y-113420799D01*
X114840001Y-113397001D01*
X114866332Y-113364917D01*
X114934974Y-113281277D01*
X115005546Y-113149247D01*
X115049003Y-113005986D01*
X115060000Y-112894333D01*
X115060000Y-112894323D01*
X115063676Y-112857000D01*
X115060000Y-112819677D01*
X115060000Y-111887114D01*
X115278889Y-111953513D01*
X115497050Y-111975000D01*
X115642950Y-111975000D01*
X115861111Y-111953513D01*
X116141034Y-111868599D01*
X116399014Y-111730706D01*
X116625134Y-111545134D01*
X116810706Y-111319014D01*
X116847595Y-111250000D01*
X130808499Y-111250000D01*
X134760426Y-115201928D01*
X134535000Y-115201928D01*
X134410518Y-115214188D01*
X134290820Y-115250498D01*
X134180506Y-115309463D01*
X134083815Y-115388815D01*
X134004463Y-115485506D01*
X133945498Y-115595820D01*
X133909188Y-115715518D01*
X133896928Y-115840000D01*
X133896928Y-117840000D01*
X133909188Y-117964482D01*
X133945498Y-118084180D01*
X134004463Y-118194494D01*
X134083815Y-118291185D01*
X134180506Y-118370537D01*
X134290820Y-118429502D01*
X134410518Y-118465812D01*
X134535000Y-118478072D01*
X135975000Y-118478072D01*
X136099482Y-118465812D01*
X136219180Y-118429502D01*
X136329494Y-118370537D01*
X136376313Y-118332114D01*
X136722201Y-118678003D01*
X136745999Y-118707001D01*
X136861724Y-118801974D01*
X136993753Y-118872546D01*
X137137014Y-118916003D01*
X137248667Y-118927000D01*
X137248675Y-118927000D01*
X137286000Y-118930676D01*
X137323325Y-118927000D01*
X186525378Y-118927000D01*
X186562700Y-118930676D01*
X186600022Y-118927000D01*
X186600033Y-118927000D01*
X186711686Y-118916003D01*
X186854947Y-118872546D01*
X186986976Y-118801974D01*
X187102701Y-118707001D01*
X187126504Y-118677997D01*
X191997630Y-113806872D01*
X192020392Y-113834608D01*
X192238899Y-114013932D01*
X192488192Y-114147182D01*
X192758691Y-114229236D01*
X192969508Y-114250000D01*
X193110492Y-114250000D01*
X193321309Y-114229236D01*
X193591808Y-114147182D01*
X193841101Y-114013932D01*
X194059608Y-113834608D01*
X194238932Y-113616101D01*
X194372182Y-113366808D01*
X194454236Y-113096309D01*
X194481943Y-112815000D01*
X194454236Y-112533691D01*
X194372182Y-112263192D01*
X194238932Y-112013899D01*
X194059608Y-111795392D01*
X193841101Y-111616068D01*
X193591808Y-111482818D01*
X193321309Y-111400764D01*
X193110492Y-111380000D01*
X192969508Y-111380000D01*
X192758691Y-111400764D01*
X192488192Y-111482818D01*
X192238899Y-111616068D01*
X192020392Y-111795392D01*
X191841068Y-112013899D01*
X191815861Y-112061058D01*
X191765714Y-112065997D01*
X191640799Y-112103889D01*
X191622453Y-112109454D01*
X191490423Y-112180026D01*
X191406783Y-112248668D01*
X191374699Y-112274999D01*
X191350901Y-112303997D01*
X191060241Y-112594657D01*
X191054236Y-112533691D01*
X190972182Y-112263192D01*
X190838932Y-112013899D01*
X190659608Y-111795392D01*
X190441101Y-111616068D01*
X190400000Y-111594099D01*
X190400000Y-110490123D01*
X190403676Y-110452800D01*
X190400000Y-110415477D01*
X190400000Y-110415467D01*
X190389003Y-110303814D01*
X190345546Y-110160553D01*
X190338434Y-110147247D01*
X190274974Y-110028523D01*
X190203799Y-109941797D01*
X190180001Y-109912799D01*
X190151003Y-109889001D01*
X187170272Y-106908271D01*
X187199180Y-106899502D01*
X187309494Y-106840537D01*
X187406185Y-106761185D01*
X187485537Y-106664494D01*
X187544502Y-106554180D01*
X187580812Y-106434482D01*
X187593072Y-106310000D01*
X187593072Y-104510000D01*
X187580812Y-104385518D01*
X187544502Y-104265820D01*
X187485537Y-104155506D01*
X187406185Y-104058815D01*
X187323524Y-103990977D01*
X188256958Y-103057543D01*
X188260147Y-103073574D01*
X188368320Y-103334727D01*
X188525363Y-103569759D01*
X188725241Y-103769637D01*
X188960273Y-103926680D01*
X189221426Y-104034853D01*
X189498665Y-104090000D01*
X189781335Y-104090000D01*
X190058574Y-104034853D01*
X190319727Y-103926680D01*
X190554759Y-103769637D01*
X190754637Y-103569759D01*
X190911680Y-103334727D01*
X191019853Y-103073574D01*
X191075000Y-102796335D01*
X191075000Y-102513665D01*
X191605000Y-102513665D01*
X191605000Y-102796335D01*
X191660147Y-103073574D01*
X191768320Y-103334727D01*
X191925363Y-103569759D01*
X192125241Y-103769637D01*
X192360273Y-103926680D01*
X192621426Y-104034853D01*
X192898665Y-104090000D01*
X193181335Y-104090000D01*
X193458574Y-104034853D01*
X193719727Y-103926680D01*
X193954759Y-103769637D01*
X194154637Y-103569759D01*
X194311680Y-103334727D01*
X194419853Y-103073574D01*
X194475000Y-102796335D01*
X194475000Y-102513665D01*
X194419853Y-102236426D01*
X194311680Y-101975273D01*
X194154637Y-101740241D01*
X193954759Y-101540363D01*
X193719727Y-101383320D01*
X193458574Y-101275147D01*
X193181335Y-101220000D01*
X192898665Y-101220000D01*
X192621426Y-101275147D01*
X192360273Y-101383320D01*
X192125241Y-101540363D01*
X191925363Y-101740241D01*
X191768320Y-101975273D01*
X191660147Y-102236426D01*
X191605000Y-102513665D01*
X191075000Y-102513665D01*
X191019853Y-102236426D01*
X190911680Y-101975273D01*
X190754637Y-101740241D01*
X190554759Y-101540363D01*
X190319727Y-101383320D01*
X190058574Y-101275147D01*
X189781335Y-101220000D01*
X189498665Y-101220000D01*
X189221426Y-101275147D01*
X189210400Y-101279714D01*
X189210400Y-95024492D01*
X189433182Y-95119367D01*
X189515961Y-95136904D01*
X189738000Y-95014915D01*
X189738000Y-93472000D01*
X189992000Y-93472000D01*
X189992000Y-95014915D01*
X190214039Y-95136904D01*
X190296818Y-95119367D01*
X190556646Y-95008715D01*
X190789895Y-94849500D01*
X190987601Y-94647839D01*
X191142166Y-94411483D01*
X191247650Y-94149514D01*
X191300000Y-93872000D01*
X191300000Y-93472000D01*
X189992000Y-93472000D01*
X189738000Y-93472000D01*
X189718000Y-93472000D01*
X189718000Y-93218000D01*
X189738000Y-93218000D01*
X189738000Y-93198000D01*
X189992000Y-93198000D01*
X189992000Y-93218000D01*
X191300000Y-93218000D01*
X191300000Y-92818000D01*
X191247650Y-92540486D01*
X191142166Y-92278517D01*
X190987601Y-92042161D01*
X190789895Y-91840500D01*
X190556646Y-91681285D01*
X190369932Y-91601770D01*
X190376004Y-91595698D01*
X190405001Y-91571901D01*
X190499974Y-91456176D01*
X190570546Y-91324147D01*
X190614003Y-91180886D01*
X190625000Y-91069233D01*
X190625000Y-91069232D01*
X190628677Y-91031900D01*
X190625000Y-90994567D01*
X190625000Y-87345901D01*
X190666101Y-87323932D01*
X190884608Y-87144608D01*
X191063932Y-86926101D01*
X191197182Y-86676808D01*
X191279236Y-86406309D01*
X191300000Y-86195491D01*
X191300000Y-85254508D01*
X191279236Y-85043691D01*
X191197182Y-84773192D01*
X191063932Y-84523899D01*
X190884607Y-84305392D01*
X190666100Y-84126068D01*
X190416807Y-83992818D01*
X190146308Y-83910764D01*
X189865000Y-83883057D01*
X189583691Y-83910764D01*
X189355000Y-83980136D01*
X189355000Y-83656072D01*
X189433182Y-83689367D01*
X189515961Y-83706904D01*
X189738000Y-83584915D01*
X189738000Y-82042000D01*
X189992000Y-82042000D01*
X189992000Y-83584915D01*
X190214039Y-83706904D01*
X190296818Y-83689367D01*
X190556646Y-83578715D01*
X190789895Y-83419500D01*
X190987601Y-83217839D01*
X191142166Y-82981483D01*
X191247650Y-82719514D01*
X191300000Y-82442000D01*
X191300000Y-82042000D01*
X189992000Y-82042000D01*
X189738000Y-82042000D01*
X189718000Y-82042000D01*
X189718000Y-81788000D01*
X189738000Y-81788000D01*
X189738000Y-80245085D01*
X189992000Y-80245085D01*
X189992000Y-81788000D01*
X191300000Y-81788000D01*
X191300000Y-81388000D01*
X191247650Y-81110486D01*
X191142166Y-80848517D01*
X190987601Y-80612161D01*
X190789895Y-80410500D01*
X190556646Y-80251285D01*
X190296818Y-80140633D01*
X190214039Y-80123096D01*
X189992000Y-80245085D01*
X189738000Y-80245085D01*
X189515961Y-80123096D01*
X189433182Y-80140633D01*
X189355000Y-80173928D01*
X189355000Y-77405101D01*
X190376003Y-76384099D01*
X190405001Y-76360301D01*
X190499974Y-76244576D01*
X190570546Y-76112547D01*
X190614003Y-75969286D01*
X190618942Y-75919139D01*
X190666101Y-75893932D01*
X190884608Y-75714608D01*
X191063932Y-75496101D01*
X191197182Y-75246808D01*
X191279236Y-74976309D01*
X191300000Y-74765491D01*
X191300000Y-73824508D01*
X191279236Y-73613691D01*
X191197182Y-73343192D01*
X191063932Y-73093899D01*
X190884607Y-72875392D01*
X190666100Y-72696068D01*
X190416807Y-72562818D01*
X190146308Y-72480764D01*
X189865000Y-72453057D01*
X189583691Y-72480764D01*
X189313192Y-72562818D01*
X189063899Y-72696068D01*
X188845392Y-72875393D01*
X188666068Y-73093900D01*
X188595000Y-73226858D01*
X188523932Y-73093899D01*
X188344607Y-72875392D01*
X188126100Y-72696068D01*
X187876807Y-72562818D01*
X187606308Y-72480764D01*
X187325000Y-72453057D01*
X187043691Y-72480764D01*
X186773192Y-72562818D01*
X186523899Y-72696068D01*
X186305392Y-72875393D01*
X186126068Y-73093900D01*
X186055000Y-73226858D01*
X185983932Y-73093899D01*
X185804607Y-72875392D01*
X185586100Y-72696068D01*
X185336807Y-72562818D01*
X185066308Y-72480764D01*
X184785000Y-72453057D01*
X184503691Y-72480764D01*
X184353500Y-72526323D01*
X184353500Y-71734601D01*
X186444403Y-69643699D01*
X186473401Y-69619901D01*
X186568374Y-69504176D01*
X186638946Y-69372147D01*
X186682403Y-69228886D01*
X186693400Y-69117233D01*
X186693400Y-69117224D01*
X186697076Y-69079901D01*
X186693400Y-69042578D01*
X186693400Y-64497622D01*
X186697076Y-64460299D01*
X186693400Y-64422976D01*
X186693400Y-64422967D01*
X186682403Y-64311314D01*
X186638946Y-64168053D01*
X186588353Y-64073401D01*
X186568374Y-64036023D01*
X186497199Y-63949297D01*
X186473401Y-63920299D01*
X186444404Y-63896502D01*
X184275000Y-61727099D01*
X184275000Y-61434864D01*
X184503692Y-61504236D01*
X184785000Y-61531943D01*
X185066309Y-61504236D01*
X185336808Y-61422182D01*
X185586101Y-61288932D01*
X185804608Y-61109608D01*
X185983932Y-60891101D01*
X186114251Y-60647290D01*
X189865000Y-60647290D01*
X189865000Y-61272710D01*
X189987014Y-61886113D01*
X190226352Y-62463926D01*
X190573817Y-62983944D01*
X191016056Y-63426183D01*
X191536074Y-63773648D01*
X192113887Y-64012986D01*
X192727290Y-64135000D01*
X193352710Y-64135000D01*
X193966113Y-64012986D01*
X194543926Y-63773648D01*
X195063944Y-63426183D01*
X195506183Y-62983944D01*
X195853648Y-62463926D01*
X196092986Y-61886113D01*
X196215000Y-61272710D01*
X196215000Y-60647290D01*
X196092986Y-60033887D01*
X195853648Y-59456074D01*
X195506183Y-58936056D01*
X195063944Y-58493817D01*
X194543926Y-58146352D01*
X193966113Y-57907014D01*
X193352710Y-57785000D01*
X192727290Y-57785000D01*
X192113887Y-57907014D01*
X191536074Y-58146352D01*
X191016056Y-58493817D01*
X190573817Y-58936056D01*
X190226352Y-59456074D01*
X189987014Y-60033887D01*
X189865000Y-60647290D01*
X186114251Y-60647290D01*
X186117182Y-60641808D01*
X186199236Y-60371309D01*
X186220000Y-60160491D01*
X186220000Y-59219508D01*
X186199236Y-59008691D01*
X186117182Y-58738192D01*
X185983932Y-58488899D01*
X185804607Y-58270392D01*
X185586100Y-58091068D01*
X185336807Y-57957818D01*
X185066308Y-57875764D01*
X184785000Y-57848057D01*
X184503691Y-57875764D01*
X184233192Y-57957818D01*
X183983899Y-58091068D01*
X183861456Y-58191555D01*
X182871204Y-57201303D01*
X182847401Y-57172299D01*
X182731676Y-57077326D01*
X182599647Y-57006754D01*
X182456386Y-56963297D01*
X182344733Y-56952300D01*
X182344722Y-56952300D01*
X182307400Y-56948624D01*
X182270078Y-56952300D01*
X177108533Y-56952300D01*
X177071200Y-56948623D01*
X177033867Y-56952300D01*
X176922214Y-56963297D01*
X176778953Y-57006754D01*
X176646924Y-57077326D01*
X176531199Y-57172299D01*
X176507401Y-57201297D01*
X175534029Y-58174670D01*
X175316646Y-58026285D01*
X175056818Y-57915633D01*
X174974039Y-57898096D01*
X174752000Y-58020085D01*
X174752000Y-59563000D01*
X174772000Y-59563000D01*
X174772000Y-59817000D01*
X174752000Y-59817000D01*
X174752000Y-59837000D01*
X174498000Y-59837000D01*
X174498000Y-59817000D01*
X174478000Y-59817000D01*
X174478000Y-59563000D01*
X174498000Y-59563000D01*
X174498000Y-58020085D01*
X174275961Y-57898096D01*
X174193182Y-57915633D01*
X173933354Y-58026285D01*
X173700105Y-58185500D01*
X173502399Y-58387161D01*
X173352265Y-58616741D01*
X173283932Y-58488899D01*
X173104607Y-58270392D01*
X172886100Y-58091068D01*
X172636807Y-57957818D01*
X172366308Y-57875764D01*
X172085000Y-57848057D01*
X171803691Y-57875764D01*
X171533192Y-57957818D01*
X171283899Y-58091068D01*
X171065392Y-58270393D01*
X170886068Y-58488900D01*
X170815000Y-58621858D01*
X170743932Y-58488899D01*
X170564607Y-58270392D01*
X170346100Y-58091068D01*
X170298942Y-58065862D01*
X170294003Y-58015714D01*
X170250546Y-57872453D01*
X170179974Y-57740423D01*
X170108799Y-57653697D01*
X170085001Y-57624699D01*
X170056003Y-57600901D01*
X169202203Y-56747102D01*
X169178401Y-56718099D01*
X169062676Y-56623126D01*
X168930647Y-56552554D01*
X168889261Y-56540000D01*
X197460000Y-56540000D01*
X197460001Y-125070000D01*
X99085000Y-125070000D01*
X99085000Y-69571890D01*
X101428524Y-69571890D01*
X101473175Y-69719099D01*
X101598359Y-69981920D01*
X101772412Y-70215269D01*
X101988645Y-70410178D01*
X102238748Y-70559157D01*
X102513109Y-70656481D01*
X102743000Y-70535814D01*
X102743000Y-69342000D01*
X101549845Y-69342000D01*
X101428524Y-69571890D01*
X99085000Y-69571890D01*
X99085000Y-58205000D01*
X101381928Y-58205000D01*
X101385000Y-58769250D01*
X101543750Y-58928000D01*
X102743000Y-58928000D01*
X102743000Y-57728750D01*
X102997000Y-57728750D01*
X102997000Y-58928000D01*
X105283000Y-58928000D01*
X105283000Y-57734186D01*
X105537000Y-57734186D01*
X105537000Y-58928000D01*
X106730155Y-58928000D01*
X106851476Y-58698110D01*
X106806825Y-58550901D01*
X106681641Y-58288080D01*
X106507588Y-58054731D01*
X106291355Y-57859822D01*
X106041252Y-57710843D01*
X105766891Y-57613519D01*
X105537000Y-57734186D01*
X105283000Y-57734186D01*
X105053109Y-57613519D01*
X104778748Y-57710843D01*
X104528645Y-57859822D01*
X104332498Y-58036626D01*
X104309502Y-57960820D01*
X104250537Y-57850506D01*
X104171185Y-57753815D01*
X104074494Y-57674463D01*
X103964180Y-57615498D01*
X103844482Y-57579188D01*
X103720000Y-57566928D01*
X103155750Y-57570000D01*
X102997000Y-57728750D01*
X102743000Y-57728750D01*
X102584250Y-57570000D01*
X102020000Y-57566928D01*
X101895518Y-57579188D01*
X101775820Y-57615498D01*
X101665506Y-57674463D01*
X101568815Y-57753815D01*
X101489463Y-57850506D01*
X101430498Y-57960820D01*
X101394188Y-58080518D01*
X101381928Y-58205000D01*
X99085000Y-58205000D01*
X99085000Y-56540000D01*
X115085739Y-56540000D01*
X115044353Y-56552554D01*
G36*
X181443900Y-61288932D02*
G01*
X181693193Y-61422182D01*
X181963692Y-61504236D01*
X182245000Y-61531943D01*
X182526309Y-61504236D01*
X182755001Y-61434864D01*
X182755001Y-62004568D01*
X182751324Y-62041900D01*
X182755001Y-62079233D01*
X182765998Y-62190886D01*
X182771094Y-62207685D01*
X182809454Y-62334146D01*
X182880026Y-62466176D01*
X182951201Y-62552902D01*
X182975000Y-62581901D01*
X183003998Y-62605699D01*
X185173400Y-64775102D01*
X185173400Y-65526435D01*
X185134039Y-65518096D01*
X184912000Y-65640085D01*
X184912000Y-67183000D01*
X184932000Y-67183000D01*
X184932000Y-67437000D01*
X184912000Y-67437000D01*
X184912000Y-68979915D01*
X184942065Y-68996433D01*
X183082503Y-70855996D01*
X183053499Y-70879799D01*
X183011973Y-70930399D01*
X182958526Y-70995524D01*
X182899703Y-71105574D01*
X182887954Y-71127554D01*
X182844497Y-71270815D01*
X182833500Y-71382468D01*
X182833500Y-71382478D01*
X182829824Y-71419800D01*
X182833500Y-71457123D01*
X182833500Y-72582431D01*
X182796807Y-72562818D01*
X182526308Y-72480764D01*
X182245000Y-72453057D01*
X181963691Y-72480764D01*
X181693192Y-72562818D01*
X181443899Y-72696068D01*
X181225392Y-72875393D01*
X181046068Y-73093900D01*
X180975000Y-73226858D01*
X180903932Y-73093899D01*
X180724607Y-72875392D01*
X180506100Y-72696068D01*
X180256807Y-72562818D01*
X179986308Y-72480764D01*
X179705000Y-72453057D01*
X179423691Y-72480764D01*
X179153192Y-72562818D01*
X178903899Y-72696068D01*
X178685392Y-72875393D01*
X178506068Y-73093900D01*
X178437735Y-73221742D01*
X178287601Y-72992161D01*
X178089895Y-72790500D01*
X177856646Y-72631285D01*
X177596818Y-72520633D01*
X177514039Y-72503096D01*
X177292000Y-72625085D01*
X177292000Y-74168000D01*
X177312000Y-74168000D01*
X177312000Y-74422000D01*
X177292000Y-74422000D01*
X177292000Y-75964915D01*
X177514039Y-76086904D01*
X177596818Y-76069367D01*
X177856646Y-75958715D01*
X178089895Y-75799500D01*
X178287601Y-75597839D01*
X178437735Y-75368259D01*
X178506068Y-75496101D01*
X178685393Y-75714608D01*
X178903900Y-75893932D01*
X179153193Y-76027182D01*
X179423692Y-76109236D01*
X179705000Y-76136943D01*
X179986309Y-76109236D01*
X180256808Y-76027182D01*
X180506101Y-75893932D01*
X180724608Y-75714608D01*
X180903932Y-75496101D01*
X180975000Y-75363142D01*
X181046068Y-75496101D01*
X181225393Y-75714608D01*
X181443900Y-75893932D01*
X181485001Y-75915901D01*
X181485000Y-79454177D01*
X181481324Y-79491500D01*
X181485000Y-79528822D01*
X181485000Y-79528832D01*
X181495997Y-79640485D01*
X181531220Y-79756602D01*
X181539454Y-79783746D01*
X181610026Y-79915776D01*
X181639174Y-79951292D01*
X181704999Y-80031501D01*
X181734003Y-80055304D01*
X181822341Y-80143642D01*
X181693192Y-80182818D01*
X181443899Y-80316068D01*
X181225392Y-80495393D01*
X181046068Y-80713900D01*
X180975000Y-80846858D01*
X180903932Y-80713899D01*
X180724607Y-80495392D01*
X180506100Y-80316068D01*
X180256807Y-80182818D01*
X179986308Y-80100764D01*
X179705000Y-80073057D01*
X179423691Y-80100764D01*
X179153192Y-80182818D01*
X178903899Y-80316068D01*
X178685392Y-80495393D01*
X178506068Y-80713900D01*
X178435000Y-80846858D01*
X178363932Y-80713899D01*
X178184607Y-80495392D01*
X177966100Y-80316068D01*
X177716807Y-80182818D01*
X177446308Y-80100764D01*
X177165000Y-80073057D01*
X176883691Y-80100764D01*
X176613192Y-80182818D01*
X176363899Y-80316068D01*
X176145392Y-80495393D01*
X176052581Y-80608483D01*
X176050812Y-80590518D01*
X176014502Y-80470820D01*
X175955537Y-80360506D01*
X175876185Y-80263815D01*
X175779494Y-80184463D01*
X175669180Y-80125498D01*
X175549482Y-80089188D01*
X175425000Y-80076928D01*
X173825000Y-80076928D01*
X173700518Y-80089188D01*
X173580820Y-80125498D01*
X173470506Y-80184463D01*
X173373815Y-80263815D01*
X173294463Y-80360506D01*
X173235498Y-80470820D01*
X173199188Y-80590518D01*
X173186928Y-80715000D01*
X173186928Y-83115000D01*
X173199188Y-83239482D01*
X173235498Y-83359180D01*
X173294463Y-83469494D01*
X173373815Y-83566185D01*
X173470506Y-83645537D01*
X173580820Y-83704502D01*
X173700518Y-83740812D01*
X173825000Y-83753072D01*
X175425000Y-83753072D01*
X175549482Y-83740812D01*
X175669180Y-83704502D01*
X175779494Y-83645537D01*
X175876185Y-83566185D01*
X175955537Y-83469494D01*
X176014502Y-83359180D01*
X176050812Y-83239482D01*
X176052581Y-83221517D01*
X176145393Y-83334608D01*
X176363900Y-83513932D01*
X176613193Y-83647182D01*
X176883692Y-83729236D01*
X177165000Y-83756943D01*
X177446309Y-83729236D01*
X177716808Y-83647182D01*
X177966101Y-83513932D01*
X178184608Y-83334608D01*
X178363932Y-83116101D01*
X178435000Y-82983142D01*
X178506068Y-83116101D01*
X178685393Y-83334608D01*
X178903900Y-83513932D01*
X179153193Y-83647182D01*
X179423692Y-83729236D01*
X179705000Y-83756943D01*
X179986309Y-83729236D01*
X180256808Y-83647182D01*
X180506101Y-83513932D01*
X180724608Y-83334608D01*
X180903932Y-83116101D01*
X180975000Y-82983142D01*
X181046068Y-83116101D01*
X181225393Y-83334608D01*
X181443900Y-83513932D01*
X181491058Y-83539138D01*
X181495997Y-83589286D01*
X181539454Y-83732547D01*
X181610026Y-83864576D01*
X181704999Y-83980301D01*
X181718158Y-83991100D01*
X181553354Y-84061285D01*
X181320105Y-84220500D01*
X181122399Y-84422161D01*
X180972265Y-84651741D01*
X180903932Y-84523899D01*
X180724607Y-84305392D01*
X180506100Y-84126068D01*
X180256807Y-83992818D01*
X179986308Y-83910764D01*
X179705000Y-83883057D01*
X179423691Y-83910764D01*
X179153192Y-83992818D01*
X178903899Y-84126068D01*
X178685392Y-84305393D01*
X178506068Y-84523900D01*
X178437735Y-84651742D01*
X178287601Y-84422161D01*
X178089895Y-84220500D01*
X177856646Y-84061285D01*
X177596818Y-83950633D01*
X177514039Y-83933096D01*
X177292000Y-84055085D01*
X177292000Y-85598000D01*
X177312000Y-85598000D01*
X177312000Y-85852000D01*
X177292000Y-85852000D01*
X177292000Y-87394915D01*
X177514039Y-87516904D01*
X177596818Y-87499367D01*
X177856646Y-87388715D01*
X178089895Y-87229500D01*
X178287601Y-87027839D01*
X178437735Y-86798259D01*
X178506068Y-86926101D01*
X178685393Y-87144608D01*
X178903900Y-87323932D01*
X179153193Y-87457182D01*
X179423692Y-87539236D01*
X179705000Y-87566943D01*
X179986309Y-87539236D01*
X180256808Y-87457182D01*
X180506101Y-87323932D01*
X180724608Y-87144608D01*
X180903932Y-86926101D01*
X180972265Y-86798259D01*
X181122399Y-87027839D01*
X181320105Y-87229500D01*
X181539167Y-87379031D01*
X177858499Y-91059700D01*
X174662333Y-91059700D01*
X174625000Y-91056023D01*
X174587667Y-91059700D01*
X174476014Y-91070697D01*
X174332753Y-91114154D01*
X174200724Y-91184726D01*
X174084999Y-91279699D01*
X173990026Y-91395424D01*
X173930425Y-91506928D01*
X173825000Y-91506928D01*
X173700518Y-91519188D01*
X173580820Y-91555498D01*
X173470506Y-91614463D01*
X173373815Y-91693815D01*
X173294463Y-91790506D01*
X173235498Y-91900820D01*
X173199188Y-92020518D01*
X173186928Y-92145000D01*
X173186928Y-94545000D01*
X173199188Y-94669482D01*
X173235498Y-94789180D01*
X173294463Y-94899494D01*
X173373815Y-94996185D01*
X173470506Y-95075537D01*
X173580820Y-95134502D01*
X173700518Y-95170812D01*
X173825000Y-95183072D01*
X175425000Y-95183072D01*
X175549482Y-95170812D01*
X175669180Y-95134502D01*
X175779494Y-95075537D01*
X175876185Y-94996185D01*
X175955537Y-94899494D01*
X176014502Y-94789180D01*
X176050812Y-94669482D01*
X176052581Y-94651517D01*
X176145393Y-94764608D01*
X176363900Y-94943932D01*
X176411059Y-94969139D01*
X176415568Y-95014915D01*
X176415998Y-95019285D01*
X176459454Y-95162546D01*
X176530026Y-95294576D01*
X176561718Y-95333192D01*
X176625000Y-95410301D01*
X176653998Y-95434099D01*
X180075700Y-98855802D01*
X180075700Y-100833825D01*
X179994482Y-100809188D01*
X179870000Y-100796928D01*
X178270000Y-100796928D01*
X178145518Y-100809188D01*
X178025820Y-100845498D01*
X177915506Y-100904463D01*
X177818815Y-100983815D01*
X177739463Y-101080506D01*
X177680498Y-101190820D01*
X177644188Y-101310518D01*
X177631928Y-101435000D01*
X177631928Y-103035000D01*
X177644188Y-103159482D01*
X177680498Y-103279180D01*
X177739463Y-103389494D01*
X177818815Y-103486185D01*
X177915506Y-103565537D01*
X178025820Y-103624502D01*
X178145518Y-103660812D01*
X178163482Y-103662581D01*
X178050392Y-103755392D01*
X177871068Y-103973899D01*
X177737818Y-104223192D01*
X177655764Y-104493691D01*
X177628057Y-104775000D01*
X177655764Y-105056309D01*
X177737818Y-105326808D01*
X177871068Y-105576101D01*
X178050392Y-105794608D01*
X178268899Y-105973932D01*
X178401858Y-106045000D01*
X178268899Y-106116068D01*
X178050392Y-106295392D01*
X177871068Y-106513899D01*
X177737818Y-106763192D01*
X177655764Y-107033691D01*
X177628057Y-107315000D01*
X177655764Y-107596309D01*
X177737818Y-107866808D01*
X177871068Y-108116101D01*
X178050392Y-108334608D01*
X178268899Y-108513932D01*
X178401858Y-108585000D01*
X178268899Y-108656068D01*
X178050392Y-108835392D01*
X177871068Y-109053899D01*
X177737818Y-109303192D01*
X177655764Y-109573691D01*
X177628057Y-109855000D01*
X177655764Y-110136309D01*
X177737818Y-110406808D01*
X177871068Y-110656101D01*
X178050392Y-110874608D01*
X178268899Y-111053932D01*
X178401858Y-111125000D01*
X178268899Y-111196068D01*
X178050392Y-111375392D01*
X177871068Y-111593899D01*
X177737818Y-111843192D01*
X177655764Y-112113691D01*
X177628057Y-112395000D01*
X177655764Y-112676309D01*
X177737818Y-112946808D01*
X177871068Y-113196101D01*
X178050392Y-113414608D01*
X178268899Y-113593932D01*
X178518192Y-113727182D01*
X178788691Y-113809236D01*
X178999508Y-113830000D01*
X179140492Y-113830000D01*
X179351309Y-113809236D01*
X179621808Y-113727182D01*
X179871101Y-113593932D01*
X180089608Y-113414608D01*
X180268932Y-113196101D01*
X180402182Y-112946808D01*
X180484236Y-112676309D01*
X180511943Y-112395000D01*
X180484236Y-112113691D01*
X180402182Y-111843192D01*
X180268932Y-111593899D01*
X180089608Y-111375392D01*
X179871101Y-111196068D01*
X179738142Y-111125000D01*
X179871101Y-111053932D01*
X180089608Y-110874608D01*
X180268932Y-110656101D01*
X180402182Y-110406808D01*
X180484236Y-110136309D01*
X180511943Y-109855000D01*
X180484236Y-109573691D01*
X180402182Y-109303192D01*
X180268932Y-109053899D01*
X180089608Y-108835392D01*
X179871101Y-108656068D01*
X179738142Y-108585000D01*
X179871101Y-108513932D01*
X180089608Y-108334608D01*
X180268932Y-108116101D01*
X180402182Y-107866808D01*
X180484236Y-107596309D01*
X180511943Y-107315000D01*
X180484236Y-107033691D01*
X180402182Y-106763192D01*
X180268932Y-106513899D01*
X180089608Y-106295392D01*
X179871101Y-106116068D01*
X179738142Y-106045000D01*
X179871101Y-105973932D01*
X180089608Y-105794608D01*
X180219329Y-105636543D01*
X180256964Y-105682401D01*
X180295700Y-105729601D01*
X180324698Y-105753399D01*
X182984547Y-108413249D01*
X182787905Y-108494701D01*
X182536495Y-108662688D01*
X182322688Y-108876495D01*
X182154701Y-109127905D01*
X182038989Y-109407257D01*
X181980000Y-109703816D01*
X181980000Y-110006184D01*
X182038989Y-110302743D01*
X182154701Y-110582095D01*
X182322688Y-110833505D01*
X182536495Y-111047312D01*
X182787905Y-111215299D01*
X183067257Y-111331011D01*
X183363816Y-111390000D01*
X183666184Y-111390000D01*
X183962743Y-111331011D01*
X184242095Y-111215299D01*
X184493505Y-111047312D01*
X184559944Y-110980873D01*
X184565498Y-110999180D01*
X184624463Y-111109494D01*
X184703815Y-111206185D01*
X184800506Y-111285537D01*
X184910820Y-111344502D01*
X185030518Y-111380812D01*
X185155000Y-111393072D01*
X186520301Y-111393072D01*
X186520301Y-111534597D01*
X185543998Y-112510901D01*
X185515000Y-112534699D01*
X185491202Y-112563697D01*
X185491201Y-112563698D01*
X185420026Y-112650424D01*
X185360425Y-112761928D01*
X185155000Y-112761928D01*
X185030518Y-112774188D01*
X184910820Y-112810498D01*
X184800506Y-112869463D01*
X184703815Y-112948815D01*
X184624463Y-113045506D01*
X184565498Y-113155820D01*
X184559944Y-113174127D01*
X184493505Y-113107688D01*
X184242095Y-112939701D01*
X183962743Y-112823989D01*
X183666184Y-112765000D01*
X183363816Y-112765000D01*
X183067257Y-112823989D01*
X182787905Y-112939701D01*
X182536495Y-113107688D01*
X182322688Y-113321495D01*
X182154701Y-113572905D01*
X182038989Y-113852257D01*
X181980000Y-114148816D01*
X181980000Y-114451184D01*
X182038989Y-114747743D01*
X182154701Y-115027095D01*
X182322688Y-115278505D01*
X182536495Y-115492312D01*
X182787905Y-115660299D01*
X183067257Y-115776011D01*
X183363816Y-115835000D01*
X183666184Y-115835000D01*
X183962743Y-115776011D01*
X184242095Y-115660299D01*
X184493505Y-115492312D01*
X184559944Y-115425873D01*
X184565498Y-115444180D01*
X184624463Y-115554494D01*
X184703815Y-115651185D01*
X184800506Y-115730537D01*
X184910820Y-115789502D01*
X185030518Y-115825812D01*
X185155000Y-115838072D01*
X186955000Y-115838072D01*
X187079482Y-115825812D01*
X187199180Y-115789502D01*
X187309494Y-115730537D01*
X187406185Y-115651185D01*
X187485537Y-115554494D01*
X187544502Y-115444180D01*
X187580812Y-115324482D01*
X187593072Y-115200000D01*
X187593072Y-113400000D01*
X187580812Y-113275518D01*
X187544502Y-113155820D01*
X187485537Y-113045506D01*
X187406185Y-112948815D01*
X187323524Y-112880977D01*
X187791303Y-112413199D01*
X187820301Y-112389401D01*
X187846632Y-112357317D01*
X187915274Y-112273677D01*
X187985846Y-112141647D01*
X187996053Y-112107998D01*
X188029303Y-111998386D01*
X188040300Y-111886733D01*
X188040300Y-111886723D01*
X188043976Y-111849400D01*
X188040300Y-111812077D01*
X188040300Y-109927902D01*
X188880001Y-110767603D01*
X188880001Y-111594099D01*
X188838899Y-111616068D01*
X188620392Y-111795392D01*
X188441068Y-112013899D01*
X188307818Y-112263192D01*
X188225764Y-112533691D01*
X188198057Y-112815000D01*
X188225764Y-113096309D01*
X188307818Y-113366808D01*
X188441068Y-113616101D01*
X188620392Y-113834608D01*
X188838899Y-114013932D01*
X189088192Y-114147182D01*
X189358691Y-114229236D01*
X189419658Y-114235241D01*
X186247899Y-117407000D01*
X169598959Y-117407000D01*
X169630000Y-117247000D01*
X169630000Y-116967000D01*
X168402000Y-116967000D01*
X168402000Y-116987000D01*
X168148000Y-116987000D01*
X168148000Y-116967000D01*
X168128000Y-116967000D01*
X168128000Y-116713000D01*
X168148000Y-116713000D01*
X168148000Y-115370511D01*
X168402000Y-115370511D01*
X168402000Y-116713000D01*
X169630000Y-116713000D01*
X169630000Y-116433000D01*
X169579188Y-116171093D01*
X169478256Y-115924131D01*
X169331084Y-115701605D01*
X169143327Y-115512067D01*
X168922201Y-115362801D01*
X168676203Y-115259542D01*
X168611472Y-115247441D01*
X168402000Y-115370511D01*
X168148000Y-115370511D01*
X167938528Y-115247441D01*
X167873797Y-115259542D01*
X167627799Y-115362801D01*
X167406673Y-115512067D01*
X167218916Y-115701605D01*
X167071744Y-115924131D01*
X167006505Y-116083759D01*
X166992914Y-116038955D01*
X166867092Y-115803560D01*
X166697764Y-115597235D01*
X166491439Y-115427908D01*
X166256044Y-115302086D01*
X166000625Y-115224606D01*
X165735000Y-115198444D01*
X165469374Y-115224606D01*
X165449700Y-115230574D01*
X165449700Y-103209426D01*
X165469375Y-103215394D01*
X165735000Y-103241556D01*
X166000626Y-103215394D01*
X166256045Y-103137914D01*
X166491440Y-103012092D01*
X166697765Y-102842765D01*
X166867092Y-102636440D01*
X166992914Y-102401045D01*
X167005000Y-102361202D01*
X167017086Y-102401045D01*
X167142908Y-102636440D01*
X167312236Y-102842765D01*
X167518561Y-103012092D01*
X167753956Y-103137914D01*
X168009375Y-103215394D01*
X168275000Y-103241556D01*
X168540626Y-103215394D01*
X168796045Y-103137914D01*
X169031440Y-103012092D01*
X169237765Y-102842765D01*
X169407092Y-102636440D01*
X169532914Y-102401045D01*
X169610394Y-102145625D01*
X169630000Y-101946563D01*
X169630000Y-101253436D01*
X169610394Y-101054374D01*
X169532914Y-100798955D01*
X169407092Y-100563560D01*
X169237764Y-100357235D01*
X169035000Y-100190830D01*
X169035000Y-91757702D01*
X170636903Y-91757702D01*
X170708486Y-92001671D01*
X170963996Y-92122571D01*
X171238184Y-92191300D01*
X171520512Y-92205217D01*
X171800130Y-92163787D01*
X172066292Y-92068603D01*
X172191514Y-92001671D01*
X172263097Y-91757702D01*
X171450000Y-90944605D01*
X170636903Y-91757702D01*
X169035000Y-91757702D01*
X169035000Y-90835512D01*
X170009783Y-90835512D01*
X170051213Y-91115130D01*
X170146397Y-91381292D01*
X170213329Y-91506514D01*
X170457298Y-91578097D01*
X171270395Y-90765000D01*
X171629605Y-90765000D01*
X172442702Y-91578097D01*
X172686671Y-91506514D01*
X172807571Y-91251004D01*
X172876300Y-90976816D01*
X172890217Y-90694488D01*
X172848787Y-90414870D01*
X172753603Y-90148708D01*
X172686671Y-90023486D01*
X172442702Y-89951903D01*
X171629605Y-90765000D01*
X171270395Y-90765000D01*
X170457298Y-89951903D01*
X170213329Y-90023486D01*
X170092429Y-90278996D01*
X170023700Y-90553184D01*
X170009783Y-90835512D01*
X169035000Y-90835512D01*
X169035000Y-78397623D01*
X169038676Y-78360300D01*
X169035000Y-78322977D01*
X169035000Y-78322967D01*
X169024003Y-78211314D01*
X168981198Y-78070200D01*
X169388321Y-78070200D01*
X169392300Y-78110599D01*
X169392301Y-81909392D01*
X169388321Y-81949800D01*
X169404202Y-82111038D01*
X169451233Y-82266079D01*
X169467548Y-82296602D01*
X169527609Y-82408967D01*
X169565388Y-82455001D01*
X169601823Y-82499397D01*
X169630392Y-82534209D01*
X169661771Y-82559961D01*
X172826810Y-85725000D01*
X171700163Y-86851647D01*
X171591335Y-86830000D01*
X171308665Y-86830000D01*
X171031426Y-86885147D01*
X170770273Y-86993320D01*
X170535241Y-87150363D01*
X170335363Y-87350241D01*
X170178320Y-87585273D01*
X170070147Y-87846426D01*
X170015000Y-88123665D01*
X170015000Y-88406335D01*
X170070147Y-88683574D01*
X170178320Y-88944727D01*
X170335363Y-89179759D01*
X170535241Y-89379637D01*
X170735869Y-89513692D01*
X170708486Y-89528329D01*
X170636903Y-89772298D01*
X171450000Y-90585395D01*
X172263097Y-89772298D01*
X172191514Y-89528329D01*
X172162659Y-89514676D01*
X172364759Y-89379637D01*
X172564637Y-89179759D01*
X172721680Y-88944727D01*
X172829853Y-88683574D01*
X172885000Y-88406335D01*
X172885000Y-88123665D01*
X172863353Y-88014837D01*
X173675800Y-87202390D01*
X173823900Y-87323932D01*
X174073193Y-87457182D01*
X174343692Y-87539236D01*
X174625000Y-87566943D01*
X174906309Y-87539236D01*
X175176808Y-87457182D01*
X175426101Y-87323932D01*
X175644608Y-87144608D01*
X175823932Y-86926101D01*
X175892265Y-86798259D01*
X176042399Y-87027839D01*
X176240105Y-87229500D01*
X176473354Y-87388715D01*
X176733182Y-87499367D01*
X176815961Y-87516904D01*
X177038000Y-87394915D01*
X177038000Y-85852000D01*
X177018000Y-85852000D01*
X177018000Y-85598000D01*
X177038000Y-85598000D01*
X177038000Y-84055085D01*
X176815961Y-83933096D01*
X176733182Y-83950633D01*
X176473354Y-84061285D01*
X176240105Y-84220500D01*
X176042399Y-84422161D01*
X175892265Y-84651741D01*
X175823932Y-84523899D01*
X175644607Y-84305392D01*
X175426100Y-84126068D01*
X175176807Y-83992818D01*
X174906308Y-83910764D01*
X174625000Y-83883057D01*
X174343691Y-83910764D01*
X174073192Y-83992818D01*
X173823899Y-84126068D01*
X173675800Y-84247610D01*
X171037300Y-81609110D01*
X171037300Y-80710946D01*
X171238184Y-80761300D01*
X171520512Y-80775217D01*
X171800130Y-80733787D01*
X172066292Y-80638603D01*
X172191514Y-80571671D01*
X172263097Y-80327702D01*
X171450000Y-79514605D01*
X171435858Y-79528748D01*
X171256253Y-79349143D01*
X171270395Y-79335000D01*
X171629605Y-79335000D01*
X172442702Y-80148097D01*
X172686671Y-80076514D01*
X172807571Y-79821004D01*
X172876300Y-79546816D01*
X172890217Y-79264488D01*
X172848787Y-78984870D01*
X172753603Y-78718708D01*
X172686671Y-78593486D01*
X172442702Y-78521903D01*
X171629605Y-79335000D01*
X171270395Y-79335000D01*
X171256253Y-79320858D01*
X171435858Y-79141253D01*
X171450000Y-79155395D01*
X172263097Y-78342298D01*
X172191514Y-78098329D01*
X172162659Y-78084676D01*
X172364759Y-77949637D01*
X172564637Y-77749759D01*
X172721680Y-77514727D01*
X172829853Y-77253574D01*
X172885000Y-76976335D01*
X172885000Y-76693665D01*
X172863353Y-76584837D01*
X173675800Y-75772390D01*
X173823900Y-75893932D01*
X174073193Y-76027182D01*
X174343692Y-76109236D01*
X174625000Y-76136943D01*
X174906309Y-76109236D01*
X175176808Y-76027182D01*
X175426101Y-75893932D01*
X175644608Y-75714608D01*
X175823932Y-75496101D01*
X175892265Y-75368259D01*
X176042399Y-75597839D01*
X176240105Y-75799500D01*
X176473354Y-75958715D01*
X176733182Y-76069367D01*
X176815961Y-76086904D01*
X177038000Y-75964915D01*
X177038000Y-74422000D01*
X177018000Y-74422000D01*
X177018000Y-74168000D01*
X177038000Y-74168000D01*
X177038000Y-72625085D01*
X176815961Y-72503096D01*
X176733182Y-72520633D01*
X176473354Y-72631285D01*
X176240105Y-72790500D01*
X176042399Y-72992161D01*
X175892265Y-73221741D01*
X175823932Y-73093899D01*
X175644607Y-72875392D01*
X175426100Y-72696068D01*
X175176807Y-72562818D01*
X174906308Y-72480764D01*
X174625000Y-72453057D01*
X174343691Y-72480764D01*
X174073192Y-72562818D01*
X173823899Y-72696068D01*
X173605392Y-72875393D01*
X173426068Y-73093900D01*
X173292818Y-73343193D01*
X173210764Y-73613692D01*
X173190000Y-73824509D01*
X173190000Y-73931810D01*
X171700163Y-75421647D01*
X171591335Y-75400000D01*
X171308665Y-75400000D01*
X171031426Y-75455147D01*
X170770273Y-75563320D01*
X170535241Y-75720363D01*
X170335363Y-75920241D01*
X170178320Y-76155273D01*
X170070147Y-76416426D01*
X170015000Y-76693665D01*
X170015000Y-76976335D01*
X170036647Y-77085162D01*
X169661775Y-77460035D01*
X169630391Y-77485791D01*
X169527608Y-77611034D01*
X169458905Y-77739568D01*
X169451233Y-77753921D01*
X169404202Y-77908962D01*
X169388321Y-78070200D01*
X168981198Y-78070200D01*
X168980546Y-78068053D01*
X168909974Y-77936024D01*
X168815001Y-77820299D01*
X168786003Y-77796501D01*
X167361872Y-76372371D01*
X167389608Y-76349608D01*
X167568932Y-76131101D01*
X167702182Y-75881808D01*
X167784236Y-75611309D01*
X167805000Y-75400491D01*
X167805000Y-74459508D01*
X167784236Y-74248691D01*
X167702182Y-73978192D01*
X167568932Y-73728899D01*
X167389607Y-73510392D01*
X167171100Y-73331068D01*
X166921807Y-73197818D01*
X166651308Y-73115764D01*
X166370000Y-73088057D01*
X166088691Y-73115764D01*
X165818192Y-73197818D01*
X165568899Y-73331068D01*
X165350392Y-73510393D01*
X165171068Y-73728900D01*
X165100000Y-73861858D01*
X165028932Y-73728899D01*
X164849607Y-73510392D01*
X164631100Y-73331068D01*
X164381807Y-73197818D01*
X164111308Y-73115764D01*
X163830000Y-73088057D01*
X163548691Y-73115764D01*
X163278192Y-73197818D01*
X163028899Y-73331068D01*
X162810392Y-73510393D01*
X162631068Y-73728900D01*
X162560000Y-73861858D01*
X162488932Y-73728899D01*
X162309607Y-73510392D01*
X162091100Y-73331068D01*
X161841807Y-73197818D01*
X161571308Y-73115764D01*
X161290000Y-73088057D01*
X161008691Y-73115764D01*
X160738192Y-73197818D01*
X160488899Y-73331068D01*
X160270392Y-73510393D01*
X160091068Y-73728900D01*
X160020000Y-73861858D01*
X159948932Y-73728899D01*
X159769607Y-73510392D01*
X159551100Y-73331068D01*
X159354251Y-73225850D01*
X165566928Y-67013174D01*
X165566928Y-68510000D01*
X165579188Y-68634482D01*
X165615498Y-68754180D01*
X165674463Y-68864494D01*
X165753815Y-68961185D01*
X165850506Y-69040537D01*
X165960820Y-69099502D01*
X166080518Y-69135812D01*
X166205000Y-69148072D01*
X167805000Y-69148072D01*
X167929482Y-69135812D01*
X168049180Y-69099502D01*
X168159494Y-69040537D01*
X168256185Y-68961185D01*
X168335537Y-68864494D01*
X168394502Y-68754180D01*
X168430812Y-68634482D01*
X168432581Y-68616517D01*
X168525393Y-68729608D01*
X168743900Y-68908932D01*
X168993193Y-69042182D01*
X169263692Y-69124236D01*
X169545000Y-69151943D01*
X169826309Y-69124236D01*
X170096808Y-69042182D01*
X170346101Y-68908932D01*
X170564608Y-68729608D01*
X170743932Y-68511101D01*
X170815000Y-68378142D01*
X170886068Y-68511101D01*
X171065393Y-68729608D01*
X171283900Y-68908932D01*
X171533193Y-69042182D01*
X171803692Y-69124236D01*
X172085000Y-69151943D01*
X172366309Y-69124236D01*
X172636808Y-69042182D01*
X172886101Y-68908932D01*
X173104608Y-68729608D01*
X173283932Y-68511101D01*
X173355000Y-68378142D01*
X173426068Y-68511101D01*
X173605393Y-68729608D01*
X173823900Y-68908932D01*
X174073193Y-69042182D01*
X174343692Y-69124236D01*
X174625000Y-69151943D01*
X174906309Y-69124236D01*
X175176808Y-69042182D01*
X175426101Y-68908932D01*
X175644608Y-68729608D01*
X175823932Y-68511101D01*
X175895000Y-68378142D01*
X175966068Y-68511101D01*
X176145393Y-68729608D01*
X176363900Y-68908932D01*
X176613193Y-69042182D01*
X176883692Y-69124236D01*
X177165000Y-69151943D01*
X177446309Y-69124236D01*
X177716808Y-69042182D01*
X177966101Y-68908932D01*
X178184608Y-68729608D01*
X178363932Y-68511101D01*
X178435000Y-68378142D01*
X178506068Y-68511101D01*
X178685393Y-68729608D01*
X178903900Y-68908932D01*
X179153193Y-69042182D01*
X179423692Y-69124236D01*
X179705000Y-69151943D01*
X179986309Y-69124236D01*
X180256808Y-69042182D01*
X180506101Y-68908932D01*
X180724608Y-68729608D01*
X180903932Y-68511101D01*
X180975000Y-68378142D01*
X181046068Y-68511101D01*
X181225393Y-68729608D01*
X181443900Y-68908932D01*
X181693193Y-69042182D01*
X181963692Y-69124236D01*
X182245000Y-69151943D01*
X182526309Y-69124236D01*
X182796808Y-69042182D01*
X183046101Y-68908932D01*
X183264608Y-68729608D01*
X183443932Y-68511101D01*
X183512265Y-68383259D01*
X183662399Y-68612839D01*
X183860105Y-68814500D01*
X184093354Y-68973715D01*
X184353182Y-69084367D01*
X184435961Y-69101904D01*
X184658000Y-68979915D01*
X184658000Y-67437000D01*
X184638000Y-67437000D01*
X184638000Y-67183000D01*
X184658000Y-67183000D01*
X184658000Y-65640085D01*
X184435961Y-65518096D01*
X184353182Y-65535633D01*
X184093354Y-65646285D01*
X183860105Y-65805500D01*
X183662399Y-66007161D01*
X183512265Y-66236741D01*
X183443932Y-66108899D01*
X183264607Y-65890392D01*
X183046100Y-65711068D01*
X182796807Y-65577818D01*
X182526308Y-65495764D01*
X182245000Y-65468057D01*
X181963691Y-65495764D01*
X181693192Y-65577818D01*
X181443899Y-65711068D01*
X181225392Y-65890393D01*
X181046068Y-66108900D01*
X180975000Y-66241858D01*
X180903932Y-66108899D01*
X180724607Y-65890392D01*
X180506100Y-65711068D01*
X180256807Y-65577818D01*
X179986308Y-65495764D01*
X179705000Y-65468057D01*
X179423691Y-65495764D01*
X179153192Y-65577818D01*
X178903899Y-65711068D01*
X178685392Y-65890393D01*
X178506068Y-66108900D01*
X178435000Y-66241858D01*
X178363932Y-66108899D01*
X178184607Y-65890392D01*
X177966100Y-65711068D01*
X177716807Y-65577818D01*
X177446308Y-65495764D01*
X177165000Y-65468057D01*
X176979027Y-65486374D01*
X181297015Y-61168387D01*
X181443900Y-61288932D01*
X181443900Y-61288932D01*
G37*
X181443900Y-61288932D02*
X181693193Y-61422182D01*
X181963692Y-61504236D01*
X182245000Y-61531943D01*
X182526309Y-61504236D01*
X182755001Y-61434864D01*
X182755001Y-62004568D01*
X182751324Y-62041900D01*
X182755001Y-62079233D01*
X182765998Y-62190886D01*
X182771094Y-62207685D01*
X182809454Y-62334146D01*
X182880026Y-62466176D01*
X182951201Y-62552902D01*
X182975000Y-62581901D01*
X183003998Y-62605699D01*
X185173400Y-64775102D01*
X185173400Y-65526435D01*
X185134039Y-65518096D01*
X184912000Y-65640085D01*
X184912000Y-67183000D01*
X184932000Y-67183000D01*
X184932000Y-67437000D01*
X184912000Y-67437000D01*
X184912000Y-68979915D01*
X184942065Y-68996433D01*
X183082503Y-70855996D01*
X183053499Y-70879799D01*
X183011973Y-70930399D01*
X182958526Y-70995524D01*
X182899703Y-71105574D01*
X182887954Y-71127554D01*
X182844497Y-71270815D01*
X182833500Y-71382468D01*
X182833500Y-71382478D01*
X182829824Y-71419800D01*
X182833500Y-71457123D01*
X182833500Y-72582431D01*
X182796807Y-72562818D01*
X182526308Y-72480764D01*
X182245000Y-72453057D01*
X181963691Y-72480764D01*
X181693192Y-72562818D01*
X181443899Y-72696068D01*
X181225392Y-72875393D01*
X181046068Y-73093900D01*
X180975000Y-73226858D01*
X180903932Y-73093899D01*
X180724607Y-72875392D01*
X180506100Y-72696068D01*
X180256807Y-72562818D01*
X179986308Y-72480764D01*
X179705000Y-72453057D01*
X179423691Y-72480764D01*
X179153192Y-72562818D01*
X178903899Y-72696068D01*
X178685392Y-72875393D01*
X178506068Y-73093900D01*
X178437735Y-73221742D01*
X178287601Y-72992161D01*
X178089895Y-72790500D01*
X177856646Y-72631285D01*
X177596818Y-72520633D01*
X177514039Y-72503096D01*
X177292000Y-72625085D01*
X177292000Y-74168000D01*
X177312000Y-74168000D01*
X177312000Y-74422000D01*
X177292000Y-74422000D01*
X177292000Y-75964915D01*
X177514039Y-76086904D01*
X177596818Y-76069367D01*
X177856646Y-75958715D01*
X178089895Y-75799500D01*
X178287601Y-75597839D01*
X178437735Y-75368259D01*
X178506068Y-75496101D01*
X178685393Y-75714608D01*
X178903900Y-75893932D01*
X179153193Y-76027182D01*
X179423692Y-76109236D01*
X179705000Y-76136943D01*
X179986309Y-76109236D01*
X180256808Y-76027182D01*
X180506101Y-75893932D01*
X180724608Y-75714608D01*
X180903932Y-75496101D01*
X180975000Y-75363142D01*
X181046068Y-75496101D01*
X181225393Y-75714608D01*
X181443900Y-75893932D01*
X181485001Y-75915901D01*
X181485000Y-79454177D01*
X181481324Y-79491500D01*
X181485000Y-79528822D01*
X181485000Y-79528832D01*
X181495997Y-79640485D01*
X181531220Y-79756602D01*
X181539454Y-79783746D01*
X181610026Y-79915776D01*
X181639174Y-79951292D01*
X181704999Y-80031501D01*
X181734003Y-80055304D01*
X181822341Y-80143642D01*
X181693192Y-80182818D01*
X181443899Y-80316068D01*
X181225392Y-80495393D01*
X181046068Y-80713900D01*
X180975000Y-80846858D01*
X180903932Y-80713899D01*
X180724607Y-80495392D01*
X180506100Y-80316068D01*
X180256807Y-80182818D01*
X179986308Y-80100764D01*
X179705000Y-80073057D01*
X179423691Y-80100764D01*
X179153192Y-80182818D01*
X178903899Y-80316068D01*
X178685392Y-80495393D01*
X178506068Y-80713900D01*
X178435000Y-80846858D01*
X178363932Y-80713899D01*
X178184607Y-80495392D01*
X177966100Y-80316068D01*
X177716807Y-80182818D01*
X177446308Y-80100764D01*
X177165000Y-80073057D01*
X176883691Y-80100764D01*
X176613192Y-80182818D01*
X176363899Y-80316068D01*
X176145392Y-80495393D01*
X176052581Y-80608483D01*
X176050812Y-80590518D01*
X176014502Y-80470820D01*
X175955537Y-80360506D01*
X175876185Y-80263815D01*
X175779494Y-80184463D01*
X175669180Y-80125498D01*
X175549482Y-80089188D01*
X175425000Y-80076928D01*
X173825000Y-80076928D01*
X173700518Y-80089188D01*
X173580820Y-80125498D01*
X173470506Y-80184463D01*
X173373815Y-80263815D01*
X173294463Y-80360506D01*
X173235498Y-80470820D01*
X173199188Y-80590518D01*
X173186928Y-80715000D01*
X173186928Y-83115000D01*
X173199188Y-83239482D01*
X173235498Y-83359180D01*
X173294463Y-83469494D01*
X173373815Y-83566185D01*
X173470506Y-83645537D01*
X173580820Y-83704502D01*
X173700518Y-83740812D01*
X173825000Y-83753072D01*
X175425000Y-83753072D01*
X175549482Y-83740812D01*
X175669180Y-83704502D01*
X175779494Y-83645537D01*
X175876185Y-83566185D01*
X175955537Y-83469494D01*
X176014502Y-83359180D01*
X176050812Y-83239482D01*
X176052581Y-83221517D01*
X176145393Y-83334608D01*
X176363900Y-83513932D01*
X176613193Y-83647182D01*
X176883692Y-83729236D01*
X177165000Y-83756943D01*
X177446309Y-83729236D01*
X177716808Y-83647182D01*
X177966101Y-83513932D01*
X178184608Y-83334608D01*
X178363932Y-83116101D01*
X178435000Y-82983142D01*
X178506068Y-83116101D01*
X178685393Y-83334608D01*
X178903900Y-83513932D01*
X179153193Y-83647182D01*
X179423692Y-83729236D01*
X179705000Y-83756943D01*
X179986309Y-83729236D01*
X180256808Y-83647182D01*
X180506101Y-83513932D01*
X180724608Y-83334608D01*
X180903932Y-83116101D01*
X180975000Y-82983142D01*
X181046068Y-83116101D01*
X181225393Y-83334608D01*
X181443900Y-83513932D01*
X181491058Y-83539138D01*
X181495997Y-83589286D01*
X181539454Y-83732547D01*
X181610026Y-83864576D01*
X181704999Y-83980301D01*
X181718158Y-83991100D01*
X181553354Y-84061285D01*
X181320105Y-84220500D01*
X181122399Y-84422161D01*
X180972265Y-84651741D01*
X180903932Y-84523899D01*
X180724607Y-84305392D01*
X180506100Y-84126068D01*
X180256807Y-83992818D01*
X179986308Y-83910764D01*
X179705000Y-83883057D01*
X179423691Y-83910764D01*
X179153192Y-83992818D01*
X178903899Y-84126068D01*
X178685392Y-84305393D01*
X178506068Y-84523900D01*
X178437735Y-84651742D01*
X178287601Y-84422161D01*
X178089895Y-84220500D01*
X177856646Y-84061285D01*
X177596818Y-83950633D01*
X177514039Y-83933096D01*
X177292000Y-84055085D01*
X177292000Y-85598000D01*
X177312000Y-85598000D01*
X177312000Y-85852000D01*
X177292000Y-85852000D01*
X177292000Y-87394915D01*
X177514039Y-87516904D01*
X177596818Y-87499367D01*
X177856646Y-87388715D01*
X178089895Y-87229500D01*
X178287601Y-87027839D01*
X178437735Y-86798259D01*
X178506068Y-86926101D01*
X178685393Y-87144608D01*
X178903900Y-87323932D01*
X179153193Y-87457182D01*
X179423692Y-87539236D01*
X179705000Y-87566943D01*
X179986309Y-87539236D01*
X180256808Y-87457182D01*
X180506101Y-87323932D01*
X180724608Y-87144608D01*
X180903932Y-86926101D01*
X180972265Y-86798259D01*
X181122399Y-87027839D01*
X181320105Y-87229500D01*
X181539167Y-87379031D01*
X177858499Y-91059700D01*
X174662333Y-91059700D01*
X174625000Y-91056023D01*
X174587667Y-91059700D01*
X174476014Y-91070697D01*
X174332753Y-91114154D01*
X174200724Y-91184726D01*
X174084999Y-91279699D01*
X173990026Y-91395424D01*
X173930425Y-91506928D01*
X173825000Y-91506928D01*
X173700518Y-91519188D01*
X173580820Y-91555498D01*
X173470506Y-91614463D01*
X173373815Y-91693815D01*
X173294463Y-91790506D01*
X173235498Y-91900820D01*
X173199188Y-92020518D01*
X173186928Y-92145000D01*
X173186928Y-94545000D01*
X173199188Y-94669482D01*
X173235498Y-94789180D01*
X173294463Y-94899494D01*
X173373815Y-94996185D01*
X173470506Y-95075537D01*
X173580820Y-95134502D01*
X173700518Y-95170812D01*
X173825000Y-95183072D01*
X175425000Y-95183072D01*
X175549482Y-95170812D01*
X175669180Y-95134502D01*
X175779494Y-95075537D01*
X175876185Y-94996185D01*
X175955537Y-94899494D01*
X176014502Y-94789180D01*
X176050812Y-94669482D01*
X176052581Y-94651517D01*
X176145393Y-94764608D01*
X176363900Y-94943932D01*
X176411059Y-94969139D01*
X176415568Y-95014915D01*
X176415998Y-95019285D01*
X176459454Y-95162546D01*
X176530026Y-95294576D01*
X176561718Y-95333192D01*
X176625000Y-95410301D01*
X176653998Y-95434099D01*
X180075700Y-98855802D01*
X180075700Y-100833825D01*
X179994482Y-100809188D01*
X179870000Y-100796928D01*
X178270000Y-100796928D01*
X178145518Y-100809188D01*
X178025820Y-100845498D01*
X177915506Y-100904463D01*
X177818815Y-100983815D01*
X177739463Y-101080506D01*
X177680498Y-101190820D01*
X177644188Y-101310518D01*
X177631928Y-101435000D01*
X177631928Y-103035000D01*
X177644188Y-103159482D01*
X177680498Y-103279180D01*
X177739463Y-103389494D01*
X177818815Y-103486185D01*
X177915506Y-103565537D01*
X178025820Y-103624502D01*
X178145518Y-103660812D01*
X178163482Y-103662581D01*
X178050392Y-103755392D01*
X177871068Y-103973899D01*
X177737818Y-104223192D01*
X177655764Y-104493691D01*
X177628057Y-104775000D01*
X177655764Y-105056309D01*
X177737818Y-105326808D01*
X177871068Y-105576101D01*
X178050392Y-105794608D01*
X178268899Y-105973932D01*
X178401858Y-106045000D01*
X178268899Y-106116068D01*
X178050392Y-106295392D01*
X177871068Y-106513899D01*
X177737818Y-106763192D01*
X177655764Y-107033691D01*
X177628057Y-107315000D01*
X177655764Y-107596309D01*
X177737818Y-107866808D01*
X177871068Y-108116101D01*
X178050392Y-108334608D01*
X178268899Y-108513932D01*
X178401858Y-108585000D01*
X178268899Y-108656068D01*
X178050392Y-108835392D01*
X177871068Y-109053899D01*
X177737818Y-109303192D01*
X177655764Y-109573691D01*
X177628057Y-109855000D01*
X177655764Y-110136309D01*
X177737818Y-110406808D01*
X177871068Y-110656101D01*
X178050392Y-110874608D01*
X178268899Y-111053932D01*
X178401858Y-111125000D01*
X178268899Y-111196068D01*
X178050392Y-111375392D01*
X177871068Y-111593899D01*
X177737818Y-111843192D01*
X177655764Y-112113691D01*
X177628057Y-112395000D01*
X177655764Y-112676309D01*
X177737818Y-112946808D01*
X177871068Y-113196101D01*
X178050392Y-113414608D01*
X178268899Y-113593932D01*
X178518192Y-113727182D01*
X178788691Y-113809236D01*
X178999508Y-113830000D01*
X179140492Y-113830000D01*
X179351309Y-113809236D01*
X179621808Y-113727182D01*
X179871101Y-113593932D01*
X180089608Y-113414608D01*
X180268932Y-113196101D01*
X180402182Y-112946808D01*
X180484236Y-112676309D01*
X180511943Y-112395000D01*
X180484236Y-112113691D01*
X180402182Y-111843192D01*
X180268932Y-111593899D01*
X180089608Y-111375392D01*
X179871101Y-111196068D01*
X179738142Y-111125000D01*
X179871101Y-111053932D01*
X180089608Y-110874608D01*
X180268932Y-110656101D01*
X180402182Y-110406808D01*
X180484236Y-110136309D01*
X180511943Y-109855000D01*
X180484236Y-109573691D01*
X180402182Y-109303192D01*
X180268932Y-109053899D01*
X180089608Y-108835392D01*
X179871101Y-108656068D01*
X179738142Y-108585000D01*
X179871101Y-108513932D01*
X180089608Y-108334608D01*
X180268932Y-108116101D01*
X180402182Y-107866808D01*
X180484236Y-107596309D01*
X180511943Y-107315000D01*
X180484236Y-107033691D01*
X180402182Y-106763192D01*
X180268932Y-106513899D01*
X180089608Y-106295392D01*
X179871101Y-106116068D01*
X179738142Y-106045000D01*
X179871101Y-105973932D01*
X180089608Y-105794608D01*
X180219329Y-105636543D01*
X180256964Y-105682401D01*
X180295700Y-105729601D01*
X180324698Y-105753399D01*
X182984547Y-108413249D01*
X182787905Y-108494701D01*
X182536495Y-108662688D01*
X182322688Y-108876495D01*
X182154701Y-109127905D01*
X182038989Y-109407257D01*
X181980000Y-109703816D01*
X181980000Y-110006184D01*
X182038989Y-110302743D01*
X182154701Y-110582095D01*
X182322688Y-110833505D01*
X182536495Y-111047312D01*
X182787905Y-111215299D01*
X183067257Y-111331011D01*
X183363816Y-111390000D01*
X183666184Y-111390000D01*
X183962743Y-111331011D01*
X184242095Y-111215299D01*
X184493505Y-111047312D01*
X184559944Y-110980873D01*
X184565498Y-110999180D01*
X184624463Y-111109494D01*
X184703815Y-111206185D01*
X184800506Y-111285537D01*
X184910820Y-111344502D01*
X185030518Y-111380812D01*
X185155000Y-111393072D01*
X186520301Y-111393072D01*
X186520301Y-111534597D01*
X185543998Y-112510901D01*
X185515000Y-112534699D01*
X185491202Y-112563697D01*
X185491201Y-112563698D01*
X185420026Y-112650424D01*
X185360425Y-112761928D01*
X185155000Y-112761928D01*
X185030518Y-112774188D01*
X184910820Y-112810498D01*
X184800506Y-112869463D01*
X184703815Y-112948815D01*
X184624463Y-113045506D01*
X184565498Y-113155820D01*
X184559944Y-113174127D01*
X184493505Y-113107688D01*
X184242095Y-112939701D01*
X183962743Y-112823989D01*
X183666184Y-112765000D01*
X183363816Y-112765000D01*
X183067257Y-112823989D01*
X182787905Y-112939701D01*
X182536495Y-113107688D01*
X182322688Y-113321495D01*
X182154701Y-113572905D01*
X182038989Y-113852257D01*
X181980000Y-114148816D01*
X181980000Y-114451184D01*
X182038989Y-114747743D01*
X182154701Y-115027095D01*
X182322688Y-115278505D01*
X182536495Y-115492312D01*
X182787905Y-115660299D01*
X183067257Y-115776011D01*
X183363816Y-115835000D01*
X183666184Y-115835000D01*
X183962743Y-115776011D01*
X184242095Y-115660299D01*
X184493505Y-115492312D01*
X184559944Y-115425873D01*
X184565498Y-115444180D01*
X184624463Y-115554494D01*
X184703815Y-115651185D01*
X184800506Y-115730537D01*
X184910820Y-115789502D01*
X185030518Y-115825812D01*
X185155000Y-115838072D01*
X186955000Y-115838072D01*
X187079482Y-115825812D01*
X187199180Y-115789502D01*
X187309494Y-115730537D01*
X187406185Y-115651185D01*
X187485537Y-115554494D01*
X187544502Y-115444180D01*
X187580812Y-115324482D01*
X187593072Y-115200000D01*
X187593072Y-113400000D01*
X187580812Y-113275518D01*
X187544502Y-113155820D01*
X187485537Y-113045506D01*
X187406185Y-112948815D01*
X187323524Y-112880977D01*
X187791303Y-112413199D01*
X187820301Y-112389401D01*
X187846632Y-112357317D01*
X187915274Y-112273677D01*
X187985846Y-112141647D01*
X187996053Y-112107998D01*
X188029303Y-111998386D01*
X188040300Y-111886733D01*
X188040300Y-111886723D01*
X188043976Y-111849400D01*
X188040300Y-111812077D01*
X188040300Y-109927902D01*
X188880001Y-110767603D01*
X188880001Y-111594099D01*
X188838899Y-111616068D01*
X188620392Y-111795392D01*
X188441068Y-112013899D01*
X188307818Y-112263192D01*
X188225764Y-112533691D01*
X188198057Y-112815000D01*
X188225764Y-113096309D01*
X188307818Y-113366808D01*
X188441068Y-113616101D01*
X188620392Y-113834608D01*
X188838899Y-114013932D01*
X189088192Y-114147182D01*
X189358691Y-114229236D01*
X189419658Y-114235241D01*
X186247899Y-117407000D01*
X169598959Y-117407000D01*
X169630000Y-117247000D01*
X169630000Y-116967000D01*
X168402000Y-116967000D01*
X168402000Y-116987000D01*
X168148000Y-116987000D01*
X168148000Y-116967000D01*
X168128000Y-116967000D01*
X168128000Y-116713000D01*
X168148000Y-116713000D01*
X168148000Y-115370511D01*
X168402000Y-115370511D01*
X168402000Y-116713000D01*
X169630000Y-116713000D01*
X169630000Y-116433000D01*
X169579188Y-116171093D01*
X169478256Y-115924131D01*
X169331084Y-115701605D01*
X169143327Y-115512067D01*
X168922201Y-115362801D01*
X168676203Y-115259542D01*
X168611472Y-115247441D01*
X168402000Y-115370511D01*
X168148000Y-115370511D01*
X167938528Y-115247441D01*
X167873797Y-115259542D01*
X167627799Y-115362801D01*
X167406673Y-115512067D01*
X167218916Y-115701605D01*
X167071744Y-115924131D01*
X167006505Y-116083759D01*
X166992914Y-116038955D01*
X166867092Y-115803560D01*
X166697764Y-115597235D01*
X166491439Y-115427908D01*
X166256044Y-115302086D01*
X166000625Y-115224606D01*
X165735000Y-115198444D01*
X165469374Y-115224606D01*
X165449700Y-115230574D01*
X165449700Y-103209426D01*
X165469375Y-103215394D01*
X165735000Y-103241556D01*
X166000626Y-103215394D01*
X166256045Y-103137914D01*
X166491440Y-103012092D01*
X166697765Y-102842765D01*
X166867092Y-102636440D01*
X166992914Y-102401045D01*
X167005000Y-102361202D01*
X167017086Y-102401045D01*
X167142908Y-102636440D01*
X167312236Y-102842765D01*
X167518561Y-103012092D01*
X167753956Y-103137914D01*
X168009375Y-103215394D01*
X168275000Y-103241556D01*
X168540626Y-103215394D01*
X168796045Y-103137914D01*
X169031440Y-103012092D01*
X169237765Y-102842765D01*
X169407092Y-102636440D01*
X169532914Y-102401045D01*
X169610394Y-102145625D01*
X169630000Y-101946563D01*
X169630000Y-101253436D01*
X169610394Y-101054374D01*
X169532914Y-100798955D01*
X169407092Y-100563560D01*
X169237764Y-100357235D01*
X169035000Y-100190830D01*
X169035000Y-91757702D01*
X170636903Y-91757702D01*
X170708486Y-92001671D01*
X170963996Y-92122571D01*
X171238184Y-92191300D01*
X171520512Y-92205217D01*
X171800130Y-92163787D01*
X172066292Y-92068603D01*
X172191514Y-92001671D01*
X172263097Y-91757702D01*
X171450000Y-90944605D01*
X170636903Y-91757702D01*
X169035000Y-91757702D01*
X169035000Y-90835512D01*
X170009783Y-90835512D01*
X170051213Y-91115130D01*
X170146397Y-91381292D01*
X170213329Y-91506514D01*
X170457298Y-91578097D01*
X171270395Y-90765000D01*
X171629605Y-90765000D01*
X172442702Y-91578097D01*
X172686671Y-91506514D01*
X172807571Y-91251004D01*
X172876300Y-90976816D01*
X172890217Y-90694488D01*
X172848787Y-90414870D01*
X172753603Y-90148708D01*
X172686671Y-90023486D01*
X172442702Y-89951903D01*
X171629605Y-90765000D01*
X171270395Y-90765000D01*
X170457298Y-89951903D01*
X170213329Y-90023486D01*
X170092429Y-90278996D01*
X170023700Y-90553184D01*
X170009783Y-90835512D01*
X169035000Y-90835512D01*
X169035000Y-78397623D01*
X169038676Y-78360300D01*
X169035000Y-78322977D01*
X169035000Y-78322967D01*
X169024003Y-78211314D01*
X168981198Y-78070200D01*
X169388321Y-78070200D01*
X169392300Y-78110599D01*
X169392301Y-81909392D01*
X169388321Y-81949800D01*
X169404202Y-82111038D01*
X169451233Y-82266079D01*
X169467548Y-82296602D01*
X169527609Y-82408967D01*
X169565388Y-82455001D01*
X169601823Y-82499397D01*
X169630392Y-82534209D01*
X169661771Y-82559961D01*
X172826810Y-85725000D01*
X171700163Y-86851647D01*
X171591335Y-86830000D01*
X171308665Y-86830000D01*
X171031426Y-86885147D01*
X170770273Y-86993320D01*
X170535241Y-87150363D01*
X170335363Y-87350241D01*
X170178320Y-87585273D01*
X170070147Y-87846426D01*
X170015000Y-88123665D01*
X170015000Y-88406335D01*
X170070147Y-88683574D01*
X170178320Y-88944727D01*
X170335363Y-89179759D01*
X170535241Y-89379637D01*
X170735869Y-89513692D01*
X170708486Y-89528329D01*
X170636903Y-89772298D01*
X171450000Y-90585395D01*
X172263097Y-89772298D01*
X172191514Y-89528329D01*
X172162659Y-89514676D01*
X172364759Y-89379637D01*
X172564637Y-89179759D01*
X172721680Y-88944727D01*
X172829853Y-88683574D01*
X172885000Y-88406335D01*
X172885000Y-88123665D01*
X172863353Y-88014837D01*
X173675800Y-87202390D01*
X173823900Y-87323932D01*
X174073193Y-87457182D01*
X174343692Y-87539236D01*
X174625000Y-87566943D01*
X174906309Y-87539236D01*
X175176808Y-87457182D01*
X175426101Y-87323932D01*
X175644608Y-87144608D01*
X175823932Y-86926101D01*
X175892265Y-86798259D01*
X176042399Y-87027839D01*
X176240105Y-87229500D01*
X176473354Y-87388715D01*
X176733182Y-87499367D01*
X176815961Y-87516904D01*
X177038000Y-87394915D01*
X177038000Y-85852000D01*
X177018000Y-85852000D01*
X177018000Y-85598000D01*
X177038000Y-85598000D01*
X177038000Y-84055085D01*
X176815961Y-83933096D01*
X176733182Y-83950633D01*
X176473354Y-84061285D01*
X176240105Y-84220500D01*
X176042399Y-84422161D01*
X175892265Y-84651741D01*
X175823932Y-84523899D01*
X175644607Y-84305392D01*
X175426100Y-84126068D01*
X175176807Y-83992818D01*
X174906308Y-83910764D01*
X174625000Y-83883057D01*
X174343691Y-83910764D01*
X174073192Y-83992818D01*
X173823899Y-84126068D01*
X173675800Y-84247610D01*
X171037300Y-81609110D01*
X171037300Y-80710946D01*
X171238184Y-80761300D01*
X171520512Y-80775217D01*
X171800130Y-80733787D01*
X172066292Y-80638603D01*
X172191514Y-80571671D01*
X172263097Y-80327702D01*
X171450000Y-79514605D01*
X171435858Y-79528748D01*
X171256253Y-79349143D01*
X171270395Y-79335000D01*
X171629605Y-79335000D01*
X172442702Y-80148097D01*
X172686671Y-80076514D01*
X172807571Y-79821004D01*
X172876300Y-79546816D01*
X172890217Y-79264488D01*
X172848787Y-78984870D01*
X172753603Y-78718708D01*
X172686671Y-78593486D01*
X172442702Y-78521903D01*
X171629605Y-79335000D01*
X171270395Y-79335000D01*
X171256253Y-79320858D01*
X171435858Y-79141253D01*
X171450000Y-79155395D01*
X172263097Y-78342298D01*
X172191514Y-78098329D01*
X172162659Y-78084676D01*
X172364759Y-77949637D01*
X172564637Y-77749759D01*
X172721680Y-77514727D01*
X172829853Y-77253574D01*
X172885000Y-76976335D01*
X172885000Y-76693665D01*
X172863353Y-76584837D01*
X173675800Y-75772390D01*
X173823900Y-75893932D01*
X174073193Y-76027182D01*
X174343692Y-76109236D01*
X174625000Y-76136943D01*
X174906309Y-76109236D01*
X175176808Y-76027182D01*
X175426101Y-75893932D01*
X175644608Y-75714608D01*
X175823932Y-75496101D01*
X175892265Y-75368259D01*
X176042399Y-75597839D01*
X176240105Y-75799500D01*
X176473354Y-75958715D01*
X176733182Y-76069367D01*
X176815961Y-76086904D01*
X177038000Y-75964915D01*
X177038000Y-74422000D01*
X177018000Y-74422000D01*
X177018000Y-74168000D01*
X177038000Y-74168000D01*
X177038000Y-72625085D01*
X176815961Y-72503096D01*
X176733182Y-72520633D01*
X176473354Y-72631285D01*
X176240105Y-72790500D01*
X176042399Y-72992161D01*
X175892265Y-73221741D01*
X175823932Y-73093899D01*
X175644607Y-72875392D01*
X175426100Y-72696068D01*
X175176807Y-72562818D01*
X174906308Y-72480764D01*
X174625000Y-72453057D01*
X174343691Y-72480764D01*
X174073192Y-72562818D01*
X173823899Y-72696068D01*
X173605392Y-72875393D01*
X173426068Y-73093900D01*
X173292818Y-73343193D01*
X173210764Y-73613692D01*
X173190000Y-73824509D01*
X173190000Y-73931810D01*
X171700163Y-75421647D01*
X171591335Y-75400000D01*
X171308665Y-75400000D01*
X171031426Y-75455147D01*
X170770273Y-75563320D01*
X170535241Y-75720363D01*
X170335363Y-75920241D01*
X170178320Y-76155273D01*
X170070147Y-76416426D01*
X170015000Y-76693665D01*
X170015000Y-76976335D01*
X170036647Y-77085162D01*
X169661775Y-77460035D01*
X169630391Y-77485791D01*
X169527608Y-77611034D01*
X169458905Y-77739568D01*
X169451233Y-77753921D01*
X169404202Y-77908962D01*
X169388321Y-78070200D01*
X168981198Y-78070200D01*
X168980546Y-78068053D01*
X168909974Y-77936024D01*
X168815001Y-77820299D01*
X168786003Y-77796501D01*
X167361872Y-76372371D01*
X167389608Y-76349608D01*
X167568932Y-76131101D01*
X167702182Y-75881808D01*
X167784236Y-75611309D01*
X167805000Y-75400491D01*
X167805000Y-74459508D01*
X167784236Y-74248691D01*
X167702182Y-73978192D01*
X167568932Y-73728899D01*
X167389607Y-73510392D01*
X167171100Y-73331068D01*
X166921807Y-73197818D01*
X166651308Y-73115764D01*
X166370000Y-73088057D01*
X166088691Y-73115764D01*
X165818192Y-73197818D01*
X165568899Y-73331068D01*
X165350392Y-73510393D01*
X165171068Y-73728900D01*
X165100000Y-73861858D01*
X165028932Y-73728899D01*
X164849607Y-73510392D01*
X164631100Y-73331068D01*
X164381807Y-73197818D01*
X164111308Y-73115764D01*
X163830000Y-73088057D01*
X163548691Y-73115764D01*
X163278192Y-73197818D01*
X163028899Y-73331068D01*
X162810392Y-73510393D01*
X162631068Y-73728900D01*
X162560000Y-73861858D01*
X162488932Y-73728899D01*
X162309607Y-73510392D01*
X162091100Y-73331068D01*
X161841807Y-73197818D01*
X161571308Y-73115764D01*
X161290000Y-73088057D01*
X161008691Y-73115764D01*
X160738192Y-73197818D01*
X160488899Y-73331068D01*
X160270392Y-73510393D01*
X160091068Y-73728900D01*
X160020000Y-73861858D01*
X159948932Y-73728899D01*
X159769607Y-73510392D01*
X159551100Y-73331068D01*
X159354251Y-73225850D01*
X165566928Y-67013174D01*
X165566928Y-68510000D01*
X165579188Y-68634482D01*
X165615498Y-68754180D01*
X165674463Y-68864494D01*
X165753815Y-68961185D01*
X165850506Y-69040537D01*
X165960820Y-69099502D01*
X166080518Y-69135812D01*
X166205000Y-69148072D01*
X167805000Y-69148072D01*
X167929482Y-69135812D01*
X168049180Y-69099502D01*
X168159494Y-69040537D01*
X168256185Y-68961185D01*
X168335537Y-68864494D01*
X168394502Y-68754180D01*
X168430812Y-68634482D01*
X168432581Y-68616517D01*
X168525393Y-68729608D01*
X168743900Y-68908932D01*
X168993193Y-69042182D01*
X169263692Y-69124236D01*
X169545000Y-69151943D01*
X169826309Y-69124236D01*
X170096808Y-69042182D01*
X170346101Y-68908932D01*
X170564608Y-68729608D01*
X170743932Y-68511101D01*
X170815000Y-68378142D01*
X170886068Y-68511101D01*
X171065393Y-68729608D01*
X171283900Y-68908932D01*
X171533193Y-69042182D01*
X171803692Y-69124236D01*
X172085000Y-69151943D01*
X172366309Y-69124236D01*
X172636808Y-69042182D01*
X172886101Y-68908932D01*
X173104608Y-68729608D01*
X173283932Y-68511101D01*
X173355000Y-68378142D01*
X173426068Y-68511101D01*
X173605393Y-68729608D01*
X173823900Y-68908932D01*
X174073193Y-69042182D01*
X174343692Y-69124236D01*
X174625000Y-69151943D01*
X174906309Y-69124236D01*
X175176808Y-69042182D01*
X175426101Y-68908932D01*
X175644608Y-68729608D01*
X175823932Y-68511101D01*
X175895000Y-68378142D01*
X175966068Y-68511101D01*
X176145393Y-68729608D01*
X176363900Y-68908932D01*
X176613193Y-69042182D01*
X176883692Y-69124236D01*
X177165000Y-69151943D01*
X177446309Y-69124236D01*
X177716808Y-69042182D01*
X177966101Y-68908932D01*
X178184608Y-68729608D01*
X178363932Y-68511101D01*
X178435000Y-68378142D01*
X178506068Y-68511101D01*
X178685393Y-68729608D01*
X178903900Y-68908932D01*
X179153193Y-69042182D01*
X179423692Y-69124236D01*
X179705000Y-69151943D01*
X179986309Y-69124236D01*
X180256808Y-69042182D01*
X180506101Y-68908932D01*
X180724608Y-68729608D01*
X180903932Y-68511101D01*
X180975000Y-68378142D01*
X181046068Y-68511101D01*
X181225393Y-68729608D01*
X181443900Y-68908932D01*
X181693193Y-69042182D01*
X181963692Y-69124236D01*
X182245000Y-69151943D01*
X182526309Y-69124236D01*
X182796808Y-69042182D01*
X183046101Y-68908932D01*
X183264608Y-68729608D01*
X183443932Y-68511101D01*
X183512265Y-68383259D01*
X183662399Y-68612839D01*
X183860105Y-68814500D01*
X184093354Y-68973715D01*
X184353182Y-69084367D01*
X184435961Y-69101904D01*
X184658000Y-68979915D01*
X184658000Y-67437000D01*
X184638000Y-67437000D01*
X184638000Y-67183000D01*
X184658000Y-67183000D01*
X184658000Y-65640085D01*
X184435961Y-65518096D01*
X184353182Y-65535633D01*
X184093354Y-65646285D01*
X183860105Y-65805500D01*
X183662399Y-66007161D01*
X183512265Y-66236741D01*
X183443932Y-66108899D01*
X183264607Y-65890392D01*
X183046100Y-65711068D01*
X182796807Y-65577818D01*
X182526308Y-65495764D01*
X182245000Y-65468057D01*
X181963691Y-65495764D01*
X181693192Y-65577818D01*
X181443899Y-65711068D01*
X181225392Y-65890393D01*
X181046068Y-66108900D01*
X180975000Y-66241858D01*
X180903932Y-66108899D01*
X180724607Y-65890392D01*
X180506100Y-65711068D01*
X180256807Y-65577818D01*
X179986308Y-65495764D01*
X179705000Y-65468057D01*
X179423691Y-65495764D01*
X179153192Y-65577818D01*
X178903899Y-65711068D01*
X178685392Y-65890393D01*
X178506068Y-66108900D01*
X178435000Y-66241858D01*
X178363932Y-66108899D01*
X178184607Y-65890392D01*
X177966100Y-65711068D01*
X177716807Y-65577818D01*
X177446308Y-65495764D01*
X177165000Y-65468057D01*
X176979027Y-65486374D01*
X181297015Y-61168387D01*
X181443900Y-61288932D01*
G36*
X134122908Y-102636440D02*
G01*
X134292236Y-102842765D01*
X134498561Y-103012092D01*
X134733956Y-103137914D01*
X134989375Y-103215394D01*
X135255000Y-103241556D01*
X135520626Y-103215394D01*
X135776045Y-103137914D01*
X135989700Y-103023712D01*
X135989701Y-104548797D01*
X130808499Y-109730000D01*
X123247290Y-109730000D01*
X123277571Y-109666004D01*
X123346300Y-109391816D01*
X123360217Y-109109488D01*
X123318787Y-108829870D01*
X123223603Y-108563708D01*
X123156671Y-108438486D01*
X122912702Y-108366903D01*
X122099605Y-109180000D01*
X122113748Y-109194143D01*
X121934143Y-109373748D01*
X121920000Y-109359605D01*
X121905858Y-109373748D01*
X121726253Y-109194143D01*
X121740395Y-109180000D01*
X120927298Y-108366903D01*
X120683329Y-108438486D01*
X120562429Y-108693996D01*
X120493700Y-108968184D01*
X120479783Y-109250512D01*
X120521213Y-109530130D01*
X120592690Y-109730000D01*
X117017867Y-109730000D01*
X117090001Y-109670801D01*
X117113804Y-109641797D01*
X120572653Y-106182948D01*
X120540147Y-106261426D01*
X120485000Y-106538665D01*
X120485000Y-106821335D01*
X120540147Y-107098574D01*
X120648320Y-107359727D01*
X120805363Y-107594759D01*
X121005241Y-107794637D01*
X121205869Y-107928692D01*
X121178486Y-107943329D01*
X121106903Y-108187298D01*
X121920000Y-109000395D01*
X122733097Y-108187298D01*
X122661514Y-107943329D01*
X122632659Y-107929676D01*
X122834759Y-107794637D01*
X123034637Y-107594759D01*
X123191680Y-107359727D01*
X123299853Y-107098574D01*
X123355000Y-106821335D01*
X123355000Y-106538665D01*
X123333353Y-106429838D01*
X127340691Y-102422500D01*
X134008554Y-102422500D01*
X134122908Y-102636440D01*
X134122908Y-102636440D01*
G37*
X134122908Y-102636440D02*
X134292236Y-102842765D01*
X134498561Y-103012092D01*
X134733956Y-103137914D01*
X134989375Y-103215394D01*
X135255000Y-103241556D01*
X135520626Y-103215394D01*
X135776045Y-103137914D01*
X135989700Y-103023712D01*
X135989701Y-104548797D01*
X130808499Y-109730000D01*
X123247290Y-109730000D01*
X123277571Y-109666004D01*
X123346300Y-109391816D01*
X123360217Y-109109488D01*
X123318787Y-108829870D01*
X123223603Y-108563708D01*
X123156671Y-108438486D01*
X122912702Y-108366903D01*
X122099605Y-109180000D01*
X122113748Y-109194143D01*
X121934143Y-109373748D01*
X121920000Y-109359605D01*
X121905858Y-109373748D01*
X121726253Y-109194143D01*
X121740395Y-109180000D01*
X120927298Y-108366903D01*
X120683329Y-108438486D01*
X120562429Y-108693996D01*
X120493700Y-108968184D01*
X120479783Y-109250512D01*
X120521213Y-109530130D01*
X120592690Y-109730000D01*
X117017867Y-109730000D01*
X117090001Y-109670801D01*
X117113804Y-109641797D01*
X120572653Y-106182948D01*
X120540147Y-106261426D01*
X120485000Y-106538665D01*
X120485000Y-106821335D01*
X120540147Y-107098574D01*
X120648320Y-107359727D01*
X120805363Y-107594759D01*
X121005241Y-107794637D01*
X121205869Y-107928692D01*
X121178486Y-107943329D01*
X121106903Y-108187298D01*
X121920000Y-109000395D01*
X122733097Y-108187298D01*
X122661514Y-107943329D01*
X122632659Y-107929676D01*
X122834759Y-107794637D01*
X123034637Y-107594759D01*
X123191680Y-107359727D01*
X123299853Y-107098574D01*
X123355000Y-106821335D01*
X123355000Y-106538665D01*
X123333353Y-106429838D01*
X127340691Y-102422500D01*
X134008554Y-102422500D01*
X134122908Y-102636440D01*
G36*
X131516068Y-60891101D02*
G01*
X131695393Y-61109608D01*
X131723128Y-61132370D01*
X128393998Y-64461501D01*
X128365000Y-64485299D01*
X128341202Y-64514297D01*
X128341201Y-64514298D01*
X128270026Y-64601024D01*
X128199454Y-64733054D01*
X128155998Y-64876315D01*
X128141324Y-65025300D01*
X128145001Y-65062632D01*
X128145001Y-65565136D01*
X127916308Y-65495764D01*
X127635000Y-65468057D01*
X127353691Y-65495764D01*
X127083192Y-65577818D01*
X126833899Y-65711068D01*
X126615392Y-65890393D01*
X126436068Y-66108900D01*
X126365000Y-66241858D01*
X126293932Y-66108899D01*
X126114607Y-65890392D01*
X125896100Y-65711068D01*
X125646807Y-65577818D01*
X125376308Y-65495764D01*
X125095000Y-65468057D01*
X124813691Y-65495764D01*
X124543192Y-65577818D01*
X124293899Y-65711068D01*
X124075392Y-65890393D01*
X123896068Y-66108900D01*
X123827735Y-66236742D01*
X123677601Y-66007161D01*
X123479895Y-65805500D01*
X123246646Y-65646285D01*
X122986818Y-65535633D01*
X122904039Y-65518096D01*
X122682000Y-65640085D01*
X122682000Y-67183000D01*
X122702000Y-67183000D01*
X122702000Y-67437000D01*
X122682000Y-67437000D01*
X122682000Y-68979915D01*
X122904039Y-69101904D01*
X122986818Y-69084367D01*
X123246646Y-68973715D01*
X123479895Y-68814500D01*
X123677601Y-68612839D01*
X123827735Y-68383259D01*
X123896068Y-68511101D01*
X124075393Y-68729608D01*
X124293900Y-68908932D01*
X124543193Y-69042182D01*
X124813692Y-69124236D01*
X125095000Y-69151943D01*
X125376309Y-69124236D01*
X125646808Y-69042182D01*
X125896101Y-68908932D01*
X126114608Y-68729608D01*
X126293932Y-68511101D01*
X126365000Y-68378142D01*
X126436068Y-68511101D01*
X126615393Y-68729608D01*
X126833900Y-68908932D01*
X127083193Y-69042182D01*
X127353692Y-69124236D01*
X127635000Y-69151943D01*
X127916309Y-69124236D01*
X128145000Y-69054864D01*
X128145000Y-71451198D01*
X123442998Y-76153201D01*
X123414000Y-76176999D01*
X123390202Y-76205997D01*
X123390201Y-76205998D01*
X123319026Y-76292724D01*
X123248454Y-76424754D01*
X123235723Y-76466724D01*
X123204998Y-76568014D01*
X123200894Y-76609685D01*
X123190324Y-76717000D01*
X123194001Y-76754332D01*
X123194000Y-81693177D01*
X123190324Y-81730500D01*
X123194000Y-81767822D01*
X123194000Y-81767832D01*
X123204997Y-81879485D01*
X123247317Y-82018997D01*
X123248454Y-82022746D01*
X123319026Y-82154776D01*
X123351840Y-82194759D01*
X123413999Y-82270501D01*
X123443002Y-82294303D01*
X123992676Y-82843977D01*
X123986023Y-82850630D01*
X124102296Y-82966903D01*
X123858329Y-83038486D01*
X123737429Y-83293996D01*
X123668700Y-83568184D01*
X123654783Y-83850512D01*
X123696213Y-84130130D01*
X123791397Y-84396292D01*
X123858329Y-84521514D01*
X124102298Y-84593097D01*
X124915395Y-83780000D01*
X124901253Y-83765858D01*
X125080858Y-83586253D01*
X125095000Y-83600395D01*
X125109143Y-83586253D01*
X125288748Y-83765858D01*
X125274605Y-83780000D01*
X125288748Y-83794143D01*
X125109143Y-83973748D01*
X125095000Y-83959605D01*
X124281903Y-84772702D01*
X124353486Y-85016671D01*
X124393903Y-85035795D01*
X120834999Y-88594700D01*
X120772861Y-88594700D01*
X120572902Y-88634474D01*
X120384544Y-88712495D01*
X120215026Y-88825763D01*
X120070863Y-88969926D01*
X119957595Y-89139444D01*
X119879574Y-89327802D01*
X119839800Y-89527761D01*
X119839800Y-89731639D01*
X119858612Y-89826214D01*
X119842588Y-89804731D01*
X119626355Y-89609822D01*
X119376252Y-89460843D01*
X119101891Y-89363519D01*
X118872000Y-89484186D01*
X118872000Y-90678000D01*
X118892000Y-90678000D01*
X118892000Y-90932000D01*
X118872000Y-90932000D01*
X118872000Y-93218000D01*
X118892000Y-93218000D01*
X118892000Y-93472000D01*
X118872000Y-93472000D01*
X118872000Y-95758000D01*
X118892000Y-95758000D01*
X118892000Y-96012000D01*
X118872000Y-96012000D01*
X118872000Y-98298000D01*
X118892000Y-98298000D01*
X118892000Y-98552000D01*
X118872000Y-98552000D01*
X118872000Y-99751250D01*
X119030750Y-99910000D01*
X119595000Y-99913072D01*
X119719482Y-99900812D01*
X119839180Y-99864502D01*
X119949494Y-99805537D01*
X119973001Y-99786246D01*
X119973001Y-104632997D01*
X117055620Y-107550379D01*
X117058072Y-107100000D01*
X117045812Y-106975518D01*
X117009502Y-106855820D01*
X116950537Y-106745506D01*
X116871185Y-106648815D01*
X116774494Y-106569463D01*
X116664180Y-106510498D01*
X116544482Y-106474188D01*
X116420000Y-106461928D01*
X115855750Y-106465000D01*
X115697000Y-106623750D01*
X115697000Y-107823000D01*
X115717000Y-107823000D01*
X115717000Y-108077000D01*
X115697000Y-108077000D01*
X115697000Y-108097000D01*
X115443000Y-108097000D01*
X115443000Y-108077000D01*
X113157000Y-108077000D01*
X113157000Y-108097000D01*
X112903000Y-108097000D01*
X112903000Y-108077000D01*
X112883000Y-108077000D01*
X112883000Y-107823000D01*
X112903000Y-107823000D01*
X112903000Y-106629845D01*
X113157000Y-106629845D01*
X113157000Y-107823000D01*
X115443000Y-107823000D01*
X115443000Y-106623750D01*
X115284250Y-106465000D01*
X114720000Y-106461928D01*
X114595518Y-106474188D01*
X114475820Y-106510498D01*
X114365506Y-106569463D01*
X114268815Y-106648815D01*
X114189463Y-106745506D01*
X114130498Y-106855820D01*
X114106034Y-106936466D01*
X114030269Y-106852412D01*
X113796920Y-106678359D01*
X113534099Y-106553175D01*
X113386890Y-106508524D01*
X113157000Y-106629845D01*
X112903000Y-106629845D01*
X112758654Y-106553669D01*
X112645637Y-106384526D01*
X112501474Y-106240363D01*
X112331956Y-106127095D01*
X112143598Y-106049074D01*
X111943639Y-106009300D01*
X111881502Y-106009300D01*
X108880900Y-103008699D01*
X108880900Y-93091223D01*
X108884576Y-93053900D01*
X108880900Y-93016577D01*
X108880900Y-93016567D01*
X108869903Y-92904914D01*
X108826446Y-92761653D01*
X108814202Y-92738746D01*
X108755874Y-92629623D01*
X108684699Y-92542897D01*
X108660901Y-92513899D01*
X108631903Y-92490101D01*
X106585396Y-90443595D01*
X106650706Y-90364014D01*
X106788599Y-90106034D01*
X106873513Y-89826111D01*
X106902185Y-89535000D01*
X106873513Y-89243889D01*
X106788599Y-88963966D01*
X106650706Y-88705986D01*
X106465134Y-88479866D01*
X106239014Y-88294294D01*
X106184209Y-88265000D01*
X106239014Y-88235706D01*
X106465134Y-88050134D01*
X106650706Y-87824014D01*
X106788599Y-87566034D01*
X106873513Y-87286111D01*
X106902185Y-86995000D01*
X106873513Y-86703889D01*
X106788599Y-86423966D01*
X106650706Y-86165986D01*
X106585396Y-86086405D01*
X110870701Y-81801101D01*
X110870700Y-89420914D01*
X110771309Y-89390764D01*
X110560492Y-89370000D01*
X110419508Y-89370000D01*
X110208691Y-89390764D01*
X109938192Y-89472818D01*
X109688899Y-89606068D01*
X109470392Y-89785392D01*
X109291068Y-90003899D01*
X109157818Y-90253192D01*
X109075764Y-90523691D01*
X109048057Y-90805000D01*
X109075764Y-91086309D01*
X109157818Y-91356808D01*
X109291068Y-91606101D01*
X109470392Y-91824608D01*
X109688899Y-92003932D01*
X109821858Y-92075000D01*
X109688899Y-92146068D01*
X109470392Y-92325392D01*
X109291068Y-92543899D01*
X109157818Y-92793192D01*
X109075764Y-93063691D01*
X109048057Y-93345000D01*
X109075764Y-93626309D01*
X109157818Y-93896808D01*
X109291068Y-94146101D01*
X109470392Y-94364608D01*
X109688899Y-94543932D01*
X109821858Y-94615000D01*
X109688899Y-94686068D01*
X109470392Y-94865392D01*
X109291068Y-95083899D01*
X109157818Y-95333192D01*
X109075764Y-95603691D01*
X109048057Y-95885000D01*
X109075764Y-96166309D01*
X109157818Y-96436808D01*
X109291068Y-96686101D01*
X109470392Y-96904608D01*
X109688899Y-97083932D01*
X109751160Y-97117211D01*
X109740997Y-97150714D01*
X109736058Y-97200861D01*
X109688899Y-97226068D01*
X109470392Y-97405392D01*
X109291068Y-97623899D01*
X109157818Y-97873192D01*
X109075764Y-98143691D01*
X109048057Y-98425000D01*
X109075764Y-98706309D01*
X109157818Y-98976808D01*
X109291068Y-99226101D01*
X109470392Y-99444608D01*
X109583482Y-99537419D01*
X109565518Y-99539188D01*
X109445820Y-99575498D01*
X109335506Y-99634463D01*
X109238815Y-99713815D01*
X109159463Y-99810506D01*
X109100498Y-99920820D01*
X109064188Y-100040518D01*
X109051928Y-100165000D01*
X109051928Y-101765000D01*
X109064188Y-101889482D01*
X109100498Y-102009180D01*
X109159463Y-102119494D01*
X109238815Y-102216185D01*
X109335506Y-102295537D01*
X109445820Y-102354502D01*
X109565518Y-102390812D01*
X109690000Y-102403072D01*
X111290000Y-102403072D01*
X111414482Y-102390812D01*
X111534180Y-102354502D01*
X111644494Y-102295537D01*
X111741185Y-102216185D01*
X111820537Y-102119494D01*
X111879502Y-102009180D01*
X111915812Y-101889482D01*
X111928072Y-101765000D01*
X111928072Y-100165000D01*
X111915812Y-100040518D01*
X111879820Y-99921870D01*
X114218030Y-97583661D01*
X114249409Y-97557909D01*
X114352192Y-97432667D01*
X114428567Y-97289780D01*
X114475598Y-97134738D01*
X114487500Y-97013898D01*
X114491479Y-96973500D01*
X114487500Y-96933102D01*
X114487500Y-94439120D01*
X114489700Y-94441801D01*
X114518698Y-94465599D01*
X115029559Y-94976461D01*
X114964294Y-95055986D01*
X114826401Y-95313966D01*
X114741487Y-95593889D01*
X114712815Y-95885000D01*
X114741487Y-96176111D01*
X114826401Y-96456034D01*
X114964294Y-96714014D01*
X115149866Y-96940134D01*
X115375986Y-97125706D01*
X115430791Y-97155000D01*
X115375986Y-97184294D01*
X115149866Y-97369866D01*
X114964294Y-97595986D01*
X114826401Y-97853966D01*
X114741487Y-98133889D01*
X114712815Y-98425000D01*
X114741487Y-98716111D01*
X114826401Y-98996034D01*
X114964294Y-99254014D01*
X115149866Y-99480134D01*
X115375986Y-99665706D01*
X115633966Y-99803599D01*
X115913889Y-99888513D01*
X116132050Y-99910000D01*
X116277950Y-99910000D01*
X116496111Y-99888513D01*
X116776034Y-99803599D01*
X117034014Y-99665706D01*
X117260134Y-99480134D01*
X117284607Y-99450313D01*
X117305498Y-99519180D01*
X117364463Y-99629494D01*
X117443815Y-99726185D01*
X117540506Y-99805537D01*
X117650820Y-99864502D01*
X117770518Y-99900812D01*
X117895000Y-99913072D01*
X118459250Y-99910000D01*
X118618000Y-99751250D01*
X118618000Y-98552000D01*
X118598000Y-98552000D01*
X118598000Y-98298000D01*
X118618000Y-98298000D01*
X118618000Y-96012000D01*
X118598000Y-96012000D01*
X118598000Y-95758000D01*
X118618000Y-95758000D01*
X118618000Y-93472000D01*
X118598000Y-93472000D01*
X118598000Y-93218000D01*
X118618000Y-93218000D01*
X118618000Y-90932000D01*
X118598000Y-90932000D01*
X118598000Y-90678000D01*
X118618000Y-90678000D01*
X118618000Y-89484186D01*
X118388109Y-89363519D01*
X118113748Y-89460843D01*
X117863645Y-89609822D01*
X117647412Y-89804731D01*
X117476584Y-90033756D01*
X117445706Y-89975986D01*
X117260134Y-89749866D01*
X117034014Y-89564294D01*
X116776034Y-89426401D01*
X116496111Y-89341487D01*
X116277950Y-89320000D01*
X116132050Y-89320000D01*
X115913889Y-89341487D01*
X115789700Y-89379159D01*
X115789700Y-85245841D01*
X115913889Y-85283513D01*
X116132050Y-85305000D01*
X116277950Y-85305000D01*
X116496111Y-85283513D01*
X116776034Y-85198599D01*
X117034014Y-85060706D01*
X117260134Y-84875134D01*
X117445706Y-84649014D01*
X117480201Y-84584477D01*
X117549822Y-84701355D01*
X117744731Y-84917588D01*
X117978080Y-85091641D01*
X118240901Y-85216825D01*
X118388110Y-85261476D01*
X118618000Y-85140155D01*
X118618000Y-83947000D01*
X118872000Y-83947000D01*
X118872000Y-85140155D01*
X119101890Y-85261476D01*
X119249099Y-85216825D01*
X119511920Y-85091641D01*
X119745269Y-84917588D01*
X119940178Y-84701355D01*
X120089157Y-84451252D01*
X120186481Y-84176891D01*
X120065814Y-83947000D01*
X118872000Y-83947000D01*
X118618000Y-83947000D01*
X118598000Y-83947000D01*
X118598000Y-83693000D01*
X118618000Y-83693000D01*
X118618000Y-83673000D01*
X118872000Y-83673000D01*
X118872000Y-83693000D01*
X120065814Y-83693000D01*
X120186481Y-83463109D01*
X120089157Y-83188748D01*
X119940178Y-82938645D01*
X119745269Y-82722412D01*
X119516244Y-82551584D01*
X119574014Y-82520706D01*
X119800134Y-82335134D01*
X119985706Y-82109014D01*
X120123599Y-81851034D01*
X120208513Y-81571111D01*
X120237185Y-81280000D01*
X120208513Y-80988889D01*
X120123599Y-80708966D01*
X119985706Y-80450986D01*
X119800134Y-80224866D01*
X119574014Y-80039294D01*
X119316034Y-79901401D01*
X119036111Y-79816487D01*
X118817950Y-79795000D01*
X118672050Y-79795000D01*
X118453889Y-79816487D01*
X118173966Y-79901401D01*
X118140300Y-79919396D01*
X118140300Y-69919701D01*
X119179391Y-68880611D01*
X119213900Y-68908932D01*
X119261059Y-68934139D01*
X119265998Y-68984286D01*
X119267490Y-68989203D01*
X119309454Y-69127546D01*
X119380026Y-69259576D01*
X119451201Y-69346302D01*
X119475000Y-69375301D01*
X119503998Y-69399099D01*
X121349500Y-71244602D01*
X121349501Y-76924088D01*
X121305563Y-76968026D01*
X121192295Y-77137544D01*
X121114274Y-77325902D01*
X121074500Y-77525861D01*
X121074500Y-77729739D01*
X121114274Y-77929698D01*
X121192295Y-78118056D01*
X121305563Y-78287574D01*
X121449726Y-78431737D01*
X121619244Y-78545005D01*
X121807602Y-78623026D01*
X122007561Y-78662800D01*
X122211439Y-78662800D01*
X122411398Y-78623026D01*
X122599756Y-78545005D01*
X122769274Y-78431737D01*
X122913437Y-78287574D01*
X123026705Y-78118056D01*
X123104726Y-77929698D01*
X123144500Y-77729739D01*
X123144500Y-77525861D01*
X123104726Y-77325902D01*
X123026705Y-77137544D01*
X122913437Y-76968026D01*
X122869500Y-76924089D01*
X122869500Y-70967122D01*
X122873176Y-70929799D01*
X122869500Y-70892476D01*
X122869500Y-70892467D01*
X122858503Y-70780814D01*
X122815046Y-70637553D01*
X122744474Y-70505524D01*
X122649501Y-70389799D01*
X122620504Y-70366002D01*
X121006872Y-68752371D01*
X121034608Y-68729608D01*
X121213932Y-68511101D01*
X121282265Y-68383259D01*
X121432399Y-68612839D01*
X121630105Y-68814500D01*
X121863354Y-68973715D01*
X122123182Y-69084367D01*
X122205961Y-69101904D01*
X122428000Y-68979915D01*
X122428000Y-67437000D01*
X122408000Y-67437000D01*
X122408000Y-67183000D01*
X122428000Y-67183000D01*
X122428000Y-65640085D01*
X122205961Y-65518096D01*
X122123182Y-65535633D01*
X121863354Y-65646285D01*
X121630105Y-65805500D01*
X121432399Y-66007161D01*
X121282265Y-66236741D01*
X121213932Y-66108899D01*
X121034607Y-65890392D01*
X120816100Y-65711068D01*
X120701883Y-65650018D01*
X124376602Y-61975300D01*
X125531378Y-61975300D01*
X125568700Y-61978976D01*
X125606022Y-61975300D01*
X125606033Y-61975300D01*
X125717686Y-61964303D01*
X125860947Y-61920846D01*
X125992976Y-61850274D01*
X126108701Y-61755301D01*
X126132503Y-61726298D01*
X126688883Y-61169919D01*
X126833900Y-61288932D01*
X127083193Y-61422182D01*
X127353692Y-61504236D01*
X127635000Y-61531943D01*
X127916309Y-61504236D01*
X128186808Y-61422182D01*
X128436101Y-61288932D01*
X128654608Y-61109608D01*
X128833932Y-60891101D01*
X128905000Y-60758142D01*
X128976068Y-60891101D01*
X129155393Y-61109608D01*
X129373900Y-61288932D01*
X129623193Y-61422182D01*
X129893692Y-61504236D01*
X130175000Y-61531943D01*
X130456309Y-61504236D01*
X130726808Y-61422182D01*
X130976101Y-61288932D01*
X131194608Y-61109608D01*
X131373932Y-60891101D01*
X131445000Y-60758142D01*
X131516068Y-60891101D01*
X131516068Y-60891101D01*
G37*
X131516068Y-60891101D02*
X131695393Y-61109608D01*
X131723128Y-61132370D01*
X128393998Y-64461501D01*
X128365000Y-64485299D01*
X128341202Y-64514297D01*
X128341201Y-64514298D01*
X128270026Y-64601024D01*
X128199454Y-64733054D01*
X128155998Y-64876315D01*
X128141324Y-65025300D01*
X128145001Y-65062632D01*
X128145001Y-65565136D01*
X127916308Y-65495764D01*
X127635000Y-65468057D01*
X127353691Y-65495764D01*
X127083192Y-65577818D01*
X126833899Y-65711068D01*
X126615392Y-65890393D01*
X126436068Y-66108900D01*
X126365000Y-66241858D01*
X126293932Y-66108899D01*
X126114607Y-65890392D01*
X125896100Y-65711068D01*
X125646807Y-65577818D01*
X125376308Y-65495764D01*
X125095000Y-65468057D01*
X124813691Y-65495764D01*
X124543192Y-65577818D01*
X124293899Y-65711068D01*
X124075392Y-65890393D01*
X123896068Y-66108900D01*
X123827735Y-66236742D01*
X123677601Y-66007161D01*
X123479895Y-65805500D01*
X123246646Y-65646285D01*
X122986818Y-65535633D01*
X122904039Y-65518096D01*
X122682000Y-65640085D01*
X122682000Y-67183000D01*
X122702000Y-67183000D01*
X122702000Y-67437000D01*
X122682000Y-67437000D01*
X122682000Y-68979915D01*
X122904039Y-69101904D01*
X122986818Y-69084367D01*
X123246646Y-68973715D01*
X123479895Y-68814500D01*
X123677601Y-68612839D01*
X123827735Y-68383259D01*
X123896068Y-68511101D01*
X124075393Y-68729608D01*
X124293900Y-68908932D01*
X124543193Y-69042182D01*
X124813692Y-69124236D01*
X125095000Y-69151943D01*
X125376309Y-69124236D01*
X125646808Y-69042182D01*
X125896101Y-68908932D01*
X126114608Y-68729608D01*
X126293932Y-68511101D01*
X126365000Y-68378142D01*
X126436068Y-68511101D01*
X126615393Y-68729608D01*
X126833900Y-68908932D01*
X127083193Y-69042182D01*
X127353692Y-69124236D01*
X127635000Y-69151943D01*
X127916309Y-69124236D01*
X128145000Y-69054864D01*
X128145000Y-71451198D01*
X123442998Y-76153201D01*
X123414000Y-76176999D01*
X123390202Y-76205997D01*
X123390201Y-76205998D01*
X123319026Y-76292724D01*
X123248454Y-76424754D01*
X123235723Y-76466724D01*
X123204998Y-76568014D01*
X123200894Y-76609685D01*
X123190324Y-76717000D01*
X123194001Y-76754332D01*
X123194000Y-81693177D01*
X123190324Y-81730500D01*
X123194000Y-81767822D01*
X123194000Y-81767832D01*
X123204997Y-81879485D01*
X123247317Y-82018997D01*
X123248454Y-82022746D01*
X123319026Y-82154776D01*
X123351840Y-82194759D01*
X123413999Y-82270501D01*
X123443002Y-82294303D01*
X123992676Y-82843977D01*
X123986023Y-82850630D01*
X124102296Y-82966903D01*
X123858329Y-83038486D01*
X123737429Y-83293996D01*
X123668700Y-83568184D01*
X123654783Y-83850512D01*
X123696213Y-84130130D01*
X123791397Y-84396292D01*
X123858329Y-84521514D01*
X124102298Y-84593097D01*
X124915395Y-83780000D01*
X124901253Y-83765858D01*
X125080858Y-83586253D01*
X125095000Y-83600395D01*
X125109143Y-83586253D01*
X125288748Y-83765858D01*
X125274605Y-83780000D01*
X125288748Y-83794143D01*
X125109143Y-83973748D01*
X125095000Y-83959605D01*
X124281903Y-84772702D01*
X124353486Y-85016671D01*
X124393903Y-85035795D01*
X120834999Y-88594700D01*
X120772861Y-88594700D01*
X120572902Y-88634474D01*
X120384544Y-88712495D01*
X120215026Y-88825763D01*
X120070863Y-88969926D01*
X119957595Y-89139444D01*
X119879574Y-89327802D01*
X119839800Y-89527761D01*
X119839800Y-89731639D01*
X119858612Y-89826214D01*
X119842588Y-89804731D01*
X119626355Y-89609822D01*
X119376252Y-89460843D01*
X119101891Y-89363519D01*
X118872000Y-89484186D01*
X118872000Y-90678000D01*
X118892000Y-90678000D01*
X118892000Y-90932000D01*
X118872000Y-90932000D01*
X118872000Y-93218000D01*
X118892000Y-93218000D01*
X118892000Y-93472000D01*
X118872000Y-93472000D01*
X118872000Y-95758000D01*
X118892000Y-95758000D01*
X118892000Y-96012000D01*
X118872000Y-96012000D01*
X118872000Y-98298000D01*
X118892000Y-98298000D01*
X118892000Y-98552000D01*
X118872000Y-98552000D01*
X118872000Y-99751250D01*
X119030750Y-99910000D01*
X119595000Y-99913072D01*
X119719482Y-99900812D01*
X119839180Y-99864502D01*
X119949494Y-99805537D01*
X119973001Y-99786246D01*
X119973001Y-104632997D01*
X117055620Y-107550379D01*
X117058072Y-107100000D01*
X117045812Y-106975518D01*
X117009502Y-106855820D01*
X116950537Y-106745506D01*
X116871185Y-106648815D01*
X116774494Y-106569463D01*
X116664180Y-106510498D01*
X116544482Y-106474188D01*
X116420000Y-106461928D01*
X115855750Y-106465000D01*
X115697000Y-106623750D01*
X115697000Y-107823000D01*
X115717000Y-107823000D01*
X115717000Y-108077000D01*
X115697000Y-108077000D01*
X115697000Y-108097000D01*
X115443000Y-108097000D01*
X115443000Y-108077000D01*
X113157000Y-108077000D01*
X113157000Y-108097000D01*
X112903000Y-108097000D01*
X112903000Y-108077000D01*
X112883000Y-108077000D01*
X112883000Y-107823000D01*
X112903000Y-107823000D01*
X112903000Y-106629845D01*
X113157000Y-106629845D01*
X113157000Y-107823000D01*
X115443000Y-107823000D01*
X115443000Y-106623750D01*
X115284250Y-106465000D01*
X114720000Y-106461928D01*
X114595518Y-106474188D01*
X114475820Y-106510498D01*
X114365506Y-106569463D01*
X114268815Y-106648815D01*
X114189463Y-106745506D01*
X114130498Y-106855820D01*
X114106034Y-106936466D01*
X114030269Y-106852412D01*
X113796920Y-106678359D01*
X113534099Y-106553175D01*
X113386890Y-106508524D01*
X113157000Y-106629845D01*
X112903000Y-106629845D01*
X112758654Y-106553669D01*
X112645637Y-106384526D01*
X112501474Y-106240363D01*
X112331956Y-106127095D01*
X112143598Y-106049074D01*
X111943639Y-106009300D01*
X111881502Y-106009300D01*
X108880900Y-103008699D01*
X108880900Y-93091223D01*
X108884576Y-93053900D01*
X108880900Y-93016577D01*
X108880900Y-93016567D01*
X108869903Y-92904914D01*
X108826446Y-92761653D01*
X108814202Y-92738746D01*
X108755874Y-92629623D01*
X108684699Y-92542897D01*
X108660901Y-92513899D01*
X108631903Y-92490101D01*
X106585396Y-90443595D01*
X106650706Y-90364014D01*
X106788599Y-90106034D01*
X106873513Y-89826111D01*
X106902185Y-89535000D01*
X106873513Y-89243889D01*
X106788599Y-88963966D01*
X106650706Y-88705986D01*
X106465134Y-88479866D01*
X106239014Y-88294294D01*
X106184209Y-88265000D01*
X106239014Y-88235706D01*
X106465134Y-88050134D01*
X106650706Y-87824014D01*
X106788599Y-87566034D01*
X106873513Y-87286111D01*
X106902185Y-86995000D01*
X106873513Y-86703889D01*
X106788599Y-86423966D01*
X106650706Y-86165986D01*
X106585396Y-86086405D01*
X110870701Y-81801101D01*
X110870700Y-89420914D01*
X110771309Y-89390764D01*
X110560492Y-89370000D01*
X110419508Y-89370000D01*
X110208691Y-89390764D01*
X109938192Y-89472818D01*
X109688899Y-89606068D01*
X109470392Y-89785392D01*
X109291068Y-90003899D01*
X109157818Y-90253192D01*
X109075764Y-90523691D01*
X109048057Y-90805000D01*
X109075764Y-91086309D01*
X109157818Y-91356808D01*
X109291068Y-91606101D01*
X109470392Y-91824608D01*
X109688899Y-92003932D01*
X109821858Y-92075000D01*
X109688899Y-92146068D01*
X109470392Y-92325392D01*
X109291068Y-92543899D01*
X109157818Y-92793192D01*
X109075764Y-93063691D01*
X109048057Y-93345000D01*
X109075764Y-93626309D01*
X109157818Y-93896808D01*
X109291068Y-94146101D01*
X109470392Y-94364608D01*
X109688899Y-94543932D01*
X109821858Y-94615000D01*
X109688899Y-94686068D01*
X109470392Y-94865392D01*
X109291068Y-95083899D01*
X109157818Y-95333192D01*
X109075764Y-95603691D01*
X109048057Y-95885000D01*
X109075764Y-96166309D01*
X109157818Y-96436808D01*
X109291068Y-96686101D01*
X109470392Y-96904608D01*
X109688899Y-97083932D01*
X109751160Y-97117211D01*
X109740997Y-97150714D01*
X109736058Y-97200861D01*
X109688899Y-97226068D01*
X109470392Y-97405392D01*
X109291068Y-97623899D01*
X109157818Y-97873192D01*
X109075764Y-98143691D01*
X109048057Y-98425000D01*
X109075764Y-98706309D01*
X109157818Y-98976808D01*
X109291068Y-99226101D01*
X109470392Y-99444608D01*
X109583482Y-99537419D01*
X109565518Y-99539188D01*
X109445820Y-99575498D01*
X109335506Y-99634463D01*
X109238815Y-99713815D01*
X109159463Y-99810506D01*
X109100498Y-99920820D01*
X109064188Y-100040518D01*
X109051928Y-100165000D01*
X109051928Y-101765000D01*
X109064188Y-101889482D01*
X109100498Y-102009180D01*
X109159463Y-102119494D01*
X109238815Y-102216185D01*
X109335506Y-102295537D01*
X109445820Y-102354502D01*
X109565518Y-102390812D01*
X109690000Y-102403072D01*
X111290000Y-102403072D01*
X111414482Y-102390812D01*
X111534180Y-102354502D01*
X111644494Y-102295537D01*
X111741185Y-102216185D01*
X111820537Y-102119494D01*
X111879502Y-102009180D01*
X111915812Y-101889482D01*
X111928072Y-101765000D01*
X111928072Y-100165000D01*
X111915812Y-100040518D01*
X111879820Y-99921870D01*
X114218030Y-97583661D01*
X114249409Y-97557909D01*
X114352192Y-97432667D01*
X114428567Y-97289780D01*
X114475598Y-97134738D01*
X114487500Y-97013898D01*
X114491479Y-96973500D01*
X114487500Y-96933102D01*
X114487500Y-94439120D01*
X114489700Y-94441801D01*
X114518698Y-94465599D01*
X115029559Y-94976461D01*
X114964294Y-95055986D01*
X114826401Y-95313966D01*
X114741487Y-95593889D01*
X114712815Y-95885000D01*
X114741487Y-96176111D01*
X114826401Y-96456034D01*
X114964294Y-96714014D01*
X115149866Y-96940134D01*
X115375986Y-97125706D01*
X115430791Y-97155000D01*
X115375986Y-97184294D01*
X115149866Y-97369866D01*
X114964294Y-97595986D01*
X114826401Y-97853966D01*
X114741487Y-98133889D01*
X114712815Y-98425000D01*
X114741487Y-98716111D01*
X114826401Y-98996034D01*
X114964294Y-99254014D01*
X115149866Y-99480134D01*
X115375986Y-99665706D01*
X115633966Y-99803599D01*
X115913889Y-99888513D01*
X116132050Y-99910000D01*
X116277950Y-99910000D01*
X116496111Y-99888513D01*
X116776034Y-99803599D01*
X117034014Y-99665706D01*
X117260134Y-99480134D01*
X117284607Y-99450313D01*
X117305498Y-99519180D01*
X117364463Y-99629494D01*
X117443815Y-99726185D01*
X117540506Y-99805537D01*
X117650820Y-99864502D01*
X117770518Y-99900812D01*
X117895000Y-99913072D01*
X118459250Y-99910000D01*
X118618000Y-99751250D01*
X118618000Y-98552000D01*
X118598000Y-98552000D01*
X118598000Y-98298000D01*
X118618000Y-98298000D01*
X118618000Y-96012000D01*
X118598000Y-96012000D01*
X118598000Y-95758000D01*
X118618000Y-95758000D01*
X118618000Y-93472000D01*
X118598000Y-93472000D01*
X118598000Y-93218000D01*
X118618000Y-93218000D01*
X118618000Y-90932000D01*
X118598000Y-90932000D01*
X118598000Y-90678000D01*
X118618000Y-90678000D01*
X118618000Y-89484186D01*
X118388109Y-89363519D01*
X118113748Y-89460843D01*
X117863645Y-89609822D01*
X117647412Y-89804731D01*
X117476584Y-90033756D01*
X117445706Y-89975986D01*
X117260134Y-89749866D01*
X117034014Y-89564294D01*
X116776034Y-89426401D01*
X116496111Y-89341487D01*
X116277950Y-89320000D01*
X116132050Y-89320000D01*
X115913889Y-89341487D01*
X115789700Y-89379159D01*
X115789700Y-85245841D01*
X115913889Y-85283513D01*
X116132050Y-85305000D01*
X116277950Y-85305000D01*
X116496111Y-85283513D01*
X116776034Y-85198599D01*
X117034014Y-85060706D01*
X117260134Y-84875134D01*
X117445706Y-84649014D01*
X117480201Y-84584477D01*
X117549822Y-84701355D01*
X117744731Y-84917588D01*
X117978080Y-85091641D01*
X118240901Y-85216825D01*
X118388110Y-85261476D01*
X118618000Y-85140155D01*
X118618000Y-83947000D01*
X118872000Y-83947000D01*
X118872000Y-85140155D01*
X119101890Y-85261476D01*
X119249099Y-85216825D01*
X119511920Y-85091641D01*
X119745269Y-84917588D01*
X119940178Y-84701355D01*
X120089157Y-84451252D01*
X120186481Y-84176891D01*
X120065814Y-83947000D01*
X118872000Y-83947000D01*
X118618000Y-83947000D01*
X118598000Y-83947000D01*
X118598000Y-83693000D01*
X118618000Y-83693000D01*
X118618000Y-83673000D01*
X118872000Y-83673000D01*
X118872000Y-83693000D01*
X120065814Y-83693000D01*
X120186481Y-83463109D01*
X120089157Y-83188748D01*
X119940178Y-82938645D01*
X119745269Y-82722412D01*
X119516244Y-82551584D01*
X119574014Y-82520706D01*
X119800134Y-82335134D01*
X119985706Y-82109014D01*
X120123599Y-81851034D01*
X120208513Y-81571111D01*
X120237185Y-81280000D01*
X120208513Y-80988889D01*
X120123599Y-80708966D01*
X119985706Y-80450986D01*
X119800134Y-80224866D01*
X119574014Y-80039294D01*
X119316034Y-79901401D01*
X119036111Y-79816487D01*
X118817950Y-79795000D01*
X118672050Y-79795000D01*
X118453889Y-79816487D01*
X118173966Y-79901401D01*
X118140300Y-79919396D01*
X118140300Y-69919701D01*
X119179391Y-68880611D01*
X119213900Y-68908932D01*
X119261059Y-68934139D01*
X119265998Y-68984286D01*
X119267490Y-68989203D01*
X119309454Y-69127546D01*
X119380026Y-69259576D01*
X119451201Y-69346302D01*
X119475000Y-69375301D01*
X119503998Y-69399099D01*
X121349500Y-71244602D01*
X121349501Y-76924088D01*
X121305563Y-76968026D01*
X121192295Y-77137544D01*
X121114274Y-77325902D01*
X121074500Y-77525861D01*
X121074500Y-77729739D01*
X121114274Y-77929698D01*
X121192295Y-78118056D01*
X121305563Y-78287574D01*
X121449726Y-78431737D01*
X121619244Y-78545005D01*
X121807602Y-78623026D01*
X122007561Y-78662800D01*
X122211439Y-78662800D01*
X122411398Y-78623026D01*
X122599756Y-78545005D01*
X122769274Y-78431737D01*
X122913437Y-78287574D01*
X123026705Y-78118056D01*
X123104726Y-77929698D01*
X123144500Y-77729739D01*
X123144500Y-77525861D01*
X123104726Y-77325902D01*
X123026705Y-77137544D01*
X122913437Y-76968026D01*
X122869500Y-76924089D01*
X122869500Y-70967122D01*
X122873176Y-70929799D01*
X122869500Y-70892476D01*
X122869500Y-70892467D01*
X122858503Y-70780814D01*
X122815046Y-70637553D01*
X122744474Y-70505524D01*
X122649501Y-70389799D01*
X122620504Y-70366002D01*
X121006872Y-68752371D01*
X121034608Y-68729608D01*
X121213932Y-68511101D01*
X121282265Y-68383259D01*
X121432399Y-68612839D01*
X121630105Y-68814500D01*
X121863354Y-68973715D01*
X122123182Y-69084367D01*
X122205961Y-69101904D01*
X122428000Y-68979915D01*
X122428000Y-67437000D01*
X122408000Y-67437000D01*
X122408000Y-67183000D01*
X122428000Y-67183000D01*
X122428000Y-65640085D01*
X122205961Y-65518096D01*
X122123182Y-65535633D01*
X121863354Y-65646285D01*
X121630105Y-65805500D01*
X121432399Y-66007161D01*
X121282265Y-66236741D01*
X121213932Y-66108899D01*
X121034607Y-65890392D01*
X120816100Y-65711068D01*
X120701883Y-65650018D01*
X124376602Y-61975300D01*
X125531378Y-61975300D01*
X125568700Y-61978976D01*
X125606022Y-61975300D01*
X125606033Y-61975300D01*
X125717686Y-61964303D01*
X125860947Y-61920846D01*
X125992976Y-61850274D01*
X126108701Y-61755301D01*
X126132503Y-61726298D01*
X126688883Y-61169919D01*
X126833900Y-61288932D01*
X127083193Y-61422182D01*
X127353692Y-61504236D01*
X127635000Y-61531943D01*
X127916309Y-61504236D01*
X128186808Y-61422182D01*
X128436101Y-61288932D01*
X128654608Y-61109608D01*
X128833932Y-60891101D01*
X128905000Y-60758142D01*
X128976068Y-60891101D01*
X129155393Y-61109608D01*
X129373900Y-61288932D01*
X129623193Y-61422182D01*
X129893692Y-61504236D01*
X130175000Y-61531943D01*
X130456309Y-61504236D01*
X130726808Y-61422182D01*
X130976101Y-61288932D01*
X131194608Y-61109608D01*
X131373932Y-60891101D01*
X131445000Y-60758142D01*
X131516068Y-60891101D01*
G36*
X165171068Y-76131101D02*
G01*
X165350393Y-76349608D01*
X165568900Y-76528932D01*
X165616059Y-76554139D01*
X165620126Y-76595427D01*
X165620998Y-76604285D01*
X165664454Y-76747546D01*
X165735026Y-76879576D01*
X165799641Y-76958309D01*
X165830000Y-76995301D01*
X165858998Y-77019099D01*
X167515001Y-78675103D01*
X167515001Y-88901414D01*
X167492601Y-88867161D01*
X167294895Y-88665500D01*
X167061646Y-88506285D01*
X166801818Y-88395633D01*
X166719039Y-88378096D01*
X166497000Y-88500085D01*
X166497000Y-90043000D01*
X166517000Y-90043000D01*
X166517000Y-90297000D01*
X166497000Y-90297000D01*
X166497000Y-91839915D01*
X166719039Y-91961904D01*
X166801818Y-91944367D01*
X167061646Y-91833715D01*
X167294895Y-91674500D01*
X167492601Y-91472839D01*
X167515000Y-91438586D01*
X167515000Y-100190830D01*
X167312235Y-100357236D01*
X167142908Y-100563561D01*
X167017086Y-100798956D01*
X167005000Y-100838798D01*
X166992914Y-100798955D01*
X166867092Y-100563560D01*
X166697764Y-100357235D01*
X166491439Y-100187908D01*
X166490056Y-100187169D01*
X166484003Y-100125714D01*
X166440546Y-99982453D01*
X166369974Y-99850424D01*
X166275001Y-99734699D01*
X166246002Y-99710900D01*
X165911600Y-99376499D01*
X165911600Y-91933047D01*
X165938182Y-91944367D01*
X166020961Y-91961904D01*
X166243000Y-91839915D01*
X166243000Y-90297000D01*
X166223000Y-90297000D01*
X166223000Y-90043000D01*
X166243000Y-90043000D01*
X166243000Y-88500085D01*
X166020961Y-88378096D01*
X165938182Y-88395633D01*
X165911600Y-88406953D01*
X165911600Y-79919925D01*
X165915276Y-79882600D01*
X165911600Y-79845275D01*
X165911600Y-79845267D01*
X165900603Y-79733614D01*
X165857146Y-79590353D01*
X165786574Y-79458324D01*
X165691601Y-79342599D01*
X165662604Y-79318802D01*
X164590000Y-78246199D01*
X164590000Y-76550901D01*
X164631101Y-76528932D01*
X164849608Y-76349608D01*
X165028932Y-76131101D01*
X165100000Y-75998142D01*
X165171068Y-76131101D01*
X165171068Y-76131101D01*
G37*
X165171068Y-76131101D02*
X165350393Y-76349608D01*
X165568900Y-76528932D01*
X165616059Y-76554139D01*
X165620126Y-76595427D01*
X165620998Y-76604285D01*
X165664454Y-76747546D01*
X165735026Y-76879576D01*
X165799641Y-76958309D01*
X165830000Y-76995301D01*
X165858998Y-77019099D01*
X167515001Y-78675103D01*
X167515001Y-88901414D01*
X167492601Y-88867161D01*
X167294895Y-88665500D01*
X167061646Y-88506285D01*
X166801818Y-88395633D01*
X166719039Y-88378096D01*
X166497000Y-88500085D01*
X166497000Y-90043000D01*
X166517000Y-90043000D01*
X166517000Y-90297000D01*
X166497000Y-90297000D01*
X166497000Y-91839915D01*
X166719039Y-91961904D01*
X166801818Y-91944367D01*
X167061646Y-91833715D01*
X167294895Y-91674500D01*
X167492601Y-91472839D01*
X167515000Y-91438586D01*
X167515000Y-100190830D01*
X167312235Y-100357236D01*
X167142908Y-100563561D01*
X167017086Y-100798956D01*
X167005000Y-100838798D01*
X166992914Y-100798955D01*
X166867092Y-100563560D01*
X166697764Y-100357235D01*
X166491439Y-100187908D01*
X166490056Y-100187169D01*
X166484003Y-100125714D01*
X166440546Y-99982453D01*
X166369974Y-99850424D01*
X166275001Y-99734699D01*
X166246002Y-99710900D01*
X165911600Y-99376499D01*
X165911600Y-91933047D01*
X165938182Y-91944367D01*
X166020961Y-91961904D01*
X166243000Y-91839915D01*
X166243000Y-90297000D01*
X166223000Y-90297000D01*
X166223000Y-90043000D01*
X166243000Y-90043000D01*
X166243000Y-88500085D01*
X166020961Y-88378096D01*
X165938182Y-88395633D01*
X165911600Y-88406953D01*
X165911600Y-79919925D01*
X165915276Y-79882600D01*
X165911600Y-79845275D01*
X165911600Y-79845267D01*
X165900603Y-79733614D01*
X165857146Y-79590353D01*
X165786574Y-79458324D01*
X165691601Y-79342599D01*
X165662604Y-79318802D01*
X164590000Y-78246199D01*
X164590000Y-76550901D01*
X164631101Y-76528932D01*
X164849608Y-76349608D01*
X165028932Y-76131101D01*
X165100000Y-75998142D01*
X165171068Y-76131101D01*
G36*
X182372000Y-85598000D02*
G01*
X182392000Y-85598000D01*
X182392000Y-85852000D01*
X182372000Y-85852000D01*
X182372000Y-85872000D01*
X182118000Y-85872000D01*
X182118000Y-85852000D01*
X182098000Y-85852000D01*
X182098000Y-85598000D01*
X182118000Y-85598000D01*
X182118000Y-85578000D01*
X182372000Y-85578000D01*
X182372000Y-85598000D01*
X182372000Y-85598000D01*
G37*
X182372000Y-85598000D02*
X182392000Y-85598000D01*
X182392000Y-85852000D01*
X182372000Y-85852000D01*
X182372000Y-85872000D01*
X182118000Y-85872000D01*
X182118000Y-85852000D01*
X182098000Y-85852000D01*
X182098000Y-85598000D01*
X182118000Y-85598000D01*
X182118000Y-85578000D01*
X182372000Y-85578000D01*
X182372000Y-85598000D01*
G36*
X113496928Y-68510000D02*
G01*
X113509188Y-68634482D01*
X113545498Y-68754180D01*
X113604463Y-68864494D01*
X113683815Y-68961185D01*
X113780506Y-69040537D01*
X113890820Y-69099502D01*
X114010518Y-69135812D01*
X114135000Y-69148072D01*
X114175000Y-69148072D01*
X114175000Y-69275397D01*
X113008946Y-70441452D01*
X112996671Y-70418486D01*
X112752702Y-70346903D01*
X111939605Y-71160000D01*
X111953748Y-71174143D01*
X111774143Y-71353748D01*
X111760000Y-71339605D01*
X111745858Y-71353748D01*
X111566253Y-71174143D01*
X111580395Y-71160000D01*
X110767298Y-70346903D01*
X110523329Y-70418486D01*
X110402429Y-70673996D01*
X110333700Y-70948184D01*
X110319783Y-71230512D01*
X110361213Y-71510130D01*
X110456397Y-71776292D01*
X110490655Y-71840385D01*
X110379824Y-71899626D01*
X110264099Y-71994599D01*
X110240296Y-72023603D01*
X110123598Y-72140301D01*
X110094600Y-72164099D01*
X110070802Y-72193097D01*
X110070801Y-72193098D01*
X109999626Y-72279824D01*
X109929054Y-72411854D01*
X109902361Y-72499853D01*
X109885598Y-72555114D01*
X109883282Y-72578633D01*
X109870924Y-72704100D01*
X109874601Y-72741432D01*
X109874600Y-75975970D01*
X109805202Y-75989774D01*
X109616844Y-76067795D01*
X109464100Y-76169855D01*
X109464100Y-71201201D01*
X110498003Y-70167298D01*
X110946903Y-70167298D01*
X111760000Y-70980395D01*
X112573097Y-70167298D01*
X112501514Y-69923329D01*
X112246004Y-69802429D01*
X111971816Y-69733700D01*
X111689488Y-69719783D01*
X111409870Y-69761213D01*
X111143708Y-69856397D01*
X111018486Y-69923329D01*
X110946903Y-70167298D01*
X110498003Y-70167298D01*
X113496928Y-67168373D01*
X113496928Y-68510000D01*
X113496928Y-68510000D01*
G37*
X113496928Y-68510000D02*
X113509188Y-68634482D01*
X113545498Y-68754180D01*
X113604463Y-68864494D01*
X113683815Y-68961185D01*
X113780506Y-69040537D01*
X113890820Y-69099502D01*
X114010518Y-69135812D01*
X114135000Y-69148072D01*
X114175000Y-69148072D01*
X114175000Y-69275397D01*
X113008946Y-70441452D01*
X112996671Y-70418486D01*
X112752702Y-70346903D01*
X111939605Y-71160000D01*
X111953748Y-71174143D01*
X111774143Y-71353748D01*
X111760000Y-71339605D01*
X111745858Y-71353748D01*
X111566253Y-71174143D01*
X111580395Y-71160000D01*
X110767298Y-70346903D01*
X110523329Y-70418486D01*
X110402429Y-70673996D01*
X110333700Y-70948184D01*
X110319783Y-71230512D01*
X110361213Y-71510130D01*
X110456397Y-71776292D01*
X110490655Y-71840385D01*
X110379824Y-71899626D01*
X110264099Y-71994599D01*
X110240296Y-72023603D01*
X110123598Y-72140301D01*
X110094600Y-72164099D01*
X110070802Y-72193097D01*
X110070801Y-72193098D01*
X109999626Y-72279824D01*
X109929054Y-72411854D01*
X109902361Y-72499853D01*
X109885598Y-72555114D01*
X109883282Y-72578633D01*
X109870924Y-72704100D01*
X109874601Y-72741432D01*
X109874600Y-75975970D01*
X109805202Y-75989774D01*
X109616844Y-76067795D01*
X109464100Y-76169855D01*
X109464100Y-71201201D01*
X110498003Y-70167298D01*
X110946903Y-70167298D01*
X111760000Y-70980395D01*
X112573097Y-70167298D01*
X112501514Y-69923329D01*
X112246004Y-69802429D01*
X111971816Y-69733700D01*
X111689488Y-69719783D01*
X111409870Y-69761213D01*
X111143708Y-69856397D01*
X111018486Y-69923329D01*
X110946903Y-70167298D01*
X110498003Y-70167298D01*
X113496928Y-67168373D01*
X113496928Y-68510000D01*
G36*
X140825764Y-59008692D02*
G01*
X140805000Y-59219509D01*
X140805000Y-59326810D01*
X139315163Y-60816647D01*
X139206335Y-60795000D01*
X138923665Y-60795000D01*
X138646426Y-60850147D01*
X138385273Y-60958320D01*
X138150241Y-61115363D01*
X137950363Y-61315241D01*
X137793320Y-61550273D01*
X137685147Y-61811426D01*
X137630000Y-62088665D01*
X137630000Y-62371335D01*
X137651647Y-62480163D01*
X134384771Y-65747039D01*
X134353392Y-65772791D01*
X134327640Y-65804170D01*
X134327639Y-65804171D01*
X134312980Y-65822033D01*
X134250609Y-65898033D01*
X134231553Y-65933685D01*
X134174233Y-66040921D01*
X134127202Y-66195962D01*
X134111321Y-66357200D01*
X134115301Y-66397608D01*
X134115301Y-66599056D01*
X134097650Y-66505486D01*
X133992166Y-66243517D01*
X133837601Y-66007161D01*
X133639895Y-65805500D01*
X133406646Y-65646285D01*
X133146818Y-65535633D01*
X133064039Y-65518096D01*
X132842000Y-65640085D01*
X132842000Y-67183000D01*
X132862000Y-67183000D01*
X132862000Y-67437000D01*
X132842000Y-67437000D01*
X132842000Y-68979915D01*
X133064039Y-69101904D01*
X133146818Y-69084367D01*
X133406646Y-68973715D01*
X133639895Y-68814500D01*
X133837601Y-68612839D01*
X133992166Y-68376483D01*
X134097650Y-68114514D01*
X134115301Y-68020945D01*
X134115300Y-71413710D01*
X132796971Y-72732039D01*
X132765592Y-72757791D01*
X132739840Y-72789170D01*
X132739839Y-72789171D01*
X132737435Y-72792100D01*
X132662809Y-72883033D01*
X132631779Y-72941086D01*
X132586433Y-73025921D01*
X132539402Y-73180962D01*
X132523521Y-73342200D01*
X132524405Y-73351170D01*
X132330392Y-73510393D01*
X132151068Y-73728900D01*
X132080000Y-73861858D01*
X132008932Y-73728899D01*
X131829607Y-73510392D01*
X131611100Y-73331068D01*
X131361807Y-73197818D01*
X131091308Y-73115764D01*
X130810000Y-73088057D01*
X130528691Y-73115764D01*
X130258192Y-73197818D01*
X130008899Y-73331068D01*
X129790392Y-73510393D01*
X129611068Y-73728900D01*
X129540000Y-73861858D01*
X129468932Y-73728899D01*
X129289607Y-73510392D01*
X129071100Y-73331068D01*
X128821807Y-73197818D01*
X128611714Y-73134088D01*
X129416004Y-72329798D01*
X129445001Y-72306001D01*
X129539974Y-72190276D01*
X129610546Y-72058247D01*
X129654003Y-71914986D01*
X129665000Y-71803333D01*
X129665000Y-71803324D01*
X129668676Y-71766001D01*
X129665000Y-71728678D01*
X129665000Y-69054864D01*
X129893692Y-69124236D01*
X130175000Y-69151943D01*
X130456309Y-69124236D01*
X130726808Y-69042182D01*
X130976101Y-68908932D01*
X131194608Y-68729608D01*
X131373932Y-68511101D01*
X131442265Y-68383259D01*
X131592399Y-68612839D01*
X131790105Y-68814500D01*
X132023354Y-68973715D01*
X132283182Y-69084367D01*
X132365961Y-69101904D01*
X132588000Y-68979915D01*
X132588000Y-67437000D01*
X132568000Y-67437000D01*
X132568000Y-67183000D01*
X132588000Y-67183000D01*
X132588000Y-65640085D01*
X132365961Y-65518096D01*
X132283182Y-65535633D01*
X132023354Y-65646285D01*
X131790105Y-65805500D01*
X131592399Y-66007161D01*
X131442265Y-66236741D01*
X131373932Y-66108899D01*
X131194607Y-65890392D01*
X130976100Y-65711068D01*
X130726807Y-65577818D01*
X130456308Y-65495764D01*
X130175000Y-65468057D01*
X129893691Y-65495764D01*
X129665000Y-65565136D01*
X129665000Y-65340101D01*
X133226003Y-61779099D01*
X133255001Y-61755301D01*
X133349974Y-61639576D01*
X133420546Y-61507547D01*
X133464003Y-61364286D01*
X133468942Y-61314139D01*
X133516101Y-61288932D01*
X133734608Y-61109608D01*
X133913932Y-60891101D01*
X134047182Y-60641808D01*
X134129236Y-60371309D01*
X134150000Y-60160491D01*
X134150000Y-59219508D01*
X134129236Y-59008691D01*
X134103758Y-58924700D01*
X140851242Y-58924700D01*
X140825764Y-59008692D01*
X140825764Y-59008692D01*
G37*
X140825764Y-59008692D02*
X140805000Y-59219509D01*
X140805000Y-59326810D01*
X139315163Y-60816647D01*
X139206335Y-60795000D01*
X138923665Y-60795000D01*
X138646426Y-60850147D01*
X138385273Y-60958320D01*
X138150241Y-61115363D01*
X137950363Y-61315241D01*
X137793320Y-61550273D01*
X137685147Y-61811426D01*
X137630000Y-62088665D01*
X137630000Y-62371335D01*
X137651647Y-62480163D01*
X134384771Y-65747039D01*
X134353392Y-65772791D01*
X134327640Y-65804170D01*
X134327639Y-65804171D01*
X134312980Y-65822033D01*
X134250609Y-65898033D01*
X134231553Y-65933685D01*
X134174233Y-66040921D01*
X134127202Y-66195962D01*
X134111321Y-66357200D01*
X134115301Y-66397608D01*
X134115301Y-66599056D01*
X134097650Y-66505486D01*
X133992166Y-66243517D01*
X133837601Y-66007161D01*
X133639895Y-65805500D01*
X133406646Y-65646285D01*
X133146818Y-65535633D01*
X133064039Y-65518096D01*
X132842000Y-65640085D01*
X132842000Y-67183000D01*
X132862000Y-67183000D01*
X132862000Y-67437000D01*
X132842000Y-67437000D01*
X132842000Y-68979915D01*
X133064039Y-69101904D01*
X133146818Y-69084367D01*
X133406646Y-68973715D01*
X133639895Y-68814500D01*
X133837601Y-68612839D01*
X133992166Y-68376483D01*
X134097650Y-68114514D01*
X134115301Y-68020945D01*
X134115300Y-71413710D01*
X132796971Y-72732039D01*
X132765592Y-72757791D01*
X132739840Y-72789170D01*
X132739839Y-72789171D01*
X132737435Y-72792100D01*
X132662809Y-72883033D01*
X132631779Y-72941086D01*
X132586433Y-73025921D01*
X132539402Y-73180962D01*
X132523521Y-73342200D01*
X132524405Y-73351170D01*
X132330392Y-73510393D01*
X132151068Y-73728900D01*
X132080000Y-73861858D01*
X132008932Y-73728899D01*
X131829607Y-73510392D01*
X131611100Y-73331068D01*
X131361807Y-73197818D01*
X131091308Y-73115764D01*
X130810000Y-73088057D01*
X130528691Y-73115764D01*
X130258192Y-73197818D01*
X130008899Y-73331068D01*
X129790392Y-73510393D01*
X129611068Y-73728900D01*
X129540000Y-73861858D01*
X129468932Y-73728899D01*
X129289607Y-73510392D01*
X129071100Y-73331068D01*
X128821807Y-73197818D01*
X128611714Y-73134088D01*
X129416004Y-72329798D01*
X129445001Y-72306001D01*
X129539974Y-72190276D01*
X129610546Y-72058247D01*
X129654003Y-71914986D01*
X129665000Y-71803333D01*
X129665000Y-71803324D01*
X129668676Y-71766001D01*
X129665000Y-71728678D01*
X129665000Y-69054864D01*
X129893692Y-69124236D01*
X130175000Y-69151943D01*
X130456309Y-69124236D01*
X130726808Y-69042182D01*
X130976101Y-68908932D01*
X131194608Y-68729608D01*
X131373932Y-68511101D01*
X131442265Y-68383259D01*
X131592399Y-68612839D01*
X131790105Y-68814500D01*
X132023354Y-68973715D01*
X132283182Y-69084367D01*
X132365961Y-69101904D01*
X132588000Y-68979915D01*
X132588000Y-67437000D01*
X132568000Y-67437000D01*
X132568000Y-67183000D01*
X132588000Y-67183000D01*
X132588000Y-65640085D01*
X132365961Y-65518096D01*
X132283182Y-65535633D01*
X132023354Y-65646285D01*
X131790105Y-65805500D01*
X131592399Y-66007161D01*
X131442265Y-66236741D01*
X131373932Y-66108899D01*
X131194607Y-65890392D01*
X130976100Y-65711068D01*
X130726807Y-65577818D01*
X130456308Y-65495764D01*
X130175000Y-65468057D01*
X129893691Y-65495764D01*
X129665000Y-65565136D01*
X129665000Y-65340101D01*
X133226003Y-61779099D01*
X133255001Y-61755301D01*
X133349974Y-61639576D01*
X133420546Y-61507547D01*
X133464003Y-61364286D01*
X133468942Y-61314139D01*
X133516101Y-61288932D01*
X133734608Y-61109608D01*
X133913932Y-60891101D01*
X134047182Y-60641808D01*
X134129236Y-60371309D01*
X134150000Y-60160491D01*
X134150000Y-59219508D01*
X134129236Y-59008691D01*
X134103758Y-58924700D01*
X140851242Y-58924700D01*
X140825764Y-59008692D01*
G36*
X143581068Y-60891101D02*
G01*
X143760393Y-61109608D01*
X143788128Y-61132369D01*
X141729003Y-63191496D01*
X141699999Y-63215299D01*
X141661097Y-63262702D01*
X141605026Y-63331024D01*
X141576488Y-63384415D01*
X141534454Y-63463054D01*
X141490997Y-63606315D01*
X141480000Y-63717968D01*
X141480000Y-63717978D01*
X141476324Y-63755300D01*
X141480000Y-63792623D01*
X141480001Y-65471928D01*
X141440000Y-65471928D01*
X141315518Y-65484188D01*
X141195820Y-65520498D01*
X141085506Y-65579463D01*
X140988815Y-65658815D01*
X140909463Y-65755506D01*
X140850498Y-65865820D01*
X140814188Y-65985518D01*
X140801928Y-66110000D01*
X140801928Y-66943369D01*
X135713014Y-72032285D01*
X135741106Y-71939676D01*
X135748398Y-71915639D01*
X135757207Y-71826201D01*
X135760300Y-71794798D01*
X135760300Y-71794792D01*
X135764278Y-71754401D01*
X135760300Y-71714010D01*
X135760300Y-66697890D01*
X136735488Y-65722702D01*
X138251903Y-65722702D01*
X138323486Y-65966671D01*
X138578996Y-66087571D01*
X138853184Y-66156300D01*
X139135512Y-66170217D01*
X139415130Y-66128787D01*
X139681292Y-66033603D01*
X139806514Y-65966671D01*
X139878097Y-65722702D01*
X139065000Y-64909605D01*
X138251903Y-65722702D01*
X136735488Y-65722702D01*
X137629028Y-64829162D01*
X137666213Y-65080130D01*
X137761397Y-65346292D01*
X137828329Y-65471514D01*
X138072298Y-65543097D01*
X138885395Y-64730000D01*
X139244605Y-64730000D01*
X140057702Y-65543097D01*
X140301671Y-65471514D01*
X140422571Y-65216004D01*
X140491300Y-64941816D01*
X140505217Y-64659488D01*
X140463787Y-64379870D01*
X140368603Y-64113708D01*
X140301671Y-63988486D01*
X140057702Y-63916903D01*
X139244605Y-64730000D01*
X138885395Y-64730000D01*
X138871253Y-64715858D01*
X139050858Y-64536253D01*
X139065000Y-64550395D01*
X139878097Y-63737298D01*
X139806514Y-63493329D01*
X139777659Y-63479676D01*
X139979759Y-63344637D01*
X140179637Y-63144759D01*
X140336680Y-62909727D01*
X140444853Y-62648574D01*
X140500000Y-62371335D01*
X140500000Y-62088665D01*
X140478353Y-61979837D01*
X141290800Y-61167390D01*
X141438900Y-61288932D01*
X141688193Y-61422182D01*
X141958692Y-61504236D01*
X142240000Y-61531943D01*
X142521309Y-61504236D01*
X142791808Y-61422182D01*
X143041101Y-61288932D01*
X143259608Y-61109608D01*
X143438932Y-60891101D01*
X143510000Y-60758142D01*
X143581068Y-60891101D01*
X143581068Y-60891101D01*
G37*
X143581068Y-60891101D02*
X143760393Y-61109608D01*
X143788128Y-61132369D01*
X141729003Y-63191496D01*
X141699999Y-63215299D01*
X141661097Y-63262702D01*
X141605026Y-63331024D01*
X141576488Y-63384415D01*
X141534454Y-63463054D01*
X141490997Y-63606315D01*
X141480000Y-63717968D01*
X141480000Y-63717978D01*
X141476324Y-63755300D01*
X141480000Y-63792623D01*
X141480001Y-65471928D01*
X141440000Y-65471928D01*
X141315518Y-65484188D01*
X141195820Y-65520498D01*
X141085506Y-65579463D01*
X140988815Y-65658815D01*
X140909463Y-65755506D01*
X140850498Y-65865820D01*
X140814188Y-65985518D01*
X140801928Y-66110000D01*
X140801928Y-66943369D01*
X135713014Y-72032285D01*
X135741106Y-71939676D01*
X135748398Y-71915639D01*
X135757207Y-71826201D01*
X135760300Y-71794798D01*
X135760300Y-71794792D01*
X135764278Y-71754401D01*
X135760300Y-71714010D01*
X135760300Y-66697890D01*
X136735488Y-65722702D01*
X138251903Y-65722702D01*
X138323486Y-65966671D01*
X138578996Y-66087571D01*
X138853184Y-66156300D01*
X139135512Y-66170217D01*
X139415130Y-66128787D01*
X139681292Y-66033603D01*
X139806514Y-65966671D01*
X139878097Y-65722702D01*
X139065000Y-64909605D01*
X138251903Y-65722702D01*
X136735488Y-65722702D01*
X137629028Y-64829162D01*
X137666213Y-65080130D01*
X137761397Y-65346292D01*
X137828329Y-65471514D01*
X138072298Y-65543097D01*
X138885395Y-64730000D01*
X139244605Y-64730000D01*
X140057702Y-65543097D01*
X140301671Y-65471514D01*
X140422571Y-65216004D01*
X140491300Y-64941816D01*
X140505217Y-64659488D01*
X140463787Y-64379870D01*
X140368603Y-64113708D01*
X140301671Y-63988486D01*
X140057702Y-63916903D01*
X139244605Y-64730000D01*
X138885395Y-64730000D01*
X138871253Y-64715858D01*
X139050858Y-64536253D01*
X139065000Y-64550395D01*
X139878097Y-63737298D01*
X139806514Y-63493329D01*
X139777659Y-63479676D01*
X139979759Y-63344637D01*
X140179637Y-63144759D01*
X140336680Y-62909727D01*
X140444853Y-62648574D01*
X140500000Y-62371335D01*
X140500000Y-62088665D01*
X140478353Y-61979837D01*
X141290800Y-61167390D01*
X141438900Y-61288932D01*
X141688193Y-61422182D01*
X141958692Y-61504236D01*
X142240000Y-61531943D01*
X142521309Y-61504236D01*
X142791808Y-61422182D01*
X143041101Y-61288932D01*
X143259608Y-61109608D01*
X143438932Y-60891101D01*
X143510000Y-60758142D01*
X143581068Y-60891101D01*
G36*
X157607000Y-67183000D02*
G01*
X157627000Y-67183000D01*
X157627000Y-67437000D01*
X157607000Y-67437000D01*
X157607000Y-67457000D01*
X157353000Y-67457000D01*
X157353000Y-67437000D01*
X157333000Y-67437000D01*
X157333000Y-67183000D01*
X157353000Y-67183000D01*
X157353000Y-67163000D01*
X157607000Y-67163000D01*
X157607000Y-67183000D01*
X157607000Y-67183000D01*
G37*
X157607000Y-67183000D02*
X157627000Y-67183000D01*
X157627000Y-67437000D01*
X157607000Y-67437000D01*
X157607000Y-67457000D01*
X157353000Y-67457000D01*
X157353000Y-67437000D01*
X157333000Y-67437000D01*
X157333000Y-67183000D01*
X157353000Y-67183000D01*
X157353000Y-67163000D01*
X157607000Y-67163000D01*
X157607000Y-67183000D01*
G36*
X121356068Y-60891101D02*
G01*
X121535393Y-61109608D01*
X121753900Y-61288932D01*
X122003193Y-61422182D01*
X122273692Y-61504236D01*
X122555000Y-61531943D01*
X122682958Y-61519340D01*
X118398055Y-65804244D01*
X118166646Y-65646285D01*
X117906818Y-65535633D01*
X117824039Y-65518096D01*
X117602000Y-65640085D01*
X117602000Y-67183000D01*
X117622000Y-67183000D01*
X117622000Y-67437000D01*
X117602000Y-67437000D01*
X117602000Y-67457000D01*
X117348000Y-67457000D01*
X117348000Y-67437000D01*
X117328000Y-67437000D01*
X117328000Y-67183000D01*
X117348000Y-67183000D01*
X117348000Y-65640085D01*
X117125961Y-65518096D01*
X117086800Y-65526392D01*
X117086800Y-65218301D01*
X120526008Y-61779095D01*
X120555001Y-61755301D01*
X120578795Y-61726308D01*
X120578799Y-61726304D01*
X120649973Y-61639577D01*
X120649974Y-61639576D01*
X120720546Y-61507547D01*
X120764003Y-61364286D01*
X120768942Y-61314139D01*
X120816101Y-61288932D01*
X121034608Y-61109608D01*
X121213932Y-60891101D01*
X121285000Y-60758142D01*
X121356068Y-60891101D01*
X121356068Y-60891101D01*
G37*
X121356068Y-60891101D02*
X121535393Y-61109608D01*
X121753900Y-61288932D01*
X122003193Y-61422182D01*
X122273692Y-61504236D01*
X122555000Y-61531943D01*
X122682958Y-61519340D01*
X118398055Y-65804244D01*
X118166646Y-65646285D01*
X117906818Y-65535633D01*
X117824039Y-65518096D01*
X117602000Y-65640085D01*
X117602000Y-67183000D01*
X117622000Y-67183000D01*
X117622000Y-67437000D01*
X117602000Y-67437000D01*
X117602000Y-67457000D01*
X117348000Y-67457000D01*
X117348000Y-67437000D01*
X117328000Y-67437000D01*
X117328000Y-67183000D01*
X117348000Y-67183000D01*
X117348000Y-65640085D01*
X117125961Y-65518096D01*
X117086800Y-65526392D01*
X117086800Y-65218301D01*
X120526008Y-61779095D01*
X120555001Y-61755301D01*
X120578795Y-61726308D01*
X120578799Y-61726304D01*
X120649973Y-61639577D01*
X120649974Y-61639576D01*
X120720546Y-61507547D01*
X120764003Y-61364286D01*
X120768942Y-61314139D01*
X120816101Y-61288932D01*
X121034608Y-61109608D01*
X121213932Y-60891101D01*
X121285000Y-60758142D01*
X121356068Y-60891101D01*
G36*
X166203899Y-58091068D02*
G01*
X165985392Y-58270393D01*
X165806068Y-58488900D01*
X165672818Y-58738193D01*
X165590764Y-59008692D01*
X165570000Y-59219509D01*
X165570000Y-60160492D01*
X165590764Y-60371309D01*
X165672818Y-60641808D01*
X165806068Y-60891101D01*
X165985393Y-61109608D01*
X166203900Y-61288932D01*
X166453193Y-61422182D01*
X166723692Y-61504236D01*
X167005000Y-61531943D01*
X167286309Y-61504236D01*
X167556808Y-61422182D01*
X167806101Y-61288932D01*
X168024608Y-61109608D01*
X168203932Y-60891101D01*
X168275000Y-60758142D01*
X168346068Y-60891101D01*
X168485337Y-61060800D01*
X168448033Y-61060800D01*
X168410700Y-61057123D01*
X168373367Y-61060800D01*
X168261714Y-61071797D01*
X168118453Y-61115254D01*
X167986424Y-61185826D01*
X167870699Y-61280799D01*
X167846901Y-61309797D01*
X165102040Y-64054658D01*
X165066671Y-63988486D01*
X164822702Y-63916903D01*
X164009605Y-64730000D01*
X164023748Y-64744143D01*
X163844143Y-64923748D01*
X163830000Y-64909605D01*
X163815858Y-64923748D01*
X163636253Y-64744143D01*
X163650395Y-64730000D01*
X162837298Y-63916903D01*
X162593329Y-63988486D01*
X162472429Y-64243996D01*
X162403700Y-64518184D01*
X162389783Y-64800512D01*
X162431213Y-65080130D01*
X162443004Y-65113100D01*
X161488455Y-65113100D01*
X161424947Y-65079154D01*
X161281686Y-65035697D01*
X161170033Y-65024700D01*
X161170022Y-65024700D01*
X161132700Y-65021024D01*
X161095378Y-65024700D01*
X154977333Y-65024700D01*
X154940000Y-65021023D01*
X154902667Y-65024700D01*
X154791014Y-65035697D01*
X154647753Y-65079154D01*
X154515724Y-65149726D01*
X154399999Y-65244699D01*
X154305026Y-65360424D01*
X154234454Y-65492453D01*
X154190997Y-65635714D01*
X154186058Y-65685861D01*
X154138899Y-65711068D01*
X153920392Y-65890393D01*
X153741068Y-66108900D01*
X153670000Y-66241858D01*
X153598932Y-66108899D01*
X153419607Y-65890392D01*
X153201100Y-65711068D01*
X152951807Y-65577818D01*
X152681308Y-65495764D01*
X152400000Y-65468057D01*
X152118691Y-65495764D01*
X151848192Y-65577818D01*
X151598899Y-65711068D01*
X151380392Y-65890393D01*
X151201068Y-66108900D01*
X151130000Y-66241858D01*
X151058932Y-66108899D01*
X150879607Y-65890392D01*
X150866091Y-65879299D01*
X152953026Y-63792364D01*
X152984409Y-63766609D01*
X153087192Y-63641367D01*
X153163567Y-63498480D01*
X153210598Y-63343438D01*
X153222500Y-63222598D01*
X153222500Y-63222589D01*
X153226478Y-63182201D01*
X153222500Y-63141813D01*
X153222500Y-63052500D01*
X162653718Y-63052500D01*
X162715363Y-63144759D01*
X162915241Y-63344637D01*
X163115869Y-63478692D01*
X163088486Y-63493329D01*
X163016903Y-63737298D01*
X163830000Y-64550395D01*
X164643097Y-63737298D01*
X164571514Y-63493329D01*
X164542659Y-63479676D01*
X164744759Y-63344637D01*
X164944637Y-63144759D01*
X165101680Y-62909727D01*
X165209853Y-62648574D01*
X165265000Y-62371335D01*
X165265000Y-62088665D01*
X165209853Y-61811426D01*
X165101680Y-61550273D01*
X164944637Y-61315241D01*
X164744759Y-61115363D01*
X164509727Y-60958320D01*
X164248574Y-60850147D01*
X163971335Y-60795000D01*
X163688665Y-60795000D01*
X163411426Y-60850147D01*
X163150273Y-60958320D01*
X162915241Y-61115363D01*
X162715363Y-61315241D01*
X162653718Y-61407500D01*
X158059276Y-61407500D01*
X158281101Y-61288932D01*
X158499608Y-61109608D01*
X158678932Y-60891101D01*
X158812182Y-60641808D01*
X158894236Y-60371309D01*
X158915000Y-60160491D01*
X158915000Y-59219508D01*
X158894236Y-59008691D01*
X158812182Y-58738192D01*
X158678932Y-58488899D01*
X158499607Y-58270392D01*
X158281100Y-58091068D01*
X158144587Y-58018100D01*
X166340412Y-58018100D01*
X166203899Y-58091068D01*
X166203899Y-58091068D01*
G37*
X166203899Y-58091068D02*
X165985392Y-58270393D01*
X165806068Y-58488900D01*
X165672818Y-58738193D01*
X165590764Y-59008692D01*
X165570000Y-59219509D01*
X165570000Y-60160492D01*
X165590764Y-60371309D01*
X165672818Y-60641808D01*
X165806068Y-60891101D01*
X165985393Y-61109608D01*
X166203900Y-61288932D01*
X166453193Y-61422182D01*
X166723692Y-61504236D01*
X167005000Y-61531943D01*
X167286309Y-61504236D01*
X167556808Y-61422182D01*
X167806101Y-61288932D01*
X168024608Y-61109608D01*
X168203932Y-60891101D01*
X168275000Y-60758142D01*
X168346068Y-60891101D01*
X168485337Y-61060800D01*
X168448033Y-61060800D01*
X168410700Y-61057123D01*
X168373367Y-61060800D01*
X168261714Y-61071797D01*
X168118453Y-61115254D01*
X167986424Y-61185826D01*
X167870699Y-61280799D01*
X167846901Y-61309797D01*
X165102040Y-64054658D01*
X165066671Y-63988486D01*
X164822702Y-63916903D01*
X164009605Y-64730000D01*
X164023748Y-64744143D01*
X163844143Y-64923748D01*
X163830000Y-64909605D01*
X163815858Y-64923748D01*
X163636253Y-64744143D01*
X163650395Y-64730000D01*
X162837298Y-63916903D01*
X162593329Y-63988486D01*
X162472429Y-64243996D01*
X162403700Y-64518184D01*
X162389783Y-64800512D01*
X162431213Y-65080130D01*
X162443004Y-65113100D01*
X161488455Y-65113100D01*
X161424947Y-65079154D01*
X161281686Y-65035697D01*
X161170033Y-65024700D01*
X161170022Y-65024700D01*
X161132700Y-65021024D01*
X161095378Y-65024700D01*
X154977333Y-65024700D01*
X154940000Y-65021023D01*
X154902667Y-65024700D01*
X154791014Y-65035697D01*
X154647753Y-65079154D01*
X154515724Y-65149726D01*
X154399999Y-65244699D01*
X154305026Y-65360424D01*
X154234454Y-65492453D01*
X154190997Y-65635714D01*
X154186058Y-65685861D01*
X154138899Y-65711068D01*
X153920392Y-65890393D01*
X153741068Y-66108900D01*
X153670000Y-66241858D01*
X153598932Y-66108899D01*
X153419607Y-65890392D01*
X153201100Y-65711068D01*
X152951807Y-65577818D01*
X152681308Y-65495764D01*
X152400000Y-65468057D01*
X152118691Y-65495764D01*
X151848192Y-65577818D01*
X151598899Y-65711068D01*
X151380392Y-65890393D01*
X151201068Y-66108900D01*
X151130000Y-66241858D01*
X151058932Y-66108899D01*
X150879607Y-65890392D01*
X150866091Y-65879299D01*
X152953026Y-63792364D01*
X152984409Y-63766609D01*
X153087192Y-63641367D01*
X153163567Y-63498480D01*
X153210598Y-63343438D01*
X153222500Y-63222598D01*
X153222500Y-63222589D01*
X153226478Y-63182201D01*
X153222500Y-63141813D01*
X153222500Y-63052500D01*
X162653718Y-63052500D01*
X162715363Y-63144759D01*
X162915241Y-63344637D01*
X163115869Y-63478692D01*
X163088486Y-63493329D01*
X163016903Y-63737298D01*
X163830000Y-64550395D01*
X164643097Y-63737298D01*
X164571514Y-63493329D01*
X164542659Y-63479676D01*
X164744759Y-63344637D01*
X164944637Y-63144759D01*
X165101680Y-62909727D01*
X165209853Y-62648574D01*
X165265000Y-62371335D01*
X165265000Y-62088665D01*
X165209853Y-61811426D01*
X165101680Y-61550273D01*
X164944637Y-61315241D01*
X164744759Y-61115363D01*
X164509727Y-60958320D01*
X164248574Y-60850147D01*
X163971335Y-60795000D01*
X163688665Y-60795000D01*
X163411426Y-60850147D01*
X163150273Y-60958320D01*
X162915241Y-61115363D01*
X162715363Y-61315241D01*
X162653718Y-61407500D01*
X158059276Y-61407500D01*
X158281101Y-61288932D01*
X158499608Y-61109608D01*
X158678932Y-60891101D01*
X158812182Y-60641808D01*
X158894236Y-60371309D01*
X158915000Y-60160491D01*
X158915000Y-59219508D01*
X158894236Y-59008691D01*
X158812182Y-58738192D01*
X158678932Y-58488899D01*
X158499607Y-58270392D01*
X158281100Y-58091068D01*
X158144587Y-58018100D01*
X166340412Y-58018100D01*
X166203899Y-58091068D01*
M02*
