G04 #@! TF.GenerationSoftware,KiCad,Pcbnew,(5.1.4)-1*
G04 #@! TF.CreationDate,2021-09-17T15:23:51+03:00*
G04 #@! TF.ProjectId,TTY,5454592e-6b69-4636-9164-5f7063625858,rev?*
G04 #@! TF.SameCoordinates,Original*
G04 #@! TF.FileFunction,Legend,Top*
G04 #@! TF.FilePolarity,Positive*
%FSLAX46Y46*%
G04 Gerber Fmt 4.6, Leading zero omitted, Abs format (unit mm)*
G04 Created by KiCad (PCBNEW (5.1.4)-1) date 2021-09-17 15:23:51*
%MOMM*%
%LPD*%
G04 APERTURE LIST*
%ADD10C,0.150000*%
%ADD11C,0.120000*%
G04 APERTURE END LIST*
D10*
X147137380Y-133675238D02*
X146661190Y-134008571D01*
X147137380Y-134246666D02*
X146137380Y-134246666D01*
X146137380Y-133865714D01*
X146185000Y-133770476D01*
X146232619Y-133722857D01*
X146327857Y-133675238D01*
X146470714Y-133675238D01*
X146565952Y-133722857D01*
X146613571Y-133770476D01*
X146661190Y-133865714D01*
X146661190Y-134246666D01*
X147089761Y-133294285D02*
X147137380Y-133151428D01*
X147137380Y-132913333D01*
X147089761Y-132818095D01*
X147042142Y-132770476D01*
X146946904Y-132722857D01*
X146851666Y-132722857D01*
X146756428Y-132770476D01*
X146708809Y-132818095D01*
X146661190Y-132913333D01*
X146613571Y-133103809D01*
X146565952Y-133199047D01*
X146518333Y-133246666D01*
X146423095Y-133294285D01*
X146327857Y-133294285D01*
X146232619Y-133246666D01*
X146185000Y-133199047D01*
X146137380Y-133103809D01*
X146137380Y-132865714D01*
X146185000Y-132722857D01*
X146232619Y-132341904D02*
X146185000Y-132294285D01*
X146137380Y-132199047D01*
X146137380Y-131960952D01*
X146185000Y-131865714D01*
X146232619Y-131818095D01*
X146327857Y-131770476D01*
X146423095Y-131770476D01*
X146565952Y-131818095D01*
X147137380Y-132389523D01*
X147137380Y-131770476D01*
X146137380Y-131437142D02*
X146137380Y-130818095D01*
X146518333Y-131151428D01*
X146518333Y-131008571D01*
X146565952Y-130913333D01*
X146613571Y-130865714D01*
X146708809Y-130818095D01*
X146946904Y-130818095D01*
X147042142Y-130865714D01*
X147089761Y-130913333D01*
X147137380Y-131008571D01*
X147137380Y-131294285D01*
X147089761Y-131389523D01*
X147042142Y-131437142D01*
X146232619Y-130437142D02*
X146185000Y-130389523D01*
X146137380Y-130294285D01*
X146137380Y-130056190D01*
X146185000Y-129960952D01*
X146232619Y-129913333D01*
X146327857Y-129865714D01*
X146423095Y-129865714D01*
X146565952Y-129913333D01*
X147137380Y-130484761D01*
X147137380Y-129865714D01*
X147137380Y-145105238D02*
X146661190Y-145438571D01*
X147137380Y-145676666D02*
X146137380Y-145676666D01*
X146137380Y-145295714D01*
X146185000Y-145200476D01*
X146232619Y-145152857D01*
X146327857Y-145105238D01*
X146470714Y-145105238D01*
X146565952Y-145152857D01*
X146613571Y-145200476D01*
X146661190Y-145295714D01*
X146661190Y-145676666D01*
X147089761Y-144724285D02*
X147137380Y-144581428D01*
X147137380Y-144343333D01*
X147089761Y-144248095D01*
X147042142Y-144200476D01*
X146946904Y-144152857D01*
X146851666Y-144152857D01*
X146756428Y-144200476D01*
X146708809Y-144248095D01*
X146661190Y-144343333D01*
X146613571Y-144533809D01*
X146565952Y-144629047D01*
X146518333Y-144676666D01*
X146423095Y-144724285D01*
X146327857Y-144724285D01*
X146232619Y-144676666D01*
X146185000Y-144629047D01*
X146137380Y-144533809D01*
X146137380Y-144295714D01*
X146185000Y-144152857D01*
X146232619Y-143771904D02*
X146185000Y-143724285D01*
X146137380Y-143629047D01*
X146137380Y-143390952D01*
X146185000Y-143295714D01*
X146232619Y-143248095D01*
X146327857Y-143200476D01*
X146423095Y-143200476D01*
X146565952Y-143248095D01*
X147137380Y-143819523D01*
X147137380Y-143200476D01*
X146137380Y-142867142D02*
X146137380Y-142248095D01*
X146518333Y-142581428D01*
X146518333Y-142438571D01*
X146565952Y-142343333D01*
X146613571Y-142295714D01*
X146708809Y-142248095D01*
X146946904Y-142248095D01*
X147042142Y-142295714D01*
X147089761Y-142343333D01*
X147137380Y-142438571D01*
X147137380Y-142724285D01*
X147089761Y-142819523D01*
X147042142Y-142867142D01*
X146232619Y-141867142D02*
X146185000Y-141819523D01*
X146137380Y-141724285D01*
X146137380Y-141486190D01*
X146185000Y-141390952D01*
X146232619Y-141343333D01*
X146327857Y-141295714D01*
X146423095Y-141295714D01*
X146565952Y-141343333D01*
X147137380Y-141914761D01*
X147137380Y-141295714D01*
X146137380Y-126801428D02*
X146137380Y-126230000D01*
X147137380Y-126515714D02*
X146137380Y-126515714D01*
X146137380Y-126039523D02*
X146137380Y-125468095D01*
X147137380Y-125753809D02*
X146137380Y-125753809D01*
X147137380Y-124658571D02*
X147137380Y-125134761D01*
X146137380Y-125134761D01*
X146137380Y-138231428D02*
X146137380Y-137660000D01*
X147137380Y-137945714D02*
X146137380Y-137945714D01*
X146137380Y-137469523D02*
X146137380Y-136898095D01*
X147137380Y-137183809D02*
X146137380Y-137183809D01*
X147137380Y-136088571D02*
X147137380Y-136564761D01*
X146137380Y-136564761D01*
X141057380Y-141906428D02*
X141057380Y-141335000D01*
X142057380Y-141620714D02*
X141057380Y-141620714D01*
X141057380Y-141144523D02*
X141057380Y-140573095D01*
X142057380Y-140858809D02*
X141057380Y-140858809D01*
X141581190Y-140049285D02*
X142057380Y-140049285D01*
X141057380Y-140382619D02*
X141581190Y-140049285D01*
X141057380Y-139715952D01*
X142057380Y-138858809D02*
X142057380Y-139430238D01*
X142057380Y-139144523D02*
X141057380Y-139144523D01*
X141200238Y-139239761D01*
X141295476Y-139335000D01*
X141343095Y-139430238D01*
X141057380Y-130476428D02*
X141057380Y-129905000D01*
X142057380Y-130190714D02*
X141057380Y-130190714D01*
X141057380Y-129714523D02*
X141057380Y-129143095D01*
X142057380Y-129428809D02*
X141057380Y-129428809D01*
X141581190Y-128619285D02*
X142057380Y-128619285D01*
X141057380Y-128952619D02*
X141581190Y-128619285D01*
X141057380Y-128285952D01*
X141057380Y-127762142D02*
X141057380Y-127666904D01*
X141105000Y-127571666D01*
X141152619Y-127524047D01*
X141247857Y-127476428D01*
X141438333Y-127428809D01*
X141676428Y-127428809D01*
X141866904Y-127476428D01*
X141962142Y-127524047D01*
X142009761Y-127571666D01*
X142057380Y-127666904D01*
X142057380Y-127762142D01*
X142009761Y-127857380D01*
X141962142Y-127905000D01*
X141866904Y-127952619D01*
X141676428Y-128000238D01*
X141438333Y-128000238D01*
X141247857Y-127952619D01*
X141152619Y-127905000D01*
X141105000Y-127857380D01*
X141057380Y-127762142D01*
X171537380Y-136191428D02*
X171537380Y-135620000D01*
X172537380Y-135905714D02*
X171537380Y-135905714D01*
X171537380Y-135429523D02*
X171537380Y-134858095D01*
X172537380Y-135143809D02*
X171537380Y-135143809D01*
X172061190Y-134334285D02*
X172537380Y-134334285D01*
X171537380Y-134667619D02*
X172061190Y-134334285D01*
X171537380Y-134000952D01*
X172537380Y-133143809D02*
X172537380Y-133715238D01*
X172537380Y-133429523D02*
X171537380Y-133429523D01*
X171680238Y-133524761D01*
X171775476Y-133620000D01*
X171823095Y-133715238D01*
X172172380Y-103806428D02*
X172172380Y-103235000D01*
X173172380Y-103520714D02*
X172172380Y-103520714D01*
X172172380Y-103044523D02*
X172172380Y-102473095D01*
X173172380Y-102758809D02*
X172172380Y-102758809D01*
X172696190Y-101949285D02*
X173172380Y-101949285D01*
X172172380Y-102282619D02*
X172696190Y-101949285D01*
X172172380Y-101615952D01*
X172172380Y-101092142D02*
X172172380Y-100996904D01*
X172220000Y-100901666D01*
X172267619Y-100854047D01*
X172362857Y-100806428D01*
X172553333Y-100758809D01*
X172791428Y-100758809D01*
X172981904Y-100806428D01*
X173077142Y-100854047D01*
X173124761Y-100901666D01*
X173172380Y-100996904D01*
X173172380Y-101092142D01*
X173124761Y-101187380D01*
X173077142Y-101235000D01*
X172981904Y-101282619D01*
X172791428Y-101330238D01*
X172553333Y-101330238D01*
X172362857Y-101282619D01*
X172267619Y-101235000D01*
X172220000Y-101187380D01*
X172172380Y-101092142D01*
X171537380Y-126666428D02*
X171537380Y-126095000D01*
X172537380Y-126380714D02*
X171537380Y-126380714D01*
X171537380Y-125904523D02*
X171537380Y-125333095D01*
X172537380Y-125618809D02*
X171537380Y-125618809D01*
X172061190Y-124809285D02*
X172537380Y-124809285D01*
X171537380Y-125142619D02*
X172061190Y-124809285D01*
X171537380Y-124475952D01*
X171537380Y-123952142D02*
X171537380Y-123856904D01*
X171585000Y-123761666D01*
X171632619Y-123714047D01*
X171727857Y-123666428D01*
X171918333Y-123618809D01*
X172156428Y-123618809D01*
X172346904Y-123666428D01*
X172442142Y-123714047D01*
X172489761Y-123761666D01*
X172537380Y-123856904D01*
X172537380Y-123952142D01*
X172489761Y-124047380D01*
X172442142Y-124095000D01*
X172346904Y-124142619D01*
X172156428Y-124190238D01*
X171918333Y-124190238D01*
X171727857Y-124142619D01*
X171632619Y-124095000D01*
X171585000Y-124047380D01*
X171537380Y-123952142D01*
X97552380Y-92162380D02*
X98171428Y-92162380D01*
X97838095Y-92543333D01*
X97980952Y-92543333D01*
X98076190Y-92590952D01*
X98123809Y-92638571D01*
X98171428Y-92733809D01*
X98171428Y-92971904D01*
X98123809Y-93067142D01*
X98076190Y-93114761D01*
X97980952Y-93162380D01*
X97695238Y-93162380D01*
X97600000Y-93114761D01*
X97552380Y-93067142D01*
X100076190Y-92257619D02*
X100123809Y-92210000D01*
X100219047Y-92162380D01*
X100457142Y-92162380D01*
X100552380Y-92210000D01*
X100600000Y-92257619D01*
X100647619Y-92352857D01*
X100647619Y-92448095D01*
X100600000Y-92590952D01*
X100028571Y-93162380D01*
X100647619Y-93162380D01*
X103123809Y-93162380D02*
X102552380Y-93162380D01*
X102838095Y-93162380D02*
X102838095Y-92162380D01*
X102742857Y-92305238D01*
X102647619Y-92400476D01*
X102552380Y-92448095D01*
X105266666Y-92162380D02*
X105361904Y-92162380D01*
X105457142Y-92210000D01*
X105504761Y-92257619D01*
X105552380Y-92352857D01*
X105600000Y-92543333D01*
X105600000Y-92781428D01*
X105552380Y-92971904D01*
X105504761Y-93067142D01*
X105457142Y-93114761D01*
X105361904Y-93162380D01*
X105266666Y-93162380D01*
X105171428Y-93114761D01*
X105123809Y-93067142D01*
X105076190Y-92971904D01*
X105028571Y-92781428D01*
X105028571Y-92543333D01*
X105076190Y-92352857D01*
X105123809Y-92257619D01*
X105171428Y-92210000D01*
X105266666Y-92162380D01*
X98576190Y-85494761D02*
X98480952Y-85542380D01*
X98290476Y-85542380D01*
X98195238Y-85494761D01*
X98147619Y-85447142D01*
X98100000Y-85351904D01*
X98100000Y-85066190D01*
X98147619Y-84970952D01*
X98195238Y-84923333D01*
X98290476Y-84875714D01*
X98480952Y-84875714D01*
X98576190Y-84923333D01*
X99433333Y-85542380D02*
X99433333Y-85018571D01*
X99385714Y-84923333D01*
X99290476Y-84875714D01*
X99100000Y-84875714D01*
X99004761Y-84923333D01*
X99433333Y-85494761D02*
X99338095Y-85542380D01*
X99100000Y-85542380D01*
X99004761Y-85494761D01*
X98957142Y-85399523D01*
X98957142Y-85304285D01*
X99004761Y-85209047D01*
X99100000Y-85161428D01*
X99338095Y-85161428D01*
X99433333Y-85113809D01*
X99909523Y-85542380D02*
X99909523Y-84875714D01*
X99909523Y-85066190D02*
X99957142Y-84970952D01*
X100004761Y-84923333D01*
X100100000Y-84875714D01*
X100195238Y-84875714D01*
X100957142Y-85542380D02*
X100957142Y-84542380D01*
X100957142Y-85494761D02*
X100861904Y-85542380D01*
X100671428Y-85542380D01*
X100576190Y-85494761D01*
X100528571Y-85447142D01*
X100480952Y-85351904D01*
X100480952Y-85066190D01*
X100528571Y-84970952D01*
X100576190Y-84923333D01*
X100671428Y-84875714D01*
X100861904Y-84875714D01*
X100957142Y-84923333D01*
X102623809Y-85542380D02*
X102623809Y-85018571D01*
X102576190Y-84923333D01*
X102480952Y-84875714D01*
X102290476Y-84875714D01*
X102195238Y-84923333D01*
X102623809Y-85494761D02*
X102528571Y-85542380D01*
X102290476Y-85542380D01*
X102195238Y-85494761D01*
X102147619Y-85399523D01*
X102147619Y-85304285D01*
X102195238Y-85209047D01*
X102290476Y-85161428D01*
X102528571Y-85161428D01*
X102623809Y-85113809D01*
X103528571Y-85542380D02*
X103528571Y-84542380D01*
X103528571Y-85494761D02*
X103433333Y-85542380D01*
X103242857Y-85542380D01*
X103147619Y-85494761D01*
X103100000Y-85447142D01*
X103052380Y-85351904D01*
X103052380Y-85066190D01*
X103100000Y-84970952D01*
X103147619Y-84923333D01*
X103242857Y-84875714D01*
X103433333Y-84875714D01*
X103528571Y-84923333D01*
X104433333Y-85542380D02*
X104433333Y-84542380D01*
X104433333Y-85494761D02*
X104338095Y-85542380D01*
X104147619Y-85542380D01*
X104052380Y-85494761D01*
X104004761Y-85447142D01*
X103957142Y-85351904D01*
X103957142Y-85066190D01*
X104004761Y-84970952D01*
X104052380Y-84923333D01*
X104147619Y-84875714D01*
X104338095Y-84875714D01*
X104433333Y-84923333D01*
X104909523Y-85542380D02*
X104909523Y-84875714D01*
X104909523Y-85066190D02*
X104957142Y-84970952D01*
X105004761Y-84923333D01*
X105100000Y-84875714D01*
X105195238Y-84875714D01*
X102577380Y-114592619D02*
X102577380Y-113925952D01*
X103577380Y-114592619D01*
X103577380Y-113925952D01*
X103005952Y-113402142D02*
X102958333Y-113497380D01*
X102910714Y-113545000D01*
X102815476Y-113592619D01*
X102767857Y-113592619D01*
X102672619Y-113545000D01*
X102625000Y-113497380D01*
X102577380Y-113402142D01*
X102577380Y-113211666D01*
X102625000Y-113116428D01*
X102672619Y-113068809D01*
X102767857Y-113021190D01*
X102815476Y-113021190D01*
X102910714Y-113068809D01*
X102958333Y-113116428D01*
X103005952Y-113211666D01*
X103005952Y-113402142D01*
X103053571Y-113497380D01*
X103101190Y-113545000D01*
X103196428Y-113592619D01*
X103386904Y-113592619D01*
X103482142Y-113545000D01*
X103529761Y-113497380D01*
X103577380Y-113402142D01*
X103577380Y-113211666D01*
X103529761Y-113116428D01*
X103482142Y-113068809D01*
X103386904Y-113021190D01*
X103196428Y-113021190D01*
X103101190Y-113068809D01*
X103053571Y-113116428D01*
X103005952Y-113211666D01*
X102577380Y-112402142D02*
X102577380Y-112306904D01*
X102625000Y-112211666D01*
X102672619Y-112164047D01*
X102767857Y-112116428D01*
X102958333Y-112068809D01*
X103196428Y-112068809D01*
X103386904Y-112116428D01*
X103482142Y-112164047D01*
X103529761Y-112211666D01*
X103577380Y-112306904D01*
X103577380Y-112402142D01*
X103529761Y-112497380D01*
X103482142Y-112545000D01*
X103386904Y-112592619D01*
X103196428Y-112640238D01*
X102958333Y-112640238D01*
X102767857Y-112592619D01*
X102672619Y-112545000D01*
X102625000Y-112497380D01*
X102577380Y-112402142D01*
X103577380Y-110878333D02*
X102577380Y-110878333D01*
X103291666Y-110545000D01*
X102577380Y-110211666D01*
X103577380Y-110211666D01*
X103577380Y-109592619D02*
X103529761Y-109687857D01*
X103482142Y-109735476D01*
X103386904Y-109783095D01*
X103101190Y-109783095D01*
X103005952Y-109735476D01*
X102958333Y-109687857D01*
X102910714Y-109592619D01*
X102910714Y-109449761D01*
X102958333Y-109354523D01*
X103005952Y-109306904D01*
X103101190Y-109259285D01*
X103386904Y-109259285D01*
X103482142Y-109306904D01*
X103529761Y-109354523D01*
X103577380Y-109449761D01*
X103577380Y-109592619D01*
X103577380Y-108402142D02*
X102577380Y-108402142D01*
X103529761Y-108402142D02*
X103577380Y-108497380D01*
X103577380Y-108687857D01*
X103529761Y-108783095D01*
X103482142Y-108830714D01*
X103386904Y-108878333D01*
X103101190Y-108878333D01*
X103005952Y-108830714D01*
X102958333Y-108783095D01*
X102910714Y-108687857D01*
X102910714Y-108497380D01*
X102958333Y-108402142D01*
X102910714Y-107497380D02*
X103577380Y-107497380D01*
X102910714Y-107925952D02*
X103434523Y-107925952D01*
X103529761Y-107878333D01*
X103577380Y-107783095D01*
X103577380Y-107640238D01*
X103529761Y-107545000D01*
X103482142Y-107497380D01*
X103577380Y-106878333D02*
X103529761Y-106973571D01*
X103434523Y-107021190D01*
X102577380Y-107021190D01*
X103577380Y-106068809D02*
X103053571Y-106068809D01*
X102958333Y-106116428D01*
X102910714Y-106211666D01*
X102910714Y-106402142D01*
X102958333Y-106497380D01*
X103529761Y-106068809D02*
X103577380Y-106164047D01*
X103577380Y-106402142D01*
X103529761Y-106497380D01*
X103434523Y-106545000D01*
X103339285Y-106545000D01*
X103244047Y-106497380D01*
X103196428Y-106402142D01*
X103196428Y-106164047D01*
X103148809Y-106068809D01*
X103577380Y-105592619D02*
X102910714Y-105592619D01*
X103101190Y-105592619D02*
X103005952Y-105545000D01*
X102958333Y-105497380D01*
X102910714Y-105402142D01*
X102910714Y-105306904D01*
X103482142Y-103640238D02*
X103529761Y-103687857D01*
X103577380Y-103830714D01*
X103577380Y-103925952D01*
X103529761Y-104068809D01*
X103434523Y-104164047D01*
X103339285Y-104211666D01*
X103148809Y-104259285D01*
X103005952Y-104259285D01*
X102815476Y-104211666D01*
X102720238Y-104164047D01*
X102625000Y-104068809D01*
X102577380Y-103925952D01*
X102577380Y-103830714D01*
X102625000Y-103687857D01*
X102672619Y-103640238D01*
X103577380Y-103068809D02*
X103529761Y-103164047D01*
X103482142Y-103211666D01*
X103386904Y-103259285D01*
X103101190Y-103259285D01*
X103005952Y-103211666D01*
X102958333Y-103164047D01*
X102910714Y-103068809D01*
X102910714Y-102925952D01*
X102958333Y-102830714D01*
X103005952Y-102783095D01*
X103101190Y-102735476D01*
X103386904Y-102735476D01*
X103482142Y-102783095D01*
X103529761Y-102830714D01*
X103577380Y-102925952D01*
X103577380Y-103068809D01*
X103577380Y-102306904D02*
X102910714Y-102306904D01*
X103005952Y-102306904D02*
X102958333Y-102259285D01*
X102910714Y-102164047D01*
X102910714Y-102021190D01*
X102958333Y-101925952D01*
X103053571Y-101878333D01*
X103577380Y-101878333D01*
X103053571Y-101878333D02*
X102958333Y-101830714D01*
X102910714Y-101735476D01*
X102910714Y-101592619D01*
X102958333Y-101497380D01*
X103053571Y-101449761D01*
X103577380Y-101449761D01*
X102910714Y-100973571D02*
X103910714Y-100973571D01*
X102958333Y-100973571D02*
X102910714Y-100878333D01*
X102910714Y-100687857D01*
X102958333Y-100592619D01*
X103005952Y-100545000D01*
X103101190Y-100497380D01*
X103386904Y-100497380D01*
X103482142Y-100545000D01*
X103529761Y-100592619D01*
X103577380Y-100687857D01*
X103577380Y-100878333D01*
X103529761Y-100973571D01*
X102910714Y-99640238D02*
X103577380Y-99640238D01*
X102910714Y-100068809D02*
X103434523Y-100068809D01*
X103529761Y-100021190D01*
X103577380Y-99925952D01*
X103577380Y-99783095D01*
X103529761Y-99687857D01*
X103482142Y-99640238D01*
X102910714Y-99306904D02*
X102910714Y-98925952D01*
X102577380Y-99164047D02*
X103434523Y-99164047D01*
X103529761Y-99116428D01*
X103577380Y-99021190D01*
X103577380Y-98925952D01*
X103529761Y-98211666D02*
X103577380Y-98306904D01*
X103577380Y-98497380D01*
X103529761Y-98592619D01*
X103434523Y-98640238D01*
X103053571Y-98640238D01*
X102958333Y-98592619D01*
X102910714Y-98497380D01*
X102910714Y-98306904D01*
X102958333Y-98211666D01*
X103053571Y-98164047D01*
X103148809Y-98164047D01*
X103244047Y-98640238D01*
X103577380Y-97735476D02*
X102910714Y-97735476D01*
X103101190Y-97735476D02*
X103005952Y-97687857D01*
X102958333Y-97640238D01*
X102910714Y-97545000D01*
X102910714Y-97449761D01*
X104227380Y-113854523D02*
X104227380Y-113283095D01*
X105227380Y-113568809D02*
X104227380Y-113568809D01*
X104227380Y-113092619D02*
X104227380Y-112521190D01*
X105227380Y-112806904D02*
X104227380Y-112806904D01*
X104751190Y-111997380D02*
X105227380Y-111997380D01*
X104227380Y-112330714D02*
X104751190Y-111997380D01*
X104227380Y-111664047D01*
X105132142Y-109997380D02*
X105179761Y-110045000D01*
X105227380Y-110187857D01*
X105227380Y-110283095D01*
X105179761Y-110425952D01*
X105084523Y-110521190D01*
X104989285Y-110568809D01*
X104798809Y-110616428D01*
X104655952Y-110616428D01*
X104465476Y-110568809D01*
X104370238Y-110521190D01*
X104275000Y-110425952D01*
X104227380Y-110283095D01*
X104227380Y-110187857D01*
X104275000Y-110045000D01*
X104322619Y-109997380D01*
X105227380Y-109140238D02*
X104703571Y-109140238D01*
X104608333Y-109187857D01*
X104560714Y-109283095D01*
X104560714Y-109473571D01*
X104608333Y-109568809D01*
X105179761Y-109140238D02*
X105227380Y-109235476D01*
X105227380Y-109473571D01*
X105179761Y-109568809D01*
X105084523Y-109616428D01*
X104989285Y-109616428D01*
X104894047Y-109568809D01*
X104846428Y-109473571D01*
X104846428Y-109235476D01*
X104798809Y-109140238D01*
X105227380Y-108664047D02*
X104560714Y-108664047D01*
X104751190Y-108664047D02*
X104655952Y-108616428D01*
X104608333Y-108568809D01*
X104560714Y-108473571D01*
X104560714Y-108378333D01*
X105227380Y-107616428D02*
X104227380Y-107616428D01*
X105179761Y-107616428D02*
X105227380Y-107711666D01*
X105227380Y-107902142D01*
X105179761Y-107997380D01*
X105132142Y-108045000D01*
X105036904Y-108092619D01*
X104751190Y-108092619D01*
X104655952Y-108045000D01*
X104608333Y-107997380D01*
X104560714Y-107902142D01*
X104560714Y-107711666D01*
X104608333Y-107616428D01*
X104560714Y-106473571D02*
X105227380Y-106235476D01*
X104560714Y-105997380D01*
X105179761Y-105235476D02*
X105227380Y-105330714D01*
X105227380Y-105521190D01*
X105179761Y-105616428D01*
X105084523Y-105664047D01*
X104703571Y-105664047D01*
X104608333Y-105616428D01*
X104560714Y-105521190D01*
X104560714Y-105330714D01*
X104608333Y-105235476D01*
X104703571Y-105187857D01*
X104798809Y-105187857D01*
X104894047Y-105664047D01*
X105227380Y-104759285D02*
X104560714Y-104759285D01*
X104751190Y-104759285D02*
X104655952Y-104711666D01*
X104608333Y-104664047D01*
X104560714Y-104568809D01*
X104560714Y-104473571D01*
X105179761Y-104187857D02*
X105227380Y-104092619D01*
X105227380Y-103902142D01*
X105179761Y-103806904D01*
X105084523Y-103759285D01*
X105036904Y-103759285D01*
X104941666Y-103806904D01*
X104894047Y-103902142D01*
X104894047Y-104045000D01*
X104846428Y-104140238D01*
X104751190Y-104187857D01*
X104703571Y-104187857D01*
X104608333Y-104140238D01*
X104560714Y-104045000D01*
X104560714Y-103902142D01*
X104608333Y-103806904D01*
X105227380Y-103330714D02*
X104560714Y-103330714D01*
X104227380Y-103330714D02*
X104275000Y-103378333D01*
X104322619Y-103330714D01*
X104275000Y-103283095D01*
X104227380Y-103330714D01*
X104322619Y-103330714D01*
X105227380Y-102711666D02*
X105179761Y-102806904D01*
X105132142Y-102854523D01*
X105036904Y-102902142D01*
X104751190Y-102902142D01*
X104655952Y-102854523D01*
X104608333Y-102806904D01*
X104560714Y-102711666D01*
X104560714Y-102568809D01*
X104608333Y-102473571D01*
X104655952Y-102425952D01*
X104751190Y-102378333D01*
X105036904Y-102378333D01*
X105132142Y-102425952D01*
X105179761Y-102473571D01*
X105227380Y-102568809D01*
X105227380Y-102711666D01*
X104560714Y-101949761D02*
X105227380Y-101949761D01*
X104655952Y-101949761D02*
X104608333Y-101902142D01*
X104560714Y-101806904D01*
X104560714Y-101664047D01*
X104608333Y-101568809D01*
X104703571Y-101521190D01*
X105227380Y-101521190D01*
X105227380Y-99759285D02*
X105227380Y-100330714D01*
X105227380Y-100045000D02*
X104227380Y-100045000D01*
X104370238Y-100140238D01*
X104465476Y-100235476D01*
X104513095Y-100330714D01*
X105132142Y-99330714D02*
X105179761Y-99283095D01*
X105227380Y-99330714D01*
X105179761Y-99378333D01*
X105132142Y-99330714D01*
X105227380Y-99330714D01*
X104227380Y-98664047D02*
X104227380Y-98568809D01*
X104275000Y-98473571D01*
X104322619Y-98425952D01*
X104417857Y-98378333D01*
X104608333Y-98330714D01*
X104846428Y-98330714D01*
X105036904Y-98378333D01*
X105132142Y-98425952D01*
X105179761Y-98473571D01*
X105227380Y-98568809D01*
X105227380Y-98664047D01*
X105179761Y-98759285D01*
X105132142Y-98806904D01*
X105036904Y-98854523D01*
X104846428Y-98902142D01*
X104608333Y-98902142D01*
X104417857Y-98854523D01*
X104322619Y-98806904D01*
X104275000Y-98759285D01*
X104227380Y-98664047D01*
X106877380Y-117116428D02*
X105877380Y-117116428D01*
X105877380Y-116878333D01*
X105925000Y-116735476D01*
X106020238Y-116640238D01*
X106115476Y-116592619D01*
X106305952Y-116545000D01*
X106448809Y-116545000D01*
X106639285Y-116592619D01*
X106734523Y-116640238D01*
X106829761Y-116735476D01*
X106877380Y-116878333D01*
X106877380Y-117116428D01*
X106829761Y-115735476D02*
X106877380Y-115830714D01*
X106877380Y-116021190D01*
X106829761Y-116116428D01*
X106734523Y-116164047D01*
X106353571Y-116164047D01*
X106258333Y-116116428D01*
X106210714Y-116021190D01*
X106210714Y-115830714D01*
X106258333Y-115735476D01*
X106353571Y-115687857D01*
X106448809Y-115687857D01*
X106544047Y-116164047D01*
X106829761Y-115306904D02*
X106877380Y-115211666D01*
X106877380Y-115021190D01*
X106829761Y-114925952D01*
X106734523Y-114878333D01*
X106686904Y-114878333D01*
X106591666Y-114925952D01*
X106544047Y-115021190D01*
X106544047Y-115164047D01*
X106496428Y-115259285D01*
X106401190Y-115306904D01*
X106353571Y-115306904D01*
X106258333Y-115259285D01*
X106210714Y-115164047D01*
X106210714Y-115021190D01*
X106258333Y-114925952D01*
X106877380Y-114449761D02*
X106210714Y-114449761D01*
X105877380Y-114449761D02*
X105925000Y-114497380D01*
X105972619Y-114449761D01*
X105925000Y-114402142D01*
X105877380Y-114449761D01*
X105972619Y-114449761D01*
X106210714Y-113545000D02*
X107020238Y-113545000D01*
X107115476Y-113592619D01*
X107163095Y-113640238D01*
X107210714Y-113735476D01*
X107210714Y-113878333D01*
X107163095Y-113973571D01*
X106829761Y-113545000D02*
X106877380Y-113640238D01*
X106877380Y-113830714D01*
X106829761Y-113925952D01*
X106782142Y-113973571D01*
X106686904Y-114021190D01*
X106401190Y-114021190D01*
X106305952Y-113973571D01*
X106258333Y-113925952D01*
X106210714Y-113830714D01*
X106210714Y-113640238D01*
X106258333Y-113545000D01*
X106210714Y-113068809D02*
X106877380Y-113068809D01*
X106305952Y-113068809D02*
X106258333Y-113021190D01*
X106210714Y-112925952D01*
X106210714Y-112783095D01*
X106258333Y-112687857D01*
X106353571Y-112640238D01*
X106877380Y-112640238D01*
X106877380Y-111402142D02*
X105877380Y-111402142D01*
X106258333Y-111402142D02*
X106210714Y-111306904D01*
X106210714Y-111116428D01*
X106258333Y-111021190D01*
X106305952Y-110973571D01*
X106401190Y-110925952D01*
X106686904Y-110925952D01*
X106782142Y-110973571D01*
X106829761Y-111021190D01*
X106877380Y-111116428D01*
X106877380Y-111306904D01*
X106829761Y-111402142D01*
X106210714Y-110592619D02*
X106877380Y-110354523D01*
X106210714Y-110116428D02*
X106877380Y-110354523D01*
X107115476Y-110449761D01*
X107163095Y-110497380D01*
X107210714Y-110592619D01*
X106877380Y-108973571D02*
X105877380Y-108973571D01*
X106877380Y-108402142D02*
X106305952Y-108830714D01*
X105877380Y-108402142D02*
X106448809Y-108973571D01*
X106877380Y-107545000D02*
X106353571Y-107545000D01*
X106258333Y-107592619D01*
X106210714Y-107687857D01*
X106210714Y-107878333D01*
X106258333Y-107973571D01*
X106829761Y-107545000D02*
X106877380Y-107640238D01*
X106877380Y-107878333D01*
X106829761Y-107973571D01*
X106734523Y-108021190D01*
X106639285Y-108021190D01*
X106544047Y-107973571D01*
X106496428Y-107878333D01*
X106496428Y-107640238D01*
X106448809Y-107545000D01*
X106877380Y-106925952D02*
X106829761Y-107021190D01*
X106734523Y-107068809D01*
X105877380Y-107068809D01*
X106210714Y-106687857D02*
X106210714Y-106306904D01*
X105877380Y-106545000D02*
X106734523Y-106545000D01*
X106829761Y-106497380D01*
X106877380Y-106402142D01*
X106877380Y-106306904D01*
X106829761Y-105545000D02*
X106877380Y-105640238D01*
X106877380Y-105830714D01*
X106829761Y-105925952D01*
X106782142Y-105973571D01*
X106686904Y-106021190D01*
X106401190Y-106021190D01*
X106305952Y-105973571D01*
X106258333Y-105925952D01*
X106210714Y-105830714D01*
X106210714Y-105640238D01*
X106258333Y-105545000D01*
X106877380Y-105116428D02*
X105877380Y-105116428D01*
X106877380Y-104687857D02*
X106353571Y-104687857D01*
X106258333Y-104735476D01*
X106210714Y-104830714D01*
X106210714Y-104973571D01*
X106258333Y-105068809D01*
X106305952Y-105116428D01*
X106210714Y-103783095D02*
X106877380Y-103783095D01*
X106210714Y-104211666D02*
X106734523Y-104211666D01*
X106829761Y-104164047D01*
X106877380Y-104068809D01*
X106877380Y-103925952D01*
X106829761Y-103830714D01*
X106782142Y-103783095D01*
X106877380Y-103306904D02*
X105877380Y-103306904D01*
X106496428Y-103211666D02*
X106877380Y-102925952D01*
X106210714Y-102925952D02*
X106591666Y-103306904D01*
X106829761Y-102449761D02*
X106877380Y-102449761D01*
X106972619Y-102497380D01*
X107020238Y-102545000D01*
X105877380Y-101068809D02*
X105877380Y-100973571D01*
X105925000Y-100878333D01*
X105972619Y-100830714D01*
X106067857Y-100783095D01*
X106258333Y-100735476D01*
X106496428Y-100735476D01*
X106686904Y-100783095D01*
X106782142Y-100830714D01*
X106829761Y-100878333D01*
X106877380Y-100973571D01*
X106877380Y-101068809D01*
X106829761Y-101164047D01*
X106782142Y-101211666D01*
X106686904Y-101259285D01*
X106496428Y-101306904D01*
X106258333Y-101306904D01*
X106067857Y-101259285D01*
X105972619Y-101211666D01*
X105925000Y-101164047D01*
X105877380Y-101068809D01*
X106877380Y-100259285D02*
X106877380Y-100068809D01*
X106829761Y-99973571D01*
X106782142Y-99925952D01*
X106639285Y-99830714D01*
X106448809Y-99783095D01*
X106067857Y-99783095D01*
X105972619Y-99830714D01*
X105925000Y-99878333D01*
X105877380Y-99973571D01*
X105877380Y-100164047D01*
X105925000Y-100259285D01*
X105972619Y-100306904D01*
X106067857Y-100354523D01*
X106305952Y-100354523D01*
X106401190Y-100306904D01*
X106448809Y-100259285D01*
X106496428Y-100164047D01*
X106496428Y-99973571D01*
X106448809Y-99878333D01*
X106401190Y-99830714D01*
X106305952Y-99783095D01*
X105829761Y-98640238D02*
X107115476Y-99497380D01*
X105972619Y-98354523D02*
X105925000Y-98306904D01*
X105877380Y-98211666D01*
X105877380Y-97973571D01*
X105925000Y-97878333D01*
X105972619Y-97830714D01*
X106067857Y-97783095D01*
X106163095Y-97783095D01*
X106305952Y-97830714D01*
X106877380Y-98402142D01*
X106877380Y-97783095D01*
X105877380Y-97164047D02*
X105877380Y-97068809D01*
X105925000Y-96973571D01*
X105972619Y-96925952D01*
X106067857Y-96878333D01*
X106258333Y-96830714D01*
X106496428Y-96830714D01*
X106686904Y-96878333D01*
X106782142Y-96925952D01*
X106829761Y-96973571D01*
X106877380Y-97068809D01*
X106877380Y-97164047D01*
X106829761Y-97259285D01*
X106782142Y-97306904D01*
X106686904Y-97354523D01*
X106496428Y-97402142D01*
X106258333Y-97402142D01*
X106067857Y-97354523D01*
X105972619Y-97306904D01*
X105925000Y-97259285D01*
X105877380Y-97164047D01*
X105972619Y-96449761D02*
X105925000Y-96402142D01*
X105877380Y-96306904D01*
X105877380Y-96068809D01*
X105925000Y-95973571D01*
X105972619Y-95925952D01*
X106067857Y-95878333D01*
X106163095Y-95878333D01*
X106305952Y-95925952D01*
X106877380Y-96497380D01*
X106877380Y-95878333D01*
X106877380Y-94925952D02*
X106877380Y-95497380D01*
X106877380Y-95211666D02*
X105877380Y-95211666D01*
X106020238Y-95306904D01*
X106115476Y-95402142D01*
X106163095Y-95497380D01*
D11*
X127095000Y-129700000D02*
X127095000Y-130325000D01*
X127095000Y-127485000D02*
X127095000Y-128110000D01*
X123055000Y-129700000D02*
X123055000Y-130325000D01*
X123055000Y-127485000D02*
X123055000Y-128110000D01*
X123055000Y-130325000D02*
X127095000Y-130325000D01*
X123055000Y-127485000D02*
X127095000Y-127485000D01*
X127095000Y-144940000D02*
X127095000Y-145565000D01*
X127095000Y-142725000D02*
X127095000Y-143350000D01*
X123055000Y-144940000D02*
X123055000Y-145565000D01*
X123055000Y-142725000D02*
X123055000Y-143350000D01*
X123055000Y-145565000D02*
X127095000Y-145565000D01*
X123055000Y-142725000D02*
X127095000Y-142725000D01*
X95215225Y-99875000D02*
X95215225Y-100375000D01*
X94965225Y-100125000D02*
X95465225Y-100125000D01*
X100371000Y-101316000D02*
X100371000Y-101884000D01*
X100331000Y-101082000D02*
X100331000Y-102118000D01*
X100291000Y-100923000D02*
X100291000Y-102277000D01*
X100251000Y-100795000D02*
X100251000Y-102405000D01*
X100211000Y-100685000D02*
X100211000Y-102515000D01*
X100171000Y-100589000D02*
X100171000Y-102611000D01*
X100131000Y-100502000D02*
X100131000Y-102698000D01*
X100091000Y-100422000D02*
X100091000Y-102778000D01*
X100051000Y-102640000D02*
X100051000Y-102851000D01*
X100051000Y-100349000D02*
X100051000Y-100560000D01*
X100011000Y-102640000D02*
X100011000Y-102919000D01*
X100011000Y-100281000D02*
X100011000Y-100560000D01*
X99971000Y-102640000D02*
X99971000Y-102983000D01*
X99971000Y-100217000D02*
X99971000Y-100560000D01*
X99931000Y-102640000D02*
X99931000Y-103043000D01*
X99931000Y-100157000D02*
X99931000Y-100560000D01*
X99891000Y-102640000D02*
X99891000Y-103100000D01*
X99891000Y-100100000D02*
X99891000Y-100560000D01*
X99851000Y-102640000D02*
X99851000Y-103154000D01*
X99851000Y-100046000D02*
X99851000Y-100560000D01*
X99811000Y-102640000D02*
X99811000Y-103205000D01*
X99811000Y-99995000D02*
X99811000Y-100560000D01*
X99771000Y-102640000D02*
X99771000Y-103253000D01*
X99771000Y-99947000D02*
X99771000Y-100560000D01*
X99731000Y-102640000D02*
X99731000Y-103299000D01*
X99731000Y-99901000D02*
X99731000Y-100560000D01*
X99691000Y-102640000D02*
X99691000Y-103343000D01*
X99691000Y-99857000D02*
X99691000Y-100560000D01*
X99651000Y-102640000D02*
X99651000Y-103385000D01*
X99651000Y-99815000D02*
X99651000Y-100560000D01*
X99611000Y-102640000D02*
X99611000Y-103426000D01*
X99611000Y-99774000D02*
X99611000Y-100560000D01*
X99571000Y-102640000D02*
X99571000Y-103464000D01*
X99571000Y-99736000D02*
X99571000Y-100560000D01*
X99531000Y-102640000D02*
X99531000Y-103501000D01*
X99531000Y-99699000D02*
X99531000Y-100560000D01*
X99491000Y-102640000D02*
X99491000Y-103537000D01*
X99491000Y-99663000D02*
X99491000Y-100560000D01*
X99451000Y-102640000D02*
X99451000Y-103571000D01*
X99451000Y-99629000D02*
X99451000Y-100560000D01*
X99411000Y-102640000D02*
X99411000Y-103604000D01*
X99411000Y-99596000D02*
X99411000Y-100560000D01*
X99371000Y-102640000D02*
X99371000Y-103635000D01*
X99371000Y-99565000D02*
X99371000Y-100560000D01*
X99331000Y-102640000D02*
X99331000Y-103665000D01*
X99331000Y-99535000D02*
X99331000Y-100560000D01*
X99291000Y-102640000D02*
X99291000Y-103695000D01*
X99291000Y-99505000D02*
X99291000Y-100560000D01*
X99251000Y-102640000D02*
X99251000Y-103722000D01*
X99251000Y-99478000D02*
X99251000Y-100560000D01*
X99211000Y-102640000D02*
X99211000Y-103749000D01*
X99211000Y-99451000D02*
X99211000Y-100560000D01*
X99171000Y-102640000D02*
X99171000Y-103775000D01*
X99171000Y-99425000D02*
X99171000Y-100560000D01*
X99131000Y-102640000D02*
X99131000Y-103800000D01*
X99131000Y-99400000D02*
X99131000Y-100560000D01*
X99091000Y-102640000D02*
X99091000Y-103824000D01*
X99091000Y-99376000D02*
X99091000Y-100560000D01*
X99051000Y-102640000D02*
X99051000Y-103847000D01*
X99051000Y-99353000D02*
X99051000Y-100560000D01*
X99011000Y-102640000D02*
X99011000Y-103868000D01*
X99011000Y-99332000D02*
X99011000Y-100560000D01*
X98971000Y-102640000D02*
X98971000Y-103890000D01*
X98971000Y-99310000D02*
X98971000Y-100560000D01*
X98931000Y-102640000D02*
X98931000Y-103910000D01*
X98931000Y-99290000D02*
X98931000Y-100560000D01*
X98891000Y-102640000D02*
X98891000Y-103929000D01*
X98891000Y-99271000D02*
X98891000Y-100560000D01*
X98851000Y-102640000D02*
X98851000Y-103948000D01*
X98851000Y-99252000D02*
X98851000Y-100560000D01*
X98811000Y-102640000D02*
X98811000Y-103965000D01*
X98811000Y-99235000D02*
X98811000Y-100560000D01*
X98771000Y-102640000D02*
X98771000Y-103982000D01*
X98771000Y-99218000D02*
X98771000Y-100560000D01*
X98731000Y-102640000D02*
X98731000Y-103998000D01*
X98731000Y-99202000D02*
X98731000Y-100560000D01*
X98691000Y-102640000D02*
X98691000Y-104014000D01*
X98691000Y-99186000D02*
X98691000Y-100560000D01*
X98651000Y-102640000D02*
X98651000Y-104028000D01*
X98651000Y-99172000D02*
X98651000Y-100560000D01*
X98611000Y-102640000D02*
X98611000Y-104042000D01*
X98611000Y-99158000D02*
X98611000Y-100560000D01*
X98571000Y-102640000D02*
X98571000Y-104055000D01*
X98571000Y-99145000D02*
X98571000Y-100560000D01*
X98531000Y-102640000D02*
X98531000Y-104068000D01*
X98531000Y-99132000D02*
X98531000Y-100560000D01*
X98491000Y-102640000D02*
X98491000Y-104080000D01*
X98491000Y-99120000D02*
X98491000Y-100560000D01*
X98450000Y-102640000D02*
X98450000Y-104091000D01*
X98450000Y-99109000D02*
X98450000Y-100560000D01*
X98410000Y-102640000D02*
X98410000Y-104101000D01*
X98410000Y-99099000D02*
X98410000Y-100560000D01*
X98370000Y-102640000D02*
X98370000Y-104111000D01*
X98370000Y-99089000D02*
X98370000Y-100560000D01*
X98330000Y-102640000D02*
X98330000Y-104120000D01*
X98330000Y-99080000D02*
X98330000Y-100560000D01*
X98290000Y-102640000D02*
X98290000Y-104128000D01*
X98290000Y-99072000D02*
X98290000Y-100560000D01*
X98250000Y-102640000D02*
X98250000Y-104136000D01*
X98250000Y-99064000D02*
X98250000Y-100560000D01*
X98210000Y-102640000D02*
X98210000Y-104143000D01*
X98210000Y-99057000D02*
X98210000Y-100560000D01*
X98170000Y-102640000D02*
X98170000Y-104150000D01*
X98170000Y-99050000D02*
X98170000Y-100560000D01*
X98130000Y-102640000D02*
X98130000Y-104156000D01*
X98130000Y-99044000D02*
X98130000Y-100560000D01*
X98090000Y-102640000D02*
X98090000Y-104161000D01*
X98090000Y-99039000D02*
X98090000Y-100560000D01*
X98050000Y-102640000D02*
X98050000Y-104165000D01*
X98050000Y-99035000D02*
X98050000Y-100560000D01*
X98010000Y-102640000D02*
X98010000Y-104169000D01*
X98010000Y-99031000D02*
X98010000Y-100560000D01*
X97970000Y-99027000D02*
X97970000Y-104173000D01*
X97930000Y-99024000D02*
X97930000Y-104176000D01*
X97890000Y-99022000D02*
X97890000Y-104178000D01*
X97850000Y-99021000D02*
X97850000Y-104179000D01*
X97810000Y-99020000D02*
X97810000Y-104180000D01*
X97770000Y-99020000D02*
X97770000Y-104180000D01*
X100390000Y-101600000D02*
G75*
G03X100390000Y-101600000I-2620000J0D01*
G01*
X167100000Y-83345000D02*
X167100000Y-83970000D01*
X167100000Y-81130000D02*
X167100000Y-81755000D01*
X163060000Y-83345000D02*
X163060000Y-83970000D01*
X163060000Y-81130000D02*
X163060000Y-81755000D01*
X163060000Y-83970000D02*
X167100000Y-83970000D01*
X163060000Y-81130000D02*
X167100000Y-81130000D01*
X97020000Y-116690000D02*
X101060000Y-116690000D01*
X97020000Y-119530000D02*
X101060000Y-119530000D01*
X97020000Y-116690000D02*
X97020000Y-117315000D01*
X97020000Y-118905000D02*
X97020000Y-119530000D01*
X101060000Y-116690000D02*
X101060000Y-117315000D01*
X101060000Y-118905000D02*
X101060000Y-119530000D01*
X152265000Y-124310000D02*
X156305000Y-124310000D01*
X152265000Y-127150000D02*
X156305000Y-127150000D01*
X152265000Y-124310000D02*
X152265000Y-124935000D01*
X152265000Y-126525000D02*
X152265000Y-127150000D01*
X156305000Y-124310000D02*
X156305000Y-124935000D01*
X156305000Y-126525000D02*
X156305000Y-127150000D01*
X123055000Y-109705000D02*
X127095000Y-109705000D01*
X123055000Y-112545000D02*
X127095000Y-112545000D01*
X123055000Y-109705000D02*
X123055000Y-110330000D01*
X123055000Y-111920000D02*
X123055000Y-112545000D01*
X127095000Y-109705000D02*
X127095000Y-110330000D01*
X127095000Y-111920000D02*
X127095000Y-112545000D01*
X127095000Y-125890000D02*
X127095000Y-126515000D01*
X127095000Y-123675000D02*
X127095000Y-124300000D01*
X123055000Y-125890000D02*
X123055000Y-126515000D01*
X123055000Y-123675000D02*
X123055000Y-124300000D01*
X123055000Y-126515000D02*
X127095000Y-126515000D01*
X123055000Y-123675000D02*
X127095000Y-123675000D01*
X150360000Y-81130000D02*
X154400000Y-81130000D01*
X150360000Y-83970000D02*
X154400000Y-83970000D01*
X150360000Y-81130000D02*
X150360000Y-81755000D01*
X150360000Y-83345000D02*
X150360000Y-83970000D01*
X154400000Y-81130000D02*
X154400000Y-81755000D01*
X154400000Y-83345000D02*
X154400000Y-83970000D01*
X130675000Y-81130000D02*
X134715000Y-81130000D01*
X130675000Y-83970000D02*
X134715000Y-83970000D01*
X130675000Y-81130000D02*
X130675000Y-81755000D01*
X130675000Y-83345000D02*
X130675000Y-83970000D01*
X134715000Y-81130000D02*
X134715000Y-81755000D01*
X134715000Y-83345000D02*
X134715000Y-83970000D01*
X136620000Y-108745000D02*
X136620000Y-109370000D01*
X136620000Y-106530000D02*
X136620000Y-107155000D01*
X132580000Y-108745000D02*
X132580000Y-109370000D01*
X132580000Y-106530000D02*
X132580000Y-107155000D01*
X132580000Y-109370000D02*
X136620000Y-109370000D01*
X132580000Y-106530000D02*
X136620000Y-106530000D01*
X116070000Y-81130000D02*
X120110000Y-81130000D01*
X116070000Y-83970000D02*
X120110000Y-83970000D01*
X116070000Y-81130000D02*
X116070000Y-81755000D01*
X116070000Y-83345000D02*
X116070000Y-83970000D01*
X120110000Y-81130000D02*
X120110000Y-81755000D01*
X120110000Y-83345000D02*
X120110000Y-83970000D01*
X116935000Y-108745000D02*
X116935000Y-109370000D01*
X116935000Y-106530000D02*
X116935000Y-107155000D01*
X112895000Y-108745000D02*
X112895000Y-109370000D01*
X112895000Y-106530000D02*
X112895000Y-107155000D01*
X112895000Y-109370000D02*
X116935000Y-109370000D01*
X112895000Y-106530000D02*
X116935000Y-106530000D01*
X156270000Y-119380000D02*
G75*
G03X156270000Y-119380000I-2620000J0D01*
G01*
X153650000Y-116800000D02*
X153650000Y-121960000D01*
X153690000Y-116800000D02*
X153690000Y-121960000D01*
X153730000Y-116801000D02*
X153730000Y-121959000D01*
X153770000Y-116802000D02*
X153770000Y-121958000D01*
X153810000Y-116804000D02*
X153810000Y-121956000D01*
X153850000Y-116807000D02*
X153850000Y-121953000D01*
X153890000Y-116811000D02*
X153890000Y-118340000D01*
X153890000Y-120420000D02*
X153890000Y-121949000D01*
X153930000Y-116815000D02*
X153930000Y-118340000D01*
X153930000Y-120420000D02*
X153930000Y-121945000D01*
X153970000Y-116819000D02*
X153970000Y-118340000D01*
X153970000Y-120420000D02*
X153970000Y-121941000D01*
X154010000Y-116824000D02*
X154010000Y-118340000D01*
X154010000Y-120420000D02*
X154010000Y-121936000D01*
X154050000Y-116830000D02*
X154050000Y-118340000D01*
X154050000Y-120420000D02*
X154050000Y-121930000D01*
X154090000Y-116837000D02*
X154090000Y-118340000D01*
X154090000Y-120420000D02*
X154090000Y-121923000D01*
X154130000Y-116844000D02*
X154130000Y-118340000D01*
X154130000Y-120420000D02*
X154130000Y-121916000D01*
X154170000Y-116852000D02*
X154170000Y-118340000D01*
X154170000Y-120420000D02*
X154170000Y-121908000D01*
X154210000Y-116860000D02*
X154210000Y-118340000D01*
X154210000Y-120420000D02*
X154210000Y-121900000D01*
X154250000Y-116869000D02*
X154250000Y-118340000D01*
X154250000Y-120420000D02*
X154250000Y-121891000D01*
X154290000Y-116879000D02*
X154290000Y-118340000D01*
X154290000Y-120420000D02*
X154290000Y-121881000D01*
X154330000Y-116889000D02*
X154330000Y-118340000D01*
X154330000Y-120420000D02*
X154330000Y-121871000D01*
X154371000Y-116900000D02*
X154371000Y-118340000D01*
X154371000Y-120420000D02*
X154371000Y-121860000D01*
X154411000Y-116912000D02*
X154411000Y-118340000D01*
X154411000Y-120420000D02*
X154411000Y-121848000D01*
X154451000Y-116925000D02*
X154451000Y-118340000D01*
X154451000Y-120420000D02*
X154451000Y-121835000D01*
X154491000Y-116938000D02*
X154491000Y-118340000D01*
X154491000Y-120420000D02*
X154491000Y-121822000D01*
X154531000Y-116952000D02*
X154531000Y-118340000D01*
X154531000Y-120420000D02*
X154531000Y-121808000D01*
X154571000Y-116966000D02*
X154571000Y-118340000D01*
X154571000Y-120420000D02*
X154571000Y-121794000D01*
X154611000Y-116982000D02*
X154611000Y-118340000D01*
X154611000Y-120420000D02*
X154611000Y-121778000D01*
X154651000Y-116998000D02*
X154651000Y-118340000D01*
X154651000Y-120420000D02*
X154651000Y-121762000D01*
X154691000Y-117015000D02*
X154691000Y-118340000D01*
X154691000Y-120420000D02*
X154691000Y-121745000D01*
X154731000Y-117032000D02*
X154731000Y-118340000D01*
X154731000Y-120420000D02*
X154731000Y-121728000D01*
X154771000Y-117051000D02*
X154771000Y-118340000D01*
X154771000Y-120420000D02*
X154771000Y-121709000D01*
X154811000Y-117070000D02*
X154811000Y-118340000D01*
X154811000Y-120420000D02*
X154811000Y-121690000D01*
X154851000Y-117090000D02*
X154851000Y-118340000D01*
X154851000Y-120420000D02*
X154851000Y-121670000D01*
X154891000Y-117112000D02*
X154891000Y-118340000D01*
X154891000Y-120420000D02*
X154891000Y-121648000D01*
X154931000Y-117133000D02*
X154931000Y-118340000D01*
X154931000Y-120420000D02*
X154931000Y-121627000D01*
X154971000Y-117156000D02*
X154971000Y-118340000D01*
X154971000Y-120420000D02*
X154971000Y-121604000D01*
X155011000Y-117180000D02*
X155011000Y-118340000D01*
X155011000Y-120420000D02*
X155011000Y-121580000D01*
X155051000Y-117205000D02*
X155051000Y-118340000D01*
X155051000Y-120420000D02*
X155051000Y-121555000D01*
X155091000Y-117231000D02*
X155091000Y-118340000D01*
X155091000Y-120420000D02*
X155091000Y-121529000D01*
X155131000Y-117258000D02*
X155131000Y-118340000D01*
X155131000Y-120420000D02*
X155131000Y-121502000D01*
X155171000Y-117285000D02*
X155171000Y-118340000D01*
X155171000Y-120420000D02*
X155171000Y-121475000D01*
X155211000Y-117315000D02*
X155211000Y-118340000D01*
X155211000Y-120420000D02*
X155211000Y-121445000D01*
X155251000Y-117345000D02*
X155251000Y-118340000D01*
X155251000Y-120420000D02*
X155251000Y-121415000D01*
X155291000Y-117376000D02*
X155291000Y-118340000D01*
X155291000Y-120420000D02*
X155291000Y-121384000D01*
X155331000Y-117409000D02*
X155331000Y-118340000D01*
X155331000Y-120420000D02*
X155331000Y-121351000D01*
X155371000Y-117443000D02*
X155371000Y-118340000D01*
X155371000Y-120420000D02*
X155371000Y-121317000D01*
X155411000Y-117479000D02*
X155411000Y-118340000D01*
X155411000Y-120420000D02*
X155411000Y-121281000D01*
X155451000Y-117516000D02*
X155451000Y-118340000D01*
X155451000Y-120420000D02*
X155451000Y-121244000D01*
X155491000Y-117554000D02*
X155491000Y-118340000D01*
X155491000Y-120420000D02*
X155491000Y-121206000D01*
X155531000Y-117595000D02*
X155531000Y-118340000D01*
X155531000Y-120420000D02*
X155531000Y-121165000D01*
X155571000Y-117637000D02*
X155571000Y-118340000D01*
X155571000Y-120420000D02*
X155571000Y-121123000D01*
X155611000Y-117681000D02*
X155611000Y-118340000D01*
X155611000Y-120420000D02*
X155611000Y-121079000D01*
X155651000Y-117727000D02*
X155651000Y-118340000D01*
X155651000Y-120420000D02*
X155651000Y-121033000D01*
X155691000Y-117775000D02*
X155691000Y-118340000D01*
X155691000Y-120420000D02*
X155691000Y-120985000D01*
X155731000Y-117826000D02*
X155731000Y-118340000D01*
X155731000Y-120420000D02*
X155731000Y-120934000D01*
X155771000Y-117880000D02*
X155771000Y-118340000D01*
X155771000Y-120420000D02*
X155771000Y-120880000D01*
X155811000Y-117937000D02*
X155811000Y-118340000D01*
X155811000Y-120420000D02*
X155811000Y-120823000D01*
X155851000Y-117997000D02*
X155851000Y-118340000D01*
X155851000Y-120420000D02*
X155851000Y-120763000D01*
X155891000Y-118061000D02*
X155891000Y-118340000D01*
X155891000Y-120420000D02*
X155891000Y-120699000D01*
X155931000Y-118129000D02*
X155931000Y-118340000D01*
X155931000Y-120420000D02*
X155931000Y-120631000D01*
X155971000Y-118202000D02*
X155971000Y-120558000D01*
X156011000Y-118282000D02*
X156011000Y-120478000D01*
X156051000Y-118369000D02*
X156051000Y-120391000D01*
X156091000Y-118465000D02*
X156091000Y-120295000D01*
X156131000Y-118575000D02*
X156131000Y-120185000D01*
X156171000Y-118703000D02*
X156171000Y-120057000D01*
X156211000Y-118862000D02*
X156211000Y-119898000D01*
X156251000Y-119096000D02*
X156251000Y-119664000D01*
X150845225Y-117905000D02*
X151345225Y-117905000D01*
X151095225Y-117655000D02*
X151095225Y-118155000D01*
X143690000Y-109889775D02*
X144190000Y-109889775D01*
X143940000Y-110139775D02*
X143940000Y-109639775D01*
X145131000Y-104734000D02*
X145699000Y-104734000D01*
X144897000Y-104774000D02*
X145933000Y-104774000D01*
X144738000Y-104814000D02*
X146092000Y-104814000D01*
X144610000Y-104854000D02*
X146220000Y-104854000D01*
X144500000Y-104894000D02*
X146330000Y-104894000D01*
X144404000Y-104934000D02*
X146426000Y-104934000D01*
X144317000Y-104974000D02*
X146513000Y-104974000D01*
X144237000Y-105014000D02*
X146593000Y-105014000D01*
X146455000Y-105054000D02*
X146666000Y-105054000D01*
X144164000Y-105054000D02*
X144375000Y-105054000D01*
X146455000Y-105094000D02*
X146734000Y-105094000D01*
X144096000Y-105094000D02*
X144375000Y-105094000D01*
X146455000Y-105134000D02*
X146798000Y-105134000D01*
X144032000Y-105134000D02*
X144375000Y-105134000D01*
X146455000Y-105174000D02*
X146858000Y-105174000D01*
X143972000Y-105174000D02*
X144375000Y-105174000D01*
X146455000Y-105214000D02*
X146915000Y-105214000D01*
X143915000Y-105214000D02*
X144375000Y-105214000D01*
X146455000Y-105254000D02*
X146969000Y-105254000D01*
X143861000Y-105254000D02*
X144375000Y-105254000D01*
X146455000Y-105294000D02*
X147020000Y-105294000D01*
X143810000Y-105294000D02*
X144375000Y-105294000D01*
X146455000Y-105334000D02*
X147068000Y-105334000D01*
X143762000Y-105334000D02*
X144375000Y-105334000D01*
X146455000Y-105374000D02*
X147114000Y-105374000D01*
X143716000Y-105374000D02*
X144375000Y-105374000D01*
X146455000Y-105414000D02*
X147158000Y-105414000D01*
X143672000Y-105414000D02*
X144375000Y-105414000D01*
X146455000Y-105454000D02*
X147200000Y-105454000D01*
X143630000Y-105454000D02*
X144375000Y-105454000D01*
X146455000Y-105494000D02*
X147241000Y-105494000D01*
X143589000Y-105494000D02*
X144375000Y-105494000D01*
X146455000Y-105534000D02*
X147279000Y-105534000D01*
X143551000Y-105534000D02*
X144375000Y-105534000D01*
X146455000Y-105574000D02*
X147316000Y-105574000D01*
X143514000Y-105574000D02*
X144375000Y-105574000D01*
X146455000Y-105614000D02*
X147352000Y-105614000D01*
X143478000Y-105614000D02*
X144375000Y-105614000D01*
X146455000Y-105654000D02*
X147386000Y-105654000D01*
X143444000Y-105654000D02*
X144375000Y-105654000D01*
X146455000Y-105694000D02*
X147419000Y-105694000D01*
X143411000Y-105694000D02*
X144375000Y-105694000D01*
X146455000Y-105734000D02*
X147450000Y-105734000D01*
X143380000Y-105734000D02*
X144375000Y-105734000D01*
X146455000Y-105774000D02*
X147480000Y-105774000D01*
X143350000Y-105774000D02*
X144375000Y-105774000D01*
X146455000Y-105814000D02*
X147510000Y-105814000D01*
X143320000Y-105814000D02*
X144375000Y-105814000D01*
X146455000Y-105854000D02*
X147537000Y-105854000D01*
X143293000Y-105854000D02*
X144375000Y-105854000D01*
X146455000Y-105894000D02*
X147564000Y-105894000D01*
X143266000Y-105894000D02*
X144375000Y-105894000D01*
X146455000Y-105934000D02*
X147590000Y-105934000D01*
X143240000Y-105934000D02*
X144375000Y-105934000D01*
X146455000Y-105974000D02*
X147615000Y-105974000D01*
X143215000Y-105974000D02*
X144375000Y-105974000D01*
X146455000Y-106014000D02*
X147639000Y-106014000D01*
X143191000Y-106014000D02*
X144375000Y-106014000D01*
X146455000Y-106054000D02*
X147662000Y-106054000D01*
X143168000Y-106054000D02*
X144375000Y-106054000D01*
X146455000Y-106094000D02*
X147683000Y-106094000D01*
X143147000Y-106094000D02*
X144375000Y-106094000D01*
X146455000Y-106134000D02*
X147705000Y-106134000D01*
X143125000Y-106134000D02*
X144375000Y-106134000D01*
X146455000Y-106174000D02*
X147725000Y-106174000D01*
X143105000Y-106174000D02*
X144375000Y-106174000D01*
X146455000Y-106214000D02*
X147744000Y-106214000D01*
X143086000Y-106214000D02*
X144375000Y-106214000D01*
X146455000Y-106254000D02*
X147763000Y-106254000D01*
X143067000Y-106254000D02*
X144375000Y-106254000D01*
X146455000Y-106294000D02*
X147780000Y-106294000D01*
X143050000Y-106294000D02*
X144375000Y-106294000D01*
X146455000Y-106334000D02*
X147797000Y-106334000D01*
X143033000Y-106334000D02*
X144375000Y-106334000D01*
X146455000Y-106374000D02*
X147813000Y-106374000D01*
X143017000Y-106374000D02*
X144375000Y-106374000D01*
X146455000Y-106414000D02*
X147829000Y-106414000D01*
X143001000Y-106414000D02*
X144375000Y-106414000D01*
X146455000Y-106454000D02*
X147843000Y-106454000D01*
X142987000Y-106454000D02*
X144375000Y-106454000D01*
X146455000Y-106494000D02*
X147857000Y-106494000D01*
X142973000Y-106494000D02*
X144375000Y-106494000D01*
X146455000Y-106534000D02*
X147870000Y-106534000D01*
X142960000Y-106534000D02*
X144375000Y-106534000D01*
X146455000Y-106574000D02*
X147883000Y-106574000D01*
X142947000Y-106574000D02*
X144375000Y-106574000D01*
X146455000Y-106614000D02*
X147895000Y-106614000D01*
X142935000Y-106614000D02*
X144375000Y-106614000D01*
X146455000Y-106655000D02*
X147906000Y-106655000D01*
X142924000Y-106655000D02*
X144375000Y-106655000D01*
X146455000Y-106695000D02*
X147916000Y-106695000D01*
X142914000Y-106695000D02*
X144375000Y-106695000D01*
X146455000Y-106735000D02*
X147926000Y-106735000D01*
X142904000Y-106735000D02*
X144375000Y-106735000D01*
X146455000Y-106775000D02*
X147935000Y-106775000D01*
X142895000Y-106775000D02*
X144375000Y-106775000D01*
X146455000Y-106815000D02*
X147943000Y-106815000D01*
X142887000Y-106815000D02*
X144375000Y-106815000D01*
X146455000Y-106855000D02*
X147951000Y-106855000D01*
X142879000Y-106855000D02*
X144375000Y-106855000D01*
X146455000Y-106895000D02*
X147958000Y-106895000D01*
X142872000Y-106895000D02*
X144375000Y-106895000D01*
X146455000Y-106935000D02*
X147965000Y-106935000D01*
X142865000Y-106935000D02*
X144375000Y-106935000D01*
X146455000Y-106975000D02*
X147971000Y-106975000D01*
X142859000Y-106975000D02*
X144375000Y-106975000D01*
X146455000Y-107015000D02*
X147976000Y-107015000D01*
X142854000Y-107015000D02*
X144375000Y-107015000D01*
X146455000Y-107055000D02*
X147980000Y-107055000D01*
X142850000Y-107055000D02*
X144375000Y-107055000D01*
X146455000Y-107095000D02*
X147984000Y-107095000D01*
X142846000Y-107095000D02*
X144375000Y-107095000D01*
X142842000Y-107135000D02*
X147988000Y-107135000D01*
X142839000Y-107175000D02*
X147991000Y-107175000D01*
X142837000Y-107215000D02*
X147993000Y-107215000D01*
X142836000Y-107255000D02*
X147994000Y-107255000D01*
X142835000Y-107295000D02*
X147995000Y-107295000D01*
X142835000Y-107335000D02*
X147995000Y-107335000D01*
X148035000Y-107335000D02*
G75*
G03X148035000Y-107335000I-2620000J0D01*
G01*
X157445225Y-117655000D02*
X157445225Y-118155000D01*
X157195225Y-117905000D02*
X157695225Y-117905000D01*
X162601000Y-119096000D02*
X162601000Y-119664000D01*
X162561000Y-118862000D02*
X162561000Y-119898000D01*
X162521000Y-118703000D02*
X162521000Y-120057000D01*
X162481000Y-118575000D02*
X162481000Y-120185000D01*
X162441000Y-118465000D02*
X162441000Y-120295000D01*
X162401000Y-118369000D02*
X162401000Y-120391000D01*
X162361000Y-118282000D02*
X162361000Y-120478000D01*
X162321000Y-118202000D02*
X162321000Y-120558000D01*
X162281000Y-120420000D02*
X162281000Y-120631000D01*
X162281000Y-118129000D02*
X162281000Y-118340000D01*
X162241000Y-120420000D02*
X162241000Y-120699000D01*
X162241000Y-118061000D02*
X162241000Y-118340000D01*
X162201000Y-120420000D02*
X162201000Y-120763000D01*
X162201000Y-117997000D02*
X162201000Y-118340000D01*
X162161000Y-120420000D02*
X162161000Y-120823000D01*
X162161000Y-117937000D02*
X162161000Y-118340000D01*
X162121000Y-120420000D02*
X162121000Y-120880000D01*
X162121000Y-117880000D02*
X162121000Y-118340000D01*
X162081000Y-120420000D02*
X162081000Y-120934000D01*
X162081000Y-117826000D02*
X162081000Y-118340000D01*
X162041000Y-120420000D02*
X162041000Y-120985000D01*
X162041000Y-117775000D02*
X162041000Y-118340000D01*
X162001000Y-120420000D02*
X162001000Y-121033000D01*
X162001000Y-117727000D02*
X162001000Y-118340000D01*
X161961000Y-120420000D02*
X161961000Y-121079000D01*
X161961000Y-117681000D02*
X161961000Y-118340000D01*
X161921000Y-120420000D02*
X161921000Y-121123000D01*
X161921000Y-117637000D02*
X161921000Y-118340000D01*
X161881000Y-120420000D02*
X161881000Y-121165000D01*
X161881000Y-117595000D02*
X161881000Y-118340000D01*
X161841000Y-120420000D02*
X161841000Y-121206000D01*
X161841000Y-117554000D02*
X161841000Y-118340000D01*
X161801000Y-120420000D02*
X161801000Y-121244000D01*
X161801000Y-117516000D02*
X161801000Y-118340000D01*
X161761000Y-120420000D02*
X161761000Y-121281000D01*
X161761000Y-117479000D02*
X161761000Y-118340000D01*
X161721000Y-120420000D02*
X161721000Y-121317000D01*
X161721000Y-117443000D02*
X161721000Y-118340000D01*
X161681000Y-120420000D02*
X161681000Y-121351000D01*
X161681000Y-117409000D02*
X161681000Y-118340000D01*
X161641000Y-120420000D02*
X161641000Y-121384000D01*
X161641000Y-117376000D02*
X161641000Y-118340000D01*
X161601000Y-120420000D02*
X161601000Y-121415000D01*
X161601000Y-117345000D02*
X161601000Y-118340000D01*
X161561000Y-120420000D02*
X161561000Y-121445000D01*
X161561000Y-117315000D02*
X161561000Y-118340000D01*
X161521000Y-120420000D02*
X161521000Y-121475000D01*
X161521000Y-117285000D02*
X161521000Y-118340000D01*
X161481000Y-120420000D02*
X161481000Y-121502000D01*
X161481000Y-117258000D02*
X161481000Y-118340000D01*
X161441000Y-120420000D02*
X161441000Y-121529000D01*
X161441000Y-117231000D02*
X161441000Y-118340000D01*
X161401000Y-120420000D02*
X161401000Y-121555000D01*
X161401000Y-117205000D02*
X161401000Y-118340000D01*
X161361000Y-120420000D02*
X161361000Y-121580000D01*
X161361000Y-117180000D02*
X161361000Y-118340000D01*
X161321000Y-120420000D02*
X161321000Y-121604000D01*
X161321000Y-117156000D02*
X161321000Y-118340000D01*
X161281000Y-120420000D02*
X161281000Y-121627000D01*
X161281000Y-117133000D02*
X161281000Y-118340000D01*
X161241000Y-120420000D02*
X161241000Y-121648000D01*
X161241000Y-117112000D02*
X161241000Y-118340000D01*
X161201000Y-120420000D02*
X161201000Y-121670000D01*
X161201000Y-117090000D02*
X161201000Y-118340000D01*
X161161000Y-120420000D02*
X161161000Y-121690000D01*
X161161000Y-117070000D02*
X161161000Y-118340000D01*
X161121000Y-120420000D02*
X161121000Y-121709000D01*
X161121000Y-117051000D02*
X161121000Y-118340000D01*
X161081000Y-120420000D02*
X161081000Y-121728000D01*
X161081000Y-117032000D02*
X161081000Y-118340000D01*
X161041000Y-120420000D02*
X161041000Y-121745000D01*
X161041000Y-117015000D02*
X161041000Y-118340000D01*
X161001000Y-120420000D02*
X161001000Y-121762000D01*
X161001000Y-116998000D02*
X161001000Y-118340000D01*
X160961000Y-120420000D02*
X160961000Y-121778000D01*
X160961000Y-116982000D02*
X160961000Y-118340000D01*
X160921000Y-120420000D02*
X160921000Y-121794000D01*
X160921000Y-116966000D02*
X160921000Y-118340000D01*
X160881000Y-120420000D02*
X160881000Y-121808000D01*
X160881000Y-116952000D02*
X160881000Y-118340000D01*
X160841000Y-120420000D02*
X160841000Y-121822000D01*
X160841000Y-116938000D02*
X160841000Y-118340000D01*
X160801000Y-120420000D02*
X160801000Y-121835000D01*
X160801000Y-116925000D02*
X160801000Y-118340000D01*
X160761000Y-120420000D02*
X160761000Y-121848000D01*
X160761000Y-116912000D02*
X160761000Y-118340000D01*
X160721000Y-120420000D02*
X160721000Y-121860000D01*
X160721000Y-116900000D02*
X160721000Y-118340000D01*
X160680000Y-120420000D02*
X160680000Y-121871000D01*
X160680000Y-116889000D02*
X160680000Y-118340000D01*
X160640000Y-120420000D02*
X160640000Y-121881000D01*
X160640000Y-116879000D02*
X160640000Y-118340000D01*
X160600000Y-120420000D02*
X160600000Y-121891000D01*
X160600000Y-116869000D02*
X160600000Y-118340000D01*
X160560000Y-120420000D02*
X160560000Y-121900000D01*
X160560000Y-116860000D02*
X160560000Y-118340000D01*
X160520000Y-120420000D02*
X160520000Y-121908000D01*
X160520000Y-116852000D02*
X160520000Y-118340000D01*
X160480000Y-120420000D02*
X160480000Y-121916000D01*
X160480000Y-116844000D02*
X160480000Y-118340000D01*
X160440000Y-120420000D02*
X160440000Y-121923000D01*
X160440000Y-116837000D02*
X160440000Y-118340000D01*
X160400000Y-120420000D02*
X160400000Y-121930000D01*
X160400000Y-116830000D02*
X160400000Y-118340000D01*
X160360000Y-120420000D02*
X160360000Y-121936000D01*
X160360000Y-116824000D02*
X160360000Y-118340000D01*
X160320000Y-120420000D02*
X160320000Y-121941000D01*
X160320000Y-116819000D02*
X160320000Y-118340000D01*
X160280000Y-120420000D02*
X160280000Y-121945000D01*
X160280000Y-116815000D02*
X160280000Y-118340000D01*
X160240000Y-120420000D02*
X160240000Y-121949000D01*
X160240000Y-116811000D02*
X160240000Y-118340000D01*
X160200000Y-116807000D02*
X160200000Y-121953000D01*
X160160000Y-116804000D02*
X160160000Y-121956000D01*
X160120000Y-116802000D02*
X160120000Y-121958000D01*
X160080000Y-116801000D02*
X160080000Y-121959000D01*
X160040000Y-116800000D02*
X160040000Y-121960000D01*
X160000000Y-116800000D02*
X160000000Y-121960000D01*
X162620000Y-119380000D02*
G75*
G03X162620000Y-119380000I-2620000J0D01*
G01*
X148035000Y-114280000D02*
G75*
G03X148035000Y-114280000I-2620000J0D01*
G01*
X147995000Y-114280000D02*
X142835000Y-114280000D01*
X147995000Y-114320000D02*
X142835000Y-114320000D01*
X147994000Y-114360000D02*
X142836000Y-114360000D01*
X147993000Y-114400000D02*
X142837000Y-114400000D01*
X147991000Y-114440000D02*
X142839000Y-114440000D01*
X147988000Y-114480000D02*
X142842000Y-114480000D01*
X147984000Y-114520000D02*
X146455000Y-114520000D01*
X144375000Y-114520000D02*
X142846000Y-114520000D01*
X147980000Y-114560000D02*
X146455000Y-114560000D01*
X144375000Y-114560000D02*
X142850000Y-114560000D01*
X147976000Y-114600000D02*
X146455000Y-114600000D01*
X144375000Y-114600000D02*
X142854000Y-114600000D01*
X147971000Y-114640000D02*
X146455000Y-114640000D01*
X144375000Y-114640000D02*
X142859000Y-114640000D01*
X147965000Y-114680000D02*
X146455000Y-114680000D01*
X144375000Y-114680000D02*
X142865000Y-114680000D01*
X147958000Y-114720000D02*
X146455000Y-114720000D01*
X144375000Y-114720000D02*
X142872000Y-114720000D01*
X147951000Y-114760000D02*
X146455000Y-114760000D01*
X144375000Y-114760000D02*
X142879000Y-114760000D01*
X147943000Y-114800000D02*
X146455000Y-114800000D01*
X144375000Y-114800000D02*
X142887000Y-114800000D01*
X147935000Y-114840000D02*
X146455000Y-114840000D01*
X144375000Y-114840000D02*
X142895000Y-114840000D01*
X147926000Y-114880000D02*
X146455000Y-114880000D01*
X144375000Y-114880000D02*
X142904000Y-114880000D01*
X147916000Y-114920000D02*
X146455000Y-114920000D01*
X144375000Y-114920000D02*
X142914000Y-114920000D01*
X147906000Y-114960000D02*
X146455000Y-114960000D01*
X144375000Y-114960000D02*
X142924000Y-114960000D01*
X147895000Y-115001000D02*
X146455000Y-115001000D01*
X144375000Y-115001000D02*
X142935000Y-115001000D01*
X147883000Y-115041000D02*
X146455000Y-115041000D01*
X144375000Y-115041000D02*
X142947000Y-115041000D01*
X147870000Y-115081000D02*
X146455000Y-115081000D01*
X144375000Y-115081000D02*
X142960000Y-115081000D01*
X147857000Y-115121000D02*
X146455000Y-115121000D01*
X144375000Y-115121000D02*
X142973000Y-115121000D01*
X147843000Y-115161000D02*
X146455000Y-115161000D01*
X144375000Y-115161000D02*
X142987000Y-115161000D01*
X147829000Y-115201000D02*
X146455000Y-115201000D01*
X144375000Y-115201000D02*
X143001000Y-115201000D01*
X147813000Y-115241000D02*
X146455000Y-115241000D01*
X144375000Y-115241000D02*
X143017000Y-115241000D01*
X147797000Y-115281000D02*
X146455000Y-115281000D01*
X144375000Y-115281000D02*
X143033000Y-115281000D01*
X147780000Y-115321000D02*
X146455000Y-115321000D01*
X144375000Y-115321000D02*
X143050000Y-115321000D01*
X147763000Y-115361000D02*
X146455000Y-115361000D01*
X144375000Y-115361000D02*
X143067000Y-115361000D01*
X147744000Y-115401000D02*
X146455000Y-115401000D01*
X144375000Y-115401000D02*
X143086000Y-115401000D01*
X147725000Y-115441000D02*
X146455000Y-115441000D01*
X144375000Y-115441000D02*
X143105000Y-115441000D01*
X147705000Y-115481000D02*
X146455000Y-115481000D01*
X144375000Y-115481000D02*
X143125000Y-115481000D01*
X147683000Y-115521000D02*
X146455000Y-115521000D01*
X144375000Y-115521000D02*
X143147000Y-115521000D01*
X147662000Y-115561000D02*
X146455000Y-115561000D01*
X144375000Y-115561000D02*
X143168000Y-115561000D01*
X147639000Y-115601000D02*
X146455000Y-115601000D01*
X144375000Y-115601000D02*
X143191000Y-115601000D01*
X147615000Y-115641000D02*
X146455000Y-115641000D01*
X144375000Y-115641000D02*
X143215000Y-115641000D01*
X147590000Y-115681000D02*
X146455000Y-115681000D01*
X144375000Y-115681000D02*
X143240000Y-115681000D01*
X147564000Y-115721000D02*
X146455000Y-115721000D01*
X144375000Y-115721000D02*
X143266000Y-115721000D01*
X147537000Y-115761000D02*
X146455000Y-115761000D01*
X144375000Y-115761000D02*
X143293000Y-115761000D01*
X147510000Y-115801000D02*
X146455000Y-115801000D01*
X144375000Y-115801000D02*
X143320000Y-115801000D01*
X147480000Y-115841000D02*
X146455000Y-115841000D01*
X144375000Y-115841000D02*
X143350000Y-115841000D01*
X147450000Y-115881000D02*
X146455000Y-115881000D01*
X144375000Y-115881000D02*
X143380000Y-115881000D01*
X147419000Y-115921000D02*
X146455000Y-115921000D01*
X144375000Y-115921000D02*
X143411000Y-115921000D01*
X147386000Y-115961000D02*
X146455000Y-115961000D01*
X144375000Y-115961000D02*
X143444000Y-115961000D01*
X147352000Y-116001000D02*
X146455000Y-116001000D01*
X144375000Y-116001000D02*
X143478000Y-116001000D01*
X147316000Y-116041000D02*
X146455000Y-116041000D01*
X144375000Y-116041000D02*
X143514000Y-116041000D01*
X147279000Y-116081000D02*
X146455000Y-116081000D01*
X144375000Y-116081000D02*
X143551000Y-116081000D01*
X147241000Y-116121000D02*
X146455000Y-116121000D01*
X144375000Y-116121000D02*
X143589000Y-116121000D01*
X147200000Y-116161000D02*
X146455000Y-116161000D01*
X144375000Y-116161000D02*
X143630000Y-116161000D01*
X147158000Y-116201000D02*
X146455000Y-116201000D01*
X144375000Y-116201000D02*
X143672000Y-116201000D01*
X147114000Y-116241000D02*
X146455000Y-116241000D01*
X144375000Y-116241000D02*
X143716000Y-116241000D01*
X147068000Y-116281000D02*
X146455000Y-116281000D01*
X144375000Y-116281000D02*
X143762000Y-116281000D01*
X147020000Y-116321000D02*
X146455000Y-116321000D01*
X144375000Y-116321000D02*
X143810000Y-116321000D01*
X146969000Y-116361000D02*
X146455000Y-116361000D01*
X144375000Y-116361000D02*
X143861000Y-116361000D01*
X146915000Y-116401000D02*
X146455000Y-116401000D01*
X144375000Y-116401000D02*
X143915000Y-116401000D01*
X146858000Y-116441000D02*
X146455000Y-116441000D01*
X144375000Y-116441000D02*
X143972000Y-116441000D01*
X146798000Y-116481000D02*
X146455000Y-116481000D01*
X144375000Y-116481000D02*
X144032000Y-116481000D01*
X146734000Y-116521000D02*
X146455000Y-116521000D01*
X144375000Y-116521000D02*
X144096000Y-116521000D01*
X146666000Y-116561000D02*
X146455000Y-116561000D01*
X144375000Y-116561000D02*
X144164000Y-116561000D01*
X146593000Y-116601000D02*
X144237000Y-116601000D01*
X146513000Y-116641000D02*
X144317000Y-116641000D01*
X146426000Y-116681000D02*
X144404000Y-116681000D01*
X146330000Y-116721000D02*
X144500000Y-116721000D01*
X146220000Y-116761000D02*
X144610000Y-116761000D01*
X146092000Y-116801000D02*
X144738000Y-116801000D01*
X145933000Y-116841000D02*
X144897000Y-116841000D01*
X145699000Y-116881000D02*
X145131000Y-116881000D01*
X146890000Y-111475225D02*
X146890000Y-111975225D01*
X147140000Y-111725225D02*
X146640000Y-111725225D01*
X168970000Y-119380000D02*
G75*
G03X168970000Y-119380000I-2620000J0D01*
G01*
X166350000Y-116800000D02*
X166350000Y-121960000D01*
X166390000Y-116800000D02*
X166390000Y-121960000D01*
X166430000Y-116801000D02*
X166430000Y-121959000D01*
X166470000Y-116802000D02*
X166470000Y-121958000D01*
X166510000Y-116804000D02*
X166510000Y-121956000D01*
X166550000Y-116807000D02*
X166550000Y-121953000D01*
X166590000Y-116811000D02*
X166590000Y-118340000D01*
X166590000Y-120420000D02*
X166590000Y-121949000D01*
X166630000Y-116815000D02*
X166630000Y-118340000D01*
X166630000Y-120420000D02*
X166630000Y-121945000D01*
X166670000Y-116819000D02*
X166670000Y-118340000D01*
X166670000Y-120420000D02*
X166670000Y-121941000D01*
X166710000Y-116824000D02*
X166710000Y-118340000D01*
X166710000Y-120420000D02*
X166710000Y-121936000D01*
X166750000Y-116830000D02*
X166750000Y-118340000D01*
X166750000Y-120420000D02*
X166750000Y-121930000D01*
X166790000Y-116837000D02*
X166790000Y-118340000D01*
X166790000Y-120420000D02*
X166790000Y-121923000D01*
X166830000Y-116844000D02*
X166830000Y-118340000D01*
X166830000Y-120420000D02*
X166830000Y-121916000D01*
X166870000Y-116852000D02*
X166870000Y-118340000D01*
X166870000Y-120420000D02*
X166870000Y-121908000D01*
X166910000Y-116860000D02*
X166910000Y-118340000D01*
X166910000Y-120420000D02*
X166910000Y-121900000D01*
X166950000Y-116869000D02*
X166950000Y-118340000D01*
X166950000Y-120420000D02*
X166950000Y-121891000D01*
X166990000Y-116879000D02*
X166990000Y-118340000D01*
X166990000Y-120420000D02*
X166990000Y-121881000D01*
X167030000Y-116889000D02*
X167030000Y-118340000D01*
X167030000Y-120420000D02*
X167030000Y-121871000D01*
X167071000Y-116900000D02*
X167071000Y-118340000D01*
X167071000Y-120420000D02*
X167071000Y-121860000D01*
X167111000Y-116912000D02*
X167111000Y-118340000D01*
X167111000Y-120420000D02*
X167111000Y-121848000D01*
X167151000Y-116925000D02*
X167151000Y-118340000D01*
X167151000Y-120420000D02*
X167151000Y-121835000D01*
X167191000Y-116938000D02*
X167191000Y-118340000D01*
X167191000Y-120420000D02*
X167191000Y-121822000D01*
X167231000Y-116952000D02*
X167231000Y-118340000D01*
X167231000Y-120420000D02*
X167231000Y-121808000D01*
X167271000Y-116966000D02*
X167271000Y-118340000D01*
X167271000Y-120420000D02*
X167271000Y-121794000D01*
X167311000Y-116982000D02*
X167311000Y-118340000D01*
X167311000Y-120420000D02*
X167311000Y-121778000D01*
X167351000Y-116998000D02*
X167351000Y-118340000D01*
X167351000Y-120420000D02*
X167351000Y-121762000D01*
X167391000Y-117015000D02*
X167391000Y-118340000D01*
X167391000Y-120420000D02*
X167391000Y-121745000D01*
X167431000Y-117032000D02*
X167431000Y-118340000D01*
X167431000Y-120420000D02*
X167431000Y-121728000D01*
X167471000Y-117051000D02*
X167471000Y-118340000D01*
X167471000Y-120420000D02*
X167471000Y-121709000D01*
X167511000Y-117070000D02*
X167511000Y-118340000D01*
X167511000Y-120420000D02*
X167511000Y-121690000D01*
X167551000Y-117090000D02*
X167551000Y-118340000D01*
X167551000Y-120420000D02*
X167551000Y-121670000D01*
X167591000Y-117112000D02*
X167591000Y-118340000D01*
X167591000Y-120420000D02*
X167591000Y-121648000D01*
X167631000Y-117133000D02*
X167631000Y-118340000D01*
X167631000Y-120420000D02*
X167631000Y-121627000D01*
X167671000Y-117156000D02*
X167671000Y-118340000D01*
X167671000Y-120420000D02*
X167671000Y-121604000D01*
X167711000Y-117180000D02*
X167711000Y-118340000D01*
X167711000Y-120420000D02*
X167711000Y-121580000D01*
X167751000Y-117205000D02*
X167751000Y-118340000D01*
X167751000Y-120420000D02*
X167751000Y-121555000D01*
X167791000Y-117231000D02*
X167791000Y-118340000D01*
X167791000Y-120420000D02*
X167791000Y-121529000D01*
X167831000Y-117258000D02*
X167831000Y-118340000D01*
X167831000Y-120420000D02*
X167831000Y-121502000D01*
X167871000Y-117285000D02*
X167871000Y-118340000D01*
X167871000Y-120420000D02*
X167871000Y-121475000D01*
X167911000Y-117315000D02*
X167911000Y-118340000D01*
X167911000Y-120420000D02*
X167911000Y-121445000D01*
X167951000Y-117345000D02*
X167951000Y-118340000D01*
X167951000Y-120420000D02*
X167951000Y-121415000D01*
X167991000Y-117376000D02*
X167991000Y-118340000D01*
X167991000Y-120420000D02*
X167991000Y-121384000D01*
X168031000Y-117409000D02*
X168031000Y-118340000D01*
X168031000Y-120420000D02*
X168031000Y-121351000D01*
X168071000Y-117443000D02*
X168071000Y-118340000D01*
X168071000Y-120420000D02*
X168071000Y-121317000D01*
X168111000Y-117479000D02*
X168111000Y-118340000D01*
X168111000Y-120420000D02*
X168111000Y-121281000D01*
X168151000Y-117516000D02*
X168151000Y-118340000D01*
X168151000Y-120420000D02*
X168151000Y-121244000D01*
X168191000Y-117554000D02*
X168191000Y-118340000D01*
X168191000Y-120420000D02*
X168191000Y-121206000D01*
X168231000Y-117595000D02*
X168231000Y-118340000D01*
X168231000Y-120420000D02*
X168231000Y-121165000D01*
X168271000Y-117637000D02*
X168271000Y-118340000D01*
X168271000Y-120420000D02*
X168271000Y-121123000D01*
X168311000Y-117681000D02*
X168311000Y-118340000D01*
X168311000Y-120420000D02*
X168311000Y-121079000D01*
X168351000Y-117727000D02*
X168351000Y-118340000D01*
X168351000Y-120420000D02*
X168351000Y-121033000D01*
X168391000Y-117775000D02*
X168391000Y-118340000D01*
X168391000Y-120420000D02*
X168391000Y-120985000D01*
X168431000Y-117826000D02*
X168431000Y-118340000D01*
X168431000Y-120420000D02*
X168431000Y-120934000D01*
X168471000Y-117880000D02*
X168471000Y-118340000D01*
X168471000Y-120420000D02*
X168471000Y-120880000D01*
X168511000Y-117937000D02*
X168511000Y-118340000D01*
X168511000Y-120420000D02*
X168511000Y-120823000D01*
X168551000Y-117997000D02*
X168551000Y-118340000D01*
X168551000Y-120420000D02*
X168551000Y-120763000D01*
X168591000Y-118061000D02*
X168591000Y-118340000D01*
X168591000Y-120420000D02*
X168591000Y-120699000D01*
X168631000Y-118129000D02*
X168631000Y-118340000D01*
X168631000Y-120420000D02*
X168631000Y-120631000D01*
X168671000Y-118202000D02*
X168671000Y-120558000D01*
X168711000Y-118282000D02*
X168711000Y-120478000D01*
X168751000Y-118369000D02*
X168751000Y-120391000D01*
X168791000Y-118465000D02*
X168791000Y-120295000D01*
X168831000Y-118575000D02*
X168831000Y-120185000D01*
X168871000Y-118703000D02*
X168871000Y-120057000D01*
X168911000Y-118862000D02*
X168911000Y-119898000D01*
X168951000Y-119096000D02*
X168951000Y-119664000D01*
X163545225Y-117905000D02*
X164045225Y-117905000D01*
X163795225Y-117655000D02*
X163795225Y-118155000D01*
X164867335Y-129096392D02*
G75*
G03X161635000Y-128939484I-1672335J-1078608D01*
G01*
X164867335Y-131253608D02*
G75*
G02X161635000Y-131410516I-1672335J1078608D01*
G01*
X164236130Y-129095163D02*
G75*
G03X162154039Y-129095000I-1041130J-1079837D01*
G01*
X164236130Y-131254837D02*
G75*
G02X162154039Y-131255000I-1041130J1079837D01*
G01*
X161635000Y-128939000D02*
X161635000Y-129095000D01*
X161635000Y-131255000D02*
X161635000Y-131411000D01*
X161635000Y-135700000D02*
X161635000Y-135856000D01*
X161635000Y-133384000D02*
X161635000Y-133540000D01*
X164236130Y-135699837D02*
G75*
G02X162154039Y-135700000I-1041130J1079837D01*
G01*
X164236130Y-133540163D02*
G75*
G03X162154039Y-133540000I-1041130J-1079837D01*
G01*
X164867335Y-135698608D02*
G75*
G02X161635000Y-135855516I-1672335J1078608D01*
G01*
X164867335Y-133541392D02*
G75*
G03X161635000Y-133384484I-1672335J-1078608D01*
G01*
X161635000Y-140145000D02*
X161635000Y-140301000D01*
X161635000Y-137829000D02*
X161635000Y-137985000D01*
X164236130Y-140144837D02*
G75*
G02X162154039Y-140145000I-1041130J1079837D01*
G01*
X164236130Y-137985163D02*
G75*
G03X162154039Y-137985000I-1041130J-1079837D01*
G01*
X164867335Y-140143608D02*
G75*
G02X161635000Y-140300516I-1672335J1078608D01*
G01*
X164867335Y-137986392D02*
G75*
G03X161635000Y-137829484I-1672335J-1078608D01*
G01*
X164867335Y-142431392D02*
G75*
G03X161635000Y-142274484I-1672335J-1078608D01*
G01*
X164867335Y-144588608D02*
G75*
G02X161635000Y-144745516I-1672335J1078608D01*
G01*
X164236130Y-142430163D02*
G75*
G03X162154039Y-142430000I-1041130J-1079837D01*
G01*
X164236130Y-144589837D02*
G75*
G02X162154039Y-144590000I-1041130J1079837D01*
G01*
X161635000Y-142274000D02*
X161635000Y-142430000D01*
X161635000Y-144590000D02*
X161635000Y-144746000D01*
X87570000Y-93405000D02*
X92770000Y-93405000D01*
X87570000Y-83185000D02*
X87570000Y-93405000D01*
X92770000Y-80585000D02*
X92770000Y-93405000D01*
X87570000Y-83185000D02*
X90170000Y-83185000D01*
X90170000Y-83185000D02*
X90170000Y-80585000D01*
X90170000Y-80585000D02*
X92770000Y-80585000D01*
X87570000Y-81915000D02*
X87570000Y-80585000D01*
X87570000Y-80585000D02*
X88900000Y-80585000D01*
X87570000Y-146745000D02*
X92770000Y-146745000D01*
X87570000Y-98425000D02*
X87570000Y-146745000D01*
X92770000Y-95825000D02*
X92770000Y-146745000D01*
X87570000Y-98425000D02*
X90170000Y-98425000D01*
X90170000Y-98425000D02*
X90170000Y-95825000D01*
X90170000Y-95825000D02*
X92770000Y-95825000D01*
X87570000Y-97155000D02*
X87570000Y-95825000D01*
X87570000Y-95825000D02*
X88900000Y-95825000D01*
X142815000Y-132775000D02*
X145475000Y-132775000D01*
X142815000Y-127635000D02*
X142815000Y-132775000D01*
X145475000Y-127635000D02*
X145475000Y-132775000D01*
X142815000Y-127635000D02*
X145475000Y-127635000D01*
X142815000Y-126365000D02*
X142815000Y-125035000D01*
X142815000Y-125035000D02*
X144145000Y-125035000D01*
X106740000Y-91500000D02*
X106740000Y-86300000D01*
X99060000Y-91500000D02*
X106740000Y-91500000D01*
X96460000Y-86300000D02*
X106740000Y-86300000D01*
X99060000Y-91500000D02*
X99060000Y-88900000D01*
X99060000Y-88900000D02*
X96460000Y-88900000D01*
X96460000Y-88900000D02*
X96460000Y-86300000D01*
X97790000Y-91500000D02*
X96460000Y-91500000D01*
X96460000Y-91500000D02*
X96460000Y-90170000D01*
X142815000Y-136465000D02*
X144145000Y-136465000D01*
X142815000Y-137795000D02*
X142815000Y-136465000D01*
X142815000Y-139065000D02*
X145475000Y-139065000D01*
X145475000Y-139065000D02*
X145475000Y-144205000D01*
X142815000Y-139065000D02*
X142815000Y-144205000D01*
X142815000Y-144205000D02*
X145475000Y-144205000D01*
X173295000Y-138490000D02*
X178495000Y-138490000D01*
X173295000Y-133350000D02*
X173295000Y-138490000D01*
X178495000Y-130750000D02*
X178495000Y-138490000D01*
X173295000Y-133350000D02*
X175895000Y-133350000D01*
X175895000Y-133350000D02*
X175895000Y-130750000D01*
X175895000Y-130750000D02*
X178495000Y-130750000D01*
X173295000Y-132080000D02*
X173295000Y-130750000D01*
X173295000Y-130750000D02*
X174625000Y-130750000D01*
X173295000Y-127695000D02*
X178495000Y-127695000D01*
X173295000Y-125095000D02*
X173295000Y-127695000D01*
X178495000Y-122495000D02*
X178495000Y-127695000D01*
X173295000Y-125095000D02*
X175895000Y-125095000D01*
X175895000Y-125095000D02*
X175895000Y-122495000D01*
X175895000Y-122495000D02*
X178495000Y-122495000D01*
X173295000Y-123825000D02*
X173295000Y-122495000D01*
X173295000Y-122495000D02*
X174625000Y-122495000D01*
X184250000Y-119165000D02*
X173770000Y-119165000D01*
X173770000Y-119165000D02*
X173770000Y-88195000D01*
X173770000Y-88195000D02*
X184250000Y-88195000D01*
X172875662Y-109470000D02*
X172875662Y-108970000D01*
X172875662Y-108970000D02*
X173308675Y-109220000D01*
X173308675Y-109220000D02*
X172875662Y-109470000D01*
X96350000Y-81150000D02*
X96350000Y-83950000D01*
X96350000Y-83950000D02*
X109390000Y-83950000D01*
X109390000Y-83950000D02*
X109390000Y-81150000D01*
X109390000Y-81150000D02*
X96350000Y-81150000D01*
X99060000Y-81150000D02*
X99060000Y-83950000D01*
X143640000Y-88265000D02*
X140840000Y-88265000D01*
X143640000Y-98595000D02*
X143640000Y-85555000D01*
X140840000Y-98595000D02*
X143640000Y-98595000D01*
X140840000Y-85555000D02*
X140840000Y-98595000D01*
X143640000Y-85555000D02*
X140840000Y-85555000D01*
X170310000Y-129370000D02*
X167510000Y-129370000D01*
X167510000Y-129370000D02*
X167510000Y-142410000D01*
X167510000Y-142410000D02*
X170310000Y-142410000D01*
X170310000Y-142410000D02*
X170310000Y-129370000D01*
X170310000Y-132080000D02*
X167510000Y-132080000D01*
X155305000Y-127575000D02*
G75*
G02X153305000Y-127575000I-1000000J0D01*
G01*
X153305000Y-127575000D02*
X152055000Y-127575000D01*
X152055000Y-127575000D02*
X152055000Y-145475000D01*
X152055000Y-145475000D02*
X156555000Y-145475000D01*
X156555000Y-145475000D02*
X156555000Y-127575000D01*
X156555000Y-127575000D02*
X155305000Y-127575000D01*
X149055000Y-127515000D02*
X149055000Y-145535000D01*
X149055000Y-145535000D02*
X159555000Y-145535000D01*
X159555000Y-145535000D02*
X159555000Y-127515000D01*
X159555000Y-127515000D02*
X149055000Y-127515000D01*
X166100000Y-84395000D02*
G75*
G02X164100000Y-84395000I-1000000J0D01*
G01*
X164100000Y-84395000D02*
X162850000Y-84395000D01*
X162850000Y-84395000D02*
X162850000Y-102295000D01*
X162850000Y-102295000D02*
X167350000Y-102295000D01*
X167350000Y-102295000D02*
X167350000Y-84395000D01*
X167350000Y-84395000D02*
X166100000Y-84395000D01*
X159850000Y-84335000D02*
X159850000Y-102355000D01*
X159850000Y-102355000D02*
X170350000Y-102355000D01*
X170350000Y-102355000D02*
X170350000Y-84335000D01*
X170350000Y-84335000D02*
X159850000Y-84335000D01*
X115935000Y-109795000D02*
G75*
G02X113935000Y-109795000I-1000000J0D01*
G01*
X113935000Y-109795000D02*
X112685000Y-109795000D01*
X112685000Y-109795000D02*
X112685000Y-145475000D01*
X112685000Y-145475000D02*
X117185000Y-145475000D01*
X117185000Y-145475000D02*
X117185000Y-109795000D01*
X117185000Y-109795000D02*
X115935000Y-109795000D01*
X109685000Y-109735000D02*
X109685000Y-145535000D01*
X109685000Y-145535000D02*
X120185000Y-145535000D01*
X120185000Y-145535000D02*
X120185000Y-109735000D01*
X120185000Y-109735000D02*
X109685000Y-109735000D01*
X139870000Y-109735000D02*
X129370000Y-109735000D01*
X139870000Y-145535000D02*
X139870000Y-109735000D01*
X129370000Y-145535000D02*
X139870000Y-145535000D01*
X129370000Y-109735000D02*
X129370000Y-145535000D01*
X136870000Y-109795000D02*
X135620000Y-109795000D01*
X136870000Y-145475000D02*
X136870000Y-109795000D01*
X132370000Y-145475000D02*
X136870000Y-145475000D01*
X132370000Y-109795000D02*
X132370000Y-145475000D01*
X133620000Y-109795000D02*
X132370000Y-109795000D01*
X135620000Y-109795000D02*
G75*
G02X133620000Y-109795000I-1000000J0D01*
G01*
X157650000Y-84335000D02*
X147150000Y-84335000D01*
X157650000Y-102355000D02*
X157650000Y-84335000D01*
X147150000Y-102355000D02*
X157650000Y-102355000D01*
X147150000Y-84335000D02*
X147150000Y-102355000D01*
X154650000Y-84395000D02*
X153400000Y-84395000D01*
X154650000Y-102295000D02*
X154650000Y-84395000D01*
X150150000Y-102295000D02*
X154650000Y-102295000D01*
X150150000Y-84395000D02*
X150150000Y-102295000D01*
X151400000Y-84395000D02*
X150150000Y-84395000D01*
X153400000Y-84395000D02*
G75*
G02X151400000Y-84395000I-1000000J0D01*
G01*
X123360000Y-84335000D02*
X112860000Y-84335000D01*
X123360000Y-104895000D02*
X123360000Y-84335000D01*
X112860000Y-104895000D02*
X123360000Y-104895000D01*
X112860000Y-84335000D02*
X112860000Y-104895000D01*
X120360000Y-84395000D02*
X119110000Y-84395000D01*
X120360000Y-104835000D02*
X120360000Y-84395000D01*
X115860000Y-104835000D02*
X120360000Y-104835000D01*
X115860000Y-84395000D02*
X115860000Y-104835000D01*
X117110000Y-84395000D02*
X115860000Y-84395000D01*
X119110000Y-84395000D02*
G75*
G02X117110000Y-84395000I-1000000J0D01*
G01*
X137965000Y-84335000D02*
X127465000Y-84335000D01*
X137965000Y-102355000D02*
X137965000Y-84335000D01*
X127465000Y-102355000D02*
X137965000Y-102355000D01*
X127465000Y-84335000D02*
X127465000Y-102355000D01*
X134965000Y-84395000D02*
X133715000Y-84395000D01*
X134965000Y-102295000D02*
X134965000Y-84395000D01*
X130465000Y-102295000D02*
X134965000Y-102295000D01*
X130465000Y-84395000D02*
X130465000Y-102295000D01*
X131715000Y-84395000D02*
X130465000Y-84395000D01*
X133715000Y-84395000D02*
G75*
G02X131715000Y-84395000I-1000000J0D01*
G01*
X103235000Y-119955000D02*
G75*
G02X101235000Y-119955000I-1000000J0D01*
G01*
X101235000Y-119955000D02*
X99985000Y-119955000D01*
X99985000Y-119955000D02*
X99985000Y-145475000D01*
X99985000Y-145475000D02*
X104485000Y-145475000D01*
X104485000Y-145475000D02*
X104485000Y-119955000D01*
X104485000Y-119955000D02*
X103235000Y-119955000D01*
X96985000Y-119895000D02*
X96985000Y-145535000D01*
X96985000Y-145535000D02*
X107485000Y-145535000D01*
X107485000Y-145535000D02*
X107485000Y-119895000D01*
X107485000Y-119895000D02*
X96985000Y-119895000D01*
X149800000Y-109490000D02*
G75*
G02X149800000Y-111490000I0J-1000000D01*
G01*
X149800000Y-111490000D02*
X149800000Y-112740000D01*
X149800000Y-112740000D02*
X170240000Y-112740000D01*
X170240000Y-112740000D02*
X170240000Y-108240000D01*
X170240000Y-108240000D02*
X149800000Y-108240000D01*
X149800000Y-108240000D02*
X149800000Y-109490000D01*
X149740000Y-115740000D02*
X170300000Y-115740000D01*
X170300000Y-115740000D02*
X170300000Y-105240000D01*
X170300000Y-105240000D02*
X149740000Y-105240000D01*
X149740000Y-105240000D02*
X149740000Y-115740000D01*
X122570000Y-139550000D02*
G75*
G03X127620000Y-139550000I2525000J0D01*
G01*
X122570000Y-133300000D02*
G75*
G02X127620000Y-133300000I2525000J0D01*
G01*
X122570000Y-133300000D02*
X122570000Y-139550000D01*
X127620000Y-133300000D02*
X127620000Y-139550000D01*
X127620000Y-115520000D02*
X127620000Y-121770000D01*
X122570000Y-115520000D02*
X122570000Y-121770000D01*
X122570000Y-115520000D02*
G75*
G02X127620000Y-115520000I2525000J0D01*
G01*
X122570000Y-121770000D02*
G75*
G03X127620000Y-121770000I2525000J0D01*
G01*
D10*
X122277142Y-129071666D02*
X122324761Y-129119285D01*
X122372380Y-129262142D01*
X122372380Y-129357380D01*
X122324761Y-129500238D01*
X122229523Y-129595476D01*
X122134285Y-129643095D01*
X121943809Y-129690714D01*
X121800952Y-129690714D01*
X121610476Y-129643095D01*
X121515238Y-129595476D01*
X121420000Y-129500238D01*
X121372380Y-129357380D01*
X121372380Y-129262142D01*
X121420000Y-129119285D01*
X121467619Y-129071666D01*
X122372380Y-128119285D02*
X122372380Y-128690714D01*
X122372380Y-128405000D02*
X121372380Y-128405000D01*
X121515238Y-128500238D01*
X121610476Y-128595476D01*
X121658095Y-128690714D01*
X122277142Y-144311666D02*
X122324761Y-144359285D01*
X122372380Y-144502142D01*
X122372380Y-144597380D01*
X122324761Y-144740238D01*
X122229523Y-144835476D01*
X122134285Y-144883095D01*
X121943809Y-144930714D01*
X121800952Y-144930714D01*
X121610476Y-144883095D01*
X121515238Y-144835476D01*
X121420000Y-144740238D01*
X121372380Y-144597380D01*
X121372380Y-144502142D01*
X121420000Y-144359285D01*
X121467619Y-144311666D01*
X121467619Y-143930714D02*
X121420000Y-143883095D01*
X121372380Y-143787857D01*
X121372380Y-143549761D01*
X121420000Y-143454523D01*
X121467619Y-143406904D01*
X121562857Y-143359285D01*
X121658095Y-143359285D01*
X121800952Y-143406904D01*
X122372380Y-143978333D01*
X122372380Y-143359285D01*
X97603333Y-98207142D02*
X97555714Y-98254761D01*
X97412857Y-98302380D01*
X97317619Y-98302380D01*
X97174761Y-98254761D01*
X97079523Y-98159523D01*
X97031904Y-98064285D01*
X96984285Y-97873809D01*
X96984285Y-97730952D01*
X97031904Y-97540476D01*
X97079523Y-97445238D01*
X97174761Y-97350000D01*
X97317619Y-97302380D01*
X97412857Y-97302380D01*
X97555714Y-97350000D01*
X97603333Y-97397619D01*
X97936666Y-97302380D02*
X98555714Y-97302380D01*
X98222380Y-97683333D01*
X98365238Y-97683333D01*
X98460476Y-97730952D01*
X98508095Y-97778571D01*
X98555714Y-97873809D01*
X98555714Y-98111904D01*
X98508095Y-98207142D01*
X98460476Y-98254761D01*
X98365238Y-98302380D01*
X98079523Y-98302380D01*
X97984285Y-98254761D01*
X97936666Y-98207142D01*
X161123333Y-82907142D02*
X161075714Y-82954761D01*
X160932857Y-83002380D01*
X160837619Y-83002380D01*
X160694761Y-82954761D01*
X160599523Y-82859523D01*
X160551904Y-82764285D01*
X160504285Y-82573809D01*
X160504285Y-82430952D01*
X160551904Y-82240476D01*
X160599523Y-82145238D01*
X160694761Y-82050000D01*
X160837619Y-82002380D01*
X160932857Y-82002380D01*
X161075714Y-82050000D01*
X161123333Y-82097619D01*
X161980476Y-82335714D02*
X161980476Y-83002380D01*
X161742380Y-81954761D02*
X161504285Y-82669047D01*
X162123333Y-82669047D01*
X95083333Y-118467142D02*
X95035714Y-118514761D01*
X94892857Y-118562380D01*
X94797619Y-118562380D01*
X94654761Y-118514761D01*
X94559523Y-118419523D01*
X94511904Y-118324285D01*
X94464285Y-118133809D01*
X94464285Y-117990952D01*
X94511904Y-117800476D01*
X94559523Y-117705238D01*
X94654761Y-117610000D01*
X94797619Y-117562380D01*
X94892857Y-117562380D01*
X95035714Y-117610000D01*
X95083333Y-117657619D01*
X95988095Y-117562380D02*
X95511904Y-117562380D01*
X95464285Y-118038571D01*
X95511904Y-117990952D01*
X95607142Y-117943333D01*
X95845238Y-117943333D01*
X95940476Y-117990952D01*
X95988095Y-118038571D01*
X96035714Y-118133809D01*
X96035714Y-118371904D01*
X95988095Y-118467142D01*
X95940476Y-118514761D01*
X95845238Y-118562380D01*
X95607142Y-118562380D01*
X95511904Y-118514761D01*
X95464285Y-118467142D01*
X150328333Y-126087142D02*
X150280714Y-126134761D01*
X150137857Y-126182380D01*
X150042619Y-126182380D01*
X149899761Y-126134761D01*
X149804523Y-126039523D01*
X149756904Y-125944285D01*
X149709285Y-125753809D01*
X149709285Y-125610952D01*
X149756904Y-125420476D01*
X149804523Y-125325238D01*
X149899761Y-125230000D01*
X150042619Y-125182380D01*
X150137857Y-125182380D01*
X150280714Y-125230000D01*
X150328333Y-125277619D01*
X151185476Y-125182380D02*
X150995000Y-125182380D01*
X150899761Y-125230000D01*
X150852142Y-125277619D01*
X150756904Y-125420476D01*
X150709285Y-125610952D01*
X150709285Y-125991904D01*
X150756904Y-126087142D01*
X150804523Y-126134761D01*
X150899761Y-126182380D01*
X151090238Y-126182380D01*
X151185476Y-126134761D01*
X151233095Y-126087142D01*
X151280714Y-125991904D01*
X151280714Y-125753809D01*
X151233095Y-125658571D01*
X151185476Y-125610952D01*
X151090238Y-125563333D01*
X150899761Y-125563333D01*
X150804523Y-125610952D01*
X150756904Y-125658571D01*
X150709285Y-125753809D01*
X122277142Y-111291666D02*
X122324761Y-111339285D01*
X122372380Y-111482142D01*
X122372380Y-111577380D01*
X122324761Y-111720238D01*
X122229523Y-111815476D01*
X122134285Y-111863095D01*
X121943809Y-111910714D01*
X121800952Y-111910714D01*
X121610476Y-111863095D01*
X121515238Y-111815476D01*
X121420000Y-111720238D01*
X121372380Y-111577380D01*
X121372380Y-111482142D01*
X121420000Y-111339285D01*
X121467619Y-111291666D01*
X121372380Y-110958333D02*
X121372380Y-110291666D01*
X122372380Y-110720238D01*
X122277142Y-125261666D02*
X122324761Y-125309285D01*
X122372380Y-125452142D01*
X122372380Y-125547380D01*
X122324761Y-125690238D01*
X122229523Y-125785476D01*
X122134285Y-125833095D01*
X121943809Y-125880714D01*
X121800952Y-125880714D01*
X121610476Y-125833095D01*
X121515238Y-125785476D01*
X121420000Y-125690238D01*
X121372380Y-125547380D01*
X121372380Y-125452142D01*
X121420000Y-125309285D01*
X121467619Y-125261666D01*
X121800952Y-124690238D02*
X121753333Y-124785476D01*
X121705714Y-124833095D01*
X121610476Y-124880714D01*
X121562857Y-124880714D01*
X121467619Y-124833095D01*
X121420000Y-124785476D01*
X121372380Y-124690238D01*
X121372380Y-124499761D01*
X121420000Y-124404523D01*
X121467619Y-124356904D01*
X121562857Y-124309285D01*
X121610476Y-124309285D01*
X121705714Y-124356904D01*
X121753333Y-124404523D01*
X121800952Y-124499761D01*
X121800952Y-124690238D01*
X121848571Y-124785476D01*
X121896190Y-124833095D01*
X121991428Y-124880714D01*
X122181904Y-124880714D01*
X122277142Y-124833095D01*
X122324761Y-124785476D01*
X122372380Y-124690238D01*
X122372380Y-124499761D01*
X122324761Y-124404523D01*
X122277142Y-124356904D01*
X122181904Y-124309285D01*
X121991428Y-124309285D01*
X121896190Y-124356904D01*
X121848571Y-124404523D01*
X121800952Y-124499761D01*
X148423333Y-82907142D02*
X148375714Y-82954761D01*
X148232857Y-83002380D01*
X148137619Y-83002380D01*
X147994761Y-82954761D01*
X147899523Y-82859523D01*
X147851904Y-82764285D01*
X147804285Y-82573809D01*
X147804285Y-82430952D01*
X147851904Y-82240476D01*
X147899523Y-82145238D01*
X147994761Y-82050000D01*
X148137619Y-82002380D01*
X148232857Y-82002380D01*
X148375714Y-82050000D01*
X148423333Y-82097619D01*
X148899523Y-83002380D02*
X149090000Y-83002380D01*
X149185238Y-82954761D01*
X149232857Y-82907142D01*
X149328095Y-82764285D01*
X149375714Y-82573809D01*
X149375714Y-82192857D01*
X149328095Y-82097619D01*
X149280476Y-82050000D01*
X149185238Y-82002380D01*
X148994761Y-82002380D01*
X148899523Y-82050000D01*
X148851904Y-82097619D01*
X148804285Y-82192857D01*
X148804285Y-82430952D01*
X148851904Y-82526190D01*
X148899523Y-82573809D01*
X148994761Y-82621428D01*
X149185238Y-82621428D01*
X149280476Y-82573809D01*
X149328095Y-82526190D01*
X149375714Y-82430952D01*
X128262142Y-82907142D02*
X128214523Y-82954761D01*
X128071666Y-83002380D01*
X127976428Y-83002380D01*
X127833571Y-82954761D01*
X127738333Y-82859523D01*
X127690714Y-82764285D01*
X127643095Y-82573809D01*
X127643095Y-82430952D01*
X127690714Y-82240476D01*
X127738333Y-82145238D01*
X127833571Y-82050000D01*
X127976428Y-82002380D01*
X128071666Y-82002380D01*
X128214523Y-82050000D01*
X128262142Y-82097619D01*
X129214523Y-83002380D02*
X128643095Y-83002380D01*
X128928809Y-83002380D02*
X128928809Y-82002380D01*
X128833571Y-82145238D01*
X128738333Y-82240476D01*
X128643095Y-82288095D01*
X129833571Y-82002380D02*
X129928809Y-82002380D01*
X130024047Y-82050000D01*
X130071666Y-82097619D01*
X130119285Y-82192857D01*
X130166904Y-82383333D01*
X130166904Y-82621428D01*
X130119285Y-82811904D01*
X130071666Y-82907142D01*
X130024047Y-82954761D01*
X129928809Y-83002380D01*
X129833571Y-83002380D01*
X129738333Y-82954761D01*
X129690714Y-82907142D01*
X129643095Y-82811904D01*
X129595476Y-82621428D01*
X129595476Y-82383333D01*
X129643095Y-82192857D01*
X129690714Y-82097619D01*
X129738333Y-82050000D01*
X129833571Y-82002380D01*
X130167142Y-108307142D02*
X130119523Y-108354761D01*
X129976666Y-108402380D01*
X129881428Y-108402380D01*
X129738571Y-108354761D01*
X129643333Y-108259523D01*
X129595714Y-108164285D01*
X129548095Y-107973809D01*
X129548095Y-107830952D01*
X129595714Y-107640476D01*
X129643333Y-107545238D01*
X129738571Y-107450000D01*
X129881428Y-107402380D01*
X129976666Y-107402380D01*
X130119523Y-107450000D01*
X130167142Y-107497619D01*
X131119523Y-108402380D02*
X130548095Y-108402380D01*
X130833809Y-108402380D02*
X130833809Y-107402380D01*
X130738571Y-107545238D01*
X130643333Y-107640476D01*
X130548095Y-107688095D01*
X132071904Y-108402380D02*
X131500476Y-108402380D01*
X131786190Y-108402380D02*
X131786190Y-107402380D01*
X131690952Y-107545238D01*
X131595714Y-107640476D01*
X131500476Y-107688095D01*
X113657142Y-82907142D02*
X113609523Y-82954761D01*
X113466666Y-83002380D01*
X113371428Y-83002380D01*
X113228571Y-82954761D01*
X113133333Y-82859523D01*
X113085714Y-82764285D01*
X113038095Y-82573809D01*
X113038095Y-82430952D01*
X113085714Y-82240476D01*
X113133333Y-82145238D01*
X113228571Y-82050000D01*
X113371428Y-82002380D01*
X113466666Y-82002380D01*
X113609523Y-82050000D01*
X113657142Y-82097619D01*
X114609523Y-83002380D02*
X114038095Y-83002380D01*
X114323809Y-83002380D02*
X114323809Y-82002380D01*
X114228571Y-82145238D01*
X114133333Y-82240476D01*
X114038095Y-82288095D01*
X114990476Y-82097619D02*
X115038095Y-82050000D01*
X115133333Y-82002380D01*
X115371428Y-82002380D01*
X115466666Y-82050000D01*
X115514285Y-82097619D01*
X115561904Y-82192857D01*
X115561904Y-82288095D01*
X115514285Y-82430952D01*
X114942857Y-83002380D01*
X115561904Y-83002380D01*
X110482142Y-108307142D02*
X110434523Y-108354761D01*
X110291666Y-108402380D01*
X110196428Y-108402380D01*
X110053571Y-108354761D01*
X109958333Y-108259523D01*
X109910714Y-108164285D01*
X109863095Y-107973809D01*
X109863095Y-107830952D01*
X109910714Y-107640476D01*
X109958333Y-107545238D01*
X110053571Y-107450000D01*
X110196428Y-107402380D01*
X110291666Y-107402380D01*
X110434523Y-107450000D01*
X110482142Y-107497619D01*
X111434523Y-108402380D02*
X110863095Y-108402380D01*
X111148809Y-108402380D02*
X111148809Y-107402380D01*
X111053571Y-107545238D01*
X110958333Y-107640476D01*
X110863095Y-107688095D01*
X111767857Y-107402380D02*
X112386904Y-107402380D01*
X112053571Y-107783333D01*
X112196428Y-107783333D01*
X112291666Y-107830952D01*
X112339285Y-107878571D01*
X112386904Y-107973809D01*
X112386904Y-108211904D01*
X112339285Y-108307142D01*
X112291666Y-108354761D01*
X112196428Y-108402380D01*
X111910714Y-108402380D01*
X111815476Y-108354761D01*
X111767857Y-108307142D01*
X149852142Y-122277142D02*
X149804523Y-122324761D01*
X149661666Y-122372380D01*
X149566428Y-122372380D01*
X149423571Y-122324761D01*
X149328333Y-122229523D01*
X149280714Y-122134285D01*
X149233095Y-121943809D01*
X149233095Y-121800952D01*
X149280714Y-121610476D01*
X149328333Y-121515238D01*
X149423571Y-121420000D01*
X149566428Y-121372380D01*
X149661666Y-121372380D01*
X149804523Y-121420000D01*
X149852142Y-121467619D01*
X150804523Y-122372380D02*
X150233095Y-122372380D01*
X150518809Y-122372380D02*
X150518809Y-121372380D01*
X150423571Y-121515238D01*
X150328333Y-121610476D01*
X150233095Y-121658095D01*
X151661666Y-121705714D02*
X151661666Y-122372380D01*
X151423571Y-121324761D02*
X151185476Y-122039047D01*
X151804523Y-122039047D01*
X142597142Y-110497857D02*
X142644761Y-110545476D01*
X142692380Y-110688333D01*
X142692380Y-110783571D01*
X142644761Y-110926428D01*
X142549523Y-111021666D01*
X142454285Y-111069285D01*
X142263809Y-111116904D01*
X142120952Y-111116904D01*
X141930476Y-111069285D01*
X141835238Y-111021666D01*
X141740000Y-110926428D01*
X141692380Y-110783571D01*
X141692380Y-110688333D01*
X141740000Y-110545476D01*
X141787619Y-110497857D01*
X142692380Y-109545476D02*
X142692380Y-110116904D01*
X142692380Y-109831190D02*
X141692380Y-109831190D01*
X141835238Y-109926428D01*
X141930476Y-110021666D01*
X141978095Y-110116904D01*
X141692380Y-108640714D02*
X141692380Y-109116904D01*
X142168571Y-109164523D01*
X142120952Y-109116904D01*
X142073333Y-109021666D01*
X142073333Y-108783571D01*
X142120952Y-108688333D01*
X142168571Y-108640714D01*
X142263809Y-108593095D01*
X142501904Y-108593095D01*
X142597142Y-108640714D01*
X142644761Y-108688333D01*
X142692380Y-108783571D01*
X142692380Y-109021666D01*
X142644761Y-109116904D01*
X142597142Y-109164523D01*
X156837142Y-122277142D02*
X156789523Y-122324761D01*
X156646666Y-122372380D01*
X156551428Y-122372380D01*
X156408571Y-122324761D01*
X156313333Y-122229523D01*
X156265714Y-122134285D01*
X156218095Y-121943809D01*
X156218095Y-121800952D01*
X156265714Y-121610476D01*
X156313333Y-121515238D01*
X156408571Y-121420000D01*
X156551428Y-121372380D01*
X156646666Y-121372380D01*
X156789523Y-121420000D01*
X156837142Y-121467619D01*
X157789523Y-122372380D02*
X157218095Y-122372380D01*
X157503809Y-122372380D02*
X157503809Y-121372380D01*
X157408571Y-121515238D01*
X157313333Y-121610476D01*
X157218095Y-121658095D01*
X158646666Y-121372380D02*
X158456190Y-121372380D01*
X158360952Y-121420000D01*
X158313333Y-121467619D01*
X158218095Y-121610476D01*
X158170476Y-121800952D01*
X158170476Y-122181904D01*
X158218095Y-122277142D01*
X158265714Y-122324761D01*
X158360952Y-122372380D01*
X158551428Y-122372380D01*
X158646666Y-122324761D01*
X158694285Y-122277142D01*
X158741904Y-122181904D01*
X158741904Y-121943809D01*
X158694285Y-121848571D01*
X158646666Y-121800952D01*
X158551428Y-121753333D01*
X158360952Y-121753333D01*
X158265714Y-121800952D01*
X158218095Y-121848571D01*
X158170476Y-121943809D01*
X142597142Y-117482857D02*
X142644761Y-117530476D01*
X142692380Y-117673333D01*
X142692380Y-117768571D01*
X142644761Y-117911428D01*
X142549523Y-118006666D01*
X142454285Y-118054285D01*
X142263809Y-118101904D01*
X142120952Y-118101904D01*
X141930476Y-118054285D01*
X141835238Y-118006666D01*
X141740000Y-117911428D01*
X141692380Y-117768571D01*
X141692380Y-117673333D01*
X141740000Y-117530476D01*
X141787619Y-117482857D01*
X142692380Y-116530476D02*
X142692380Y-117101904D01*
X142692380Y-116816190D02*
X141692380Y-116816190D01*
X141835238Y-116911428D01*
X141930476Y-117006666D01*
X141978095Y-117101904D01*
X141692380Y-116197142D02*
X141692380Y-115530476D01*
X142692380Y-115959047D01*
X163187142Y-122277142D02*
X163139523Y-122324761D01*
X162996666Y-122372380D01*
X162901428Y-122372380D01*
X162758571Y-122324761D01*
X162663333Y-122229523D01*
X162615714Y-122134285D01*
X162568095Y-121943809D01*
X162568095Y-121800952D01*
X162615714Y-121610476D01*
X162663333Y-121515238D01*
X162758571Y-121420000D01*
X162901428Y-121372380D01*
X162996666Y-121372380D01*
X163139523Y-121420000D01*
X163187142Y-121467619D01*
X164139523Y-122372380D02*
X163568095Y-122372380D01*
X163853809Y-122372380D02*
X163853809Y-121372380D01*
X163758571Y-121515238D01*
X163663333Y-121610476D01*
X163568095Y-121658095D01*
X164710952Y-121800952D02*
X164615714Y-121753333D01*
X164568095Y-121705714D01*
X164520476Y-121610476D01*
X164520476Y-121562857D01*
X164568095Y-121467619D01*
X164615714Y-121420000D01*
X164710952Y-121372380D01*
X164901428Y-121372380D01*
X164996666Y-121420000D01*
X165044285Y-121467619D01*
X165091904Y-121562857D01*
X165091904Y-121610476D01*
X165044285Y-121705714D01*
X164996666Y-121753333D01*
X164901428Y-121800952D01*
X164710952Y-121800952D01*
X164615714Y-121848571D01*
X164568095Y-121896190D01*
X164520476Y-121991428D01*
X164520476Y-122181904D01*
X164568095Y-122277142D01*
X164615714Y-122324761D01*
X164710952Y-122372380D01*
X164901428Y-122372380D01*
X164996666Y-122324761D01*
X165044285Y-122277142D01*
X165091904Y-122181904D01*
X165091904Y-121991428D01*
X165044285Y-121896190D01*
X164996666Y-121848571D01*
X164901428Y-121800952D01*
X164996904Y-128722380D02*
X164996904Y-127722380D01*
X165235000Y-127722380D01*
X165377857Y-127770000D01*
X165473095Y-127865238D01*
X165520714Y-127960476D01*
X165568333Y-128150952D01*
X165568333Y-128293809D01*
X165520714Y-128484285D01*
X165473095Y-128579523D01*
X165377857Y-128674761D01*
X165235000Y-128722380D01*
X164996904Y-128722380D01*
X166520714Y-128722380D02*
X165949285Y-128722380D01*
X166235000Y-128722380D02*
X166235000Y-127722380D01*
X166139761Y-127865238D01*
X166044523Y-127960476D01*
X165949285Y-128008095D01*
X164996904Y-133167380D02*
X164996904Y-132167380D01*
X165235000Y-132167380D01*
X165377857Y-132215000D01*
X165473095Y-132310238D01*
X165520714Y-132405476D01*
X165568333Y-132595952D01*
X165568333Y-132738809D01*
X165520714Y-132929285D01*
X165473095Y-133024523D01*
X165377857Y-133119761D01*
X165235000Y-133167380D01*
X164996904Y-133167380D01*
X165949285Y-132262619D02*
X165996904Y-132215000D01*
X166092142Y-132167380D01*
X166330238Y-132167380D01*
X166425476Y-132215000D01*
X166473095Y-132262619D01*
X166520714Y-132357857D01*
X166520714Y-132453095D01*
X166473095Y-132595952D01*
X165901666Y-133167380D01*
X166520714Y-133167380D01*
X164996904Y-137612380D02*
X164996904Y-136612380D01*
X165235000Y-136612380D01*
X165377857Y-136660000D01*
X165473095Y-136755238D01*
X165520714Y-136850476D01*
X165568333Y-137040952D01*
X165568333Y-137183809D01*
X165520714Y-137374285D01*
X165473095Y-137469523D01*
X165377857Y-137564761D01*
X165235000Y-137612380D01*
X164996904Y-137612380D01*
X165901666Y-136612380D02*
X166520714Y-136612380D01*
X166187380Y-136993333D01*
X166330238Y-136993333D01*
X166425476Y-137040952D01*
X166473095Y-137088571D01*
X166520714Y-137183809D01*
X166520714Y-137421904D01*
X166473095Y-137517142D01*
X166425476Y-137564761D01*
X166330238Y-137612380D01*
X166044523Y-137612380D01*
X165949285Y-137564761D01*
X165901666Y-137517142D01*
X164996904Y-142057380D02*
X164996904Y-141057380D01*
X165235000Y-141057380D01*
X165377857Y-141105000D01*
X165473095Y-141200238D01*
X165520714Y-141295476D01*
X165568333Y-141485952D01*
X165568333Y-141628809D01*
X165520714Y-141819285D01*
X165473095Y-141914523D01*
X165377857Y-142009761D01*
X165235000Y-142057380D01*
X164996904Y-142057380D01*
X166425476Y-141390714D02*
X166425476Y-142057380D01*
X166187380Y-141009761D02*
X165949285Y-141724047D01*
X166568333Y-141724047D01*
X89836666Y-79037380D02*
X89836666Y-79751666D01*
X89789047Y-79894523D01*
X89693809Y-79989761D01*
X89550952Y-80037380D01*
X89455714Y-80037380D01*
X90836666Y-80037380D02*
X90265238Y-80037380D01*
X90550952Y-80037380D02*
X90550952Y-79037380D01*
X90455714Y-79180238D01*
X90360476Y-79275476D01*
X90265238Y-79323095D01*
X89836666Y-94277380D02*
X89836666Y-94991666D01*
X89789047Y-95134523D01*
X89693809Y-95229761D01*
X89550952Y-95277380D01*
X89455714Y-95277380D01*
X90265238Y-94372619D02*
X90312857Y-94325000D01*
X90408095Y-94277380D01*
X90646190Y-94277380D01*
X90741428Y-94325000D01*
X90789047Y-94372619D01*
X90836666Y-94467857D01*
X90836666Y-94563095D01*
X90789047Y-94705952D01*
X90217619Y-95277380D01*
X90836666Y-95277380D01*
X143811666Y-123487380D02*
X143811666Y-124201666D01*
X143764047Y-124344523D01*
X143668809Y-124439761D01*
X143525952Y-124487380D01*
X143430714Y-124487380D01*
X144192619Y-123487380D02*
X144811666Y-123487380D01*
X144478333Y-123868333D01*
X144621190Y-123868333D01*
X144716428Y-123915952D01*
X144764047Y-123963571D01*
X144811666Y-124058809D01*
X144811666Y-124296904D01*
X144764047Y-124392142D01*
X144716428Y-124439761D01*
X144621190Y-124487380D01*
X144335476Y-124487380D01*
X144240238Y-124439761D01*
X144192619Y-124392142D01*
X94912380Y-89233333D02*
X95626666Y-89233333D01*
X95769523Y-89280952D01*
X95864761Y-89376190D01*
X95912380Y-89519047D01*
X95912380Y-89614285D01*
X95245714Y-88328571D02*
X95912380Y-88328571D01*
X94864761Y-88566666D02*
X95579047Y-88804761D01*
X95579047Y-88185714D01*
X143811666Y-134917380D02*
X143811666Y-135631666D01*
X143764047Y-135774523D01*
X143668809Y-135869761D01*
X143525952Y-135917380D01*
X143430714Y-135917380D01*
X144764047Y-134917380D02*
X144287857Y-134917380D01*
X144240238Y-135393571D01*
X144287857Y-135345952D01*
X144383095Y-135298333D01*
X144621190Y-135298333D01*
X144716428Y-135345952D01*
X144764047Y-135393571D01*
X144811666Y-135488809D01*
X144811666Y-135726904D01*
X144764047Y-135822142D01*
X144716428Y-135869761D01*
X144621190Y-135917380D01*
X144383095Y-135917380D01*
X144287857Y-135869761D01*
X144240238Y-135822142D01*
X175561666Y-129202380D02*
X175561666Y-129916666D01*
X175514047Y-130059523D01*
X175418809Y-130154761D01*
X175275952Y-130202380D01*
X175180714Y-130202380D01*
X176466428Y-129202380D02*
X176275952Y-129202380D01*
X176180714Y-129250000D01*
X176133095Y-129297619D01*
X176037857Y-129440476D01*
X175990238Y-129630952D01*
X175990238Y-130011904D01*
X176037857Y-130107142D01*
X176085476Y-130154761D01*
X176180714Y-130202380D01*
X176371190Y-130202380D01*
X176466428Y-130154761D01*
X176514047Y-130107142D01*
X176561666Y-130011904D01*
X176561666Y-129773809D01*
X176514047Y-129678571D01*
X176466428Y-129630952D01*
X176371190Y-129583333D01*
X176180714Y-129583333D01*
X176085476Y-129630952D01*
X176037857Y-129678571D01*
X175990238Y-129773809D01*
X175561666Y-120947380D02*
X175561666Y-121661666D01*
X175514047Y-121804523D01*
X175418809Y-121899761D01*
X175275952Y-121947380D01*
X175180714Y-121947380D01*
X175942619Y-120947380D02*
X176609285Y-120947380D01*
X176180714Y-121947380D01*
X172807380Y-86693333D02*
X173521666Y-86693333D01*
X173664523Y-86740952D01*
X173759761Y-86836190D01*
X173807380Y-86979047D01*
X173807380Y-87074285D01*
X173235952Y-86074285D02*
X173188333Y-86169523D01*
X173140714Y-86217142D01*
X173045476Y-86264761D01*
X172997857Y-86264761D01*
X172902619Y-86217142D01*
X172855000Y-86169523D01*
X172807380Y-86074285D01*
X172807380Y-85883809D01*
X172855000Y-85788571D01*
X172902619Y-85740952D01*
X172997857Y-85693333D01*
X173045476Y-85693333D01*
X173140714Y-85740952D01*
X173188333Y-85788571D01*
X173235952Y-85883809D01*
X173235952Y-86074285D01*
X173283571Y-86169523D01*
X173331190Y-86217142D01*
X173426428Y-86264761D01*
X173616904Y-86264761D01*
X173712142Y-86217142D01*
X173759761Y-86169523D01*
X173807380Y-86074285D01*
X173807380Y-85883809D01*
X173759761Y-85788571D01*
X173712142Y-85740952D01*
X173616904Y-85693333D01*
X173426428Y-85693333D01*
X173331190Y-85740952D01*
X173283571Y-85788571D01*
X173235952Y-85883809D01*
X103449523Y-80602380D02*
X103116190Y-80126190D01*
X102878095Y-80602380D02*
X102878095Y-79602380D01*
X103259047Y-79602380D01*
X103354285Y-79650000D01*
X103401904Y-79697619D01*
X103449523Y-79792857D01*
X103449523Y-79935714D01*
X103401904Y-80030952D01*
X103354285Y-80078571D01*
X103259047Y-80126190D01*
X102878095Y-80126190D01*
X103878095Y-80602380D02*
X103878095Y-79602380D01*
X104449523Y-80602380D01*
X104449523Y-79602380D01*
X105449523Y-80602380D02*
X104878095Y-80602380D01*
X105163809Y-80602380D02*
X105163809Y-79602380D01*
X105068571Y-79745238D01*
X104973333Y-79840476D01*
X104878095Y-79888095D01*
X145092380Y-94035476D02*
X144616190Y-94368809D01*
X145092380Y-94606904D02*
X144092380Y-94606904D01*
X144092380Y-94225952D01*
X144140000Y-94130714D01*
X144187619Y-94083095D01*
X144282857Y-94035476D01*
X144425714Y-94035476D01*
X144520952Y-94083095D01*
X144568571Y-94130714D01*
X144616190Y-94225952D01*
X144616190Y-94606904D01*
X145092380Y-93606904D02*
X144092380Y-93606904D01*
X145092380Y-93035476D01*
X144092380Y-93035476D01*
X144187619Y-92606904D02*
X144140000Y-92559285D01*
X144092380Y-92464047D01*
X144092380Y-92225952D01*
X144140000Y-92130714D01*
X144187619Y-92083095D01*
X144282857Y-92035476D01*
X144378095Y-92035476D01*
X144520952Y-92083095D01*
X145092380Y-92654523D01*
X145092380Y-92035476D01*
X169362380Y-128325476D02*
X168886190Y-128658809D01*
X169362380Y-128896904D02*
X168362380Y-128896904D01*
X168362380Y-128515952D01*
X168410000Y-128420714D01*
X168457619Y-128373095D01*
X168552857Y-128325476D01*
X168695714Y-128325476D01*
X168790952Y-128373095D01*
X168838571Y-128420714D01*
X168886190Y-128515952D01*
X168886190Y-128896904D01*
X169362380Y-127896904D02*
X168362380Y-127896904D01*
X169362380Y-127325476D01*
X168362380Y-127325476D01*
X168362380Y-126944523D02*
X168362380Y-126325476D01*
X168743333Y-126658809D01*
X168743333Y-126515952D01*
X168790952Y-126420714D01*
X168838571Y-126373095D01*
X168933809Y-126325476D01*
X169171904Y-126325476D01*
X169267142Y-126373095D01*
X169314761Y-126420714D01*
X169362380Y-126515952D01*
X169362380Y-126801666D01*
X169314761Y-126896904D01*
X169267142Y-126944523D01*
X157353095Y-126027380D02*
X157353095Y-126836904D01*
X157400714Y-126932142D01*
X157448333Y-126979761D01*
X157543571Y-127027380D01*
X157734047Y-127027380D01*
X157829285Y-126979761D01*
X157876904Y-126932142D01*
X157924523Y-126836904D01*
X157924523Y-126027380D01*
X158924523Y-127027380D02*
X158353095Y-127027380D01*
X158638809Y-127027380D02*
X158638809Y-126027380D01*
X158543571Y-126170238D01*
X158448333Y-126265476D01*
X158353095Y-126313095D01*
X168148095Y-82847380D02*
X168148095Y-83656904D01*
X168195714Y-83752142D01*
X168243333Y-83799761D01*
X168338571Y-83847380D01*
X168529047Y-83847380D01*
X168624285Y-83799761D01*
X168671904Y-83752142D01*
X168719523Y-83656904D01*
X168719523Y-82847380D01*
X169148095Y-82942619D02*
X169195714Y-82895000D01*
X169290952Y-82847380D01*
X169529047Y-82847380D01*
X169624285Y-82895000D01*
X169671904Y-82942619D01*
X169719523Y-83037857D01*
X169719523Y-83133095D01*
X169671904Y-83275952D01*
X169100476Y-83847380D01*
X169719523Y-83847380D01*
X117983095Y-108247380D02*
X117983095Y-109056904D01*
X118030714Y-109152142D01*
X118078333Y-109199761D01*
X118173571Y-109247380D01*
X118364047Y-109247380D01*
X118459285Y-109199761D01*
X118506904Y-109152142D01*
X118554523Y-109056904D01*
X118554523Y-108247380D01*
X118935476Y-108247380D02*
X119554523Y-108247380D01*
X119221190Y-108628333D01*
X119364047Y-108628333D01*
X119459285Y-108675952D01*
X119506904Y-108723571D01*
X119554523Y-108818809D01*
X119554523Y-109056904D01*
X119506904Y-109152142D01*
X119459285Y-109199761D01*
X119364047Y-109247380D01*
X119078333Y-109247380D01*
X118983095Y-109199761D01*
X118935476Y-109152142D01*
X137668095Y-108247380D02*
X137668095Y-109056904D01*
X137715714Y-109152142D01*
X137763333Y-109199761D01*
X137858571Y-109247380D01*
X138049047Y-109247380D01*
X138144285Y-109199761D01*
X138191904Y-109152142D01*
X138239523Y-109056904D01*
X138239523Y-108247380D01*
X139144285Y-108580714D02*
X139144285Y-109247380D01*
X138906190Y-108199761D02*
X138668095Y-108914047D01*
X139287142Y-108914047D01*
X155448095Y-82637380D02*
X155448095Y-83446904D01*
X155495714Y-83542142D01*
X155543333Y-83589761D01*
X155638571Y-83637380D01*
X155829047Y-83637380D01*
X155924285Y-83589761D01*
X155971904Y-83542142D01*
X156019523Y-83446904D01*
X156019523Y-82637380D01*
X156971904Y-82637380D02*
X156495714Y-82637380D01*
X156448095Y-83113571D01*
X156495714Y-83065952D01*
X156590952Y-83018333D01*
X156829047Y-83018333D01*
X156924285Y-83065952D01*
X156971904Y-83113571D01*
X157019523Y-83208809D01*
X157019523Y-83446904D01*
X156971904Y-83542142D01*
X156924285Y-83589761D01*
X156829047Y-83637380D01*
X156590952Y-83637380D01*
X156495714Y-83589761D01*
X156448095Y-83542142D01*
X121158095Y-82637380D02*
X121158095Y-83446904D01*
X121205714Y-83542142D01*
X121253333Y-83589761D01*
X121348571Y-83637380D01*
X121539047Y-83637380D01*
X121634285Y-83589761D01*
X121681904Y-83542142D01*
X121729523Y-83446904D01*
X121729523Y-82637380D01*
X122634285Y-82637380D02*
X122443809Y-82637380D01*
X122348571Y-82685000D01*
X122300952Y-82732619D01*
X122205714Y-82875476D01*
X122158095Y-83065952D01*
X122158095Y-83446904D01*
X122205714Y-83542142D01*
X122253333Y-83589761D01*
X122348571Y-83637380D01*
X122539047Y-83637380D01*
X122634285Y-83589761D01*
X122681904Y-83542142D01*
X122729523Y-83446904D01*
X122729523Y-83208809D01*
X122681904Y-83113571D01*
X122634285Y-83065952D01*
X122539047Y-83018333D01*
X122348571Y-83018333D01*
X122253333Y-83065952D01*
X122205714Y-83113571D01*
X122158095Y-83208809D01*
X135763095Y-82847380D02*
X135763095Y-83656904D01*
X135810714Y-83752142D01*
X135858333Y-83799761D01*
X135953571Y-83847380D01*
X136144047Y-83847380D01*
X136239285Y-83799761D01*
X136286904Y-83752142D01*
X136334523Y-83656904D01*
X136334523Y-82847380D01*
X136715476Y-82847380D02*
X137382142Y-82847380D01*
X136953571Y-83847380D01*
X102108095Y-118197380D02*
X102108095Y-119006904D01*
X102155714Y-119102142D01*
X102203333Y-119149761D01*
X102298571Y-119197380D01*
X102489047Y-119197380D01*
X102584285Y-119149761D01*
X102631904Y-119102142D01*
X102679523Y-119006904D01*
X102679523Y-118197380D01*
X103298571Y-118625952D02*
X103203333Y-118578333D01*
X103155714Y-118530714D01*
X103108095Y-118435476D01*
X103108095Y-118387857D01*
X103155714Y-118292619D01*
X103203333Y-118245000D01*
X103298571Y-118197380D01*
X103489047Y-118197380D01*
X103584285Y-118245000D01*
X103631904Y-118292619D01*
X103679523Y-118387857D01*
X103679523Y-118435476D01*
X103631904Y-118530714D01*
X103584285Y-118578333D01*
X103489047Y-118625952D01*
X103298571Y-118625952D01*
X103203333Y-118673571D01*
X103155714Y-118721190D01*
X103108095Y-118816428D01*
X103108095Y-119006904D01*
X103155714Y-119102142D01*
X103203333Y-119149761D01*
X103298571Y-119197380D01*
X103489047Y-119197380D01*
X103584285Y-119149761D01*
X103631904Y-119102142D01*
X103679523Y-119006904D01*
X103679523Y-118816428D01*
X103631904Y-118721190D01*
X103584285Y-118673571D01*
X103489047Y-118625952D01*
X148252380Y-111251904D02*
X149061904Y-111251904D01*
X149157142Y-111204285D01*
X149204761Y-111156666D01*
X149252380Y-111061428D01*
X149252380Y-110870952D01*
X149204761Y-110775714D01*
X149157142Y-110728095D01*
X149061904Y-110680476D01*
X148252380Y-110680476D01*
X149252380Y-110156666D02*
X149252380Y-109966190D01*
X149204761Y-109870952D01*
X149157142Y-109823333D01*
X149014285Y-109728095D01*
X148823809Y-109680476D01*
X148442857Y-109680476D01*
X148347619Y-109728095D01*
X148300000Y-109775714D01*
X148252380Y-109870952D01*
X148252380Y-110061428D01*
X148300000Y-110156666D01*
X148347619Y-110204285D01*
X148442857Y-110251904D01*
X148680952Y-110251904D01*
X148776190Y-110204285D01*
X148823809Y-110156666D01*
X148871428Y-110061428D01*
X148871428Y-109870952D01*
X148823809Y-109775714D01*
X148776190Y-109728095D01*
X148680952Y-109680476D01*
X121261190Y-136366190D02*
X121737380Y-136366190D01*
X120737380Y-136699523D02*
X121261190Y-136366190D01*
X120737380Y-136032857D01*
X121737380Y-135175714D02*
X121737380Y-135747142D01*
X121737380Y-135461428D02*
X120737380Y-135461428D01*
X120880238Y-135556666D01*
X120975476Y-135651904D01*
X121023095Y-135747142D01*
X121261190Y-119221190D02*
X121737380Y-119221190D01*
X120737380Y-119554523D02*
X121261190Y-119221190D01*
X120737380Y-118887857D01*
X120832619Y-118602142D02*
X120785000Y-118554523D01*
X120737380Y-118459285D01*
X120737380Y-118221190D01*
X120785000Y-118125952D01*
X120832619Y-118078333D01*
X120927857Y-118030714D01*
X121023095Y-118030714D01*
X121165952Y-118078333D01*
X121737380Y-118649761D01*
X121737380Y-118030714D01*
M02*
