M48
; DRILL file {KiCad (5.1.4)-1} date 29/01/2020 19:19:08
; FORMAT={-:-/ absolute / metric / decimal}
; #@! TF.CreationDate,2020-01-29T19:19:08+02:00
; #@! TF.GenerationSoftware,Kicad,Pcbnew,(5.1.4)-1
; #@! TF.FileFunction,Plated,1,2,PTH
FMAT,2
METRIC
T1C0.800
T2C1.000
T3C3.000
%
G90
G05
T1
X139.065Y-106.68
X131.445Y-129.54
X164.465Y-106.68
X113.665Y-99.06
X154.305Y-121.92
X161.925Y-83.82
X123.825Y-91.44
X121.285Y-106.68
X156.845Y-91.44
X118.745Y-91.44
X156.845Y-99.06
X146.685Y-137.16
X151.765Y-83.82
X146.685Y-106.68
X149.225Y-99.06
X149.225Y-76.2
X123.825Y-129.54
X111.125Y-114.3
X136.525Y-99.06
X126.365Y-99.06
X161.925Y-121.92
X159.385Y-129.54
X113.665Y-91.44
X128.905Y-106.68
X106.045Y-114.3
X149.225Y-91.44
X108.585Y-121.92
X136.525Y-76.2
X154.305Y-137.16
X154.305Y-106.68
X116.205Y-99.06
X116.205Y-76.2
X121.285Y-137.16
X116.205Y-129.54
X136.525Y-114.3
X159.385Y-114.3
X144.145Y-99.06
X133.985Y-99.06
X111.125Y-121.92
X151.765Y-129.54
X136.525Y-106.68
X136.525Y-121.92
X118.745Y-114.3
X118.745Y-83.82
X141.605Y-91.44
X121.285Y-121.92
X144.145Y-76.2
X164.465Y-99.06
X128.905Y-137.16
X106.045Y-129.54
X128.905Y-114.3
X108.585Y-76.2
X151.765Y-114.3
X108.585Y-106.68
X108.585Y-137.16
X144.145Y-129.54
X144.145Y-121.92
X126.365Y-83.82
X159.385Y-137.16
X139.065Y-91.44
X128.905Y-121.92
X108.585Y-83.82
X108.585Y-91.44
X161.925Y-99.06
X136.525Y-137.16
X141.605Y-83.82
X123.825Y-76.2
X146.685Y-114.3
X136.525Y-129.54
X133.985Y-129.54
X161.925Y-106.68
X108.585Y-99.06
X151.765Y-121.92
X133.985Y-83.82
X113.665Y-137.16
X159.385Y-83.82
X126.365Y-91.44
X118.745Y-106.68
X159.385Y-91.44
X116.205Y-91.44
X159.385Y-99.06
X144.145Y-137.16
X149.225Y-83.82
X131.445Y-76.2
X144.145Y-106.68
X156.845Y-76.2
X126.365Y-129.54
X113.665Y-114.3
X123.825Y-99.06
X159.385Y-121.92
X161.925Y-129.54
X126.365Y-106.68
X108.585Y-114.3
X151.765Y-91.44
X106.045Y-121.92
X133.985Y-76.2
X151.765Y-137.16
X151.765Y-106.68
X121.285Y-99.06
X121.285Y-76.2
X118.745Y-137.16
X118.745Y-129.54
X144.145Y-114.3
X161.925Y-114.3
X164.465Y-114.3
X141.605Y-99.06
X131.445Y-99.06
X154.305Y-129.54
X133.985Y-106.68
X116.205Y-114.3
X116.205Y-83.82
X146.685Y-91.44
X118.745Y-121.92
X141.605Y-76.2
X106.045Y-76.2
X126.365Y-137.16
X111.125Y-129.54
X131.445Y-114.3
X118.745Y-76.2
X154.305Y-114.3
X106.045Y-106.68
X106.045Y-137.16
X146.685Y-129.54
X141.605Y-121.92
X154.305Y-76.2
X123.825Y-83.82
X136.525Y-91.44
X126.365Y-121.92
X106.045Y-83.82
X121.285Y-91.44
X133.985Y-137.16
X123.825Y-114.3
X139.065Y-83.82
X111.125Y-76.2
X111.125Y-106.68
X139.065Y-129.54
X159.385Y-106.68
X149.225Y-121.92
X131.445Y-83.82
X111.125Y-137.16
X156.845Y-83.82
X128.905Y-91.44
X133.985Y-121.92
X161.925Y-91.44
X113.665Y-83.82
X154.305Y-99.06
X141.605Y-137.16
X146.685Y-83.82
X128.905Y-76.2
X141.605Y-106.68
X159.385Y-76.2
X128.905Y-129.54
X111.125Y-99.06
X156.845Y-121.92
X164.465Y-129.54
X164.465Y-83.82
X123.825Y-106.68
X121.285Y-114.3
X154.305Y-91.44
X133.985Y-91.44
X149.225Y-137.16
X154.305Y-83.82
X149.225Y-106.68
X151.765Y-99.06
X151.765Y-76.2
X116.205Y-137.16
X121.285Y-129.54
X141.605Y-114.3
X139.065Y-99.06
X128.905Y-99.06
X164.465Y-121.92
X156.845Y-129.54
X111.125Y-91.44
X131.445Y-106.68
X113.665Y-106.68
X111.125Y-83.82
X116.205Y-121.92
X139.065Y-76.2
X156.845Y-137.16
X156.845Y-106.68
X106.045Y-99.06
X123.825Y-137.16
X108.585Y-129.54
X139.065Y-114.3
X156.845Y-114.3
X146.685Y-99.06
X113.665Y-121.92
X149.225Y-129.54
X139.065Y-121.92
X133.985Y-114.3
X121.285Y-83.82
X144.145Y-91.44
X123.825Y-121.92
X146.685Y-76.2
X118.745Y-99.06
X131.445Y-137.16
X113.665Y-129.54
X126.365Y-114.3
X136.525Y-83.82
X113.665Y-76.2
X149.225Y-114.3
X116.205Y-106.68
X141.605Y-129.54
X146.685Y-121.92
X128.905Y-83.82
X131.445Y-91.44
X131.445Y-121.92
X164.465Y-91.44
X106.045Y-91.44
X139.065Y-137.16
X144.145Y-83.82
X126.365Y-76.2
T2
X74.295Y-90.17
X74.295Y-92.71
X74.295Y-95.25
X74.295Y-97.79
X74.295Y-100.33
X74.295Y-102.87
X74.295Y-105.41
X74.295Y-107.95
X74.295Y-110.49
X74.295Y-113.03
X74.295Y-115.57
X74.295Y-118.11
X74.295Y-120.65
X74.295Y-123.19
X74.295Y-125.73
X74.295Y-128.27
X74.295Y-130.81
X74.295Y-133.35
X74.295Y-135.89
X74.295Y-138.43
X76.835Y-90.17
X76.835Y-92.71
X76.835Y-95.25
X76.835Y-97.79
X76.835Y-100.33
X76.835Y-102.87
X76.835Y-105.41
X76.835Y-107.95
X76.835Y-110.49
X76.835Y-113.03
X76.835Y-115.57
X76.835Y-118.11
X76.835Y-120.65
X76.835Y-123.19
X76.835Y-125.73
X76.835Y-128.27
X76.835Y-130.81
X76.835Y-133.35
X76.835Y-135.89
X76.835Y-138.43
X99.695Y-90.17
X99.695Y-92.71
X99.695Y-95.25
X99.695Y-97.79
X99.695Y-100.33
X99.695Y-102.87
X99.695Y-105.41
X99.695Y-107.95
X99.695Y-113.03
X99.695Y-115.57
X99.695Y-118.11
X99.695Y-120.65
X74.295Y-74.93
X74.295Y-77.47
X74.295Y-80.01
X74.295Y-82.55
X74.295Y-85.09
X76.835Y-74.93
X76.835Y-77.47
X76.835Y-80.01
X76.835Y-82.55
X76.835Y-85.09
X93.345Y-90.17
X93.345Y-92.71
X93.345Y-95.25
X93.345Y-97.79
X93.345Y-100.33
X93.345Y-102.87
X93.345Y-105.41
X93.345Y-107.95
X93.345Y-113.03
X93.345Y-115.57
X93.345Y-118.11
X93.345Y-120.65
X93.345Y-123.19
X93.345Y-125.73
X86.995Y-74.93
X86.995Y-77.47
X86.995Y-80.01
X86.995Y-82.55
X86.995Y-113.03
X86.995Y-115.57
X86.995Y-118.11
X86.995Y-120.65
X86.995Y-123.19
X86.995Y-125.73
X86.995Y-128.27
X86.995Y-130.81
X99.695Y-125.73
X99.695Y-128.27
X99.695Y-130.81
X99.695Y-133.35
X99.695Y-135.89
X99.695Y-138.43
T3
X164.465Y-136.525
X164.465Y-76.835
T0
M30
