M48
; DRILL file {KiCad (6.0.4)} date Sat Jun  4 07:03:54 2022
; FORMAT={-:-/ absolute / inch / decimal}
; #@! TF.CreationDate,2022-06-04T07:03:54+03:00
; #@! TF.GenerationSoftware,Kicad,Pcbnew,(6.0.4)
; #@! TF.FileFunction,Plated,1,2,PTH
FMAT,2
INCH
; #@! TA.AperFunction,Plated,PTH,ComponentDrill
T1C0.0394
%
G90
G05
T1
X3.9248Y-2.3252
X3.9248Y-2.4252
X3.9248Y-2.5252
X3.9248Y-2.6252
X3.9248Y-2.7252
X3.925Y-2.925
X3.925Y-3.025
X3.925Y-3.125
X3.925Y-3.225
X3.925Y-3.325
X3.925Y-3.425
X3.925Y-3.525
X3.925Y-3.625
X3.925Y-3.725
X3.925Y-3.825
X3.925Y-3.925
X3.925Y-4.025
X3.925Y-4.125
X3.925Y-4.225
X3.925Y-4.325
X3.925Y-4.425
X3.925Y-4.525
X3.925Y-4.625
X3.925Y-4.725
X3.925Y-4.825
X4.0248Y-2.3252
X4.0248Y-2.4252
X4.0248Y-2.5252
X4.0248Y-2.6252
X4.0248Y-2.7252
X4.025Y-2.925
X4.025Y-3.025
X4.025Y-3.125
X4.025Y-3.225
X4.025Y-3.325
X4.025Y-3.425
X4.025Y-3.525
X4.025Y-3.625
X4.025Y-3.725
X4.025Y-3.825
X4.025Y-3.925
X4.025Y-4.025
X4.025Y-4.125
X4.025Y-4.225
X4.025Y-4.325
X4.025Y-4.425
X4.025Y-4.525
X4.025Y-4.625
X4.025Y-4.725
X4.025Y-4.825
X7.3998Y-2.3252
X7.3998Y-2.4252
X7.3998Y-2.5252
X7.3998Y-2.6252
X7.3998Y-2.7252
X7.4Y-2.925
X7.4Y-3.025
X7.4Y-3.125
X7.4Y-3.225
X7.4Y-3.325
X7.4Y-3.425
X7.4Y-3.525
X7.4Y-3.625
X7.4Y-3.725
X7.4Y-3.825
X7.4Y-3.925
X7.4Y-4.025
X7.4Y-4.125
X7.4Y-4.225
X7.4Y-4.325
X7.4Y-4.425
X7.4Y-4.525
X7.4Y-4.625
X7.4Y-4.725
X7.4Y-4.825
X7.4998Y-2.3252
X7.4998Y-2.4252
X7.4998Y-2.5252
X7.4998Y-2.6252
X7.4998Y-2.7252
X7.5Y-2.925
X7.5Y-3.025
X7.5Y-3.125
X7.5Y-3.225
X7.5Y-3.325
X7.5Y-3.425
X7.5Y-3.525
X7.5Y-3.625
X7.5Y-3.725
X7.5Y-3.825
X7.5Y-3.925
X7.5Y-4.025
X7.5Y-4.125
X7.5Y-4.225
X7.5Y-4.325
X7.5Y-4.425
X7.5Y-4.525
X7.5Y-4.625
X7.5Y-4.725
X7.5Y-4.825
T0
M30
