%TF.GenerationSoftware,KiCad,Pcbnew,(6.0.4)*%
%TF.CreationDate,2022-06-04T07:03:01+03:00*%
%TF.ProjectId,Extension,45787465-6e73-4696-9f6e-2e6b69636164,rev?*%
%TF.SameCoordinates,Original*%
%TF.FileFunction,Legend,Top*%
%TF.FilePolarity,Positive*%
%FSLAX46Y46*%
G04 Gerber Fmt 4.6, Leading zero omitted, Abs format (unit mm)*
G04 Created by KiCad (PCBNEW (6.0.4)) date 2022-06-04 07:03:01*
%MOMM*%
%LPD*%
G01*
G04 APERTURE LIST*
%ADD10C,0.152400*%
%ADD11C,0.304800*%
%ADD12C,0.150000*%
%ADD13C,0.120000*%
G04 APERTURE END LIST*
D10*
X152295739Y-94481952D02*
X153021453Y-94481952D01*
X153166596Y-94530333D01*
X153263358Y-94627095D01*
X153311739Y-94772238D01*
X153311739Y-94869000D01*
X152634405Y-93562714D02*
X153311739Y-93562714D01*
X152634405Y-93998142D02*
X153166596Y-93998142D01*
X153263358Y-93949761D01*
X153311739Y-93853000D01*
X153311739Y-93707857D01*
X153263358Y-93611095D01*
X153214977Y-93562714D01*
X152634405Y-93078904D02*
X153311739Y-93078904D01*
X152731167Y-93078904D02*
X152682786Y-93030523D01*
X152634405Y-92933761D01*
X152634405Y-92788619D01*
X152682786Y-92691857D01*
X152779548Y-92643476D01*
X153311739Y-92643476D01*
X153263358Y-91772619D02*
X153311739Y-91869380D01*
X153311739Y-92062904D01*
X153263358Y-92159666D01*
X153166596Y-92208047D01*
X152779548Y-92208047D01*
X152682786Y-92159666D01*
X152634405Y-92062904D01*
X152634405Y-91869380D01*
X152682786Y-91772619D01*
X152779548Y-91724238D01*
X152876310Y-91724238D01*
X152973072Y-92208047D01*
X152247358Y-90563095D02*
X153553643Y-91433952D01*
X152392500Y-90272809D02*
X152344120Y-90224428D01*
X152295739Y-90127666D01*
X152295739Y-89885761D01*
X152344120Y-89789000D01*
X152392500Y-89740619D01*
X152489262Y-89692238D01*
X152586024Y-89692238D01*
X152731167Y-89740619D01*
X153311739Y-90321190D01*
X153311739Y-89692238D01*
X152295739Y-89063285D02*
X152295739Y-88966523D01*
X152344120Y-88869761D01*
X152392500Y-88821380D01*
X152489262Y-88773000D01*
X152682786Y-88724619D01*
X152924691Y-88724619D01*
X153118215Y-88773000D01*
X153214977Y-88821380D01*
X153263358Y-88869761D01*
X153311739Y-88966523D01*
X153311739Y-89063285D01*
X153263358Y-89160047D01*
X153214977Y-89208428D01*
X153118215Y-89256809D01*
X152924691Y-89305190D01*
X152682786Y-89305190D01*
X152489262Y-89256809D01*
X152392500Y-89208428D01*
X152344120Y-89160047D01*
X152295739Y-89063285D01*
X152392500Y-88337571D02*
X152344120Y-88289190D01*
X152295739Y-88192428D01*
X152295739Y-87950523D01*
X152344120Y-87853761D01*
X152392500Y-87805380D01*
X152489262Y-87757000D01*
X152586024Y-87757000D01*
X152731167Y-87805380D01*
X153311739Y-88385952D01*
X153311739Y-87757000D01*
X152392500Y-87369952D02*
X152344120Y-87321571D01*
X152295739Y-87224809D01*
X152295739Y-86982904D01*
X152344120Y-86886142D01*
X152392500Y-86837761D01*
X152489262Y-86789380D01*
X152586024Y-86789380D01*
X152731167Y-86837761D01*
X153311739Y-87418333D01*
X153311739Y-86789380D01*
X154947499Y-95086714D02*
X153931499Y-95086714D01*
X154318546Y-95086714D02*
X154270165Y-94989952D01*
X154270165Y-94796428D01*
X154318546Y-94699666D01*
X154366927Y-94651285D01*
X154463689Y-94602904D01*
X154753975Y-94602904D01*
X154850737Y-94651285D01*
X154899118Y-94699666D01*
X154947499Y-94796428D01*
X154947499Y-94989952D01*
X154899118Y-95086714D01*
X154270165Y-94264238D02*
X154947499Y-94022333D01*
X154270165Y-93780428D02*
X154947499Y-94022333D01*
X155189403Y-94119095D01*
X155237784Y-94167476D01*
X155286165Y-94264238D01*
X154947499Y-92619285D02*
X153931499Y-92619285D01*
X154947499Y-92038714D02*
X154366927Y-92474142D01*
X153931499Y-92038714D02*
X154512070Y-92619285D01*
X154947499Y-91167857D02*
X154415308Y-91167857D01*
X154318546Y-91216238D01*
X154270165Y-91313000D01*
X154270165Y-91506523D01*
X154318546Y-91603285D01*
X154899118Y-91167857D02*
X154947499Y-91264619D01*
X154947499Y-91506523D01*
X154899118Y-91603285D01*
X154802356Y-91651666D01*
X154705594Y-91651666D01*
X154608832Y-91603285D01*
X154560451Y-91506523D01*
X154560451Y-91264619D01*
X154512070Y-91167857D01*
X154947499Y-90538904D02*
X154899118Y-90635666D01*
X154802356Y-90684047D01*
X153931499Y-90684047D01*
X154270165Y-90297000D02*
X154270165Y-89909952D01*
X153931499Y-90151857D02*
X154802356Y-90151857D01*
X154899118Y-90103476D01*
X154947499Y-90006714D01*
X154947499Y-89909952D01*
X154899118Y-89135857D02*
X154947499Y-89232619D01*
X154947499Y-89426142D01*
X154899118Y-89522904D01*
X154850737Y-89571285D01*
X154753975Y-89619666D01*
X154463689Y-89619666D01*
X154366927Y-89571285D01*
X154318546Y-89522904D01*
X154270165Y-89426142D01*
X154270165Y-89232619D01*
X154318546Y-89135857D01*
X154947499Y-88700428D02*
X153931499Y-88700428D01*
X154947499Y-88265000D02*
X154415308Y-88265000D01*
X154318546Y-88313380D01*
X154270165Y-88410142D01*
X154270165Y-88555285D01*
X154318546Y-88652047D01*
X154366927Y-88700428D01*
X154270165Y-87345761D02*
X154947499Y-87345761D01*
X154270165Y-87781190D02*
X154802356Y-87781190D01*
X154899118Y-87732809D01*
X154947499Y-87636047D01*
X154947499Y-87490904D01*
X154899118Y-87394142D01*
X154850737Y-87345761D01*
X154947499Y-86861952D02*
X153931499Y-86861952D01*
X154560451Y-86765190D02*
X154947499Y-86474904D01*
X154270165Y-86474904D02*
X154657213Y-86861952D01*
D11*
X139491478Y-108173761D02*
X139491478Y-106819095D01*
X141523478Y-108173761D01*
X141523478Y-106819095D01*
X140362335Y-105754714D02*
X140265573Y-105948238D01*
X140168811Y-106045000D01*
X139975287Y-106141761D01*
X139878525Y-106141761D01*
X139685001Y-106045000D01*
X139588240Y-105948238D01*
X139491478Y-105754714D01*
X139491478Y-105367666D01*
X139588240Y-105174142D01*
X139685001Y-105077380D01*
X139878525Y-104980619D01*
X139975287Y-104980619D01*
X140168811Y-105077380D01*
X140265573Y-105174142D01*
X140362335Y-105367666D01*
X140362335Y-105754714D01*
X140459097Y-105948238D01*
X140555859Y-106045000D01*
X140749382Y-106141761D01*
X141136430Y-106141761D01*
X141329954Y-106045000D01*
X141426716Y-105948238D01*
X141523478Y-105754714D01*
X141523478Y-105367666D01*
X141426716Y-105174142D01*
X141329954Y-105077380D01*
X141136430Y-104980619D01*
X140749382Y-104980619D01*
X140555859Y-105077380D01*
X140459097Y-105174142D01*
X140362335Y-105367666D01*
X139491478Y-103722714D02*
X139491478Y-103529190D01*
X139588240Y-103335666D01*
X139685001Y-103238904D01*
X139878525Y-103142142D01*
X140265573Y-103045380D01*
X140749382Y-103045380D01*
X141136430Y-103142142D01*
X141329954Y-103238904D01*
X141426716Y-103335666D01*
X141523478Y-103529190D01*
X141523478Y-103722714D01*
X141426716Y-103916238D01*
X141329954Y-104013000D01*
X141136430Y-104109761D01*
X140749382Y-104206523D01*
X140265573Y-104206523D01*
X139878525Y-104109761D01*
X139685001Y-104013000D01*
X139588240Y-103916238D01*
X139491478Y-103722714D01*
X141523478Y-100626333D02*
X139491478Y-100626333D01*
X140942906Y-99949000D01*
X139491478Y-99271666D01*
X141523478Y-99271666D01*
X141523478Y-98013761D02*
X141426716Y-98207285D01*
X141329954Y-98304047D01*
X141136430Y-98400809D01*
X140555859Y-98400809D01*
X140362335Y-98304047D01*
X140265573Y-98207285D01*
X140168811Y-98013761D01*
X140168811Y-97723476D01*
X140265573Y-97529952D01*
X140362335Y-97433190D01*
X140555859Y-97336428D01*
X141136430Y-97336428D01*
X141329954Y-97433190D01*
X141426716Y-97529952D01*
X141523478Y-97723476D01*
X141523478Y-98013761D01*
X141523478Y-95594714D02*
X139491478Y-95594714D01*
X141426716Y-95594714D02*
X141523478Y-95788238D01*
X141523478Y-96175285D01*
X141426716Y-96368809D01*
X141329954Y-96465571D01*
X141136430Y-96562333D01*
X140555859Y-96562333D01*
X140362335Y-96465571D01*
X140265573Y-96368809D01*
X140168811Y-96175285D01*
X140168811Y-95788238D01*
X140265573Y-95594714D01*
X140168811Y-93756238D02*
X141523478Y-93756238D01*
X140168811Y-94627095D02*
X141233192Y-94627095D01*
X141426716Y-94530333D01*
X141523478Y-94336809D01*
X141523478Y-94046523D01*
X141426716Y-93853000D01*
X141329954Y-93756238D01*
X141523478Y-92498333D02*
X141426716Y-92691857D01*
X141233192Y-92788619D01*
X139491478Y-92788619D01*
X141523478Y-90853380D02*
X140459097Y-90853380D01*
X140265573Y-90950142D01*
X140168811Y-91143666D01*
X140168811Y-91530714D01*
X140265573Y-91724238D01*
X141426716Y-90853380D02*
X141523478Y-91046904D01*
X141523478Y-91530714D01*
X141426716Y-91724238D01*
X141233192Y-91821000D01*
X141039668Y-91821000D01*
X140846144Y-91724238D01*
X140749382Y-91530714D01*
X140749382Y-91046904D01*
X140652620Y-90853380D01*
X141523478Y-89885761D02*
X140168811Y-89885761D01*
X140555859Y-89885761D02*
X140362335Y-89789000D01*
X140265573Y-89692238D01*
X140168811Y-89498714D01*
X140168811Y-89305190D01*
X141329954Y-85918523D02*
X141426716Y-86015285D01*
X141523478Y-86305571D01*
X141523478Y-86499095D01*
X141426716Y-86789380D01*
X141233192Y-86982904D01*
X141039668Y-87079666D01*
X140652620Y-87176428D01*
X140362335Y-87176428D01*
X139975287Y-87079666D01*
X139781763Y-86982904D01*
X139588240Y-86789380D01*
X139491478Y-86499095D01*
X139491478Y-86305571D01*
X139588240Y-86015285D01*
X139685001Y-85918523D01*
X141523478Y-84757380D02*
X141426716Y-84950904D01*
X141329954Y-85047666D01*
X141136430Y-85144428D01*
X140555859Y-85144428D01*
X140362335Y-85047666D01*
X140265573Y-84950904D01*
X140168811Y-84757380D01*
X140168811Y-84467095D01*
X140265573Y-84273571D01*
X140362335Y-84176809D01*
X140555859Y-84080047D01*
X141136430Y-84080047D01*
X141329954Y-84176809D01*
X141426716Y-84273571D01*
X141523478Y-84467095D01*
X141523478Y-84757380D01*
X141523478Y-83209190D02*
X140168811Y-83209190D01*
X140362335Y-83209190D02*
X140265573Y-83112428D01*
X140168811Y-82918904D01*
X140168811Y-82628619D01*
X140265573Y-82435095D01*
X140459097Y-82338333D01*
X141523478Y-82338333D01*
X140459097Y-82338333D02*
X140265573Y-82241571D01*
X140168811Y-82048047D01*
X140168811Y-81757761D01*
X140265573Y-81564238D01*
X140459097Y-81467476D01*
X141523478Y-81467476D01*
X140168811Y-80499857D02*
X142200811Y-80499857D01*
X140265573Y-80499857D02*
X140168811Y-80306333D01*
X140168811Y-79919285D01*
X140265573Y-79725761D01*
X140362335Y-79629000D01*
X140555859Y-79532238D01*
X141136430Y-79532238D01*
X141329954Y-79629000D01*
X141426716Y-79725761D01*
X141523478Y-79919285D01*
X141523478Y-80306333D01*
X141426716Y-80499857D01*
X140168811Y-77790523D02*
X141523478Y-77790523D01*
X140168811Y-78661380D02*
X141233192Y-78661380D01*
X141426716Y-78564619D01*
X141523478Y-78371095D01*
X141523478Y-78080809D01*
X141426716Y-77887285D01*
X141329954Y-77790523D01*
X140168811Y-77113190D02*
X140168811Y-76339095D01*
X139491478Y-76822904D02*
X141233192Y-76822904D01*
X141426716Y-76726142D01*
X141523478Y-76532619D01*
X141523478Y-76339095D01*
X141426716Y-74887666D02*
X141523478Y-75081190D01*
X141523478Y-75468238D01*
X141426716Y-75661761D01*
X141233192Y-75758523D01*
X140459097Y-75758523D01*
X140265573Y-75661761D01*
X140168811Y-75468238D01*
X140168811Y-75081190D01*
X140265573Y-74887666D01*
X140459097Y-74790904D01*
X140652620Y-74790904D01*
X140846144Y-75758523D01*
X141523478Y-73920047D02*
X140168811Y-73920047D01*
X140555859Y-73920047D02*
X140362335Y-73823285D01*
X140265573Y-73726523D01*
X140168811Y-73533000D01*
X140168811Y-73339476D01*
X143730617Y-101835857D02*
X143730617Y-101158523D01*
X144794998Y-100868238D02*
X144794998Y-101835857D01*
X142762998Y-101835857D01*
X142762998Y-100868238D01*
X144794998Y-100190904D02*
X143440331Y-99126523D01*
X143440331Y-100190904D02*
X144794998Y-99126523D01*
X143440331Y-98642714D02*
X143440331Y-97868619D01*
X142762998Y-98352428D02*
X144504712Y-98352428D01*
X144698236Y-98255666D01*
X144794998Y-98062142D01*
X144794998Y-97868619D01*
X144698236Y-96417190D02*
X144794998Y-96610714D01*
X144794998Y-96997761D01*
X144698236Y-97191285D01*
X144504712Y-97288047D01*
X143730617Y-97288047D01*
X143537093Y-97191285D01*
X143440331Y-96997761D01*
X143440331Y-96610714D01*
X143537093Y-96417190D01*
X143730617Y-96320428D01*
X143924140Y-96320428D01*
X144117664Y-97288047D01*
X143440331Y-95449571D02*
X144794998Y-95449571D01*
X143633855Y-95449571D02*
X143537093Y-95352809D01*
X143440331Y-95159285D01*
X143440331Y-94869000D01*
X143537093Y-94675476D01*
X143730617Y-94578714D01*
X144794998Y-94578714D01*
X144698236Y-93707857D02*
X144794998Y-93514333D01*
X144794998Y-93127285D01*
X144698236Y-92933761D01*
X144504712Y-92837000D01*
X144407950Y-92837000D01*
X144214426Y-92933761D01*
X144117664Y-93127285D01*
X144117664Y-93417571D01*
X144020902Y-93611095D01*
X143827379Y-93707857D01*
X143730617Y-93707857D01*
X143537093Y-93611095D01*
X143440331Y-93417571D01*
X143440331Y-93127285D01*
X143537093Y-92933761D01*
X144794998Y-91966142D02*
X143440331Y-91966142D01*
X142762998Y-91966142D02*
X142859760Y-92062904D01*
X142956521Y-91966142D01*
X142859760Y-91869380D01*
X142762998Y-91966142D01*
X142956521Y-91966142D01*
X144794998Y-90708238D02*
X144698236Y-90901761D01*
X144601474Y-90998523D01*
X144407950Y-91095285D01*
X143827379Y-91095285D01*
X143633855Y-90998523D01*
X143537093Y-90901761D01*
X143440331Y-90708238D01*
X143440331Y-90417952D01*
X143537093Y-90224428D01*
X143633855Y-90127666D01*
X143827379Y-90030904D01*
X144407950Y-90030904D01*
X144601474Y-90127666D01*
X144698236Y-90224428D01*
X144794998Y-90417952D01*
X144794998Y-90708238D01*
X143440331Y-89160047D02*
X144794998Y-89160047D01*
X143633855Y-89160047D02*
X143537093Y-89063285D01*
X143440331Y-88869761D01*
X143440331Y-88579476D01*
X143537093Y-88385952D01*
X143730617Y-88289190D01*
X144794998Y-88289190D01*
X144601474Y-84612238D02*
X144698236Y-84709000D01*
X144794998Y-84999285D01*
X144794998Y-85192809D01*
X144698236Y-85483095D01*
X144504712Y-85676619D01*
X144311188Y-85773380D01*
X143924140Y-85870142D01*
X143633855Y-85870142D01*
X143246807Y-85773380D01*
X143053283Y-85676619D01*
X142859760Y-85483095D01*
X142762998Y-85192809D01*
X142762998Y-84999285D01*
X142859760Y-84709000D01*
X142956521Y-84612238D01*
X144794998Y-82870523D02*
X143730617Y-82870523D01*
X143537093Y-82967285D01*
X143440331Y-83160809D01*
X143440331Y-83547857D01*
X143537093Y-83741380D01*
X144698236Y-82870523D02*
X144794998Y-83064047D01*
X144794998Y-83547857D01*
X144698236Y-83741380D01*
X144504712Y-83838142D01*
X144311188Y-83838142D01*
X144117664Y-83741380D01*
X144020902Y-83547857D01*
X144020902Y-83064047D01*
X143924140Y-82870523D01*
X144794998Y-81902904D02*
X143440331Y-81902904D01*
X143827379Y-81902904D02*
X143633855Y-81806142D01*
X143537093Y-81709380D01*
X143440331Y-81515857D01*
X143440331Y-81322333D01*
X144794998Y-79774142D02*
X142762998Y-79774142D01*
X144698236Y-79774142D02*
X144794998Y-79967666D01*
X144794998Y-80354714D01*
X144698236Y-80548238D01*
X144601474Y-80645000D01*
X144407950Y-80741761D01*
X143827379Y-80741761D01*
X143633855Y-80645000D01*
X143537093Y-80548238D01*
X143440331Y-80354714D01*
X143440331Y-79967666D01*
X143537093Y-79774142D01*
D12*
%TO.C,J3*%
X188891666Y-56182380D02*
X188891666Y-56896666D01*
X188844047Y-57039523D01*
X188748809Y-57134761D01*
X188605952Y-57182380D01*
X188510714Y-57182380D01*
X189272619Y-56182380D02*
X189891666Y-56182380D01*
X189558333Y-56563333D01*
X189701190Y-56563333D01*
X189796428Y-56610952D01*
X189844047Y-56658571D01*
X189891666Y-56753809D01*
X189891666Y-56991904D01*
X189844047Y-57087142D01*
X189796428Y-57134761D01*
X189701190Y-57182380D01*
X189415476Y-57182380D01*
X189320238Y-57134761D01*
X189272619Y-57087142D01*
%TO.C,J4*%
X188896666Y-71417380D02*
X188896666Y-72131666D01*
X188849047Y-72274523D01*
X188753809Y-72369761D01*
X188610952Y-72417380D01*
X188515714Y-72417380D01*
X189801428Y-71750714D02*
X189801428Y-72417380D01*
X189563333Y-71369761D02*
X189325238Y-72084047D01*
X189944285Y-72084047D01*
%TO.C,J2*%
X100631666Y-71417380D02*
X100631666Y-72131666D01*
X100584047Y-72274523D01*
X100488809Y-72369761D01*
X100345952Y-72417380D01*
X100250714Y-72417380D01*
X101060238Y-71512619D02*
X101107857Y-71465000D01*
X101203095Y-71417380D01*
X101441190Y-71417380D01*
X101536428Y-71465000D01*
X101584047Y-71512619D01*
X101631666Y-71607857D01*
X101631666Y-71703095D01*
X101584047Y-71845952D01*
X101012619Y-72417380D01*
X101631666Y-72417380D01*
%TO.C,J1*%
X100626666Y-56182380D02*
X100626666Y-56896666D01*
X100579047Y-57039523D01*
X100483809Y-57134761D01*
X100340952Y-57182380D01*
X100245714Y-57182380D01*
X101626666Y-57182380D02*
X101055238Y-57182380D01*
X101340952Y-57182380D02*
X101340952Y-56182380D01*
X101245714Y-56325238D01*
X101150476Y-56420476D01*
X101055238Y-56468095D01*
D13*
%TO.C,J3*%
X186625000Y-60330000D02*
X189225000Y-60330000D01*
X186625000Y-70550000D02*
X191825000Y-70550000D01*
X186625000Y-59060000D02*
X186625000Y-57730000D01*
X189225000Y-57730000D02*
X191825000Y-57730000D01*
X191825000Y-57730000D02*
X191825000Y-70550000D01*
X189225000Y-60330000D02*
X189225000Y-57730000D01*
X186625000Y-60330000D02*
X186625000Y-70550000D01*
X186625000Y-57730000D02*
X187955000Y-57730000D01*
%TO.C,J4*%
X191830000Y-72965000D02*
X191830000Y-123885000D01*
X186630000Y-74295000D02*
X186630000Y-72965000D01*
X186630000Y-75565000D02*
X189230000Y-75565000D01*
X189230000Y-72965000D02*
X191830000Y-72965000D01*
X186630000Y-75565000D02*
X186630000Y-123885000D01*
X186630000Y-72965000D02*
X187960000Y-72965000D01*
X189230000Y-75565000D02*
X189230000Y-72965000D01*
X186630000Y-123885000D02*
X191830000Y-123885000D01*
%TO.C,J2*%
X98365000Y-74295000D02*
X98365000Y-72965000D01*
X100965000Y-75565000D02*
X100965000Y-72965000D01*
X100965000Y-72965000D02*
X103565000Y-72965000D01*
X103565000Y-72965000D02*
X103565000Y-123885000D01*
X98365000Y-75565000D02*
X98365000Y-123885000D01*
X98365000Y-72965000D02*
X99695000Y-72965000D01*
X98365000Y-123885000D02*
X103565000Y-123885000D01*
X98365000Y-75565000D02*
X100965000Y-75565000D01*
%TO.C,J1*%
X98360000Y-57730000D02*
X99690000Y-57730000D01*
X103560000Y-57730000D02*
X103560000Y-70550000D01*
X100960000Y-57730000D02*
X103560000Y-57730000D01*
X98360000Y-70550000D02*
X103560000Y-70550000D01*
X98360000Y-59060000D02*
X98360000Y-57730000D01*
X98360000Y-60330000D02*
X100960000Y-60330000D01*
X98360000Y-60330000D02*
X98360000Y-70550000D01*
X100960000Y-60330000D02*
X100960000Y-57730000D01*
%TD*%
M02*
