M48
; DRILL file {KiCad (6.0.4)} date Sat Jun  4 07:26:53 2022
; FORMAT={-:-/ absolute / inch / decimal}
; #@! TF.CreationDate,2022-06-04T07:26:53+03:00
; #@! TF.GenerationSoftware,Kicad,Pcbnew,(6.0.4)
; #@! TF.FileFunction,Plated,1,2,PTH
FMAT,2
INCH
; #@! TA.AperFunction,Plated,PTH,ComponentDrill
T1C0.0300
; #@! TA.AperFunction,Plated,PTH,ComponentDrill
T2C0.0315
; #@! TA.AperFunction,Plated,PTH,ComponentDrill
T3C0.0354
; #@! TA.AperFunction,Plated,PTH,ComponentDrill
T4C0.0394
; #@! TA.AperFunction,Plated,PTH,ComponentDrill
T5C0.0433
; #@! TA.AperFunction,Plated,PTH,ComponentDrill
T6C0.0610
; #@! TA.AperFunction,Plated,PTH,ComponentDrill
T7C0.1181
; #@! TA.AperFunction,Plated,PTH,ComponentDrill
T8C0.1260
%
G90
G05
T1
X6.17Y-3.685
X6.27Y-3.46
X6.27Y-3.91
X6.745Y-3.46
X6.745Y-3.91
T2
X4.39Y-4.225
X4.39Y-4.355
X4.69Y-4.225
X4.69Y-4.355
X7.285Y-3.65
X7.285Y-3.84
X7.285Y-4.025
X7.585Y-3.65
X7.585Y-3.84
X7.585Y-4.025
T3
X7.79Y-3.605
X7.79Y-3.705
X7.79Y-3.7898
X7.79Y-3.8898
X7.79Y-3.9748
X7.79Y-4.0748
T4
X4.2348Y-5.4502
X4.2348Y-5.5502
X4.2348Y-5.6502
X4.2348Y-5.7502
X4.2348Y-5.8502
X4.235Y-3.35
X4.235Y-3.45
X4.235Y-3.55
X4.235Y-3.65
X4.235Y-3.75
X4.3348Y-5.4502
X4.3348Y-5.5502
X4.3348Y-5.6502
X4.3348Y-5.7502
X4.3348Y-5.8502
X4.335Y-3.35
X4.335Y-3.45
X4.335Y-3.55
X4.335Y-3.65
X4.335Y-3.75
X4.6211Y-3.4967
X4.6211Y-3.7723
X4.8935Y-5.2831
X4.8935Y-5.3816
X4.925Y-4.24
X4.925Y-4.34
X5.025Y-4.24
X5.025Y-4.34
X5.8022Y-3.4967
X5.8022Y-3.7723
X6.645Y-4.2902
X6.645Y-4.3902
X6.6809Y-5.7792
X6.8778Y-5.7792
X7.71Y-4.33
X7.71Y-4.43
T5
X4.365Y-4.735
X4.365Y-4.835
X4.365Y-4.935
T6
X7.405Y-4.9
X7.405Y-5.24
T7
X4.803Y-4.7595
X4.803Y-5.7517
X7.1455Y-4.7595
X7.1455Y-5.7517
X7.785Y-3.425
X7.785Y-5.775
T8
X7.625Y-4.83
X7.625Y-5.33
T0
M30
