%TF.GenerationSoftware,KiCad,Pcbnew,(6.0.4)*%
%TF.CreationDate,2022-06-04T07:26:48+03:00*%
%TF.ProjectId,PSU2,50535532-2e6b-4696-9361-645f70636258,rev?*%
%TF.SameCoordinates,Original*%
%TF.FileFunction,Legend,Top*%
%TF.FilePolarity,Positive*%
%FSLAX46Y46*%
G04 Gerber Fmt 4.6, Leading zero omitted, Abs format (unit mm)*
G04 Created by KiCad (PCBNEW (6.0.4)) date 2022-06-04 07:26:48*
%MOMM*%
%LPD*%
G01*
G04 APERTURE LIST*
%ADD10C,0.150000*%
%ADD11C,0.120000*%
G04 APERTURE END LIST*
D10*
X129830095Y-110144571D02*
X130163428Y-110144571D01*
X130306285Y-110668380D02*
X129830095Y-110668380D01*
X129830095Y-109668380D01*
X130306285Y-109668380D01*
X130734857Y-110001714D02*
X130734857Y-110668380D01*
X130734857Y-110096952D02*
X130782476Y-110049333D01*
X130877714Y-110001714D01*
X131020571Y-110001714D01*
X131115809Y-110049333D01*
X131163428Y-110144571D01*
X131163428Y-110668380D01*
X132068190Y-110668380D02*
X132068190Y-110144571D01*
X132020571Y-110049333D01*
X131925333Y-110001714D01*
X131734857Y-110001714D01*
X131639619Y-110049333D01*
X132068190Y-110620761D02*
X131972952Y-110668380D01*
X131734857Y-110668380D01*
X131639619Y-110620761D01*
X131592000Y-110525523D01*
X131592000Y-110430285D01*
X131639619Y-110335047D01*
X131734857Y-110287428D01*
X131972952Y-110287428D01*
X132068190Y-110239809D01*
X132544380Y-110668380D02*
X132544380Y-109668380D01*
X132544380Y-110049333D02*
X132639619Y-110001714D01*
X132830095Y-110001714D01*
X132925333Y-110049333D01*
X132972952Y-110096952D01*
X133020571Y-110192190D01*
X133020571Y-110477904D01*
X132972952Y-110573142D01*
X132925333Y-110620761D01*
X132830095Y-110668380D01*
X132639619Y-110668380D01*
X132544380Y-110620761D01*
X133592000Y-110668380D02*
X133496761Y-110620761D01*
X133449142Y-110525523D01*
X133449142Y-109668380D01*
X134353904Y-110620761D02*
X134258666Y-110668380D01*
X134068190Y-110668380D01*
X133972952Y-110620761D01*
X133925333Y-110525523D01*
X133925333Y-110144571D01*
X133972952Y-110049333D01*
X134068190Y-110001714D01*
X134258666Y-110001714D01*
X134353904Y-110049333D01*
X134401523Y-110144571D01*
X134401523Y-110239809D01*
X133925333Y-110335047D01*
X135496761Y-109668380D02*
X136115809Y-109668380D01*
X135782476Y-110049333D01*
X135925333Y-110049333D01*
X136020571Y-110096952D01*
X136068190Y-110144571D01*
X136115809Y-110239809D01*
X136115809Y-110477904D01*
X136068190Y-110573142D01*
X136020571Y-110620761D01*
X135925333Y-110668380D01*
X135639619Y-110668380D01*
X135544380Y-110620761D01*
X135496761Y-110573142D01*
X136544380Y-110573142D02*
X136592000Y-110620761D01*
X136544380Y-110668380D01*
X136496761Y-110620761D01*
X136544380Y-110573142D01*
X136544380Y-110668380D01*
X136925333Y-109668380D02*
X137544380Y-109668380D01*
X137211047Y-110049333D01*
X137353904Y-110049333D01*
X137449142Y-110096952D01*
X137496761Y-110144571D01*
X137544380Y-110239809D01*
X137544380Y-110477904D01*
X137496761Y-110573142D01*
X137449142Y-110620761D01*
X137353904Y-110668380D01*
X137068190Y-110668380D01*
X136972952Y-110620761D01*
X136925333Y-110573142D01*
X137830095Y-109668380D02*
X138163428Y-110668380D01*
X138496761Y-109668380D01*
X144487380Y-108332380D02*
X145154047Y-108332380D01*
X144487380Y-109332380D01*
X145154047Y-109332380D01*
X145677857Y-108760952D02*
X145582619Y-108713333D01*
X145535000Y-108665714D01*
X145487380Y-108570476D01*
X145487380Y-108522857D01*
X145535000Y-108427619D01*
X145582619Y-108380000D01*
X145677857Y-108332380D01*
X145868333Y-108332380D01*
X145963571Y-108380000D01*
X146011190Y-108427619D01*
X146058809Y-108522857D01*
X146058809Y-108570476D01*
X146011190Y-108665714D01*
X145963571Y-108713333D01*
X145868333Y-108760952D01*
X145677857Y-108760952D01*
X145582619Y-108808571D01*
X145535000Y-108856190D01*
X145487380Y-108951428D01*
X145487380Y-109141904D01*
X145535000Y-109237142D01*
X145582619Y-109284761D01*
X145677857Y-109332380D01*
X145868333Y-109332380D01*
X145963571Y-109284761D01*
X146011190Y-109237142D01*
X146058809Y-109141904D01*
X146058809Y-108951428D01*
X146011190Y-108856190D01*
X145963571Y-108808571D01*
X145868333Y-108760952D01*
X146677857Y-108332380D02*
X146773095Y-108332380D01*
X146868333Y-108380000D01*
X146915952Y-108427619D01*
X146963571Y-108522857D01*
X147011190Y-108713333D01*
X147011190Y-108951428D01*
X146963571Y-109141904D01*
X146915952Y-109237142D01*
X146868333Y-109284761D01*
X146773095Y-109332380D01*
X146677857Y-109332380D01*
X146582619Y-109284761D01*
X146535000Y-109237142D01*
X146487380Y-109141904D01*
X146439761Y-108951428D01*
X146439761Y-108713333D01*
X146487380Y-108522857D01*
X146535000Y-108427619D01*
X146582619Y-108380000D01*
X146677857Y-108332380D01*
X148201666Y-109332380D02*
X148201666Y-108332380D01*
X148535000Y-109046666D01*
X148868333Y-108332380D01*
X148868333Y-109332380D01*
X149487380Y-109332380D02*
X149392142Y-109284761D01*
X149344523Y-109237142D01*
X149296904Y-109141904D01*
X149296904Y-108856190D01*
X149344523Y-108760952D01*
X149392142Y-108713333D01*
X149487380Y-108665714D01*
X149630238Y-108665714D01*
X149725476Y-108713333D01*
X149773095Y-108760952D01*
X149820714Y-108856190D01*
X149820714Y-109141904D01*
X149773095Y-109237142D01*
X149725476Y-109284761D01*
X149630238Y-109332380D01*
X149487380Y-109332380D01*
X150677857Y-109332380D02*
X150677857Y-108332380D01*
X150677857Y-109284761D02*
X150582619Y-109332380D01*
X150392142Y-109332380D01*
X150296904Y-109284761D01*
X150249285Y-109237142D01*
X150201666Y-109141904D01*
X150201666Y-108856190D01*
X150249285Y-108760952D01*
X150296904Y-108713333D01*
X150392142Y-108665714D01*
X150582619Y-108665714D01*
X150677857Y-108713333D01*
X151582619Y-108665714D02*
X151582619Y-109332380D01*
X151154047Y-108665714D02*
X151154047Y-109189523D01*
X151201666Y-109284761D01*
X151296904Y-109332380D01*
X151439761Y-109332380D01*
X151535000Y-109284761D01*
X151582619Y-109237142D01*
X152201666Y-109332380D02*
X152106428Y-109284761D01*
X152058809Y-109189523D01*
X152058809Y-108332380D01*
X153011190Y-109332380D02*
X153011190Y-108808571D01*
X152963571Y-108713333D01*
X152868333Y-108665714D01*
X152677857Y-108665714D01*
X152582619Y-108713333D01*
X153011190Y-109284761D02*
X152915952Y-109332380D01*
X152677857Y-109332380D01*
X152582619Y-109284761D01*
X152535000Y-109189523D01*
X152535000Y-109094285D01*
X152582619Y-108999047D01*
X152677857Y-108951428D01*
X152915952Y-108951428D01*
X153011190Y-108903809D01*
X153487380Y-109332380D02*
X153487380Y-108665714D01*
X153487380Y-108856190D02*
X153535000Y-108760952D01*
X153582619Y-108713333D01*
X153677857Y-108665714D01*
X153773095Y-108665714D01*
X155439761Y-109237142D02*
X155392142Y-109284761D01*
X155249285Y-109332380D01*
X155154047Y-109332380D01*
X155011190Y-109284761D01*
X154915952Y-109189523D01*
X154868333Y-109094285D01*
X154820714Y-108903809D01*
X154820714Y-108760952D01*
X154868333Y-108570476D01*
X154915952Y-108475238D01*
X155011190Y-108380000D01*
X155154047Y-108332380D01*
X155249285Y-108332380D01*
X155392142Y-108380000D01*
X155439761Y-108427619D01*
X156011190Y-109332380D02*
X155915952Y-109284761D01*
X155868333Y-109237142D01*
X155820714Y-109141904D01*
X155820714Y-108856190D01*
X155868333Y-108760952D01*
X155915952Y-108713333D01*
X156011190Y-108665714D01*
X156154047Y-108665714D01*
X156249285Y-108713333D01*
X156296904Y-108760952D01*
X156344523Y-108856190D01*
X156344523Y-109141904D01*
X156296904Y-109237142D01*
X156249285Y-109284761D01*
X156154047Y-109332380D01*
X156011190Y-109332380D01*
X156773095Y-109332380D02*
X156773095Y-108665714D01*
X156773095Y-108760952D02*
X156820714Y-108713333D01*
X156915952Y-108665714D01*
X157058809Y-108665714D01*
X157154047Y-108713333D01*
X157201666Y-108808571D01*
X157201666Y-109332380D01*
X157201666Y-108808571D02*
X157249285Y-108713333D01*
X157344523Y-108665714D01*
X157487380Y-108665714D01*
X157582619Y-108713333D01*
X157630238Y-108808571D01*
X157630238Y-109332380D01*
X158106428Y-108665714D02*
X158106428Y-109665714D01*
X158106428Y-108713333D02*
X158201666Y-108665714D01*
X158392142Y-108665714D01*
X158487380Y-108713333D01*
X158535000Y-108760952D01*
X158582619Y-108856190D01*
X158582619Y-109141904D01*
X158535000Y-109237142D01*
X158487380Y-109284761D01*
X158392142Y-109332380D01*
X158201666Y-109332380D01*
X158106428Y-109284761D01*
X159439761Y-108665714D02*
X159439761Y-109332380D01*
X159011190Y-108665714D02*
X159011190Y-109189523D01*
X159058809Y-109284761D01*
X159154047Y-109332380D01*
X159296904Y-109332380D01*
X159392142Y-109284761D01*
X159439761Y-109237142D01*
X159773095Y-108665714D02*
X160154047Y-108665714D01*
X159915952Y-108332380D02*
X159915952Y-109189523D01*
X159963571Y-109284761D01*
X160058809Y-109332380D01*
X160154047Y-109332380D01*
X160868333Y-109284761D02*
X160773095Y-109332380D01*
X160582619Y-109332380D01*
X160487380Y-109284761D01*
X160439761Y-109189523D01*
X160439761Y-108808571D01*
X160487380Y-108713333D01*
X160582619Y-108665714D01*
X160773095Y-108665714D01*
X160868333Y-108713333D01*
X160915952Y-108808571D01*
X160915952Y-108903809D01*
X160439761Y-108999047D01*
X161344523Y-109332380D02*
X161344523Y-108665714D01*
X161344523Y-108856190D02*
X161392142Y-108760952D01*
X161439761Y-108713333D01*
X161535000Y-108665714D01*
X161630238Y-108665714D01*
X145058809Y-110942380D02*
X145058809Y-109942380D01*
X145439761Y-109942380D01*
X145535000Y-109990000D01*
X145582619Y-110037619D01*
X145630238Y-110132857D01*
X145630238Y-110275714D01*
X145582619Y-110370952D01*
X145535000Y-110418571D01*
X145439761Y-110466190D01*
X145058809Y-110466190D01*
X146011190Y-110894761D02*
X146154047Y-110942380D01*
X146392142Y-110942380D01*
X146487380Y-110894761D01*
X146535000Y-110847142D01*
X146582619Y-110751904D01*
X146582619Y-110656666D01*
X146535000Y-110561428D01*
X146487380Y-110513809D01*
X146392142Y-110466190D01*
X146201666Y-110418571D01*
X146106428Y-110370952D01*
X146058809Y-110323333D01*
X146011190Y-110228095D01*
X146011190Y-110132857D01*
X146058809Y-110037619D01*
X146106428Y-109990000D01*
X146201666Y-109942380D01*
X146439761Y-109942380D01*
X146582619Y-109990000D01*
X147011190Y-109942380D02*
X147011190Y-110751904D01*
X147058809Y-110847142D01*
X147106428Y-110894761D01*
X147201666Y-110942380D01*
X147392142Y-110942380D01*
X147487380Y-110894761D01*
X147535000Y-110847142D01*
X147582619Y-110751904D01*
X147582619Y-109942380D01*
X149392142Y-110847142D02*
X149344523Y-110894761D01*
X149201666Y-110942380D01*
X149106428Y-110942380D01*
X148963571Y-110894761D01*
X148868333Y-110799523D01*
X148820714Y-110704285D01*
X148773095Y-110513809D01*
X148773095Y-110370952D01*
X148820714Y-110180476D01*
X148868333Y-110085238D01*
X148963571Y-109990000D01*
X149106428Y-109942380D01*
X149201666Y-109942380D01*
X149344523Y-109990000D01*
X149392142Y-110037619D01*
X150249285Y-110942380D02*
X150249285Y-110418571D01*
X150201666Y-110323333D01*
X150106428Y-110275714D01*
X149915952Y-110275714D01*
X149820714Y-110323333D01*
X150249285Y-110894761D02*
X150154047Y-110942380D01*
X149915952Y-110942380D01*
X149820714Y-110894761D01*
X149773095Y-110799523D01*
X149773095Y-110704285D01*
X149820714Y-110609047D01*
X149915952Y-110561428D01*
X150154047Y-110561428D01*
X150249285Y-110513809D01*
X150725476Y-110942380D02*
X150725476Y-110275714D01*
X150725476Y-110466190D02*
X150773095Y-110370952D01*
X150820714Y-110323333D01*
X150915952Y-110275714D01*
X151011190Y-110275714D01*
X151773095Y-110942380D02*
X151773095Y-109942380D01*
X151773095Y-110894761D02*
X151677857Y-110942380D01*
X151487380Y-110942380D01*
X151392142Y-110894761D01*
X151344523Y-110847142D01*
X151296904Y-110751904D01*
X151296904Y-110466190D01*
X151344523Y-110370952D01*
X151392142Y-110323333D01*
X151487380Y-110275714D01*
X151677857Y-110275714D01*
X151773095Y-110323333D01*
X152915952Y-110275714D02*
X153154047Y-110942380D01*
X153392142Y-110275714D01*
X154154047Y-110894761D02*
X154058809Y-110942380D01*
X153868333Y-110942380D01*
X153773095Y-110894761D01*
X153725476Y-110799523D01*
X153725476Y-110418571D01*
X153773095Y-110323333D01*
X153868333Y-110275714D01*
X154058809Y-110275714D01*
X154154047Y-110323333D01*
X154201666Y-110418571D01*
X154201666Y-110513809D01*
X153725476Y-110609047D01*
X154630238Y-110942380D02*
X154630238Y-110275714D01*
X154630238Y-110466190D02*
X154677857Y-110370952D01*
X154725476Y-110323333D01*
X154820714Y-110275714D01*
X154915952Y-110275714D01*
X155201666Y-110894761D02*
X155296904Y-110942380D01*
X155487380Y-110942380D01*
X155582619Y-110894761D01*
X155630238Y-110799523D01*
X155630238Y-110751904D01*
X155582619Y-110656666D01*
X155487380Y-110609047D01*
X155344523Y-110609047D01*
X155249285Y-110561428D01*
X155201666Y-110466190D01*
X155201666Y-110418571D01*
X155249285Y-110323333D01*
X155344523Y-110275714D01*
X155487380Y-110275714D01*
X155582619Y-110323333D01*
X156058809Y-110942380D02*
X156058809Y-110275714D01*
X156058809Y-109942380D02*
X156011190Y-109990000D01*
X156058809Y-110037619D01*
X156106428Y-109990000D01*
X156058809Y-109942380D01*
X156058809Y-110037619D01*
X156677857Y-110942380D02*
X156582619Y-110894761D01*
X156535000Y-110847142D01*
X156487380Y-110751904D01*
X156487380Y-110466190D01*
X156535000Y-110370952D01*
X156582619Y-110323333D01*
X156677857Y-110275714D01*
X156820714Y-110275714D01*
X156915952Y-110323333D01*
X156963571Y-110370952D01*
X157011190Y-110466190D01*
X157011190Y-110751904D01*
X156963571Y-110847142D01*
X156915952Y-110894761D01*
X156820714Y-110942380D01*
X156677857Y-110942380D01*
X157439761Y-110275714D02*
X157439761Y-110942380D01*
X157439761Y-110370952D02*
X157487380Y-110323333D01*
X157582619Y-110275714D01*
X157725476Y-110275714D01*
X157820714Y-110323333D01*
X157868333Y-110418571D01*
X157868333Y-110942380D01*
X159058809Y-110037619D02*
X159106428Y-109990000D01*
X159201666Y-109942380D01*
X159439761Y-109942380D01*
X159535000Y-109990000D01*
X159582619Y-110037619D01*
X159630238Y-110132857D01*
X159630238Y-110228095D01*
X159582619Y-110370952D01*
X159011190Y-110942380D01*
X159630238Y-110942380D01*
X160058809Y-110847142D02*
X160106428Y-110894761D01*
X160058809Y-110942380D01*
X160011190Y-110894761D01*
X160058809Y-110847142D01*
X160058809Y-110942380D01*
X160725476Y-109942380D02*
X160820714Y-109942380D01*
X160915952Y-109990000D01*
X160963571Y-110037619D01*
X161011190Y-110132857D01*
X161058809Y-110323333D01*
X161058809Y-110561428D01*
X161011190Y-110751904D01*
X160963571Y-110847142D01*
X160915952Y-110894761D01*
X160820714Y-110942380D01*
X160725476Y-110942380D01*
X160630238Y-110894761D01*
X160582619Y-110847142D01*
X160535000Y-110751904D01*
X160487380Y-110561428D01*
X160487380Y-110323333D01*
X160535000Y-110132857D01*
X160582619Y-110037619D01*
X160630238Y-109990000D01*
X160725476Y-109942380D01*
X141963571Y-112552380D02*
X141963571Y-111552380D01*
X142201666Y-111552380D01*
X142344523Y-111600000D01*
X142439761Y-111695238D01*
X142487380Y-111790476D01*
X142535000Y-111980952D01*
X142535000Y-112123809D01*
X142487380Y-112314285D01*
X142439761Y-112409523D01*
X142344523Y-112504761D01*
X142201666Y-112552380D01*
X141963571Y-112552380D01*
X143344523Y-112504761D02*
X143249285Y-112552380D01*
X143058809Y-112552380D01*
X142963571Y-112504761D01*
X142915952Y-112409523D01*
X142915952Y-112028571D01*
X142963571Y-111933333D01*
X143058809Y-111885714D01*
X143249285Y-111885714D01*
X143344523Y-111933333D01*
X143392142Y-112028571D01*
X143392142Y-112123809D01*
X142915952Y-112219047D01*
X143773095Y-112504761D02*
X143868333Y-112552380D01*
X144058809Y-112552380D01*
X144154047Y-112504761D01*
X144201666Y-112409523D01*
X144201666Y-112361904D01*
X144154047Y-112266666D01*
X144058809Y-112219047D01*
X143915952Y-112219047D01*
X143820714Y-112171428D01*
X143773095Y-112076190D01*
X143773095Y-112028571D01*
X143820714Y-111933333D01*
X143915952Y-111885714D01*
X144058809Y-111885714D01*
X144154047Y-111933333D01*
X144630238Y-112552380D02*
X144630238Y-111885714D01*
X144630238Y-111552380D02*
X144582619Y-111600000D01*
X144630238Y-111647619D01*
X144677857Y-111600000D01*
X144630238Y-111552380D01*
X144630238Y-111647619D01*
X145535000Y-111885714D02*
X145535000Y-112695238D01*
X145487380Y-112790476D01*
X145439761Y-112838095D01*
X145344523Y-112885714D01*
X145201666Y-112885714D01*
X145106428Y-112838095D01*
X145535000Y-112504761D02*
X145439761Y-112552380D01*
X145249285Y-112552380D01*
X145154047Y-112504761D01*
X145106428Y-112457142D01*
X145058809Y-112361904D01*
X145058809Y-112076190D01*
X145106428Y-111980952D01*
X145154047Y-111933333D01*
X145249285Y-111885714D01*
X145439761Y-111885714D01*
X145535000Y-111933333D01*
X146011190Y-111885714D02*
X146011190Y-112552380D01*
X146011190Y-111980952D02*
X146058809Y-111933333D01*
X146154047Y-111885714D01*
X146296904Y-111885714D01*
X146392142Y-111933333D01*
X146439761Y-112028571D01*
X146439761Y-112552380D01*
X147677857Y-112552380D02*
X147677857Y-111552380D01*
X147677857Y-111933333D02*
X147773095Y-111885714D01*
X147963571Y-111885714D01*
X148058809Y-111933333D01*
X148106428Y-111980952D01*
X148154047Y-112076190D01*
X148154047Y-112361904D01*
X148106428Y-112457142D01*
X148058809Y-112504761D01*
X147963571Y-112552380D01*
X147773095Y-112552380D01*
X147677857Y-112504761D01*
X148487380Y-111885714D02*
X148725476Y-112552380D01*
X148963571Y-111885714D02*
X148725476Y-112552380D01*
X148630238Y-112790476D01*
X148582619Y-112838095D01*
X148487380Y-112885714D01*
X150106428Y-112552380D02*
X150106428Y-111552380D01*
X150677857Y-112552380D02*
X150249285Y-111980952D01*
X150677857Y-111552380D02*
X150106428Y-112123809D01*
X151535000Y-112552380D02*
X151535000Y-112028571D01*
X151487380Y-111933333D01*
X151392142Y-111885714D01*
X151201666Y-111885714D01*
X151106428Y-111933333D01*
X151535000Y-112504761D02*
X151439761Y-112552380D01*
X151201666Y-112552380D01*
X151106428Y-112504761D01*
X151058809Y-112409523D01*
X151058809Y-112314285D01*
X151106428Y-112219047D01*
X151201666Y-112171428D01*
X151439761Y-112171428D01*
X151535000Y-112123809D01*
X152154047Y-112552380D02*
X152058809Y-112504761D01*
X152011190Y-112409523D01*
X152011190Y-111552380D01*
X152392142Y-111885714D02*
X152773095Y-111885714D01*
X152535000Y-111552380D02*
X152535000Y-112409523D01*
X152582619Y-112504761D01*
X152677857Y-112552380D01*
X152773095Y-112552380D01*
X153535000Y-112504761D02*
X153439761Y-112552380D01*
X153249285Y-112552380D01*
X153154047Y-112504761D01*
X153106428Y-112457142D01*
X153058809Y-112361904D01*
X153058809Y-112076190D01*
X153106428Y-111980952D01*
X153154047Y-111933333D01*
X153249285Y-111885714D01*
X153439761Y-111885714D01*
X153535000Y-111933333D01*
X153963571Y-112552380D02*
X153963571Y-111552380D01*
X154392142Y-112552380D02*
X154392142Y-112028571D01*
X154344523Y-111933333D01*
X154249285Y-111885714D01*
X154106428Y-111885714D01*
X154011190Y-111933333D01*
X153963571Y-111980952D01*
X155296904Y-111885714D02*
X155296904Y-112552380D01*
X154868333Y-111885714D02*
X154868333Y-112409523D01*
X154915952Y-112504761D01*
X155011190Y-112552380D01*
X155154047Y-112552380D01*
X155249285Y-112504761D01*
X155296904Y-112457142D01*
X155773095Y-112552380D02*
X155773095Y-111552380D01*
X155868333Y-112171428D02*
X156154047Y-112552380D01*
X156154047Y-111885714D02*
X155773095Y-112266666D01*
X156630238Y-112504761D02*
X156630238Y-112552380D01*
X156582619Y-112647619D01*
X156535000Y-112695238D01*
X158011190Y-111552380D02*
X158106428Y-111552380D01*
X158201666Y-111600000D01*
X158249285Y-111647619D01*
X158296904Y-111742857D01*
X158344523Y-111933333D01*
X158344523Y-112171428D01*
X158296904Y-112361904D01*
X158249285Y-112457142D01*
X158201666Y-112504761D01*
X158106428Y-112552380D01*
X158011190Y-112552380D01*
X157915952Y-112504761D01*
X157868333Y-112457142D01*
X157820714Y-112361904D01*
X157773095Y-112171428D01*
X157773095Y-111933333D01*
X157820714Y-111742857D01*
X157868333Y-111647619D01*
X157915952Y-111600000D01*
X158011190Y-111552380D01*
X158915952Y-111980952D02*
X158820714Y-111933333D01*
X158773095Y-111885714D01*
X158725476Y-111790476D01*
X158725476Y-111742857D01*
X158773095Y-111647619D01*
X158820714Y-111600000D01*
X158915952Y-111552380D01*
X159106428Y-111552380D01*
X159201666Y-111600000D01*
X159249285Y-111647619D01*
X159296904Y-111742857D01*
X159296904Y-111790476D01*
X159249285Y-111885714D01*
X159201666Y-111933333D01*
X159106428Y-111980952D01*
X158915952Y-111980952D01*
X158820714Y-112028571D01*
X158773095Y-112076190D01*
X158725476Y-112171428D01*
X158725476Y-112361904D01*
X158773095Y-112457142D01*
X158820714Y-112504761D01*
X158915952Y-112552380D01*
X159106428Y-112552380D01*
X159201666Y-112504761D01*
X159249285Y-112457142D01*
X159296904Y-112361904D01*
X159296904Y-112171428D01*
X159249285Y-112076190D01*
X159201666Y-112028571D01*
X159106428Y-111980952D01*
X160439761Y-111504761D02*
X159582619Y-112790476D01*
X160725476Y-111647619D02*
X160773095Y-111600000D01*
X160868333Y-111552380D01*
X161106428Y-111552380D01*
X161201666Y-111600000D01*
X161249285Y-111647619D01*
X161296904Y-111742857D01*
X161296904Y-111838095D01*
X161249285Y-111980952D01*
X160677857Y-112552380D01*
X161296904Y-112552380D01*
X161915952Y-111552380D02*
X162011190Y-111552380D01*
X162106428Y-111600000D01*
X162154047Y-111647619D01*
X162201666Y-111742857D01*
X162249285Y-111933333D01*
X162249285Y-112171428D01*
X162201666Y-112361904D01*
X162154047Y-112457142D01*
X162106428Y-112504761D01*
X162011190Y-112552380D01*
X161915952Y-112552380D01*
X161820714Y-112504761D01*
X161773095Y-112457142D01*
X161725476Y-112361904D01*
X161677857Y-112171428D01*
X161677857Y-111933333D01*
X161725476Y-111742857D01*
X161773095Y-111647619D01*
X161820714Y-111600000D01*
X161915952Y-111552380D01*
X162630238Y-111647619D02*
X162677857Y-111600000D01*
X162773095Y-111552380D01*
X163011190Y-111552380D01*
X163106428Y-111600000D01*
X163154047Y-111647619D01*
X163201666Y-111742857D01*
X163201666Y-111838095D01*
X163154047Y-111980952D01*
X162582619Y-112552380D01*
X163201666Y-112552380D01*
X164154047Y-112552380D02*
X163582619Y-112552380D01*
X163868333Y-112552380D02*
X163868333Y-111552380D01*
X163773095Y-111695238D01*
X163677857Y-111790476D01*
X163582619Y-111838095D01*
X129814190Y-107731571D02*
X130147523Y-107731571D01*
X130290380Y-108255380D02*
X129814190Y-108255380D01*
X129814190Y-107255380D01*
X130290380Y-107255380D01*
X130718952Y-107588714D02*
X130718952Y-108255380D01*
X130718952Y-107683952D02*
X130766571Y-107636333D01*
X130861809Y-107588714D01*
X131004666Y-107588714D01*
X131099904Y-107636333D01*
X131147523Y-107731571D01*
X131147523Y-108255380D01*
X132052285Y-108255380D02*
X132052285Y-107731571D01*
X132004666Y-107636333D01*
X131909428Y-107588714D01*
X131718952Y-107588714D01*
X131623714Y-107636333D01*
X132052285Y-108207761D02*
X131957047Y-108255380D01*
X131718952Y-108255380D01*
X131623714Y-108207761D01*
X131576095Y-108112523D01*
X131576095Y-108017285D01*
X131623714Y-107922047D01*
X131718952Y-107874428D01*
X131957047Y-107874428D01*
X132052285Y-107826809D01*
X132528476Y-108255380D02*
X132528476Y-107255380D01*
X132528476Y-107636333D02*
X132623714Y-107588714D01*
X132814190Y-107588714D01*
X132909428Y-107636333D01*
X132957047Y-107683952D01*
X133004666Y-107779190D01*
X133004666Y-108064904D01*
X132957047Y-108160142D01*
X132909428Y-108207761D01*
X132814190Y-108255380D01*
X132623714Y-108255380D01*
X132528476Y-108207761D01*
X133576095Y-108255380D02*
X133480857Y-108207761D01*
X133433238Y-108112523D01*
X133433238Y-107255380D01*
X134338000Y-108207761D02*
X134242761Y-108255380D01*
X134052285Y-108255380D01*
X133957047Y-108207761D01*
X133909428Y-108112523D01*
X133909428Y-107731571D01*
X133957047Y-107636333D01*
X134052285Y-107588714D01*
X134242761Y-107588714D01*
X134338000Y-107636333D01*
X134385619Y-107731571D01*
X134385619Y-107826809D01*
X133909428Y-107922047D01*
X136099904Y-108255380D02*
X135528476Y-108255380D01*
X135814190Y-108255380D02*
X135814190Y-107255380D01*
X135718952Y-107398238D01*
X135623714Y-107493476D01*
X135528476Y-107541095D01*
X136480857Y-107350619D02*
X136528476Y-107303000D01*
X136623714Y-107255380D01*
X136861809Y-107255380D01*
X136957047Y-107303000D01*
X137004666Y-107350619D01*
X137052285Y-107445857D01*
X137052285Y-107541095D01*
X137004666Y-107683952D01*
X136433238Y-108255380D01*
X137052285Y-108255380D01*
X137338000Y-107255380D02*
X137671333Y-108255380D01*
X138004666Y-107255380D01*
%TO.C,J3*%
X186523380Y-138001333D02*
X187237666Y-138001333D01*
X187380523Y-138048952D01*
X187475761Y-138144190D01*
X187523380Y-138287047D01*
X187523380Y-138382285D01*
X186523380Y-137620380D02*
X186523380Y-137001333D01*
X186904333Y-137334666D01*
X186904333Y-137191809D01*
X186951952Y-137096571D01*
X186999571Y-137048952D01*
X187094809Y-137001333D01*
X187332904Y-137001333D01*
X187428142Y-137048952D01*
X187475761Y-137096571D01*
X187523380Y-137191809D01*
X187523380Y-137477523D01*
X187475761Y-137572761D01*
X187428142Y-137620380D01*
%TO.C,R2*%
X115149333Y-105481380D02*
X114816000Y-105005190D01*
X114577904Y-105481380D02*
X114577904Y-104481380D01*
X114958857Y-104481380D01*
X115054095Y-104529000D01*
X115101714Y-104576619D01*
X115149333Y-104671857D01*
X115149333Y-104814714D01*
X115101714Y-104909952D01*
X115054095Y-104957571D01*
X114958857Y-105005190D01*
X114577904Y-105005190D01*
X115530285Y-104576619D02*
X115577904Y-104529000D01*
X115673142Y-104481380D01*
X115911238Y-104481380D01*
X116006476Y-104529000D01*
X116054095Y-104576619D01*
X116101714Y-104671857D01*
X116101714Y-104767095D01*
X116054095Y-104909952D01*
X115482666Y-105481380D01*
X116101714Y-105481380D01*
%TO.C,J1*%
X195500666Y-107104380D02*
X195500666Y-107818666D01*
X195453047Y-107961523D01*
X195357809Y-108056761D01*
X195214952Y-108104380D01*
X195119714Y-108104380D01*
X196500666Y-108104380D02*
X195929238Y-108104380D01*
X196214952Y-108104380D02*
X196214952Y-107104380D01*
X196119714Y-107247238D01*
X196024476Y-107342476D01*
X195929238Y-107390095D01*
%TO.C,K1*%
X152979380Y-94330095D02*
X151979380Y-94330095D01*
X152979380Y-93758666D02*
X152407952Y-94187238D01*
X151979380Y-93758666D02*
X152550809Y-94330095D01*
X152979380Y-92806285D02*
X152979380Y-93377714D01*
X152979380Y-93092000D02*
X151979380Y-93092000D01*
X152122238Y-93187238D01*
X152217476Y-93282476D01*
X152265095Y-93377714D01*
%TO.C,J4*%
X126031666Y-104818380D02*
X126031666Y-105532666D01*
X125984047Y-105675523D01*
X125888809Y-105770761D01*
X125745952Y-105818380D01*
X125650714Y-105818380D01*
X126936428Y-105151714D02*
X126936428Y-105818380D01*
X126698333Y-104770761D02*
X126460238Y-105485047D01*
X127079285Y-105485047D01*
%TO.C,U1*%
X113061380Y-123189904D02*
X113870904Y-123189904D01*
X113966142Y-123142285D01*
X114013761Y-123094666D01*
X114061380Y-122999428D01*
X114061380Y-122808952D01*
X114013761Y-122713714D01*
X113966142Y-122666095D01*
X113870904Y-122618476D01*
X113061380Y-122618476D01*
X114061380Y-121618476D02*
X114061380Y-122189904D01*
X114061380Y-121904190D02*
X113061380Y-121904190D01*
X113204238Y-121999428D01*
X113299476Y-122094666D01*
X113347095Y-122189904D01*
%TO.C,R4*%
X115149333Y-113482380D02*
X114816000Y-113006190D01*
X114577904Y-113482380D02*
X114577904Y-112482380D01*
X114958857Y-112482380D01*
X115054095Y-112530000D01*
X115101714Y-112577619D01*
X115149333Y-112672857D01*
X115149333Y-112815714D01*
X115101714Y-112910952D01*
X115054095Y-112958571D01*
X114958857Y-113006190D01*
X114577904Y-113006190D01*
X116006476Y-112815714D02*
X116006476Y-113482380D01*
X115768380Y-112434761D02*
X115530285Y-113149047D01*
X116149333Y-113149047D01*
%TO.C,D2*%
X195524380Y-99798095D02*
X194524380Y-99798095D01*
X194524380Y-99560000D01*
X194572000Y-99417142D01*
X194667238Y-99321904D01*
X194762476Y-99274285D01*
X194952952Y-99226666D01*
X195095809Y-99226666D01*
X195286285Y-99274285D01*
X195381523Y-99321904D01*
X195476761Y-99417142D01*
X195524380Y-99560000D01*
X195524380Y-99798095D01*
X194619619Y-98845714D02*
X194572000Y-98798095D01*
X194524380Y-98702857D01*
X194524380Y-98464761D01*
X194572000Y-98369523D01*
X194619619Y-98321904D01*
X194714857Y-98274285D01*
X194810095Y-98274285D01*
X194952952Y-98321904D01*
X195524380Y-98893333D01*
X195524380Y-98274285D01*
%TO.C,PS2*%
X123372714Y-116530380D02*
X123372714Y-115530380D01*
X123753666Y-115530380D01*
X123848904Y-115578000D01*
X123896523Y-115625619D01*
X123944142Y-115720857D01*
X123944142Y-115863714D01*
X123896523Y-115958952D01*
X123848904Y-116006571D01*
X123753666Y-116054190D01*
X123372714Y-116054190D01*
X124325095Y-116482761D02*
X124467952Y-116530380D01*
X124706047Y-116530380D01*
X124801285Y-116482761D01*
X124848904Y-116435142D01*
X124896523Y-116339904D01*
X124896523Y-116244666D01*
X124848904Y-116149428D01*
X124801285Y-116101809D01*
X124706047Y-116054190D01*
X124515571Y-116006571D01*
X124420333Y-115958952D01*
X124372714Y-115911333D01*
X124325095Y-115816095D01*
X124325095Y-115720857D01*
X124372714Y-115625619D01*
X124420333Y-115578000D01*
X124515571Y-115530380D01*
X124753666Y-115530380D01*
X124896523Y-115578000D01*
X125277476Y-115625619D02*
X125325095Y-115578000D01*
X125420333Y-115530380D01*
X125658428Y-115530380D01*
X125753666Y-115578000D01*
X125801285Y-115625619D01*
X125848904Y-115720857D01*
X125848904Y-115816095D01*
X125801285Y-115958952D01*
X125229857Y-116530380D01*
X125848904Y-116530380D01*
X167270714Y-144676761D02*
X167937380Y-144676761D01*
X167365952Y-144676761D02*
X167318333Y-144629142D01*
X167270714Y-144533904D01*
X167270714Y-144391047D01*
X167318333Y-144295809D01*
X167413571Y-144248190D01*
X167937380Y-144248190D01*
X167889761Y-143391047D02*
X167937380Y-143486285D01*
X167937380Y-143676761D01*
X167889761Y-143772000D01*
X167794523Y-143819619D01*
X167413571Y-143819619D01*
X167318333Y-143772000D01*
X167270714Y-143676761D01*
X167270714Y-143486285D01*
X167318333Y-143391047D01*
X167413571Y-143343428D01*
X167508809Y-143343428D01*
X167604047Y-143819619D01*
X167270714Y-142486285D02*
X167937380Y-142486285D01*
X167270714Y-142914857D02*
X167794523Y-142914857D01*
X167889761Y-142867238D01*
X167937380Y-142772000D01*
X167937380Y-142629142D01*
X167889761Y-142533904D01*
X167842142Y-142486285D01*
X167270714Y-142152952D02*
X167270714Y-141772000D01*
X166937380Y-142010095D02*
X167794523Y-142010095D01*
X167889761Y-141962476D01*
X167937380Y-141867238D01*
X167937380Y-141772000D01*
X167937380Y-141438666D02*
X167270714Y-141438666D01*
X167461190Y-141438666D02*
X167365952Y-141391047D01*
X167318333Y-141343428D01*
X167270714Y-141248190D01*
X167270714Y-141152952D01*
X167937380Y-140391047D02*
X167413571Y-140391047D01*
X167318333Y-140438666D01*
X167270714Y-140533904D01*
X167270714Y-140724380D01*
X167318333Y-140819619D01*
X167889761Y-140391047D02*
X167937380Y-140486285D01*
X167937380Y-140724380D01*
X167889761Y-140819619D01*
X167794523Y-140867238D01*
X167699285Y-140867238D01*
X167604047Y-140819619D01*
X167556428Y-140724380D01*
X167556428Y-140486285D01*
X167508809Y-140391047D01*
X167937380Y-139772000D02*
X167889761Y-139867238D01*
X167794523Y-139914857D01*
X166937380Y-139914857D01*
X126408428Y-132889714D02*
X126408428Y-132127809D01*
X126789380Y-132508761D02*
X126027476Y-132508761D01*
X125789380Y-131175428D02*
X125789380Y-131651619D01*
X126265571Y-131699238D01*
X126217952Y-131651619D01*
X126170333Y-131556380D01*
X126170333Y-131318285D01*
X126217952Y-131223047D01*
X126265571Y-131175428D01*
X126360809Y-131127809D01*
X126598904Y-131127809D01*
X126694142Y-131175428D01*
X126741761Y-131223047D01*
X126789380Y-131318285D01*
X126789380Y-131556380D01*
X126741761Y-131651619D01*
X126694142Y-131699238D01*
X125789380Y-130842095D02*
X126789380Y-130508761D01*
X125789380Y-130175428D01*
X125868714Y-140422476D02*
X126678238Y-140422476D01*
X126773476Y-140470095D01*
X126821095Y-140517714D01*
X126868714Y-140612952D01*
X126868714Y-140755809D01*
X126821095Y-140851047D01*
X126487761Y-140422476D02*
X126535380Y-140517714D01*
X126535380Y-140708190D01*
X126487761Y-140803428D01*
X126440142Y-140851047D01*
X126344904Y-140898666D01*
X126059190Y-140898666D01*
X125963952Y-140851047D01*
X125916333Y-140803428D01*
X125868714Y-140708190D01*
X125868714Y-140517714D01*
X125916333Y-140422476D01*
X125868714Y-139946285D02*
X126535380Y-139946285D01*
X125963952Y-139946285D02*
X125916333Y-139898666D01*
X125868714Y-139803428D01*
X125868714Y-139660571D01*
X125916333Y-139565333D01*
X126011571Y-139517714D01*
X126535380Y-139517714D01*
X126535380Y-138612952D02*
X125535380Y-138612952D01*
X126487761Y-138612952D02*
X126535380Y-138708190D01*
X126535380Y-138898666D01*
X126487761Y-138993904D01*
X126440142Y-139041523D01*
X126344904Y-139089142D01*
X126059190Y-139089142D01*
X125963952Y-139041523D01*
X125916333Y-138993904D01*
X125868714Y-138898666D01*
X125868714Y-138708190D01*
X125916333Y-138612952D01*
X177081380Y-144542000D02*
X177033761Y-144637238D01*
X176938523Y-144684857D01*
X176081380Y-144684857D01*
X177081380Y-144161047D02*
X176414714Y-144161047D01*
X176081380Y-144161047D02*
X176129000Y-144208666D01*
X176176619Y-144161047D01*
X176129000Y-144113428D01*
X176081380Y-144161047D01*
X176176619Y-144161047D01*
X176414714Y-143684857D02*
X177081380Y-143684857D01*
X176509952Y-143684857D02*
X176462333Y-143637238D01*
X176414714Y-143542000D01*
X176414714Y-143399142D01*
X176462333Y-143303904D01*
X176557571Y-143256285D01*
X177081380Y-143256285D01*
X177033761Y-142399142D02*
X177081380Y-142494380D01*
X177081380Y-142684857D01*
X177033761Y-142780095D01*
X176938523Y-142827714D01*
X176557571Y-142827714D01*
X176462333Y-142780095D01*
X176414714Y-142684857D01*
X176414714Y-142494380D01*
X176462333Y-142399142D01*
X176557571Y-142351523D01*
X176652809Y-142351523D01*
X176748047Y-142827714D01*
%TO.C,J2*%
X168449666Y-113293380D02*
X168449666Y-114007666D01*
X168402047Y-114150523D01*
X168306809Y-114245761D01*
X168163952Y-114293380D01*
X168068714Y-114293380D01*
X168878238Y-113388619D02*
X168925857Y-113341000D01*
X169021095Y-113293380D01*
X169259190Y-113293380D01*
X169354428Y-113341000D01*
X169402047Y-113388619D01*
X169449666Y-113483857D01*
X169449666Y-113579095D01*
X169402047Y-113721952D01*
X168830619Y-114293380D01*
X169449666Y-114293380D01*
%TO.C,D3*%
X195524380Y-104624095D02*
X194524380Y-104624095D01*
X194524380Y-104386000D01*
X194572000Y-104243142D01*
X194667238Y-104147904D01*
X194762476Y-104100285D01*
X194952952Y-104052666D01*
X195095809Y-104052666D01*
X195286285Y-104100285D01*
X195381523Y-104147904D01*
X195476761Y-104243142D01*
X195524380Y-104386000D01*
X195524380Y-104624095D01*
X194524380Y-103719333D02*
X194524380Y-103100285D01*
X194905333Y-103433619D01*
X194905333Y-103290761D01*
X194952952Y-103195523D01*
X195000571Y-103147904D01*
X195095809Y-103100285D01*
X195333904Y-103100285D01*
X195429142Y-103147904D01*
X195476761Y-103195523D01*
X195524380Y-103290761D01*
X195524380Y-103576476D01*
X195476761Y-103671714D01*
X195429142Y-103719333D01*
%TO.C,R3*%
X188682333Y-100358380D02*
X188349000Y-99882190D01*
X188110904Y-100358380D02*
X188110904Y-99358380D01*
X188491857Y-99358380D01*
X188587095Y-99406000D01*
X188634714Y-99453619D01*
X188682333Y-99548857D01*
X188682333Y-99691714D01*
X188634714Y-99786952D01*
X188587095Y-99834571D01*
X188491857Y-99882190D01*
X188110904Y-99882190D01*
X189015666Y-99358380D02*
X189634714Y-99358380D01*
X189301380Y-99739333D01*
X189444238Y-99739333D01*
X189539476Y-99786952D01*
X189587095Y-99834571D01*
X189634714Y-99929809D01*
X189634714Y-100167904D01*
X189587095Y-100263142D01*
X189539476Y-100310761D01*
X189444238Y-100358380D01*
X189158523Y-100358380D01*
X189063285Y-100310761D01*
X189015666Y-100263142D01*
%TO.C,D1*%
X195524380Y-95226095D02*
X194524380Y-95226095D01*
X194524380Y-94988000D01*
X194572000Y-94845142D01*
X194667238Y-94749904D01*
X194762476Y-94702285D01*
X194952952Y-94654666D01*
X195095809Y-94654666D01*
X195286285Y-94702285D01*
X195381523Y-94749904D01*
X195476761Y-94845142D01*
X195524380Y-94988000D01*
X195524380Y-95226095D01*
X195524380Y-93702285D02*
X195524380Y-94273714D01*
X195524380Y-93988000D02*
X194524380Y-93988000D01*
X194667238Y-94083238D01*
X194762476Y-94178476D01*
X194810095Y-94273714D01*
%TO.C,R1*%
X188682333Y-95532380D02*
X188349000Y-95056190D01*
X188110904Y-95532380D02*
X188110904Y-94532380D01*
X188491857Y-94532380D01*
X188587095Y-94580000D01*
X188634714Y-94627619D01*
X188682333Y-94722857D01*
X188682333Y-94865714D01*
X188634714Y-94960952D01*
X188587095Y-95008571D01*
X188491857Y-95056190D01*
X188110904Y-95056190D01*
X189634714Y-95532380D02*
X189063285Y-95532380D01*
X189349000Y-95532380D02*
X189349000Y-94532380D01*
X189253761Y-94675238D01*
X189158523Y-94770476D01*
X189063285Y-94818095D01*
%TO.C,J5*%
X108505666Y-82212380D02*
X108505666Y-82926666D01*
X108458047Y-83069523D01*
X108362809Y-83164761D01*
X108219952Y-83212380D01*
X108124714Y-83212380D01*
X109458047Y-82212380D02*
X108981857Y-82212380D01*
X108934238Y-82688571D01*
X108981857Y-82640952D01*
X109077095Y-82593333D01*
X109315190Y-82593333D01*
X109410428Y-82640952D01*
X109458047Y-82688571D01*
X109505666Y-82783809D01*
X109505666Y-83021904D01*
X109458047Y-83117142D01*
X109410428Y-83164761D01*
X109315190Y-83212380D01*
X109077095Y-83212380D01*
X108981857Y-83164761D01*
X108934238Y-83117142D01*
%TO.C,J6*%
X108500666Y-135557380D02*
X108500666Y-136271666D01*
X108453047Y-136414523D01*
X108357809Y-136509761D01*
X108214952Y-136557380D01*
X108119714Y-136557380D01*
X109405428Y-135557380D02*
X109214952Y-135557380D01*
X109119714Y-135605000D01*
X109072095Y-135652619D01*
X108976857Y-135795476D01*
X108929238Y-135985952D01*
X108929238Y-136366904D01*
X108976857Y-136462142D01*
X109024476Y-136509761D01*
X109119714Y-136557380D01*
X109310190Y-136557380D01*
X109405428Y-136509761D01*
X109453047Y-136462142D01*
X109500666Y-136366904D01*
X109500666Y-136128809D01*
X109453047Y-136033571D01*
X109405428Y-135985952D01*
X109310190Y-135938333D01*
X109119714Y-135938333D01*
X109024476Y-135985952D01*
X108976857Y-136033571D01*
X108929238Y-136128809D01*
%TO.C,R5*%
X188682333Y-105057380D02*
X188349000Y-104581190D01*
X188110904Y-105057380D02*
X188110904Y-104057380D01*
X188491857Y-104057380D01*
X188587095Y-104105000D01*
X188634714Y-104152619D01*
X188682333Y-104247857D01*
X188682333Y-104390714D01*
X188634714Y-104485952D01*
X188587095Y-104533571D01*
X188491857Y-104581190D01*
X188110904Y-104581190D01*
X189587095Y-104057380D02*
X189110904Y-104057380D01*
X189063285Y-104533571D01*
X189110904Y-104485952D01*
X189206142Y-104438333D01*
X189444238Y-104438333D01*
X189539476Y-104485952D01*
X189587095Y-104533571D01*
X189634714Y-104628809D01*
X189634714Y-104866904D01*
X189587095Y-104962142D01*
X189539476Y-105009761D01*
X189444238Y-105057380D01*
X189206142Y-105057380D01*
X189110904Y-105009761D01*
X189063285Y-104962142D01*
%TO.C,PS1*%
X130611714Y-103068380D02*
X130611714Y-102068380D01*
X130992666Y-102068380D01*
X131087904Y-102116000D01*
X131135523Y-102163619D01*
X131183142Y-102258857D01*
X131183142Y-102401714D01*
X131135523Y-102496952D01*
X131087904Y-102544571D01*
X130992666Y-102592190D01*
X130611714Y-102592190D01*
X131564095Y-103020761D02*
X131706952Y-103068380D01*
X131945047Y-103068380D01*
X132040285Y-103020761D01*
X132087904Y-102973142D01*
X132135523Y-102877904D01*
X132135523Y-102782666D01*
X132087904Y-102687428D01*
X132040285Y-102639809D01*
X131945047Y-102592190D01*
X131754571Y-102544571D01*
X131659333Y-102496952D01*
X131611714Y-102449333D01*
X131564095Y-102354095D01*
X131564095Y-102258857D01*
X131611714Y-102163619D01*
X131659333Y-102116000D01*
X131754571Y-102068380D01*
X131992666Y-102068380D01*
X132135523Y-102116000D01*
X133087904Y-103068380D02*
X132516476Y-103068380D01*
X132802190Y-103068380D02*
X132802190Y-102068380D01*
X132706952Y-102211238D01*
X132611714Y-102306476D01*
X132516476Y-102354095D01*
D11*
%TO.C,J3*%
X188595000Y-139954000D02*
X199009000Y-139954000D01*
X199009000Y-117856000D02*
X188595000Y-117856000D01*
X188595000Y-117856000D02*
X188595000Y-139954000D01*
%TO.C,R2*%
X118586000Y-106275000D02*
X118586000Y-105945000D01*
X112046000Y-105945000D02*
X112046000Y-106275000D01*
X118586000Y-108685000D02*
X112046000Y-108685000D01*
X112046000Y-108685000D02*
X112046000Y-108355000D01*
X118586000Y-108355000D02*
X118586000Y-108685000D01*
X118586000Y-105945000D02*
X112046000Y-105945000D01*
%TO.C,J1*%
X194504000Y-109982000D02*
X194504000Y-108652000D01*
X197164000Y-111252000D02*
X197164000Y-113852000D01*
X194504000Y-113852000D02*
X197164000Y-113852000D01*
X194504000Y-108652000D02*
X195834000Y-108652000D01*
X194504000Y-111252000D02*
X197164000Y-111252000D01*
X194504000Y-111252000D02*
X194504000Y-113852000D01*
%TO.C,K1*%
X173559000Y-101092000D02*
X173559000Y-86092000D01*
X154559000Y-101092000D02*
X154559000Y-86092000D01*
X154559000Y-86092000D02*
X173559000Y-86092000D01*
X154559000Y-101092000D02*
X173559000Y-101092000D01*
%TO.C,J4*%
X123765000Y-111566000D02*
X128965000Y-111566000D01*
X128965000Y-106366000D02*
X128965000Y-111566000D01*
X126365000Y-106366000D02*
X128965000Y-106366000D01*
X123765000Y-108966000D02*
X126365000Y-108966000D01*
X123765000Y-106366000D02*
X125095000Y-106366000D01*
X123765000Y-108966000D02*
X123765000Y-111566000D01*
X123765000Y-107696000D02*
X123765000Y-106366000D01*
X126365000Y-108966000D02*
X126365000Y-106366000D01*
%TO.C,U1*%
X107601000Y-117689000D02*
X112242000Y-117689000D01*
X109111000Y-127929000D02*
X109111000Y-117689000D01*
X112242000Y-127929000D02*
X112242000Y-117689000D01*
X107601000Y-127929000D02*
X107601000Y-117689000D01*
X107601000Y-124659000D02*
X109111000Y-124659000D01*
X107601000Y-127929000D02*
X112242000Y-127929000D01*
X107601000Y-120958000D02*
X109111000Y-120958000D01*
%TO.C,R4*%
X112046000Y-109247000D02*
X118586000Y-109247000D01*
X118586000Y-111987000D02*
X118586000Y-111657000D01*
X112046000Y-111657000D02*
X112046000Y-111987000D01*
X112046000Y-111987000D02*
X118586000Y-111987000D01*
X118586000Y-109247000D02*
X118586000Y-109577000D01*
X112046000Y-109577000D02*
X112046000Y-109247000D01*
%TO.C,D2*%
X196786000Y-95971000D02*
X196630000Y-95971000D01*
X199102000Y-95971000D02*
X198946000Y-95971000D01*
X198945837Y-98572130D02*
G75*
G03*
X198946000Y-96490039I-1079837J1041130D01*
G01*
X196786000Y-96490039D02*
G75*
G03*
X196786163Y-98572130I1080000J-1040961D01*
G01*
X198944608Y-99203335D02*
G75*
G03*
X199101516Y-95971000I-1078608J1672335D01*
G01*
X196630484Y-95971000D02*
G75*
G03*
X196787392Y-99203335I1235516J-1560000D01*
G01*
%TO.C,PS2*%
X119479000Y-117380000D02*
X119479000Y-149892000D01*
X119479000Y-149892000D02*
X183995000Y-149892000D01*
X183995000Y-149892000D02*
X183995000Y-117380000D01*
X119479000Y-117380000D02*
X183995000Y-117380000D01*
%TO.C,J2*%
X170113000Y-110241000D02*
X170113000Y-107641000D01*
X170113000Y-107641000D02*
X167453000Y-107641000D01*
X170113000Y-110241000D02*
X167453000Y-110241000D01*
X170113000Y-112841000D02*
X168783000Y-112841000D01*
X170113000Y-111511000D02*
X170113000Y-112841000D01*
X167453000Y-110241000D02*
X167453000Y-107641000D01*
%TO.C,D3*%
X196786000Y-100670000D02*
X196630000Y-100670000D01*
X199102000Y-100670000D02*
X198946000Y-100670000D01*
X198944608Y-103902335D02*
G75*
G03*
X199101516Y-100670000I-1078608J1672335D01*
G01*
X196786000Y-101189039D02*
G75*
G03*
X196786163Y-103271130I1080000J-1040961D01*
G01*
X196630484Y-100670000D02*
G75*
G03*
X196787392Y-103902335I1235516J-1560000D01*
G01*
X198945837Y-103271130D02*
G75*
G03*
X198946000Y-101189039I-1079837J1041130D01*
G01*
%TO.C,R3*%
X192119000Y-98576000D02*
X192119000Y-98906000D01*
X192119000Y-98906000D02*
X185579000Y-98906000D01*
X185579000Y-98906000D02*
X185579000Y-98576000D01*
X192119000Y-96166000D02*
X185579000Y-96166000D01*
X192119000Y-96496000D02*
X192119000Y-96166000D01*
X185579000Y-96166000D02*
X185579000Y-96496000D01*
%TO.C,D1*%
X196786000Y-91277000D02*
X196630000Y-91277000D01*
X199102000Y-91277000D02*
X198946000Y-91277000D01*
X198944608Y-94509335D02*
G75*
G03*
X199101516Y-91277000I-1078608J1672335D01*
G01*
X196630484Y-91277000D02*
G75*
G03*
X196787392Y-94509335I1235516J-1560000D01*
G01*
X198945837Y-93878130D02*
G75*
G03*
X198946000Y-91796039I-1079837J1041130D01*
G01*
X196786000Y-91796039D02*
G75*
G03*
X196786163Y-93878130I1080000J-1040961D01*
G01*
%TO.C,R1*%
X192119000Y-93750000D02*
X192119000Y-94080000D01*
X192119000Y-94080000D02*
X185579000Y-94080000D01*
X185579000Y-94080000D02*
X185579000Y-93750000D01*
X192119000Y-91670000D02*
X192119000Y-91340000D01*
X185579000Y-91340000D02*
X185579000Y-91670000D01*
X192119000Y-91340000D02*
X185579000Y-91340000D01*
%TO.C,J5*%
X108839000Y-86360000D02*
X108839000Y-83760000D01*
X106239000Y-96580000D02*
X111439000Y-96580000D01*
X106239000Y-86360000D02*
X108839000Y-86360000D01*
X106239000Y-85090000D02*
X106239000Y-83760000D01*
X106239000Y-83760000D02*
X107569000Y-83760000D01*
X106239000Y-86360000D02*
X106239000Y-96580000D01*
X108839000Y-83760000D02*
X111439000Y-83760000D01*
X111439000Y-83760000D02*
X111439000Y-96580000D01*
%TO.C,J6*%
X106234000Y-137105000D02*
X107564000Y-137105000D01*
X111434000Y-137105000D02*
X111434000Y-149925000D01*
X106234000Y-139705000D02*
X108834000Y-139705000D01*
X106234000Y-138435000D02*
X106234000Y-137105000D01*
X106234000Y-139705000D02*
X106234000Y-149925000D01*
X106234000Y-149925000D02*
X111434000Y-149925000D01*
X108834000Y-139705000D02*
X108834000Y-137105000D01*
X108834000Y-137105000D02*
X111434000Y-137105000D01*
%TO.C,R5*%
X185579000Y-100865000D02*
X185579000Y-101195000D01*
X192119000Y-101195000D02*
X192119000Y-100865000D01*
X192119000Y-100865000D02*
X185579000Y-100865000D01*
X192119000Y-103275000D02*
X192119000Y-103605000D01*
X185579000Y-103605000D02*
X185579000Y-103275000D01*
X192119000Y-103605000D02*
X185579000Y-103605000D01*
%TO.C,PS1*%
X113876000Y-101066000D02*
X150876000Y-101066000D01*
X150876000Y-101066000D02*
X150876000Y-83566000D01*
X113876000Y-83566000D02*
X113876000Y-101066000D01*
X150876000Y-83566000D02*
X113876000Y-83566000D01*
%TD*%
M02*
