%TF.GenerationSoftware,KiCad,Pcbnew,7.0.5*%
%TF.CreationDate,2023-08-28T16:01:15+03:00*%
%TF.ProjectId,PSU2,50535532-2e6b-4696-9361-645f70636258,rev?*%
%TF.SameCoordinates,Original*%
%TF.FileFunction,Legend,Top*%
%TF.FilePolarity,Positive*%
%FSLAX46Y46*%
G04 Gerber Fmt 4.6, Leading zero omitted, Abs format (unit mm)*
G04 Created by KiCad (PCBNEW 7.0.5) date 2023-08-28 16:01:15*
%MOMM*%
%LPD*%
G01*
G04 APERTURE LIST*
%ADD10C,0.150000*%
%ADD11C,0.120000*%
G04 APERTURE END LIST*
D10*
X129830095Y-110147009D02*
X130163428Y-110147009D01*
X130306285Y-110670819D02*
X129830095Y-110670819D01*
X129830095Y-110670819D02*
X129830095Y-109670819D01*
X129830095Y-109670819D02*
X130306285Y-109670819D01*
X130734857Y-110004152D02*
X130734857Y-110670819D01*
X130734857Y-110099390D02*
X130782476Y-110051771D01*
X130782476Y-110051771D02*
X130877714Y-110004152D01*
X130877714Y-110004152D02*
X131020571Y-110004152D01*
X131020571Y-110004152D02*
X131115809Y-110051771D01*
X131115809Y-110051771D02*
X131163428Y-110147009D01*
X131163428Y-110147009D02*
X131163428Y-110670819D01*
X132068190Y-110670819D02*
X132068190Y-110147009D01*
X132068190Y-110147009D02*
X132020571Y-110051771D01*
X132020571Y-110051771D02*
X131925333Y-110004152D01*
X131925333Y-110004152D02*
X131734857Y-110004152D01*
X131734857Y-110004152D02*
X131639619Y-110051771D01*
X132068190Y-110623200D02*
X131972952Y-110670819D01*
X131972952Y-110670819D02*
X131734857Y-110670819D01*
X131734857Y-110670819D02*
X131639619Y-110623200D01*
X131639619Y-110623200D02*
X131592000Y-110527961D01*
X131592000Y-110527961D02*
X131592000Y-110432723D01*
X131592000Y-110432723D02*
X131639619Y-110337485D01*
X131639619Y-110337485D02*
X131734857Y-110289866D01*
X131734857Y-110289866D02*
X131972952Y-110289866D01*
X131972952Y-110289866D02*
X132068190Y-110242247D01*
X132544381Y-110670819D02*
X132544381Y-109670819D01*
X132544381Y-110051771D02*
X132639619Y-110004152D01*
X132639619Y-110004152D02*
X132830095Y-110004152D01*
X132830095Y-110004152D02*
X132925333Y-110051771D01*
X132925333Y-110051771D02*
X132972952Y-110099390D01*
X132972952Y-110099390D02*
X133020571Y-110194628D01*
X133020571Y-110194628D02*
X133020571Y-110480342D01*
X133020571Y-110480342D02*
X132972952Y-110575580D01*
X132972952Y-110575580D02*
X132925333Y-110623200D01*
X132925333Y-110623200D02*
X132830095Y-110670819D01*
X132830095Y-110670819D02*
X132639619Y-110670819D01*
X132639619Y-110670819D02*
X132544381Y-110623200D01*
X133592000Y-110670819D02*
X133496762Y-110623200D01*
X133496762Y-110623200D02*
X133449143Y-110527961D01*
X133449143Y-110527961D02*
X133449143Y-109670819D01*
X134353905Y-110623200D02*
X134258667Y-110670819D01*
X134258667Y-110670819D02*
X134068191Y-110670819D01*
X134068191Y-110670819D02*
X133972953Y-110623200D01*
X133972953Y-110623200D02*
X133925334Y-110527961D01*
X133925334Y-110527961D02*
X133925334Y-110147009D01*
X133925334Y-110147009D02*
X133972953Y-110051771D01*
X133972953Y-110051771D02*
X134068191Y-110004152D01*
X134068191Y-110004152D02*
X134258667Y-110004152D01*
X134258667Y-110004152D02*
X134353905Y-110051771D01*
X134353905Y-110051771D02*
X134401524Y-110147009D01*
X134401524Y-110147009D02*
X134401524Y-110242247D01*
X134401524Y-110242247D02*
X133925334Y-110337485D01*
X135496763Y-109670819D02*
X136115810Y-109670819D01*
X136115810Y-109670819D02*
X135782477Y-110051771D01*
X135782477Y-110051771D02*
X135925334Y-110051771D01*
X135925334Y-110051771D02*
X136020572Y-110099390D01*
X136020572Y-110099390D02*
X136068191Y-110147009D01*
X136068191Y-110147009D02*
X136115810Y-110242247D01*
X136115810Y-110242247D02*
X136115810Y-110480342D01*
X136115810Y-110480342D02*
X136068191Y-110575580D01*
X136068191Y-110575580D02*
X136020572Y-110623200D01*
X136020572Y-110623200D02*
X135925334Y-110670819D01*
X135925334Y-110670819D02*
X135639620Y-110670819D01*
X135639620Y-110670819D02*
X135544382Y-110623200D01*
X135544382Y-110623200D02*
X135496763Y-110575580D01*
X136544382Y-110575580D02*
X136592001Y-110623200D01*
X136592001Y-110623200D02*
X136544382Y-110670819D01*
X136544382Y-110670819D02*
X136496763Y-110623200D01*
X136496763Y-110623200D02*
X136544382Y-110575580D01*
X136544382Y-110575580D02*
X136544382Y-110670819D01*
X136925334Y-109670819D02*
X137544381Y-109670819D01*
X137544381Y-109670819D02*
X137211048Y-110051771D01*
X137211048Y-110051771D02*
X137353905Y-110051771D01*
X137353905Y-110051771D02*
X137449143Y-110099390D01*
X137449143Y-110099390D02*
X137496762Y-110147009D01*
X137496762Y-110147009D02*
X137544381Y-110242247D01*
X137544381Y-110242247D02*
X137544381Y-110480342D01*
X137544381Y-110480342D02*
X137496762Y-110575580D01*
X137496762Y-110575580D02*
X137449143Y-110623200D01*
X137449143Y-110623200D02*
X137353905Y-110670819D01*
X137353905Y-110670819D02*
X137068191Y-110670819D01*
X137068191Y-110670819D02*
X136972953Y-110623200D01*
X136972953Y-110623200D02*
X136925334Y-110575580D01*
X137830096Y-109670819D02*
X138163429Y-110670819D01*
X138163429Y-110670819D02*
X138496762Y-109670819D01*
X144487380Y-108334819D02*
X145154046Y-108334819D01*
X145154046Y-108334819D02*
X144487380Y-109334819D01*
X144487380Y-109334819D02*
X145154046Y-109334819D01*
X145677856Y-108763390D02*
X145582618Y-108715771D01*
X145582618Y-108715771D02*
X145534999Y-108668152D01*
X145534999Y-108668152D02*
X145487380Y-108572914D01*
X145487380Y-108572914D02*
X145487380Y-108525295D01*
X145487380Y-108525295D02*
X145534999Y-108430057D01*
X145534999Y-108430057D02*
X145582618Y-108382438D01*
X145582618Y-108382438D02*
X145677856Y-108334819D01*
X145677856Y-108334819D02*
X145868332Y-108334819D01*
X145868332Y-108334819D02*
X145963570Y-108382438D01*
X145963570Y-108382438D02*
X146011189Y-108430057D01*
X146011189Y-108430057D02*
X146058808Y-108525295D01*
X146058808Y-108525295D02*
X146058808Y-108572914D01*
X146058808Y-108572914D02*
X146011189Y-108668152D01*
X146011189Y-108668152D02*
X145963570Y-108715771D01*
X145963570Y-108715771D02*
X145868332Y-108763390D01*
X145868332Y-108763390D02*
X145677856Y-108763390D01*
X145677856Y-108763390D02*
X145582618Y-108811009D01*
X145582618Y-108811009D02*
X145534999Y-108858628D01*
X145534999Y-108858628D02*
X145487380Y-108953866D01*
X145487380Y-108953866D02*
X145487380Y-109144342D01*
X145487380Y-109144342D02*
X145534999Y-109239580D01*
X145534999Y-109239580D02*
X145582618Y-109287200D01*
X145582618Y-109287200D02*
X145677856Y-109334819D01*
X145677856Y-109334819D02*
X145868332Y-109334819D01*
X145868332Y-109334819D02*
X145963570Y-109287200D01*
X145963570Y-109287200D02*
X146011189Y-109239580D01*
X146011189Y-109239580D02*
X146058808Y-109144342D01*
X146058808Y-109144342D02*
X146058808Y-108953866D01*
X146058808Y-108953866D02*
X146011189Y-108858628D01*
X146011189Y-108858628D02*
X145963570Y-108811009D01*
X145963570Y-108811009D02*
X145868332Y-108763390D01*
X146677856Y-108334819D02*
X146773094Y-108334819D01*
X146773094Y-108334819D02*
X146868332Y-108382438D01*
X146868332Y-108382438D02*
X146915951Y-108430057D01*
X146915951Y-108430057D02*
X146963570Y-108525295D01*
X146963570Y-108525295D02*
X147011189Y-108715771D01*
X147011189Y-108715771D02*
X147011189Y-108953866D01*
X147011189Y-108953866D02*
X146963570Y-109144342D01*
X146963570Y-109144342D02*
X146915951Y-109239580D01*
X146915951Y-109239580D02*
X146868332Y-109287200D01*
X146868332Y-109287200D02*
X146773094Y-109334819D01*
X146773094Y-109334819D02*
X146677856Y-109334819D01*
X146677856Y-109334819D02*
X146582618Y-109287200D01*
X146582618Y-109287200D02*
X146534999Y-109239580D01*
X146534999Y-109239580D02*
X146487380Y-109144342D01*
X146487380Y-109144342D02*
X146439761Y-108953866D01*
X146439761Y-108953866D02*
X146439761Y-108715771D01*
X146439761Y-108715771D02*
X146487380Y-108525295D01*
X146487380Y-108525295D02*
X146534999Y-108430057D01*
X146534999Y-108430057D02*
X146582618Y-108382438D01*
X146582618Y-108382438D02*
X146677856Y-108334819D01*
X148201666Y-109334819D02*
X148201666Y-108334819D01*
X148201666Y-108334819D02*
X148534999Y-109049104D01*
X148534999Y-109049104D02*
X148868332Y-108334819D01*
X148868332Y-108334819D02*
X148868332Y-109334819D01*
X149487380Y-109334819D02*
X149392142Y-109287200D01*
X149392142Y-109287200D02*
X149344523Y-109239580D01*
X149344523Y-109239580D02*
X149296904Y-109144342D01*
X149296904Y-109144342D02*
X149296904Y-108858628D01*
X149296904Y-108858628D02*
X149344523Y-108763390D01*
X149344523Y-108763390D02*
X149392142Y-108715771D01*
X149392142Y-108715771D02*
X149487380Y-108668152D01*
X149487380Y-108668152D02*
X149630237Y-108668152D01*
X149630237Y-108668152D02*
X149725475Y-108715771D01*
X149725475Y-108715771D02*
X149773094Y-108763390D01*
X149773094Y-108763390D02*
X149820713Y-108858628D01*
X149820713Y-108858628D02*
X149820713Y-109144342D01*
X149820713Y-109144342D02*
X149773094Y-109239580D01*
X149773094Y-109239580D02*
X149725475Y-109287200D01*
X149725475Y-109287200D02*
X149630237Y-109334819D01*
X149630237Y-109334819D02*
X149487380Y-109334819D01*
X150677856Y-109334819D02*
X150677856Y-108334819D01*
X150677856Y-109287200D02*
X150582618Y-109334819D01*
X150582618Y-109334819D02*
X150392142Y-109334819D01*
X150392142Y-109334819D02*
X150296904Y-109287200D01*
X150296904Y-109287200D02*
X150249285Y-109239580D01*
X150249285Y-109239580D02*
X150201666Y-109144342D01*
X150201666Y-109144342D02*
X150201666Y-108858628D01*
X150201666Y-108858628D02*
X150249285Y-108763390D01*
X150249285Y-108763390D02*
X150296904Y-108715771D01*
X150296904Y-108715771D02*
X150392142Y-108668152D01*
X150392142Y-108668152D02*
X150582618Y-108668152D01*
X150582618Y-108668152D02*
X150677856Y-108715771D01*
X151582618Y-108668152D02*
X151582618Y-109334819D01*
X151154047Y-108668152D02*
X151154047Y-109191961D01*
X151154047Y-109191961D02*
X151201666Y-109287200D01*
X151201666Y-109287200D02*
X151296904Y-109334819D01*
X151296904Y-109334819D02*
X151439761Y-109334819D01*
X151439761Y-109334819D02*
X151534999Y-109287200D01*
X151534999Y-109287200D02*
X151582618Y-109239580D01*
X152201666Y-109334819D02*
X152106428Y-109287200D01*
X152106428Y-109287200D02*
X152058809Y-109191961D01*
X152058809Y-109191961D02*
X152058809Y-108334819D01*
X153011190Y-109334819D02*
X153011190Y-108811009D01*
X153011190Y-108811009D02*
X152963571Y-108715771D01*
X152963571Y-108715771D02*
X152868333Y-108668152D01*
X152868333Y-108668152D02*
X152677857Y-108668152D01*
X152677857Y-108668152D02*
X152582619Y-108715771D01*
X153011190Y-109287200D02*
X152915952Y-109334819D01*
X152915952Y-109334819D02*
X152677857Y-109334819D01*
X152677857Y-109334819D02*
X152582619Y-109287200D01*
X152582619Y-109287200D02*
X152535000Y-109191961D01*
X152535000Y-109191961D02*
X152535000Y-109096723D01*
X152535000Y-109096723D02*
X152582619Y-109001485D01*
X152582619Y-109001485D02*
X152677857Y-108953866D01*
X152677857Y-108953866D02*
X152915952Y-108953866D01*
X152915952Y-108953866D02*
X153011190Y-108906247D01*
X153487381Y-109334819D02*
X153487381Y-108668152D01*
X153487381Y-108858628D02*
X153535000Y-108763390D01*
X153535000Y-108763390D02*
X153582619Y-108715771D01*
X153582619Y-108715771D02*
X153677857Y-108668152D01*
X153677857Y-108668152D02*
X153773095Y-108668152D01*
X155439762Y-109239580D02*
X155392143Y-109287200D01*
X155392143Y-109287200D02*
X155249286Y-109334819D01*
X155249286Y-109334819D02*
X155154048Y-109334819D01*
X155154048Y-109334819D02*
X155011191Y-109287200D01*
X155011191Y-109287200D02*
X154915953Y-109191961D01*
X154915953Y-109191961D02*
X154868334Y-109096723D01*
X154868334Y-109096723D02*
X154820715Y-108906247D01*
X154820715Y-108906247D02*
X154820715Y-108763390D01*
X154820715Y-108763390D02*
X154868334Y-108572914D01*
X154868334Y-108572914D02*
X154915953Y-108477676D01*
X154915953Y-108477676D02*
X155011191Y-108382438D01*
X155011191Y-108382438D02*
X155154048Y-108334819D01*
X155154048Y-108334819D02*
X155249286Y-108334819D01*
X155249286Y-108334819D02*
X155392143Y-108382438D01*
X155392143Y-108382438D02*
X155439762Y-108430057D01*
X156011191Y-109334819D02*
X155915953Y-109287200D01*
X155915953Y-109287200D02*
X155868334Y-109239580D01*
X155868334Y-109239580D02*
X155820715Y-109144342D01*
X155820715Y-109144342D02*
X155820715Y-108858628D01*
X155820715Y-108858628D02*
X155868334Y-108763390D01*
X155868334Y-108763390D02*
X155915953Y-108715771D01*
X155915953Y-108715771D02*
X156011191Y-108668152D01*
X156011191Y-108668152D02*
X156154048Y-108668152D01*
X156154048Y-108668152D02*
X156249286Y-108715771D01*
X156249286Y-108715771D02*
X156296905Y-108763390D01*
X156296905Y-108763390D02*
X156344524Y-108858628D01*
X156344524Y-108858628D02*
X156344524Y-109144342D01*
X156344524Y-109144342D02*
X156296905Y-109239580D01*
X156296905Y-109239580D02*
X156249286Y-109287200D01*
X156249286Y-109287200D02*
X156154048Y-109334819D01*
X156154048Y-109334819D02*
X156011191Y-109334819D01*
X156773096Y-109334819D02*
X156773096Y-108668152D01*
X156773096Y-108763390D02*
X156820715Y-108715771D01*
X156820715Y-108715771D02*
X156915953Y-108668152D01*
X156915953Y-108668152D02*
X157058810Y-108668152D01*
X157058810Y-108668152D02*
X157154048Y-108715771D01*
X157154048Y-108715771D02*
X157201667Y-108811009D01*
X157201667Y-108811009D02*
X157201667Y-109334819D01*
X157201667Y-108811009D02*
X157249286Y-108715771D01*
X157249286Y-108715771D02*
X157344524Y-108668152D01*
X157344524Y-108668152D02*
X157487381Y-108668152D01*
X157487381Y-108668152D02*
X157582620Y-108715771D01*
X157582620Y-108715771D02*
X157630239Y-108811009D01*
X157630239Y-108811009D02*
X157630239Y-109334819D01*
X158106429Y-108668152D02*
X158106429Y-109668152D01*
X158106429Y-108715771D02*
X158201667Y-108668152D01*
X158201667Y-108668152D02*
X158392143Y-108668152D01*
X158392143Y-108668152D02*
X158487381Y-108715771D01*
X158487381Y-108715771D02*
X158535000Y-108763390D01*
X158535000Y-108763390D02*
X158582619Y-108858628D01*
X158582619Y-108858628D02*
X158582619Y-109144342D01*
X158582619Y-109144342D02*
X158535000Y-109239580D01*
X158535000Y-109239580D02*
X158487381Y-109287200D01*
X158487381Y-109287200D02*
X158392143Y-109334819D01*
X158392143Y-109334819D02*
X158201667Y-109334819D01*
X158201667Y-109334819D02*
X158106429Y-109287200D01*
X159439762Y-108668152D02*
X159439762Y-109334819D01*
X159011191Y-108668152D02*
X159011191Y-109191961D01*
X159011191Y-109191961D02*
X159058810Y-109287200D01*
X159058810Y-109287200D02*
X159154048Y-109334819D01*
X159154048Y-109334819D02*
X159296905Y-109334819D01*
X159296905Y-109334819D02*
X159392143Y-109287200D01*
X159392143Y-109287200D02*
X159439762Y-109239580D01*
X159773096Y-108668152D02*
X160154048Y-108668152D01*
X159915953Y-108334819D02*
X159915953Y-109191961D01*
X159915953Y-109191961D02*
X159963572Y-109287200D01*
X159963572Y-109287200D02*
X160058810Y-109334819D01*
X160058810Y-109334819D02*
X160154048Y-109334819D01*
X160868334Y-109287200D02*
X160773096Y-109334819D01*
X160773096Y-109334819D02*
X160582620Y-109334819D01*
X160582620Y-109334819D02*
X160487382Y-109287200D01*
X160487382Y-109287200D02*
X160439763Y-109191961D01*
X160439763Y-109191961D02*
X160439763Y-108811009D01*
X160439763Y-108811009D02*
X160487382Y-108715771D01*
X160487382Y-108715771D02*
X160582620Y-108668152D01*
X160582620Y-108668152D02*
X160773096Y-108668152D01*
X160773096Y-108668152D02*
X160868334Y-108715771D01*
X160868334Y-108715771D02*
X160915953Y-108811009D01*
X160915953Y-108811009D02*
X160915953Y-108906247D01*
X160915953Y-108906247D02*
X160439763Y-109001485D01*
X161344525Y-109334819D02*
X161344525Y-108668152D01*
X161344525Y-108858628D02*
X161392144Y-108763390D01*
X161392144Y-108763390D02*
X161439763Y-108715771D01*
X161439763Y-108715771D02*
X161535001Y-108668152D01*
X161535001Y-108668152D02*
X161630239Y-108668152D01*
X145058809Y-110944819D02*
X145058809Y-109944819D01*
X145058809Y-109944819D02*
X145439761Y-109944819D01*
X145439761Y-109944819D02*
X145534999Y-109992438D01*
X145534999Y-109992438D02*
X145582618Y-110040057D01*
X145582618Y-110040057D02*
X145630237Y-110135295D01*
X145630237Y-110135295D02*
X145630237Y-110278152D01*
X145630237Y-110278152D02*
X145582618Y-110373390D01*
X145582618Y-110373390D02*
X145534999Y-110421009D01*
X145534999Y-110421009D02*
X145439761Y-110468628D01*
X145439761Y-110468628D02*
X145058809Y-110468628D01*
X146011190Y-110897200D02*
X146154047Y-110944819D01*
X146154047Y-110944819D02*
X146392142Y-110944819D01*
X146392142Y-110944819D02*
X146487380Y-110897200D01*
X146487380Y-110897200D02*
X146534999Y-110849580D01*
X146534999Y-110849580D02*
X146582618Y-110754342D01*
X146582618Y-110754342D02*
X146582618Y-110659104D01*
X146582618Y-110659104D02*
X146534999Y-110563866D01*
X146534999Y-110563866D02*
X146487380Y-110516247D01*
X146487380Y-110516247D02*
X146392142Y-110468628D01*
X146392142Y-110468628D02*
X146201666Y-110421009D01*
X146201666Y-110421009D02*
X146106428Y-110373390D01*
X146106428Y-110373390D02*
X146058809Y-110325771D01*
X146058809Y-110325771D02*
X146011190Y-110230533D01*
X146011190Y-110230533D02*
X146011190Y-110135295D01*
X146011190Y-110135295D02*
X146058809Y-110040057D01*
X146058809Y-110040057D02*
X146106428Y-109992438D01*
X146106428Y-109992438D02*
X146201666Y-109944819D01*
X146201666Y-109944819D02*
X146439761Y-109944819D01*
X146439761Y-109944819D02*
X146582618Y-109992438D01*
X147011190Y-109944819D02*
X147011190Y-110754342D01*
X147011190Y-110754342D02*
X147058809Y-110849580D01*
X147058809Y-110849580D02*
X147106428Y-110897200D01*
X147106428Y-110897200D02*
X147201666Y-110944819D01*
X147201666Y-110944819D02*
X147392142Y-110944819D01*
X147392142Y-110944819D02*
X147487380Y-110897200D01*
X147487380Y-110897200D02*
X147534999Y-110849580D01*
X147534999Y-110849580D02*
X147582618Y-110754342D01*
X147582618Y-110754342D02*
X147582618Y-109944819D01*
X149392142Y-110849580D02*
X149344523Y-110897200D01*
X149344523Y-110897200D02*
X149201666Y-110944819D01*
X149201666Y-110944819D02*
X149106428Y-110944819D01*
X149106428Y-110944819D02*
X148963571Y-110897200D01*
X148963571Y-110897200D02*
X148868333Y-110801961D01*
X148868333Y-110801961D02*
X148820714Y-110706723D01*
X148820714Y-110706723D02*
X148773095Y-110516247D01*
X148773095Y-110516247D02*
X148773095Y-110373390D01*
X148773095Y-110373390D02*
X148820714Y-110182914D01*
X148820714Y-110182914D02*
X148868333Y-110087676D01*
X148868333Y-110087676D02*
X148963571Y-109992438D01*
X148963571Y-109992438D02*
X149106428Y-109944819D01*
X149106428Y-109944819D02*
X149201666Y-109944819D01*
X149201666Y-109944819D02*
X149344523Y-109992438D01*
X149344523Y-109992438D02*
X149392142Y-110040057D01*
X150249285Y-110944819D02*
X150249285Y-110421009D01*
X150249285Y-110421009D02*
X150201666Y-110325771D01*
X150201666Y-110325771D02*
X150106428Y-110278152D01*
X150106428Y-110278152D02*
X149915952Y-110278152D01*
X149915952Y-110278152D02*
X149820714Y-110325771D01*
X150249285Y-110897200D02*
X150154047Y-110944819D01*
X150154047Y-110944819D02*
X149915952Y-110944819D01*
X149915952Y-110944819D02*
X149820714Y-110897200D01*
X149820714Y-110897200D02*
X149773095Y-110801961D01*
X149773095Y-110801961D02*
X149773095Y-110706723D01*
X149773095Y-110706723D02*
X149820714Y-110611485D01*
X149820714Y-110611485D02*
X149915952Y-110563866D01*
X149915952Y-110563866D02*
X150154047Y-110563866D01*
X150154047Y-110563866D02*
X150249285Y-110516247D01*
X150725476Y-110944819D02*
X150725476Y-110278152D01*
X150725476Y-110468628D02*
X150773095Y-110373390D01*
X150773095Y-110373390D02*
X150820714Y-110325771D01*
X150820714Y-110325771D02*
X150915952Y-110278152D01*
X150915952Y-110278152D02*
X151011190Y-110278152D01*
X151773095Y-110944819D02*
X151773095Y-109944819D01*
X151773095Y-110897200D02*
X151677857Y-110944819D01*
X151677857Y-110944819D02*
X151487381Y-110944819D01*
X151487381Y-110944819D02*
X151392143Y-110897200D01*
X151392143Y-110897200D02*
X151344524Y-110849580D01*
X151344524Y-110849580D02*
X151296905Y-110754342D01*
X151296905Y-110754342D02*
X151296905Y-110468628D01*
X151296905Y-110468628D02*
X151344524Y-110373390D01*
X151344524Y-110373390D02*
X151392143Y-110325771D01*
X151392143Y-110325771D02*
X151487381Y-110278152D01*
X151487381Y-110278152D02*
X151677857Y-110278152D01*
X151677857Y-110278152D02*
X151773095Y-110325771D01*
X152915953Y-110278152D02*
X153154048Y-110944819D01*
X153154048Y-110944819D02*
X153392143Y-110278152D01*
X154154048Y-110897200D02*
X154058810Y-110944819D01*
X154058810Y-110944819D02*
X153868334Y-110944819D01*
X153868334Y-110944819D02*
X153773096Y-110897200D01*
X153773096Y-110897200D02*
X153725477Y-110801961D01*
X153725477Y-110801961D02*
X153725477Y-110421009D01*
X153725477Y-110421009D02*
X153773096Y-110325771D01*
X153773096Y-110325771D02*
X153868334Y-110278152D01*
X153868334Y-110278152D02*
X154058810Y-110278152D01*
X154058810Y-110278152D02*
X154154048Y-110325771D01*
X154154048Y-110325771D02*
X154201667Y-110421009D01*
X154201667Y-110421009D02*
X154201667Y-110516247D01*
X154201667Y-110516247D02*
X153725477Y-110611485D01*
X154630239Y-110944819D02*
X154630239Y-110278152D01*
X154630239Y-110468628D02*
X154677858Y-110373390D01*
X154677858Y-110373390D02*
X154725477Y-110325771D01*
X154725477Y-110325771D02*
X154820715Y-110278152D01*
X154820715Y-110278152D02*
X154915953Y-110278152D01*
X155201668Y-110897200D02*
X155296906Y-110944819D01*
X155296906Y-110944819D02*
X155487382Y-110944819D01*
X155487382Y-110944819D02*
X155582620Y-110897200D01*
X155582620Y-110897200D02*
X155630239Y-110801961D01*
X155630239Y-110801961D02*
X155630239Y-110754342D01*
X155630239Y-110754342D02*
X155582620Y-110659104D01*
X155582620Y-110659104D02*
X155487382Y-110611485D01*
X155487382Y-110611485D02*
X155344525Y-110611485D01*
X155344525Y-110611485D02*
X155249287Y-110563866D01*
X155249287Y-110563866D02*
X155201668Y-110468628D01*
X155201668Y-110468628D02*
X155201668Y-110421009D01*
X155201668Y-110421009D02*
X155249287Y-110325771D01*
X155249287Y-110325771D02*
X155344525Y-110278152D01*
X155344525Y-110278152D02*
X155487382Y-110278152D01*
X155487382Y-110278152D02*
X155582620Y-110325771D01*
X156058811Y-110944819D02*
X156058811Y-110278152D01*
X156058811Y-109944819D02*
X156011192Y-109992438D01*
X156011192Y-109992438D02*
X156058811Y-110040057D01*
X156058811Y-110040057D02*
X156106430Y-109992438D01*
X156106430Y-109992438D02*
X156058811Y-109944819D01*
X156058811Y-109944819D02*
X156058811Y-110040057D01*
X156677858Y-110944819D02*
X156582620Y-110897200D01*
X156582620Y-110897200D02*
X156535001Y-110849580D01*
X156535001Y-110849580D02*
X156487382Y-110754342D01*
X156487382Y-110754342D02*
X156487382Y-110468628D01*
X156487382Y-110468628D02*
X156535001Y-110373390D01*
X156535001Y-110373390D02*
X156582620Y-110325771D01*
X156582620Y-110325771D02*
X156677858Y-110278152D01*
X156677858Y-110278152D02*
X156820715Y-110278152D01*
X156820715Y-110278152D02*
X156915953Y-110325771D01*
X156915953Y-110325771D02*
X156963572Y-110373390D01*
X156963572Y-110373390D02*
X157011191Y-110468628D01*
X157011191Y-110468628D02*
X157011191Y-110754342D01*
X157011191Y-110754342D02*
X156963572Y-110849580D01*
X156963572Y-110849580D02*
X156915953Y-110897200D01*
X156915953Y-110897200D02*
X156820715Y-110944819D01*
X156820715Y-110944819D02*
X156677858Y-110944819D01*
X157439763Y-110278152D02*
X157439763Y-110944819D01*
X157439763Y-110373390D02*
X157487382Y-110325771D01*
X157487382Y-110325771D02*
X157582620Y-110278152D01*
X157582620Y-110278152D02*
X157725477Y-110278152D01*
X157725477Y-110278152D02*
X157820715Y-110325771D01*
X157820715Y-110325771D02*
X157868334Y-110421009D01*
X157868334Y-110421009D02*
X157868334Y-110944819D01*
X159058811Y-110040057D02*
X159106430Y-109992438D01*
X159106430Y-109992438D02*
X159201668Y-109944819D01*
X159201668Y-109944819D02*
X159439763Y-109944819D01*
X159439763Y-109944819D02*
X159535001Y-109992438D01*
X159535001Y-109992438D02*
X159582620Y-110040057D01*
X159582620Y-110040057D02*
X159630239Y-110135295D01*
X159630239Y-110135295D02*
X159630239Y-110230533D01*
X159630239Y-110230533D02*
X159582620Y-110373390D01*
X159582620Y-110373390D02*
X159011192Y-110944819D01*
X159011192Y-110944819D02*
X159630239Y-110944819D01*
X160058811Y-110849580D02*
X160106430Y-110897200D01*
X160106430Y-110897200D02*
X160058811Y-110944819D01*
X160058811Y-110944819D02*
X160011192Y-110897200D01*
X160011192Y-110897200D02*
X160058811Y-110849580D01*
X160058811Y-110849580D02*
X160058811Y-110944819D01*
X160725477Y-109944819D02*
X160820715Y-109944819D01*
X160820715Y-109944819D02*
X160915953Y-109992438D01*
X160915953Y-109992438D02*
X160963572Y-110040057D01*
X160963572Y-110040057D02*
X161011191Y-110135295D01*
X161011191Y-110135295D02*
X161058810Y-110325771D01*
X161058810Y-110325771D02*
X161058810Y-110563866D01*
X161058810Y-110563866D02*
X161011191Y-110754342D01*
X161011191Y-110754342D02*
X160963572Y-110849580D01*
X160963572Y-110849580D02*
X160915953Y-110897200D01*
X160915953Y-110897200D02*
X160820715Y-110944819D01*
X160820715Y-110944819D02*
X160725477Y-110944819D01*
X160725477Y-110944819D02*
X160630239Y-110897200D01*
X160630239Y-110897200D02*
X160582620Y-110849580D01*
X160582620Y-110849580D02*
X160535001Y-110754342D01*
X160535001Y-110754342D02*
X160487382Y-110563866D01*
X160487382Y-110563866D02*
X160487382Y-110325771D01*
X160487382Y-110325771D02*
X160535001Y-110135295D01*
X160535001Y-110135295D02*
X160582620Y-110040057D01*
X160582620Y-110040057D02*
X160630239Y-109992438D01*
X160630239Y-109992438D02*
X160725477Y-109944819D01*
X141963570Y-112554819D02*
X141963570Y-111554819D01*
X141963570Y-111554819D02*
X142201665Y-111554819D01*
X142201665Y-111554819D02*
X142344522Y-111602438D01*
X142344522Y-111602438D02*
X142439760Y-111697676D01*
X142439760Y-111697676D02*
X142487379Y-111792914D01*
X142487379Y-111792914D02*
X142534998Y-111983390D01*
X142534998Y-111983390D02*
X142534998Y-112126247D01*
X142534998Y-112126247D02*
X142487379Y-112316723D01*
X142487379Y-112316723D02*
X142439760Y-112411961D01*
X142439760Y-112411961D02*
X142344522Y-112507200D01*
X142344522Y-112507200D02*
X142201665Y-112554819D01*
X142201665Y-112554819D02*
X141963570Y-112554819D01*
X143344522Y-112507200D02*
X143249284Y-112554819D01*
X143249284Y-112554819D02*
X143058808Y-112554819D01*
X143058808Y-112554819D02*
X142963570Y-112507200D01*
X142963570Y-112507200D02*
X142915951Y-112411961D01*
X142915951Y-112411961D02*
X142915951Y-112031009D01*
X142915951Y-112031009D02*
X142963570Y-111935771D01*
X142963570Y-111935771D02*
X143058808Y-111888152D01*
X143058808Y-111888152D02*
X143249284Y-111888152D01*
X143249284Y-111888152D02*
X143344522Y-111935771D01*
X143344522Y-111935771D02*
X143392141Y-112031009D01*
X143392141Y-112031009D02*
X143392141Y-112126247D01*
X143392141Y-112126247D02*
X142915951Y-112221485D01*
X143773094Y-112507200D02*
X143868332Y-112554819D01*
X143868332Y-112554819D02*
X144058808Y-112554819D01*
X144058808Y-112554819D02*
X144154046Y-112507200D01*
X144154046Y-112507200D02*
X144201665Y-112411961D01*
X144201665Y-112411961D02*
X144201665Y-112364342D01*
X144201665Y-112364342D02*
X144154046Y-112269104D01*
X144154046Y-112269104D02*
X144058808Y-112221485D01*
X144058808Y-112221485D02*
X143915951Y-112221485D01*
X143915951Y-112221485D02*
X143820713Y-112173866D01*
X143820713Y-112173866D02*
X143773094Y-112078628D01*
X143773094Y-112078628D02*
X143773094Y-112031009D01*
X143773094Y-112031009D02*
X143820713Y-111935771D01*
X143820713Y-111935771D02*
X143915951Y-111888152D01*
X143915951Y-111888152D02*
X144058808Y-111888152D01*
X144058808Y-111888152D02*
X144154046Y-111935771D01*
X144630237Y-112554819D02*
X144630237Y-111888152D01*
X144630237Y-111554819D02*
X144582618Y-111602438D01*
X144582618Y-111602438D02*
X144630237Y-111650057D01*
X144630237Y-111650057D02*
X144677856Y-111602438D01*
X144677856Y-111602438D02*
X144630237Y-111554819D01*
X144630237Y-111554819D02*
X144630237Y-111650057D01*
X145534998Y-111888152D02*
X145534998Y-112697676D01*
X145534998Y-112697676D02*
X145487379Y-112792914D01*
X145487379Y-112792914D02*
X145439760Y-112840533D01*
X145439760Y-112840533D02*
X145344522Y-112888152D01*
X145344522Y-112888152D02*
X145201665Y-112888152D01*
X145201665Y-112888152D02*
X145106427Y-112840533D01*
X145534998Y-112507200D02*
X145439760Y-112554819D01*
X145439760Y-112554819D02*
X145249284Y-112554819D01*
X145249284Y-112554819D02*
X145154046Y-112507200D01*
X145154046Y-112507200D02*
X145106427Y-112459580D01*
X145106427Y-112459580D02*
X145058808Y-112364342D01*
X145058808Y-112364342D02*
X145058808Y-112078628D01*
X145058808Y-112078628D02*
X145106427Y-111983390D01*
X145106427Y-111983390D02*
X145154046Y-111935771D01*
X145154046Y-111935771D02*
X145249284Y-111888152D01*
X145249284Y-111888152D02*
X145439760Y-111888152D01*
X145439760Y-111888152D02*
X145534998Y-111935771D01*
X146011189Y-111888152D02*
X146011189Y-112554819D01*
X146011189Y-111983390D02*
X146058808Y-111935771D01*
X146058808Y-111935771D02*
X146154046Y-111888152D01*
X146154046Y-111888152D02*
X146296903Y-111888152D01*
X146296903Y-111888152D02*
X146392141Y-111935771D01*
X146392141Y-111935771D02*
X146439760Y-112031009D01*
X146439760Y-112031009D02*
X146439760Y-112554819D01*
X147677856Y-112554819D02*
X147677856Y-111554819D01*
X147677856Y-111935771D02*
X147773094Y-111888152D01*
X147773094Y-111888152D02*
X147963570Y-111888152D01*
X147963570Y-111888152D02*
X148058808Y-111935771D01*
X148058808Y-111935771D02*
X148106427Y-111983390D01*
X148106427Y-111983390D02*
X148154046Y-112078628D01*
X148154046Y-112078628D02*
X148154046Y-112364342D01*
X148154046Y-112364342D02*
X148106427Y-112459580D01*
X148106427Y-112459580D02*
X148058808Y-112507200D01*
X148058808Y-112507200D02*
X147963570Y-112554819D01*
X147963570Y-112554819D02*
X147773094Y-112554819D01*
X147773094Y-112554819D02*
X147677856Y-112507200D01*
X148487380Y-111888152D02*
X148725475Y-112554819D01*
X148963570Y-111888152D02*
X148725475Y-112554819D01*
X148725475Y-112554819D02*
X148630237Y-112792914D01*
X148630237Y-112792914D02*
X148582618Y-112840533D01*
X148582618Y-112840533D02*
X148487380Y-112888152D01*
X150106428Y-112554819D02*
X150106428Y-111554819D01*
X150677856Y-112554819D02*
X150249285Y-111983390D01*
X150677856Y-111554819D02*
X150106428Y-112126247D01*
X151534999Y-112554819D02*
X151534999Y-112031009D01*
X151534999Y-112031009D02*
X151487380Y-111935771D01*
X151487380Y-111935771D02*
X151392142Y-111888152D01*
X151392142Y-111888152D02*
X151201666Y-111888152D01*
X151201666Y-111888152D02*
X151106428Y-111935771D01*
X151534999Y-112507200D02*
X151439761Y-112554819D01*
X151439761Y-112554819D02*
X151201666Y-112554819D01*
X151201666Y-112554819D02*
X151106428Y-112507200D01*
X151106428Y-112507200D02*
X151058809Y-112411961D01*
X151058809Y-112411961D02*
X151058809Y-112316723D01*
X151058809Y-112316723D02*
X151106428Y-112221485D01*
X151106428Y-112221485D02*
X151201666Y-112173866D01*
X151201666Y-112173866D02*
X151439761Y-112173866D01*
X151439761Y-112173866D02*
X151534999Y-112126247D01*
X152154047Y-112554819D02*
X152058809Y-112507200D01*
X152058809Y-112507200D02*
X152011190Y-112411961D01*
X152011190Y-112411961D02*
X152011190Y-111554819D01*
X152392143Y-111888152D02*
X152773095Y-111888152D01*
X152535000Y-111554819D02*
X152535000Y-112411961D01*
X152535000Y-112411961D02*
X152582619Y-112507200D01*
X152582619Y-112507200D02*
X152677857Y-112554819D01*
X152677857Y-112554819D02*
X152773095Y-112554819D01*
X153535000Y-112507200D02*
X153439762Y-112554819D01*
X153439762Y-112554819D02*
X153249286Y-112554819D01*
X153249286Y-112554819D02*
X153154048Y-112507200D01*
X153154048Y-112507200D02*
X153106429Y-112459580D01*
X153106429Y-112459580D02*
X153058810Y-112364342D01*
X153058810Y-112364342D02*
X153058810Y-112078628D01*
X153058810Y-112078628D02*
X153106429Y-111983390D01*
X153106429Y-111983390D02*
X153154048Y-111935771D01*
X153154048Y-111935771D02*
X153249286Y-111888152D01*
X153249286Y-111888152D02*
X153439762Y-111888152D01*
X153439762Y-111888152D02*
X153535000Y-111935771D01*
X153963572Y-112554819D02*
X153963572Y-111554819D01*
X154392143Y-112554819D02*
X154392143Y-112031009D01*
X154392143Y-112031009D02*
X154344524Y-111935771D01*
X154344524Y-111935771D02*
X154249286Y-111888152D01*
X154249286Y-111888152D02*
X154106429Y-111888152D01*
X154106429Y-111888152D02*
X154011191Y-111935771D01*
X154011191Y-111935771D02*
X153963572Y-111983390D01*
X155296905Y-111888152D02*
X155296905Y-112554819D01*
X154868334Y-111888152D02*
X154868334Y-112411961D01*
X154868334Y-112411961D02*
X154915953Y-112507200D01*
X154915953Y-112507200D02*
X155011191Y-112554819D01*
X155011191Y-112554819D02*
X155154048Y-112554819D01*
X155154048Y-112554819D02*
X155249286Y-112507200D01*
X155249286Y-112507200D02*
X155296905Y-112459580D01*
X155773096Y-112554819D02*
X155773096Y-111554819D01*
X155868334Y-112173866D02*
X156154048Y-112554819D01*
X156154048Y-111888152D02*
X155773096Y-112269104D01*
X156630239Y-112507200D02*
X156630239Y-112554819D01*
X156630239Y-112554819D02*
X156582620Y-112650057D01*
X156582620Y-112650057D02*
X156535001Y-112697676D01*
X158011191Y-111554819D02*
X158106429Y-111554819D01*
X158106429Y-111554819D02*
X158201667Y-111602438D01*
X158201667Y-111602438D02*
X158249286Y-111650057D01*
X158249286Y-111650057D02*
X158296905Y-111745295D01*
X158296905Y-111745295D02*
X158344524Y-111935771D01*
X158344524Y-111935771D02*
X158344524Y-112173866D01*
X158344524Y-112173866D02*
X158296905Y-112364342D01*
X158296905Y-112364342D02*
X158249286Y-112459580D01*
X158249286Y-112459580D02*
X158201667Y-112507200D01*
X158201667Y-112507200D02*
X158106429Y-112554819D01*
X158106429Y-112554819D02*
X158011191Y-112554819D01*
X158011191Y-112554819D02*
X157915953Y-112507200D01*
X157915953Y-112507200D02*
X157868334Y-112459580D01*
X157868334Y-112459580D02*
X157820715Y-112364342D01*
X157820715Y-112364342D02*
X157773096Y-112173866D01*
X157773096Y-112173866D02*
X157773096Y-111935771D01*
X157773096Y-111935771D02*
X157820715Y-111745295D01*
X157820715Y-111745295D02*
X157868334Y-111650057D01*
X157868334Y-111650057D02*
X157915953Y-111602438D01*
X157915953Y-111602438D02*
X158011191Y-111554819D01*
X158915953Y-111983390D02*
X158820715Y-111935771D01*
X158820715Y-111935771D02*
X158773096Y-111888152D01*
X158773096Y-111888152D02*
X158725477Y-111792914D01*
X158725477Y-111792914D02*
X158725477Y-111745295D01*
X158725477Y-111745295D02*
X158773096Y-111650057D01*
X158773096Y-111650057D02*
X158820715Y-111602438D01*
X158820715Y-111602438D02*
X158915953Y-111554819D01*
X158915953Y-111554819D02*
X159106429Y-111554819D01*
X159106429Y-111554819D02*
X159201667Y-111602438D01*
X159201667Y-111602438D02*
X159249286Y-111650057D01*
X159249286Y-111650057D02*
X159296905Y-111745295D01*
X159296905Y-111745295D02*
X159296905Y-111792914D01*
X159296905Y-111792914D02*
X159249286Y-111888152D01*
X159249286Y-111888152D02*
X159201667Y-111935771D01*
X159201667Y-111935771D02*
X159106429Y-111983390D01*
X159106429Y-111983390D02*
X158915953Y-111983390D01*
X158915953Y-111983390D02*
X158820715Y-112031009D01*
X158820715Y-112031009D02*
X158773096Y-112078628D01*
X158773096Y-112078628D02*
X158725477Y-112173866D01*
X158725477Y-112173866D02*
X158725477Y-112364342D01*
X158725477Y-112364342D02*
X158773096Y-112459580D01*
X158773096Y-112459580D02*
X158820715Y-112507200D01*
X158820715Y-112507200D02*
X158915953Y-112554819D01*
X158915953Y-112554819D02*
X159106429Y-112554819D01*
X159106429Y-112554819D02*
X159201667Y-112507200D01*
X159201667Y-112507200D02*
X159249286Y-112459580D01*
X159249286Y-112459580D02*
X159296905Y-112364342D01*
X159296905Y-112364342D02*
X159296905Y-112173866D01*
X159296905Y-112173866D02*
X159249286Y-112078628D01*
X159249286Y-112078628D02*
X159201667Y-112031009D01*
X159201667Y-112031009D02*
X159106429Y-111983390D01*
X160439762Y-111507200D02*
X159582620Y-112792914D01*
X160725477Y-111650057D02*
X160773096Y-111602438D01*
X160773096Y-111602438D02*
X160868334Y-111554819D01*
X160868334Y-111554819D02*
X161106429Y-111554819D01*
X161106429Y-111554819D02*
X161201667Y-111602438D01*
X161201667Y-111602438D02*
X161249286Y-111650057D01*
X161249286Y-111650057D02*
X161296905Y-111745295D01*
X161296905Y-111745295D02*
X161296905Y-111840533D01*
X161296905Y-111840533D02*
X161249286Y-111983390D01*
X161249286Y-111983390D02*
X160677858Y-112554819D01*
X160677858Y-112554819D02*
X161296905Y-112554819D01*
X161915953Y-111554819D02*
X162011191Y-111554819D01*
X162011191Y-111554819D02*
X162106429Y-111602438D01*
X162106429Y-111602438D02*
X162154048Y-111650057D01*
X162154048Y-111650057D02*
X162201667Y-111745295D01*
X162201667Y-111745295D02*
X162249286Y-111935771D01*
X162249286Y-111935771D02*
X162249286Y-112173866D01*
X162249286Y-112173866D02*
X162201667Y-112364342D01*
X162201667Y-112364342D02*
X162154048Y-112459580D01*
X162154048Y-112459580D02*
X162106429Y-112507200D01*
X162106429Y-112507200D02*
X162011191Y-112554819D01*
X162011191Y-112554819D02*
X161915953Y-112554819D01*
X161915953Y-112554819D02*
X161820715Y-112507200D01*
X161820715Y-112507200D02*
X161773096Y-112459580D01*
X161773096Y-112459580D02*
X161725477Y-112364342D01*
X161725477Y-112364342D02*
X161677858Y-112173866D01*
X161677858Y-112173866D02*
X161677858Y-111935771D01*
X161677858Y-111935771D02*
X161725477Y-111745295D01*
X161725477Y-111745295D02*
X161773096Y-111650057D01*
X161773096Y-111650057D02*
X161820715Y-111602438D01*
X161820715Y-111602438D02*
X161915953Y-111554819D01*
X162630239Y-111650057D02*
X162677858Y-111602438D01*
X162677858Y-111602438D02*
X162773096Y-111554819D01*
X162773096Y-111554819D02*
X163011191Y-111554819D01*
X163011191Y-111554819D02*
X163106429Y-111602438D01*
X163106429Y-111602438D02*
X163154048Y-111650057D01*
X163154048Y-111650057D02*
X163201667Y-111745295D01*
X163201667Y-111745295D02*
X163201667Y-111840533D01*
X163201667Y-111840533D02*
X163154048Y-111983390D01*
X163154048Y-111983390D02*
X162582620Y-112554819D01*
X162582620Y-112554819D02*
X163201667Y-112554819D01*
X164154048Y-112554819D02*
X163582620Y-112554819D01*
X163868334Y-112554819D02*
X163868334Y-111554819D01*
X163868334Y-111554819D02*
X163773096Y-111697676D01*
X163773096Y-111697676D02*
X163677858Y-111792914D01*
X163677858Y-111792914D02*
X163582620Y-111840533D01*
X129814190Y-107734009D02*
X130147523Y-107734009D01*
X130290380Y-108257819D02*
X129814190Y-108257819D01*
X129814190Y-108257819D02*
X129814190Y-107257819D01*
X129814190Y-107257819D02*
X130290380Y-107257819D01*
X130718952Y-107591152D02*
X130718952Y-108257819D01*
X130718952Y-107686390D02*
X130766571Y-107638771D01*
X130766571Y-107638771D02*
X130861809Y-107591152D01*
X130861809Y-107591152D02*
X131004666Y-107591152D01*
X131004666Y-107591152D02*
X131099904Y-107638771D01*
X131099904Y-107638771D02*
X131147523Y-107734009D01*
X131147523Y-107734009D02*
X131147523Y-108257819D01*
X132052285Y-108257819D02*
X132052285Y-107734009D01*
X132052285Y-107734009D02*
X132004666Y-107638771D01*
X132004666Y-107638771D02*
X131909428Y-107591152D01*
X131909428Y-107591152D02*
X131718952Y-107591152D01*
X131718952Y-107591152D02*
X131623714Y-107638771D01*
X132052285Y-108210200D02*
X131957047Y-108257819D01*
X131957047Y-108257819D02*
X131718952Y-108257819D01*
X131718952Y-108257819D02*
X131623714Y-108210200D01*
X131623714Y-108210200D02*
X131576095Y-108114961D01*
X131576095Y-108114961D02*
X131576095Y-108019723D01*
X131576095Y-108019723D02*
X131623714Y-107924485D01*
X131623714Y-107924485D02*
X131718952Y-107876866D01*
X131718952Y-107876866D02*
X131957047Y-107876866D01*
X131957047Y-107876866D02*
X132052285Y-107829247D01*
X132528476Y-108257819D02*
X132528476Y-107257819D01*
X132528476Y-107638771D02*
X132623714Y-107591152D01*
X132623714Y-107591152D02*
X132814190Y-107591152D01*
X132814190Y-107591152D02*
X132909428Y-107638771D01*
X132909428Y-107638771D02*
X132957047Y-107686390D01*
X132957047Y-107686390D02*
X133004666Y-107781628D01*
X133004666Y-107781628D02*
X133004666Y-108067342D01*
X133004666Y-108067342D02*
X132957047Y-108162580D01*
X132957047Y-108162580D02*
X132909428Y-108210200D01*
X132909428Y-108210200D02*
X132814190Y-108257819D01*
X132814190Y-108257819D02*
X132623714Y-108257819D01*
X132623714Y-108257819D02*
X132528476Y-108210200D01*
X133576095Y-108257819D02*
X133480857Y-108210200D01*
X133480857Y-108210200D02*
X133433238Y-108114961D01*
X133433238Y-108114961D02*
X133433238Y-107257819D01*
X134338000Y-108210200D02*
X134242762Y-108257819D01*
X134242762Y-108257819D02*
X134052286Y-108257819D01*
X134052286Y-108257819D02*
X133957048Y-108210200D01*
X133957048Y-108210200D02*
X133909429Y-108114961D01*
X133909429Y-108114961D02*
X133909429Y-107734009D01*
X133909429Y-107734009D02*
X133957048Y-107638771D01*
X133957048Y-107638771D02*
X134052286Y-107591152D01*
X134052286Y-107591152D02*
X134242762Y-107591152D01*
X134242762Y-107591152D02*
X134338000Y-107638771D01*
X134338000Y-107638771D02*
X134385619Y-107734009D01*
X134385619Y-107734009D02*
X134385619Y-107829247D01*
X134385619Y-107829247D02*
X133909429Y-107924485D01*
X136099905Y-108257819D02*
X135528477Y-108257819D01*
X135814191Y-108257819D02*
X135814191Y-107257819D01*
X135814191Y-107257819D02*
X135718953Y-107400676D01*
X135718953Y-107400676D02*
X135623715Y-107495914D01*
X135623715Y-107495914D02*
X135528477Y-107543533D01*
X136480858Y-107353057D02*
X136528477Y-107305438D01*
X136528477Y-107305438D02*
X136623715Y-107257819D01*
X136623715Y-107257819D02*
X136861810Y-107257819D01*
X136861810Y-107257819D02*
X136957048Y-107305438D01*
X136957048Y-107305438D02*
X137004667Y-107353057D01*
X137004667Y-107353057D02*
X137052286Y-107448295D01*
X137052286Y-107448295D02*
X137052286Y-107543533D01*
X137052286Y-107543533D02*
X137004667Y-107686390D01*
X137004667Y-107686390D02*
X136433239Y-108257819D01*
X136433239Y-108257819D02*
X137052286Y-108257819D01*
X137338001Y-107257819D02*
X137671334Y-108257819D01*
X137671334Y-108257819D02*
X138004667Y-107257819D01*
%TO.C,J3*%
X186525819Y-138001333D02*
X187240104Y-138001333D01*
X187240104Y-138001333D02*
X187382961Y-138048952D01*
X187382961Y-138048952D02*
X187478200Y-138144190D01*
X187478200Y-138144190D02*
X187525819Y-138287047D01*
X187525819Y-138287047D02*
X187525819Y-138382285D01*
X186525819Y-137620380D02*
X186525819Y-137001333D01*
X186525819Y-137001333D02*
X186906771Y-137334666D01*
X186906771Y-137334666D02*
X186906771Y-137191809D01*
X186906771Y-137191809D02*
X186954390Y-137096571D01*
X186954390Y-137096571D02*
X187002009Y-137048952D01*
X187002009Y-137048952D02*
X187097247Y-137001333D01*
X187097247Y-137001333D02*
X187335342Y-137001333D01*
X187335342Y-137001333D02*
X187430580Y-137048952D01*
X187430580Y-137048952D02*
X187478200Y-137096571D01*
X187478200Y-137096571D02*
X187525819Y-137191809D01*
X187525819Y-137191809D02*
X187525819Y-137477523D01*
X187525819Y-137477523D02*
X187478200Y-137572761D01*
X187478200Y-137572761D02*
X187430580Y-137620380D01*
%TO.C,R2*%
X115149333Y-105483819D02*
X114816000Y-105007628D01*
X114577905Y-105483819D02*
X114577905Y-104483819D01*
X114577905Y-104483819D02*
X114958857Y-104483819D01*
X114958857Y-104483819D02*
X115054095Y-104531438D01*
X115054095Y-104531438D02*
X115101714Y-104579057D01*
X115101714Y-104579057D02*
X115149333Y-104674295D01*
X115149333Y-104674295D02*
X115149333Y-104817152D01*
X115149333Y-104817152D02*
X115101714Y-104912390D01*
X115101714Y-104912390D02*
X115054095Y-104960009D01*
X115054095Y-104960009D02*
X114958857Y-105007628D01*
X114958857Y-105007628D02*
X114577905Y-105007628D01*
X115530286Y-104579057D02*
X115577905Y-104531438D01*
X115577905Y-104531438D02*
X115673143Y-104483819D01*
X115673143Y-104483819D02*
X115911238Y-104483819D01*
X115911238Y-104483819D02*
X116006476Y-104531438D01*
X116006476Y-104531438D02*
X116054095Y-104579057D01*
X116054095Y-104579057D02*
X116101714Y-104674295D01*
X116101714Y-104674295D02*
X116101714Y-104769533D01*
X116101714Y-104769533D02*
X116054095Y-104912390D01*
X116054095Y-104912390D02*
X115482667Y-105483819D01*
X115482667Y-105483819D02*
X116101714Y-105483819D01*
%TO.C,J1*%
X195500666Y-107106819D02*
X195500666Y-107821104D01*
X195500666Y-107821104D02*
X195453047Y-107963961D01*
X195453047Y-107963961D02*
X195357809Y-108059200D01*
X195357809Y-108059200D02*
X195214952Y-108106819D01*
X195214952Y-108106819D02*
X195119714Y-108106819D01*
X196500666Y-108106819D02*
X195929238Y-108106819D01*
X196214952Y-108106819D02*
X196214952Y-107106819D01*
X196214952Y-107106819D02*
X196119714Y-107249676D01*
X196119714Y-107249676D02*
X196024476Y-107344914D01*
X196024476Y-107344914D02*
X195929238Y-107392533D01*
%TO.C,K1*%
X152981819Y-94330094D02*
X151981819Y-94330094D01*
X152981819Y-93758666D02*
X152410390Y-94187237D01*
X151981819Y-93758666D02*
X152553247Y-94330094D01*
X152981819Y-92806285D02*
X152981819Y-93377713D01*
X152981819Y-93091999D02*
X151981819Y-93091999D01*
X151981819Y-93091999D02*
X152124676Y-93187237D01*
X152124676Y-93187237D02*
X152219914Y-93282475D01*
X152219914Y-93282475D02*
X152267533Y-93377713D01*
%TO.C,J4*%
X126031666Y-104820819D02*
X126031666Y-105535104D01*
X126031666Y-105535104D02*
X125984047Y-105677961D01*
X125984047Y-105677961D02*
X125888809Y-105773200D01*
X125888809Y-105773200D02*
X125745952Y-105820819D01*
X125745952Y-105820819D02*
X125650714Y-105820819D01*
X126936428Y-105154152D02*
X126936428Y-105820819D01*
X126698333Y-104773200D02*
X126460238Y-105487485D01*
X126460238Y-105487485D02*
X127079285Y-105487485D01*
%TO.C,U1*%
X113063819Y-123189904D02*
X113873342Y-123189904D01*
X113873342Y-123189904D02*
X113968580Y-123142285D01*
X113968580Y-123142285D02*
X114016200Y-123094666D01*
X114016200Y-123094666D02*
X114063819Y-122999428D01*
X114063819Y-122999428D02*
X114063819Y-122808952D01*
X114063819Y-122808952D02*
X114016200Y-122713714D01*
X114016200Y-122713714D02*
X113968580Y-122666095D01*
X113968580Y-122666095D02*
X113873342Y-122618476D01*
X113873342Y-122618476D02*
X113063819Y-122618476D01*
X114063819Y-121618476D02*
X114063819Y-122189904D01*
X114063819Y-121904190D02*
X113063819Y-121904190D01*
X113063819Y-121904190D02*
X113206676Y-121999428D01*
X113206676Y-121999428D02*
X113301914Y-122094666D01*
X113301914Y-122094666D02*
X113349533Y-122189904D01*
%TO.C,R4*%
X115149333Y-113484819D02*
X114816000Y-113008628D01*
X114577905Y-113484819D02*
X114577905Y-112484819D01*
X114577905Y-112484819D02*
X114958857Y-112484819D01*
X114958857Y-112484819D02*
X115054095Y-112532438D01*
X115054095Y-112532438D02*
X115101714Y-112580057D01*
X115101714Y-112580057D02*
X115149333Y-112675295D01*
X115149333Y-112675295D02*
X115149333Y-112818152D01*
X115149333Y-112818152D02*
X115101714Y-112913390D01*
X115101714Y-112913390D02*
X115054095Y-112961009D01*
X115054095Y-112961009D02*
X114958857Y-113008628D01*
X114958857Y-113008628D02*
X114577905Y-113008628D01*
X116006476Y-112818152D02*
X116006476Y-113484819D01*
X115768381Y-112437200D02*
X115530286Y-113151485D01*
X115530286Y-113151485D02*
X116149333Y-113151485D01*
%TO.C,D2*%
X195526819Y-99798094D02*
X194526819Y-99798094D01*
X194526819Y-99798094D02*
X194526819Y-99559999D01*
X194526819Y-99559999D02*
X194574438Y-99417142D01*
X194574438Y-99417142D02*
X194669676Y-99321904D01*
X194669676Y-99321904D02*
X194764914Y-99274285D01*
X194764914Y-99274285D02*
X194955390Y-99226666D01*
X194955390Y-99226666D02*
X195098247Y-99226666D01*
X195098247Y-99226666D02*
X195288723Y-99274285D01*
X195288723Y-99274285D02*
X195383961Y-99321904D01*
X195383961Y-99321904D02*
X195479200Y-99417142D01*
X195479200Y-99417142D02*
X195526819Y-99559999D01*
X195526819Y-99559999D02*
X195526819Y-99798094D01*
X194622057Y-98845713D02*
X194574438Y-98798094D01*
X194574438Y-98798094D02*
X194526819Y-98702856D01*
X194526819Y-98702856D02*
X194526819Y-98464761D01*
X194526819Y-98464761D02*
X194574438Y-98369523D01*
X194574438Y-98369523D02*
X194622057Y-98321904D01*
X194622057Y-98321904D02*
X194717295Y-98274285D01*
X194717295Y-98274285D02*
X194812533Y-98274285D01*
X194812533Y-98274285D02*
X194955390Y-98321904D01*
X194955390Y-98321904D02*
X195526819Y-98893332D01*
X195526819Y-98893332D02*
X195526819Y-98274285D01*
%TO.C,PS2*%
X123372714Y-116532819D02*
X123372714Y-115532819D01*
X123372714Y-115532819D02*
X123753666Y-115532819D01*
X123753666Y-115532819D02*
X123848904Y-115580438D01*
X123848904Y-115580438D02*
X123896523Y-115628057D01*
X123896523Y-115628057D02*
X123944142Y-115723295D01*
X123944142Y-115723295D02*
X123944142Y-115866152D01*
X123944142Y-115866152D02*
X123896523Y-115961390D01*
X123896523Y-115961390D02*
X123848904Y-116009009D01*
X123848904Y-116009009D02*
X123753666Y-116056628D01*
X123753666Y-116056628D02*
X123372714Y-116056628D01*
X124325095Y-116485200D02*
X124467952Y-116532819D01*
X124467952Y-116532819D02*
X124706047Y-116532819D01*
X124706047Y-116532819D02*
X124801285Y-116485200D01*
X124801285Y-116485200D02*
X124848904Y-116437580D01*
X124848904Y-116437580D02*
X124896523Y-116342342D01*
X124896523Y-116342342D02*
X124896523Y-116247104D01*
X124896523Y-116247104D02*
X124848904Y-116151866D01*
X124848904Y-116151866D02*
X124801285Y-116104247D01*
X124801285Y-116104247D02*
X124706047Y-116056628D01*
X124706047Y-116056628D02*
X124515571Y-116009009D01*
X124515571Y-116009009D02*
X124420333Y-115961390D01*
X124420333Y-115961390D02*
X124372714Y-115913771D01*
X124372714Y-115913771D02*
X124325095Y-115818533D01*
X124325095Y-115818533D02*
X124325095Y-115723295D01*
X124325095Y-115723295D02*
X124372714Y-115628057D01*
X124372714Y-115628057D02*
X124420333Y-115580438D01*
X124420333Y-115580438D02*
X124515571Y-115532819D01*
X124515571Y-115532819D02*
X124753666Y-115532819D01*
X124753666Y-115532819D02*
X124896523Y-115580438D01*
X125277476Y-115628057D02*
X125325095Y-115580438D01*
X125325095Y-115580438D02*
X125420333Y-115532819D01*
X125420333Y-115532819D02*
X125658428Y-115532819D01*
X125658428Y-115532819D02*
X125753666Y-115580438D01*
X125753666Y-115580438D02*
X125801285Y-115628057D01*
X125801285Y-115628057D02*
X125848904Y-115723295D01*
X125848904Y-115723295D02*
X125848904Y-115818533D01*
X125848904Y-115818533D02*
X125801285Y-115961390D01*
X125801285Y-115961390D02*
X125229857Y-116532819D01*
X125229857Y-116532819D02*
X125848904Y-116532819D01*
X167273152Y-144676762D02*
X167939819Y-144676762D01*
X167368390Y-144676762D02*
X167320771Y-144629143D01*
X167320771Y-144629143D02*
X167273152Y-144533905D01*
X167273152Y-144533905D02*
X167273152Y-144391048D01*
X167273152Y-144391048D02*
X167320771Y-144295810D01*
X167320771Y-144295810D02*
X167416009Y-144248191D01*
X167416009Y-144248191D02*
X167939819Y-144248191D01*
X167892200Y-143391048D02*
X167939819Y-143486286D01*
X167939819Y-143486286D02*
X167939819Y-143676762D01*
X167939819Y-143676762D02*
X167892200Y-143772000D01*
X167892200Y-143772000D02*
X167796961Y-143819619D01*
X167796961Y-143819619D02*
X167416009Y-143819619D01*
X167416009Y-143819619D02*
X167320771Y-143772000D01*
X167320771Y-143772000D02*
X167273152Y-143676762D01*
X167273152Y-143676762D02*
X167273152Y-143486286D01*
X167273152Y-143486286D02*
X167320771Y-143391048D01*
X167320771Y-143391048D02*
X167416009Y-143343429D01*
X167416009Y-143343429D02*
X167511247Y-143343429D01*
X167511247Y-143343429D02*
X167606485Y-143819619D01*
X167273152Y-142486286D02*
X167939819Y-142486286D01*
X167273152Y-142914857D02*
X167796961Y-142914857D01*
X167796961Y-142914857D02*
X167892200Y-142867238D01*
X167892200Y-142867238D02*
X167939819Y-142772000D01*
X167939819Y-142772000D02*
X167939819Y-142629143D01*
X167939819Y-142629143D02*
X167892200Y-142533905D01*
X167892200Y-142533905D02*
X167844580Y-142486286D01*
X167273152Y-142152952D02*
X167273152Y-141772000D01*
X166939819Y-142010095D02*
X167796961Y-142010095D01*
X167796961Y-142010095D02*
X167892200Y-141962476D01*
X167892200Y-141962476D02*
X167939819Y-141867238D01*
X167939819Y-141867238D02*
X167939819Y-141772000D01*
X167939819Y-141438666D02*
X167273152Y-141438666D01*
X167463628Y-141438666D02*
X167368390Y-141391047D01*
X167368390Y-141391047D02*
X167320771Y-141343428D01*
X167320771Y-141343428D02*
X167273152Y-141248190D01*
X167273152Y-141248190D02*
X167273152Y-141152952D01*
X167939819Y-140391047D02*
X167416009Y-140391047D01*
X167416009Y-140391047D02*
X167320771Y-140438666D01*
X167320771Y-140438666D02*
X167273152Y-140533904D01*
X167273152Y-140533904D02*
X167273152Y-140724380D01*
X167273152Y-140724380D02*
X167320771Y-140819618D01*
X167892200Y-140391047D02*
X167939819Y-140486285D01*
X167939819Y-140486285D02*
X167939819Y-140724380D01*
X167939819Y-140724380D02*
X167892200Y-140819618D01*
X167892200Y-140819618D02*
X167796961Y-140867237D01*
X167796961Y-140867237D02*
X167701723Y-140867237D01*
X167701723Y-140867237D02*
X167606485Y-140819618D01*
X167606485Y-140819618D02*
X167558866Y-140724380D01*
X167558866Y-140724380D02*
X167558866Y-140486285D01*
X167558866Y-140486285D02*
X167511247Y-140391047D01*
X167939819Y-139771999D02*
X167892200Y-139867237D01*
X167892200Y-139867237D02*
X167796961Y-139914856D01*
X167796961Y-139914856D02*
X166939819Y-139914856D01*
X126410866Y-132889713D02*
X126410866Y-132127809D01*
X126791819Y-132508761D02*
X126029914Y-132508761D01*
X125791819Y-131175428D02*
X125791819Y-131651618D01*
X125791819Y-131651618D02*
X126268009Y-131699237D01*
X126268009Y-131699237D02*
X126220390Y-131651618D01*
X126220390Y-131651618D02*
X126172771Y-131556380D01*
X126172771Y-131556380D02*
X126172771Y-131318285D01*
X126172771Y-131318285D02*
X126220390Y-131223047D01*
X126220390Y-131223047D02*
X126268009Y-131175428D01*
X126268009Y-131175428D02*
X126363247Y-131127809D01*
X126363247Y-131127809D02*
X126601342Y-131127809D01*
X126601342Y-131127809D02*
X126696580Y-131175428D01*
X126696580Y-131175428D02*
X126744200Y-131223047D01*
X126744200Y-131223047D02*
X126791819Y-131318285D01*
X126791819Y-131318285D02*
X126791819Y-131556380D01*
X126791819Y-131556380D02*
X126744200Y-131651618D01*
X126744200Y-131651618D02*
X126696580Y-131699237D01*
X125791819Y-130842094D02*
X126791819Y-130508761D01*
X126791819Y-130508761D02*
X125791819Y-130175428D01*
X125871152Y-140422476D02*
X126680676Y-140422476D01*
X126680676Y-140422476D02*
X126775914Y-140470095D01*
X126775914Y-140470095D02*
X126823533Y-140517714D01*
X126823533Y-140517714D02*
X126871152Y-140612952D01*
X126871152Y-140612952D02*
X126871152Y-140755809D01*
X126871152Y-140755809D02*
X126823533Y-140851047D01*
X126490200Y-140422476D02*
X126537819Y-140517714D01*
X126537819Y-140517714D02*
X126537819Y-140708190D01*
X126537819Y-140708190D02*
X126490200Y-140803428D01*
X126490200Y-140803428D02*
X126442580Y-140851047D01*
X126442580Y-140851047D02*
X126347342Y-140898666D01*
X126347342Y-140898666D02*
X126061628Y-140898666D01*
X126061628Y-140898666D02*
X125966390Y-140851047D01*
X125966390Y-140851047D02*
X125918771Y-140803428D01*
X125918771Y-140803428D02*
X125871152Y-140708190D01*
X125871152Y-140708190D02*
X125871152Y-140517714D01*
X125871152Y-140517714D02*
X125918771Y-140422476D01*
X125871152Y-139946285D02*
X126537819Y-139946285D01*
X125966390Y-139946285D02*
X125918771Y-139898666D01*
X125918771Y-139898666D02*
X125871152Y-139803428D01*
X125871152Y-139803428D02*
X125871152Y-139660571D01*
X125871152Y-139660571D02*
X125918771Y-139565333D01*
X125918771Y-139565333D02*
X126014009Y-139517714D01*
X126014009Y-139517714D02*
X126537819Y-139517714D01*
X126537819Y-138612952D02*
X125537819Y-138612952D01*
X126490200Y-138612952D02*
X126537819Y-138708190D01*
X126537819Y-138708190D02*
X126537819Y-138898666D01*
X126537819Y-138898666D02*
X126490200Y-138993904D01*
X126490200Y-138993904D02*
X126442580Y-139041523D01*
X126442580Y-139041523D02*
X126347342Y-139089142D01*
X126347342Y-139089142D02*
X126061628Y-139089142D01*
X126061628Y-139089142D02*
X125966390Y-139041523D01*
X125966390Y-139041523D02*
X125918771Y-138993904D01*
X125918771Y-138993904D02*
X125871152Y-138898666D01*
X125871152Y-138898666D02*
X125871152Y-138708190D01*
X125871152Y-138708190D02*
X125918771Y-138612952D01*
X177083819Y-144541999D02*
X177036200Y-144637237D01*
X177036200Y-144637237D02*
X176940961Y-144684856D01*
X176940961Y-144684856D02*
X176083819Y-144684856D01*
X177083819Y-144161046D02*
X176417152Y-144161046D01*
X176083819Y-144161046D02*
X176131438Y-144208665D01*
X176131438Y-144208665D02*
X176179057Y-144161046D01*
X176179057Y-144161046D02*
X176131438Y-144113427D01*
X176131438Y-144113427D02*
X176083819Y-144161046D01*
X176083819Y-144161046D02*
X176179057Y-144161046D01*
X176417152Y-143684856D02*
X177083819Y-143684856D01*
X176512390Y-143684856D02*
X176464771Y-143637237D01*
X176464771Y-143637237D02*
X176417152Y-143541999D01*
X176417152Y-143541999D02*
X176417152Y-143399142D01*
X176417152Y-143399142D02*
X176464771Y-143303904D01*
X176464771Y-143303904D02*
X176560009Y-143256285D01*
X176560009Y-143256285D02*
X177083819Y-143256285D01*
X177036200Y-142399142D02*
X177083819Y-142494380D01*
X177083819Y-142494380D02*
X177083819Y-142684856D01*
X177083819Y-142684856D02*
X177036200Y-142780094D01*
X177036200Y-142780094D02*
X176940961Y-142827713D01*
X176940961Y-142827713D02*
X176560009Y-142827713D01*
X176560009Y-142827713D02*
X176464771Y-142780094D01*
X176464771Y-142780094D02*
X176417152Y-142684856D01*
X176417152Y-142684856D02*
X176417152Y-142494380D01*
X176417152Y-142494380D02*
X176464771Y-142399142D01*
X176464771Y-142399142D02*
X176560009Y-142351523D01*
X176560009Y-142351523D02*
X176655247Y-142351523D01*
X176655247Y-142351523D02*
X176750485Y-142827713D01*
%TO.C,J2*%
X168449666Y-113295819D02*
X168449666Y-114010104D01*
X168449666Y-114010104D02*
X168402047Y-114152961D01*
X168402047Y-114152961D02*
X168306809Y-114248200D01*
X168306809Y-114248200D02*
X168163952Y-114295819D01*
X168163952Y-114295819D02*
X168068714Y-114295819D01*
X168878238Y-113391057D02*
X168925857Y-113343438D01*
X168925857Y-113343438D02*
X169021095Y-113295819D01*
X169021095Y-113295819D02*
X169259190Y-113295819D01*
X169259190Y-113295819D02*
X169354428Y-113343438D01*
X169354428Y-113343438D02*
X169402047Y-113391057D01*
X169402047Y-113391057D02*
X169449666Y-113486295D01*
X169449666Y-113486295D02*
X169449666Y-113581533D01*
X169449666Y-113581533D02*
X169402047Y-113724390D01*
X169402047Y-113724390D02*
X168830619Y-114295819D01*
X168830619Y-114295819D02*
X169449666Y-114295819D01*
%TO.C,D3*%
X195526819Y-104624094D02*
X194526819Y-104624094D01*
X194526819Y-104624094D02*
X194526819Y-104385999D01*
X194526819Y-104385999D02*
X194574438Y-104243142D01*
X194574438Y-104243142D02*
X194669676Y-104147904D01*
X194669676Y-104147904D02*
X194764914Y-104100285D01*
X194764914Y-104100285D02*
X194955390Y-104052666D01*
X194955390Y-104052666D02*
X195098247Y-104052666D01*
X195098247Y-104052666D02*
X195288723Y-104100285D01*
X195288723Y-104100285D02*
X195383961Y-104147904D01*
X195383961Y-104147904D02*
X195479200Y-104243142D01*
X195479200Y-104243142D02*
X195526819Y-104385999D01*
X195526819Y-104385999D02*
X195526819Y-104624094D01*
X194526819Y-103719332D02*
X194526819Y-103100285D01*
X194526819Y-103100285D02*
X194907771Y-103433618D01*
X194907771Y-103433618D02*
X194907771Y-103290761D01*
X194907771Y-103290761D02*
X194955390Y-103195523D01*
X194955390Y-103195523D02*
X195003009Y-103147904D01*
X195003009Y-103147904D02*
X195098247Y-103100285D01*
X195098247Y-103100285D02*
X195336342Y-103100285D01*
X195336342Y-103100285D02*
X195431580Y-103147904D01*
X195431580Y-103147904D02*
X195479200Y-103195523D01*
X195479200Y-103195523D02*
X195526819Y-103290761D01*
X195526819Y-103290761D02*
X195526819Y-103576475D01*
X195526819Y-103576475D02*
X195479200Y-103671713D01*
X195479200Y-103671713D02*
X195431580Y-103719332D01*
%TO.C,R3*%
X188682333Y-100360819D02*
X188349000Y-99884628D01*
X188110905Y-100360819D02*
X188110905Y-99360819D01*
X188110905Y-99360819D02*
X188491857Y-99360819D01*
X188491857Y-99360819D02*
X188587095Y-99408438D01*
X188587095Y-99408438D02*
X188634714Y-99456057D01*
X188634714Y-99456057D02*
X188682333Y-99551295D01*
X188682333Y-99551295D02*
X188682333Y-99694152D01*
X188682333Y-99694152D02*
X188634714Y-99789390D01*
X188634714Y-99789390D02*
X188587095Y-99837009D01*
X188587095Y-99837009D02*
X188491857Y-99884628D01*
X188491857Y-99884628D02*
X188110905Y-99884628D01*
X189015667Y-99360819D02*
X189634714Y-99360819D01*
X189634714Y-99360819D02*
X189301381Y-99741771D01*
X189301381Y-99741771D02*
X189444238Y-99741771D01*
X189444238Y-99741771D02*
X189539476Y-99789390D01*
X189539476Y-99789390D02*
X189587095Y-99837009D01*
X189587095Y-99837009D02*
X189634714Y-99932247D01*
X189634714Y-99932247D02*
X189634714Y-100170342D01*
X189634714Y-100170342D02*
X189587095Y-100265580D01*
X189587095Y-100265580D02*
X189539476Y-100313200D01*
X189539476Y-100313200D02*
X189444238Y-100360819D01*
X189444238Y-100360819D02*
X189158524Y-100360819D01*
X189158524Y-100360819D02*
X189063286Y-100313200D01*
X189063286Y-100313200D02*
X189015667Y-100265580D01*
%TO.C,D1*%
X195526819Y-95226094D02*
X194526819Y-95226094D01*
X194526819Y-95226094D02*
X194526819Y-94987999D01*
X194526819Y-94987999D02*
X194574438Y-94845142D01*
X194574438Y-94845142D02*
X194669676Y-94749904D01*
X194669676Y-94749904D02*
X194764914Y-94702285D01*
X194764914Y-94702285D02*
X194955390Y-94654666D01*
X194955390Y-94654666D02*
X195098247Y-94654666D01*
X195098247Y-94654666D02*
X195288723Y-94702285D01*
X195288723Y-94702285D02*
X195383961Y-94749904D01*
X195383961Y-94749904D02*
X195479200Y-94845142D01*
X195479200Y-94845142D02*
X195526819Y-94987999D01*
X195526819Y-94987999D02*
X195526819Y-95226094D01*
X195526819Y-93702285D02*
X195526819Y-94273713D01*
X195526819Y-93987999D02*
X194526819Y-93987999D01*
X194526819Y-93987999D02*
X194669676Y-94083237D01*
X194669676Y-94083237D02*
X194764914Y-94178475D01*
X194764914Y-94178475D02*
X194812533Y-94273713D01*
%TO.C,R1*%
X188682333Y-95534819D02*
X188349000Y-95058628D01*
X188110905Y-95534819D02*
X188110905Y-94534819D01*
X188110905Y-94534819D02*
X188491857Y-94534819D01*
X188491857Y-94534819D02*
X188587095Y-94582438D01*
X188587095Y-94582438D02*
X188634714Y-94630057D01*
X188634714Y-94630057D02*
X188682333Y-94725295D01*
X188682333Y-94725295D02*
X188682333Y-94868152D01*
X188682333Y-94868152D02*
X188634714Y-94963390D01*
X188634714Y-94963390D02*
X188587095Y-95011009D01*
X188587095Y-95011009D02*
X188491857Y-95058628D01*
X188491857Y-95058628D02*
X188110905Y-95058628D01*
X189634714Y-95534819D02*
X189063286Y-95534819D01*
X189349000Y-95534819D02*
X189349000Y-94534819D01*
X189349000Y-94534819D02*
X189253762Y-94677676D01*
X189253762Y-94677676D02*
X189158524Y-94772914D01*
X189158524Y-94772914D02*
X189063286Y-94820533D01*
%TO.C,J5*%
X108505666Y-82214819D02*
X108505666Y-82929104D01*
X108505666Y-82929104D02*
X108458047Y-83071961D01*
X108458047Y-83071961D02*
X108362809Y-83167200D01*
X108362809Y-83167200D02*
X108219952Y-83214819D01*
X108219952Y-83214819D02*
X108124714Y-83214819D01*
X109458047Y-82214819D02*
X108981857Y-82214819D01*
X108981857Y-82214819D02*
X108934238Y-82691009D01*
X108934238Y-82691009D02*
X108981857Y-82643390D01*
X108981857Y-82643390D02*
X109077095Y-82595771D01*
X109077095Y-82595771D02*
X109315190Y-82595771D01*
X109315190Y-82595771D02*
X109410428Y-82643390D01*
X109410428Y-82643390D02*
X109458047Y-82691009D01*
X109458047Y-82691009D02*
X109505666Y-82786247D01*
X109505666Y-82786247D02*
X109505666Y-83024342D01*
X109505666Y-83024342D02*
X109458047Y-83119580D01*
X109458047Y-83119580D02*
X109410428Y-83167200D01*
X109410428Y-83167200D02*
X109315190Y-83214819D01*
X109315190Y-83214819D02*
X109077095Y-83214819D01*
X109077095Y-83214819D02*
X108981857Y-83167200D01*
X108981857Y-83167200D02*
X108934238Y-83119580D01*
%TO.C,J6*%
X108500666Y-135559819D02*
X108500666Y-136274104D01*
X108500666Y-136274104D02*
X108453047Y-136416961D01*
X108453047Y-136416961D02*
X108357809Y-136512200D01*
X108357809Y-136512200D02*
X108214952Y-136559819D01*
X108214952Y-136559819D02*
X108119714Y-136559819D01*
X109405428Y-135559819D02*
X109214952Y-135559819D01*
X109214952Y-135559819D02*
X109119714Y-135607438D01*
X109119714Y-135607438D02*
X109072095Y-135655057D01*
X109072095Y-135655057D02*
X108976857Y-135797914D01*
X108976857Y-135797914D02*
X108929238Y-135988390D01*
X108929238Y-135988390D02*
X108929238Y-136369342D01*
X108929238Y-136369342D02*
X108976857Y-136464580D01*
X108976857Y-136464580D02*
X109024476Y-136512200D01*
X109024476Y-136512200D02*
X109119714Y-136559819D01*
X109119714Y-136559819D02*
X109310190Y-136559819D01*
X109310190Y-136559819D02*
X109405428Y-136512200D01*
X109405428Y-136512200D02*
X109453047Y-136464580D01*
X109453047Y-136464580D02*
X109500666Y-136369342D01*
X109500666Y-136369342D02*
X109500666Y-136131247D01*
X109500666Y-136131247D02*
X109453047Y-136036009D01*
X109453047Y-136036009D02*
X109405428Y-135988390D01*
X109405428Y-135988390D02*
X109310190Y-135940771D01*
X109310190Y-135940771D02*
X109119714Y-135940771D01*
X109119714Y-135940771D02*
X109024476Y-135988390D01*
X109024476Y-135988390D02*
X108976857Y-136036009D01*
X108976857Y-136036009D02*
X108929238Y-136131247D01*
%TO.C,R5*%
X188682333Y-105059819D02*
X188349000Y-104583628D01*
X188110905Y-105059819D02*
X188110905Y-104059819D01*
X188110905Y-104059819D02*
X188491857Y-104059819D01*
X188491857Y-104059819D02*
X188587095Y-104107438D01*
X188587095Y-104107438D02*
X188634714Y-104155057D01*
X188634714Y-104155057D02*
X188682333Y-104250295D01*
X188682333Y-104250295D02*
X188682333Y-104393152D01*
X188682333Y-104393152D02*
X188634714Y-104488390D01*
X188634714Y-104488390D02*
X188587095Y-104536009D01*
X188587095Y-104536009D02*
X188491857Y-104583628D01*
X188491857Y-104583628D02*
X188110905Y-104583628D01*
X189587095Y-104059819D02*
X189110905Y-104059819D01*
X189110905Y-104059819D02*
X189063286Y-104536009D01*
X189063286Y-104536009D02*
X189110905Y-104488390D01*
X189110905Y-104488390D02*
X189206143Y-104440771D01*
X189206143Y-104440771D02*
X189444238Y-104440771D01*
X189444238Y-104440771D02*
X189539476Y-104488390D01*
X189539476Y-104488390D02*
X189587095Y-104536009D01*
X189587095Y-104536009D02*
X189634714Y-104631247D01*
X189634714Y-104631247D02*
X189634714Y-104869342D01*
X189634714Y-104869342D02*
X189587095Y-104964580D01*
X189587095Y-104964580D02*
X189539476Y-105012200D01*
X189539476Y-105012200D02*
X189444238Y-105059819D01*
X189444238Y-105059819D02*
X189206143Y-105059819D01*
X189206143Y-105059819D02*
X189110905Y-105012200D01*
X189110905Y-105012200D02*
X189063286Y-104964580D01*
%TO.C,PS1*%
X130611714Y-103070819D02*
X130611714Y-102070819D01*
X130611714Y-102070819D02*
X130992666Y-102070819D01*
X130992666Y-102070819D02*
X131087904Y-102118438D01*
X131087904Y-102118438D02*
X131135523Y-102166057D01*
X131135523Y-102166057D02*
X131183142Y-102261295D01*
X131183142Y-102261295D02*
X131183142Y-102404152D01*
X131183142Y-102404152D02*
X131135523Y-102499390D01*
X131135523Y-102499390D02*
X131087904Y-102547009D01*
X131087904Y-102547009D02*
X130992666Y-102594628D01*
X130992666Y-102594628D02*
X130611714Y-102594628D01*
X131564095Y-103023200D02*
X131706952Y-103070819D01*
X131706952Y-103070819D02*
X131945047Y-103070819D01*
X131945047Y-103070819D02*
X132040285Y-103023200D01*
X132040285Y-103023200D02*
X132087904Y-102975580D01*
X132087904Y-102975580D02*
X132135523Y-102880342D01*
X132135523Y-102880342D02*
X132135523Y-102785104D01*
X132135523Y-102785104D02*
X132087904Y-102689866D01*
X132087904Y-102689866D02*
X132040285Y-102642247D01*
X132040285Y-102642247D02*
X131945047Y-102594628D01*
X131945047Y-102594628D02*
X131754571Y-102547009D01*
X131754571Y-102547009D02*
X131659333Y-102499390D01*
X131659333Y-102499390D02*
X131611714Y-102451771D01*
X131611714Y-102451771D02*
X131564095Y-102356533D01*
X131564095Y-102356533D02*
X131564095Y-102261295D01*
X131564095Y-102261295D02*
X131611714Y-102166057D01*
X131611714Y-102166057D02*
X131659333Y-102118438D01*
X131659333Y-102118438D02*
X131754571Y-102070819D01*
X131754571Y-102070819D02*
X131992666Y-102070819D01*
X131992666Y-102070819D02*
X132135523Y-102118438D01*
X133087904Y-103070819D02*
X132516476Y-103070819D01*
X132802190Y-103070819D02*
X132802190Y-102070819D01*
X132802190Y-102070819D02*
X132706952Y-102213676D01*
X132706952Y-102213676D02*
X132611714Y-102308914D01*
X132611714Y-102308914D02*
X132516476Y-102356533D01*
D11*
%TO.C,J3*%
X188595000Y-139954000D02*
X199009000Y-139954000D01*
X199009000Y-117856000D02*
X188595000Y-117856000D01*
X188595000Y-117856000D02*
X188595000Y-139954000D01*
%TO.C,R2*%
X118586000Y-106275000D02*
X118586000Y-105945000D01*
X112046000Y-105945000D02*
X112046000Y-106275000D01*
X118586000Y-108685000D02*
X112046000Y-108685000D01*
X112046000Y-108685000D02*
X112046000Y-108355000D01*
X118586000Y-108355000D02*
X118586000Y-108685000D01*
X118586000Y-105945000D02*
X112046000Y-105945000D01*
%TO.C,J1*%
X194504000Y-109982000D02*
X194504000Y-108652000D01*
X197164000Y-111252000D02*
X197164000Y-113852000D01*
X194504000Y-113852000D02*
X197164000Y-113852000D01*
X194504000Y-108652000D02*
X195834000Y-108652000D01*
X194504000Y-111252000D02*
X197164000Y-111252000D01*
X194504000Y-111252000D02*
X194504000Y-113852000D01*
%TO.C,K1*%
X173559000Y-101092000D02*
X173559000Y-86092000D01*
X154559000Y-101092000D02*
X154559000Y-86092000D01*
X154559000Y-86092000D02*
X173559000Y-86092000D01*
X154559000Y-101092000D02*
X173559000Y-101092000D01*
%TO.C,J4*%
X123765000Y-111566000D02*
X128965000Y-111566000D01*
X128965000Y-106366000D02*
X128965000Y-111566000D01*
X126365000Y-106366000D02*
X128965000Y-106366000D01*
X123765000Y-108966000D02*
X126365000Y-108966000D01*
X123765000Y-106366000D02*
X125095000Y-106366000D01*
X123765000Y-108966000D02*
X123765000Y-111566000D01*
X123765000Y-107696000D02*
X123765000Y-106366000D01*
X126365000Y-108966000D02*
X126365000Y-106366000D01*
%TO.C,U1*%
X107601000Y-117689000D02*
X112242000Y-117689000D01*
X109111000Y-127929000D02*
X109111000Y-117689000D01*
X112242000Y-127929000D02*
X112242000Y-117689000D01*
X107601000Y-127929000D02*
X107601000Y-117689000D01*
X107601000Y-124659000D02*
X109111000Y-124659000D01*
X107601000Y-127929000D02*
X112242000Y-127929000D01*
X107601000Y-120958000D02*
X109111000Y-120958000D01*
%TO.C,R4*%
X112046000Y-109247000D02*
X118586000Y-109247000D01*
X118586000Y-111987000D02*
X118586000Y-111657000D01*
X112046000Y-111657000D02*
X112046000Y-111987000D01*
X112046000Y-111987000D02*
X118586000Y-111987000D01*
X118586000Y-109247000D02*
X118586000Y-109577000D01*
X112046000Y-109577000D02*
X112046000Y-109247000D01*
%TO.C,D2*%
X196786000Y-95971000D02*
X196630000Y-95971000D01*
X199102000Y-95971000D02*
X198946000Y-95971000D01*
X198945836Y-98572129D02*
G75*
G03*
X198945999Y-96490040I-1079836J1041129D01*
G01*
X196786001Y-96490040D02*
G75*
G03*
X196786164Y-98572129I1079999J-1040960D01*
G01*
X198944608Y-99203334D02*
G75*
G03*
X199101515Y-95971001I-1078608J1672334D01*
G01*
X196630485Y-95971001D02*
G75*
G03*
X196787392Y-99203334I1235515J-1559999D01*
G01*
%TO.C,PS2*%
X119479000Y-117380000D02*
X119479000Y-149892000D01*
X119479000Y-149892000D02*
X183995000Y-149892000D01*
X183995000Y-149892000D02*
X183995000Y-117380000D01*
X119479000Y-117380000D02*
X183995000Y-117380000D01*
%TO.C,J2*%
X170113000Y-110241000D02*
X170113000Y-107641000D01*
X170113000Y-107641000D02*
X167453000Y-107641000D01*
X170113000Y-110241000D02*
X167453000Y-110241000D01*
X170113000Y-112841000D02*
X168783000Y-112841000D01*
X170113000Y-111511000D02*
X170113000Y-112841000D01*
X167453000Y-110241000D02*
X167453000Y-107641000D01*
%TO.C,D3*%
X196786000Y-100670000D02*
X196630000Y-100670000D01*
X199102000Y-100670000D02*
X198946000Y-100670000D01*
X198944608Y-103902334D02*
G75*
G03*
X199101515Y-100670001I-1078608J1672334D01*
G01*
X196786001Y-101189040D02*
G75*
G03*
X196786164Y-103271129I1079999J-1040960D01*
G01*
X196630485Y-100670001D02*
G75*
G03*
X196787392Y-103902334I1235515J-1559999D01*
G01*
X198945836Y-103271129D02*
G75*
G03*
X198945999Y-101189040I-1079836J1041129D01*
G01*
%TO.C,R3*%
X192119000Y-98576000D02*
X192119000Y-98906000D01*
X192119000Y-98906000D02*
X185579000Y-98906000D01*
X185579000Y-98906000D02*
X185579000Y-98576000D01*
X192119000Y-96166000D02*
X185579000Y-96166000D01*
X192119000Y-96496000D02*
X192119000Y-96166000D01*
X185579000Y-96166000D02*
X185579000Y-96496000D01*
%TO.C,D1*%
X196786000Y-91277000D02*
X196630000Y-91277000D01*
X199102000Y-91277000D02*
X198946000Y-91277000D01*
X198944608Y-94509334D02*
G75*
G03*
X199101515Y-91277001I-1078608J1672334D01*
G01*
X196630485Y-91277001D02*
G75*
G03*
X196787392Y-94509334I1235515J-1559999D01*
G01*
X198945836Y-93878129D02*
G75*
G03*
X198945999Y-91796040I-1079836J1041129D01*
G01*
X196786001Y-91796040D02*
G75*
G03*
X196786164Y-93878129I1079999J-1040960D01*
G01*
%TO.C,R1*%
X192119000Y-93750000D02*
X192119000Y-94080000D01*
X192119000Y-94080000D02*
X185579000Y-94080000D01*
X185579000Y-94080000D02*
X185579000Y-93750000D01*
X192119000Y-91670000D02*
X192119000Y-91340000D01*
X185579000Y-91340000D02*
X185579000Y-91670000D01*
X192119000Y-91340000D02*
X185579000Y-91340000D01*
%TO.C,J5*%
X108839000Y-86360000D02*
X108839000Y-83760000D01*
X106239000Y-96580000D02*
X111439000Y-96580000D01*
X106239000Y-86360000D02*
X108839000Y-86360000D01*
X106239000Y-85090000D02*
X106239000Y-83760000D01*
X106239000Y-83760000D02*
X107569000Y-83760000D01*
X106239000Y-86360000D02*
X106239000Y-96580000D01*
X108839000Y-83760000D02*
X111439000Y-83760000D01*
X111439000Y-83760000D02*
X111439000Y-96580000D01*
%TO.C,J6*%
X106234000Y-137105000D02*
X107564000Y-137105000D01*
X111434000Y-137105000D02*
X111434000Y-149925000D01*
X106234000Y-139705000D02*
X108834000Y-139705000D01*
X106234000Y-138435000D02*
X106234000Y-137105000D01*
X106234000Y-139705000D02*
X106234000Y-149925000D01*
X106234000Y-149925000D02*
X111434000Y-149925000D01*
X108834000Y-139705000D02*
X108834000Y-137105000D01*
X108834000Y-137105000D02*
X111434000Y-137105000D01*
%TO.C,R5*%
X185579000Y-100865000D02*
X185579000Y-101195000D01*
X192119000Y-101195000D02*
X192119000Y-100865000D01*
X192119000Y-100865000D02*
X185579000Y-100865000D01*
X192119000Y-103275000D02*
X192119000Y-103605000D01*
X185579000Y-103605000D02*
X185579000Y-103275000D01*
X192119000Y-103605000D02*
X185579000Y-103605000D01*
%TO.C,PS1*%
X113876000Y-101066000D02*
X150876000Y-101066000D01*
X150876000Y-101066000D02*
X150876000Y-83566000D01*
X113876000Y-83566000D02*
X113876000Y-101066000D01*
X150876000Y-83566000D02*
X113876000Y-83566000D01*
%TD*%
M02*
