%TF.GenerationSoftware,KiCad,Pcbnew,(6.0.4)*%
%TF.CreationDate,2022-06-04T07:26:48+03:00*%
%TF.ProjectId,PSU2,50535532-2e6b-4696-9361-645f70636258,rev?*%
%TF.SameCoordinates,Original*%
%TF.FileFunction,Copper,L1,Top*%
%TF.FilePolarity,Positive*%
%FSLAX46Y46*%
G04 Gerber Fmt 4.6, Leading zero omitted, Abs format (unit mm)*
G04 Created by KiCad (PCBNEW (6.0.4)) date 2022-06-04 07:26:48*
%MOMM*%
%LPD*%
G01*
G04 APERTURE LIST*
%TA.AperFunction,ComponentPad*%
%ADD10C,4.200000*%
%TD*%
%TA.AperFunction,ComponentPad*%
%ADD11C,3.000000*%
%TD*%
%TA.AperFunction,ComponentPad*%
%ADD12C,5.080000*%
%TD*%
%TA.AperFunction,ComponentPad*%
%ADD13C,1.600000*%
%TD*%
%TA.AperFunction,ComponentPad*%
%ADD14O,1.600000X1.600000*%
%TD*%
%TA.AperFunction,ComponentPad*%
%ADD15R,1.700000X1.700000*%
%TD*%
%TA.AperFunction,ComponentPad*%
%ADD16O,1.700000X1.700000*%
%TD*%
%TA.AperFunction,ComponentPad*%
%ADD17C,2.500000*%
%TD*%
%TA.AperFunction,ComponentPad*%
%ADD18R,2.000000X1.905000*%
%TD*%
%TA.AperFunction,ComponentPad*%
%ADD19O,2.000000X1.905000*%
%TD*%
%TA.AperFunction,ComponentPad*%
%ADD20R,1.800000X1.800000*%
%TD*%
%TA.AperFunction,ComponentPad*%
%ADD21C,1.800000*%
%TD*%
%TA.AperFunction,ComponentPad*%
%ADD22C,4.000000*%
%TD*%
%TA.AperFunction,ComponentPad*%
%ADD23C,2.000000*%
%TD*%
%TA.AperFunction,ComponentPad*%
%ADD24R,3.000000X3.000000*%
%TD*%
%TA.AperFunction,Conductor*%
%ADD25C,1.016000*%
%TD*%
G04 APERTURE END LIST*
D10*
%TO.P,J3,*%
%TO.N,*%
X193675000Y-122682000D03*
X193675000Y-135382000D03*
D11*
%TO.P,J3,1,Pin_1*%
%TO.N,LINE*%
X188087000Y-124460000D03*
%TO.P,J3,2,Pin_2*%
%TO.N,NEUT*%
X188087000Y-133096000D03*
%TD*%
D12*
%TO.P,H1,*%
%TO.N,*%
X197739000Y-86995000D03*
%TD*%
D13*
%TO.P,R2,1*%
%TO.N,Net-(R2-Pad1)*%
X119126000Y-107315000D03*
D14*
%TO.P,R2,2*%
%TO.N,GND*%
X111506000Y-107315000D03*
%TD*%
D15*
%TO.P,J1,1,Pin_1*%
%TO.N,Net-(J1-Pad1)*%
X195834000Y-109982000D03*
D16*
%TO.P,J1,2,Pin_2*%
%TO.N,Net-(J1-Pad2)*%
X195834000Y-112522000D03*
%TD*%
D17*
%TO.P,K1,1*%
%TO.N,LINE*%
X171323000Y-99314000D03*
%TO.P,K1,2*%
%TO.N,unconnected-(K1-Pad2)*%
X171323000Y-87884000D03*
%TO.P,K1,3*%
%TO.N,Net-(J1-Pad2)*%
X159258000Y-99314000D03*
%TO.P,K1,4*%
%TO.N,Net-(J1-Pad1)*%
X159258000Y-87884000D03*
%TO.P,K1,5*%
%TO.N,Net-(J2-Pad1)*%
X156718000Y-93599000D03*
%TD*%
D15*
%TO.P,J4,1,Pin_1*%
%TO.N,Net-(J4-Pad1)*%
X125095000Y-107696000D03*
D16*
%TO.P,J4,2,Pin_2*%
%TO.N,/+5V*%
X127635000Y-107696000D03*
%TO.P,J4,3,Pin_3*%
%TO.N,Net-(J4-Pad3)*%
X125095000Y-110236000D03*
%TO.P,J4,4,Pin_4*%
%TO.N,/+5V*%
X127635000Y-110236000D03*
%TD*%
D18*
%TO.P,U1,1,ADJ*%
%TO.N,Net-(R2-Pad1)*%
X110871000Y-125349000D03*
D19*
%TO.P,U1,2,VO*%
%TO.N,/+3.3V*%
X110871000Y-122809000D03*
%TO.P,U1,3,VI*%
%TO.N,Net-(J4-Pad3)*%
X110871000Y-120269000D03*
%TD*%
D13*
%TO.P,R4,1*%
%TO.N,/+3.3V*%
X111506000Y-110617000D03*
D14*
%TO.P,R4,2*%
%TO.N,Net-(R2-Pad1)*%
X119126000Y-110617000D03*
%TD*%
D20*
%TO.P,D2,1,K*%
%TO.N,Net-(D2-Pad1)*%
X197866000Y-96261000D03*
D21*
%TO.P,D2,2,A*%
%TO.N,/+5V*%
X197866000Y-98801000D03*
%TD*%
D22*
%TO.P,PS2,*%
%TO.N,*%
X181495000Y-120892000D03*
X121995000Y-146092000D03*
X121995000Y-120892000D03*
X181495000Y-146092000D03*
D23*
%TO.P,PS2,1,AC/N*%
%TO.N,NEUT*%
X169695000Y-146792000D03*
%TO.P,PS2,2,AC/L*%
%TO.N,Net-(J2-Pad1)*%
X174695000Y-146792000D03*
%TO.P,PS2,3,-Vo*%
%TO.N,GND*%
X124295000Y-136692000D03*
%TO.P,PS2,4,+Vo*%
%TO.N,/+5V*%
X124295000Y-134192000D03*
%TD*%
D15*
%TO.P,J2,1,Pin_1*%
%TO.N,Net-(J2-Pad1)*%
X168783000Y-111511000D03*
D16*
%TO.P,J2,2,Pin_2*%
%TO.N,LINE*%
X168783000Y-108971000D03*
%TD*%
D20*
%TO.P,D3,1,K*%
%TO.N,Net-(D3-Pad1)*%
X197866000Y-100960000D03*
D21*
%TO.P,D3,2,A*%
%TO.N,/+3.3V*%
X197866000Y-103500000D03*
%TD*%
D13*
%TO.P,R3,1*%
%TO.N,Net-(D2-Pad1)*%
X192659000Y-97536000D03*
D14*
%TO.P,R3,2*%
%TO.N,GND*%
X185039000Y-97536000D03*
%TD*%
D20*
%TO.P,D1,1,K*%
%TO.N,Net-(D1-Pad1)*%
X197866000Y-91567000D03*
D21*
%TO.P,D1,2,A*%
%TO.N,/+12V*%
X197866000Y-94107000D03*
%TD*%
D13*
%TO.P,R1,1*%
%TO.N,Net-(D1-Pad1)*%
X192659000Y-92710000D03*
D14*
%TO.P,R1,2*%
%TO.N,GND*%
X185039000Y-92710000D03*
%TD*%
D15*
%TO.P,J5,1,Pin_1*%
%TO.N,GND*%
X107569000Y-85090000D03*
D16*
%TO.P,J5,2,Pin_2*%
X110109000Y-85090000D03*
%TO.P,J5,3,Pin_3*%
%TO.N,/+5V*%
X107569000Y-87630000D03*
%TO.P,J5,4,Pin_4*%
X110109000Y-87630000D03*
%TO.P,J5,5,Pin_5*%
%TO.N,/+12V*%
X107569000Y-90170000D03*
%TO.P,J5,6,Pin_6*%
X110109000Y-90170000D03*
%TO.P,J5,7,Pin_7*%
%TO.N,/+3.3V*%
X107569000Y-92710000D03*
%TO.P,J5,8,Pin_8*%
X110109000Y-92710000D03*
%TO.P,J5,9,Pin_9*%
%TO.N,GND*%
X107569000Y-95250000D03*
%TO.P,J5,10,Pin_10*%
X110109000Y-95250000D03*
%TD*%
D15*
%TO.P,J6,1,Pin_1*%
%TO.N,unconnected-(J6-Pad1)*%
X107564000Y-138435000D03*
D16*
%TO.P,J6,2,Pin_2*%
%TO.N,unconnected-(J6-Pad2)*%
X110104000Y-138435000D03*
%TO.P,J6,3,Pin_3*%
%TO.N,unconnected-(J6-Pad3)*%
X107564000Y-140975000D03*
%TO.P,J6,4,Pin_4*%
%TO.N,unconnected-(J6-Pad4)*%
X110104000Y-140975000D03*
%TO.P,J6,5,Pin_5*%
%TO.N,unconnected-(J6-Pad5)*%
X107564000Y-143515000D03*
%TO.P,J6,6,Pin_6*%
%TO.N,unconnected-(J6-Pad6)*%
X110104000Y-143515000D03*
%TO.P,J6,7,Pin_7*%
%TO.N,unconnected-(J6-Pad7)*%
X107564000Y-146055000D03*
%TO.P,J6,8,Pin_8*%
%TO.N,unconnected-(J6-Pad8)*%
X110104000Y-146055000D03*
%TO.P,J6,9,Pin_9*%
%TO.N,unconnected-(J6-Pad9)*%
X107564000Y-148595000D03*
%TO.P,J6,10,Pin_10*%
%TO.N,unconnected-(J6-Pad10)*%
X110104000Y-148595000D03*
%TD*%
D13*
%TO.P,R5,1*%
%TO.N,Net-(D3-Pad1)*%
X192659000Y-102235000D03*
D14*
%TO.P,R5,2*%
%TO.N,GND*%
X185039000Y-102235000D03*
%TD*%
D24*
%TO.P,PS1,1,-Vin*%
%TO.N,GND*%
X117376000Y-88816000D03*
%TO.P,PS1,2,+Vin*%
%TO.N,Net-(J4-Pad1)*%
X117376000Y-95816000D03*
%TO.P,PS1,3,-Vout*%
%TO.N,GND*%
X147376000Y-88816000D03*
%TO.P,PS1,4,+Vout*%
%TO.N,/+12V*%
X147376000Y-95816000D03*
%TD*%
D12*
%TO.P,H2,*%
%TO.N,*%
X197739000Y-146685000D03*
%TD*%
D25*
%TO.N,/+12V*%
X175362600Y-91037000D02*
X178866200Y-94540600D01*
X178866200Y-94540600D02*
X194279400Y-94540600D01*
X164935000Y-85597400D02*
X170374600Y-91037000D01*
X149892300Y-95816000D02*
X149892300Y-94007400D01*
X142343400Y-93299700D02*
X117187500Y-93299700D01*
X194279400Y-94540600D02*
X194713000Y-94107000D01*
X147376000Y-95816000D02*
X149892300Y-95816000D01*
X146117900Y-95816000D02*
X144859700Y-95816000D01*
X144859700Y-95816000D02*
X142343400Y-93299700D01*
X158302300Y-85597400D02*
X164935000Y-85597400D01*
X194713000Y-94107000D02*
X197866000Y-94107000D01*
X110109000Y-90170000D02*
X107569000Y-90170000D01*
X117187500Y-93299700D02*
X114057800Y-90170000D01*
X170374600Y-91037000D02*
X175362600Y-91037000D01*
X146117900Y-95816000D02*
X147376000Y-95816000D01*
X114057800Y-90170000D02*
X110109000Y-90170000D01*
X149892300Y-94007400D02*
X158302300Y-85597400D01*
%TO.N,Net-(D2-Pad1)*%
X193934000Y-96261000D02*
X197866000Y-96261000D01*
X192659000Y-97536000D02*
X193934000Y-96261000D01*
%TO.N,/+5V*%
X110109000Y-87630000D02*
X107569000Y-87630000D01*
%TO.N,Net-(D3-Pad1)*%
X193934000Y-100960000D02*
X197866000Y-100960000D01*
X192659000Y-102235000D02*
X193934000Y-100960000D01*
%TO.N,/+3.3V*%
X110109000Y-92710000D02*
X107569000Y-92710000D01*
%TO.N,Net-(J1-Pad2)*%
X155789600Y-91304400D02*
X162450800Y-91304400D01*
X162450800Y-91304400D02*
X166443500Y-95297100D01*
X170548800Y-95297100D02*
X187773700Y-112522000D01*
X154423300Y-92670700D02*
X155789600Y-91304400D01*
X159258000Y-99314000D02*
X159187200Y-99314000D01*
X154423300Y-94550100D02*
X154423300Y-92670700D01*
X166443500Y-95297100D02*
X170548800Y-95297100D01*
X187773700Y-112522000D02*
X195834000Y-112522000D01*
X159187200Y-99314000D02*
X154423300Y-94550100D01*
%TO.N,Net-(J2-Pad1)*%
X174695000Y-146792000D02*
X172679000Y-148808000D01*
X168860000Y-148808000D02*
X167679000Y-147627000D01*
X156718000Y-93599000D02*
X158486000Y-93599000D01*
X167679000Y-112615000D02*
X168783000Y-111511000D01*
X166917000Y-109744000D02*
X168685000Y-111511000D01*
X166917000Y-102031000D02*
X166917000Y-109744000D01*
X158486000Y-93599000D02*
X166917000Y-102031000D01*
X168685000Y-111511000D02*
X168783000Y-111511000D01*
X167679000Y-147627000D02*
X167679000Y-112615000D01*
X172679000Y-148808000D02*
X168860000Y-148808000D01*
%TO.N,LINE*%
X188087000Y-124460000D02*
X180798000Y-124460000D01*
X171323000Y-99314000D02*
X171323000Y-108595000D01*
X172598000Y-108971000D02*
X171699000Y-108971000D01*
X171699000Y-108971000D02*
X168783000Y-108971000D01*
X171323000Y-108595000D02*
X171699000Y-108971000D01*
X176149000Y-112522000D02*
X172598000Y-108971000D01*
X176149000Y-119811000D02*
X176149000Y-112522000D01*
X180798000Y-124460000D02*
X176149000Y-119811000D01*
%TO.N,NEUT*%
X169672000Y-135636000D02*
X169695000Y-135659000D01*
X188087000Y-133096000D02*
X172212000Y-133096000D01*
X172212000Y-133096000D02*
X169672000Y-135636000D01*
X169695000Y-135659000D02*
X169695000Y-146792000D01*
%TO.N,GND*%
X117376000Y-88816000D02*
X114859700Y-88816000D01*
X111975300Y-85931600D02*
X111975300Y-85090000D01*
X110109000Y-85090000D02*
X107569000Y-85090000D01*
X147376000Y-88816000D02*
X117376000Y-88816000D01*
X114859700Y-88816000D02*
X111975300Y-85931600D01*
X107569000Y-85090000D02*
X105702700Y-85090000D01*
X107569000Y-95250000D02*
X105702700Y-95250000D01*
X105702700Y-85090000D02*
X105702700Y-95250000D01*
X110109000Y-95250000D02*
X107569000Y-95250000D01*
X110109000Y-85090000D02*
X111975300Y-85090000D01*
%TO.N,Net-(J1-Pad1)*%
X195834000Y-109982000D02*
X188241800Y-109982000D01*
X171360200Y-93100400D02*
X167522800Y-93100400D01*
X188241800Y-109982000D02*
X171360200Y-93100400D01*
X167522800Y-93100400D02*
X162306400Y-87884000D01*
X162306400Y-87884000D02*
X159258000Y-87884000D01*
%TO.N,Net-(J4-Pad3)*%
X110871000Y-120269000D02*
X113195700Y-120269000D01*
X125095000Y-110236000D02*
X123228700Y-110236000D01*
X113195700Y-120269000D02*
X123228700Y-110236000D01*
%TO.N,Net-(R2-Pad1)*%
X110871000Y-125349000D02*
X108854700Y-125349000D01*
X117309700Y-110617000D02*
X108854700Y-119072000D01*
X108854700Y-119072000D02*
X108854700Y-125349000D01*
X119126000Y-110617000D02*
X117309700Y-110617000D01*
%TD*%
M02*
