%TF.GenerationSoftware,KiCad,Pcbnew,7.0.5*%
%TF.CreationDate,2023-08-28T16:01:15+03:00*%
%TF.ProjectId,PSU2,50535532-2e6b-4696-9361-645f70636258,rev?*%
%TF.SameCoordinates,Original*%
%TF.FileFunction,Soldermask,Top*%
%TF.FilePolarity,Negative*%
%FSLAX46Y46*%
G04 Gerber Fmt 4.6, Leading zero omitted, Abs format (unit mm)*
G04 Created by KiCad (PCBNEW 7.0.5) date 2023-08-28 16:01:15*
%MOMM*%
%LPD*%
G01*
G04 APERTURE LIST*
%ADD10C,4.200000*%
%ADD11C,3.000000*%
%ADD12C,5.080000*%
%ADD13C,1.600000*%
%ADD14O,1.600000X1.600000*%
%ADD15R,1.700000X1.700000*%
%ADD16O,1.700000X1.700000*%
%ADD17C,2.500000*%
%ADD18R,2.000000X1.905000*%
%ADD19O,2.000000X1.905000*%
%ADD20R,1.800000X1.800000*%
%ADD21C,1.800000*%
%ADD22C,4.000000*%
%ADD23C,2.000000*%
%ADD24R,3.000000X3.000000*%
G04 APERTURE END LIST*
D10*
%TO.C,J3*%
X193675000Y-122682000D03*
X193675000Y-135382000D03*
D11*
X188087000Y-124460000D03*
X188087000Y-133096000D03*
%TD*%
D12*
%TO.C,H1*%
X197739000Y-86995000D03*
%TD*%
D13*
%TO.C,R2*%
X119126000Y-107315000D03*
D14*
X111506000Y-107315000D03*
%TD*%
D15*
%TO.C,J1*%
X195834000Y-109982000D03*
D16*
X195834000Y-112522000D03*
%TD*%
D17*
%TO.C,K1*%
X171323000Y-99314000D03*
X171323000Y-87884000D03*
X159258000Y-99314000D03*
X159258000Y-87884000D03*
X156718000Y-93599000D03*
%TD*%
D15*
%TO.C,J4*%
X125095000Y-107696000D03*
D16*
X127635000Y-107696000D03*
X125095000Y-110236000D03*
X127635000Y-110236000D03*
%TD*%
D18*
%TO.C,U1*%
X110871000Y-125349000D03*
D19*
X110871000Y-122809000D03*
X110871000Y-120269000D03*
%TD*%
D13*
%TO.C,R4*%
X111506000Y-110617000D03*
D14*
X119126000Y-110617000D03*
%TD*%
D20*
%TO.C,D2*%
X197866000Y-96261000D03*
D21*
X197866000Y-98801000D03*
%TD*%
D22*
%TO.C,PS2*%
X181495000Y-120892000D03*
X121995000Y-146092000D03*
X121995000Y-120892000D03*
X181495000Y-146092000D03*
D23*
X169695000Y-146792000D03*
X174695000Y-146792000D03*
X124295000Y-136692000D03*
X124295000Y-134192000D03*
%TD*%
D15*
%TO.C,J2*%
X168783000Y-111511000D03*
D16*
X168783000Y-108971000D03*
%TD*%
D20*
%TO.C,D3*%
X197866000Y-100960000D03*
D21*
X197866000Y-103500000D03*
%TD*%
D13*
%TO.C,R3*%
X192659000Y-97536000D03*
D14*
X185039000Y-97536000D03*
%TD*%
D20*
%TO.C,D1*%
X197866000Y-91567000D03*
D21*
X197866000Y-94107000D03*
%TD*%
D13*
%TO.C,R1*%
X192659000Y-92710000D03*
D14*
X185039000Y-92710000D03*
%TD*%
D15*
%TO.C,J5*%
X107569000Y-85090000D03*
D16*
X110109000Y-85090000D03*
X107569000Y-87630000D03*
X110109000Y-87630000D03*
X107569000Y-90170000D03*
X110109000Y-90170000D03*
X107569000Y-92710000D03*
X110109000Y-92710000D03*
X107569000Y-95250000D03*
X110109000Y-95250000D03*
%TD*%
D15*
%TO.C,J6*%
X107564000Y-138435000D03*
D16*
X110104000Y-138435000D03*
X107564000Y-140975000D03*
X110104000Y-140975000D03*
X107564000Y-143515000D03*
X110104000Y-143515000D03*
X107564000Y-146055000D03*
X110104000Y-146055000D03*
X107564000Y-148595000D03*
X110104000Y-148595000D03*
%TD*%
D13*
%TO.C,R5*%
X192659000Y-102235000D03*
D14*
X185039000Y-102235000D03*
%TD*%
D24*
%TO.C,PS1*%
X117376000Y-88816000D03*
X117376000Y-95816000D03*
X147376000Y-88816000D03*
X147376000Y-95816000D03*
%TD*%
D12*
%TO.C,H2*%
X197739000Y-146685000D03*
%TD*%
M02*
