%TF.GenerationSoftware,KiCad,Pcbnew,(5.1.6)-1*%
%TF.CreationDate,2021-11-15T10:58:31+02:00*%
%TF.ProjectId,Front Panel Template,46726f6e-7420-4506-916e-656c2054656d,rev?*%
%TF.SameCoordinates,Original*%
%TF.FileFunction,Profile,NP*%
%FSLAX46Y46*%
G04 Gerber Fmt 4.6, Leading zero omitted, Abs format (unit mm)*
G04 Created by KiCad (PCBNEW (5.1.6)-1) date 2021-11-15 10:58:31*
%MOMM*%
%LPD*%
G01*
G04 APERTURE LIST*
%TA.AperFunction,Profile*%
%ADD10C,0.050000*%
%TD*%
G04 APERTURE END LIST*
D10*
X176530000Y-93345000D02*
X176530000Y-41275000D01*
X170180000Y-93345000D02*
X176530000Y-93345000D01*
X170180000Y-73025000D02*
X170180000Y-93345000D01*
X163830000Y-73025000D02*
X170180000Y-73025000D01*
X163830000Y-41275000D02*
X163830000Y-73025000D01*
X176530000Y-41275000D02*
X163830000Y-41275000D01*
X156845000Y-107315000D02*
X181610000Y-107315000D01*
X156845000Y-27305000D02*
X181610000Y-27305000D01*
X181610000Y-107315000D02*
X181610000Y-27305000D01*
X93345000Y-93980000D02*
X93345000Y-40640000D01*
X82550000Y-27305000D02*
X107315000Y-27305000D01*
X82550000Y-27305000D02*
X82550000Y-107315000D01*
X93345000Y-40640000D02*
X102235000Y-40640000D01*
X107315000Y-107315000D02*
X132080000Y-107315000D01*
X102235000Y-40640000D02*
X102235000Y-93980000D01*
X82550000Y-107315000D02*
X107315000Y-107315000D01*
X107315000Y-27305000D02*
X132080000Y-27305000D01*
X102235000Y-93980000D02*
X93345000Y-93980000D01*
X132080000Y-107315000D02*
X156845000Y-107315000D01*
X132080000Y-27305000D02*
X156845000Y-27305000D01*
M02*
