G04 #@! TF.GenerationSoftware,KiCad,Pcbnew,(5.1.4)-1*
G04 #@! TF.CreationDate,2022-01-22T15:46:12+02:00*
G04 #@! TF.ProjectId,Backplane v2,4261636b-706c-4616-9e65-2076322e6b69,rev?*
G04 #@! TF.SameCoordinates,Original*
G04 #@! TF.FileFunction,Copper,L1,Top*
G04 #@! TF.FilePolarity,Positive*
%FSLAX46Y46*%
G04 Gerber Fmt 4.6, Leading zero omitted, Abs format (unit mm)*
G04 Created by KiCad (PCBNEW (5.1.4)-1) date 2022-01-22 15:46:12*
%MOMM*%
%LPD*%
G04 APERTURE LIST*
%ADD10R,1.700000X1.700000*%
%ADD11O,1.700000X1.700000*%
%ADD12C,5.080000*%
%ADD13C,0.508000*%
%ADD14C,0.250000*%
G04 APERTURE END LIST*
D10*
X87630000Y-63500000D03*
D11*
X90170000Y-63500000D03*
X87630000Y-66040000D03*
X90170000Y-66040000D03*
X87630000Y-68580000D03*
X90170000Y-68580000D03*
X87630000Y-71120000D03*
X90170000Y-71120000D03*
X87630000Y-73660000D03*
X90170000Y-73660000D03*
D10*
X87630000Y-78740000D03*
D11*
X90170000Y-78740000D03*
X87630000Y-81280000D03*
X90170000Y-81280000D03*
X87630000Y-83820000D03*
X90170000Y-83820000D03*
X87630000Y-86360000D03*
X90170000Y-86360000D03*
X87630000Y-88900000D03*
X90170000Y-88900000D03*
X87630000Y-91440000D03*
X90170000Y-91440000D03*
X87630000Y-93980000D03*
X90170000Y-93980000D03*
X87630000Y-96520000D03*
X90170000Y-96520000D03*
X87630000Y-99060000D03*
X90170000Y-99060000D03*
X87630000Y-101600000D03*
X90170000Y-101600000D03*
X87630000Y-104140000D03*
X90170000Y-104140000D03*
X87630000Y-106680000D03*
X90170000Y-106680000D03*
X87630000Y-109220000D03*
X90170000Y-109220000D03*
X87630000Y-111760000D03*
X90170000Y-111760000D03*
X87630000Y-114300000D03*
X90170000Y-114300000D03*
X87630000Y-116840000D03*
X90170000Y-116840000D03*
X87630000Y-119380000D03*
X90170000Y-119380000D03*
X87630000Y-121920000D03*
X90170000Y-121920000D03*
X87630000Y-124460000D03*
X90170000Y-124460000D03*
X87630000Y-127000000D03*
X90170000Y-127000000D03*
X96520000Y-73660000D03*
X93980000Y-73660000D03*
X96520000Y-71120000D03*
X93980000Y-71120000D03*
X96520000Y-68580000D03*
X93980000Y-68580000D03*
X96520000Y-66040000D03*
X93980000Y-66040000D03*
X96520000Y-63500000D03*
D10*
X93980000Y-63500000D03*
D11*
X96520000Y-127000000D03*
X93980000Y-127000000D03*
X96520000Y-124460000D03*
X93980000Y-124460000D03*
X96520000Y-121920000D03*
X93980000Y-121920000D03*
X96520000Y-119380000D03*
X93980000Y-119380000D03*
X96520000Y-116840000D03*
X93980000Y-116840000D03*
X96520000Y-114300000D03*
X93980000Y-114300000D03*
X96520000Y-111760000D03*
X93980000Y-111760000D03*
X96520000Y-109220000D03*
X93980000Y-109220000D03*
X96520000Y-106680000D03*
X93980000Y-106680000D03*
X96520000Y-104140000D03*
X93980000Y-104140000D03*
X96520000Y-101600000D03*
X93980000Y-101600000D03*
X96520000Y-99060000D03*
X93980000Y-99060000D03*
X96520000Y-96520000D03*
X93980000Y-96520000D03*
X96520000Y-93980000D03*
X93980000Y-93980000D03*
X96520000Y-91440000D03*
X93980000Y-91440000D03*
X96520000Y-88900000D03*
X93980000Y-88900000D03*
X96520000Y-86360000D03*
X93980000Y-86360000D03*
X96520000Y-83820000D03*
X93980000Y-83820000D03*
X96520000Y-81280000D03*
X93980000Y-81280000D03*
X96520000Y-78740000D03*
D10*
X93980000Y-78740000D03*
X120650000Y-63500000D03*
D11*
X123190000Y-63500000D03*
X120650000Y-66040000D03*
X123190000Y-66040000D03*
X120650000Y-68580000D03*
X123190000Y-68580000D03*
X120650000Y-71120000D03*
X123190000Y-71120000D03*
X120650000Y-73660000D03*
X123190000Y-73660000D03*
D10*
X120650000Y-78740000D03*
D11*
X123190000Y-78740000D03*
X120650000Y-81280000D03*
X123190000Y-81280000D03*
X120650000Y-83820000D03*
X123190000Y-83820000D03*
X120650000Y-86360000D03*
X123190000Y-86360000D03*
X120650000Y-88900000D03*
X123190000Y-88900000D03*
X120650000Y-91440000D03*
X123190000Y-91440000D03*
X120650000Y-93980000D03*
X123190000Y-93980000D03*
X120650000Y-96520000D03*
X123190000Y-96520000D03*
X120650000Y-99060000D03*
X123190000Y-99060000D03*
X120650000Y-101600000D03*
X123190000Y-101600000D03*
X120650000Y-104140000D03*
X123190000Y-104140000D03*
X120650000Y-106680000D03*
X123190000Y-106680000D03*
X120650000Y-109220000D03*
X123190000Y-109220000D03*
X120650000Y-111760000D03*
X123190000Y-111760000D03*
X120650000Y-114300000D03*
X123190000Y-114300000D03*
X120650000Y-116840000D03*
X123190000Y-116840000D03*
X120650000Y-119380000D03*
X123190000Y-119380000D03*
X120650000Y-121920000D03*
X123190000Y-121920000D03*
X120650000Y-124460000D03*
X123190000Y-124460000D03*
X120650000Y-127000000D03*
X123190000Y-127000000D03*
X149860000Y-73660000D03*
X147320000Y-73660000D03*
X149860000Y-71120000D03*
X147320000Y-71120000D03*
X149860000Y-68580000D03*
X147320000Y-68580000D03*
X149860000Y-66040000D03*
X147320000Y-66040000D03*
X149860000Y-63500000D03*
D10*
X147320000Y-63500000D03*
D11*
X149860000Y-127000000D03*
X147320000Y-127000000D03*
X149860000Y-124460000D03*
X147320000Y-124460000D03*
X149860000Y-121920000D03*
X147320000Y-121920000D03*
X149860000Y-119380000D03*
X147320000Y-119380000D03*
X149860000Y-116840000D03*
X147320000Y-116840000D03*
X149860000Y-114300000D03*
X147320000Y-114300000D03*
X149860000Y-111760000D03*
X147320000Y-111760000D03*
X149860000Y-109220000D03*
X147320000Y-109220000D03*
X149860000Y-106680000D03*
X147320000Y-106680000D03*
X149860000Y-104140000D03*
X147320000Y-104140000D03*
X149860000Y-101600000D03*
X147320000Y-101600000D03*
X149860000Y-99060000D03*
X147320000Y-99060000D03*
X149860000Y-96520000D03*
X147320000Y-96520000D03*
X149860000Y-93980000D03*
X147320000Y-93980000D03*
X149860000Y-91440000D03*
X147320000Y-91440000D03*
X149860000Y-88900000D03*
X147320000Y-88900000D03*
X149860000Y-86360000D03*
X147320000Y-86360000D03*
X149860000Y-83820000D03*
X147320000Y-83820000D03*
X149860000Y-81280000D03*
X147320000Y-81280000D03*
X149860000Y-78740000D03*
D10*
X147320000Y-78740000D03*
X153670000Y-63500000D03*
D11*
X156210000Y-63500000D03*
X153670000Y-66040000D03*
X156210000Y-66040000D03*
X153670000Y-68580000D03*
X156210000Y-68580000D03*
X153670000Y-71120000D03*
X156210000Y-71120000D03*
X153670000Y-73660000D03*
X156210000Y-73660000D03*
D10*
X153670000Y-78740000D03*
D11*
X156210000Y-78740000D03*
X153670000Y-81280000D03*
X156210000Y-81280000D03*
X153670000Y-83820000D03*
X156210000Y-83820000D03*
X153670000Y-86360000D03*
X156210000Y-86360000D03*
X153670000Y-88900000D03*
X156210000Y-88900000D03*
X153670000Y-91440000D03*
X156210000Y-91440000D03*
X153670000Y-93980000D03*
X156210000Y-93980000D03*
X153670000Y-96520000D03*
X156210000Y-96520000D03*
X153670000Y-99060000D03*
X156210000Y-99060000D03*
X153670000Y-101600000D03*
X156210000Y-101600000D03*
X153670000Y-104140000D03*
X156210000Y-104140000D03*
X153670000Y-106680000D03*
X156210000Y-106680000D03*
X153670000Y-109220000D03*
X156210000Y-109220000D03*
X153670000Y-111760000D03*
X156210000Y-111760000D03*
X153670000Y-114300000D03*
X156210000Y-114300000D03*
X153670000Y-116840000D03*
X156210000Y-116840000D03*
X153670000Y-119380000D03*
X156210000Y-119380000D03*
X153670000Y-121920000D03*
X156210000Y-121920000D03*
X153670000Y-124460000D03*
X156210000Y-124460000D03*
X153670000Y-127000000D03*
X156210000Y-127000000D03*
D12*
X121920000Y-50165000D03*
X88900000Y-50165000D03*
X154940000Y-50165000D03*
X154940000Y-140335000D03*
X121920000Y-140335000D03*
X88900000Y-140335000D03*
D13*
X87630000Y-63500000D02*
X93980000Y-63500000D01*
X93980000Y-63500000D02*
X96520000Y-63500000D01*
X96520000Y-63500000D02*
X120650000Y-63500000D01*
X120650000Y-63500000D02*
X123190000Y-63500000D01*
X123190000Y-63500000D02*
X147320000Y-63500000D01*
X147320000Y-63500000D02*
X149860000Y-63500000D01*
X149860000Y-63500000D02*
X153670000Y-63500000D01*
X153670000Y-63500000D02*
X156210000Y-63500000D01*
X87630000Y-73660000D02*
X90170000Y-73660000D01*
X90170000Y-73660000D02*
X93980000Y-73660000D01*
X93980000Y-73660000D02*
X96520000Y-73660000D01*
X96520000Y-73660000D02*
X120650000Y-73660000D01*
X120650000Y-73660000D02*
X123190000Y-73660000D01*
X123190000Y-73660000D02*
X147320000Y-73660000D01*
X147320000Y-73660000D02*
X149860000Y-73660000D01*
X149860000Y-73660000D02*
X153670000Y-73660000D01*
X153670000Y-73660000D02*
X156210000Y-73660000D01*
X86780001Y-72810001D02*
X87630000Y-73660000D01*
X86119599Y-72149599D02*
X86780001Y-72810001D01*
X86119599Y-63652401D02*
X86119599Y-72149599D01*
X86272000Y-63500000D02*
X86119599Y-63652401D01*
X87630000Y-63500000D02*
X86272000Y-63500000D01*
X87630000Y-66040000D02*
X90170000Y-66040000D01*
X90170000Y-66040000D02*
X93980000Y-66040000D01*
X93980000Y-66040000D02*
X96520000Y-66040000D01*
X96520000Y-66040000D02*
X120650000Y-66040000D01*
X120650000Y-66040000D02*
X123190000Y-66040000D01*
X123190000Y-66040000D02*
X147320000Y-66040000D01*
X147320000Y-66040000D02*
X149860000Y-66040000D01*
X149860000Y-66040000D02*
X153670000Y-66040000D01*
X153670000Y-66040000D02*
X156210000Y-66040000D01*
X87630000Y-68580000D02*
X90170000Y-68580000D01*
X90170000Y-68580000D02*
X93980000Y-68580000D01*
X93980000Y-68580000D02*
X96520000Y-68580000D01*
X96520000Y-68580000D02*
X120650000Y-68580000D01*
X120650000Y-68580000D02*
X123190000Y-68580000D01*
X123190000Y-68580000D02*
X147320000Y-68580000D01*
X147320000Y-68580000D02*
X149860000Y-68580000D01*
X149860000Y-68580000D02*
X153670000Y-68580000D01*
X153670000Y-68580000D02*
X156210000Y-68580000D01*
X87630000Y-71120000D02*
X90170000Y-71120000D01*
X90170000Y-71120000D02*
X93980000Y-71120000D01*
X93980000Y-71120000D02*
X96520000Y-71120000D01*
X96520000Y-71120000D02*
X120650000Y-71120000D01*
X120650000Y-71120000D02*
X123190000Y-71120000D01*
X123190000Y-71120000D02*
X147320000Y-71120000D01*
X147320000Y-71120000D02*
X149860000Y-71120000D01*
X149860000Y-71120000D02*
X153670000Y-71120000D01*
X153670000Y-71120000D02*
X156210000Y-71120000D01*
D14*
X95670001Y-77890001D02*
X96520000Y-78740000D01*
X95344999Y-77564999D02*
X95670001Y-77890001D01*
X91345001Y-77564999D02*
X95344999Y-77564999D01*
X90170000Y-78740000D02*
X91345001Y-77564999D01*
X97369999Y-77890001D02*
X96520000Y-78740000D01*
X97695001Y-77564999D02*
X97369999Y-77890001D01*
X122014999Y-77564999D02*
X97695001Y-77564999D01*
X123190000Y-78740000D02*
X122014999Y-77564999D01*
X124039999Y-77890001D02*
X123190000Y-78740000D01*
X124365001Y-77564999D02*
X124039999Y-77890001D01*
X148684999Y-77564999D02*
X124365001Y-77564999D01*
X149860000Y-78740000D02*
X148684999Y-77564999D01*
X149860000Y-78740000D02*
X153670000Y-78740000D01*
X95670001Y-80430001D02*
X96520000Y-81280000D01*
X95344999Y-80104999D02*
X95670001Y-80430001D01*
X91345001Y-80104999D02*
X95344999Y-80104999D01*
X90170000Y-81280000D02*
X91345001Y-80104999D01*
X97369999Y-80430001D02*
X96520000Y-81280000D01*
X97695001Y-80104999D02*
X97369999Y-80430001D01*
X122014999Y-80104999D02*
X97695001Y-80104999D01*
X123190000Y-81280000D02*
X122014999Y-80104999D01*
X124039999Y-80430001D02*
X123190000Y-81280000D01*
X124365001Y-80104999D02*
X124039999Y-80430001D01*
X148684999Y-80104999D02*
X124365001Y-80104999D01*
X149860000Y-81280000D02*
X148684999Y-80104999D01*
X149860000Y-81280000D02*
X153670000Y-81280000D01*
X95670001Y-82970001D02*
X96520000Y-83820000D01*
X95344999Y-82644999D02*
X95670001Y-82970001D01*
X91345001Y-82644999D02*
X95344999Y-82644999D01*
X90170000Y-83820000D02*
X91345001Y-82644999D01*
X97369999Y-82970001D02*
X96520000Y-83820000D01*
X97884999Y-82455001D02*
X97369999Y-82970001D01*
X121825001Y-82455001D02*
X97884999Y-82455001D01*
X123190000Y-83820000D02*
X121825001Y-82455001D01*
X124039999Y-82970001D02*
X123190000Y-83820000D01*
X124365001Y-82644999D02*
X124039999Y-82970001D01*
X148684999Y-82644999D02*
X124365001Y-82644999D01*
X149860000Y-83820000D02*
X148684999Y-82644999D01*
X149860000Y-83820000D02*
X153670000Y-83820000D01*
X95670001Y-85510001D02*
X96520000Y-86360000D01*
X95344999Y-85184999D02*
X95670001Y-85510001D01*
X91345001Y-85184999D02*
X95344999Y-85184999D01*
X90170000Y-86360000D02*
X91345001Y-85184999D01*
X97369999Y-85510001D02*
X96520000Y-86360000D01*
X97695001Y-85184999D02*
X97369999Y-85510001D01*
X122014999Y-85184999D02*
X97695001Y-85184999D01*
X123190000Y-86360000D02*
X122014999Y-85184999D01*
X124039999Y-85510001D02*
X123190000Y-86360000D01*
X124365001Y-85184999D02*
X124039999Y-85510001D01*
X148684999Y-85184999D02*
X124365001Y-85184999D01*
X149860000Y-86360000D02*
X148684999Y-85184999D01*
X149860000Y-86360000D02*
X153670000Y-86360000D01*
X95670001Y-88050001D02*
X96520000Y-88900000D01*
X95344999Y-87724999D02*
X95670001Y-88050001D01*
X91345001Y-87724999D02*
X95344999Y-87724999D01*
X90170000Y-88900000D02*
X91345001Y-87724999D01*
X97369999Y-88050001D02*
X96520000Y-88900000D01*
X97695001Y-87724999D02*
X97369999Y-88050001D01*
X122014999Y-87724999D02*
X97695001Y-87724999D01*
X123190000Y-88900000D02*
X122014999Y-87724999D01*
X124039999Y-88050001D02*
X123190000Y-88900000D01*
X124365001Y-87724999D02*
X124039999Y-88050001D01*
X148684999Y-87724999D02*
X124365001Y-87724999D01*
X149860000Y-88900000D02*
X148684999Y-87724999D01*
X149860000Y-88900000D02*
X153670000Y-88900000D01*
X95670001Y-90590001D02*
X96520000Y-91440000D01*
X95344999Y-90264999D02*
X95670001Y-90590001D01*
X91345001Y-90264999D02*
X95344999Y-90264999D01*
X90170000Y-91440000D02*
X91345001Y-90264999D01*
X97369999Y-90590001D02*
X96520000Y-91440000D01*
X97695001Y-90264999D02*
X97369999Y-90590001D01*
X122014999Y-90264999D02*
X97695001Y-90264999D01*
X123190000Y-91440000D02*
X122014999Y-90264999D01*
X124039999Y-90590001D02*
X123190000Y-91440000D01*
X124365001Y-90264999D02*
X124039999Y-90590001D01*
X148684999Y-90264999D02*
X124365001Y-90264999D01*
X149860000Y-91440000D02*
X148684999Y-90264999D01*
X149860000Y-91440000D02*
X153670000Y-91440000D01*
X95670001Y-93130001D02*
X96520000Y-93980000D01*
X95344999Y-92804999D02*
X95670001Y-93130001D01*
X91345001Y-92804999D02*
X95344999Y-92804999D01*
X90170000Y-93980000D02*
X91345001Y-92804999D01*
X97369999Y-93130001D02*
X96520000Y-93980000D01*
X97695001Y-92804999D02*
X97369999Y-93130001D01*
X122014999Y-92804999D02*
X97695001Y-92804999D01*
X123190000Y-93980000D02*
X122014999Y-92804999D01*
X153670000Y-93980000D02*
X149860000Y-93980000D01*
X124039999Y-93130001D02*
X123190000Y-93980000D01*
X124365001Y-92804999D02*
X124039999Y-93130001D01*
X148684999Y-92804999D02*
X124365001Y-92804999D01*
X149860000Y-93980000D02*
X148684999Y-92804999D01*
X95670001Y-95670001D02*
X96520000Y-96520000D01*
X95344999Y-95344999D02*
X95670001Y-95670001D01*
X91345001Y-95344999D02*
X95344999Y-95344999D01*
X90170000Y-96520000D02*
X91345001Y-95344999D01*
X97369999Y-95670001D02*
X96520000Y-96520000D01*
X97695001Y-95344999D02*
X97369999Y-95670001D01*
X122014999Y-95344999D02*
X97695001Y-95344999D01*
X123190000Y-96520000D02*
X122014999Y-95344999D01*
X152467919Y-96520000D02*
X149860000Y-96520000D01*
X153670000Y-96520000D02*
X152467919Y-96520000D01*
X124039999Y-95670001D02*
X123190000Y-96520000D01*
X124365001Y-95344999D02*
X124039999Y-95670001D01*
X148684999Y-95344999D02*
X124365001Y-95344999D01*
X149860000Y-96520000D02*
X148684999Y-95344999D01*
X95670001Y-98210001D02*
X96520000Y-99060000D01*
X95344999Y-97884999D02*
X95670001Y-98210001D01*
X91345001Y-97884999D02*
X95344999Y-97884999D01*
X90170000Y-99060000D02*
X91345001Y-97884999D01*
X97369999Y-98210001D02*
X96520000Y-99060000D01*
X97695001Y-97884999D02*
X97369999Y-98210001D01*
X122014999Y-97884999D02*
X97695001Y-97884999D01*
X123190000Y-99060000D02*
X122014999Y-97884999D01*
X152467919Y-99060000D02*
X149860000Y-99060000D01*
X153670000Y-99060000D02*
X152467919Y-99060000D01*
X124039999Y-98210001D02*
X123190000Y-99060000D01*
X124365001Y-97884999D02*
X124039999Y-98210001D01*
X148684999Y-97884999D02*
X124365001Y-97884999D01*
X149860000Y-99060000D02*
X148684999Y-97884999D01*
X95670001Y-100750001D02*
X96520000Y-101600000D01*
X95344999Y-100424999D02*
X95670001Y-100750001D01*
X91345001Y-100424999D02*
X95344999Y-100424999D01*
X90170000Y-101600000D02*
X91345001Y-100424999D01*
X97369999Y-100750001D02*
X96520000Y-101600000D01*
X97695001Y-100424999D02*
X97369999Y-100750001D01*
X122014999Y-100424999D02*
X97695001Y-100424999D01*
X123190000Y-101600000D02*
X122014999Y-100424999D01*
X153670000Y-101600000D02*
X149860000Y-101600000D01*
X124039999Y-100750001D02*
X123190000Y-101600000D01*
X124365001Y-100424999D02*
X124039999Y-100750001D01*
X148684999Y-100424999D02*
X124365001Y-100424999D01*
X149860000Y-101600000D02*
X148684999Y-100424999D01*
X95670001Y-103290001D02*
X96520000Y-104140000D01*
X95344999Y-102964999D02*
X95670001Y-103290001D01*
X91345001Y-102964999D02*
X95344999Y-102964999D01*
X90170000Y-104140000D02*
X91345001Y-102964999D01*
X97369999Y-103290001D02*
X96520000Y-104140000D01*
X97695001Y-102964999D02*
X97369999Y-103290001D01*
X122014999Y-102964999D02*
X97695001Y-102964999D01*
X123190000Y-104140000D02*
X122014999Y-102964999D01*
X152467919Y-104140000D02*
X149860000Y-104140000D01*
X153670000Y-104140000D02*
X152467919Y-104140000D01*
X124039999Y-103290001D02*
X123190000Y-104140000D01*
X124365001Y-102964999D02*
X124039999Y-103290001D01*
X148684999Y-102964999D02*
X124365001Y-102964999D01*
X149860000Y-104140000D02*
X148684999Y-102964999D01*
X95344999Y-105504999D02*
X96520000Y-106680000D01*
X90170000Y-106680000D02*
X91345001Y-105504999D01*
X91345001Y-105504999D02*
X95344999Y-105504999D01*
X97369999Y-105830001D02*
X96520000Y-106680000D01*
X97695001Y-105504999D02*
X97369999Y-105830001D01*
X122014999Y-105504999D02*
X97695001Y-105504999D01*
X123190000Y-106680000D02*
X122014999Y-105504999D01*
X153670000Y-106680000D02*
X149860000Y-106680000D01*
X124039999Y-105830001D02*
X123190000Y-106680000D01*
X124365001Y-105504999D02*
X124039999Y-105830001D01*
X148684999Y-105504999D02*
X124365001Y-105504999D01*
X149860000Y-106680000D02*
X148684999Y-105504999D01*
X95670001Y-108370001D02*
X96520000Y-109220000D01*
X95344999Y-108044999D02*
X95670001Y-108370001D01*
X91345001Y-108044999D02*
X95344999Y-108044999D01*
X90170000Y-109220000D02*
X91345001Y-108044999D01*
X97369999Y-108370001D02*
X96520000Y-109220000D01*
X97695001Y-108044999D02*
X97369999Y-108370001D01*
X122014999Y-108044999D02*
X97695001Y-108044999D01*
X123190000Y-109220000D02*
X122014999Y-108044999D01*
X153670000Y-109220000D02*
X149860000Y-109220000D01*
X124039999Y-108370001D02*
X123190000Y-109220000D01*
X124365001Y-108044999D02*
X124039999Y-108370001D01*
X148684999Y-108044999D02*
X124365001Y-108044999D01*
X149860000Y-109220000D02*
X148684999Y-108044999D01*
X95670001Y-110910001D02*
X96520000Y-111760000D01*
X95344999Y-110584999D02*
X95670001Y-110910001D01*
X91345001Y-110584999D02*
X95344999Y-110584999D01*
X90170000Y-111760000D02*
X91345001Y-110584999D01*
X97369999Y-110910001D02*
X96520000Y-111760000D01*
X97695001Y-110584999D02*
X97369999Y-110910001D01*
X122014999Y-110584999D02*
X97695001Y-110584999D01*
X123190000Y-111760000D02*
X122014999Y-110584999D01*
X153670000Y-111760000D02*
X149860000Y-111760000D01*
X124039999Y-110910001D02*
X123190000Y-111760000D01*
X124365001Y-110584999D02*
X124039999Y-110910001D01*
X148684999Y-110584999D02*
X124365001Y-110584999D01*
X149860000Y-111760000D02*
X148684999Y-110584999D01*
X95670001Y-113450001D02*
X96520000Y-114300000D01*
X95344999Y-113124999D02*
X95670001Y-113450001D01*
X91345001Y-113124999D02*
X95344999Y-113124999D01*
X90170000Y-114300000D02*
X91345001Y-113124999D01*
X97369999Y-113450001D02*
X96520000Y-114300000D01*
X97695001Y-113124999D02*
X97369999Y-113450001D01*
X122014999Y-113124999D02*
X97695001Y-113124999D01*
X123190000Y-114300000D02*
X122014999Y-113124999D01*
X153670000Y-114300000D02*
X149860000Y-114300000D01*
X124039999Y-113450001D02*
X123190000Y-114300000D01*
X124554999Y-112935001D02*
X124039999Y-113450001D01*
X148495001Y-112935001D02*
X124554999Y-112935001D01*
X149860000Y-114300000D02*
X148495001Y-112935001D01*
X95670001Y-115990001D02*
X96520000Y-116840000D01*
X95344999Y-115664999D02*
X95670001Y-115990001D01*
X91345001Y-115664999D02*
X95344999Y-115664999D01*
X90170000Y-116840000D02*
X91345001Y-115664999D01*
X97369999Y-115990001D02*
X96520000Y-116840000D01*
X97695001Y-115664999D02*
X97369999Y-115990001D01*
X122014999Y-115664999D02*
X97695001Y-115664999D01*
X123190000Y-116840000D02*
X122014999Y-115664999D01*
X153670000Y-116840000D02*
X149860000Y-116840000D01*
X124039999Y-115990001D02*
X123190000Y-116840000D01*
X124365001Y-115664999D02*
X124039999Y-115990001D01*
X148684999Y-115664999D02*
X124365001Y-115664999D01*
X149860000Y-116840000D02*
X148684999Y-115664999D01*
X95670001Y-118530001D02*
X96520000Y-119380000D01*
X95344999Y-118204999D02*
X95670001Y-118530001D01*
X91345001Y-118204999D02*
X95344999Y-118204999D01*
X90170000Y-119380000D02*
X91345001Y-118204999D01*
X97369999Y-118530001D02*
X96520000Y-119380000D01*
X97695001Y-118204999D02*
X97369999Y-118530001D01*
X122014999Y-118204999D02*
X97695001Y-118204999D01*
X123190000Y-119380000D02*
X122014999Y-118204999D01*
X153670000Y-119380000D02*
X149860000Y-119380000D01*
X124039999Y-118530001D02*
X123190000Y-119380000D01*
X124365001Y-118204999D02*
X124039999Y-118530001D01*
X148684999Y-118204999D02*
X124365001Y-118204999D01*
X149860000Y-119380000D02*
X148684999Y-118204999D01*
X95670001Y-121070001D02*
X96520000Y-121920000D01*
X95344999Y-120744999D02*
X95670001Y-121070001D01*
X91345001Y-120744999D02*
X95344999Y-120744999D01*
X90170000Y-121920000D02*
X91345001Y-120744999D01*
X97369999Y-121070001D02*
X96520000Y-121920000D01*
X97695001Y-120744999D02*
X97369999Y-121070001D01*
X122014999Y-120744999D02*
X97695001Y-120744999D01*
X123190000Y-121920000D02*
X122014999Y-120744999D01*
X153670000Y-121920000D02*
X149860000Y-121920000D01*
X124039999Y-121070001D02*
X123190000Y-121920000D01*
X124365001Y-120744999D02*
X124039999Y-121070001D01*
X148684999Y-120744999D02*
X124365001Y-120744999D01*
X149860000Y-121920000D02*
X148684999Y-120744999D01*
X95670001Y-123610001D02*
X96520000Y-124460000D01*
X95344999Y-123284999D02*
X95670001Y-123610001D01*
X91345001Y-123284999D02*
X95344999Y-123284999D01*
X90170000Y-124460000D02*
X91345001Y-123284999D01*
X97369999Y-123610001D02*
X96520000Y-124460000D01*
X97695001Y-123284999D02*
X97369999Y-123610001D01*
X122014999Y-123284999D02*
X97695001Y-123284999D01*
X123190000Y-124460000D02*
X122014999Y-123284999D01*
X153670000Y-124460000D02*
X149860000Y-124460000D01*
X124039999Y-123610001D02*
X123190000Y-124460000D01*
X124365001Y-123284999D02*
X124039999Y-123610001D01*
X148684999Y-123284999D02*
X124365001Y-123284999D01*
X149860000Y-124460000D02*
X148684999Y-123284999D01*
X95670001Y-126150001D02*
X96520000Y-127000000D01*
X95344999Y-125824999D02*
X95670001Y-126150001D01*
X91345001Y-125824999D02*
X95344999Y-125824999D01*
X90170000Y-127000000D02*
X91345001Y-125824999D01*
X97369999Y-126150001D02*
X96520000Y-127000000D01*
X97695001Y-125824999D02*
X97369999Y-126150001D01*
X122014999Y-125824999D02*
X97695001Y-125824999D01*
X123190000Y-127000000D02*
X122014999Y-125824999D01*
X153670000Y-127000000D02*
X149860000Y-127000000D01*
X124039999Y-126150001D02*
X123190000Y-127000000D01*
X124365001Y-125824999D02*
X124039999Y-126150001D01*
X148684999Y-125824999D02*
X124365001Y-125824999D01*
X149860000Y-127000000D02*
X148684999Y-125824999D01*
M02*
