G04 #@! TF.GenerationSoftware,KiCad,Pcbnew,(5.1.4)-1*
G04 #@! TF.CreationDate,2022-01-22T15:46:12+02:00*
G04 #@! TF.ProjectId,Backplane v2,4261636b-706c-4616-9e65-2076322e6b69,rev?*
G04 #@! TF.SameCoordinates,Original*
G04 #@! TF.FileFunction,Copper,L2,Bot*
G04 #@! TF.FilePolarity,Positive*
%FSLAX46Y46*%
G04 Gerber Fmt 4.6, Leading zero omitted, Abs format (unit mm)*
G04 Created by KiCad (PCBNEW (5.1.4)-1) date 2022-01-22 15:46:12*
%MOMM*%
%LPD*%
G04 APERTURE LIST*
%ADD10R,1.700000X1.700000*%
%ADD11O,1.700000X1.700000*%
%ADD12C,5.080000*%
%ADD13C,0.250000*%
%ADD14C,0.254000*%
G04 APERTURE END LIST*
D10*
X87630000Y-63500000D03*
D11*
X90170000Y-63500000D03*
X87630000Y-66040000D03*
X90170000Y-66040000D03*
X87630000Y-68580000D03*
X90170000Y-68580000D03*
X87630000Y-71120000D03*
X90170000Y-71120000D03*
X87630000Y-73660000D03*
X90170000Y-73660000D03*
D10*
X87630000Y-78740000D03*
D11*
X90170000Y-78740000D03*
X87630000Y-81280000D03*
X90170000Y-81280000D03*
X87630000Y-83820000D03*
X90170000Y-83820000D03*
X87630000Y-86360000D03*
X90170000Y-86360000D03*
X87630000Y-88900000D03*
X90170000Y-88900000D03*
X87630000Y-91440000D03*
X90170000Y-91440000D03*
X87630000Y-93980000D03*
X90170000Y-93980000D03*
X87630000Y-96520000D03*
X90170000Y-96520000D03*
X87630000Y-99060000D03*
X90170000Y-99060000D03*
X87630000Y-101600000D03*
X90170000Y-101600000D03*
X87630000Y-104140000D03*
X90170000Y-104140000D03*
X87630000Y-106680000D03*
X90170000Y-106680000D03*
X87630000Y-109220000D03*
X90170000Y-109220000D03*
X87630000Y-111760000D03*
X90170000Y-111760000D03*
X87630000Y-114300000D03*
X90170000Y-114300000D03*
X87630000Y-116840000D03*
X90170000Y-116840000D03*
X87630000Y-119380000D03*
X90170000Y-119380000D03*
X87630000Y-121920000D03*
X90170000Y-121920000D03*
X87630000Y-124460000D03*
X90170000Y-124460000D03*
X87630000Y-127000000D03*
X90170000Y-127000000D03*
X96520000Y-73660000D03*
X93980000Y-73660000D03*
X96520000Y-71120000D03*
X93980000Y-71120000D03*
X96520000Y-68580000D03*
X93980000Y-68580000D03*
X96520000Y-66040000D03*
X93980000Y-66040000D03*
X96520000Y-63500000D03*
D10*
X93980000Y-63500000D03*
D11*
X96520000Y-127000000D03*
X93980000Y-127000000D03*
X96520000Y-124460000D03*
X93980000Y-124460000D03*
X96520000Y-121920000D03*
X93980000Y-121920000D03*
X96520000Y-119380000D03*
X93980000Y-119380000D03*
X96520000Y-116840000D03*
X93980000Y-116840000D03*
X96520000Y-114300000D03*
X93980000Y-114300000D03*
X96520000Y-111760000D03*
X93980000Y-111760000D03*
X96520000Y-109220000D03*
X93980000Y-109220000D03*
X96520000Y-106680000D03*
X93980000Y-106680000D03*
X96520000Y-104140000D03*
X93980000Y-104140000D03*
X96520000Y-101600000D03*
X93980000Y-101600000D03*
X96520000Y-99060000D03*
X93980000Y-99060000D03*
X96520000Y-96520000D03*
X93980000Y-96520000D03*
X96520000Y-93980000D03*
X93980000Y-93980000D03*
X96520000Y-91440000D03*
X93980000Y-91440000D03*
X96520000Y-88900000D03*
X93980000Y-88900000D03*
X96520000Y-86360000D03*
X93980000Y-86360000D03*
X96520000Y-83820000D03*
X93980000Y-83820000D03*
X96520000Y-81280000D03*
X93980000Y-81280000D03*
X96520000Y-78740000D03*
D10*
X93980000Y-78740000D03*
X120650000Y-63500000D03*
D11*
X123190000Y-63500000D03*
X120650000Y-66040000D03*
X123190000Y-66040000D03*
X120650000Y-68580000D03*
X123190000Y-68580000D03*
X120650000Y-71120000D03*
X123190000Y-71120000D03*
X120650000Y-73660000D03*
X123190000Y-73660000D03*
D10*
X120650000Y-78740000D03*
D11*
X123190000Y-78740000D03*
X120650000Y-81280000D03*
X123190000Y-81280000D03*
X120650000Y-83820000D03*
X123190000Y-83820000D03*
X120650000Y-86360000D03*
X123190000Y-86360000D03*
X120650000Y-88900000D03*
X123190000Y-88900000D03*
X120650000Y-91440000D03*
X123190000Y-91440000D03*
X120650000Y-93980000D03*
X123190000Y-93980000D03*
X120650000Y-96520000D03*
X123190000Y-96520000D03*
X120650000Y-99060000D03*
X123190000Y-99060000D03*
X120650000Y-101600000D03*
X123190000Y-101600000D03*
X120650000Y-104140000D03*
X123190000Y-104140000D03*
X120650000Y-106680000D03*
X123190000Y-106680000D03*
X120650000Y-109220000D03*
X123190000Y-109220000D03*
X120650000Y-111760000D03*
X123190000Y-111760000D03*
X120650000Y-114300000D03*
X123190000Y-114300000D03*
X120650000Y-116840000D03*
X123190000Y-116840000D03*
X120650000Y-119380000D03*
X123190000Y-119380000D03*
X120650000Y-121920000D03*
X123190000Y-121920000D03*
X120650000Y-124460000D03*
X123190000Y-124460000D03*
X120650000Y-127000000D03*
X123190000Y-127000000D03*
X149860000Y-73660000D03*
X147320000Y-73660000D03*
X149860000Y-71120000D03*
X147320000Y-71120000D03*
X149860000Y-68580000D03*
X147320000Y-68580000D03*
X149860000Y-66040000D03*
X147320000Y-66040000D03*
X149860000Y-63500000D03*
D10*
X147320000Y-63500000D03*
D11*
X149860000Y-127000000D03*
X147320000Y-127000000D03*
X149860000Y-124460000D03*
X147320000Y-124460000D03*
X149860000Y-121920000D03*
X147320000Y-121920000D03*
X149860000Y-119380000D03*
X147320000Y-119380000D03*
X149860000Y-116840000D03*
X147320000Y-116840000D03*
X149860000Y-114300000D03*
X147320000Y-114300000D03*
X149860000Y-111760000D03*
X147320000Y-111760000D03*
X149860000Y-109220000D03*
X147320000Y-109220000D03*
X149860000Y-106680000D03*
X147320000Y-106680000D03*
X149860000Y-104140000D03*
X147320000Y-104140000D03*
X149860000Y-101600000D03*
X147320000Y-101600000D03*
X149860000Y-99060000D03*
X147320000Y-99060000D03*
X149860000Y-96520000D03*
X147320000Y-96520000D03*
X149860000Y-93980000D03*
X147320000Y-93980000D03*
X149860000Y-91440000D03*
X147320000Y-91440000D03*
X149860000Y-88900000D03*
X147320000Y-88900000D03*
X149860000Y-86360000D03*
X147320000Y-86360000D03*
X149860000Y-83820000D03*
X147320000Y-83820000D03*
X149860000Y-81280000D03*
X147320000Y-81280000D03*
X149860000Y-78740000D03*
D10*
X147320000Y-78740000D03*
X153670000Y-63500000D03*
D11*
X156210000Y-63500000D03*
X153670000Y-66040000D03*
X156210000Y-66040000D03*
X153670000Y-68580000D03*
X156210000Y-68580000D03*
X153670000Y-71120000D03*
X156210000Y-71120000D03*
X153670000Y-73660000D03*
X156210000Y-73660000D03*
D10*
X153670000Y-78740000D03*
D11*
X156210000Y-78740000D03*
X153670000Y-81280000D03*
X156210000Y-81280000D03*
X153670000Y-83820000D03*
X156210000Y-83820000D03*
X153670000Y-86360000D03*
X156210000Y-86360000D03*
X153670000Y-88900000D03*
X156210000Y-88900000D03*
X153670000Y-91440000D03*
X156210000Y-91440000D03*
X153670000Y-93980000D03*
X156210000Y-93980000D03*
X153670000Y-96520000D03*
X156210000Y-96520000D03*
X153670000Y-99060000D03*
X156210000Y-99060000D03*
X153670000Y-101600000D03*
X156210000Y-101600000D03*
X153670000Y-104140000D03*
X156210000Y-104140000D03*
X153670000Y-106680000D03*
X156210000Y-106680000D03*
X153670000Y-109220000D03*
X156210000Y-109220000D03*
X153670000Y-111760000D03*
X156210000Y-111760000D03*
X153670000Y-114300000D03*
X156210000Y-114300000D03*
X153670000Y-116840000D03*
X156210000Y-116840000D03*
X153670000Y-119380000D03*
X156210000Y-119380000D03*
X153670000Y-121920000D03*
X156210000Y-121920000D03*
X153670000Y-124460000D03*
X156210000Y-124460000D03*
X153670000Y-127000000D03*
X156210000Y-127000000D03*
D12*
X121920000Y-50165000D03*
X88900000Y-50165000D03*
X154940000Y-50165000D03*
X154940000Y-140335000D03*
X121920000Y-140335000D03*
X88900000Y-140335000D03*
D13*
X92880000Y-78740000D02*
X93980000Y-78740000D01*
X91704999Y-79915001D02*
X92880000Y-78740000D01*
X87705001Y-79915001D02*
X91704999Y-79915001D01*
X87630000Y-79840000D02*
X87705001Y-79915001D01*
X87630000Y-78740000D02*
X87630000Y-79840000D01*
X119550000Y-78740000D02*
X120650000Y-78740000D01*
X118374999Y-79915001D02*
X119550000Y-78740000D01*
X95955999Y-79915001D02*
X118374999Y-79915001D01*
X94780998Y-78740000D02*
X95955999Y-79915001D01*
X93980000Y-78740000D02*
X94780998Y-78740000D01*
X146220000Y-78740000D02*
X147320000Y-78740000D01*
X145044999Y-79915001D02*
X146220000Y-78740000D01*
X122625999Y-79915001D02*
X145044999Y-79915001D01*
X121450998Y-78740000D02*
X122625999Y-79915001D01*
X120650000Y-78740000D02*
X121450998Y-78740000D01*
X155360001Y-79589999D02*
X156210000Y-78740000D01*
X155034999Y-79915001D02*
X155360001Y-79589999D01*
X149295999Y-79915001D02*
X155034999Y-79915001D01*
X148120998Y-78740000D02*
X149295999Y-79915001D01*
X147320000Y-78740000D02*
X148120998Y-78740000D01*
X93130001Y-82129999D02*
X93980000Y-81280000D01*
X92804999Y-82455001D02*
X93130001Y-82129999D01*
X88805001Y-82455001D02*
X92804999Y-82455001D01*
X87630000Y-81280000D02*
X88805001Y-82455001D01*
X119800001Y-82129999D02*
X120650000Y-81280000D01*
X119474999Y-82455001D02*
X119800001Y-82129999D01*
X95155001Y-82455001D02*
X119474999Y-82455001D01*
X93980000Y-81280000D02*
X95155001Y-82455001D01*
X146470001Y-82129999D02*
X147320000Y-81280000D01*
X146144999Y-82455001D02*
X146470001Y-82129999D01*
X121825001Y-82455001D02*
X146144999Y-82455001D01*
X120650000Y-81280000D02*
X121825001Y-82455001D01*
X155360001Y-82129999D02*
X156210000Y-81280000D01*
X155034999Y-82455001D02*
X155360001Y-82129999D01*
X148495001Y-82455001D02*
X155034999Y-82455001D01*
X147320000Y-81280000D02*
X148495001Y-82455001D01*
X148169999Y-84669999D02*
X147320000Y-83820000D01*
X148684999Y-85184999D02*
X148169999Y-84669999D01*
X154845001Y-85184999D02*
X148684999Y-85184999D01*
X156210000Y-83820000D02*
X154845001Y-85184999D01*
X93130001Y-84669999D02*
X93980000Y-83820000D01*
X92804999Y-84995001D02*
X93130001Y-84669999D01*
X88805001Y-84995001D02*
X92804999Y-84995001D01*
X87630000Y-83820000D02*
X88805001Y-84995001D01*
X119800001Y-84669999D02*
X120650000Y-83820000D01*
X119474999Y-84995001D02*
X119800001Y-84669999D01*
X95155001Y-84995001D02*
X119474999Y-84995001D01*
X93980000Y-83820000D02*
X95155001Y-84995001D01*
X146470001Y-84669999D02*
X147320000Y-83820000D01*
X146144999Y-84995001D02*
X146470001Y-84669999D01*
X121825001Y-84995001D02*
X146144999Y-84995001D01*
X120650000Y-83820000D02*
X121825001Y-84995001D01*
X93130001Y-87209999D02*
X93980000Y-86360000D01*
X92804999Y-87535001D02*
X93130001Y-87209999D01*
X88805001Y-87535001D02*
X92804999Y-87535001D01*
X87630000Y-86360000D02*
X88805001Y-87535001D01*
X119800001Y-87209999D02*
X120650000Y-86360000D01*
X119474999Y-87535001D02*
X119800001Y-87209999D01*
X95155001Y-87535001D02*
X119474999Y-87535001D01*
X93980000Y-86360000D02*
X95155001Y-87535001D01*
X146470001Y-87209999D02*
X147320000Y-86360000D01*
X146144999Y-87535001D02*
X146470001Y-87209999D01*
X121825001Y-87535001D02*
X146144999Y-87535001D01*
X120650000Y-86360000D02*
X121825001Y-87535001D01*
X155360001Y-87209999D02*
X156210000Y-86360000D01*
X155034999Y-87535001D02*
X155360001Y-87209999D01*
X148495001Y-87535001D02*
X155034999Y-87535001D01*
X147320000Y-86360000D02*
X148495001Y-87535001D01*
X93130001Y-89749999D02*
X93980000Y-88900000D01*
X92804999Y-90075001D02*
X93130001Y-89749999D01*
X88805001Y-90075001D02*
X92804999Y-90075001D01*
X87630000Y-88900000D02*
X88805001Y-90075001D01*
X119800001Y-89749999D02*
X120650000Y-88900000D01*
X119474999Y-90075001D02*
X119800001Y-89749999D01*
X95155001Y-90075001D02*
X119474999Y-90075001D01*
X93980000Y-88900000D02*
X95155001Y-90075001D01*
X155360001Y-89749999D02*
X156210000Y-88900000D01*
X155034999Y-90075001D02*
X155360001Y-89749999D01*
X148495001Y-90075001D02*
X155034999Y-90075001D01*
X147320000Y-88900000D02*
X148495001Y-90075001D01*
X146470001Y-89749999D02*
X147320000Y-88900000D01*
X146144999Y-90075001D02*
X146470001Y-89749999D01*
X121825001Y-90075001D02*
X146144999Y-90075001D01*
X120650000Y-88900000D02*
X121825001Y-90075001D01*
X93130001Y-92289999D02*
X93980000Y-91440000D01*
X92804999Y-92615001D02*
X93130001Y-92289999D01*
X88805001Y-92615001D02*
X92804999Y-92615001D01*
X87630000Y-91440000D02*
X88805001Y-92615001D01*
X119800001Y-92289999D02*
X120650000Y-91440000D01*
X119474999Y-92615001D02*
X119800001Y-92289999D01*
X95155001Y-92615001D02*
X119474999Y-92615001D01*
X93980000Y-91440000D02*
X95155001Y-92615001D01*
X146470001Y-92289999D02*
X147320000Y-91440000D01*
X146144999Y-92615001D02*
X146470001Y-92289999D01*
X121825001Y-92615001D02*
X146144999Y-92615001D01*
X120650000Y-91440000D02*
X121825001Y-92615001D01*
X155360001Y-92289999D02*
X156210000Y-91440000D01*
X155034999Y-92615001D02*
X155360001Y-92289999D01*
X148495001Y-92615001D02*
X155034999Y-92615001D01*
X147320000Y-91440000D02*
X148495001Y-92615001D01*
X93130001Y-94829999D02*
X93980000Y-93980000D01*
X92804999Y-95155001D02*
X93130001Y-94829999D01*
X88805001Y-95155001D02*
X92804999Y-95155001D01*
X87630000Y-93980000D02*
X88805001Y-95155001D01*
X119800001Y-94829999D02*
X120650000Y-93980000D01*
X119474999Y-95155001D02*
X119800001Y-94829999D01*
X95155001Y-95155001D02*
X119474999Y-95155001D01*
X93980000Y-93980000D02*
X95155001Y-95155001D01*
X146470001Y-94829999D02*
X147320000Y-93980000D01*
X145955001Y-95344999D02*
X146470001Y-94829999D01*
X122014999Y-95344999D02*
X145955001Y-95344999D01*
X120650000Y-93980000D02*
X122014999Y-95344999D01*
X155360001Y-94829999D02*
X156210000Y-93980000D01*
X155034999Y-95155001D02*
X155360001Y-94829999D01*
X148495001Y-95155001D02*
X155034999Y-95155001D01*
X147320000Y-93980000D02*
X148495001Y-95155001D01*
X93130001Y-97369999D02*
X93980000Y-96520000D01*
X92804999Y-97695001D02*
X93130001Y-97369999D01*
X88805001Y-97695001D02*
X92804999Y-97695001D01*
X87630000Y-96520000D02*
X88805001Y-97695001D01*
X119800001Y-97369999D02*
X120650000Y-96520000D01*
X119474999Y-97695001D02*
X119800001Y-97369999D01*
X95155001Y-97695001D02*
X119474999Y-97695001D01*
X93980000Y-96520000D02*
X95155001Y-97695001D01*
X146470001Y-97369999D02*
X147320000Y-96520000D01*
X146144999Y-97695001D02*
X146470001Y-97369999D01*
X121825001Y-97695001D02*
X146144999Y-97695001D01*
X120650000Y-96520000D02*
X121825001Y-97695001D01*
X155360001Y-97369999D02*
X156210000Y-96520000D01*
X155034999Y-97695001D02*
X155360001Y-97369999D01*
X148495001Y-97695001D02*
X155034999Y-97695001D01*
X147320000Y-96520000D02*
X148495001Y-97695001D01*
X93130001Y-99909999D02*
X93980000Y-99060000D01*
X92804999Y-100235001D02*
X93130001Y-99909999D01*
X88805001Y-100235001D02*
X92804999Y-100235001D01*
X87630000Y-99060000D02*
X88805001Y-100235001D01*
X119800001Y-99909999D02*
X120650000Y-99060000D01*
X119474999Y-100235001D02*
X119800001Y-99909999D01*
X95155001Y-100235001D02*
X119474999Y-100235001D01*
X93980000Y-99060000D02*
X95155001Y-100235001D01*
X146470001Y-99909999D02*
X147320000Y-99060000D01*
X146144999Y-100235001D02*
X146470001Y-99909999D01*
X121825001Y-100235001D02*
X146144999Y-100235001D01*
X120650000Y-99060000D02*
X121825001Y-100235001D01*
X155360001Y-99909999D02*
X156210000Y-99060000D01*
X155034999Y-100235001D02*
X155360001Y-99909999D01*
X148495001Y-100235001D02*
X155034999Y-100235001D01*
X147320000Y-99060000D02*
X148495001Y-100235001D01*
X93130001Y-102449999D02*
X93980000Y-101600000D01*
X92804999Y-102775001D02*
X93130001Y-102449999D01*
X88805001Y-102775001D02*
X92804999Y-102775001D01*
X87630000Y-101600000D02*
X88805001Y-102775001D01*
X119800001Y-102449999D02*
X120650000Y-101600000D01*
X119474999Y-102775001D02*
X119800001Y-102449999D01*
X95155001Y-102775001D02*
X119474999Y-102775001D01*
X93980000Y-101600000D02*
X95155001Y-102775001D01*
X146470001Y-102449999D02*
X147320000Y-101600000D01*
X146144999Y-102775001D02*
X146470001Y-102449999D01*
X121825001Y-102775001D02*
X146144999Y-102775001D01*
X120650000Y-101600000D02*
X121825001Y-102775001D01*
X155360001Y-102449999D02*
X156210000Y-101600000D01*
X155034999Y-102775001D02*
X155360001Y-102449999D01*
X148495001Y-102775001D02*
X155034999Y-102775001D01*
X147320000Y-101600000D02*
X148495001Y-102775001D01*
X93130001Y-104989999D02*
X93980000Y-104140000D01*
X92804999Y-105315001D02*
X93130001Y-104989999D01*
X88805001Y-105315001D02*
X92804999Y-105315001D01*
X87630000Y-104140000D02*
X88805001Y-105315001D01*
X119800001Y-104989999D02*
X120650000Y-104140000D01*
X119474999Y-105315001D02*
X119800001Y-104989999D01*
X95155001Y-105315001D02*
X119474999Y-105315001D01*
X93980000Y-104140000D02*
X95155001Y-105315001D01*
X146470001Y-104989999D02*
X147320000Y-104140000D01*
X145955001Y-105504999D02*
X146470001Y-104989999D01*
X122014999Y-105504999D02*
X145955001Y-105504999D01*
X120650000Y-104140000D02*
X122014999Y-105504999D01*
X155360001Y-104989999D02*
X156210000Y-104140000D01*
X155034999Y-105315001D02*
X155360001Y-104989999D01*
X148495001Y-105315001D02*
X155034999Y-105315001D01*
X147320000Y-104140000D02*
X148495001Y-105315001D01*
X93130001Y-107529999D02*
X93980000Y-106680000D01*
X92804999Y-107855001D02*
X93130001Y-107529999D01*
X88805001Y-107855001D02*
X92804999Y-107855001D01*
X87630000Y-106680000D02*
X88805001Y-107855001D01*
X119800001Y-107529999D02*
X120650000Y-106680000D01*
X119474999Y-107855001D02*
X119800001Y-107529999D01*
X95155001Y-107855001D02*
X119474999Y-107855001D01*
X93980000Y-106680000D02*
X95155001Y-107855001D01*
X146470001Y-107529999D02*
X147320000Y-106680000D01*
X146144999Y-107855001D02*
X146470001Y-107529999D01*
X121825001Y-107855001D02*
X146144999Y-107855001D01*
X120650000Y-106680000D02*
X121825001Y-107855001D01*
X155360001Y-107529999D02*
X156210000Y-106680000D01*
X155034999Y-107855001D02*
X155360001Y-107529999D01*
X148495001Y-107855001D02*
X155034999Y-107855001D01*
X147320000Y-106680000D02*
X148495001Y-107855001D01*
X93130001Y-110069999D02*
X93980000Y-109220000D01*
X92804999Y-110395001D02*
X93130001Y-110069999D01*
X88805001Y-110395001D02*
X92804999Y-110395001D01*
X87630000Y-109220000D02*
X88805001Y-110395001D01*
X119800001Y-110069999D02*
X120650000Y-109220000D01*
X119474999Y-110395001D02*
X119800001Y-110069999D01*
X95155001Y-110395001D02*
X119474999Y-110395001D01*
X93980000Y-109220000D02*
X95155001Y-110395001D01*
X146470001Y-110069999D02*
X147320000Y-109220000D01*
X146144999Y-110395001D02*
X146470001Y-110069999D01*
X121825001Y-110395001D02*
X146144999Y-110395001D01*
X120650000Y-109220000D02*
X121825001Y-110395001D01*
X155360001Y-110069999D02*
X156210000Y-109220000D01*
X155034999Y-110395001D02*
X155360001Y-110069999D01*
X148495001Y-110395001D02*
X155034999Y-110395001D01*
X147320000Y-109220000D02*
X148495001Y-110395001D01*
X93130001Y-112609999D02*
X93980000Y-111760000D01*
X92804999Y-112935001D02*
X93130001Y-112609999D01*
X88805001Y-112935001D02*
X92804999Y-112935001D01*
X87630000Y-111760000D02*
X88805001Y-112935001D01*
X119800001Y-112609999D02*
X120650000Y-111760000D01*
X119474999Y-112935001D02*
X119800001Y-112609999D01*
X95155001Y-112935001D02*
X119474999Y-112935001D01*
X93980000Y-111760000D02*
X95155001Y-112935001D01*
X146470001Y-112609999D02*
X147320000Y-111760000D01*
X146144999Y-112935001D02*
X146470001Y-112609999D01*
X121825001Y-112935001D02*
X146144999Y-112935001D01*
X120650000Y-111760000D02*
X121825001Y-112935001D01*
X155360001Y-112609999D02*
X156210000Y-111760000D01*
X155034999Y-112935001D02*
X155360001Y-112609999D01*
X148495001Y-112935001D02*
X155034999Y-112935001D01*
X147320000Y-111760000D02*
X148495001Y-112935001D01*
X93130001Y-115149999D02*
X93980000Y-114300000D01*
X92804999Y-115475001D02*
X93130001Y-115149999D01*
X88805001Y-115475001D02*
X92804999Y-115475001D01*
X87630000Y-114300000D02*
X88805001Y-115475001D01*
X119800001Y-115149999D02*
X120650000Y-114300000D01*
X119474999Y-115475001D02*
X119800001Y-115149999D01*
X95155001Y-115475001D02*
X119474999Y-115475001D01*
X93980000Y-114300000D02*
X95155001Y-115475001D01*
X146470001Y-115149999D02*
X147320000Y-114300000D01*
X146050000Y-115570000D02*
X146470001Y-115149999D01*
X121920000Y-115570000D02*
X146050000Y-115570000D01*
X120650000Y-114300000D02*
X121920000Y-115570000D01*
X155360001Y-115149999D02*
X156210000Y-114300000D01*
X155034999Y-115475001D02*
X155360001Y-115149999D01*
X148495001Y-115475001D02*
X155034999Y-115475001D01*
X147320000Y-114300000D02*
X148495001Y-115475001D01*
X93130001Y-117689999D02*
X93980000Y-116840000D01*
X92804999Y-118015001D02*
X93130001Y-117689999D01*
X88805001Y-118015001D02*
X92804999Y-118015001D01*
X87630000Y-116840000D02*
X88805001Y-118015001D01*
X119800001Y-117689999D02*
X120650000Y-116840000D01*
X119474999Y-118015001D02*
X119800001Y-117689999D01*
X95155001Y-118015001D02*
X119474999Y-118015001D01*
X93980000Y-116840000D02*
X95155001Y-118015001D01*
X146470001Y-117689999D02*
X147320000Y-116840000D01*
X146144999Y-118015001D02*
X146470001Y-117689999D01*
X121825001Y-118015001D02*
X146144999Y-118015001D01*
X120650000Y-116840000D02*
X121825001Y-118015001D01*
X155360001Y-117689999D02*
X156210000Y-116840000D01*
X155034999Y-118015001D02*
X155360001Y-117689999D01*
X148495001Y-118015001D02*
X155034999Y-118015001D01*
X147320000Y-116840000D02*
X148495001Y-118015001D01*
X93130001Y-120229999D02*
X93980000Y-119380000D01*
X92804999Y-120555001D02*
X93130001Y-120229999D01*
X88805001Y-120555001D02*
X92804999Y-120555001D01*
X87630000Y-119380000D02*
X88805001Y-120555001D01*
X119800001Y-120229999D02*
X120650000Y-119380000D01*
X119474999Y-120555001D02*
X119800001Y-120229999D01*
X95155001Y-120555001D02*
X119474999Y-120555001D01*
X93980000Y-119380000D02*
X95155001Y-120555001D01*
X146470001Y-120229999D02*
X147320000Y-119380000D01*
X146144999Y-120555001D02*
X146470001Y-120229999D01*
X121825001Y-120555001D02*
X146144999Y-120555001D01*
X120650000Y-119380000D02*
X121825001Y-120555001D01*
X155360001Y-120229999D02*
X156210000Y-119380000D01*
X155034999Y-120555001D02*
X155360001Y-120229999D01*
X148495001Y-120555001D02*
X155034999Y-120555001D01*
X147320000Y-119380000D02*
X148495001Y-120555001D01*
X93130001Y-122769999D02*
X93980000Y-121920000D01*
X92804999Y-123095001D02*
X93130001Y-122769999D01*
X88805001Y-123095001D02*
X92804999Y-123095001D01*
X87630000Y-121920000D02*
X88805001Y-123095001D01*
X119800001Y-122769999D02*
X120650000Y-121920000D01*
X119474999Y-123095001D02*
X119800001Y-122769999D01*
X95155001Y-123095001D02*
X119474999Y-123095001D01*
X93980000Y-121920000D02*
X95155001Y-123095001D01*
X146470001Y-122769999D02*
X147320000Y-121920000D01*
X146144999Y-123095001D02*
X146470001Y-122769999D01*
X121825001Y-123095001D02*
X146144999Y-123095001D01*
X120650000Y-121920000D02*
X121825001Y-123095001D01*
X155034999Y-123095001D02*
X156210000Y-121920000D01*
X147320000Y-121920000D02*
X148495001Y-123095001D01*
X148495001Y-123095001D02*
X155034999Y-123095001D01*
X93130001Y-125309999D02*
X93980000Y-124460000D01*
X92804999Y-125635001D02*
X93130001Y-125309999D01*
X88805001Y-125635001D02*
X92804999Y-125635001D01*
X87630000Y-124460000D02*
X88805001Y-125635001D01*
X119800001Y-125309999D02*
X120650000Y-124460000D01*
X119474999Y-125635001D02*
X119800001Y-125309999D01*
X95155001Y-125635001D02*
X119474999Y-125635001D01*
X93980000Y-124460000D02*
X95155001Y-125635001D01*
X146470001Y-125309999D02*
X147320000Y-124460000D01*
X146144999Y-125635001D02*
X146470001Y-125309999D01*
X121825001Y-125635001D02*
X146144999Y-125635001D01*
X120650000Y-124460000D02*
X121825001Y-125635001D01*
X155360001Y-125309999D02*
X156210000Y-124460000D01*
X155034999Y-125635001D02*
X155360001Y-125309999D01*
X148495001Y-125635001D02*
X155034999Y-125635001D01*
X147320000Y-124460000D02*
X148495001Y-125635001D01*
X93130001Y-127849999D02*
X93980000Y-127000000D01*
X92804999Y-128175001D02*
X93130001Y-127849999D01*
X88805001Y-128175001D02*
X92804999Y-128175001D01*
X87630000Y-127000000D02*
X88805001Y-128175001D01*
X119800001Y-127849999D02*
X120650000Y-127000000D01*
X119474999Y-128175001D02*
X119800001Y-127849999D01*
X95155001Y-128175001D02*
X119474999Y-128175001D01*
X93980000Y-127000000D02*
X95155001Y-128175001D01*
X146470001Y-127849999D02*
X147320000Y-127000000D01*
X146144999Y-128175001D02*
X146470001Y-127849999D01*
X121825001Y-128175001D02*
X146144999Y-128175001D01*
X120650000Y-127000000D02*
X121825001Y-128175001D01*
X155360001Y-127849999D02*
X156210000Y-127000000D01*
X155034999Y-128175001D02*
X155360001Y-127849999D01*
X148495001Y-128175001D02*
X155034999Y-128175001D01*
X147320000Y-127000000D02*
X148495001Y-128175001D01*
D14*
G36*
X159995000Y-144120000D02*
G01*
X83845000Y-144120000D01*
X83845000Y-140022290D01*
X85725000Y-140022290D01*
X85725000Y-140647710D01*
X85847014Y-141261113D01*
X86086352Y-141838926D01*
X86433817Y-142358944D01*
X86876056Y-142801183D01*
X87396074Y-143148648D01*
X87973887Y-143387986D01*
X88587290Y-143510000D01*
X89212710Y-143510000D01*
X89826113Y-143387986D01*
X90403926Y-143148648D01*
X90923944Y-142801183D01*
X91366183Y-142358944D01*
X91713648Y-141838926D01*
X91952986Y-141261113D01*
X92075000Y-140647710D01*
X92075000Y-140022290D01*
X118745000Y-140022290D01*
X118745000Y-140647710D01*
X118867014Y-141261113D01*
X119106352Y-141838926D01*
X119453817Y-142358944D01*
X119896056Y-142801183D01*
X120416074Y-143148648D01*
X120993887Y-143387986D01*
X121607290Y-143510000D01*
X122232710Y-143510000D01*
X122846113Y-143387986D01*
X123423926Y-143148648D01*
X123943944Y-142801183D01*
X124386183Y-142358944D01*
X124733648Y-141838926D01*
X124972986Y-141261113D01*
X125095000Y-140647710D01*
X125095000Y-140022290D01*
X151765000Y-140022290D01*
X151765000Y-140647710D01*
X151887014Y-141261113D01*
X152126352Y-141838926D01*
X152473817Y-142358944D01*
X152916056Y-142801183D01*
X153436074Y-143148648D01*
X154013887Y-143387986D01*
X154627290Y-143510000D01*
X155252710Y-143510000D01*
X155866113Y-143387986D01*
X156443926Y-143148648D01*
X156963944Y-142801183D01*
X157406183Y-142358944D01*
X157753648Y-141838926D01*
X157992986Y-141261113D01*
X158115000Y-140647710D01*
X158115000Y-140022290D01*
X157992986Y-139408887D01*
X157753648Y-138831074D01*
X157406183Y-138311056D01*
X156963944Y-137868817D01*
X156443926Y-137521352D01*
X155866113Y-137282014D01*
X155252710Y-137160000D01*
X154627290Y-137160000D01*
X154013887Y-137282014D01*
X153436074Y-137521352D01*
X152916056Y-137868817D01*
X152473817Y-138311056D01*
X152126352Y-138831074D01*
X151887014Y-139408887D01*
X151765000Y-140022290D01*
X125095000Y-140022290D01*
X124972986Y-139408887D01*
X124733648Y-138831074D01*
X124386183Y-138311056D01*
X123943944Y-137868817D01*
X123423926Y-137521352D01*
X122846113Y-137282014D01*
X122232710Y-137160000D01*
X121607290Y-137160000D01*
X120993887Y-137282014D01*
X120416074Y-137521352D01*
X119896056Y-137868817D01*
X119453817Y-138311056D01*
X119106352Y-138831074D01*
X118867014Y-139408887D01*
X118745000Y-140022290D01*
X92075000Y-140022290D01*
X91952986Y-139408887D01*
X91713648Y-138831074D01*
X91366183Y-138311056D01*
X90923944Y-137868817D01*
X90403926Y-137521352D01*
X89826113Y-137282014D01*
X89212710Y-137160000D01*
X88587290Y-137160000D01*
X87973887Y-137282014D01*
X87396074Y-137521352D01*
X86876056Y-137868817D01*
X86433817Y-138311056D01*
X86086352Y-138831074D01*
X85847014Y-139408887D01*
X85725000Y-140022290D01*
X83845000Y-140022290D01*
X83845000Y-81280000D01*
X86137815Y-81280000D01*
X86166487Y-81571111D01*
X86251401Y-81851034D01*
X86389294Y-82109014D01*
X86574866Y-82335134D01*
X86800986Y-82520706D01*
X86855791Y-82550000D01*
X86800986Y-82579294D01*
X86574866Y-82764866D01*
X86389294Y-82990986D01*
X86251401Y-83248966D01*
X86166487Y-83528889D01*
X86137815Y-83820000D01*
X86166487Y-84111111D01*
X86251401Y-84391034D01*
X86389294Y-84649014D01*
X86574866Y-84875134D01*
X86800986Y-85060706D01*
X86855791Y-85090000D01*
X86800986Y-85119294D01*
X86574866Y-85304866D01*
X86389294Y-85530986D01*
X86251401Y-85788966D01*
X86166487Y-86068889D01*
X86137815Y-86360000D01*
X86166487Y-86651111D01*
X86251401Y-86931034D01*
X86389294Y-87189014D01*
X86574866Y-87415134D01*
X86800986Y-87600706D01*
X86855791Y-87630000D01*
X86800986Y-87659294D01*
X86574866Y-87844866D01*
X86389294Y-88070986D01*
X86251401Y-88328966D01*
X86166487Y-88608889D01*
X86137815Y-88900000D01*
X86166487Y-89191111D01*
X86251401Y-89471034D01*
X86389294Y-89729014D01*
X86574866Y-89955134D01*
X86800986Y-90140706D01*
X86855791Y-90170000D01*
X86800986Y-90199294D01*
X86574866Y-90384866D01*
X86389294Y-90610986D01*
X86251401Y-90868966D01*
X86166487Y-91148889D01*
X86137815Y-91440000D01*
X86166487Y-91731111D01*
X86251401Y-92011034D01*
X86389294Y-92269014D01*
X86574866Y-92495134D01*
X86800986Y-92680706D01*
X86855791Y-92710000D01*
X86800986Y-92739294D01*
X86574866Y-92924866D01*
X86389294Y-93150986D01*
X86251401Y-93408966D01*
X86166487Y-93688889D01*
X86137815Y-93980000D01*
X86166487Y-94271111D01*
X86251401Y-94551034D01*
X86389294Y-94809014D01*
X86574866Y-95035134D01*
X86800986Y-95220706D01*
X86855791Y-95250000D01*
X86800986Y-95279294D01*
X86574866Y-95464866D01*
X86389294Y-95690986D01*
X86251401Y-95948966D01*
X86166487Y-96228889D01*
X86137815Y-96520000D01*
X86166487Y-96811111D01*
X86251401Y-97091034D01*
X86389294Y-97349014D01*
X86574866Y-97575134D01*
X86800986Y-97760706D01*
X86855791Y-97790000D01*
X86800986Y-97819294D01*
X86574866Y-98004866D01*
X86389294Y-98230986D01*
X86251401Y-98488966D01*
X86166487Y-98768889D01*
X86137815Y-99060000D01*
X86166487Y-99351111D01*
X86251401Y-99631034D01*
X86389294Y-99889014D01*
X86574866Y-100115134D01*
X86800986Y-100300706D01*
X86855791Y-100330000D01*
X86800986Y-100359294D01*
X86574866Y-100544866D01*
X86389294Y-100770986D01*
X86251401Y-101028966D01*
X86166487Y-101308889D01*
X86137815Y-101600000D01*
X86166487Y-101891111D01*
X86251401Y-102171034D01*
X86389294Y-102429014D01*
X86574866Y-102655134D01*
X86800986Y-102840706D01*
X86855791Y-102870000D01*
X86800986Y-102899294D01*
X86574866Y-103084866D01*
X86389294Y-103310986D01*
X86251401Y-103568966D01*
X86166487Y-103848889D01*
X86137815Y-104140000D01*
X86166487Y-104431111D01*
X86251401Y-104711034D01*
X86389294Y-104969014D01*
X86574866Y-105195134D01*
X86800986Y-105380706D01*
X86855791Y-105410000D01*
X86800986Y-105439294D01*
X86574866Y-105624866D01*
X86389294Y-105850986D01*
X86251401Y-106108966D01*
X86166487Y-106388889D01*
X86137815Y-106680000D01*
X86166487Y-106971111D01*
X86251401Y-107251034D01*
X86389294Y-107509014D01*
X86574866Y-107735134D01*
X86800986Y-107920706D01*
X86855791Y-107950000D01*
X86800986Y-107979294D01*
X86574866Y-108164866D01*
X86389294Y-108390986D01*
X86251401Y-108648966D01*
X86166487Y-108928889D01*
X86137815Y-109220000D01*
X86166487Y-109511111D01*
X86251401Y-109791034D01*
X86389294Y-110049014D01*
X86574866Y-110275134D01*
X86800986Y-110460706D01*
X86855791Y-110490000D01*
X86800986Y-110519294D01*
X86574866Y-110704866D01*
X86389294Y-110930986D01*
X86251401Y-111188966D01*
X86166487Y-111468889D01*
X86137815Y-111760000D01*
X86166487Y-112051111D01*
X86251401Y-112331034D01*
X86389294Y-112589014D01*
X86574866Y-112815134D01*
X86800986Y-113000706D01*
X86855791Y-113030000D01*
X86800986Y-113059294D01*
X86574866Y-113244866D01*
X86389294Y-113470986D01*
X86251401Y-113728966D01*
X86166487Y-114008889D01*
X86137815Y-114300000D01*
X86166487Y-114591111D01*
X86251401Y-114871034D01*
X86389294Y-115129014D01*
X86574866Y-115355134D01*
X86800986Y-115540706D01*
X86855791Y-115570000D01*
X86800986Y-115599294D01*
X86574866Y-115784866D01*
X86389294Y-116010986D01*
X86251401Y-116268966D01*
X86166487Y-116548889D01*
X86137815Y-116840000D01*
X86166487Y-117131111D01*
X86251401Y-117411034D01*
X86389294Y-117669014D01*
X86574866Y-117895134D01*
X86800986Y-118080706D01*
X86855791Y-118110000D01*
X86800986Y-118139294D01*
X86574866Y-118324866D01*
X86389294Y-118550986D01*
X86251401Y-118808966D01*
X86166487Y-119088889D01*
X86137815Y-119380000D01*
X86166487Y-119671111D01*
X86251401Y-119951034D01*
X86389294Y-120209014D01*
X86574866Y-120435134D01*
X86800986Y-120620706D01*
X86855791Y-120650000D01*
X86800986Y-120679294D01*
X86574866Y-120864866D01*
X86389294Y-121090986D01*
X86251401Y-121348966D01*
X86166487Y-121628889D01*
X86137815Y-121920000D01*
X86166487Y-122211111D01*
X86251401Y-122491034D01*
X86389294Y-122749014D01*
X86574866Y-122975134D01*
X86800986Y-123160706D01*
X86855791Y-123190000D01*
X86800986Y-123219294D01*
X86574866Y-123404866D01*
X86389294Y-123630986D01*
X86251401Y-123888966D01*
X86166487Y-124168889D01*
X86137815Y-124460000D01*
X86166487Y-124751111D01*
X86251401Y-125031034D01*
X86389294Y-125289014D01*
X86574866Y-125515134D01*
X86800986Y-125700706D01*
X86855791Y-125730000D01*
X86800986Y-125759294D01*
X86574866Y-125944866D01*
X86389294Y-126170986D01*
X86251401Y-126428966D01*
X86166487Y-126708889D01*
X86137815Y-127000000D01*
X86166487Y-127291111D01*
X86251401Y-127571034D01*
X86389294Y-127829014D01*
X86574866Y-128055134D01*
X86800986Y-128240706D01*
X87058966Y-128378599D01*
X87338889Y-128463513D01*
X87557050Y-128485000D01*
X87702950Y-128485000D01*
X87921111Y-128463513D01*
X87995995Y-128440797D01*
X88241202Y-128686004D01*
X88265000Y-128715002D01*
X88380725Y-128809975D01*
X88512754Y-128880547D01*
X88656015Y-128924004D01*
X88767668Y-128935001D01*
X88767677Y-128935001D01*
X88805000Y-128938677D01*
X88842323Y-128935001D01*
X92767677Y-128935001D01*
X92804999Y-128938677D01*
X92842321Y-128935001D01*
X92842332Y-128935001D01*
X92953985Y-128924004D01*
X93097246Y-128880547D01*
X93229275Y-128809975D01*
X93345000Y-128715002D01*
X93368803Y-128685998D01*
X93614004Y-128440797D01*
X93688889Y-128463513D01*
X93907050Y-128485000D01*
X94052950Y-128485000D01*
X94271111Y-128463513D01*
X94345995Y-128440797D01*
X94591202Y-128686004D01*
X94615000Y-128715002D01*
X94730725Y-128809975D01*
X94862754Y-128880547D01*
X95006015Y-128924004D01*
X95117668Y-128935001D01*
X95117677Y-128935001D01*
X95155000Y-128938677D01*
X95192323Y-128935001D01*
X119437677Y-128935001D01*
X119474999Y-128938677D01*
X119512321Y-128935001D01*
X119512332Y-128935001D01*
X119623985Y-128924004D01*
X119767246Y-128880547D01*
X119899275Y-128809975D01*
X120015000Y-128715002D01*
X120038803Y-128685998D01*
X120284004Y-128440797D01*
X120358889Y-128463513D01*
X120577050Y-128485000D01*
X120722950Y-128485000D01*
X120941111Y-128463513D01*
X121015995Y-128440797D01*
X121261202Y-128686004D01*
X121285000Y-128715002D01*
X121400725Y-128809975D01*
X121532754Y-128880547D01*
X121676015Y-128924004D01*
X121787668Y-128935001D01*
X121787677Y-128935001D01*
X121825000Y-128938677D01*
X121862323Y-128935001D01*
X146107677Y-128935001D01*
X146144999Y-128938677D01*
X146182321Y-128935001D01*
X146182332Y-128935001D01*
X146293985Y-128924004D01*
X146437246Y-128880547D01*
X146569275Y-128809975D01*
X146685000Y-128715002D01*
X146708803Y-128685998D01*
X146954004Y-128440797D01*
X147028889Y-128463513D01*
X147247050Y-128485000D01*
X147392950Y-128485000D01*
X147611111Y-128463513D01*
X147685995Y-128440797D01*
X147931202Y-128686004D01*
X147955000Y-128715002D01*
X148070725Y-128809975D01*
X148202754Y-128880547D01*
X148346015Y-128924004D01*
X148457668Y-128935001D01*
X148457677Y-128935001D01*
X148495000Y-128938677D01*
X148532323Y-128935001D01*
X154997677Y-128935001D01*
X155034999Y-128938677D01*
X155072321Y-128935001D01*
X155072332Y-128935001D01*
X155183985Y-128924004D01*
X155327246Y-128880547D01*
X155459275Y-128809975D01*
X155575000Y-128715002D01*
X155598803Y-128685998D01*
X155844004Y-128440797D01*
X155918889Y-128463513D01*
X156137050Y-128485000D01*
X156282950Y-128485000D01*
X156501111Y-128463513D01*
X156781034Y-128378599D01*
X157039014Y-128240706D01*
X157265134Y-128055134D01*
X157450706Y-127829014D01*
X157588599Y-127571034D01*
X157673513Y-127291111D01*
X157702185Y-127000000D01*
X157673513Y-126708889D01*
X157588599Y-126428966D01*
X157450706Y-126170986D01*
X157265134Y-125944866D01*
X157039014Y-125759294D01*
X156984209Y-125730000D01*
X157039014Y-125700706D01*
X157265134Y-125515134D01*
X157450706Y-125289014D01*
X157588599Y-125031034D01*
X157673513Y-124751111D01*
X157702185Y-124460000D01*
X157673513Y-124168889D01*
X157588599Y-123888966D01*
X157450706Y-123630986D01*
X157265134Y-123404866D01*
X157039014Y-123219294D01*
X156984209Y-123190000D01*
X157039014Y-123160706D01*
X157265134Y-122975134D01*
X157450706Y-122749014D01*
X157588599Y-122491034D01*
X157673513Y-122211111D01*
X157702185Y-121920000D01*
X157673513Y-121628889D01*
X157588599Y-121348966D01*
X157450706Y-121090986D01*
X157265134Y-120864866D01*
X157039014Y-120679294D01*
X156984209Y-120650000D01*
X157039014Y-120620706D01*
X157265134Y-120435134D01*
X157450706Y-120209014D01*
X157588599Y-119951034D01*
X157673513Y-119671111D01*
X157702185Y-119380000D01*
X157673513Y-119088889D01*
X157588599Y-118808966D01*
X157450706Y-118550986D01*
X157265134Y-118324866D01*
X157039014Y-118139294D01*
X156984209Y-118110000D01*
X157039014Y-118080706D01*
X157265134Y-117895134D01*
X157450706Y-117669014D01*
X157588599Y-117411034D01*
X157673513Y-117131111D01*
X157702185Y-116840000D01*
X157673513Y-116548889D01*
X157588599Y-116268966D01*
X157450706Y-116010986D01*
X157265134Y-115784866D01*
X157039014Y-115599294D01*
X156984209Y-115570000D01*
X157039014Y-115540706D01*
X157265134Y-115355134D01*
X157450706Y-115129014D01*
X157588599Y-114871034D01*
X157673513Y-114591111D01*
X157702185Y-114300000D01*
X157673513Y-114008889D01*
X157588599Y-113728966D01*
X157450706Y-113470986D01*
X157265134Y-113244866D01*
X157039014Y-113059294D01*
X156984209Y-113030000D01*
X157039014Y-113000706D01*
X157265134Y-112815134D01*
X157450706Y-112589014D01*
X157588599Y-112331034D01*
X157673513Y-112051111D01*
X157702185Y-111760000D01*
X157673513Y-111468889D01*
X157588599Y-111188966D01*
X157450706Y-110930986D01*
X157265134Y-110704866D01*
X157039014Y-110519294D01*
X156984209Y-110490000D01*
X157039014Y-110460706D01*
X157265134Y-110275134D01*
X157450706Y-110049014D01*
X157588599Y-109791034D01*
X157673513Y-109511111D01*
X157702185Y-109220000D01*
X157673513Y-108928889D01*
X157588599Y-108648966D01*
X157450706Y-108390986D01*
X157265134Y-108164866D01*
X157039014Y-107979294D01*
X156984209Y-107950000D01*
X157039014Y-107920706D01*
X157265134Y-107735134D01*
X157450706Y-107509014D01*
X157588599Y-107251034D01*
X157673513Y-106971111D01*
X157702185Y-106680000D01*
X157673513Y-106388889D01*
X157588599Y-106108966D01*
X157450706Y-105850986D01*
X157265134Y-105624866D01*
X157039014Y-105439294D01*
X156984209Y-105410000D01*
X157039014Y-105380706D01*
X157265134Y-105195134D01*
X157450706Y-104969014D01*
X157588599Y-104711034D01*
X157673513Y-104431111D01*
X157702185Y-104140000D01*
X157673513Y-103848889D01*
X157588599Y-103568966D01*
X157450706Y-103310986D01*
X157265134Y-103084866D01*
X157039014Y-102899294D01*
X156984209Y-102870000D01*
X157039014Y-102840706D01*
X157265134Y-102655134D01*
X157450706Y-102429014D01*
X157588599Y-102171034D01*
X157673513Y-101891111D01*
X157702185Y-101600000D01*
X157673513Y-101308889D01*
X157588599Y-101028966D01*
X157450706Y-100770986D01*
X157265134Y-100544866D01*
X157039014Y-100359294D01*
X156984209Y-100330000D01*
X157039014Y-100300706D01*
X157265134Y-100115134D01*
X157450706Y-99889014D01*
X157588599Y-99631034D01*
X157673513Y-99351111D01*
X157702185Y-99060000D01*
X157673513Y-98768889D01*
X157588599Y-98488966D01*
X157450706Y-98230986D01*
X157265134Y-98004866D01*
X157039014Y-97819294D01*
X156984209Y-97790000D01*
X157039014Y-97760706D01*
X157265134Y-97575134D01*
X157450706Y-97349014D01*
X157588599Y-97091034D01*
X157673513Y-96811111D01*
X157702185Y-96520000D01*
X157673513Y-96228889D01*
X157588599Y-95948966D01*
X157450706Y-95690986D01*
X157265134Y-95464866D01*
X157039014Y-95279294D01*
X156984209Y-95250000D01*
X157039014Y-95220706D01*
X157265134Y-95035134D01*
X157450706Y-94809014D01*
X157588599Y-94551034D01*
X157673513Y-94271111D01*
X157702185Y-93980000D01*
X157673513Y-93688889D01*
X157588599Y-93408966D01*
X157450706Y-93150986D01*
X157265134Y-92924866D01*
X157039014Y-92739294D01*
X156984209Y-92710000D01*
X157039014Y-92680706D01*
X157265134Y-92495134D01*
X157450706Y-92269014D01*
X157588599Y-92011034D01*
X157673513Y-91731111D01*
X157702185Y-91440000D01*
X157673513Y-91148889D01*
X157588599Y-90868966D01*
X157450706Y-90610986D01*
X157265134Y-90384866D01*
X157039014Y-90199294D01*
X156984209Y-90170000D01*
X157039014Y-90140706D01*
X157265134Y-89955134D01*
X157450706Y-89729014D01*
X157588599Y-89471034D01*
X157673513Y-89191111D01*
X157702185Y-88900000D01*
X157673513Y-88608889D01*
X157588599Y-88328966D01*
X157450706Y-88070986D01*
X157265134Y-87844866D01*
X157039014Y-87659294D01*
X156984209Y-87630000D01*
X157039014Y-87600706D01*
X157265134Y-87415134D01*
X157450706Y-87189014D01*
X157588599Y-86931034D01*
X157673513Y-86651111D01*
X157702185Y-86360000D01*
X157673513Y-86068889D01*
X157588599Y-85788966D01*
X157450706Y-85530986D01*
X157265134Y-85304866D01*
X157039014Y-85119294D01*
X156984209Y-85090000D01*
X157039014Y-85060706D01*
X157265134Y-84875134D01*
X157450706Y-84649014D01*
X157588599Y-84391034D01*
X157673513Y-84111111D01*
X157702185Y-83820000D01*
X157673513Y-83528889D01*
X157588599Y-83248966D01*
X157450706Y-82990986D01*
X157265134Y-82764866D01*
X157039014Y-82579294D01*
X156984209Y-82550000D01*
X157039014Y-82520706D01*
X157265134Y-82335134D01*
X157450706Y-82109014D01*
X157588599Y-81851034D01*
X157673513Y-81571111D01*
X157702185Y-81280000D01*
X157673513Y-80988889D01*
X157588599Y-80708966D01*
X157450706Y-80450986D01*
X157265134Y-80224866D01*
X157039014Y-80039294D01*
X156984209Y-80010000D01*
X157039014Y-79980706D01*
X157265134Y-79795134D01*
X157450706Y-79569014D01*
X157588599Y-79311034D01*
X157673513Y-79031111D01*
X157702185Y-78740000D01*
X157673513Y-78448889D01*
X157588599Y-78168966D01*
X157450706Y-77910986D01*
X157265134Y-77684866D01*
X157039014Y-77499294D01*
X156781034Y-77361401D01*
X156501111Y-77276487D01*
X156282950Y-77255000D01*
X156137050Y-77255000D01*
X155918889Y-77276487D01*
X155638966Y-77361401D01*
X155380986Y-77499294D01*
X155154866Y-77684866D01*
X155130393Y-77714687D01*
X155109502Y-77645820D01*
X155050537Y-77535506D01*
X154971185Y-77438815D01*
X154874494Y-77359463D01*
X154764180Y-77300498D01*
X154644482Y-77264188D01*
X154520000Y-77251928D01*
X152820000Y-77251928D01*
X152695518Y-77264188D01*
X152575820Y-77300498D01*
X152465506Y-77359463D01*
X152368815Y-77438815D01*
X152289463Y-77535506D01*
X152230498Y-77645820D01*
X152194188Y-77765518D01*
X152181928Y-77890000D01*
X152181928Y-79155001D01*
X151285931Y-79155001D01*
X151323513Y-79031111D01*
X151352185Y-78740000D01*
X151323513Y-78448889D01*
X151238599Y-78168966D01*
X151100706Y-77910986D01*
X150915134Y-77684866D01*
X150689014Y-77499294D01*
X150431034Y-77361401D01*
X150151111Y-77276487D01*
X149932950Y-77255000D01*
X149787050Y-77255000D01*
X149568889Y-77276487D01*
X149288966Y-77361401D01*
X149030986Y-77499294D01*
X148804866Y-77684866D01*
X148780393Y-77714687D01*
X148759502Y-77645820D01*
X148700537Y-77535506D01*
X148621185Y-77438815D01*
X148524494Y-77359463D01*
X148414180Y-77300498D01*
X148294482Y-77264188D01*
X148170000Y-77251928D01*
X146470000Y-77251928D01*
X146345518Y-77264188D01*
X146225820Y-77300498D01*
X146115506Y-77359463D01*
X146018815Y-77438815D01*
X145939463Y-77535506D01*
X145880498Y-77645820D01*
X145844188Y-77765518D01*
X145831928Y-77890000D01*
X145831928Y-78085674D01*
X145795724Y-78105026D01*
X145679999Y-78199999D01*
X145656201Y-78228997D01*
X144730198Y-79155001D01*
X124615931Y-79155001D01*
X124653513Y-79031111D01*
X124682185Y-78740000D01*
X124653513Y-78448889D01*
X124568599Y-78168966D01*
X124430706Y-77910986D01*
X124245134Y-77684866D01*
X124019014Y-77499294D01*
X123761034Y-77361401D01*
X123481111Y-77276487D01*
X123262950Y-77255000D01*
X123117050Y-77255000D01*
X122898889Y-77276487D01*
X122618966Y-77361401D01*
X122360986Y-77499294D01*
X122134866Y-77684866D01*
X122110393Y-77714687D01*
X122089502Y-77645820D01*
X122030537Y-77535506D01*
X121951185Y-77438815D01*
X121854494Y-77359463D01*
X121744180Y-77300498D01*
X121624482Y-77264188D01*
X121500000Y-77251928D01*
X119800000Y-77251928D01*
X119675518Y-77264188D01*
X119555820Y-77300498D01*
X119445506Y-77359463D01*
X119348815Y-77438815D01*
X119269463Y-77535506D01*
X119210498Y-77645820D01*
X119174188Y-77765518D01*
X119161928Y-77890000D01*
X119161928Y-78085674D01*
X119125724Y-78105026D01*
X119009999Y-78199999D01*
X118986201Y-78228997D01*
X118060198Y-79155001D01*
X97945931Y-79155001D01*
X97983513Y-79031111D01*
X98012185Y-78740000D01*
X97983513Y-78448889D01*
X97898599Y-78168966D01*
X97760706Y-77910986D01*
X97575134Y-77684866D01*
X97349014Y-77499294D01*
X97091034Y-77361401D01*
X96811111Y-77276487D01*
X96592950Y-77255000D01*
X96447050Y-77255000D01*
X96228889Y-77276487D01*
X95948966Y-77361401D01*
X95690986Y-77499294D01*
X95464866Y-77684866D01*
X95440393Y-77714687D01*
X95419502Y-77645820D01*
X95360537Y-77535506D01*
X95281185Y-77438815D01*
X95184494Y-77359463D01*
X95074180Y-77300498D01*
X94954482Y-77264188D01*
X94830000Y-77251928D01*
X93130000Y-77251928D01*
X93005518Y-77264188D01*
X92885820Y-77300498D01*
X92775506Y-77359463D01*
X92678815Y-77438815D01*
X92599463Y-77535506D01*
X92540498Y-77645820D01*
X92504188Y-77765518D01*
X92491928Y-77890000D01*
X92491928Y-78085674D01*
X92455724Y-78105026D01*
X92339999Y-78199999D01*
X92316201Y-78228997D01*
X91646560Y-78898638D01*
X91662185Y-78740000D01*
X91633513Y-78448889D01*
X91548599Y-78168966D01*
X91410706Y-77910986D01*
X91225134Y-77684866D01*
X90999014Y-77499294D01*
X90741034Y-77361401D01*
X90461111Y-77276487D01*
X90242950Y-77255000D01*
X90097050Y-77255000D01*
X89878889Y-77276487D01*
X89598966Y-77361401D01*
X89340986Y-77499294D01*
X89114866Y-77684866D01*
X89090393Y-77714687D01*
X89069502Y-77645820D01*
X89010537Y-77535506D01*
X88931185Y-77438815D01*
X88834494Y-77359463D01*
X88724180Y-77300498D01*
X88604482Y-77264188D01*
X88480000Y-77251928D01*
X86780000Y-77251928D01*
X86655518Y-77264188D01*
X86535820Y-77300498D01*
X86425506Y-77359463D01*
X86328815Y-77438815D01*
X86249463Y-77535506D01*
X86190498Y-77645820D01*
X86154188Y-77765518D01*
X86141928Y-77890000D01*
X86141928Y-79590000D01*
X86154188Y-79714482D01*
X86190498Y-79834180D01*
X86249463Y-79944494D01*
X86328815Y-80041185D01*
X86425506Y-80120537D01*
X86535820Y-80179502D01*
X86604687Y-80200393D01*
X86574866Y-80224866D01*
X86389294Y-80450986D01*
X86251401Y-80708966D01*
X86166487Y-80988889D01*
X86137815Y-81280000D01*
X83845000Y-81280000D01*
X83845000Y-74016890D01*
X86188524Y-74016890D01*
X86233175Y-74164099D01*
X86358359Y-74426920D01*
X86532412Y-74660269D01*
X86748645Y-74855178D01*
X86998748Y-75004157D01*
X87273109Y-75101481D01*
X87503000Y-74980814D01*
X87503000Y-73787000D01*
X87757000Y-73787000D01*
X87757000Y-74980814D01*
X87986891Y-75101481D01*
X88261252Y-75004157D01*
X88511355Y-74855178D01*
X88727588Y-74660269D01*
X88900000Y-74429120D01*
X89072412Y-74660269D01*
X89288645Y-74855178D01*
X89538748Y-75004157D01*
X89813109Y-75101481D01*
X90043000Y-74980814D01*
X90043000Y-73787000D01*
X90297000Y-73787000D01*
X90297000Y-74980814D01*
X90526891Y-75101481D01*
X90801252Y-75004157D01*
X91051355Y-74855178D01*
X91267588Y-74660269D01*
X91441641Y-74426920D01*
X91566825Y-74164099D01*
X91611476Y-74016890D01*
X92538524Y-74016890D01*
X92583175Y-74164099D01*
X92708359Y-74426920D01*
X92882412Y-74660269D01*
X93098645Y-74855178D01*
X93348748Y-75004157D01*
X93623109Y-75101481D01*
X93853000Y-74980814D01*
X93853000Y-73787000D01*
X94107000Y-73787000D01*
X94107000Y-74980814D01*
X94336891Y-75101481D01*
X94611252Y-75004157D01*
X94861355Y-74855178D01*
X95077588Y-74660269D01*
X95250000Y-74429120D01*
X95422412Y-74660269D01*
X95638645Y-74855178D01*
X95888748Y-75004157D01*
X96163109Y-75101481D01*
X96393000Y-74980814D01*
X96393000Y-73787000D01*
X96647000Y-73787000D01*
X96647000Y-74980814D01*
X96876891Y-75101481D01*
X97151252Y-75004157D01*
X97401355Y-74855178D01*
X97617588Y-74660269D01*
X97791641Y-74426920D01*
X97916825Y-74164099D01*
X97961476Y-74016890D01*
X119208524Y-74016890D01*
X119253175Y-74164099D01*
X119378359Y-74426920D01*
X119552412Y-74660269D01*
X119768645Y-74855178D01*
X120018748Y-75004157D01*
X120293109Y-75101481D01*
X120523000Y-74980814D01*
X120523000Y-73787000D01*
X120777000Y-73787000D01*
X120777000Y-74980814D01*
X121006891Y-75101481D01*
X121281252Y-75004157D01*
X121531355Y-74855178D01*
X121747588Y-74660269D01*
X121920000Y-74429120D01*
X122092412Y-74660269D01*
X122308645Y-74855178D01*
X122558748Y-75004157D01*
X122833109Y-75101481D01*
X123063000Y-74980814D01*
X123063000Y-73787000D01*
X123317000Y-73787000D01*
X123317000Y-74980814D01*
X123546891Y-75101481D01*
X123821252Y-75004157D01*
X124071355Y-74855178D01*
X124287588Y-74660269D01*
X124461641Y-74426920D01*
X124586825Y-74164099D01*
X124631476Y-74016890D01*
X145878524Y-74016890D01*
X145923175Y-74164099D01*
X146048359Y-74426920D01*
X146222412Y-74660269D01*
X146438645Y-74855178D01*
X146688748Y-75004157D01*
X146963109Y-75101481D01*
X147193000Y-74980814D01*
X147193000Y-73787000D01*
X147447000Y-73787000D01*
X147447000Y-74980814D01*
X147676891Y-75101481D01*
X147951252Y-75004157D01*
X148201355Y-74855178D01*
X148417588Y-74660269D01*
X148590000Y-74429120D01*
X148762412Y-74660269D01*
X148978645Y-74855178D01*
X149228748Y-75004157D01*
X149503109Y-75101481D01*
X149733000Y-74980814D01*
X149733000Y-73787000D01*
X149987000Y-73787000D01*
X149987000Y-74980814D01*
X150216891Y-75101481D01*
X150491252Y-75004157D01*
X150741355Y-74855178D01*
X150957588Y-74660269D01*
X151131641Y-74426920D01*
X151256825Y-74164099D01*
X151301476Y-74016890D01*
X152228524Y-74016890D01*
X152273175Y-74164099D01*
X152398359Y-74426920D01*
X152572412Y-74660269D01*
X152788645Y-74855178D01*
X153038748Y-75004157D01*
X153313109Y-75101481D01*
X153543000Y-74980814D01*
X153543000Y-73787000D01*
X153797000Y-73787000D01*
X153797000Y-74980814D01*
X154026891Y-75101481D01*
X154301252Y-75004157D01*
X154551355Y-74855178D01*
X154767588Y-74660269D01*
X154940000Y-74429120D01*
X155112412Y-74660269D01*
X155328645Y-74855178D01*
X155578748Y-75004157D01*
X155853109Y-75101481D01*
X156083000Y-74980814D01*
X156083000Y-73787000D01*
X156337000Y-73787000D01*
X156337000Y-74980814D01*
X156566891Y-75101481D01*
X156841252Y-75004157D01*
X157091355Y-74855178D01*
X157307588Y-74660269D01*
X157481641Y-74426920D01*
X157606825Y-74164099D01*
X157651476Y-74016890D01*
X157530155Y-73787000D01*
X156337000Y-73787000D01*
X156083000Y-73787000D01*
X153797000Y-73787000D01*
X153543000Y-73787000D01*
X152349845Y-73787000D01*
X152228524Y-74016890D01*
X151301476Y-74016890D01*
X151180155Y-73787000D01*
X149987000Y-73787000D01*
X149733000Y-73787000D01*
X147447000Y-73787000D01*
X147193000Y-73787000D01*
X145999845Y-73787000D01*
X145878524Y-74016890D01*
X124631476Y-74016890D01*
X124510155Y-73787000D01*
X123317000Y-73787000D01*
X123063000Y-73787000D01*
X120777000Y-73787000D01*
X120523000Y-73787000D01*
X119329845Y-73787000D01*
X119208524Y-74016890D01*
X97961476Y-74016890D01*
X97840155Y-73787000D01*
X96647000Y-73787000D01*
X96393000Y-73787000D01*
X94107000Y-73787000D01*
X93853000Y-73787000D01*
X92659845Y-73787000D01*
X92538524Y-74016890D01*
X91611476Y-74016890D01*
X91490155Y-73787000D01*
X90297000Y-73787000D01*
X90043000Y-73787000D01*
X87757000Y-73787000D01*
X87503000Y-73787000D01*
X86309845Y-73787000D01*
X86188524Y-74016890D01*
X83845000Y-74016890D01*
X83845000Y-66040000D01*
X86137815Y-66040000D01*
X86166487Y-66331111D01*
X86251401Y-66611034D01*
X86389294Y-66869014D01*
X86574866Y-67095134D01*
X86800986Y-67280706D01*
X86855791Y-67310000D01*
X86800986Y-67339294D01*
X86574866Y-67524866D01*
X86389294Y-67750986D01*
X86251401Y-68008966D01*
X86166487Y-68288889D01*
X86137815Y-68580000D01*
X86166487Y-68871111D01*
X86251401Y-69151034D01*
X86389294Y-69409014D01*
X86574866Y-69635134D01*
X86800986Y-69820706D01*
X86855791Y-69850000D01*
X86800986Y-69879294D01*
X86574866Y-70064866D01*
X86389294Y-70290986D01*
X86251401Y-70548966D01*
X86166487Y-70828889D01*
X86137815Y-71120000D01*
X86166487Y-71411111D01*
X86251401Y-71691034D01*
X86389294Y-71949014D01*
X86574866Y-72175134D01*
X86800986Y-72360706D01*
X86865523Y-72395201D01*
X86748645Y-72464822D01*
X86532412Y-72659731D01*
X86358359Y-72893080D01*
X86233175Y-73155901D01*
X86188524Y-73303110D01*
X86309845Y-73533000D01*
X87503000Y-73533000D01*
X87503000Y-73513000D01*
X87757000Y-73513000D01*
X87757000Y-73533000D01*
X90043000Y-73533000D01*
X90043000Y-73513000D01*
X90297000Y-73513000D01*
X90297000Y-73533000D01*
X91490155Y-73533000D01*
X91611476Y-73303110D01*
X91566825Y-73155901D01*
X91441641Y-72893080D01*
X91267588Y-72659731D01*
X91051355Y-72464822D01*
X90934477Y-72395201D01*
X90999014Y-72360706D01*
X91225134Y-72175134D01*
X91410706Y-71949014D01*
X91548599Y-71691034D01*
X91633513Y-71411111D01*
X91662185Y-71120000D01*
X91633513Y-70828889D01*
X91548599Y-70548966D01*
X91410706Y-70290986D01*
X91225134Y-70064866D01*
X90999014Y-69879294D01*
X90944209Y-69850000D01*
X90999014Y-69820706D01*
X91225134Y-69635134D01*
X91410706Y-69409014D01*
X91548599Y-69151034D01*
X91633513Y-68871111D01*
X91662185Y-68580000D01*
X91633513Y-68288889D01*
X91548599Y-68008966D01*
X91410706Y-67750986D01*
X91225134Y-67524866D01*
X90999014Y-67339294D01*
X90944209Y-67310000D01*
X90999014Y-67280706D01*
X91225134Y-67095134D01*
X91410706Y-66869014D01*
X91548599Y-66611034D01*
X91633513Y-66331111D01*
X91662185Y-66040000D01*
X92487815Y-66040000D01*
X92516487Y-66331111D01*
X92601401Y-66611034D01*
X92739294Y-66869014D01*
X92924866Y-67095134D01*
X93150986Y-67280706D01*
X93205791Y-67310000D01*
X93150986Y-67339294D01*
X92924866Y-67524866D01*
X92739294Y-67750986D01*
X92601401Y-68008966D01*
X92516487Y-68288889D01*
X92487815Y-68580000D01*
X92516487Y-68871111D01*
X92601401Y-69151034D01*
X92739294Y-69409014D01*
X92924866Y-69635134D01*
X93150986Y-69820706D01*
X93205791Y-69850000D01*
X93150986Y-69879294D01*
X92924866Y-70064866D01*
X92739294Y-70290986D01*
X92601401Y-70548966D01*
X92516487Y-70828889D01*
X92487815Y-71120000D01*
X92516487Y-71411111D01*
X92601401Y-71691034D01*
X92739294Y-71949014D01*
X92924866Y-72175134D01*
X93150986Y-72360706D01*
X93215523Y-72395201D01*
X93098645Y-72464822D01*
X92882412Y-72659731D01*
X92708359Y-72893080D01*
X92583175Y-73155901D01*
X92538524Y-73303110D01*
X92659845Y-73533000D01*
X93853000Y-73533000D01*
X93853000Y-73513000D01*
X94107000Y-73513000D01*
X94107000Y-73533000D01*
X96393000Y-73533000D01*
X96393000Y-73513000D01*
X96647000Y-73513000D01*
X96647000Y-73533000D01*
X97840155Y-73533000D01*
X97961476Y-73303110D01*
X97916825Y-73155901D01*
X97791641Y-72893080D01*
X97617588Y-72659731D01*
X97401355Y-72464822D01*
X97284477Y-72395201D01*
X97349014Y-72360706D01*
X97575134Y-72175134D01*
X97760706Y-71949014D01*
X97898599Y-71691034D01*
X97983513Y-71411111D01*
X98012185Y-71120000D01*
X97983513Y-70828889D01*
X97898599Y-70548966D01*
X97760706Y-70290986D01*
X97575134Y-70064866D01*
X97349014Y-69879294D01*
X97294209Y-69850000D01*
X97349014Y-69820706D01*
X97575134Y-69635134D01*
X97760706Y-69409014D01*
X97898599Y-69151034D01*
X97983513Y-68871111D01*
X98012185Y-68580000D01*
X97983513Y-68288889D01*
X97898599Y-68008966D01*
X97760706Y-67750986D01*
X97575134Y-67524866D01*
X97349014Y-67339294D01*
X97294209Y-67310000D01*
X97349014Y-67280706D01*
X97575134Y-67095134D01*
X97760706Y-66869014D01*
X97898599Y-66611034D01*
X97983513Y-66331111D01*
X98012185Y-66040000D01*
X119157815Y-66040000D01*
X119186487Y-66331111D01*
X119271401Y-66611034D01*
X119409294Y-66869014D01*
X119594866Y-67095134D01*
X119820986Y-67280706D01*
X119875791Y-67310000D01*
X119820986Y-67339294D01*
X119594866Y-67524866D01*
X119409294Y-67750986D01*
X119271401Y-68008966D01*
X119186487Y-68288889D01*
X119157815Y-68580000D01*
X119186487Y-68871111D01*
X119271401Y-69151034D01*
X119409294Y-69409014D01*
X119594866Y-69635134D01*
X119820986Y-69820706D01*
X119875791Y-69850000D01*
X119820986Y-69879294D01*
X119594866Y-70064866D01*
X119409294Y-70290986D01*
X119271401Y-70548966D01*
X119186487Y-70828889D01*
X119157815Y-71120000D01*
X119186487Y-71411111D01*
X119271401Y-71691034D01*
X119409294Y-71949014D01*
X119594866Y-72175134D01*
X119820986Y-72360706D01*
X119885523Y-72395201D01*
X119768645Y-72464822D01*
X119552412Y-72659731D01*
X119378359Y-72893080D01*
X119253175Y-73155901D01*
X119208524Y-73303110D01*
X119329845Y-73533000D01*
X120523000Y-73533000D01*
X120523000Y-73513000D01*
X120777000Y-73513000D01*
X120777000Y-73533000D01*
X123063000Y-73533000D01*
X123063000Y-73513000D01*
X123317000Y-73513000D01*
X123317000Y-73533000D01*
X124510155Y-73533000D01*
X124631476Y-73303110D01*
X124586825Y-73155901D01*
X124461641Y-72893080D01*
X124287588Y-72659731D01*
X124071355Y-72464822D01*
X123954477Y-72395201D01*
X124019014Y-72360706D01*
X124245134Y-72175134D01*
X124430706Y-71949014D01*
X124568599Y-71691034D01*
X124653513Y-71411111D01*
X124682185Y-71120000D01*
X124653513Y-70828889D01*
X124568599Y-70548966D01*
X124430706Y-70290986D01*
X124245134Y-70064866D01*
X124019014Y-69879294D01*
X123964209Y-69850000D01*
X124019014Y-69820706D01*
X124245134Y-69635134D01*
X124430706Y-69409014D01*
X124568599Y-69151034D01*
X124653513Y-68871111D01*
X124682185Y-68580000D01*
X124653513Y-68288889D01*
X124568599Y-68008966D01*
X124430706Y-67750986D01*
X124245134Y-67524866D01*
X124019014Y-67339294D01*
X123964209Y-67310000D01*
X124019014Y-67280706D01*
X124245134Y-67095134D01*
X124430706Y-66869014D01*
X124568599Y-66611034D01*
X124653513Y-66331111D01*
X124682185Y-66040000D01*
X145827815Y-66040000D01*
X145856487Y-66331111D01*
X145941401Y-66611034D01*
X146079294Y-66869014D01*
X146264866Y-67095134D01*
X146490986Y-67280706D01*
X146545791Y-67310000D01*
X146490986Y-67339294D01*
X146264866Y-67524866D01*
X146079294Y-67750986D01*
X145941401Y-68008966D01*
X145856487Y-68288889D01*
X145827815Y-68580000D01*
X145856487Y-68871111D01*
X145941401Y-69151034D01*
X146079294Y-69409014D01*
X146264866Y-69635134D01*
X146490986Y-69820706D01*
X146545791Y-69850000D01*
X146490986Y-69879294D01*
X146264866Y-70064866D01*
X146079294Y-70290986D01*
X145941401Y-70548966D01*
X145856487Y-70828889D01*
X145827815Y-71120000D01*
X145856487Y-71411111D01*
X145941401Y-71691034D01*
X146079294Y-71949014D01*
X146264866Y-72175134D01*
X146490986Y-72360706D01*
X146555523Y-72395201D01*
X146438645Y-72464822D01*
X146222412Y-72659731D01*
X146048359Y-72893080D01*
X145923175Y-73155901D01*
X145878524Y-73303110D01*
X145999845Y-73533000D01*
X147193000Y-73533000D01*
X147193000Y-73513000D01*
X147447000Y-73513000D01*
X147447000Y-73533000D01*
X149733000Y-73533000D01*
X149733000Y-73513000D01*
X149987000Y-73513000D01*
X149987000Y-73533000D01*
X151180155Y-73533000D01*
X151301476Y-73303110D01*
X151256825Y-73155901D01*
X151131641Y-72893080D01*
X150957588Y-72659731D01*
X150741355Y-72464822D01*
X150624477Y-72395201D01*
X150689014Y-72360706D01*
X150915134Y-72175134D01*
X151100706Y-71949014D01*
X151238599Y-71691034D01*
X151323513Y-71411111D01*
X151352185Y-71120000D01*
X151323513Y-70828889D01*
X151238599Y-70548966D01*
X151100706Y-70290986D01*
X150915134Y-70064866D01*
X150689014Y-69879294D01*
X150634209Y-69850000D01*
X150689014Y-69820706D01*
X150915134Y-69635134D01*
X151100706Y-69409014D01*
X151238599Y-69151034D01*
X151323513Y-68871111D01*
X151352185Y-68580000D01*
X151323513Y-68288889D01*
X151238599Y-68008966D01*
X151100706Y-67750986D01*
X150915134Y-67524866D01*
X150689014Y-67339294D01*
X150634209Y-67310000D01*
X150689014Y-67280706D01*
X150915134Y-67095134D01*
X151100706Y-66869014D01*
X151238599Y-66611034D01*
X151323513Y-66331111D01*
X151352185Y-66040000D01*
X152177815Y-66040000D01*
X152206487Y-66331111D01*
X152291401Y-66611034D01*
X152429294Y-66869014D01*
X152614866Y-67095134D01*
X152840986Y-67280706D01*
X152895791Y-67310000D01*
X152840986Y-67339294D01*
X152614866Y-67524866D01*
X152429294Y-67750986D01*
X152291401Y-68008966D01*
X152206487Y-68288889D01*
X152177815Y-68580000D01*
X152206487Y-68871111D01*
X152291401Y-69151034D01*
X152429294Y-69409014D01*
X152614866Y-69635134D01*
X152840986Y-69820706D01*
X152895791Y-69850000D01*
X152840986Y-69879294D01*
X152614866Y-70064866D01*
X152429294Y-70290986D01*
X152291401Y-70548966D01*
X152206487Y-70828889D01*
X152177815Y-71120000D01*
X152206487Y-71411111D01*
X152291401Y-71691034D01*
X152429294Y-71949014D01*
X152614866Y-72175134D01*
X152840986Y-72360706D01*
X152905523Y-72395201D01*
X152788645Y-72464822D01*
X152572412Y-72659731D01*
X152398359Y-72893080D01*
X152273175Y-73155901D01*
X152228524Y-73303110D01*
X152349845Y-73533000D01*
X153543000Y-73533000D01*
X153543000Y-73513000D01*
X153797000Y-73513000D01*
X153797000Y-73533000D01*
X156083000Y-73533000D01*
X156083000Y-73513000D01*
X156337000Y-73513000D01*
X156337000Y-73533000D01*
X157530155Y-73533000D01*
X157651476Y-73303110D01*
X157606825Y-73155901D01*
X157481641Y-72893080D01*
X157307588Y-72659731D01*
X157091355Y-72464822D01*
X156974477Y-72395201D01*
X157039014Y-72360706D01*
X157265134Y-72175134D01*
X157450706Y-71949014D01*
X157588599Y-71691034D01*
X157673513Y-71411111D01*
X157702185Y-71120000D01*
X157673513Y-70828889D01*
X157588599Y-70548966D01*
X157450706Y-70290986D01*
X157265134Y-70064866D01*
X157039014Y-69879294D01*
X156984209Y-69850000D01*
X157039014Y-69820706D01*
X157265134Y-69635134D01*
X157450706Y-69409014D01*
X157588599Y-69151034D01*
X157673513Y-68871111D01*
X157702185Y-68580000D01*
X157673513Y-68288889D01*
X157588599Y-68008966D01*
X157450706Y-67750986D01*
X157265134Y-67524866D01*
X157039014Y-67339294D01*
X156984209Y-67310000D01*
X157039014Y-67280706D01*
X157265134Y-67095134D01*
X157450706Y-66869014D01*
X157588599Y-66611034D01*
X157673513Y-66331111D01*
X157702185Y-66040000D01*
X157673513Y-65748889D01*
X157588599Y-65468966D01*
X157450706Y-65210986D01*
X157265134Y-64984866D01*
X157039014Y-64799294D01*
X156974477Y-64764799D01*
X157091355Y-64695178D01*
X157307588Y-64500269D01*
X157481641Y-64266920D01*
X157606825Y-64004099D01*
X157651476Y-63856890D01*
X157530155Y-63627000D01*
X156337000Y-63627000D01*
X156337000Y-63647000D01*
X156083000Y-63647000D01*
X156083000Y-63627000D01*
X153797000Y-63627000D01*
X153797000Y-63647000D01*
X153543000Y-63647000D01*
X153543000Y-63627000D01*
X152343750Y-63627000D01*
X152185000Y-63785750D01*
X152181928Y-64350000D01*
X152194188Y-64474482D01*
X152230498Y-64594180D01*
X152289463Y-64704494D01*
X152368815Y-64801185D01*
X152465506Y-64880537D01*
X152575820Y-64939502D01*
X152644687Y-64960393D01*
X152614866Y-64984866D01*
X152429294Y-65210986D01*
X152291401Y-65468966D01*
X152206487Y-65748889D01*
X152177815Y-66040000D01*
X151352185Y-66040000D01*
X151323513Y-65748889D01*
X151238599Y-65468966D01*
X151100706Y-65210986D01*
X150915134Y-64984866D01*
X150689014Y-64799294D01*
X150624477Y-64764799D01*
X150741355Y-64695178D01*
X150957588Y-64500269D01*
X151131641Y-64266920D01*
X151256825Y-64004099D01*
X151301476Y-63856890D01*
X151180155Y-63627000D01*
X149987000Y-63627000D01*
X149987000Y-63647000D01*
X149733000Y-63647000D01*
X149733000Y-63627000D01*
X147447000Y-63627000D01*
X147447000Y-63647000D01*
X147193000Y-63647000D01*
X147193000Y-63627000D01*
X145993750Y-63627000D01*
X145835000Y-63785750D01*
X145831928Y-64350000D01*
X145844188Y-64474482D01*
X145880498Y-64594180D01*
X145939463Y-64704494D01*
X146018815Y-64801185D01*
X146115506Y-64880537D01*
X146225820Y-64939502D01*
X146294687Y-64960393D01*
X146264866Y-64984866D01*
X146079294Y-65210986D01*
X145941401Y-65468966D01*
X145856487Y-65748889D01*
X145827815Y-66040000D01*
X124682185Y-66040000D01*
X124653513Y-65748889D01*
X124568599Y-65468966D01*
X124430706Y-65210986D01*
X124245134Y-64984866D01*
X124019014Y-64799294D01*
X123954477Y-64764799D01*
X124071355Y-64695178D01*
X124287588Y-64500269D01*
X124461641Y-64266920D01*
X124586825Y-64004099D01*
X124631476Y-63856890D01*
X124510155Y-63627000D01*
X123317000Y-63627000D01*
X123317000Y-63647000D01*
X123063000Y-63647000D01*
X123063000Y-63627000D01*
X120777000Y-63627000D01*
X120777000Y-63647000D01*
X120523000Y-63647000D01*
X120523000Y-63627000D01*
X119323750Y-63627000D01*
X119165000Y-63785750D01*
X119161928Y-64350000D01*
X119174188Y-64474482D01*
X119210498Y-64594180D01*
X119269463Y-64704494D01*
X119348815Y-64801185D01*
X119445506Y-64880537D01*
X119555820Y-64939502D01*
X119624687Y-64960393D01*
X119594866Y-64984866D01*
X119409294Y-65210986D01*
X119271401Y-65468966D01*
X119186487Y-65748889D01*
X119157815Y-66040000D01*
X98012185Y-66040000D01*
X97983513Y-65748889D01*
X97898599Y-65468966D01*
X97760706Y-65210986D01*
X97575134Y-64984866D01*
X97349014Y-64799294D01*
X97284477Y-64764799D01*
X97401355Y-64695178D01*
X97617588Y-64500269D01*
X97791641Y-64266920D01*
X97916825Y-64004099D01*
X97961476Y-63856890D01*
X97840155Y-63627000D01*
X96647000Y-63627000D01*
X96647000Y-63647000D01*
X96393000Y-63647000D01*
X96393000Y-63627000D01*
X94107000Y-63627000D01*
X94107000Y-63647000D01*
X93853000Y-63647000D01*
X93853000Y-63627000D01*
X92653750Y-63627000D01*
X92495000Y-63785750D01*
X92491928Y-64350000D01*
X92504188Y-64474482D01*
X92540498Y-64594180D01*
X92599463Y-64704494D01*
X92678815Y-64801185D01*
X92775506Y-64880537D01*
X92885820Y-64939502D01*
X92954687Y-64960393D01*
X92924866Y-64984866D01*
X92739294Y-65210986D01*
X92601401Y-65468966D01*
X92516487Y-65748889D01*
X92487815Y-66040000D01*
X91662185Y-66040000D01*
X91633513Y-65748889D01*
X91548599Y-65468966D01*
X91410706Y-65210986D01*
X91225134Y-64984866D01*
X90999014Y-64799294D01*
X90934477Y-64764799D01*
X91051355Y-64695178D01*
X91267588Y-64500269D01*
X91441641Y-64266920D01*
X91566825Y-64004099D01*
X91611476Y-63856890D01*
X91490155Y-63627000D01*
X90297000Y-63627000D01*
X90297000Y-63647000D01*
X90043000Y-63647000D01*
X90043000Y-63627000D01*
X87757000Y-63627000D01*
X87757000Y-63647000D01*
X87503000Y-63647000D01*
X87503000Y-63627000D01*
X86303750Y-63627000D01*
X86145000Y-63785750D01*
X86141928Y-64350000D01*
X86154188Y-64474482D01*
X86190498Y-64594180D01*
X86249463Y-64704494D01*
X86328815Y-64801185D01*
X86425506Y-64880537D01*
X86535820Y-64939502D01*
X86604687Y-64960393D01*
X86574866Y-64984866D01*
X86389294Y-65210986D01*
X86251401Y-65468966D01*
X86166487Y-65748889D01*
X86137815Y-66040000D01*
X83845000Y-66040000D01*
X83845000Y-62650000D01*
X86141928Y-62650000D01*
X86145000Y-63214250D01*
X86303750Y-63373000D01*
X87503000Y-63373000D01*
X87503000Y-62173750D01*
X87757000Y-62173750D01*
X87757000Y-63373000D01*
X90043000Y-63373000D01*
X90043000Y-62179186D01*
X90297000Y-62179186D01*
X90297000Y-63373000D01*
X91490155Y-63373000D01*
X91611476Y-63143110D01*
X91566825Y-62995901D01*
X91441641Y-62733080D01*
X91379673Y-62650000D01*
X92491928Y-62650000D01*
X92495000Y-63214250D01*
X92653750Y-63373000D01*
X93853000Y-63373000D01*
X93853000Y-62173750D01*
X94107000Y-62173750D01*
X94107000Y-63373000D01*
X96393000Y-63373000D01*
X96393000Y-62179186D01*
X96647000Y-62179186D01*
X96647000Y-63373000D01*
X97840155Y-63373000D01*
X97961476Y-63143110D01*
X97916825Y-62995901D01*
X97791641Y-62733080D01*
X97729673Y-62650000D01*
X119161928Y-62650000D01*
X119165000Y-63214250D01*
X119323750Y-63373000D01*
X120523000Y-63373000D01*
X120523000Y-62173750D01*
X120777000Y-62173750D01*
X120777000Y-63373000D01*
X123063000Y-63373000D01*
X123063000Y-62179186D01*
X123317000Y-62179186D01*
X123317000Y-63373000D01*
X124510155Y-63373000D01*
X124631476Y-63143110D01*
X124586825Y-62995901D01*
X124461641Y-62733080D01*
X124399673Y-62650000D01*
X145831928Y-62650000D01*
X145835000Y-63214250D01*
X145993750Y-63373000D01*
X147193000Y-63373000D01*
X147193000Y-62173750D01*
X147447000Y-62173750D01*
X147447000Y-63373000D01*
X149733000Y-63373000D01*
X149733000Y-62179186D01*
X149987000Y-62179186D01*
X149987000Y-63373000D01*
X151180155Y-63373000D01*
X151301476Y-63143110D01*
X151256825Y-62995901D01*
X151131641Y-62733080D01*
X151069673Y-62650000D01*
X152181928Y-62650000D01*
X152185000Y-63214250D01*
X152343750Y-63373000D01*
X153543000Y-63373000D01*
X153543000Y-62173750D01*
X153797000Y-62173750D01*
X153797000Y-63373000D01*
X156083000Y-63373000D01*
X156083000Y-62179186D01*
X156337000Y-62179186D01*
X156337000Y-63373000D01*
X157530155Y-63373000D01*
X157651476Y-63143110D01*
X157606825Y-62995901D01*
X157481641Y-62733080D01*
X157307588Y-62499731D01*
X157091355Y-62304822D01*
X156841252Y-62155843D01*
X156566891Y-62058519D01*
X156337000Y-62179186D01*
X156083000Y-62179186D01*
X155853109Y-62058519D01*
X155578748Y-62155843D01*
X155328645Y-62304822D01*
X155132498Y-62481626D01*
X155109502Y-62405820D01*
X155050537Y-62295506D01*
X154971185Y-62198815D01*
X154874494Y-62119463D01*
X154764180Y-62060498D01*
X154644482Y-62024188D01*
X154520000Y-62011928D01*
X153955750Y-62015000D01*
X153797000Y-62173750D01*
X153543000Y-62173750D01*
X153384250Y-62015000D01*
X152820000Y-62011928D01*
X152695518Y-62024188D01*
X152575820Y-62060498D01*
X152465506Y-62119463D01*
X152368815Y-62198815D01*
X152289463Y-62295506D01*
X152230498Y-62405820D01*
X152194188Y-62525518D01*
X152181928Y-62650000D01*
X151069673Y-62650000D01*
X150957588Y-62499731D01*
X150741355Y-62304822D01*
X150491252Y-62155843D01*
X150216891Y-62058519D01*
X149987000Y-62179186D01*
X149733000Y-62179186D01*
X149503109Y-62058519D01*
X149228748Y-62155843D01*
X148978645Y-62304822D01*
X148782498Y-62481626D01*
X148759502Y-62405820D01*
X148700537Y-62295506D01*
X148621185Y-62198815D01*
X148524494Y-62119463D01*
X148414180Y-62060498D01*
X148294482Y-62024188D01*
X148170000Y-62011928D01*
X147605750Y-62015000D01*
X147447000Y-62173750D01*
X147193000Y-62173750D01*
X147034250Y-62015000D01*
X146470000Y-62011928D01*
X146345518Y-62024188D01*
X146225820Y-62060498D01*
X146115506Y-62119463D01*
X146018815Y-62198815D01*
X145939463Y-62295506D01*
X145880498Y-62405820D01*
X145844188Y-62525518D01*
X145831928Y-62650000D01*
X124399673Y-62650000D01*
X124287588Y-62499731D01*
X124071355Y-62304822D01*
X123821252Y-62155843D01*
X123546891Y-62058519D01*
X123317000Y-62179186D01*
X123063000Y-62179186D01*
X122833109Y-62058519D01*
X122558748Y-62155843D01*
X122308645Y-62304822D01*
X122112498Y-62481626D01*
X122089502Y-62405820D01*
X122030537Y-62295506D01*
X121951185Y-62198815D01*
X121854494Y-62119463D01*
X121744180Y-62060498D01*
X121624482Y-62024188D01*
X121500000Y-62011928D01*
X120935750Y-62015000D01*
X120777000Y-62173750D01*
X120523000Y-62173750D01*
X120364250Y-62015000D01*
X119800000Y-62011928D01*
X119675518Y-62024188D01*
X119555820Y-62060498D01*
X119445506Y-62119463D01*
X119348815Y-62198815D01*
X119269463Y-62295506D01*
X119210498Y-62405820D01*
X119174188Y-62525518D01*
X119161928Y-62650000D01*
X97729673Y-62650000D01*
X97617588Y-62499731D01*
X97401355Y-62304822D01*
X97151252Y-62155843D01*
X96876891Y-62058519D01*
X96647000Y-62179186D01*
X96393000Y-62179186D01*
X96163109Y-62058519D01*
X95888748Y-62155843D01*
X95638645Y-62304822D01*
X95442498Y-62481626D01*
X95419502Y-62405820D01*
X95360537Y-62295506D01*
X95281185Y-62198815D01*
X95184494Y-62119463D01*
X95074180Y-62060498D01*
X94954482Y-62024188D01*
X94830000Y-62011928D01*
X94265750Y-62015000D01*
X94107000Y-62173750D01*
X93853000Y-62173750D01*
X93694250Y-62015000D01*
X93130000Y-62011928D01*
X93005518Y-62024188D01*
X92885820Y-62060498D01*
X92775506Y-62119463D01*
X92678815Y-62198815D01*
X92599463Y-62295506D01*
X92540498Y-62405820D01*
X92504188Y-62525518D01*
X92491928Y-62650000D01*
X91379673Y-62650000D01*
X91267588Y-62499731D01*
X91051355Y-62304822D01*
X90801252Y-62155843D01*
X90526891Y-62058519D01*
X90297000Y-62179186D01*
X90043000Y-62179186D01*
X89813109Y-62058519D01*
X89538748Y-62155843D01*
X89288645Y-62304822D01*
X89092498Y-62481626D01*
X89069502Y-62405820D01*
X89010537Y-62295506D01*
X88931185Y-62198815D01*
X88834494Y-62119463D01*
X88724180Y-62060498D01*
X88604482Y-62024188D01*
X88480000Y-62011928D01*
X87915750Y-62015000D01*
X87757000Y-62173750D01*
X87503000Y-62173750D01*
X87344250Y-62015000D01*
X86780000Y-62011928D01*
X86655518Y-62024188D01*
X86535820Y-62060498D01*
X86425506Y-62119463D01*
X86328815Y-62198815D01*
X86249463Y-62295506D01*
X86190498Y-62405820D01*
X86154188Y-62525518D01*
X86141928Y-62650000D01*
X83845000Y-62650000D01*
X83845000Y-49852290D01*
X85725000Y-49852290D01*
X85725000Y-50477710D01*
X85847014Y-51091113D01*
X86086352Y-51668926D01*
X86433817Y-52188944D01*
X86876056Y-52631183D01*
X87396074Y-52978648D01*
X87973887Y-53217986D01*
X88587290Y-53340000D01*
X89212710Y-53340000D01*
X89826113Y-53217986D01*
X90403926Y-52978648D01*
X90923944Y-52631183D01*
X91366183Y-52188944D01*
X91713648Y-51668926D01*
X91952986Y-51091113D01*
X92075000Y-50477710D01*
X92075000Y-49852290D01*
X118745000Y-49852290D01*
X118745000Y-50477710D01*
X118867014Y-51091113D01*
X119106352Y-51668926D01*
X119453817Y-52188944D01*
X119896056Y-52631183D01*
X120416074Y-52978648D01*
X120993887Y-53217986D01*
X121607290Y-53340000D01*
X122232710Y-53340000D01*
X122846113Y-53217986D01*
X123423926Y-52978648D01*
X123943944Y-52631183D01*
X124386183Y-52188944D01*
X124733648Y-51668926D01*
X124972986Y-51091113D01*
X125095000Y-50477710D01*
X125095000Y-49852290D01*
X151765000Y-49852290D01*
X151765000Y-50477710D01*
X151887014Y-51091113D01*
X152126352Y-51668926D01*
X152473817Y-52188944D01*
X152916056Y-52631183D01*
X153436074Y-52978648D01*
X154013887Y-53217986D01*
X154627290Y-53340000D01*
X155252710Y-53340000D01*
X155866113Y-53217986D01*
X156443926Y-52978648D01*
X156963944Y-52631183D01*
X157406183Y-52188944D01*
X157753648Y-51668926D01*
X157992986Y-51091113D01*
X158115000Y-50477710D01*
X158115000Y-49852290D01*
X157992986Y-49238887D01*
X157753648Y-48661074D01*
X157406183Y-48141056D01*
X156963944Y-47698817D01*
X156443926Y-47351352D01*
X155866113Y-47112014D01*
X155252710Y-46990000D01*
X154627290Y-46990000D01*
X154013887Y-47112014D01*
X153436074Y-47351352D01*
X152916056Y-47698817D01*
X152473817Y-48141056D01*
X152126352Y-48661074D01*
X151887014Y-49238887D01*
X151765000Y-49852290D01*
X125095000Y-49852290D01*
X124972986Y-49238887D01*
X124733648Y-48661074D01*
X124386183Y-48141056D01*
X123943944Y-47698817D01*
X123423926Y-47351352D01*
X122846113Y-47112014D01*
X122232710Y-46990000D01*
X121607290Y-46990000D01*
X120993887Y-47112014D01*
X120416074Y-47351352D01*
X119896056Y-47698817D01*
X119453817Y-48141056D01*
X119106352Y-48661074D01*
X118867014Y-49238887D01*
X118745000Y-49852290D01*
X92075000Y-49852290D01*
X91952986Y-49238887D01*
X91713648Y-48661074D01*
X91366183Y-48141056D01*
X90923944Y-47698817D01*
X90403926Y-47351352D01*
X89826113Y-47112014D01*
X89212710Y-46990000D01*
X88587290Y-46990000D01*
X87973887Y-47112014D01*
X87396074Y-47351352D01*
X86876056Y-47698817D01*
X86433817Y-48141056D01*
X86086352Y-48661074D01*
X85847014Y-49238887D01*
X85725000Y-49852290D01*
X83845000Y-49852290D01*
X83845000Y-46380000D01*
X159995001Y-46380000D01*
X159995000Y-144120000D01*
X159995000Y-144120000D01*
G37*
X159995000Y-144120000D02*
X83845000Y-144120000D01*
X83845000Y-140022290D01*
X85725000Y-140022290D01*
X85725000Y-140647710D01*
X85847014Y-141261113D01*
X86086352Y-141838926D01*
X86433817Y-142358944D01*
X86876056Y-142801183D01*
X87396074Y-143148648D01*
X87973887Y-143387986D01*
X88587290Y-143510000D01*
X89212710Y-143510000D01*
X89826113Y-143387986D01*
X90403926Y-143148648D01*
X90923944Y-142801183D01*
X91366183Y-142358944D01*
X91713648Y-141838926D01*
X91952986Y-141261113D01*
X92075000Y-140647710D01*
X92075000Y-140022290D01*
X118745000Y-140022290D01*
X118745000Y-140647710D01*
X118867014Y-141261113D01*
X119106352Y-141838926D01*
X119453817Y-142358944D01*
X119896056Y-142801183D01*
X120416074Y-143148648D01*
X120993887Y-143387986D01*
X121607290Y-143510000D01*
X122232710Y-143510000D01*
X122846113Y-143387986D01*
X123423926Y-143148648D01*
X123943944Y-142801183D01*
X124386183Y-142358944D01*
X124733648Y-141838926D01*
X124972986Y-141261113D01*
X125095000Y-140647710D01*
X125095000Y-140022290D01*
X151765000Y-140022290D01*
X151765000Y-140647710D01*
X151887014Y-141261113D01*
X152126352Y-141838926D01*
X152473817Y-142358944D01*
X152916056Y-142801183D01*
X153436074Y-143148648D01*
X154013887Y-143387986D01*
X154627290Y-143510000D01*
X155252710Y-143510000D01*
X155866113Y-143387986D01*
X156443926Y-143148648D01*
X156963944Y-142801183D01*
X157406183Y-142358944D01*
X157753648Y-141838926D01*
X157992986Y-141261113D01*
X158115000Y-140647710D01*
X158115000Y-140022290D01*
X157992986Y-139408887D01*
X157753648Y-138831074D01*
X157406183Y-138311056D01*
X156963944Y-137868817D01*
X156443926Y-137521352D01*
X155866113Y-137282014D01*
X155252710Y-137160000D01*
X154627290Y-137160000D01*
X154013887Y-137282014D01*
X153436074Y-137521352D01*
X152916056Y-137868817D01*
X152473817Y-138311056D01*
X152126352Y-138831074D01*
X151887014Y-139408887D01*
X151765000Y-140022290D01*
X125095000Y-140022290D01*
X124972986Y-139408887D01*
X124733648Y-138831074D01*
X124386183Y-138311056D01*
X123943944Y-137868817D01*
X123423926Y-137521352D01*
X122846113Y-137282014D01*
X122232710Y-137160000D01*
X121607290Y-137160000D01*
X120993887Y-137282014D01*
X120416074Y-137521352D01*
X119896056Y-137868817D01*
X119453817Y-138311056D01*
X119106352Y-138831074D01*
X118867014Y-139408887D01*
X118745000Y-140022290D01*
X92075000Y-140022290D01*
X91952986Y-139408887D01*
X91713648Y-138831074D01*
X91366183Y-138311056D01*
X90923944Y-137868817D01*
X90403926Y-137521352D01*
X89826113Y-137282014D01*
X89212710Y-137160000D01*
X88587290Y-137160000D01*
X87973887Y-137282014D01*
X87396074Y-137521352D01*
X86876056Y-137868817D01*
X86433817Y-138311056D01*
X86086352Y-138831074D01*
X85847014Y-139408887D01*
X85725000Y-140022290D01*
X83845000Y-140022290D01*
X83845000Y-81280000D01*
X86137815Y-81280000D01*
X86166487Y-81571111D01*
X86251401Y-81851034D01*
X86389294Y-82109014D01*
X86574866Y-82335134D01*
X86800986Y-82520706D01*
X86855791Y-82550000D01*
X86800986Y-82579294D01*
X86574866Y-82764866D01*
X86389294Y-82990986D01*
X86251401Y-83248966D01*
X86166487Y-83528889D01*
X86137815Y-83820000D01*
X86166487Y-84111111D01*
X86251401Y-84391034D01*
X86389294Y-84649014D01*
X86574866Y-84875134D01*
X86800986Y-85060706D01*
X86855791Y-85090000D01*
X86800986Y-85119294D01*
X86574866Y-85304866D01*
X86389294Y-85530986D01*
X86251401Y-85788966D01*
X86166487Y-86068889D01*
X86137815Y-86360000D01*
X86166487Y-86651111D01*
X86251401Y-86931034D01*
X86389294Y-87189014D01*
X86574866Y-87415134D01*
X86800986Y-87600706D01*
X86855791Y-87630000D01*
X86800986Y-87659294D01*
X86574866Y-87844866D01*
X86389294Y-88070986D01*
X86251401Y-88328966D01*
X86166487Y-88608889D01*
X86137815Y-88900000D01*
X86166487Y-89191111D01*
X86251401Y-89471034D01*
X86389294Y-89729014D01*
X86574866Y-89955134D01*
X86800986Y-90140706D01*
X86855791Y-90170000D01*
X86800986Y-90199294D01*
X86574866Y-90384866D01*
X86389294Y-90610986D01*
X86251401Y-90868966D01*
X86166487Y-91148889D01*
X86137815Y-91440000D01*
X86166487Y-91731111D01*
X86251401Y-92011034D01*
X86389294Y-92269014D01*
X86574866Y-92495134D01*
X86800986Y-92680706D01*
X86855791Y-92710000D01*
X86800986Y-92739294D01*
X86574866Y-92924866D01*
X86389294Y-93150986D01*
X86251401Y-93408966D01*
X86166487Y-93688889D01*
X86137815Y-93980000D01*
X86166487Y-94271111D01*
X86251401Y-94551034D01*
X86389294Y-94809014D01*
X86574866Y-95035134D01*
X86800986Y-95220706D01*
X86855791Y-95250000D01*
X86800986Y-95279294D01*
X86574866Y-95464866D01*
X86389294Y-95690986D01*
X86251401Y-95948966D01*
X86166487Y-96228889D01*
X86137815Y-96520000D01*
X86166487Y-96811111D01*
X86251401Y-97091034D01*
X86389294Y-97349014D01*
X86574866Y-97575134D01*
X86800986Y-97760706D01*
X86855791Y-97790000D01*
X86800986Y-97819294D01*
X86574866Y-98004866D01*
X86389294Y-98230986D01*
X86251401Y-98488966D01*
X86166487Y-98768889D01*
X86137815Y-99060000D01*
X86166487Y-99351111D01*
X86251401Y-99631034D01*
X86389294Y-99889014D01*
X86574866Y-100115134D01*
X86800986Y-100300706D01*
X86855791Y-100330000D01*
X86800986Y-100359294D01*
X86574866Y-100544866D01*
X86389294Y-100770986D01*
X86251401Y-101028966D01*
X86166487Y-101308889D01*
X86137815Y-101600000D01*
X86166487Y-101891111D01*
X86251401Y-102171034D01*
X86389294Y-102429014D01*
X86574866Y-102655134D01*
X86800986Y-102840706D01*
X86855791Y-102870000D01*
X86800986Y-102899294D01*
X86574866Y-103084866D01*
X86389294Y-103310986D01*
X86251401Y-103568966D01*
X86166487Y-103848889D01*
X86137815Y-104140000D01*
X86166487Y-104431111D01*
X86251401Y-104711034D01*
X86389294Y-104969014D01*
X86574866Y-105195134D01*
X86800986Y-105380706D01*
X86855791Y-105410000D01*
X86800986Y-105439294D01*
X86574866Y-105624866D01*
X86389294Y-105850986D01*
X86251401Y-106108966D01*
X86166487Y-106388889D01*
X86137815Y-106680000D01*
X86166487Y-106971111D01*
X86251401Y-107251034D01*
X86389294Y-107509014D01*
X86574866Y-107735134D01*
X86800986Y-107920706D01*
X86855791Y-107950000D01*
X86800986Y-107979294D01*
X86574866Y-108164866D01*
X86389294Y-108390986D01*
X86251401Y-108648966D01*
X86166487Y-108928889D01*
X86137815Y-109220000D01*
X86166487Y-109511111D01*
X86251401Y-109791034D01*
X86389294Y-110049014D01*
X86574866Y-110275134D01*
X86800986Y-110460706D01*
X86855791Y-110490000D01*
X86800986Y-110519294D01*
X86574866Y-110704866D01*
X86389294Y-110930986D01*
X86251401Y-111188966D01*
X86166487Y-111468889D01*
X86137815Y-111760000D01*
X86166487Y-112051111D01*
X86251401Y-112331034D01*
X86389294Y-112589014D01*
X86574866Y-112815134D01*
X86800986Y-113000706D01*
X86855791Y-113030000D01*
X86800986Y-113059294D01*
X86574866Y-113244866D01*
X86389294Y-113470986D01*
X86251401Y-113728966D01*
X86166487Y-114008889D01*
X86137815Y-114300000D01*
X86166487Y-114591111D01*
X86251401Y-114871034D01*
X86389294Y-115129014D01*
X86574866Y-115355134D01*
X86800986Y-115540706D01*
X86855791Y-115570000D01*
X86800986Y-115599294D01*
X86574866Y-115784866D01*
X86389294Y-116010986D01*
X86251401Y-116268966D01*
X86166487Y-116548889D01*
X86137815Y-116840000D01*
X86166487Y-117131111D01*
X86251401Y-117411034D01*
X86389294Y-117669014D01*
X86574866Y-117895134D01*
X86800986Y-118080706D01*
X86855791Y-118110000D01*
X86800986Y-118139294D01*
X86574866Y-118324866D01*
X86389294Y-118550986D01*
X86251401Y-118808966D01*
X86166487Y-119088889D01*
X86137815Y-119380000D01*
X86166487Y-119671111D01*
X86251401Y-119951034D01*
X86389294Y-120209014D01*
X86574866Y-120435134D01*
X86800986Y-120620706D01*
X86855791Y-120650000D01*
X86800986Y-120679294D01*
X86574866Y-120864866D01*
X86389294Y-121090986D01*
X86251401Y-121348966D01*
X86166487Y-121628889D01*
X86137815Y-121920000D01*
X86166487Y-122211111D01*
X86251401Y-122491034D01*
X86389294Y-122749014D01*
X86574866Y-122975134D01*
X86800986Y-123160706D01*
X86855791Y-123190000D01*
X86800986Y-123219294D01*
X86574866Y-123404866D01*
X86389294Y-123630986D01*
X86251401Y-123888966D01*
X86166487Y-124168889D01*
X86137815Y-124460000D01*
X86166487Y-124751111D01*
X86251401Y-125031034D01*
X86389294Y-125289014D01*
X86574866Y-125515134D01*
X86800986Y-125700706D01*
X86855791Y-125730000D01*
X86800986Y-125759294D01*
X86574866Y-125944866D01*
X86389294Y-126170986D01*
X86251401Y-126428966D01*
X86166487Y-126708889D01*
X86137815Y-127000000D01*
X86166487Y-127291111D01*
X86251401Y-127571034D01*
X86389294Y-127829014D01*
X86574866Y-128055134D01*
X86800986Y-128240706D01*
X87058966Y-128378599D01*
X87338889Y-128463513D01*
X87557050Y-128485000D01*
X87702950Y-128485000D01*
X87921111Y-128463513D01*
X87995995Y-128440797D01*
X88241202Y-128686004D01*
X88265000Y-128715002D01*
X88380725Y-128809975D01*
X88512754Y-128880547D01*
X88656015Y-128924004D01*
X88767668Y-128935001D01*
X88767677Y-128935001D01*
X88805000Y-128938677D01*
X88842323Y-128935001D01*
X92767677Y-128935001D01*
X92804999Y-128938677D01*
X92842321Y-128935001D01*
X92842332Y-128935001D01*
X92953985Y-128924004D01*
X93097246Y-128880547D01*
X93229275Y-128809975D01*
X93345000Y-128715002D01*
X93368803Y-128685998D01*
X93614004Y-128440797D01*
X93688889Y-128463513D01*
X93907050Y-128485000D01*
X94052950Y-128485000D01*
X94271111Y-128463513D01*
X94345995Y-128440797D01*
X94591202Y-128686004D01*
X94615000Y-128715002D01*
X94730725Y-128809975D01*
X94862754Y-128880547D01*
X95006015Y-128924004D01*
X95117668Y-128935001D01*
X95117677Y-128935001D01*
X95155000Y-128938677D01*
X95192323Y-128935001D01*
X119437677Y-128935001D01*
X119474999Y-128938677D01*
X119512321Y-128935001D01*
X119512332Y-128935001D01*
X119623985Y-128924004D01*
X119767246Y-128880547D01*
X119899275Y-128809975D01*
X120015000Y-128715002D01*
X120038803Y-128685998D01*
X120284004Y-128440797D01*
X120358889Y-128463513D01*
X120577050Y-128485000D01*
X120722950Y-128485000D01*
X120941111Y-128463513D01*
X121015995Y-128440797D01*
X121261202Y-128686004D01*
X121285000Y-128715002D01*
X121400725Y-128809975D01*
X121532754Y-128880547D01*
X121676015Y-128924004D01*
X121787668Y-128935001D01*
X121787677Y-128935001D01*
X121825000Y-128938677D01*
X121862323Y-128935001D01*
X146107677Y-128935001D01*
X146144999Y-128938677D01*
X146182321Y-128935001D01*
X146182332Y-128935001D01*
X146293985Y-128924004D01*
X146437246Y-128880547D01*
X146569275Y-128809975D01*
X146685000Y-128715002D01*
X146708803Y-128685998D01*
X146954004Y-128440797D01*
X147028889Y-128463513D01*
X147247050Y-128485000D01*
X147392950Y-128485000D01*
X147611111Y-128463513D01*
X147685995Y-128440797D01*
X147931202Y-128686004D01*
X147955000Y-128715002D01*
X148070725Y-128809975D01*
X148202754Y-128880547D01*
X148346015Y-128924004D01*
X148457668Y-128935001D01*
X148457677Y-128935001D01*
X148495000Y-128938677D01*
X148532323Y-128935001D01*
X154997677Y-128935001D01*
X155034999Y-128938677D01*
X155072321Y-128935001D01*
X155072332Y-128935001D01*
X155183985Y-128924004D01*
X155327246Y-128880547D01*
X155459275Y-128809975D01*
X155575000Y-128715002D01*
X155598803Y-128685998D01*
X155844004Y-128440797D01*
X155918889Y-128463513D01*
X156137050Y-128485000D01*
X156282950Y-128485000D01*
X156501111Y-128463513D01*
X156781034Y-128378599D01*
X157039014Y-128240706D01*
X157265134Y-128055134D01*
X157450706Y-127829014D01*
X157588599Y-127571034D01*
X157673513Y-127291111D01*
X157702185Y-127000000D01*
X157673513Y-126708889D01*
X157588599Y-126428966D01*
X157450706Y-126170986D01*
X157265134Y-125944866D01*
X157039014Y-125759294D01*
X156984209Y-125730000D01*
X157039014Y-125700706D01*
X157265134Y-125515134D01*
X157450706Y-125289014D01*
X157588599Y-125031034D01*
X157673513Y-124751111D01*
X157702185Y-124460000D01*
X157673513Y-124168889D01*
X157588599Y-123888966D01*
X157450706Y-123630986D01*
X157265134Y-123404866D01*
X157039014Y-123219294D01*
X156984209Y-123190000D01*
X157039014Y-123160706D01*
X157265134Y-122975134D01*
X157450706Y-122749014D01*
X157588599Y-122491034D01*
X157673513Y-122211111D01*
X157702185Y-121920000D01*
X157673513Y-121628889D01*
X157588599Y-121348966D01*
X157450706Y-121090986D01*
X157265134Y-120864866D01*
X157039014Y-120679294D01*
X156984209Y-120650000D01*
X157039014Y-120620706D01*
X157265134Y-120435134D01*
X157450706Y-120209014D01*
X157588599Y-119951034D01*
X157673513Y-119671111D01*
X157702185Y-119380000D01*
X157673513Y-119088889D01*
X157588599Y-118808966D01*
X157450706Y-118550986D01*
X157265134Y-118324866D01*
X157039014Y-118139294D01*
X156984209Y-118110000D01*
X157039014Y-118080706D01*
X157265134Y-117895134D01*
X157450706Y-117669014D01*
X157588599Y-117411034D01*
X157673513Y-117131111D01*
X157702185Y-116840000D01*
X157673513Y-116548889D01*
X157588599Y-116268966D01*
X157450706Y-116010986D01*
X157265134Y-115784866D01*
X157039014Y-115599294D01*
X156984209Y-115570000D01*
X157039014Y-115540706D01*
X157265134Y-115355134D01*
X157450706Y-115129014D01*
X157588599Y-114871034D01*
X157673513Y-114591111D01*
X157702185Y-114300000D01*
X157673513Y-114008889D01*
X157588599Y-113728966D01*
X157450706Y-113470986D01*
X157265134Y-113244866D01*
X157039014Y-113059294D01*
X156984209Y-113030000D01*
X157039014Y-113000706D01*
X157265134Y-112815134D01*
X157450706Y-112589014D01*
X157588599Y-112331034D01*
X157673513Y-112051111D01*
X157702185Y-111760000D01*
X157673513Y-111468889D01*
X157588599Y-111188966D01*
X157450706Y-110930986D01*
X157265134Y-110704866D01*
X157039014Y-110519294D01*
X156984209Y-110490000D01*
X157039014Y-110460706D01*
X157265134Y-110275134D01*
X157450706Y-110049014D01*
X157588599Y-109791034D01*
X157673513Y-109511111D01*
X157702185Y-109220000D01*
X157673513Y-108928889D01*
X157588599Y-108648966D01*
X157450706Y-108390986D01*
X157265134Y-108164866D01*
X157039014Y-107979294D01*
X156984209Y-107950000D01*
X157039014Y-107920706D01*
X157265134Y-107735134D01*
X157450706Y-107509014D01*
X157588599Y-107251034D01*
X157673513Y-106971111D01*
X157702185Y-106680000D01*
X157673513Y-106388889D01*
X157588599Y-106108966D01*
X157450706Y-105850986D01*
X157265134Y-105624866D01*
X157039014Y-105439294D01*
X156984209Y-105410000D01*
X157039014Y-105380706D01*
X157265134Y-105195134D01*
X157450706Y-104969014D01*
X157588599Y-104711034D01*
X157673513Y-104431111D01*
X157702185Y-104140000D01*
X157673513Y-103848889D01*
X157588599Y-103568966D01*
X157450706Y-103310986D01*
X157265134Y-103084866D01*
X157039014Y-102899294D01*
X156984209Y-102870000D01*
X157039014Y-102840706D01*
X157265134Y-102655134D01*
X157450706Y-102429014D01*
X157588599Y-102171034D01*
X157673513Y-101891111D01*
X157702185Y-101600000D01*
X157673513Y-101308889D01*
X157588599Y-101028966D01*
X157450706Y-100770986D01*
X157265134Y-100544866D01*
X157039014Y-100359294D01*
X156984209Y-100330000D01*
X157039014Y-100300706D01*
X157265134Y-100115134D01*
X157450706Y-99889014D01*
X157588599Y-99631034D01*
X157673513Y-99351111D01*
X157702185Y-99060000D01*
X157673513Y-98768889D01*
X157588599Y-98488966D01*
X157450706Y-98230986D01*
X157265134Y-98004866D01*
X157039014Y-97819294D01*
X156984209Y-97790000D01*
X157039014Y-97760706D01*
X157265134Y-97575134D01*
X157450706Y-97349014D01*
X157588599Y-97091034D01*
X157673513Y-96811111D01*
X157702185Y-96520000D01*
X157673513Y-96228889D01*
X157588599Y-95948966D01*
X157450706Y-95690986D01*
X157265134Y-95464866D01*
X157039014Y-95279294D01*
X156984209Y-95250000D01*
X157039014Y-95220706D01*
X157265134Y-95035134D01*
X157450706Y-94809014D01*
X157588599Y-94551034D01*
X157673513Y-94271111D01*
X157702185Y-93980000D01*
X157673513Y-93688889D01*
X157588599Y-93408966D01*
X157450706Y-93150986D01*
X157265134Y-92924866D01*
X157039014Y-92739294D01*
X156984209Y-92710000D01*
X157039014Y-92680706D01*
X157265134Y-92495134D01*
X157450706Y-92269014D01*
X157588599Y-92011034D01*
X157673513Y-91731111D01*
X157702185Y-91440000D01*
X157673513Y-91148889D01*
X157588599Y-90868966D01*
X157450706Y-90610986D01*
X157265134Y-90384866D01*
X157039014Y-90199294D01*
X156984209Y-90170000D01*
X157039014Y-90140706D01*
X157265134Y-89955134D01*
X157450706Y-89729014D01*
X157588599Y-89471034D01*
X157673513Y-89191111D01*
X157702185Y-88900000D01*
X157673513Y-88608889D01*
X157588599Y-88328966D01*
X157450706Y-88070986D01*
X157265134Y-87844866D01*
X157039014Y-87659294D01*
X156984209Y-87630000D01*
X157039014Y-87600706D01*
X157265134Y-87415134D01*
X157450706Y-87189014D01*
X157588599Y-86931034D01*
X157673513Y-86651111D01*
X157702185Y-86360000D01*
X157673513Y-86068889D01*
X157588599Y-85788966D01*
X157450706Y-85530986D01*
X157265134Y-85304866D01*
X157039014Y-85119294D01*
X156984209Y-85090000D01*
X157039014Y-85060706D01*
X157265134Y-84875134D01*
X157450706Y-84649014D01*
X157588599Y-84391034D01*
X157673513Y-84111111D01*
X157702185Y-83820000D01*
X157673513Y-83528889D01*
X157588599Y-83248966D01*
X157450706Y-82990986D01*
X157265134Y-82764866D01*
X157039014Y-82579294D01*
X156984209Y-82550000D01*
X157039014Y-82520706D01*
X157265134Y-82335134D01*
X157450706Y-82109014D01*
X157588599Y-81851034D01*
X157673513Y-81571111D01*
X157702185Y-81280000D01*
X157673513Y-80988889D01*
X157588599Y-80708966D01*
X157450706Y-80450986D01*
X157265134Y-80224866D01*
X157039014Y-80039294D01*
X156984209Y-80010000D01*
X157039014Y-79980706D01*
X157265134Y-79795134D01*
X157450706Y-79569014D01*
X157588599Y-79311034D01*
X157673513Y-79031111D01*
X157702185Y-78740000D01*
X157673513Y-78448889D01*
X157588599Y-78168966D01*
X157450706Y-77910986D01*
X157265134Y-77684866D01*
X157039014Y-77499294D01*
X156781034Y-77361401D01*
X156501111Y-77276487D01*
X156282950Y-77255000D01*
X156137050Y-77255000D01*
X155918889Y-77276487D01*
X155638966Y-77361401D01*
X155380986Y-77499294D01*
X155154866Y-77684866D01*
X155130393Y-77714687D01*
X155109502Y-77645820D01*
X155050537Y-77535506D01*
X154971185Y-77438815D01*
X154874494Y-77359463D01*
X154764180Y-77300498D01*
X154644482Y-77264188D01*
X154520000Y-77251928D01*
X152820000Y-77251928D01*
X152695518Y-77264188D01*
X152575820Y-77300498D01*
X152465506Y-77359463D01*
X152368815Y-77438815D01*
X152289463Y-77535506D01*
X152230498Y-77645820D01*
X152194188Y-77765518D01*
X152181928Y-77890000D01*
X152181928Y-79155001D01*
X151285931Y-79155001D01*
X151323513Y-79031111D01*
X151352185Y-78740000D01*
X151323513Y-78448889D01*
X151238599Y-78168966D01*
X151100706Y-77910986D01*
X150915134Y-77684866D01*
X150689014Y-77499294D01*
X150431034Y-77361401D01*
X150151111Y-77276487D01*
X149932950Y-77255000D01*
X149787050Y-77255000D01*
X149568889Y-77276487D01*
X149288966Y-77361401D01*
X149030986Y-77499294D01*
X148804866Y-77684866D01*
X148780393Y-77714687D01*
X148759502Y-77645820D01*
X148700537Y-77535506D01*
X148621185Y-77438815D01*
X148524494Y-77359463D01*
X148414180Y-77300498D01*
X148294482Y-77264188D01*
X148170000Y-77251928D01*
X146470000Y-77251928D01*
X146345518Y-77264188D01*
X146225820Y-77300498D01*
X146115506Y-77359463D01*
X146018815Y-77438815D01*
X145939463Y-77535506D01*
X145880498Y-77645820D01*
X145844188Y-77765518D01*
X145831928Y-77890000D01*
X145831928Y-78085674D01*
X145795724Y-78105026D01*
X145679999Y-78199999D01*
X145656201Y-78228997D01*
X144730198Y-79155001D01*
X124615931Y-79155001D01*
X124653513Y-79031111D01*
X124682185Y-78740000D01*
X124653513Y-78448889D01*
X124568599Y-78168966D01*
X124430706Y-77910986D01*
X124245134Y-77684866D01*
X124019014Y-77499294D01*
X123761034Y-77361401D01*
X123481111Y-77276487D01*
X123262950Y-77255000D01*
X123117050Y-77255000D01*
X122898889Y-77276487D01*
X122618966Y-77361401D01*
X122360986Y-77499294D01*
X122134866Y-77684866D01*
X122110393Y-77714687D01*
X122089502Y-77645820D01*
X122030537Y-77535506D01*
X121951185Y-77438815D01*
X121854494Y-77359463D01*
X121744180Y-77300498D01*
X121624482Y-77264188D01*
X121500000Y-77251928D01*
X119800000Y-77251928D01*
X119675518Y-77264188D01*
X119555820Y-77300498D01*
X119445506Y-77359463D01*
X119348815Y-77438815D01*
X119269463Y-77535506D01*
X119210498Y-77645820D01*
X119174188Y-77765518D01*
X119161928Y-77890000D01*
X119161928Y-78085674D01*
X119125724Y-78105026D01*
X119009999Y-78199999D01*
X118986201Y-78228997D01*
X118060198Y-79155001D01*
X97945931Y-79155001D01*
X97983513Y-79031111D01*
X98012185Y-78740000D01*
X97983513Y-78448889D01*
X97898599Y-78168966D01*
X97760706Y-77910986D01*
X97575134Y-77684866D01*
X97349014Y-77499294D01*
X97091034Y-77361401D01*
X96811111Y-77276487D01*
X96592950Y-77255000D01*
X96447050Y-77255000D01*
X96228889Y-77276487D01*
X95948966Y-77361401D01*
X95690986Y-77499294D01*
X95464866Y-77684866D01*
X95440393Y-77714687D01*
X95419502Y-77645820D01*
X95360537Y-77535506D01*
X95281185Y-77438815D01*
X95184494Y-77359463D01*
X95074180Y-77300498D01*
X94954482Y-77264188D01*
X94830000Y-77251928D01*
X93130000Y-77251928D01*
X93005518Y-77264188D01*
X92885820Y-77300498D01*
X92775506Y-77359463D01*
X92678815Y-77438815D01*
X92599463Y-77535506D01*
X92540498Y-77645820D01*
X92504188Y-77765518D01*
X92491928Y-77890000D01*
X92491928Y-78085674D01*
X92455724Y-78105026D01*
X92339999Y-78199999D01*
X92316201Y-78228997D01*
X91646560Y-78898638D01*
X91662185Y-78740000D01*
X91633513Y-78448889D01*
X91548599Y-78168966D01*
X91410706Y-77910986D01*
X91225134Y-77684866D01*
X90999014Y-77499294D01*
X90741034Y-77361401D01*
X90461111Y-77276487D01*
X90242950Y-77255000D01*
X90097050Y-77255000D01*
X89878889Y-77276487D01*
X89598966Y-77361401D01*
X89340986Y-77499294D01*
X89114866Y-77684866D01*
X89090393Y-77714687D01*
X89069502Y-77645820D01*
X89010537Y-77535506D01*
X88931185Y-77438815D01*
X88834494Y-77359463D01*
X88724180Y-77300498D01*
X88604482Y-77264188D01*
X88480000Y-77251928D01*
X86780000Y-77251928D01*
X86655518Y-77264188D01*
X86535820Y-77300498D01*
X86425506Y-77359463D01*
X86328815Y-77438815D01*
X86249463Y-77535506D01*
X86190498Y-77645820D01*
X86154188Y-77765518D01*
X86141928Y-77890000D01*
X86141928Y-79590000D01*
X86154188Y-79714482D01*
X86190498Y-79834180D01*
X86249463Y-79944494D01*
X86328815Y-80041185D01*
X86425506Y-80120537D01*
X86535820Y-80179502D01*
X86604687Y-80200393D01*
X86574866Y-80224866D01*
X86389294Y-80450986D01*
X86251401Y-80708966D01*
X86166487Y-80988889D01*
X86137815Y-81280000D01*
X83845000Y-81280000D01*
X83845000Y-74016890D01*
X86188524Y-74016890D01*
X86233175Y-74164099D01*
X86358359Y-74426920D01*
X86532412Y-74660269D01*
X86748645Y-74855178D01*
X86998748Y-75004157D01*
X87273109Y-75101481D01*
X87503000Y-74980814D01*
X87503000Y-73787000D01*
X87757000Y-73787000D01*
X87757000Y-74980814D01*
X87986891Y-75101481D01*
X88261252Y-75004157D01*
X88511355Y-74855178D01*
X88727588Y-74660269D01*
X88900000Y-74429120D01*
X89072412Y-74660269D01*
X89288645Y-74855178D01*
X89538748Y-75004157D01*
X89813109Y-75101481D01*
X90043000Y-74980814D01*
X90043000Y-73787000D01*
X90297000Y-73787000D01*
X90297000Y-74980814D01*
X90526891Y-75101481D01*
X90801252Y-75004157D01*
X91051355Y-74855178D01*
X91267588Y-74660269D01*
X91441641Y-74426920D01*
X91566825Y-74164099D01*
X91611476Y-74016890D01*
X92538524Y-74016890D01*
X92583175Y-74164099D01*
X92708359Y-74426920D01*
X92882412Y-74660269D01*
X93098645Y-74855178D01*
X93348748Y-75004157D01*
X93623109Y-75101481D01*
X93853000Y-74980814D01*
X93853000Y-73787000D01*
X94107000Y-73787000D01*
X94107000Y-74980814D01*
X94336891Y-75101481D01*
X94611252Y-75004157D01*
X94861355Y-74855178D01*
X95077588Y-74660269D01*
X95250000Y-74429120D01*
X95422412Y-74660269D01*
X95638645Y-74855178D01*
X95888748Y-75004157D01*
X96163109Y-75101481D01*
X96393000Y-74980814D01*
X96393000Y-73787000D01*
X96647000Y-73787000D01*
X96647000Y-74980814D01*
X96876891Y-75101481D01*
X97151252Y-75004157D01*
X97401355Y-74855178D01*
X97617588Y-74660269D01*
X97791641Y-74426920D01*
X97916825Y-74164099D01*
X97961476Y-74016890D01*
X119208524Y-74016890D01*
X119253175Y-74164099D01*
X119378359Y-74426920D01*
X119552412Y-74660269D01*
X119768645Y-74855178D01*
X120018748Y-75004157D01*
X120293109Y-75101481D01*
X120523000Y-74980814D01*
X120523000Y-73787000D01*
X120777000Y-73787000D01*
X120777000Y-74980814D01*
X121006891Y-75101481D01*
X121281252Y-75004157D01*
X121531355Y-74855178D01*
X121747588Y-74660269D01*
X121920000Y-74429120D01*
X122092412Y-74660269D01*
X122308645Y-74855178D01*
X122558748Y-75004157D01*
X122833109Y-75101481D01*
X123063000Y-74980814D01*
X123063000Y-73787000D01*
X123317000Y-73787000D01*
X123317000Y-74980814D01*
X123546891Y-75101481D01*
X123821252Y-75004157D01*
X124071355Y-74855178D01*
X124287588Y-74660269D01*
X124461641Y-74426920D01*
X124586825Y-74164099D01*
X124631476Y-74016890D01*
X145878524Y-74016890D01*
X145923175Y-74164099D01*
X146048359Y-74426920D01*
X146222412Y-74660269D01*
X146438645Y-74855178D01*
X146688748Y-75004157D01*
X146963109Y-75101481D01*
X147193000Y-74980814D01*
X147193000Y-73787000D01*
X147447000Y-73787000D01*
X147447000Y-74980814D01*
X147676891Y-75101481D01*
X147951252Y-75004157D01*
X148201355Y-74855178D01*
X148417588Y-74660269D01*
X148590000Y-74429120D01*
X148762412Y-74660269D01*
X148978645Y-74855178D01*
X149228748Y-75004157D01*
X149503109Y-75101481D01*
X149733000Y-74980814D01*
X149733000Y-73787000D01*
X149987000Y-73787000D01*
X149987000Y-74980814D01*
X150216891Y-75101481D01*
X150491252Y-75004157D01*
X150741355Y-74855178D01*
X150957588Y-74660269D01*
X151131641Y-74426920D01*
X151256825Y-74164099D01*
X151301476Y-74016890D01*
X152228524Y-74016890D01*
X152273175Y-74164099D01*
X152398359Y-74426920D01*
X152572412Y-74660269D01*
X152788645Y-74855178D01*
X153038748Y-75004157D01*
X153313109Y-75101481D01*
X153543000Y-74980814D01*
X153543000Y-73787000D01*
X153797000Y-73787000D01*
X153797000Y-74980814D01*
X154026891Y-75101481D01*
X154301252Y-75004157D01*
X154551355Y-74855178D01*
X154767588Y-74660269D01*
X154940000Y-74429120D01*
X155112412Y-74660269D01*
X155328645Y-74855178D01*
X155578748Y-75004157D01*
X155853109Y-75101481D01*
X156083000Y-74980814D01*
X156083000Y-73787000D01*
X156337000Y-73787000D01*
X156337000Y-74980814D01*
X156566891Y-75101481D01*
X156841252Y-75004157D01*
X157091355Y-74855178D01*
X157307588Y-74660269D01*
X157481641Y-74426920D01*
X157606825Y-74164099D01*
X157651476Y-74016890D01*
X157530155Y-73787000D01*
X156337000Y-73787000D01*
X156083000Y-73787000D01*
X153797000Y-73787000D01*
X153543000Y-73787000D01*
X152349845Y-73787000D01*
X152228524Y-74016890D01*
X151301476Y-74016890D01*
X151180155Y-73787000D01*
X149987000Y-73787000D01*
X149733000Y-73787000D01*
X147447000Y-73787000D01*
X147193000Y-73787000D01*
X145999845Y-73787000D01*
X145878524Y-74016890D01*
X124631476Y-74016890D01*
X124510155Y-73787000D01*
X123317000Y-73787000D01*
X123063000Y-73787000D01*
X120777000Y-73787000D01*
X120523000Y-73787000D01*
X119329845Y-73787000D01*
X119208524Y-74016890D01*
X97961476Y-74016890D01*
X97840155Y-73787000D01*
X96647000Y-73787000D01*
X96393000Y-73787000D01*
X94107000Y-73787000D01*
X93853000Y-73787000D01*
X92659845Y-73787000D01*
X92538524Y-74016890D01*
X91611476Y-74016890D01*
X91490155Y-73787000D01*
X90297000Y-73787000D01*
X90043000Y-73787000D01*
X87757000Y-73787000D01*
X87503000Y-73787000D01*
X86309845Y-73787000D01*
X86188524Y-74016890D01*
X83845000Y-74016890D01*
X83845000Y-66040000D01*
X86137815Y-66040000D01*
X86166487Y-66331111D01*
X86251401Y-66611034D01*
X86389294Y-66869014D01*
X86574866Y-67095134D01*
X86800986Y-67280706D01*
X86855791Y-67310000D01*
X86800986Y-67339294D01*
X86574866Y-67524866D01*
X86389294Y-67750986D01*
X86251401Y-68008966D01*
X86166487Y-68288889D01*
X86137815Y-68580000D01*
X86166487Y-68871111D01*
X86251401Y-69151034D01*
X86389294Y-69409014D01*
X86574866Y-69635134D01*
X86800986Y-69820706D01*
X86855791Y-69850000D01*
X86800986Y-69879294D01*
X86574866Y-70064866D01*
X86389294Y-70290986D01*
X86251401Y-70548966D01*
X86166487Y-70828889D01*
X86137815Y-71120000D01*
X86166487Y-71411111D01*
X86251401Y-71691034D01*
X86389294Y-71949014D01*
X86574866Y-72175134D01*
X86800986Y-72360706D01*
X86865523Y-72395201D01*
X86748645Y-72464822D01*
X86532412Y-72659731D01*
X86358359Y-72893080D01*
X86233175Y-73155901D01*
X86188524Y-73303110D01*
X86309845Y-73533000D01*
X87503000Y-73533000D01*
X87503000Y-73513000D01*
X87757000Y-73513000D01*
X87757000Y-73533000D01*
X90043000Y-73533000D01*
X90043000Y-73513000D01*
X90297000Y-73513000D01*
X90297000Y-73533000D01*
X91490155Y-73533000D01*
X91611476Y-73303110D01*
X91566825Y-73155901D01*
X91441641Y-72893080D01*
X91267588Y-72659731D01*
X91051355Y-72464822D01*
X90934477Y-72395201D01*
X90999014Y-72360706D01*
X91225134Y-72175134D01*
X91410706Y-71949014D01*
X91548599Y-71691034D01*
X91633513Y-71411111D01*
X91662185Y-71120000D01*
X91633513Y-70828889D01*
X91548599Y-70548966D01*
X91410706Y-70290986D01*
X91225134Y-70064866D01*
X90999014Y-69879294D01*
X90944209Y-69850000D01*
X90999014Y-69820706D01*
X91225134Y-69635134D01*
X91410706Y-69409014D01*
X91548599Y-69151034D01*
X91633513Y-68871111D01*
X91662185Y-68580000D01*
X91633513Y-68288889D01*
X91548599Y-68008966D01*
X91410706Y-67750986D01*
X91225134Y-67524866D01*
X90999014Y-67339294D01*
X90944209Y-67310000D01*
X90999014Y-67280706D01*
X91225134Y-67095134D01*
X91410706Y-66869014D01*
X91548599Y-66611034D01*
X91633513Y-66331111D01*
X91662185Y-66040000D01*
X92487815Y-66040000D01*
X92516487Y-66331111D01*
X92601401Y-66611034D01*
X92739294Y-66869014D01*
X92924866Y-67095134D01*
X93150986Y-67280706D01*
X93205791Y-67310000D01*
X93150986Y-67339294D01*
X92924866Y-67524866D01*
X92739294Y-67750986D01*
X92601401Y-68008966D01*
X92516487Y-68288889D01*
X92487815Y-68580000D01*
X92516487Y-68871111D01*
X92601401Y-69151034D01*
X92739294Y-69409014D01*
X92924866Y-69635134D01*
X93150986Y-69820706D01*
X93205791Y-69850000D01*
X93150986Y-69879294D01*
X92924866Y-70064866D01*
X92739294Y-70290986D01*
X92601401Y-70548966D01*
X92516487Y-70828889D01*
X92487815Y-71120000D01*
X92516487Y-71411111D01*
X92601401Y-71691034D01*
X92739294Y-71949014D01*
X92924866Y-72175134D01*
X93150986Y-72360706D01*
X93215523Y-72395201D01*
X93098645Y-72464822D01*
X92882412Y-72659731D01*
X92708359Y-72893080D01*
X92583175Y-73155901D01*
X92538524Y-73303110D01*
X92659845Y-73533000D01*
X93853000Y-73533000D01*
X93853000Y-73513000D01*
X94107000Y-73513000D01*
X94107000Y-73533000D01*
X96393000Y-73533000D01*
X96393000Y-73513000D01*
X96647000Y-73513000D01*
X96647000Y-73533000D01*
X97840155Y-73533000D01*
X97961476Y-73303110D01*
X97916825Y-73155901D01*
X97791641Y-72893080D01*
X97617588Y-72659731D01*
X97401355Y-72464822D01*
X97284477Y-72395201D01*
X97349014Y-72360706D01*
X97575134Y-72175134D01*
X97760706Y-71949014D01*
X97898599Y-71691034D01*
X97983513Y-71411111D01*
X98012185Y-71120000D01*
X97983513Y-70828889D01*
X97898599Y-70548966D01*
X97760706Y-70290986D01*
X97575134Y-70064866D01*
X97349014Y-69879294D01*
X97294209Y-69850000D01*
X97349014Y-69820706D01*
X97575134Y-69635134D01*
X97760706Y-69409014D01*
X97898599Y-69151034D01*
X97983513Y-68871111D01*
X98012185Y-68580000D01*
X97983513Y-68288889D01*
X97898599Y-68008966D01*
X97760706Y-67750986D01*
X97575134Y-67524866D01*
X97349014Y-67339294D01*
X97294209Y-67310000D01*
X97349014Y-67280706D01*
X97575134Y-67095134D01*
X97760706Y-66869014D01*
X97898599Y-66611034D01*
X97983513Y-66331111D01*
X98012185Y-66040000D01*
X119157815Y-66040000D01*
X119186487Y-66331111D01*
X119271401Y-66611034D01*
X119409294Y-66869014D01*
X119594866Y-67095134D01*
X119820986Y-67280706D01*
X119875791Y-67310000D01*
X119820986Y-67339294D01*
X119594866Y-67524866D01*
X119409294Y-67750986D01*
X119271401Y-68008966D01*
X119186487Y-68288889D01*
X119157815Y-68580000D01*
X119186487Y-68871111D01*
X119271401Y-69151034D01*
X119409294Y-69409014D01*
X119594866Y-69635134D01*
X119820986Y-69820706D01*
X119875791Y-69850000D01*
X119820986Y-69879294D01*
X119594866Y-70064866D01*
X119409294Y-70290986D01*
X119271401Y-70548966D01*
X119186487Y-70828889D01*
X119157815Y-71120000D01*
X119186487Y-71411111D01*
X119271401Y-71691034D01*
X119409294Y-71949014D01*
X119594866Y-72175134D01*
X119820986Y-72360706D01*
X119885523Y-72395201D01*
X119768645Y-72464822D01*
X119552412Y-72659731D01*
X119378359Y-72893080D01*
X119253175Y-73155901D01*
X119208524Y-73303110D01*
X119329845Y-73533000D01*
X120523000Y-73533000D01*
X120523000Y-73513000D01*
X120777000Y-73513000D01*
X120777000Y-73533000D01*
X123063000Y-73533000D01*
X123063000Y-73513000D01*
X123317000Y-73513000D01*
X123317000Y-73533000D01*
X124510155Y-73533000D01*
X124631476Y-73303110D01*
X124586825Y-73155901D01*
X124461641Y-72893080D01*
X124287588Y-72659731D01*
X124071355Y-72464822D01*
X123954477Y-72395201D01*
X124019014Y-72360706D01*
X124245134Y-72175134D01*
X124430706Y-71949014D01*
X124568599Y-71691034D01*
X124653513Y-71411111D01*
X124682185Y-71120000D01*
X124653513Y-70828889D01*
X124568599Y-70548966D01*
X124430706Y-70290986D01*
X124245134Y-70064866D01*
X124019014Y-69879294D01*
X123964209Y-69850000D01*
X124019014Y-69820706D01*
X124245134Y-69635134D01*
X124430706Y-69409014D01*
X124568599Y-69151034D01*
X124653513Y-68871111D01*
X124682185Y-68580000D01*
X124653513Y-68288889D01*
X124568599Y-68008966D01*
X124430706Y-67750986D01*
X124245134Y-67524866D01*
X124019014Y-67339294D01*
X123964209Y-67310000D01*
X124019014Y-67280706D01*
X124245134Y-67095134D01*
X124430706Y-66869014D01*
X124568599Y-66611034D01*
X124653513Y-66331111D01*
X124682185Y-66040000D01*
X145827815Y-66040000D01*
X145856487Y-66331111D01*
X145941401Y-66611034D01*
X146079294Y-66869014D01*
X146264866Y-67095134D01*
X146490986Y-67280706D01*
X146545791Y-67310000D01*
X146490986Y-67339294D01*
X146264866Y-67524866D01*
X146079294Y-67750986D01*
X145941401Y-68008966D01*
X145856487Y-68288889D01*
X145827815Y-68580000D01*
X145856487Y-68871111D01*
X145941401Y-69151034D01*
X146079294Y-69409014D01*
X146264866Y-69635134D01*
X146490986Y-69820706D01*
X146545791Y-69850000D01*
X146490986Y-69879294D01*
X146264866Y-70064866D01*
X146079294Y-70290986D01*
X145941401Y-70548966D01*
X145856487Y-70828889D01*
X145827815Y-71120000D01*
X145856487Y-71411111D01*
X145941401Y-71691034D01*
X146079294Y-71949014D01*
X146264866Y-72175134D01*
X146490986Y-72360706D01*
X146555523Y-72395201D01*
X146438645Y-72464822D01*
X146222412Y-72659731D01*
X146048359Y-72893080D01*
X145923175Y-73155901D01*
X145878524Y-73303110D01*
X145999845Y-73533000D01*
X147193000Y-73533000D01*
X147193000Y-73513000D01*
X147447000Y-73513000D01*
X147447000Y-73533000D01*
X149733000Y-73533000D01*
X149733000Y-73513000D01*
X149987000Y-73513000D01*
X149987000Y-73533000D01*
X151180155Y-73533000D01*
X151301476Y-73303110D01*
X151256825Y-73155901D01*
X151131641Y-72893080D01*
X150957588Y-72659731D01*
X150741355Y-72464822D01*
X150624477Y-72395201D01*
X150689014Y-72360706D01*
X150915134Y-72175134D01*
X151100706Y-71949014D01*
X151238599Y-71691034D01*
X151323513Y-71411111D01*
X151352185Y-71120000D01*
X151323513Y-70828889D01*
X151238599Y-70548966D01*
X151100706Y-70290986D01*
X150915134Y-70064866D01*
X150689014Y-69879294D01*
X150634209Y-69850000D01*
X150689014Y-69820706D01*
X150915134Y-69635134D01*
X151100706Y-69409014D01*
X151238599Y-69151034D01*
X151323513Y-68871111D01*
X151352185Y-68580000D01*
X151323513Y-68288889D01*
X151238599Y-68008966D01*
X151100706Y-67750986D01*
X150915134Y-67524866D01*
X150689014Y-67339294D01*
X150634209Y-67310000D01*
X150689014Y-67280706D01*
X150915134Y-67095134D01*
X151100706Y-66869014D01*
X151238599Y-66611034D01*
X151323513Y-66331111D01*
X151352185Y-66040000D01*
X152177815Y-66040000D01*
X152206487Y-66331111D01*
X152291401Y-66611034D01*
X152429294Y-66869014D01*
X152614866Y-67095134D01*
X152840986Y-67280706D01*
X152895791Y-67310000D01*
X152840986Y-67339294D01*
X152614866Y-67524866D01*
X152429294Y-67750986D01*
X152291401Y-68008966D01*
X152206487Y-68288889D01*
X152177815Y-68580000D01*
X152206487Y-68871111D01*
X152291401Y-69151034D01*
X152429294Y-69409014D01*
X152614866Y-69635134D01*
X152840986Y-69820706D01*
X152895791Y-69850000D01*
X152840986Y-69879294D01*
X152614866Y-70064866D01*
X152429294Y-70290986D01*
X152291401Y-70548966D01*
X152206487Y-70828889D01*
X152177815Y-71120000D01*
X152206487Y-71411111D01*
X152291401Y-71691034D01*
X152429294Y-71949014D01*
X152614866Y-72175134D01*
X152840986Y-72360706D01*
X152905523Y-72395201D01*
X152788645Y-72464822D01*
X152572412Y-72659731D01*
X152398359Y-72893080D01*
X152273175Y-73155901D01*
X152228524Y-73303110D01*
X152349845Y-73533000D01*
X153543000Y-73533000D01*
X153543000Y-73513000D01*
X153797000Y-73513000D01*
X153797000Y-73533000D01*
X156083000Y-73533000D01*
X156083000Y-73513000D01*
X156337000Y-73513000D01*
X156337000Y-73533000D01*
X157530155Y-73533000D01*
X157651476Y-73303110D01*
X157606825Y-73155901D01*
X157481641Y-72893080D01*
X157307588Y-72659731D01*
X157091355Y-72464822D01*
X156974477Y-72395201D01*
X157039014Y-72360706D01*
X157265134Y-72175134D01*
X157450706Y-71949014D01*
X157588599Y-71691034D01*
X157673513Y-71411111D01*
X157702185Y-71120000D01*
X157673513Y-70828889D01*
X157588599Y-70548966D01*
X157450706Y-70290986D01*
X157265134Y-70064866D01*
X157039014Y-69879294D01*
X156984209Y-69850000D01*
X157039014Y-69820706D01*
X157265134Y-69635134D01*
X157450706Y-69409014D01*
X157588599Y-69151034D01*
X157673513Y-68871111D01*
X157702185Y-68580000D01*
X157673513Y-68288889D01*
X157588599Y-68008966D01*
X157450706Y-67750986D01*
X157265134Y-67524866D01*
X157039014Y-67339294D01*
X156984209Y-67310000D01*
X157039014Y-67280706D01*
X157265134Y-67095134D01*
X157450706Y-66869014D01*
X157588599Y-66611034D01*
X157673513Y-66331111D01*
X157702185Y-66040000D01*
X157673513Y-65748889D01*
X157588599Y-65468966D01*
X157450706Y-65210986D01*
X157265134Y-64984866D01*
X157039014Y-64799294D01*
X156974477Y-64764799D01*
X157091355Y-64695178D01*
X157307588Y-64500269D01*
X157481641Y-64266920D01*
X157606825Y-64004099D01*
X157651476Y-63856890D01*
X157530155Y-63627000D01*
X156337000Y-63627000D01*
X156337000Y-63647000D01*
X156083000Y-63647000D01*
X156083000Y-63627000D01*
X153797000Y-63627000D01*
X153797000Y-63647000D01*
X153543000Y-63647000D01*
X153543000Y-63627000D01*
X152343750Y-63627000D01*
X152185000Y-63785750D01*
X152181928Y-64350000D01*
X152194188Y-64474482D01*
X152230498Y-64594180D01*
X152289463Y-64704494D01*
X152368815Y-64801185D01*
X152465506Y-64880537D01*
X152575820Y-64939502D01*
X152644687Y-64960393D01*
X152614866Y-64984866D01*
X152429294Y-65210986D01*
X152291401Y-65468966D01*
X152206487Y-65748889D01*
X152177815Y-66040000D01*
X151352185Y-66040000D01*
X151323513Y-65748889D01*
X151238599Y-65468966D01*
X151100706Y-65210986D01*
X150915134Y-64984866D01*
X150689014Y-64799294D01*
X150624477Y-64764799D01*
X150741355Y-64695178D01*
X150957588Y-64500269D01*
X151131641Y-64266920D01*
X151256825Y-64004099D01*
X151301476Y-63856890D01*
X151180155Y-63627000D01*
X149987000Y-63627000D01*
X149987000Y-63647000D01*
X149733000Y-63647000D01*
X149733000Y-63627000D01*
X147447000Y-63627000D01*
X147447000Y-63647000D01*
X147193000Y-63647000D01*
X147193000Y-63627000D01*
X145993750Y-63627000D01*
X145835000Y-63785750D01*
X145831928Y-64350000D01*
X145844188Y-64474482D01*
X145880498Y-64594180D01*
X145939463Y-64704494D01*
X146018815Y-64801185D01*
X146115506Y-64880537D01*
X146225820Y-64939502D01*
X146294687Y-64960393D01*
X146264866Y-64984866D01*
X146079294Y-65210986D01*
X145941401Y-65468966D01*
X145856487Y-65748889D01*
X145827815Y-66040000D01*
X124682185Y-66040000D01*
X124653513Y-65748889D01*
X124568599Y-65468966D01*
X124430706Y-65210986D01*
X124245134Y-64984866D01*
X124019014Y-64799294D01*
X123954477Y-64764799D01*
X124071355Y-64695178D01*
X124287588Y-64500269D01*
X124461641Y-64266920D01*
X124586825Y-64004099D01*
X124631476Y-63856890D01*
X124510155Y-63627000D01*
X123317000Y-63627000D01*
X123317000Y-63647000D01*
X123063000Y-63647000D01*
X123063000Y-63627000D01*
X120777000Y-63627000D01*
X120777000Y-63647000D01*
X120523000Y-63647000D01*
X120523000Y-63627000D01*
X119323750Y-63627000D01*
X119165000Y-63785750D01*
X119161928Y-64350000D01*
X119174188Y-64474482D01*
X119210498Y-64594180D01*
X119269463Y-64704494D01*
X119348815Y-64801185D01*
X119445506Y-64880537D01*
X119555820Y-64939502D01*
X119624687Y-64960393D01*
X119594866Y-64984866D01*
X119409294Y-65210986D01*
X119271401Y-65468966D01*
X119186487Y-65748889D01*
X119157815Y-66040000D01*
X98012185Y-66040000D01*
X97983513Y-65748889D01*
X97898599Y-65468966D01*
X97760706Y-65210986D01*
X97575134Y-64984866D01*
X97349014Y-64799294D01*
X97284477Y-64764799D01*
X97401355Y-64695178D01*
X97617588Y-64500269D01*
X97791641Y-64266920D01*
X97916825Y-64004099D01*
X97961476Y-63856890D01*
X97840155Y-63627000D01*
X96647000Y-63627000D01*
X96647000Y-63647000D01*
X96393000Y-63647000D01*
X96393000Y-63627000D01*
X94107000Y-63627000D01*
X94107000Y-63647000D01*
X93853000Y-63647000D01*
X93853000Y-63627000D01*
X92653750Y-63627000D01*
X92495000Y-63785750D01*
X92491928Y-64350000D01*
X92504188Y-64474482D01*
X92540498Y-64594180D01*
X92599463Y-64704494D01*
X92678815Y-64801185D01*
X92775506Y-64880537D01*
X92885820Y-64939502D01*
X92954687Y-64960393D01*
X92924866Y-64984866D01*
X92739294Y-65210986D01*
X92601401Y-65468966D01*
X92516487Y-65748889D01*
X92487815Y-66040000D01*
X91662185Y-66040000D01*
X91633513Y-65748889D01*
X91548599Y-65468966D01*
X91410706Y-65210986D01*
X91225134Y-64984866D01*
X90999014Y-64799294D01*
X90934477Y-64764799D01*
X91051355Y-64695178D01*
X91267588Y-64500269D01*
X91441641Y-64266920D01*
X91566825Y-64004099D01*
X91611476Y-63856890D01*
X91490155Y-63627000D01*
X90297000Y-63627000D01*
X90297000Y-63647000D01*
X90043000Y-63647000D01*
X90043000Y-63627000D01*
X87757000Y-63627000D01*
X87757000Y-63647000D01*
X87503000Y-63647000D01*
X87503000Y-63627000D01*
X86303750Y-63627000D01*
X86145000Y-63785750D01*
X86141928Y-64350000D01*
X86154188Y-64474482D01*
X86190498Y-64594180D01*
X86249463Y-64704494D01*
X86328815Y-64801185D01*
X86425506Y-64880537D01*
X86535820Y-64939502D01*
X86604687Y-64960393D01*
X86574866Y-64984866D01*
X86389294Y-65210986D01*
X86251401Y-65468966D01*
X86166487Y-65748889D01*
X86137815Y-66040000D01*
X83845000Y-66040000D01*
X83845000Y-62650000D01*
X86141928Y-62650000D01*
X86145000Y-63214250D01*
X86303750Y-63373000D01*
X87503000Y-63373000D01*
X87503000Y-62173750D01*
X87757000Y-62173750D01*
X87757000Y-63373000D01*
X90043000Y-63373000D01*
X90043000Y-62179186D01*
X90297000Y-62179186D01*
X90297000Y-63373000D01*
X91490155Y-63373000D01*
X91611476Y-63143110D01*
X91566825Y-62995901D01*
X91441641Y-62733080D01*
X91379673Y-62650000D01*
X92491928Y-62650000D01*
X92495000Y-63214250D01*
X92653750Y-63373000D01*
X93853000Y-63373000D01*
X93853000Y-62173750D01*
X94107000Y-62173750D01*
X94107000Y-63373000D01*
X96393000Y-63373000D01*
X96393000Y-62179186D01*
X96647000Y-62179186D01*
X96647000Y-63373000D01*
X97840155Y-63373000D01*
X97961476Y-63143110D01*
X97916825Y-62995901D01*
X97791641Y-62733080D01*
X97729673Y-62650000D01*
X119161928Y-62650000D01*
X119165000Y-63214250D01*
X119323750Y-63373000D01*
X120523000Y-63373000D01*
X120523000Y-62173750D01*
X120777000Y-62173750D01*
X120777000Y-63373000D01*
X123063000Y-63373000D01*
X123063000Y-62179186D01*
X123317000Y-62179186D01*
X123317000Y-63373000D01*
X124510155Y-63373000D01*
X124631476Y-63143110D01*
X124586825Y-62995901D01*
X124461641Y-62733080D01*
X124399673Y-62650000D01*
X145831928Y-62650000D01*
X145835000Y-63214250D01*
X145993750Y-63373000D01*
X147193000Y-63373000D01*
X147193000Y-62173750D01*
X147447000Y-62173750D01*
X147447000Y-63373000D01*
X149733000Y-63373000D01*
X149733000Y-62179186D01*
X149987000Y-62179186D01*
X149987000Y-63373000D01*
X151180155Y-63373000D01*
X151301476Y-63143110D01*
X151256825Y-62995901D01*
X151131641Y-62733080D01*
X151069673Y-62650000D01*
X152181928Y-62650000D01*
X152185000Y-63214250D01*
X152343750Y-63373000D01*
X153543000Y-63373000D01*
X153543000Y-62173750D01*
X153797000Y-62173750D01*
X153797000Y-63373000D01*
X156083000Y-63373000D01*
X156083000Y-62179186D01*
X156337000Y-62179186D01*
X156337000Y-63373000D01*
X157530155Y-63373000D01*
X157651476Y-63143110D01*
X157606825Y-62995901D01*
X157481641Y-62733080D01*
X157307588Y-62499731D01*
X157091355Y-62304822D01*
X156841252Y-62155843D01*
X156566891Y-62058519D01*
X156337000Y-62179186D01*
X156083000Y-62179186D01*
X155853109Y-62058519D01*
X155578748Y-62155843D01*
X155328645Y-62304822D01*
X155132498Y-62481626D01*
X155109502Y-62405820D01*
X155050537Y-62295506D01*
X154971185Y-62198815D01*
X154874494Y-62119463D01*
X154764180Y-62060498D01*
X154644482Y-62024188D01*
X154520000Y-62011928D01*
X153955750Y-62015000D01*
X153797000Y-62173750D01*
X153543000Y-62173750D01*
X153384250Y-62015000D01*
X152820000Y-62011928D01*
X152695518Y-62024188D01*
X152575820Y-62060498D01*
X152465506Y-62119463D01*
X152368815Y-62198815D01*
X152289463Y-62295506D01*
X152230498Y-62405820D01*
X152194188Y-62525518D01*
X152181928Y-62650000D01*
X151069673Y-62650000D01*
X150957588Y-62499731D01*
X150741355Y-62304822D01*
X150491252Y-62155843D01*
X150216891Y-62058519D01*
X149987000Y-62179186D01*
X149733000Y-62179186D01*
X149503109Y-62058519D01*
X149228748Y-62155843D01*
X148978645Y-62304822D01*
X148782498Y-62481626D01*
X148759502Y-62405820D01*
X148700537Y-62295506D01*
X148621185Y-62198815D01*
X148524494Y-62119463D01*
X148414180Y-62060498D01*
X148294482Y-62024188D01*
X148170000Y-62011928D01*
X147605750Y-62015000D01*
X147447000Y-62173750D01*
X147193000Y-62173750D01*
X147034250Y-62015000D01*
X146470000Y-62011928D01*
X146345518Y-62024188D01*
X146225820Y-62060498D01*
X146115506Y-62119463D01*
X146018815Y-62198815D01*
X145939463Y-62295506D01*
X145880498Y-62405820D01*
X145844188Y-62525518D01*
X145831928Y-62650000D01*
X124399673Y-62650000D01*
X124287588Y-62499731D01*
X124071355Y-62304822D01*
X123821252Y-62155843D01*
X123546891Y-62058519D01*
X123317000Y-62179186D01*
X123063000Y-62179186D01*
X122833109Y-62058519D01*
X122558748Y-62155843D01*
X122308645Y-62304822D01*
X122112498Y-62481626D01*
X122089502Y-62405820D01*
X122030537Y-62295506D01*
X121951185Y-62198815D01*
X121854494Y-62119463D01*
X121744180Y-62060498D01*
X121624482Y-62024188D01*
X121500000Y-62011928D01*
X120935750Y-62015000D01*
X120777000Y-62173750D01*
X120523000Y-62173750D01*
X120364250Y-62015000D01*
X119800000Y-62011928D01*
X119675518Y-62024188D01*
X119555820Y-62060498D01*
X119445506Y-62119463D01*
X119348815Y-62198815D01*
X119269463Y-62295506D01*
X119210498Y-62405820D01*
X119174188Y-62525518D01*
X119161928Y-62650000D01*
X97729673Y-62650000D01*
X97617588Y-62499731D01*
X97401355Y-62304822D01*
X97151252Y-62155843D01*
X96876891Y-62058519D01*
X96647000Y-62179186D01*
X96393000Y-62179186D01*
X96163109Y-62058519D01*
X95888748Y-62155843D01*
X95638645Y-62304822D01*
X95442498Y-62481626D01*
X95419502Y-62405820D01*
X95360537Y-62295506D01*
X95281185Y-62198815D01*
X95184494Y-62119463D01*
X95074180Y-62060498D01*
X94954482Y-62024188D01*
X94830000Y-62011928D01*
X94265750Y-62015000D01*
X94107000Y-62173750D01*
X93853000Y-62173750D01*
X93694250Y-62015000D01*
X93130000Y-62011928D01*
X93005518Y-62024188D01*
X92885820Y-62060498D01*
X92775506Y-62119463D01*
X92678815Y-62198815D01*
X92599463Y-62295506D01*
X92540498Y-62405820D01*
X92504188Y-62525518D01*
X92491928Y-62650000D01*
X91379673Y-62650000D01*
X91267588Y-62499731D01*
X91051355Y-62304822D01*
X90801252Y-62155843D01*
X90526891Y-62058519D01*
X90297000Y-62179186D01*
X90043000Y-62179186D01*
X89813109Y-62058519D01*
X89538748Y-62155843D01*
X89288645Y-62304822D01*
X89092498Y-62481626D01*
X89069502Y-62405820D01*
X89010537Y-62295506D01*
X88931185Y-62198815D01*
X88834494Y-62119463D01*
X88724180Y-62060498D01*
X88604482Y-62024188D01*
X88480000Y-62011928D01*
X87915750Y-62015000D01*
X87757000Y-62173750D01*
X87503000Y-62173750D01*
X87344250Y-62015000D01*
X86780000Y-62011928D01*
X86655518Y-62024188D01*
X86535820Y-62060498D01*
X86425506Y-62119463D01*
X86328815Y-62198815D01*
X86249463Y-62295506D01*
X86190498Y-62405820D01*
X86154188Y-62525518D01*
X86141928Y-62650000D01*
X83845000Y-62650000D01*
X83845000Y-49852290D01*
X85725000Y-49852290D01*
X85725000Y-50477710D01*
X85847014Y-51091113D01*
X86086352Y-51668926D01*
X86433817Y-52188944D01*
X86876056Y-52631183D01*
X87396074Y-52978648D01*
X87973887Y-53217986D01*
X88587290Y-53340000D01*
X89212710Y-53340000D01*
X89826113Y-53217986D01*
X90403926Y-52978648D01*
X90923944Y-52631183D01*
X91366183Y-52188944D01*
X91713648Y-51668926D01*
X91952986Y-51091113D01*
X92075000Y-50477710D01*
X92075000Y-49852290D01*
X118745000Y-49852290D01*
X118745000Y-50477710D01*
X118867014Y-51091113D01*
X119106352Y-51668926D01*
X119453817Y-52188944D01*
X119896056Y-52631183D01*
X120416074Y-52978648D01*
X120993887Y-53217986D01*
X121607290Y-53340000D01*
X122232710Y-53340000D01*
X122846113Y-53217986D01*
X123423926Y-52978648D01*
X123943944Y-52631183D01*
X124386183Y-52188944D01*
X124733648Y-51668926D01*
X124972986Y-51091113D01*
X125095000Y-50477710D01*
X125095000Y-49852290D01*
X151765000Y-49852290D01*
X151765000Y-50477710D01*
X151887014Y-51091113D01*
X152126352Y-51668926D01*
X152473817Y-52188944D01*
X152916056Y-52631183D01*
X153436074Y-52978648D01*
X154013887Y-53217986D01*
X154627290Y-53340000D01*
X155252710Y-53340000D01*
X155866113Y-53217986D01*
X156443926Y-52978648D01*
X156963944Y-52631183D01*
X157406183Y-52188944D01*
X157753648Y-51668926D01*
X157992986Y-51091113D01*
X158115000Y-50477710D01*
X158115000Y-49852290D01*
X157992986Y-49238887D01*
X157753648Y-48661074D01*
X157406183Y-48141056D01*
X156963944Y-47698817D01*
X156443926Y-47351352D01*
X155866113Y-47112014D01*
X155252710Y-46990000D01*
X154627290Y-46990000D01*
X154013887Y-47112014D01*
X153436074Y-47351352D01*
X152916056Y-47698817D01*
X152473817Y-48141056D01*
X152126352Y-48661074D01*
X151887014Y-49238887D01*
X151765000Y-49852290D01*
X125095000Y-49852290D01*
X124972986Y-49238887D01*
X124733648Y-48661074D01*
X124386183Y-48141056D01*
X123943944Y-47698817D01*
X123423926Y-47351352D01*
X122846113Y-47112014D01*
X122232710Y-46990000D01*
X121607290Y-46990000D01*
X120993887Y-47112014D01*
X120416074Y-47351352D01*
X119896056Y-47698817D01*
X119453817Y-48141056D01*
X119106352Y-48661074D01*
X118867014Y-49238887D01*
X118745000Y-49852290D01*
X92075000Y-49852290D01*
X91952986Y-49238887D01*
X91713648Y-48661074D01*
X91366183Y-48141056D01*
X90923944Y-47698817D01*
X90403926Y-47351352D01*
X89826113Y-47112014D01*
X89212710Y-46990000D01*
X88587290Y-46990000D01*
X87973887Y-47112014D01*
X87396074Y-47351352D01*
X86876056Y-47698817D01*
X86433817Y-48141056D01*
X86086352Y-48661074D01*
X85847014Y-49238887D01*
X85725000Y-49852290D01*
X83845000Y-49852290D01*
X83845000Y-46380000D01*
X159995001Y-46380000D01*
X159995000Y-144120000D01*
M02*
