G04 #@! TF.GenerationSoftware,KiCad,Pcbnew,(5.1.4)-1*
G04 #@! TF.CreationDate,2022-01-22T16:02:53+02:00*
G04 #@! TF.ProjectId,Protoboardv2,50726f74-6f62-46f6-9172-6476322e6b69,rev?*
G04 #@! TF.SameCoordinates,Original*
G04 #@! TF.FileFunction,Legend,Bot*
G04 #@! TF.FilePolarity,Positive*
%FSLAX46Y46*%
G04 Gerber Fmt 4.6, Leading zero omitted, Abs format (unit mm)*
G04 Created by KiCad (PCBNEW (5.1.4)-1) date 2022-01-22 16:02:53*
%MOMM*%
%LPD*%
G04 APERTURE LIST*
%ADD10C,0.152400*%
%ADD11C,0.300000*%
G04 APERTURE END LIST*
D10*
X142663333Y-132920619D02*
X142663333Y-133646333D01*
X142711714Y-133791476D01*
X142808476Y-133888238D01*
X142953619Y-133936619D01*
X143050380Y-133936619D01*
X141744095Y-133936619D02*
X141744095Y-133404428D01*
X141792476Y-133307666D01*
X141889238Y-133259285D01*
X142082761Y-133259285D01*
X142179523Y-133307666D01*
X141744095Y-133888238D02*
X141840857Y-133936619D01*
X142082761Y-133936619D01*
X142179523Y-133888238D01*
X142227904Y-133791476D01*
X142227904Y-133694714D01*
X142179523Y-133597952D01*
X142082761Y-133549571D01*
X141840857Y-133549571D01*
X141744095Y-133501190D01*
X141260285Y-133259285D02*
X141260285Y-133936619D01*
X141260285Y-133356047D02*
X141211904Y-133307666D01*
X141115142Y-133259285D01*
X140970000Y-133259285D01*
X140873238Y-133307666D01*
X140824857Y-133404428D01*
X140824857Y-133936619D01*
X139905619Y-133259285D02*
X139905619Y-133936619D01*
X140341047Y-133259285D02*
X140341047Y-133791476D01*
X140292666Y-133888238D01*
X140195904Y-133936619D01*
X140050761Y-133936619D01*
X139954000Y-133888238D01*
X139905619Y-133839857D01*
X138986380Y-133936619D02*
X138986380Y-133404428D01*
X139034761Y-133307666D01*
X139131523Y-133259285D01*
X139325047Y-133259285D01*
X139421809Y-133307666D01*
X138986380Y-133888238D02*
X139083142Y-133936619D01*
X139325047Y-133936619D01*
X139421809Y-133888238D01*
X139470190Y-133791476D01*
X139470190Y-133694714D01*
X139421809Y-133597952D01*
X139325047Y-133549571D01*
X139083142Y-133549571D01*
X138986380Y-133501190D01*
X138502571Y-133936619D02*
X138502571Y-133259285D01*
X138502571Y-133452809D02*
X138454190Y-133356047D01*
X138405809Y-133307666D01*
X138309047Y-133259285D01*
X138212285Y-133259285D01*
X137970380Y-133259285D02*
X137728476Y-133936619D01*
X137486571Y-133259285D02*
X137728476Y-133936619D01*
X137825238Y-134178523D01*
X137873619Y-134226904D01*
X137970380Y-134275285D01*
X136373809Y-132872238D02*
X137244666Y-134178523D01*
X136083523Y-133017380D02*
X136035142Y-132969000D01*
X135938380Y-132920619D01*
X135696476Y-132920619D01*
X135599714Y-132969000D01*
X135551333Y-133017380D01*
X135502952Y-133114142D01*
X135502952Y-133210904D01*
X135551333Y-133356047D01*
X136131904Y-133936619D01*
X135502952Y-133936619D01*
X134874000Y-132920619D02*
X134777238Y-132920619D01*
X134680476Y-132969000D01*
X134632095Y-133017380D01*
X134583714Y-133114142D01*
X134535333Y-133307666D01*
X134535333Y-133549571D01*
X134583714Y-133743095D01*
X134632095Y-133839857D01*
X134680476Y-133888238D01*
X134777238Y-133936619D01*
X134874000Y-133936619D01*
X134970761Y-133888238D01*
X135019142Y-133839857D01*
X135067523Y-133743095D01*
X135115904Y-133549571D01*
X135115904Y-133307666D01*
X135067523Y-133114142D01*
X135019142Y-133017380D01*
X134970761Y-132969000D01*
X134874000Y-132920619D01*
X134148285Y-133017380D02*
X134099904Y-132969000D01*
X134003142Y-132920619D01*
X133761238Y-132920619D01*
X133664476Y-132969000D01*
X133616095Y-133017380D01*
X133567714Y-133114142D01*
X133567714Y-133210904D01*
X133616095Y-133356047D01*
X134196666Y-133936619D01*
X133567714Y-133936619D01*
X132600095Y-133936619D02*
X133180666Y-133936619D01*
X132890380Y-133936619D02*
X132890380Y-132920619D01*
X132987142Y-133065761D01*
X133083904Y-133162523D01*
X133180666Y-133210904D01*
X131390571Y-133549571D02*
X130616476Y-133549571D01*
X129019904Y-133404428D02*
X128874761Y-133452809D01*
X128826380Y-133501190D01*
X128778000Y-133597952D01*
X128778000Y-133743095D01*
X128826380Y-133839857D01*
X128874761Y-133888238D01*
X128971523Y-133936619D01*
X129358571Y-133936619D01*
X129358571Y-132920619D01*
X129019904Y-132920619D01*
X128923142Y-132969000D01*
X128874761Y-133017380D01*
X128826380Y-133114142D01*
X128826380Y-133210904D01*
X128874761Y-133307666D01*
X128923142Y-133356047D01*
X129019904Y-133404428D01*
X129358571Y-133404428D01*
X128439333Y-133259285D02*
X128197428Y-133936619D01*
X127955523Y-133259285D02*
X128197428Y-133936619D01*
X128294190Y-134178523D01*
X128342571Y-134226904D01*
X128439333Y-134275285D01*
X126794380Y-133936619D02*
X126794380Y-132920619D01*
X126213809Y-133936619D02*
X126649238Y-133356047D01*
X126213809Y-132920619D02*
X126794380Y-133501190D01*
X125342952Y-133936619D02*
X125342952Y-133404428D01*
X125391333Y-133307666D01*
X125488095Y-133259285D01*
X125681619Y-133259285D01*
X125778380Y-133307666D01*
X125342952Y-133888238D02*
X125439714Y-133936619D01*
X125681619Y-133936619D01*
X125778380Y-133888238D01*
X125826761Y-133791476D01*
X125826761Y-133694714D01*
X125778380Y-133597952D01*
X125681619Y-133549571D01*
X125439714Y-133549571D01*
X125342952Y-133501190D01*
X124714000Y-133936619D02*
X124810761Y-133888238D01*
X124859142Y-133791476D01*
X124859142Y-132920619D01*
X124472095Y-133259285D02*
X124085047Y-133259285D01*
X124326952Y-132920619D02*
X124326952Y-133791476D01*
X124278571Y-133888238D01*
X124181809Y-133936619D01*
X124085047Y-133936619D01*
X123310952Y-133888238D02*
X123407714Y-133936619D01*
X123601238Y-133936619D01*
X123698000Y-133888238D01*
X123746380Y-133839857D01*
X123794761Y-133743095D01*
X123794761Y-133452809D01*
X123746380Y-133356047D01*
X123698000Y-133307666D01*
X123601238Y-133259285D01*
X123407714Y-133259285D01*
X123310952Y-133307666D01*
X122875523Y-133936619D02*
X122875523Y-132920619D01*
X122440095Y-133936619D02*
X122440095Y-133404428D01*
X122488476Y-133307666D01*
X122585238Y-133259285D01*
X122730380Y-133259285D01*
X122827142Y-133307666D01*
X122875523Y-133356047D01*
X121520857Y-133259285D02*
X121520857Y-133936619D01*
X121956285Y-133259285D02*
X121956285Y-133791476D01*
X121907904Y-133888238D01*
X121811142Y-133936619D01*
X121666000Y-133936619D01*
X121569238Y-133888238D01*
X121520857Y-133839857D01*
X121037047Y-133936619D02*
X121037047Y-132920619D01*
X120940285Y-133549571D02*
X120650000Y-133936619D01*
X120650000Y-133259285D02*
X121037047Y-133646333D01*
D11*
X148921238Y-102157761D02*
X147587904Y-102157761D01*
X148921238Y-104157761D01*
X147587904Y-104157761D01*
X146540285Y-103014904D02*
X146730761Y-102919666D01*
X146826000Y-102824428D01*
X146921238Y-102633952D01*
X146921238Y-102538714D01*
X146826000Y-102348238D01*
X146730761Y-102253000D01*
X146540285Y-102157761D01*
X146159333Y-102157761D01*
X145968857Y-102253000D01*
X145873619Y-102348238D01*
X145778380Y-102538714D01*
X145778380Y-102633952D01*
X145873619Y-102824428D01*
X145968857Y-102919666D01*
X146159333Y-103014904D01*
X146540285Y-103014904D01*
X146730761Y-103110142D01*
X146826000Y-103205380D01*
X146921238Y-103395857D01*
X146921238Y-103776809D01*
X146826000Y-103967285D01*
X146730761Y-104062523D01*
X146540285Y-104157761D01*
X146159333Y-104157761D01*
X145968857Y-104062523D01*
X145873619Y-103967285D01*
X145778380Y-103776809D01*
X145778380Y-103395857D01*
X145873619Y-103205380D01*
X145968857Y-103110142D01*
X146159333Y-103014904D01*
X144540285Y-102157761D02*
X144349809Y-102157761D01*
X144159333Y-102253000D01*
X144064095Y-102348238D01*
X143968857Y-102538714D01*
X143873619Y-102919666D01*
X143873619Y-103395857D01*
X143968857Y-103776809D01*
X144064095Y-103967285D01*
X144159333Y-104062523D01*
X144349809Y-104157761D01*
X144540285Y-104157761D01*
X144730761Y-104062523D01*
X144826000Y-103967285D01*
X144921238Y-103776809D01*
X145016476Y-103395857D01*
X145016476Y-102919666D01*
X144921238Y-102538714D01*
X144826000Y-102348238D01*
X144730761Y-102253000D01*
X144540285Y-102157761D01*
X141492666Y-104157761D02*
X141492666Y-102157761D01*
X140826000Y-103586333D01*
X140159333Y-102157761D01*
X140159333Y-104157761D01*
X138921238Y-104157761D02*
X139111714Y-104062523D01*
X139206952Y-103967285D01*
X139302190Y-103776809D01*
X139302190Y-103205380D01*
X139206952Y-103014904D01*
X139111714Y-102919666D01*
X138921238Y-102824428D01*
X138635523Y-102824428D01*
X138445047Y-102919666D01*
X138349809Y-103014904D01*
X138254571Y-103205380D01*
X138254571Y-103776809D01*
X138349809Y-103967285D01*
X138445047Y-104062523D01*
X138635523Y-104157761D01*
X138921238Y-104157761D01*
X136540285Y-104157761D02*
X136540285Y-102157761D01*
X136540285Y-104062523D02*
X136730761Y-104157761D01*
X137111714Y-104157761D01*
X137302190Y-104062523D01*
X137397428Y-103967285D01*
X137492666Y-103776809D01*
X137492666Y-103205380D01*
X137397428Y-103014904D01*
X137302190Y-102919666D01*
X137111714Y-102824428D01*
X136730761Y-102824428D01*
X136540285Y-102919666D01*
X134730761Y-102824428D02*
X134730761Y-104157761D01*
X135587904Y-102824428D02*
X135587904Y-103872047D01*
X135492666Y-104062523D01*
X135302190Y-104157761D01*
X135016476Y-104157761D01*
X134826000Y-104062523D01*
X134730761Y-103967285D01*
X133492666Y-104157761D02*
X133683142Y-104062523D01*
X133778380Y-103872047D01*
X133778380Y-102157761D01*
X131873619Y-104157761D02*
X131873619Y-103110142D01*
X131968857Y-102919666D01*
X132159333Y-102824428D01*
X132540285Y-102824428D01*
X132730761Y-102919666D01*
X131873619Y-104062523D02*
X132064095Y-104157761D01*
X132540285Y-104157761D01*
X132730761Y-104062523D01*
X132826000Y-103872047D01*
X132826000Y-103681571D01*
X132730761Y-103491095D01*
X132540285Y-103395857D01*
X132064095Y-103395857D01*
X131873619Y-103300619D01*
X130921238Y-104157761D02*
X130921238Y-102824428D01*
X130921238Y-103205380D02*
X130826000Y-103014904D01*
X130730761Y-102919666D01*
X130540285Y-102824428D01*
X130349809Y-102824428D01*
X127016476Y-103967285D02*
X127111714Y-104062523D01*
X127397428Y-104157761D01*
X127587904Y-104157761D01*
X127873619Y-104062523D01*
X128064095Y-103872047D01*
X128159333Y-103681571D01*
X128254571Y-103300619D01*
X128254571Y-103014904D01*
X128159333Y-102633952D01*
X128064095Y-102443476D01*
X127873619Y-102253000D01*
X127587904Y-102157761D01*
X127397428Y-102157761D01*
X127111714Y-102253000D01*
X127016476Y-102348238D01*
X125873619Y-104157761D02*
X126064095Y-104062523D01*
X126159333Y-103967285D01*
X126254571Y-103776809D01*
X126254571Y-103205380D01*
X126159333Y-103014904D01*
X126064095Y-102919666D01*
X125873619Y-102824428D01*
X125587904Y-102824428D01*
X125397428Y-102919666D01*
X125302190Y-103014904D01*
X125206952Y-103205380D01*
X125206952Y-103776809D01*
X125302190Y-103967285D01*
X125397428Y-104062523D01*
X125587904Y-104157761D01*
X125873619Y-104157761D01*
X124349809Y-104157761D02*
X124349809Y-102824428D01*
X124349809Y-103014904D02*
X124254571Y-102919666D01*
X124064095Y-102824428D01*
X123778380Y-102824428D01*
X123587904Y-102919666D01*
X123492666Y-103110142D01*
X123492666Y-104157761D01*
X123492666Y-103110142D02*
X123397428Y-102919666D01*
X123206952Y-102824428D01*
X122921238Y-102824428D01*
X122730761Y-102919666D01*
X122635523Y-103110142D01*
X122635523Y-104157761D01*
X121683142Y-102824428D02*
X121683142Y-104824428D01*
X121683142Y-102919666D02*
X121492666Y-102824428D01*
X121111714Y-102824428D01*
X120921238Y-102919666D01*
X120826000Y-103014904D01*
X120730761Y-103205380D01*
X120730761Y-103776809D01*
X120826000Y-103967285D01*
X120921238Y-104062523D01*
X121111714Y-104157761D01*
X121492666Y-104157761D01*
X121683142Y-104062523D01*
X119016476Y-102824428D02*
X119016476Y-104157761D01*
X119873619Y-102824428D02*
X119873619Y-103872047D01*
X119778380Y-104062523D01*
X119587904Y-104157761D01*
X119302190Y-104157761D01*
X119111714Y-104062523D01*
X119016476Y-103967285D01*
X118349809Y-102824428D02*
X117587904Y-102824428D01*
X118064095Y-102157761D02*
X118064095Y-103872047D01*
X117968857Y-104062523D01*
X117778380Y-104157761D01*
X117587904Y-104157761D01*
X116159333Y-104062523D02*
X116349809Y-104157761D01*
X116730761Y-104157761D01*
X116921238Y-104062523D01*
X117016476Y-103872047D01*
X117016476Y-103110142D01*
X116921238Y-102919666D01*
X116730761Y-102824428D01*
X116349809Y-102824428D01*
X116159333Y-102919666D01*
X116064095Y-103110142D01*
X116064095Y-103300619D01*
X117016476Y-103491095D01*
X115206952Y-104157761D02*
X115206952Y-102824428D01*
X115206952Y-103205380D02*
X115111714Y-103014904D01*
X115016476Y-102919666D01*
X114826000Y-102824428D01*
X114635523Y-102824428D01*
X143587904Y-110757761D02*
X143587904Y-108757761D01*
X142826000Y-108757761D01*
X142635523Y-108853000D01*
X142540285Y-108948238D01*
X142445047Y-109138714D01*
X142445047Y-109424428D01*
X142540285Y-109614904D01*
X142635523Y-109710142D01*
X142826000Y-109805380D01*
X143587904Y-109805380D01*
X141587904Y-110757761D02*
X141587904Y-109424428D01*
X141587904Y-109805380D02*
X141492666Y-109614904D01*
X141397428Y-109519666D01*
X141206952Y-109424428D01*
X141016476Y-109424428D01*
X140064095Y-110757761D02*
X140254571Y-110662523D01*
X140349809Y-110567285D01*
X140445047Y-110376809D01*
X140445047Y-109805380D01*
X140349809Y-109614904D01*
X140254571Y-109519666D01*
X140064095Y-109424428D01*
X139778380Y-109424428D01*
X139587904Y-109519666D01*
X139492666Y-109614904D01*
X139397428Y-109805380D01*
X139397428Y-110376809D01*
X139492666Y-110567285D01*
X139587904Y-110662523D01*
X139778380Y-110757761D01*
X140064095Y-110757761D01*
X138826000Y-109424428D02*
X138064095Y-109424428D01*
X138540285Y-108757761D02*
X138540285Y-110472047D01*
X138445047Y-110662523D01*
X138254571Y-110757761D01*
X138064095Y-110757761D01*
X137111714Y-110757761D02*
X137302190Y-110662523D01*
X137397428Y-110567285D01*
X137492666Y-110376809D01*
X137492666Y-109805380D01*
X137397428Y-109614904D01*
X137302190Y-109519666D01*
X137111714Y-109424428D01*
X136826000Y-109424428D01*
X136635523Y-109519666D01*
X136540285Y-109614904D01*
X136445047Y-109805380D01*
X136445047Y-110376809D01*
X136540285Y-110567285D01*
X136635523Y-110662523D01*
X136826000Y-110757761D01*
X137111714Y-110757761D01*
X135587904Y-110757761D02*
X135587904Y-108757761D01*
X135587904Y-109519666D02*
X135397428Y-109424428D01*
X135016476Y-109424428D01*
X134826000Y-109519666D01*
X134730761Y-109614904D01*
X134635523Y-109805380D01*
X134635523Y-110376809D01*
X134730761Y-110567285D01*
X134826000Y-110662523D01*
X135016476Y-110757761D01*
X135397428Y-110757761D01*
X135587904Y-110662523D01*
X133492666Y-110757761D02*
X133683142Y-110662523D01*
X133778380Y-110567285D01*
X133873619Y-110376809D01*
X133873619Y-109805380D01*
X133778380Y-109614904D01*
X133683142Y-109519666D01*
X133492666Y-109424428D01*
X133206952Y-109424428D01*
X133016476Y-109519666D01*
X132921238Y-109614904D01*
X132826000Y-109805380D01*
X132826000Y-110376809D01*
X132921238Y-110567285D01*
X133016476Y-110662523D01*
X133206952Y-110757761D01*
X133492666Y-110757761D01*
X131111714Y-110757761D02*
X131111714Y-109710142D01*
X131206952Y-109519666D01*
X131397428Y-109424428D01*
X131778380Y-109424428D01*
X131968857Y-109519666D01*
X131111714Y-110662523D02*
X131302190Y-110757761D01*
X131778380Y-110757761D01*
X131968857Y-110662523D01*
X132064095Y-110472047D01*
X132064095Y-110281571D01*
X131968857Y-110091095D01*
X131778380Y-109995857D01*
X131302190Y-109995857D01*
X131111714Y-109900619D01*
X130159333Y-110757761D02*
X130159333Y-109424428D01*
X130159333Y-109805380D02*
X130064095Y-109614904D01*
X129968857Y-109519666D01*
X129778380Y-109424428D01*
X129587904Y-109424428D01*
X128064095Y-110757761D02*
X128064095Y-108757761D01*
X128064095Y-110662523D02*
X128254571Y-110757761D01*
X128635523Y-110757761D01*
X128826000Y-110662523D01*
X128921238Y-110567285D01*
X129016476Y-110376809D01*
X129016476Y-109805380D01*
X128921238Y-109614904D01*
X128826000Y-109519666D01*
X128635523Y-109424428D01*
X128254571Y-109424428D01*
X128064095Y-109519666D01*
X125873619Y-108757761D02*
X125206952Y-110757761D01*
X124540285Y-108757761D01*
X123968857Y-108948238D02*
X123873619Y-108853000D01*
X123683142Y-108757761D01*
X123206952Y-108757761D01*
X123016476Y-108853000D01*
X122921238Y-108948238D01*
X122826000Y-109138714D01*
X122826000Y-109329190D01*
X122921238Y-109614904D01*
X124064095Y-110757761D01*
X122826000Y-110757761D01*
X121968857Y-110567285D02*
X121873619Y-110662523D01*
X121968857Y-110757761D01*
X122064095Y-110662523D01*
X121968857Y-110567285D01*
X121968857Y-110757761D01*
X120635523Y-108757761D02*
X120445047Y-108757761D01*
X120254571Y-108853000D01*
X120159333Y-108948238D01*
X120064095Y-109138714D01*
X119968857Y-109519666D01*
X119968857Y-109995857D01*
X120064095Y-110376809D01*
X120159333Y-110567285D01*
X120254571Y-110662523D01*
X120445047Y-110757761D01*
X120635523Y-110757761D01*
X120826000Y-110662523D01*
X120921238Y-110567285D01*
X121016476Y-110376809D01*
X121111714Y-109995857D01*
X121111714Y-109519666D01*
X121016476Y-109138714D01*
X120921238Y-108948238D01*
X120826000Y-108853000D01*
X120635523Y-108757761D01*
D10*
X88978619Y-78552523D02*
X89994619Y-78891190D01*
X88978619Y-79229857D01*
X89994619Y-80100714D02*
X89994619Y-79520142D01*
X89994619Y-79810428D02*
X88978619Y-79810428D01*
X89123761Y-79713666D01*
X89220523Y-79616904D01*
X89268904Y-79520142D01*
X84527571Y-78703714D02*
X84527571Y-79477809D01*
X84914619Y-79090761D02*
X84140523Y-79090761D01*
X83898619Y-80445428D02*
X83898619Y-79961619D01*
X84382428Y-79913238D01*
X84334047Y-79961619D01*
X84285666Y-80058380D01*
X84285666Y-80300285D01*
X84334047Y-80397047D01*
X84382428Y-80445428D01*
X84479190Y-80493809D01*
X84721095Y-80493809D01*
X84817857Y-80445428D01*
X84866238Y-80397047D01*
X84914619Y-80300285D01*
X84914619Y-80058380D01*
X84866238Y-79961619D01*
X84817857Y-79913238D01*
X83898619Y-80784095D02*
X84914619Y-81122761D01*
X83898619Y-81461428D01*
X81407000Y-79235904D02*
X81358619Y-79139142D01*
X81358619Y-78994000D01*
X81407000Y-78848857D01*
X81503761Y-78752095D01*
X81600523Y-78703714D01*
X81794047Y-78655333D01*
X81939190Y-78655333D01*
X82132714Y-78703714D01*
X82229476Y-78752095D01*
X82326238Y-78848857D01*
X82374619Y-78994000D01*
X82374619Y-79090761D01*
X82326238Y-79235904D01*
X82277857Y-79284285D01*
X81939190Y-79284285D01*
X81939190Y-79090761D01*
X82374619Y-79719714D02*
X81358619Y-79719714D01*
X82374619Y-80300285D01*
X81358619Y-80300285D01*
X82374619Y-80784095D02*
X81358619Y-80784095D01*
X81358619Y-81026000D01*
X81407000Y-81171142D01*
X81503761Y-81267904D01*
X81600523Y-81316285D01*
X81794047Y-81364666D01*
X81939190Y-81364666D01*
X82132714Y-81316285D01*
X82229476Y-81267904D01*
X82326238Y-81171142D01*
X82374619Y-81026000D01*
X82374619Y-80784095D01*
X87067571Y-78854904D02*
X87067571Y-79629000D01*
X87454619Y-79241952D02*
X86680523Y-79241952D01*
X87454619Y-80645000D02*
X87454619Y-80064428D01*
X87454619Y-80354714D02*
X86438619Y-80354714D01*
X86583761Y-80257952D01*
X86680523Y-80161190D01*
X86728904Y-80064428D01*
X86535380Y-81032047D02*
X86487000Y-81080428D01*
X86438619Y-81177190D01*
X86438619Y-81419095D01*
X86487000Y-81515857D01*
X86535380Y-81564238D01*
X86632142Y-81612619D01*
X86728904Y-81612619D01*
X86874047Y-81564238D01*
X87454619Y-80983666D01*
X87454619Y-81612619D01*
X86438619Y-81902904D02*
X87454619Y-82241571D01*
X86438619Y-82580238D01*
X93724911Y-124871238D02*
X93628149Y-124919619D01*
X93434625Y-124919619D01*
X93337863Y-124871238D01*
X93289482Y-124774476D01*
X93289482Y-124726095D01*
X93337863Y-124629333D01*
X93434625Y-124580952D01*
X93579768Y-124580952D01*
X93676530Y-124532571D01*
X93724911Y-124435809D01*
X93724911Y-124387428D01*
X93676530Y-124290666D01*
X93579768Y-124242285D01*
X93434625Y-124242285D01*
X93337863Y-124290666D01*
X92660530Y-123903619D02*
X92563768Y-123903619D01*
X92467006Y-123952000D01*
X92418625Y-124000380D01*
X92370244Y-124097142D01*
X92321863Y-124290666D01*
X92321863Y-124532571D01*
X92370244Y-124726095D01*
X92418625Y-124822857D01*
X92467006Y-124871238D01*
X92563768Y-124919619D01*
X92660530Y-124919619D01*
X92757292Y-124871238D01*
X92805673Y-124822857D01*
X92854054Y-124726095D01*
X92902435Y-124532571D01*
X92902435Y-124290666D01*
X92854054Y-124097142D01*
X92805673Y-124000380D01*
X92757292Y-123952000D01*
X92660530Y-123903619D01*
X95660149Y-135079619D02*
X95660149Y-134402285D01*
X95660149Y-134595809D02*
X95611768Y-134499047D01*
X95563387Y-134450666D01*
X95466625Y-134402285D01*
X95369863Y-134402285D01*
X94644149Y-135031238D02*
X94740911Y-135079619D01*
X94934434Y-135079619D01*
X95031196Y-135031238D01*
X95079577Y-134934476D01*
X95079577Y-134547428D01*
X95031196Y-134450666D01*
X94934434Y-134402285D01*
X94740911Y-134402285D01*
X94644149Y-134450666D01*
X94595768Y-134547428D01*
X94595768Y-134644190D01*
X95079577Y-134740952D01*
X94208720Y-135031238D02*
X94111958Y-135079619D01*
X93918434Y-135079619D01*
X93821673Y-135031238D01*
X93773292Y-134934476D01*
X93773292Y-134886095D01*
X93821673Y-134789333D01*
X93918434Y-134740952D01*
X94063577Y-134740952D01*
X94160339Y-134692571D01*
X94208720Y-134595809D01*
X94208720Y-134547428D01*
X94160339Y-134450666D01*
X94063577Y-134402285D01*
X93918434Y-134402285D01*
X93821673Y-134450666D01*
X92950815Y-135031238D02*
X93047577Y-135079619D01*
X93241101Y-135079619D01*
X93337863Y-135031238D01*
X93386244Y-134934476D01*
X93386244Y-134547428D01*
X93337863Y-134450666D01*
X93241101Y-134402285D01*
X93047577Y-134402285D01*
X92950815Y-134450666D01*
X92902434Y-134547428D01*
X92902434Y-134644190D01*
X93386244Y-134740952D01*
X92612149Y-134402285D02*
X92225101Y-134402285D01*
X92467006Y-134063619D02*
X92467006Y-134934476D01*
X92418625Y-135031238D01*
X92321863Y-135079619D01*
X92225101Y-135079619D01*
X94208721Y-132539619D02*
X94208721Y-131862285D01*
X94208721Y-131959047D02*
X94160340Y-131910666D01*
X94063578Y-131862285D01*
X93918435Y-131862285D01*
X93821673Y-131910666D01*
X93773292Y-132007428D01*
X93773292Y-132539619D01*
X93773292Y-132007428D02*
X93724911Y-131910666D01*
X93628149Y-131862285D01*
X93483006Y-131862285D01*
X93386245Y-131910666D01*
X93337864Y-132007428D01*
X93337864Y-132539619D01*
X92321864Y-132539619D02*
X92902435Y-132539619D01*
X92612149Y-132539619D02*
X92612149Y-131523619D01*
X92708911Y-131668761D01*
X92805673Y-131765523D01*
X92902435Y-131813904D01*
X94837673Y-129999619D02*
X94837673Y-129322285D01*
X94837673Y-129515809D02*
X94789292Y-129419047D01*
X94740911Y-129370666D01*
X94644149Y-129322285D01*
X94547387Y-129322285D01*
X94353863Y-129322285D02*
X93966816Y-129322285D01*
X94208720Y-129999619D02*
X94208720Y-129128761D01*
X94160339Y-129032000D01*
X94063578Y-128983619D01*
X93966816Y-128983619D01*
X93676530Y-129951238D02*
X93579768Y-129999619D01*
X93386244Y-129999619D01*
X93289482Y-129951238D01*
X93241101Y-129854476D01*
X93241101Y-129806095D01*
X93289482Y-129709333D01*
X93386244Y-129660952D01*
X93531387Y-129660952D01*
X93628149Y-129612571D01*
X93676530Y-129515809D01*
X93676530Y-129467428D01*
X93628149Y-129370666D01*
X93531387Y-129322285D01*
X93386244Y-129322285D01*
X93289482Y-129370666D01*
X92805673Y-129999619D02*
X92805673Y-128983619D01*
X92370244Y-129999619D02*
X92370244Y-129467428D01*
X92418625Y-129370666D01*
X92515387Y-129322285D01*
X92660530Y-129322285D01*
X92757292Y-129370666D01*
X92805673Y-129419047D01*
X93676530Y-137571238D02*
X93773292Y-137619619D01*
X93966816Y-137619619D01*
X94063578Y-137571238D01*
X94111959Y-137522857D01*
X94160340Y-137426095D01*
X94160340Y-137135809D01*
X94111959Y-137039047D01*
X94063578Y-136990666D01*
X93966816Y-136942285D01*
X93773292Y-136942285D01*
X93676530Y-136990666D01*
X93095959Y-137619619D02*
X93192721Y-137571238D01*
X93241102Y-137474476D01*
X93241102Y-136603619D01*
X92708911Y-137619619D02*
X92708911Y-136603619D01*
X92612149Y-137232571D02*
X92321864Y-137619619D01*
X92321864Y-136942285D02*
X92708911Y-137329333D01*
X93724911Y-127411238D02*
X93628149Y-127459619D01*
X93434625Y-127459619D01*
X93337863Y-127411238D01*
X93289482Y-127314476D01*
X93289482Y-127266095D01*
X93337863Y-127169333D01*
X93434625Y-127120952D01*
X93579768Y-127120952D01*
X93676530Y-127072571D01*
X93724911Y-126975809D01*
X93724911Y-126927428D01*
X93676530Y-126830666D01*
X93579768Y-126782285D01*
X93434625Y-126782285D01*
X93337863Y-126830666D01*
X92321863Y-127459619D02*
X92902435Y-127459619D01*
X92612149Y-127459619D02*
X92612149Y-126443619D01*
X92708911Y-126588761D01*
X92805673Y-126685523D01*
X92902435Y-126733904D01*
X96289102Y-117934619D02*
X96289102Y-116918619D01*
X96289102Y-117305666D02*
X96192340Y-117257285D01*
X95998816Y-117257285D01*
X95902054Y-117305666D01*
X95853673Y-117354047D01*
X95805292Y-117450809D01*
X95805292Y-117741095D01*
X95853673Y-117837857D01*
X95902054Y-117886238D01*
X95998816Y-117934619D01*
X96192340Y-117934619D01*
X96289102Y-117886238D01*
X94934435Y-117257285D02*
X94934435Y-117934619D01*
X95369864Y-117257285D02*
X95369864Y-117789476D01*
X95321483Y-117886238D01*
X95224721Y-117934619D01*
X95079578Y-117934619D01*
X94982816Y-117886238D01*
X94934435Y-117837857D01*
X94499007Y-117886238D02*
X94402245Y-117934619D01*
X94208721Y-117934619D01*
X94111959Y-117886238D01*
X94063578Y-117789476D01*
X94063578Y-117741095D01*
X94111959Y-117644333D01*
X94208721Y-117595952D01*
X94353864Y-117595952D01*
X94450626Y-117547571D01*
X94499007Y-117450809D01*
X94499007Y-117402428D01*
X94450626Y-117305666D01*
X94353864Y-117257285D01*
X94208721Y-117257285D01*
X94111959Y-117305666D01*
X93192721Y-117934619D02*
X93192721Y-117402428D01*
X93241102Y-117305666D01*
X93337864Y-117257285D01*
X93531387Y-117257285D01*
X93628149Y-117305666D01*
X93192721Y-117886238D02*
X93289483Y-117934619D01*
X93531387Y-117934619D01*
X93628149Y-117886238D01*
X93676530Y-117789476D01*
X93676530Y-117692714D01*
X93628149Y-117595952D01*
X93531387Y-117547571D01*
X93289483Y-117547571D01*
X93192721Y-117499190D01*
X92708911Y-117934619D02*
X92708911Y-116918619D01*
X92612149Y-117547571D02*
X92321864Y-117934619D01*
X92321864Y-117257285D02*
X92708911Y-117644333D01*
X94837673Y-115394619D02*
X94837673Y-114717285D01*
X94837673Y-114378619D02*
X94886054Y-114427000D01*
X94837673Y-114475380D01*
X94789292Y-114427000D01*
X94837673Y-114378619D01*
X94837673Y-114475380D01*
X94208720Y-115394619D02*
X94305482Y-115346238D01*
X94353863Y-115297857D01*
X94402244Y-115201095D01*
X94402244Y-114910809D01*
X94353863Y-114814047D01*
X94305482Y-114765666D01*
X94208720Y-114717285D01*
X94063578Y-114717285D01*
X93966816Y-114765666D01*
X93918435Y-114814047D01*
X93870054Y-114910809D01*
X93870054Y-115201095D01*
X93918435Y-115297857D01*
X93966816Y-115346238D01*
X94063578Y-115394619D01*
X94208720Y-115394619D01*
X93434625Y-115394619D02*
X93434625Y-114717285D01*
X93434625Y-114910809D02*
X93386244Y-114814047D01*
X93337863Y-114765666D01*
X93241101Y-114717285D01*
X93144339Y-114717285D01*
X92370244Y-114717285D02*
X92370244Y-115733285D01*
X92370244Y-115346238D02*
X92467006Y-115394619D01*
X92660530Y-115394619D01*
X92757292Y-115346238D01*
X92805673Y-115297857D01*
X92854054Y-115201095D01*
X92854054Y-114910809D01*
X92805673Y-114814047D01*
X92757292Y-114765666D01*
X92660530Y-114717285D01*
X92467006Y-114717285D01*
X92370244Y-114765666D01*
X96095578Y-120474619D02*
X96095578Y-119458619D01*
X96095578Y-119845666D02*
X95998816Y-119797285D01*
X95805292Y-119797285D01*
X95708530Y-119845666D01*
X95660149Y-119894047D01*
X95611768Y-119990809D01*
X95611768Y-120281095D01*
X95660149Y-120377857D01*
X95708530Y-120426238D01*
X95805292Y-120474619D01*
X95998816Y-120474619D01*
X96095578Y-120426238D01*
X94740911Y-119797285D02*
X94740911Y-120474619D01*
X95176340Y-119797285D02*
X95176340Y-120329476D01*
X95127959Y-120426238D01*
X95031197Y-120474619D01*
X94886054Y-120474619D01*
X94789292Y-120426238D01*
X94740911Y-120377857D01*
X94305483Y-120426238D02*
X94208721Y-120474619D01*
X94015197Y-120474619D01*
X93918435Y-120426238D01*
X93870054Y-120329476D01*
X93870054Y-120281095D01*
X93918435Y-120184333D01*
X94015197Y-120135952D01*
X94160340Y-120135952D01*
X94257102Y-120087571D01*
X94305483Y-119990809D01*
X94305483Y-119942428D01*
X94257102Y-119845666D01*
X94160340Y-119797285D01*
X94015197Y-119797285D01*
X93918435Y-119845666D01*
X93434625Y-120474619D02*
X93434625Y-119797285D01*
X93434625Y-119990809D02*
X93386244Y-119894047D01*
X93337863Y-119845666D01*
X93241102Y-119797285D01*
X93144340Y-119797285D01*
X92370244Y-119797285D02*
X92370244Y-120813285D01*
X92370244Y-120426238D02*
X92467006Y-120474619D01*
X92660530Y-120474619D01*
X92757292Y-120426238D01*
X92805673Y-120377857D01*
X92854054Y-120281095D01*
X92854054Y-119990809D01*
X92805673Y-119894047D01*
X92757292Y-119845666D01*
X92660530Y-119797285D01*
X92467006Y-119797285D01*
X92370244Y-119845666D01*
X95660149Y-110314619D02*
X95660149Y-109637285D01*
X95660149Y-109734047D02*
X95611768Y-109685666D01*
X95515006Y-109637285D01*
X95369863Y-109637285D01*
X95273101Y-109685666D01*
X95224720Y-109782428D01*
X95224720Y-110314619D01*
X95224720Y-109782428D02*
X95176339Y-109685666D01*
X95079577Y-109637285D01*
X94934434Y-109637285D01*
X94837673Y-109685666D01*
X94789292Y-109782428D01*
X94789292Y-110314619D01*
X94305482Y-110314619D02*
X94305482Y-109637285D01*
X94305482Y-109830809D02*
X94257101Y-109734047D01*
X94208720Y-109685666D01*
X94111958Y-109637285D01*
X94015196Y-109637285D01*
X93289482Y-110266238D02*
X93386244Y-110314619D01*
X93579768Y-110314619D01*
X93676530Y-110266238D01*
X93724911Y-110169476D01*
X93724911Y-109782428D01*
X93676530Y-109685666D01*
X93579768Y-109637285D01*
X93386244Y-109637285D01*
X93289482Y-109685666D01*
X93241101Y-109782428D01*
X93241101Y-109879190D01*
X93724911Y-109975952D01*
X92370244Y-109637285D02*
X92370244Y-110653285D01*
X92370244Y-110266238D02*
X92467006Y-110314619D01*
X92660530Y-110314619D01*
X92757292Y-110266238D01*
X92805673Y-110217857D01*
X92854054Y-110121095D01*
X92854054Y-109830809D01*
X92805673Y-109734047D01*
X92757292Y-109685666D01*
X92660530Y-109637285D01*
X92467006Y-109637285D01*
X92370244Y-109685666D01*
X93676530Y-107097285D02*
X93483006Y-107774619D01*
X93289482Y-107290809D01*
X93095958Y-107774619D01*
X92902434Y-107097285D01*
X92515387Y-107774619D02*
X92515387Y-107097285D01*
X92515387Y-107290809D02*
X92467006Y-107194047D01*
X92418625Y-107145666D01*
X92321863Y-107097285D01*
X92225101Y-107097285D01*
X93434625Y-112854619D02*
X93434625Y-112177285D01*
X93434625Y-112370809D02*
X93386244Y-112274047D01*
X93337863Y-112225666D01*
X93241101Y-112177285D01*
X93144339Y-112177285D01*
X92370244Y-112854619D02*
X92370244Y-111838619D01*
X92370244Y-112806238D02*
X92467006Y-112854619D01*
X92660530Y-112854619D01*
X92757291Y-112806238D01*
X92805672Y-112757857D01*
X92854053Y-112661095D01*
X92854053Y-112370809D01*
X92805672Y-112274047D01*
X92757291Y-112225666D01*
X92660530Y-112177285D01*
X92467006Y-112177285D01*
X92370244Y-112225666D01*
X94305482Y-90629619D02*
X94305482Y-90097428D01*
X94353863Y-90000666D01*
X94450625Y-89952285D01*
X94644149Y-89952285D01*
X94740911Y-90000666D01*
X94305482Y-90581238D02*
X94402244Y-90629619D01*
X94644149Y-90629619D01*
X94740911Y-90581238D01*
X94789292Y-90484476D01*
X94789292Y-90387714D01*
X94740911Y-90290952D01*
X94644149Y-90242571D01*
X94402244Y-90242571D01*
X94305482Y-90194190D01*
X93289482Y-90629619D02*
X93870054Y-90629619D01*
X93579768Y-90629619D02*
X93579768Y-89613619D01*
X93676530Y-89758761D01*
X93773292Y-89855523D01*
X93870054Y-89903904D01*
X92660530Y-89613619D02*
X92563768Y-89613619D01*
X92467006Y-89662000D01*
X92418625Y-89710380D01*
X92370244Y-89807142D01*
X92321863Y-90000666D01*
X92321863Y-90242571D01*
X92370244Y-90436095D01*
X92418625Y-90532857D01*
X92467006Y-90581238D01*
X92563768Y-90629619D01*
X92660530Y-90629619D01*
X92757292Y-90581238D01*
X92805673Y-90532857D01*
X92854054Y-90436095D01*
X92902435Y-90242571D01*
X92902435Y-90000666D01*
X92854054Y-89807142D01*
X92805673Y-89710380D01*
X92757292Y-89662000D01*
X92660530Y-89613619D01*
X94305482Y-85549619D02*
X94305482Y-85017428D01*
X94353863Y-84920666D01*
X94450625Y-84872285D01*
X94644149Y-84872285D01*
X94740911Y-84920666D01*
X94305482Y-85501238D02*
X94402244Y-85549619D01*
X94644149Y-85549619D01*
X94740911Y-85501238D01*
X94789292Y-85404476D01*
X94789292Y-85307714D01*
X94740911Y-85210952D01*
X94644149Y-85162571D01*
X94402244Y-85162571D01*
X94305482Y-85114190D01*
X93628149Y-84533619D02*
X93531387Y-84533619D01*
X93434625Y-84582000D01*
X93386244Y-84630380D01*
X93337863Y-84727142D01*
X93289482Y-84920666D01*
X93289482Y-85162571D01*
X93337863Y-85356095D01*
X93386244Y-85452857D01*
X93434625Y-85501238D01*
X93531387Y-85549619D01*
X93628149Y-85549619D01*
X93724911Y-85501238D01*
X93773292Y-85452857D01*
X93821673Y-85356095D01*
X93870054Y-85162571D01*
X93870054Y-84920666D01*
X93821673Y-84727142D01*
X93773292Y-84630380D01*
X93724911Y-84582000D01*
X93628149Y-84533619D01*
X92708911Y-84969047D02*
X92805673Y-84920666D01*
X92854054Y-84872285D01*
X92902435Y-84775523D01*
X92902435Y-84727142D01*
X92854054Y-84630380D01*
X92805673Y-84582000D01*
X92708911Y-84533619D01*
X92515387Y-84533619D01*
X92418625Y-84582000D01*
X92370244Y-84630380D01*
X92321863Y-84727142D01*
X92321863Y-84775523D01*
X92370244Y-84872285D01*
X92418625Y-84920666D01*
X92515387Y-84969047D01*
X92708911Y-84969047D01*
X92805673Y-85017428D01*
X92854054Y-85065809D01*
X92902435Y-85162571D01*
X92902435Y-85356095D01*
X92854054Y-85452857D01*
X92805673Y-85501238D01*
X92708911Y-85549619D01*
X92515387Y-85549619D01*
X92418625Y-85501238D01*
X92370244Y-85452857D01*
X92321863Y-85356095D01*
X92321863Y-85162571D01*
X92370244Y-85065809D01*
X92418625Y-85017428D01*
X92515387Y-84969047D01*
X94305482Y-100789619D02*
X94305482Y-100257428D01*
X94353863Y-100160666D01*
X94450625Y-100112285D01*
X94644149Y-100112285D01*
X94740911Y-100160666D01*
X94305482Y-100741238D02*
X94402244Y-100789619D01*
X94644149Y-100789619D01*
X94740911Y-100741238D01*
X94789292Y-100644476D01*
X94789292Y-100547714D01*
X94740911Y-100450952D01*
X94644149Y-100402571D01*
X94402244Y-100402571D01*
X94305482Y-100354190D01*
X93289482Y-100789619D02*
X93870054Y-100789619D01*
X93579768Y-100789619D02*
X93579768Y-99773619D01*
X93676530Y-99918761D01*
X93773292Y-100015523D01*
X93870054Y-100063904D01*
X92418625Y-100112285D02*
X92418625Y-100789619D01*
X92660530Y-99725238D02*
X92902435Y-100450952D01*
X92273482Y-100450952D01*
X94305482Y-88089619D02*
X94305482Y-87557428D01*
X94353863Y-87460666D01*
X94450625Y-87412285D01*
X94644149Y-87412285D01*
X94740911Y-87460666D01*
X94305482Y-88041238D02*
X94402244Y-88089619D01*
X94644149Y-88089619D01*
X94740911Y-88041238D01*
X94789292Y-87944476D01*
X94789292Y-87847714D01*
X94740911Y-87750952D01*
X94644149Y-87702571D01*
X94402244Y-87702571D01*
X94305482Y-87654190D01*
X93628149Y-87073619D02*
X93531387Y-87073619D01*
X93434625Y-87122000D01*
X93386244Y-87170380D01*
X93337863Y-87267142D01*
X93289482Y-87460666D01*
X93289482Y-87702571D01*
X93337863Y-87896095D01*
X93386244Y-87992857D01*
X93434625Y-88041238D01*
X93531387Y-88089619D01*
X93628149Y-88089619D01*
X93724911Y-88041238D01*
X93773292Y-87992857D01*
X93821673Y-87896095D01*
X93870054Y-87702571D01*
X93870054Y-87460666D01*
X93821673Y-87267142D01*
X93773292Y-87170380D01*
X93724911Y-87122000D01*
X93628149Y-87073619D01*
X92805673Y-88089619D02*
X92612149Y-88089619D01*
X92515387Y-88041238D01*
X92467006Y-87992857D01*
X92370244Y-87847714D01*
X92321863Y-87654190D01*
X92321863Y-87267142D01*
X92370244Y-87170380D01*
X92418625Y-87122000D01*
X92515387Y-87073619D01*
X92708911Y-87073619D01*
X92805673Y-87122000D01*
X92854054Y-87170380D01*
X92902435Y-87267142D01*
X92902435Y-87509047D01*
X92854054Y-87605809D01*
X92805673Y-87654190D01*
X92708911Y-87702571D01*
X92515387Y-87702571D01*
X92418625Y-87654190D01*
X92370244Y-87605809D01*
X92321863Y-87509047D01*
X94305482Y-93169619D02*
X94305482Y-92637428D01*
X94353863Y-92540666D01*
X94450625Y-92492285D01*
X94644149Y-92492285D01*
X94740911Y-92540666D01*
X94305482Y-93121238D02*
X94402244Y-93169619D01*
X94644149Y-93169619D01*
X94740911Y-93121238D01*
X94789292Y-93024476D01*
X94789292Y-92927714D01*
X94740911Y-92830952D01*
X94644149Y-92782571D01*
X94402244Y-92782571D01*
X94305482Y-92734190D01*
X93289482Y-93169619D02*
X93870054Y-93169619D01*
X93579768Y-93169619D02*
X93579768Y-92153619D01*
X93676530Y-92298761D01*
X93773292Y-92395523D01*
X93870054Y-92443904D01*
X92321863Y-93169619D02*
X92902435Y-93169619D01*
X92612149Y-93169619D02*
X92612149Y-92153619D01*
X92708911Y-92298761D01*
X92805673Y-92395523D01*
X92902435Y-92443904D01*
X94305482Y-98249619D02*
X94305482Y-97717428D01*
X94353863Y-97620666D01*
X94450625Y-97572285D01*
X94644149Y-97572285D01*
X94740911Y-97620666D01*
X94305482Y-98201238D02*
X94402244Y-98249619D01*
X94644149Y-98249619D01*
X94740911Y-98201238D01*
X94789292Y-98104476D01*
X94789292Y-98007714D01*
X94740911Y-97910952D01*
X94644149Y-97862571D01*
X94402244Y-97862571D01*
X94305482Y-97814190D01*
X93289482Y-98249619D02*
X93870054Y-98249619D01*
X93579768Y-98249619D02*
X93579768Y-97233619D01*
X93676530Y-97378761D01*
X93773292Y-97475523D01*
X93870054Y-97523904D01*
X92950816Y-97233619D02*
X92321863Y-97233619D01*
X92660530Y-97620666D01*
X92515387Y-97620666D01*
X92418625Y-97669047D01*
X92370244Y-97717428D01*
X92321863Y-97814190D01*
X92321863Y-98056095D01*
X92370244Y-98152857D01*
X92418625Y-98201238D01*
X92515387Y-98249619D01*
X92805673Y-98249619D01*
X92902435Y-98201238D01*
X92950816Y-98152857D01*
X94305482Y-103329619D02*
X94305482Y-102797428D01*
X94353863Y-102700666D01*
X94450625Y-102652285D01*
X94644149Y-102652285D01*
X94740911Y-102700666D01*
X94305482Y-103281238D02*
X94402244Y-103329619D01*
X94644149Y-103329619D01*
X94740911Y-103281238D01*
X94789292Y-103184476D01*
X94789292Y-103087714D01*
X94740911Y-102990952D01*
X94644149Y-102942571D01*
X94402244Y-102942571D01*
X94305482Y-102894190D01*
X93289482Y-103329619D02*
X93870054Y-103329619D01*
X93579768Y-103329619D02*
X93579768Y-102313619D01*
X93676530Y-102458761D01*
X93773292Y-102555523D01*
X93870054Y-102603904D01*
X92370244Y-102313619D02*
X92854054Y-102313619D01*
X92902435Y-102797428D01*
X92854054Y-102749047D01*
X92757292Y-102700666D01*
X92515387Y-102700666D01*
X92418625Y-102749047D01*
X92370244Y-102797428D01*
X92321863Y-102894190D01*
X92321863Y-103136095D01*
X92370244Y-103232857D01*
X92418625Y-103281238D01*
X92515387Y-103329619D01*
X92757292Y-103329619D01*
X92854054Y-103281238D01*
X92902435Y-103232857D01*
X94305482Y-95709619D02*
X94305482Y-95177428D01*
X94353863Y-95080666D01*
X94450625Y-95032285D01*
X94644149Y-95032285D01*
X94740911Y-95080666D01*
X94305482Y-95661238D02*
X94402244Y-95709619D01*
X94644149Y-95709619D01*
X94740911Y-95661238D01*
X94789292Y-95564476D01*
X94789292Y-95467714D01*
X94740911Y-95370952D01*
X94644149Y-95322571D01*
X94402244Y-95322571D01*
X94305482Y-95274190D01*
X93289482Y-95709619D02*
X93870054Y-95709619D01*
X93579768Y-95709619D02*
X93579768Y-94693619D01*
X93676530Y-94838761D01*
X93773292Y-94935523D01*
X93870054Y-94983904D01*
X92902435Y-94790380D02*
X92854054Y-94742000D01*
X92757292Y-94693619D01*
X92515387Y-94693619D01*
X92418625Y-94742000D01*
X92370244Y-94790380D01*
X92321863Y-94887142D01*
X92321863Y-94983904D01*
X92370244Y-95129047D01*
X92950816Y-95709619D01*
X92321863Y-95709619D01*
X86050482Y-100789619D02*
X86050482Y-100257428D01*
X86098863Y-100160666D01*
X86195625Y-100112285D01*
X86389149Y-100112285D01*
X86485911Y-100160666D01*
X86050482Y-100741238D02*
X86147244Y-100789619D01*
X86389149Y-100789619D01*
X86485911Y-100741238D01*
X86534292Y-100644476D01*
X86534292Y-100547714D01*
X86485911Y-100450952D01*
X86389149Y-100402571D01*
X86147244Y-100402571D01*
X86050482Y-100354190D01*
X85373149Y-99773619D02*
X85276387Y-99773619D01*
X85179625Y-99822000D01*
X85131244Y-99870380D01*
X85082863Y-99967142D01*
X85034482Y-100160666D01*
X85034482Y-100402571D01*
X85082863Y-100596095D01*
X85131244Y-100692857D01*
X85179625Y-100741238D01*
X85276387Y-100789619D01*
X85373149Y-100789619D01*
X85469911Y-100741238D01*
X85518292Y-100692857D01*
X85566673Y-100596095D01*
X85615054Y-100402571D01*
X85615054Y-100160666D01*
X85566673Y-99967142D01*
X85518292Y-99870380D01*
X85469911Y-99822000D01*
X85373149Y-99773619D01*
X84163625Y-99773619D02*
X84357149Y-99773619D01*
X84453911Y-99822000D01*
X84502292Y-99870380D01*
X84599054Y-100015523D01*
X84647435Y-100209047D01*
X84647435Y-100596095D01*
X84599054Y-100692857D01*
X84550673Y-100741238D01*
X84453911Y-100789619D01*
X84260387Y-100789619D01*
X84163625Y-100741238D01*
X84115244Y-100692857D01*
X84066863Y-100596095D01*
X84066863Y-100354190D01*
X84115244Y-100257428D01*
X84163625Y-100209047D01*
X84260387Y-100160666D01*
X84453911Y-100160666D01*
X84550673Y-100209047D01*
X84599054Y-100257428D01*
X84647435Y-100354190D01*
X86050482Y-103329619D02*
X86050482Y-102797428D01*
X86098863Y-102700666D01*
X86195625Y-102652285D01*
X86389149Y-102652285D01*
X86485911Y-102700666D01*
X86050482Y-103281238D02*
X86147244Y-103329619D01*
X86389149Y-103329619D01*
X86485911Y-103281238D01*
X86534292Y-103184476D01*
X86534292Y-103087714D01*
X86485911Y-102990952D01*
X86389149Y-102942571D01*
X86147244Y-102942571D01*
X86050482Y-102894190D01*
X85373149Y-102313619D02*
X85276387Y-102313619D01*
X85179625Y-102362000D01*
X85131244Y-102410380D01*
X85082863Y-102507142D01*
X85034482Y-102700666D01*
X85034482Y-102942571D01*
X85082863Y-103136095D01*
X85131244Y-103232857D01*
X85179625Y-103281238D01*
X85276387Y-103329619D01*
X85373149Y-103329619D01*
X85469911Y-103281238D01*
X85518292Y-103232857D01*
X85566673Y-103136095D01*
X85615054Y-102942571D01*
X85615054Y-102700666D01*
X85566673Y-102507142D01*
X85518292Y-102410380D01*
X85469911Y-102362000D01*
X85373149Y-102313619D01*
X84695816Y-102313619D02*
X84018482Y-102313619D01*
X84453911Y-103329619D01*
X86050482Y-88089619D02*
X86050482Y-87557428D01*
X86098863Y-87460666D01*
X86195625Y-87412285D01*
X86389149Y-87412285D01*
X86485911Y-87460666D01*
X86050482Y-88041238D02*
X86147244Y-88089619D01*
X86389149Y-88089619D01*
X86485911Y-88041238D01*
X86534292Y-87944476D01*
X86534292Y-87847714D01*
X86485911Y-87750952D01*
X86389149Y-87702571D01*
X86147244Y-87702571D01*
X86050482Y-87654190D01*
X85373149Y-87073619D02*
X85276387Y-87073619D01*
X85179625Y-87122000D01*
X85131244Y-87170380D01*
X85082863Y-87267142D01*
X85034482Y-87460666D01*
X85034482Y-87702571D01*
X85082863Y-87896095D01*
X85131244Y-87992857D01*
X85179625Y-88041238D01*
X85276387Y-88089619D01*
X85373149Y-88089619D01*
X85469911Y-88041238D01*
X85518292Y-87992857D01*
X85566673Y-87896095D01*
X85615054Y-87702571D01*
X85615054Y-87460666D01*
X85566673Y-87267142D01*
X85518292Y-87170380D01*
X85469911Y-87122000D01*
X85373149Y-87073619D01*
X84066863Y-88089619D02*
X84647435Y-88089619D01*
X84357149Y-88089619D02*
X84357149Y-87073619D01*
X84453911Y-87218761D01*
X84550673Y-87315523D01*
X84647435Y-87363904D01*
X86050482Y-85549619D02*
X86050482Y-85017428D01*
X86098863Y-84920666D01*
X86195625Y-84872285D01*
X86389149Y-84872285D01*
X86485911Y-84920666D01*
X86050482Y-85501238D02*
X86147244Y-85549619D01*
X86389149Y-85549619D01*
X86485911Y-85501238D01*
X86534292Y-85404476D01*
X86534292Y-85307714D01*
X86485911Y-85210952D01*
X86389149Y-85162571D01*
X86147244Y-85162571D01*
X86050482Y-85114190D01*
X85373149Y-84533619D02*
X85276387Y-84533619D01*
X85179625Y-84582000D01*
X85131244Y-84630380D01*
X85082863Y-84727142D01*
X85034482Y-84920666D01*
X85034482Y-85162571D01*
X85082863Y-85356095D01*
X85131244Y-85452857D01*
X85179625Y-85501238D01*
X85276387Y-85549619D01*
X85373149Y-85549619D01*
X85469911Y-85501238D01*
X85518292Y-85452857D01*
X85566673Y-85356095D01*
X85615054Y-85162571D01*
X85615054Y-84920666D01*
X85566673Y-84727142D01*
X85518292Y-84630380D01*
X85469911Y-84582000D01*
X85373149Y-84533619D01*
X84405530Y-84533619D02*
X84308768Y-84533619D01*
X84212006Y-84582000D01*
X84163625Y-84630380D01*
X84115244Y-84727142D01*
X84066863Y-84920666D01*
X84066863Y-85162571D01*
X84115244Y-85356095D01*
X84163625Y-85452857D01*
X84212006Y-85501238D01*
X84308768Y-85549619D01*
X84405530Y-85549619D01*
X84502292Y-85501238D01*
X84550673Y-85452857D01*
X84599054Y-85356095D01*
X84647435Y-85162571D01*
X84647435Y-84920666D01*
X84599054Y-84727142D01*
X84550673Y-84630380D01*
X84502292Y-84582000D01*
X84405530Y-84533619D01*
X86050482Y-95709619D02*
X86050482Y-95177428D01*
X86098863Y-95080666D01*
X86195625Y-95032285D01*
X86389149Y-95032285D01*
X86485911Y-95080666D01*
X86050482Y-95661238D02*
X86147244Y-95709619D01*
X86389149Y-95709619D01*
X86485911Y-95661238D01*
X86534292Y-95564476D01*
X86534292Y-95467714D01*
X86485911Y-95370952D01*
X86389149Y-95322571D01*
X86147244Y-95322571D01*
X86050482Y-95274190D01*
X85373149Y-94693619D02*
X85276387Y-94693619D01*
X85179625Y-94742000D01*
X85131244Y-94790380D01*
X85082863Y-94887142D01*
X85034482Y-95080666D01*
X85034482Y-95322571D01*
X85082863Y-95516095D01*
X85131244Y-95612857D01*
X85179625Y-95661238D01*
X85276387Y-95709619D01*
X85373149Y-95709619D01*
X85469911Y-95661238D01*
X85518292Y-95612857D01*
X85566673Y-95516095D01*
X85615054Y-95322571D01*
X85615054Y-95080666D01*
X85566673Y-94887142D01*
X85518292Y-94790380D01*
X85469911Y-94742000D01*
X85373149Y-94693619D01*
X84163625Y-95032285D02*
X84163625Y-95709619D01*
X84405530Y-94645238D02*
X84647435Y-95370952D01*
X84018482Y-95370952D01*
X86050482Y-93169619D02*
X86050482Y-92637428D01*
X86098863Y-92540666D01*
X86195625Y-92492285D01*
X86389149Y-92492285D01*
X86485911Y-92540666D01*
X86050482Y-93121238D02*
X86147244Y-93169619D01*
X86389149Y-93169619D01*
X86485911Y-93121238D01*
X86534292Y-93024476D01*
X86534292Y-92927714D01*
X86485911Y-92830952D01*
X86389149Y-92782571D01*
X86147244Y-92782571D01*
X86050482Y-92734190D01*
X85373149Y-92153619D02*
X85276387Y-92153619D01*
X85179625Y-92202000D01*
X85131244Y-92250380D01*
X85082863Y-92347142D01*
X85034482Y-92540666D01*
X85034482Y-92782571D01*
X85082863Y-92976095D01*
X85131244Y-93072857D01*
X85179625Y-93121238D01*
X85276387Y-93169619D01*
X85373149Y-93169619D01*
X85469911Y-93121238D01*
X85518292Y-93072857D01*
X85566673Y-92976095D01*
X85615054Y-92782571D01*
X85615054Y-92540666D01*
X85566673Y-92347142D01*
X85518292Y-92250380D01*
X85469911Y-92202000D01*
X85373149Y-92153619D01*
X84695816Y-92153619D02*
X84066863Y-92153619D01*
X84405530Y-92540666D01*
X84260387Y-92540666D01*
X84163625Y-92589047D01*
X84115244Y-92637428D01*
X84066863Y-92734190D01*
X84066863Y-92976095D01*
X84115244Y-93072857D01*
X84163625Y-93121238D01*
X84260387Y-93169619D01*
X84550673Y-93169619D01*
X84647435Y-93121238D01*
X84695816Y-93072857D01*
X86050482Y-98249619D02*
X86050482Y-97717428D01*
X86098863Y-97620666D01*
X86195625Y-97572285D01*
X86389149Y-97572285D01*
X86485911Y-97620666D01*
X86050482Y-98201238D02*
X86147244Y-98249619D01*
X86389149Y-98249619D01*
X86485911Y-98201238D01*
X86534292Y-98104476D01*
X86534292Y-98007714D01*
X86485911Y-97910952D01*
X86389149Y-97862571D01*
X86147244Y-97862571D01*
X86050482Y-97814190D01*
X85373149Y-97233619D02*
X85276387Y-97233619D01*
X85179625Y-97282000D01*
X85131244Y-97330380D01*
X85082863Y-97427142D01*
X85034482Y-97620666D01*
X85034482Y-97862571D01*
X85082863Y-98056095D01*
X85131244Y-98152857D01*
X85179625Y-98201238D01*
X85276387Y-98249619D01*
X85373149Y-98249619D01*
X85469911Y-98201238D01*
X85518292Y-98152857D01*
X85566673Y-98056095D01*
X85615054Y-97862571D01*
X85615054Y-97620666D01*
X85566673Y-97427142D01*
X85518292Y-97330380D01*
X85469911Y-97282000D01*
X85373149Y-97233619D01*
X84115244Y-97233619D02*
X84599054Y-97233619D01*
X84647435Y-97717428D01*
X84599054Y-97669047D01*
X84502292Y-97620666D01*
X84260387Y-97620666D01*
X84163625Y-97669047D01*
X84115244Y-97717428D01*
X84066863Y-97814190D01*
X84066863Y-98056095D01*
X84115244Y-98152857D01*
X84163625Y-98201238D01*
X84260387Y-98249619D01*
X84502292Y-98249619D01*
X84599054Y-98201238D01*
X84647435Y-98152857D01*
X86050482Y-90629619D02*
X86050482Y-90097428D01*
X86098863Y-90000666D01*
X86195625Y-89952285D01*
X86389149Y-89952285D01*
X86485911Y-90000666D01*
X86050482Y-90581238D02*
X86147244Y-90629619D01*
X86389149Y-90629619D01*
X86485911Y-90581238D01*
X86534292Y-90484476D01*
X86534292Y-90387714D01*
X86485911Y-90290952D01*
X86389149Y-90242571D01*
X86147244Y-90242571D01*
X86050482Y-90194190D01*
X85373149Y-89613619D02*
X85276387Y-89613619D01*
X85179625Y-89662000D01*
X85131244Y-89710380D01*
X85082863Y-89807142D01*
X85034482Y-90000666D01*
X85034482Y-90242571D01*
X85082863Y-90436095D01*
X85131244Y-90532857D01*
X85179625Y-90581238D01*
X85276387Y-90629619D01*
X85373149Y-90629619D01*
X85469911Y-90581238D01*
X85518292Y-90532857D01*
X85566673Y-90436095D01*
X85615054Y-90242571D01*
X85615054Y-90000666D01*
X85566673Y-89807142D01*
X85518292Y-89710380D01*
X85469911Y-89662000D01*
X85373149Y-89613619D01*
X84647435Y-89710380D02*
X84599054Y-89662000D01*
X84502292Y-89613619D01*
X84260387Y-89613619D01*
X84163625Y-89662000D01*
X84115244Y-89710380D01*
X84066863Y-89807142D01*
X84066863Y-89903904D01*
X84115244Y-90049047D01*
X84695816Y-90629619D01*
X84066863Y-90629619D01*
X86050482Y-120474619D02*
X86050482Y-119458619D01*
X86050482Y-120426238D02*
X86147244Y-120474619D01*
X86340768Y-120474619D01*
X86437530Y-120426238D01*
X86485911Y-120377857D01*
X86534292Y-120281095D01*
X86534292Y-119990809D01*
X86485911Y-119894047D01*
X86437530Y-119845666D01*
X86340768Y-119797285D01*
X86147244Y-119797285D01*
X86050482Y-119845666D01*
X85373149Y-119458619D02*
X85276387Y-119458619D01*
X85179625Y-119507000D01*
X85131244Y-119555380D01*
X85082863Y-119652142D01*
X85034482Y-119845666D01*
X85034482Y-120087571D01*
X85082863Y-120281095D01*
X85131244Y-120377857D01*
X85179625Y-120426238D01*
X85276387Y-120474619D01*
X85373149Y-120474619D01*
X85469911Y-120426238D01*
X85518292Y-120377857D01*
X85566673Y-120281095D01*
X85615054Y-120087571D01*
X85615054Y-119845666D01*
X85566673Y-119652142D01*
X85518292Y-119555380D01*
X85469911Y-119507000D01*
X85373149Y-119458619D01*
X84115244Y-119458619D02*
X84599054Y-119458619D01*
X84647435Y-119942428D01*
X84599054Y-119894047D01*
X84502292Y-119845666D01*
X84260387Y-119845666D01*
X84163625Y-119894047D01*
X84115244Y-119942428D01*
X84066863Y-120039190D01*
X84066863Y-120281095D01*
X84115244Y-120377857D01*
X84163625Y-120426238D01*
X84260387Y-120474619D01*
X84502292Y-120474619D01*
X84599054Y-120426238D01*
X84647435Y-120377857D01*
X86050482Y-117934619D02*
X86050482Y-116918619D01*
X86050482Y-117886238D02*
X86147244Y-117934619D01*
X86340768Y-117934619D01*
X86437530Y-117886238D01*
X86485911Y-117837857D01*
X86534292Y-117741095D01*
X86534292Y-117450809D01*
X86485911Y-117354047D01*
X86437530Y-117305666D01*
X86340768Y-117257285D01*
X86147244Y-117257285D01*
X86050482Y-117305666D01*
X85373149Y-116918619D02*
X85276387Y-116918619D01*
X85179625Y-116967000D01*
X85131244Y-117015380D01*
X85082863Y-117112142D01*
X85034482Y-117305666D01*
X85034482Y-117547571D01*
X85082863Y-117741095D01*
X85131244Y-117837857D01*
X85179625Y-117886238D01*
X85276387Y-117934619D01*
X85373149Y-117934619D01*
X85469911Y-117886238D01*
X85518292Y-117837857D01*
X85566673Y-117741095D01*
X85615054Y-117547571D01*
X85615054Y-117305666D01*
X85566673Y-117112142D01*
X85518292Y-117015380D01*
X85469911Y-116967000D01*
X85373149Y-116918619D01*
X84163625Y-117257285D02*
X84163625Y-117934619D01*
X84405530Y-116870238D02*
X84647435Y-117595952D01*
X84018482Y-117595952D01*
X86050482Y-112854619D02*
X86050482Y-111838619D01*
X86050482Y-112806238D02*
X86147244Y-112854619D01*
X86340768Y-112854619D01*
X86437530Y-112806238D01*
X86485911Y-112757857D01*
X86534292Y-112661095D01*
X86534292Y-112370809D01*
X86485911Y-112274047D01*
X86437530Y-112225666D01*
X86340768Y-112177285D01*
X86147244Y-112177285D01*
X86050482Y-112225666D01*
X85373149Y-111838619D02*
X85276387Y-111838619D01*
X85179625Y-111887000D01*
X85131244Y-111935380D01*
X85082863Y-112032142D01*
X85034482Y-112225666D01*
X85034482Y-112467571D01*
X85082863Y-112661095D01*
X85131244Y-112757857D01*
X85179625Y-112806238D01*
X85276387Y-112854619D01*
X85373149Y-112854619D01*
X85469911Y-112806238D01*
X85518292Y-112757857D01*
X85566673Y-112661095D01*
X85615054Y-112467571D01*
X85615054Y-112225666D01*
X85566673Y-112032142D01*
X85518292Y-111935380D01*
X85469911Y-111887000D01*
X85373149Y-111838619D01*
X84647435Y-111935380D02*
X84599054Y-111887000D01*
X84502292Y-111838619D01*
X84260387Y-111838619D01*
X84163625Y-111887000D01*
X84115244Y-111935380D01*
X84066863Y-112032142D01*
X84066863Y-112128904D01*
X84115244Y-112274047D01*
X84695816Y-112854619D01*
X84066863Y-112854619D01*
X86050482Y-110314619D02*
X86050482Y-109298619D01*
X86050482Y-110266238D02*
X86147244Y-110314619D01*
X86340768Y-110314619D01*
X86437530Y-110266238D01*
X86485911Y-110217857D01*
X86534292Y-110121095D01*
X86534292Y-109830809D01*
X86485911Y-109734047D01*
X86437530Y-109685666D01*
X86340768Y-109637285D01*
X86147244Y-109637285D01*
X86050482Y-109685666D01*
X85373149Y-109298619D02*
X85276387Y-109298619D01*
X85179625Y-109347000D01*
X85131244Y-109395380D01*
X85082863Y-109492142D01*
X85034482Y-109685666D01*
X85034482Y-109927571D01*
X85082863Y-110121095D01*
X85131244Y-110217857D01*
X85179625Y-110266238D01*
X85276387Y-110314619D01*
X85373149Y-110314619D01*
X85469911Y-110266238D01*
X85518292Y-110217857D01*
X85566673Y-110121095D01*
X85615054Y-109927571D01*
X85615054Y-109685666D01*
X85566673Y-109492142D01*
X85518292Y-109395380D01*
X85469911Y-109347000D01*
X85373149Y-109298619D01*
X84066863Y-110314619D02*
X84647435Y-110314619D01*
X84357149Y-110314619D02*
X84357149Y-109298619D01*
X84453911Y-109443761D01*
X84550673Y-109540523D01*
X84647435Y-109588904D01*
X86050482Y-107774619D02*
X86050482Y-106758619D01*
X86050482Y-107726238D02*
X86147244Y-107774619D01*
X86340768Y-107774619D01*
X86437530Y-107726238D01*
X86485911Y-107677857D01*
X86534292Y-107581095D01*
X86534292Y-107290809D01*
X86485911Y-107194047D01*
X86437530Y-107145666D01*
X86340768Y-107097285D01*
X86147244Y-107097285D01*
X86050482Y-107145666D01*
X85373149Y-106758619D02*
X85276387Y-106758619D01*
X85179625Y-106807000D01*
X85131244Y-106855380D01*
X85082863Y-106952142D01*
X85034482Y-107145666D01*
X85034482Y-107387571D01*
X85082863Y-107581095D01*
X85131244Y-107677857D01*
X85179625Y-107726238D01*
X85276387Y-107774619D01*
X85373149Y-107774619D01*
X85469911Y-107726238D01*
X85518292Y-107677857D01*
X85566673Y-107581095D01*
X85615054Y-107387571D01*
X85615054Y-107145666D01*
X85566673Y-106952142D01*
X85518292Y-106855380D01*
X85469911Y-106807000D01*
X85373149Y-106758619D01*
X84405530Y-106758619D02*
X84308768Y-106758619D01*
X84212006Y-106807000D01*
X84163625Y-106855380D01*
X84115244Y-106952142D01*
X84066863Y-107145666D01*
X84066863Y-107387571D01*
X84115244Y-107581095D01*
X84163625Y-107677857D01*
X84212006Y-107726238D01*
X84308768Y-107774619D01*
X84405530Y-107774619D01*
X84502292Y-107726238D01*
X84550673Y-107677857D01*
X84599054Y-107581095D01*
X84647435Y-107387571D01*
X84647435Y-107145666D01*
X84599054Y-106952142D01*
X84550673Y-106855380D01*
X84502292Y-106807000D01*
X84405530Y-106758619D01*
X86050482Y-115394619D02*
X86050482Y-114378619D01*
X86050482Y-115346238D02*
X86147244Y-115394619D01*
X86340768Y-115394619D01*
X86437530Y-115346238D01*
X86485911Y-115297857D01*
X86534292Y-115201095D01*
X86534292Y-114910809D01*
X86485911Y-114814047D01*
X86437530Y-114765666D01*
X86340768Y-114717285D01*
X86147244Y-114717285D01*
X86050482Y-114765666D01*
X85373149Y-114378619D02*
X85276387Y-114378619D01*
X85179625Y-114427000D01*
X85131244Y-114475380D01*
X85082863Y-114572142D01*
X85034482Y-114765666D01*
X85034482Y-115007571D01*
X85082863Y-115201095D01*
X85131244Y-115297857D01*
X85179625Y-115346238D01*
X85276387Y-115394619D01*
X85373149Y-115394619D01*
X85469911Y-115346238D01*
X85518292Y-115297857D01*
X85566673Y-115201095D01*
X85615054Y-115007571D01*
X85615054Y-114765666D01*
X85566673Y-114572142D01*
X85518292Y-114475380D01*
X85469911Y-114427000D01*
X85373149Y-114378619D01*
X84695816Y-114378619D02*
X84066863Y-114378619D01*
X84405530Y-114765666D01*
X84260387Y-114765666D01*
X84163625Y-114814047D01*
X84115244Y-114862428D01*
X84066863Y-114959190D01*
X84066863Y-115201095D01*
X84115244Y-115297857D01*
X84163625Y-115346238D01*
X84260387Y-115394619D01*
X84550673Y-115394619D01*
X84647435Y-115346238D01*
X84695816Y-115297857D01*
X86050482Y-125554619D02*
X86050482Y-124538619D01*
X86050482Y-125506238D02*
X86147244Y-125554619D01*
X86340768Y-125554619D01*
X86437530Y-125506238D01*
X86485911Y-125457857D01*
X86534292Y-125361095D01*
X86534292Y-125070809D01*
X86485911Y-124974047D01*
X86437530Y-124925666D01*
X86340768Y-124877285D01*
X86147244Y-124877285D01*
X86050482Y-124925666D01*
X85373149Y-124538619D02*
X85276387Y-124538619D01*
X85179625Y-124587000D01*
X85131244Y-124635380D01*
X85082863Y-124732142D01*
X85034482Y-124925666D01*
X85034482Y-125167571D01*
X85082863Y-125361095D01*
X85131244Y-125457857D01*
X85179625Y-125506238D01*
X85276387Y-125554619D01*
X85373149Y-125554619D01*
X85469911Y-125506238D01*
X85518292Y-125457857D01*
X85566673Y-125361095D01*
X85615054Y-125167571D01*
X85615054Y-124925666D01*
X85566673Y-124732142D01*
X85518292Y-124635380D01*
X85469911Y-124587000D01*
X85373149Y-124538619D01*
X84695816Y-124538619D02*
X84018482Y-124538619D01*
X84453911Y-125554619D01*
X86050482Y-123014619D02*
X86050482Y-121998619D01*
X86050482Y-122966238D02*
X86147244Y-123014619D01*
X86340768Y-123014619D01*
X86437530Y-122966238D01*
X86485911Y-122917857D01*
X86534292Y-122821095D01*
X86534292Y-122530809D01*
X86485911Y-122434047D01*
X86437530Y-122385666D01*
X86340768Y-122337285D01*
X86147244Y-122337285D01*
X86050482Y-122385666D01*
X85373149Y-121998619D02*
X85276387Y-121998619D01*
X85179625Y-122047000D01*
X85131244Y-122095380D01*
X85082863Y-122192142D01*
X85034482Y-122385666D01*
X85034482Y-122627571D01*
X85082863Y-122821095D01*
X85131244Y-122917857D01*
X85179625Y-122966238D01*
X85276387Y-123014619D01*
X85373149Y-123014619D01*
X85469911Y-122966238D01*
X85518292Y-122917857D01*
X85566673Y-122821095D01*
X85615054Y-122627571D01*
X85615054Y-122385666D01*
X85566673Y-122192142D01*
X85518292Y-122095380D01*
X85469911Y-122047000D01*
X85373149Y-121998619D01*
X84163625Y-121998619D02*
X84357149Y-121998619D01*
X84453911Y-122047000D01*
X84502292Y-122095380D01*
X84599054Y-122240523D01*
X84647435Y-122434047D01*
X84647435Y-122821095D01*
X84599054Y-122917857D01*
X84550673Y-122966238D01*
X84453911Y-123014619D01*
X84260387Y-123014619D01*
X84163625Y-122966238D01*
X84115244Y-122917857D01*
X84066863Y-122821095D01*
X84066863Y-122579190D01*
X84115244Y-122482428D01*
X84163625Y-122434047D01*
X84260387Y-122385666D01*
X84453911Y-122385666D01*
X84550673Y-122434047D01*
X84599054Y-122482428D01*
X84647435Y-122579190D01*
X86776197Y-131862285D02*
X86582673Y-132539619D01*
X86389149Y-132055809D01*
X86195625Y-132539619D01*
X86002101Y-131862285D01*
X85179625Y-132539619D02*
X85179625Y-132007428D01*
X85228006Y-131910666D01*
X85324768Y-131862285D01*
X85518292Y-131862285D01*
X85615054Y-131910666D01*
X85179625Y-132491238D02*
X85276387Y-132539619D01*
X85518292Y-132539619D01*
X85615054Y-132491238D01*
X85663435Y-132394476D01*
X85663435Y-132297714D01*
X85615054Y-132200952D01*
X85518292Y-132152571D01*
X85276387Y-132152571D01*
X85179625Y-132104190D01*
X84695816Y-132539619D02*
X84695816Y-131862285D01*
X84695816Y-131523619D02*
X84744197Y-131572000D01*
X84695816Y-131620380D01*
X84647435Y-131572000D01*
X84695816Y-131523619D01*
X84695816Y-131620380D01*
X84357149Y-131862285D02*
X83970101Y-131862285D01*
X84212006Y-131523619D02*
X84212006Y-132394476D01*
X84163625Y-132491238D01*
X84066863Y-132539619D01*
X83970101Y-132539619D01*
X86582673Y-129999619D02*
X86582673Y-128983619D01*
X86147244Y-129999619D02*
X86147244Y-129467428D01*
X86195625Y-129370666D01*
X86292387Y-129322285D01*
X86437530Y-129322285D01*
X86534292Y-129370666D01*
X86582673Y-129419047D01*
X85228006Y-129999619D02*
X85228006Y-129467428D01*
X85276387Y-129370666D01*
X85373149Y-129322285D01*
X85566673Y-129322285D01*
X85663435Y-129370666D01*
X85228006Y-129951238D02*
X85324768Y-129999619D01*
X85566673Y-129999619D01*
X85663435Y-129951238D01*
X85711816Y-129854476D01*
X85711816Y-129757714D01*
X85663435Y-129660952D01*
X85566673Y-129612571D01*
X85324768Y-129612571D01*
X85228006Y-129564190D01*
X84599054Y-129999619D02*
X84695816Y-129951238D01*
X84744197Y-129854476D01*
X84744197Y-128983619D01*
X84357149Y-129322285D02*
X83970101Y-129322285D01*
X84212006Y-128983619D02*
X84212006Y-129854476D01*
X84163625Y-129951238D01*
X84066863Y-129999619D01*
X83970101Y-129999619D01*
X86389149Y-136942285D02*
X86389149Y-137619619D01*
X86389149Y-137039047D02*
X86340768Y-136990666D01*
X86244006Y-136942285D01*
X86098863Y-136942285D01*
X86002101Y-136990666D01*
X85953720Y-137087428D01*
X85953720Y-137619619D01*
X85469911Y-137619619D02*
X85469911Y-136942285D01*
X85469911Y-137039047D02*
X85421530Y-136990666D01*
X85324768Y-136942285D01*
X85179625Y-136942285D01*
X85082863Y-136990666D01*
X85034482Y-137087428D01*
X85034482Y-137619619D01*
X85034482Y-137087428D02*
X84986101Y-136990666D01*
X84889339Y-136942285D01*
X84744196Y-136942285D01*
X84647434Y-136990666D01*
X84599054Y-137087428D01*
X84599054Y-137619619D01*
X84115244Y-137619619D02*
X84115244Y-136942285D01*
X84115244Y-136603619D02*
X84163625Y-136652000D01*
X84115244Y-136700380D01*
X84066863Y-136652000D01*
X84115244Y-136603619D01*
X84115244Y-136700380D01*
X85615054Y-135079619D02*
X85615054Y-134402285D01*
X85615054Y-134063619D02*
X85663435Y-134112000D01*
X85615054Y-134160380D01*
X85566673Y-134112000D01*
X85615054Y-134063619D01*
X85615054Y-134160380D01*
X85131244Y-134402285D02*
X85131244Y-135079619D01*
X85131244Y-134499047D02*
X85082863Y-134450666D01*
X84986101Y-134402285D01*
X84840959Y-134402285D01*
X84744197Y-134450666D01*
X84695816Y-134547428D01*
X84695816Y-135079619D01*
X84357149Y-134402285D02*
X83970101Y-134402285D01*
X84212006Y-134063619D02*
X84212006Y-134934476D01*
X84163625Y-135031238D01*
X84066863Y-135079619D01*
X83970101Y-135079619D01*
M02*
