M48
; DRILL file {KiCad (5.1.4)-1} date 22/01/2022 16:03:04
; FORMAT={-:-/ absolute / metric / decimal}
; #@! TF.CreationDate,2022-01-22T16:03:04+02:00
; #@! TF.GenerationSoftware,Kicad,Pcbnew,(5.1.4)-1
; #@! TF.FileFunction,Plated,1,2,PTH
FMAT,2
METRIC
T1C0.800
T2C1.000
T3C3.000
%
G90
G05
T1
X154.305Y-91.44
X161.925Y-106.68
X118.745Y-137.16
X111.125Y-137.16
X128.905Y-76.2
X161.925Y-91.44
X154.305Y-76.2
X151.765Y-129.54
X106.045Y-99.06
X164.465Y-83.82
X113.665Y-114.3
X121.285Y-83.82
X133.985Y-137.16
X139.065Y-129.54
X111.125Y-76.2
X121.285Y-91.44
X136.525Y-114.3
X111.125Y-129.54
X144.145Y-91.44
X154.305Y-114.3
X131.445Y-83.82
X126.365Y-121.92
X151.765Y-76.2
X146.685Y-99.06
X121.285Y-129.54
X100.965Y-106.68
X159.385Y-83.82
X149.225Y-83.82
X121.285Y-137.16
X126.365Y-76.2
X121.285Y-106.68
X149.225Y-91.44
X133.985Y-83.82
X146.685Y-137.16
X159.385Y-99.06
X128.905Y-106.68
X113.665Y-137.16
X103.505Y-91.44
X128.905Y-91.44
X131.445Y-114.3
X139.065Y-83.82
X149.225Y-121.92
X141.605Y-99.06
X144.145Y-99.06
X128.905Y-129.54
X113.665Y-83.82
X113.665Y-106.68
X146.685Y-83.82
X159.385Y-121.92
X98.425Y-129.54
X133.985Y-99.06
X154.305Y-99.06
X164.465Y-114.3
X139.065Y-106.68
X103.505Y-114.3
X123.825Y-137.16
X136.525Y-129.54
X98.425Y-99.06
X136.525Y-91.44
X121.285Y-114.3
X139.065Y-121.92
X100.965Y-137.16
X123.825Y-99.06
X113.665Y-99.06
X151.765Y-114.3
X118.745Y-106.68
X126.365Y-137.16
X136.525Y-76.2
X131.445Y-91.44
X139.065Y-114.3
X154.305Y-121.92
X98.425Y-137.16
X164.465Y-129.54
X121.285Y-99.06
X121.285Y-121.92
X141.605Y-114.3
X128.905Y-137.16
X108.585Y-76.2
X139.065Y-91.44
X149.225Y-76.2
X156.845Y-129.54
X164.465Y-99.06
X151.765Y-91.44
X151.765Y-106.68
X139.065Y-137.16
X141.605Y-129.54
X133.985Y-76.2
X116.205Y-121.92
X126.365Y-114.3
X133.985Y-129.54
X161.925Y-83.82
X111.125Y-106.68
X126.365Y-83.82
X141.605Y-137.16
X116.205Y-129.54
X144.145Y-76.2
X159.385Y-129.54
X98.425Y-91.44
X126.365Y-91.44
X146.685Y-114.3
X136.525Y-83.82
X156.845Y-121.92
X106.045Y-76.2
X108.585Y-106.68
X108.585Y-129.54
X156.845Y-83.82
X108.585Y-83.82
X144.145Y-137.16
X131.445Y-76.2
X126.365Y-106.68
X113.665Y-129.54
X100.965Y-76.2
X113.665Y-91.44
X118.745Y-83.82
X131.445Y-121.92
X156.845Y-99.06
X131.445Y-106.68
X144.145Y-129.54
X98.425Y-76.2
X141.605Y-91.44
X128.905Y-114.3
X141.605Y-83.82
X144.145Y-121.92
X100.965Y-121.92
X111.125Y-99.06
X106.045Y-106.68
X108.585Y-137.16
X126.365Y-129.54
X100.965Y-91.44
X159.385Y-91.44
X116.205Y-114.3
X151.765Y-83.82
X151.765Y-137.16
X100.965Y-129.54
X136.525Y-99.06
X161.925Y-114.3
X141.605Y-106.68
X133.985Y-121.92
X103.505Y-83.82
X121.285Y-76.2
X108.585Y-91.44
X133.985Y-114.3
X128.905Y-121.92
X103.505Y-129.54
X126.365Y-99.06
X151.765Y-99.06
X159.385Y-106.68
X146.685Y-106.68
X136.525Y-121.92
X118.745Y-76.2
X146.685Y-91.44
X156.845Y-76.2
X151.765Y-121.92
X159.385Y-137.16
X116.205Y-99.06
X123.825Y-121.92
X111.125Y-114.3
X136.525Y-137.16
X123.825Y-129.54
X123.825Y-76.2
X108.585Y-121.92
X108.585Y-114.3
X146.685Y-129.54
X108.585Y-99.06
X111.125Y-83.82
X154.305Y-106.68
X111.125Y-121.92
X131.445Y-129.54
X141.605Y-76.2
X116.205Y-91.44
X159.385Y-76.2
X118.745Y-129.54
X98.425Y-83.82
X123.825Y-91.44
X156.845Y-114.3
X123.825Y-83.82
X164.465Y-121.92
X146.685Y-76.2
X161.925Y-129.54
X103.505Y-106.68
X106.045Y-91.44
X156.845Y-106.68
X144.145Y-83.82
X106.045Y-137.16
X113.665Y-76.2
X116.205Y-106.68
X106.045Y-129.54
X103.505Y-76.2
X118.745Y-91.44
X128.905Y-83.82
X116.205Y-137.16
X123.825Y-106.68
X103.505Y-99.06
X156.845Y-91.44
X116.205Y-83.82
X149.225Y-137.16
X139.065Y-99.06
X136.525Y-106.68
X149.225Y-129.54
X100.965Y-99.06
X164.465Y-91.44
X123.825Y-114.3
X106.045Y-83.82
X146.685Y-121.92
X103.505Y-137.16
X131.445Y-99.06
X161.925Y-99.06
X159.385Y-114.3
X133.985Y-106.68
X98.425Y-114.3
X113.665Y-121.92
X100.965Y-83.82
X106.045Y-121.92
X118.745Y-114.3
X154.305Y-83.82
X154.305Y-137.16
X98.425Y-106.68
X128.905Y-99.06
X164.465Y-106.68
X144.145Y-106.68
X98.425Y-121.92
X161.925Y-121.92
X154.305Y-129.54
X139.065Y-76.2
X111.125Y-91.44
X144.145Y-114.3
X141.605Y-121.92
X103.505Y-121.92
X149.225Y-99.06
X118.745Y-121.92
X149.225Y-114.3
X149.225Y-106.68
X100.965Y-114.3
X131.445Y-137.16
X116.205Y-76.2
X133.985Y-91.44
X106.045Y-114.3
X156.845Y-137.16
X118.745Y-99.06
T2
X81.915Y-76.2
X84.455Y-76.2
X86.995Y-76.2
X89.535Y-76.2
X90.17Y-124.46
X90.17Y-127.0
X90.17Y-129.54
X90.17Y-132.08
X90.17Y-134.62
X90.17Y-137.16
X81.915Y-85.09
X81.915Y-87.63
X81.915Y-90.17
X81.915Y-92.71
X81.915Y-95.25
X81.915Y-97.79
X81.915Y-100.33
X81.915Y-102.87
X74.295Y-74.93
X74.295Y-77.47
X74.295Y-80.01
X74.295Y-82.55
X74.295Y-85.09
X76.835Y-74.93
X76.835Y-77.47
X76.835Y-80.01
X76.835Y-82.55
X76.835Y-85.09
X81.915Y-107.315
X81.915Y-109.855
X81.915Y-112.395
X81.915Y-114.935
X81.915Y-117.475
X81.915Y-120.015
X81.915Y-122.555
X81.915Y-125.095
X90.17Y-107.315
X90.17Y-109.855
X90.17Y-112.395
X90.17Y-114.935
X90.17Y-117.475
X90.17Y-120.015
X74.295Y-90.17
X74.295Y-92.71
X74.295Y-95.25
X74.295Y-97.79
X74.295Y-100.33
X74.295Y-102.87
X74.295Y-105.41
X74.295Y-107.95
X74.295Y-110.49
X74.295Y-113.03
X74.295Y-115.57
X74.295Y-118.11
X74.295Y-120.65
X74.295Y-123.19
X74.295Y-125.73
X74.295Y-128.27
X74.295Y-130.81
X74.295Y-133.35
X74.295Y-135.89
X74.295Y-138.43
X76.835Y-90.17
X76.835Y-92.71
X76.835Y-95.25
X76.835Y-97.79
X76.835Y-100.33
X76.835Y-102.87
X76.835Y-105.41
X76.835Y-107.95
X76.835Y-110.49
X76.835Y-113.03
X76.835Y-115.57
X76.835Y-118.11
X76.835Y-120.65
X76.835Y-123.19
X76.835Y-125.73
X76.835Y-128.27
X76.835Y-130.81
X76.835Y-133.35
X76.835Y-135.89
X76.835Y-138.43
X81.915Y-129.54
X81.915Y-132.08
X81.915Y-134.62
X81.915Y-137.16
X90.17Y-85.09
X90.17Y-87.63
X90.17Y-90.17
X90.17Y-92.71
X90.17Y-95.25
X90.17Y-97.79
X90.17Y-100.33
X90.17Y-102.87
T3
X164.465Y-76.835
X164.465Y-136.525
T0
M30
